<?xml version="1.0" encoding="UTF-8"?>
<svg xmlns="http://www.w3.org/2000/svg" height="288px" version="1.1" width="480px">
  <g style="fill:#4DFF66;stroke:none;">
    <path d="M0.0 0.0 L480.0 0.0 L480.0 288.0 L0.0 288.0 L0.0 0.0 "/>
    <g style="">
      <g style="fill:none;stroke:#FFD34D;stroke-width:3.0;">
        <path d="M-4306.756 -15.641022 L-4012.5994 -309.79764 L-3718.4429 -15.641388 L-4012.5996 278.51523 L-4306.756 -15.641022 "/>
      </g>
      <g style="fill:none;stroke:#FFFC4D;stroke-width:3.0;">
        <path d="M-3688.7446 602.3701 L-3394.588 308.21347 L-3100.4316 602.3699 L-3394.5881 896.5265 L-3688.7446 602.3701 "/>
      </g>
      <g style="fill:none;stroke:#D8FF4D;stroke-width:3.0;">
        <path d="M-3070.7332 1220.3813 L-2776.5767 926.22473 L-2482.4202 1220.3811 L-2776.5767 1514.5377 L-3070.7332 1220.3813 "/>
      </g>
      <g style="fill:none;stroke:#AFFF4D;stroke-width:3.0;">
        <path d="M-2452.7217 1838.3926 L-2158.5652 1544.236 L-1864.4087 1838.3923 L-2158.5652 2132.5488 L-2452.7217 1838.3926 "/>
      </g>
      <g style="fill:none;stroke:#86FF4D;stroke-width:3.0;">
        <path d="M-1834.7103 2456.4036 L-1540.5538 2162.247 L-1246.3973 2456.4033 L-1540.5538 2750.56 L-1834.7103 2456.4036 "/>
      </g>
      <g style="fill:none;stroke:#5DFF4D;stroke-width:3.0;">
        <path d="M-1216.6989 3074.4148 L-922.54236 2780.2583 L-628.38586 3074.4146 L-922.54236 3368.5713 L-1216.6989 3074.4148 "/>
      </g>
      <g style="fill:none;stroke:#FFF6DB;stroke-width:3.0;">
        <path d="M-598.6875 3692.426 L-304.53104 3398.2695 L-10.374542 3692.4258 L-304.53104 3986.5825 L-598.6875 3692.426 "/>
      </g>
      <g style="fill:none;stroke:#FFEFBF;stroke-width:3.0;">
        <path d="M19.323944 4310.4375 L313.48044 4016.2808 L607.63696 4310.437 L313.48044 4604.5938 L19.323944 4310.4375 "/>
      </g>
      <g style="fill:none;stroke:#FFE8A2;stroke-width:3.0;">
        <path d="M-3216.2905 -811.9569 L-3216.2905 -395.95706 L-3632.2903 -395.95694 L-3632.2905 -811.9569 L-3216.2905 -811.9569 "/>
      </g>
      <g style="fill:none;stroke:#FFE186;stroke-width:3.0;">
        <path d="M-2598.2837 -193.94705 L-2598.2837 222.05295 L-3014.2837 222.05295 L-3014.2837 -193.94705 L-2598.2837 -193.94705 "/>
      </g>
      <g style="fill:none;stroke:#FFDA69;stroke-width:3.0;">
        <path d="M-1980.2742 424.0587 L-1980.2738 840.0586 L-2396.2742 840.0587 L-2396.2742 424.0587 L-1980.2742 424.0587 "/>
      </g>
      <g style="fill:none;stroke:#FFF6DB;stroke-width:3.0;">
        <path d="M-1362.2898 1042.0635 L-1362.2897 1458.0636 L-1778.2898 1458.0636 L-1778.2899 1042.0635 L-1362.2898 1042.0635 "/>
      </g>
      <g style="fill:none;stroke:#FFEFBF;stroke-width:3.0;">
        <path d="M-744.2516 1660.081 L-744.25146 2076.081 L-1160.2516 2076.0813 L-1160.2517 1660.0812 L-744.2516 1660.081 "/>
      </g>
      <g style="fill:none;stroke:#FFE8A2;stroke-width:3.0;">
        <path d="M-126.32669 2278.0605 L-126.32681 2694.0605 L-542.32654 2694.0605 L-542.3264 2278.0605 L-126.32669 2278.0605 "/>
      </g>
      <g style="fill:none;stroke:#FFE186;stroke-width:3.0;">
        <path d="M491.71042 2896.085 L491.71054 3312.0845 L75.710785 3312.0845 L75.71042 2896.0845 L491.71042 2896.085 "/>
      </g>
      <g style="fill:none;stroke:#FFDA69;stroke-width:3.0;">
        <path d="M1109.7479 3514.1033 L1109.7483 3930.1033 L693.7479 3930.1035 L693.7477 3514.1035 L1109.7479 3514.1033 "/>
      </g>
      <g style="fill:none;stroke:#FFF6DB;stroke-width:3.0;">
        <path d="M-2835.973 -898.11414 L-3130.1294 -1192.2704 L-2835.973 -1486.4269 L-2541.8164 -1192.2706 L-2835.973 -898.11414 "/>
      </g>
      <g style="fill:none;stroke:#FFEFBF;stroke-width:3.0;">
        <path d="M-2217.964 -280.10635 L-2512.1204 -574.2627 L-2217.9639 -868.4193 L-1923.8076 -574.26294 L-2217.964 -280.10635 "/>
      </g>
      <g style="fill:none;stroke:#FFE8A2;stroke-width:3.0;">
        <path d="M-1599.9517 337.90115 L-1894.108 43.74478 L-1599.9515 -250.41177 L-1305.7952 43.7446 L-1599.9517 337.90115 "/>
      </g>
      <g style="fill:none;stroke:#FFE186;stroke-width:3.0;">
        <path d="M-981.9375 955.9331 L-1276.0939 661.77673 L-981.9375 367.6203 L-687.7811 661.7767 L-981.9375 955.9331 "/>
      </g>
      <g style="fill:none;stroke:#FFDA69;stroke-width:3.0;">
        <path d="M-363.92157 1573.9385 L-658.078 1279.7821 L-363.92166 985.6256 L-69.7652 1279.7821 L-363.92157 1573.9385 "/>
      </g>
      <g style="fill:none;stroke:#FFF6DB;stroke-width:3.0;">
        <path d="M254.08499 2191.913 L-40.07144 1897.7567 L254.08493 1603.6002 L548.24133 1897.7566 L254.08499 2191.913 "/>
      </g>
      <g style="fill:none;stroke:#FFEFBF;stroke-width:3.0;">
        <path d="M872.09595 2809.9014 L577.93945 2515.7449 L872.0958 2221.5884 L1166.2524 2515.7449 L872.09595 2809.9014 "/>
      </g>
      <g style="fill:none;stroke:#FFE8A2;stroke-width:3.0;">
        <path d="M1490.1067 3427.8027 L1195.9502 3133.6465 L1490.1064 2839.49 L1784.263 3133.6462 L1490.1067 3427.8027 "/>
      </g>
      <g style="fill:none;stroke:#FFE186;stroke-width:3.0;">
        <path d="M-2455.6704 -1988.5973 L-2039.6704 -1988.5973 L-2039.6702 -1572.5973 L-2455.6704 -1572.5973 L-2455.6704 -1988.5973 "/>
      </g>
      <g style="fill:none;stroke:#FFDA69;stroke-width:3.0;">
        <path d="M-1837.6532 -1370.5667 L-1421.6532 -1370.5667 L-1421.6531 -954.5665 L-1837.6532 -954.5665 L-1837.6532 -1370.5667 "/>
      </g>
      <g style="fill:none;stroke:#FFF6DB;stroke-width:3.0;">
        <path d="M-1219.6409 -752.5552 L-803.64075 -752.55493 L-803.6406 -336.55502 L-1219.6409 -336.55472 L-1219.6409 -752.5552 "/>
      </g>
      <g style="fill:none;stroke:#FFEFBF;stroke-width:3.0;">
        <path d="M-601.62024 -134.5516 L-185.62012 -134.55167 L-185.62022 281.44824 L-601.6201 281.4485 L-601.62024 -134.5516 "/>
      </g>
      <g style="fill:none;stroke:#FFE8A2;stroke-width:3.0;">
        <path d="M16.388962 483.4629 L432.38922 483.46298 L432.38947 899.46326 L16.38919 899.46313 L16.388962 483.4629 "/>
      </g>
      <g style="fill:none;stroke:#FFE186;stroke-width:3.0;">
        <path d="M634.42114 1101.4668 L1050.421 1101.4666 L1050.421 1517.4664 L634.42114 1517.4667 L634.42114 1101.4668 "/>
      </g>
      <g style="fill:none;stroke:#FFDA69;stroke-width:3.0;">
        <path d="M1252.4308 1719.4763 L1668.431 1719.4764 L1668.4309 2135.4763 L1252.431 2135.4766 L1252.4308 1719.4763 "/>
      </g>
      <g style="fill:none;stroke:#FFF6DB;stroke-width:3.0;">
        <path d="M1870.3894 2337.5093 L2286.3892 2337.5088 L2286.39 2753.5098 L1870.3895 2753.5098 L1870.3894 2337.5093 "/>
      </g>
      <g style="fill:none;stroke:#FFEFBF;stroke-width:3.0;">
        <path d="M-1365.1586 -2368.9336 L-1659.315 -2074.777 L-1953.4716 -2368.9333 L-1659.3152 -2663.0898 L-1365.1586 -2368.9336 "/>
      </g>
      <g style="fill:none;stroke:#FFE8A2;stroke-width:3.0;">
        <path d="M-747.1859 -1750.8856 L-1041.3423 -1456.7291 L-1335.4988 -1750.8856 L-1041.3423 -2045.0419 L-747.1859 -1750.8856 "/>
      </g>
      <g style="fill:none;stroke:#FFE186;stroke-width:3.0;">
        <path d="M-129.18552 -1132.8827 L-423.34192 -838.7262 L-717.4984 -1132.8826 L-423.342 -1427.0391 L-129.18552 -1132.8827 "/>
      </g>
      <g style="fill:none;stroke:#FFDA69;stroke-width:3.0;">
        <path d="M488.85178 -514.85657 L194.6954 -220.70016 L-99.46106 -514.85657 L194.69531 -809.01294 L488.85178 -514.85657 "/>
      </g>
      <g style="fill:none;stroke:#FFF6DB;stroke-width:3.0;">
        <path d="M1106.8405 103.1456 L812.6841 397.30206 L518.5276 103.145706 L812.68396 -191.01077 L1106.8405 103.1456 "/>
      </g>
      <g style="fill:none;stroke:#FFEFBF;stroke-width:3.0;">
        <path d="M1724.8428 721.14233 L1430.6865 1015.2987 L1136.53 721.14246 L1430.6864 426.986 L1724.8428 721.14233 "/>
      </g>
      <g style="fill:none;stroke:#FFE8A2;stroke-width:3.0;">
        <path d="M2342.8398 1339.1305 L2048.6836 1633.287 L1754.5271 1339.1306 L2048.6833 1044.9741 L2342.8398 1339.1305 "/>
      </g>
      <g style="fill:none;stroke:#FFE186;stroke-width:3.0;">
        <path d="M2960.7776 1957.0734 L2666.6213 2251.2297 L2372.4648 1957.0736 L2666.621 1662.9171 L2960.7776 1957.0734 "/>
      </g>
      <g style="fill:none;stroke:#FFDA69;stroke-width:3.0;">
        <path d="M-1279.051 -2749.2146 L-1279.051 -3165.2144 L-863.0508 -3165.2144 L-863.05115 -2749.2144 L-1279.051 -2749.2146 "/>
      </g>
      <g style="fill:none;stroke:#FFD34D;stroke-width:3.0;">
        <path d="M-661.02344 -2131.195 L-661.0233 -2547.1948 L-245.02359 -2547.1948 L-245.0234 -2131.1953 L-661.02344 -2131.195 "/>
      </g>
      <g style="fill:none;stroke:#FFFC4D;stroke-width:3.0;">
        <path d="M-43.00528 -1513.2078 L-43.004974 -1929.2079 L372.9949 -1929.2079 L372.99503 -1513.2079 L-43.00528 -1513.2078 "/>
      </g>
      <g style="fill:none;stroke:#D8FF4D;stroke-width:3.0;">
        <path d="M575.0072 -895.19543 L575.0072 -1311.1952 L991.0071 -1311.1952 L991.0072 -895.1953 L575.0072 -895.19543 "/>
      </g>
      <g style="fill:none;stroke:#AFFF4D;stroke-width:3.0;">
        <path d="M1193.0195 -277.2014 L1193.0198 -693.2014 L1609.0201 -693.20166 L1609.0198 -277.20163 L1193.0195 -277.2014 "/>
      </g>
      <g style="fill:none;stroke:#86FF4D;stroke-width:3.0;">
        <path d="M1811.0217 340.84348 L1811.0217 -75.15628 L2227.022 -75.155975 L2227.022 340.84372 L1811.0217 340.84348 "/>
      </g>
      <g style="fill:none;stroke:#5DFF4D;stroke-width:3.0;">
        <path d="M2429.0374 958.8478 L2429.0376 542.84766 L2845.0376 542.848 L2845.0378 958.8478 L2429.0374 958.8478 "/>
      </g>
      <g style="fill:none;stroke:#FFF6DB;stroke-width:3.0;">
        <path d="M3047.0427 1576.8738 L3047.043 1160.8741 L3463.0432 1160.8733 L3463.043 1576.8735 L3047.0427 1576.8738 "/>
      </g>
      <g style="fill:none;stroke:#FFEFBF;stroke-width:3.0;">
        <path d="M-482.72623 -3839.6433 L-188.56973 -3545.4868 L-482.7261 -3251.3306 L-776.88257 -3545.4868 L-482.72623 -3839.6433 "/>
      </g>
      <g style="fill:none;stroke:#FFE8A2;stroke-width:3.0;">
        <path d="M135.32236 -3221.6602 L429.47885 -2927.504 L135.3226 -2633.3477 L-158.8339 -2927.504 L135.32236 -3221.6602 "/>
      </g>
      <g style="fill:none;stroke:#FFE186;stroke-width:3.0;">
        <path d="M753.3004 -2603.649 L1047.4565 -2309.4922 L753.3002 -2015.3353 L459.14365 -2309.492 L753.3004 -2603.649 "/>
      </g>
      <g style="fill:none;stroke:#FFDA69;stroke-width:3.0;">
        <path d="M1371.3551 -1985.6403 L1665.5116 -1691.484 L1371.3552 -1397.3275 L1077.1987 -1691.4839 L1371.3551 -1985.6403 "/>
      </g>
      <g style="fill:none;stroke:#FFF6DB;stroke-width:3.0;">
        <path d="M1989.324 -1367.6207 L2283.4805 -1073.4644 L1989.324 -779.30786 L1695.1676 -1073.4642 L1989.324 -1367.6207 "/>
      </g>
      <g style="fill:none;stroke:#FFEFBF;stroke-width:3.0;">
        <path d="M2607.424 -749.61743 L2901.5806 -455.4611 L2607.4243 -161.3046 L2313.2676 -455.46097 L2607.424 -749.61743 "/>
      </g>
      <g style="fill:none;stroke:#FFE8A2;stroke-width:3.0;">
        <path d="M3225.3936 -131.60977 L3519.5498 162.5466 L3225.3936 456.7031 L2931.237 162.54672 L3225.3936 -131.60977 "/>
      </g>
      <g style="fill:none;stroke:#FFE186;stroke-width:3.0;">
        <path d="M3843.3242 486.41904 L4137.481 780.57556 L3843.3245 1074.732 L3549.168 780.57556 L3843.3242 486.41904 "/>
      </g>
      <g style="fill:none;stroke:#FFDA69;stroke-width:3.0;">
        <path d="M313.54868 -3925.8193 L-102.45096 -3925.8193 L-102.45145 -4341.8193 L313.54855 -4341.8193 L313.54868 -3925.8193 "/>
      </g>
      <g style="fill:none;stroke:#FFF6DB;stroke-width:3.0;">
        <path d="M931.6085 -3307.7778 L515.6089 -3307.7778 L515.6084 -3723.7778 L931.60803 -3723.7783 L931.6085 -3307.7778 "/>
      </g>
      <g style="fill:none;stroke:#FFEFBF;stroke-width:3.0;">
        <path d="M1549.6089 -2689.8096 L1133.6093 -2689.8096 L1133.6091 -3105.809 L1549.609 -3105.8093 L1549.6089 -2689.8096 "/>
      </g>
      <g style="fill:none;stroke:#FFE8A2;stroke-width:3.0;">
        <path d="M2167.6375 -2071.7788 L1751.6375 -2071.7786 L1751.6372 -2487.7788 L2167.637 -2487.7788 L2167.6375 -2071.7788 "/>
      </g>
      <g style="fill:none;stroke:#FFE186;stroke-width:3.0;">
        <path d="M2785.5918 -1453.8762 L2369.592 -1453.8761 L2369.5913 -1869.8766 L2785.591 -1869.8766 L2785.5918 -1453.8762 "/>
      </g>
      <g style="fill:none;stroke:#FFDA69;stroke-width:3.0;">
        <path d="M3403.6753 -835.68164 L2987.6755 -835.68164 L2987.6748 -1251.682 L3403.6746 -1251.6821 L3403.6753 -835.68164 "/>
      </g>
      <g style="fill:none;stroke:#FFF6DB;stroke-width:3.0;">
        <path d="M4021.6118 -217.83658 L3605.612 -217.83646 L3605.6118 -633.83655 L4021.6113 -633.83655 L4021.6118 -217.83658 "/>
      </g>
      <g style="fill:none;stroke:#FFEFBF;stroke-width:3.0;">
        <path d="M4639.6504 400.19785 L4223.651 400.19797 L4223.6504 -15.801788 L4639.6504 -15.80191 L4639.6504 400.19785 "/>
      </g>
    </g>
  </g>
</svg>
