<?xml version="1.0" encoding="UTF-8"?>
<svg xmlns="http://www.w3.org/2000/svg" height="288px" version="1.1" width="480px">
  <g style="fill:#54AF97;stroke:none;">
    <path d="M0.0 0.0 L480.0 0.0 L480.0 288.0 L0.0 288.0 L0.0 0.0 "/>
    <g style="">
      <g style="fill:#54A5AF;stroke:none;">
        <path d="M-643.6748 -873.8459 L-528.6748 -643.8459 L-758.6748 -643.8459 L-643.6748 -873.8459 "/>
      </g>
      <g style="fill:#54A5AF;stroke:none;">
        <path d="M-643.6748 -626.8459 L-528.6748 -396.8459 L-758.6748 -396.8459 L-643.6748 -626.8459 "/>
      </g>
      <g style="fill:#54A5AF;stroke:none;">
        <path d="M-643.6748 -379.8459 L-528.6748 -149.84589 L-758.6748 -149.84589 L-643.6748 -379.8459 "/>
      </g>
      <g style="fill:#54A5AF;stroke:none;">
        <path d="M-643.6748 -132.84589 L-528.6748 97.15411 L-758.6748 97.15411 L-643.6748 -132.84589 "/>
      </g>
      <g style="fill:#54A5AF;stroke:none;">
        <path d="M-643.6748 114.15411 L-528.6748 344.1541 L-758.6748 344.1541 L-643.6748 114.15411 "/>
      </g>
      <g style="fill:#54A5AF;stroke:none;">
        <path d="M-643.6748 361.1541 L-528.6748 591.1541 L-758.6748 591.1541 L-643.6748 361.1541 "/>
      </g>
      <g style="fill:#54A5AF;stroke:none;">
        <path d="M-643.6748 608.1541 L-528.6748 838.1541 L-758.6748 838.1541 L-643.6748 608.1541 "/>
      </g>
      <g style="fill:#54A5AF;stroke:none;">
        <path d="M-643.6748 855.1541 L-528.6748 1085.154 L-758.6748 1085.154 L-643.6748 855.1541 "/>
      </g>
      <g style="fill:#54A5AF;stroke:none;">
        <path d="M-550.0107 -720.52435 L-320.01068 -835.52435 L-320.01068 -605.52435 L-550.0107 -720.52435 "/>
      </g>
      <g style="fill:#54A5AF;stroke:none;">
        <path d="M-550.0121 -473.52826 L-320.0121 -588.52826 L-320.0121 -358.52826 L-550.0121 -473.52826 "/>
      </g>
      <g style="fill:#54A5AF;stroke:none;">
        <path d="M-550.0093 -226.52179 L-320.0093 -341.5218 L-320.0093 -111.52179 L-550.0093 -226.52179 "/>
      </g>
      <g style="fill:#54A5AF;stroke:none;">
        <path d="M-550.008 20.481018 L-320.008 -94.51898 L-320.008 135.48102 L-550.008 20.481018 "/>
      </g>
      <g style="fill:#54A5AF;stroke:none;">
        <path d="M-550.01196 267.46954 L-320.01196 152.46954 L-320.01196 382.46954 L-550.01196 267.46954 "/>
      </g>
      <g style="fill:#54A5AF;stroke:none;">
        <path d="M-550.0115 514.46515 L-320.01147 399.46515 L-320.01147 629.46515 L-550.0115 514.46515 "/>
      </g>
      <g style="fill:#54A5AF;stroke:none;">
        <path d="M-550.0149 761.4703 L-320.0149 646.4703 L-320.0149 876.4703 L-550.0149 761.4703 "/>
      </g>
      <g style="fill:#54A5AF;stroke:none;">
        <path d="M-550.0105 1008.46857 L-320.0105 893.46857 L-320.0105 1123.4685 L-550.0105 1008.46857 "/>
      </g>
      <g style="fill:#54A5AF;stroke:none;">
        <path d="M-149.68188 -567.18036 L-264.6819 -797.18036 L-34.681885 -797.18036 L-149.68188 -567.18036 "/>
      </g>
      <g style="fill:#54A5AF;stroke:none;">
        <path d="M-149.67615 -320.18427 L-264.67615 -550.1843 L-34.676147 -550.18427 L-149.67615 -320.18427 "/>
      </g>
      <g style="fill:#54A5AF;stroke:none;">
        <path d="M-149.66907 -73.1756 L-264.66907 -303.1756 L-34.669067 -303.1756 L-149.66907 -73.1756 "/>
      </g>
      <g style="fill:#54A5AF;stroke:none;">
        <path d="M-149.67175 173.81598 L-264.67175 -56.18402 L-34.671753 -56.18402 L-149.67175 173.81598 "/>
      </g>
      <g style="fill:#54A5AF;stroke:none;">
        <path d="M-149.67761 420.8133 L-264.6776 190.8133 L-34.677612 190.8133 L-149.67761 420.8133 "/>
      </g>
      <g style="fill:#54A5AF;stroke:none;">
        <path d="M-149.68213 667.81305 L-264.68207 437.81305 L-34.68213 437.81305 L-149.68213 667.81305 "/>
      </g>
      <g style="fill:#54A5AF;stroke:none;">
        <path d="M-149.68622 914.8172 L-264.68622 684.8172 L-34.68628 684.8172 L-149.68622 914.8172 "/>
      </g>
      <g style="fill:#54A5AF;stroke:none;">
        <path d="M-149.68158 1161.8291 L-264.68158 931.82916 L-34.68158 931.82916 L-149.68158 1161.8291 "/>
      </g>
      <g style="fill:#54A5AF;stroke:none;">
        <path d="M250.66486 -720.5173 L20.664917 -605.5173 L20.664917 -835.5173 L250.66486 -720.5173 "/>
      </g>
      <g style="fill:#54A5AF;stroke:none;">
        <path d="M250.65466 -473.5145 L20.654663 -358.51447 L20.654663 -588.5145 L250.65466 -473.5145 "/>
      </g>
      <g style="fill:#54A5AF;stroke:none;">
        <path d="M250.6543 -226.50787 L20.654236 -111.50787 L20.654297 -341.50787 L250.6543 -226.50787 "/>
      </g>
      <g style="fill:#54A5AF;stroke:none;">
        <path d="M250.66351 20.483337 L20.663513 135.48328 L20.663574 -94.51672 L250.66351 20.483337 "/>
      </g>
      <g style="fill:#54A5AF;stroke:none;">
        <path d="M250.64581 267.4831 L20.645874 382.4831 L20.645874 152.4831 L250.64581 267.4831 "/>
      </g>
      <g style="fill:#54A5AF;stroke:none;">
        <path d="M250.65869 514.48846 L20.658691 629.48846 L20.658691 399.48846 L250.65869 514.48846 "/>
      </g>
      <g style="fill:#54A5AF;stroke:none;">
        <path d="M250.65088 761.48883 L20.650879 876.48883 L20.650879 646.48883 L250.65088 761.48883 "/>
      </g>
      <g style="fill:#54A5AF;stroke:none;">
        <path d="M250.65918 1008.49274 L20.65918 1123.4927 L20.65918 893.49274 L250.65918 1008.49274 "/>
      </g>
      <g style="fill:#54A5AF;stroke:none;">
        <path d="M344.3252 -873.8459 L459.3252 -643.8459 L229.3252 -643.8459 L344.3252 -873.8459 "/>
      </g>
      <g style="fill:#54A5AF;stroke:none;">
        <path d="M344.3252 -626.8459 L459.3252 -396.8459 L229.3252 -396.8459 L344.3252 -626.8459 "/>
      </g>
      <g style="fill:#54A5AF;stroke:none;">
        <path d="M344.3252 -379.8459 L459.3252 -149.84589 L229.32513 -149.84589 L344.3252 -379.8459 "/>
      </g>
      <g style="fill:#54A5AF;stroke:none;">
        <path d="M344.3252 -132.84589 L459.3252 97.15411 L229.32513 97.15411 L344.3252 -132.84589 "/>
      </g>
      <g style="fill:#54A5AF;stroke:none;">
        <path d="M344.3252 114.154175 L459.3252 344.1541 L229.32513 344.1541 L344.3252 114.154175 "/>
      </g>
      <g style="fill:#54A5AF;stroke:none;">
        <path d="M344.32532 361.1541 L459.3252 591.1541 L229.32526 591.1541 L344.32532 361.1541 "/>
      </g>
      <g style="fill:#54A5AF;stroke:none;">
        <path d="M344.3252 608.1541 L459.3252 838.1541 L229.32526 838.1541 L344.3252 608.1541 "/>
      </g>
      <g style="fill:#54A5AF;stroke:none;">
        <path d="M344.3252 855.1541 L459.3252 1085.154 L229.3252 1085.154 L344.3252 855.1541 "/>
      </g>
      <g style="fill:#54A5AF;stroke:none;">
        <path d="M437.98523 -720.518 L667.9852 -835.518 L667.9852 -605.518 L437.98523 -720.518 "/>
      </g>
      <g style="fill:#54A5AF;stroke:none;">
        <path d="M437.99207 -473.51862 L667.99207 -588.5186 L667.99194 -358.51862 L437.99207 -473.51862 "/>
      </g>
      <g style="fill:#54A5AF;stroke:none;">
        <path d="M437.99402 -226.50385 L667.9939 -341.50385 L667.9939 -111.503845 L437.99402 -226.50385 "/>
      </g>
      <g style="fill:#54A5AF;stroke:none;">
        <path d="M437.9967 20.490051 L667.9967 -94.50995 L667.9967 135.49005 L437.9967 20.490051 "/>
      </g>
      <g style="fill:#54A5AF;stroke:none;">
        <path d="M438.00464 267.4837 L668.00464 152.48383 L668.00464 382.48383 L438.00464 267.4837 "/>
      </g>
      <g style="fill:#54A5AF;stroke:none;">
        <path d="M438.00256 514.49896 L668.00256 399.49896 L668.00256 629.49896 L438.00256 514.49896 "/>
      </g>
      <g style="fill:#54A5AF;stroke:none;">
        <path d="M438.0044 761.4677 L668.0044 646.4677 L668.0044 876.4677 L438.0044 761.4677 "/>
      </g>
      <g style="fill:#54A5AF;stroke:none;">
        <path d="M437.97522 1008.54706 L667.9752 893.54706 L667.9752 1123.5471 L437.97522 1008.54706 "/>
      </g>
      <g style="fill:#54A5AF;stroke:none;">
        <path d="M838.3269 -567.17786 L723.3269 -797.17786 L953.3269 -797.17786 L838.3269 -567.17786 "/>
      </g>
      <g style="fill:#54A5AF;stroke:none;">
        <path d="M838.3379 -320.18372 L723.3379 -550.1837 L953.3379 -550.1837 L838.3379 -320.18372 "/>
      </g>
      <g style="fill:#54A5AF;stroke:none;">
        <path d="M838.31055 -73.1723 L723.31055 -303.1723 L953.31055 -303.1723 L838.31055 -73.1723 "/>
      </g>
      <g style="fill:#54A5AF;stroke:none;">
        <path d="M838.31055 173.81268 L723.31067 -56.187317 L953.31067 -56.187317 L838.31055 173.81268 "/>
      </g>
      <g style="fill:#54A5AF;stroke:none;">
        <path d="M838.2853 420.7746 L723.2853 190.7746 L953.2853 190.7746 L838.2853 420.7746 "/>
      </g>
      <g style="fill:#54A5AF;stroke:none;">
        <path d="M838.31995 667.8195 L723.31995 437.81952 L953.31995 437.81952 L838.31995 667.8195 "/>
      </g>
      <g style="fill:#54A5AF;stroke:none;">
        <path d="M838.2755 914.80975 L723.2755 684.80975 L953.2755 684.80975 L838.2755 914.80975 "/>
      </g>
      <g style="fill:#54A5AF;stroke:none;">
        <path d="M838.3463 1161.846 L723.3463 931.8459 L953.3463 931.8459 L838.3463 1161.846 "/>
      </g>
      <g style="fill:#54A5AF;stroke:none;">
        <path d="M1238.6489 -720.5026 L1008.64905 -605.50226 L1008.6487 -835.50226 L1238.6489 -720.5026 "/>
      </g>
      <g style="fill:#54A5AF;stroke:none;">
        <path d="M1238.6538 -473.5163 L1008.65393 -358.51593 L1008.65356 -588.5159 L1238.6538 -473.5163 "/>
      </g>
      <g style="fill:#54A5AF;stroke:none;">
        <path d="M1238.658 -226.50592 L1008.6582 -111.50543 L1008.6577 -341.50543 L1238.658 -226.50592 "/>
      </g>
      <g style="fill:#54A5AF;stroke:none;">
        <path d="M1238.6497 20.492188 L1008.6499 135.49268 L1008.6494 -94.507324 L1238.6497 20.492188 "/>
      </g>
      <g style="fill:#54A5AF;stroke:none;">
        <path d="M1238.6467 267.47687 L1008.64685 382.47723 L1008.6465 152.47723 L1238.6467 267.47687 "/>
      </g>
      <g style="fill:#54A5AF;stroke:none;">
        <path d="M1238.6265 514.487 L1008.6266 629.4875 L1008.6262 399.4875 L1238.6265 514.487 "/>
      </g>
      <g style="fill:#54A5AF;stroke:none;">
        <path d="M1238.6748 761.4677 L1008.6749 876.4682 L1008.67456 646.4682 L1238.6748 761.4677 "/>
      </g>
      <g style="fill:#54A5AF;stroke:none;">
        <path d="M1238.6748 1008.4963 L1008.6749 1123.4966 L1008.67456 893.49664 L1238.6748 1008.4963 "/>
      </g>
    </g>
  </g>
</svg>
