<?xml version="1.0" encoding="UTF-8"?>
<svg xmlns="http://www.w3.org/2000/svg" height="288px" version="1.1" width="480px">
  <g style="fill:#191919;stroke:none;">
    <path d="M0.0 0.0 L480.0 0.0 L480.0 288.0 L0.0 288.0 L0.0 0.0 "/>
    <g style="">
      <g style="fill:#9B92A0;stroke:none;">
        <path d="M4843.265 143.99982 L4536.3804 450.88422 L4229.496 143.99994 L4536.381 -162.88446 L4843.265 143.99982 "/>
      </g>
      <g style="fill:#9B92A0;stroke:none;">
        <path d="M4229.4966 -469.76874 L3922.612 -162.88434 L3615.7278 -469.76874 L3922.612 -776.65314 L4229.4966 -469.76874 "/>
      </g>
      <g style="fill:#9B92A0;stroke:none;">
        <path d="M3615.7278 -1083.5375 L3308.8435 -776.6531 L3001.9592 -1083.5374 L3308.8435 -1390.4218 L3615.7278 -1083.5375 "/>
      </g>
      <g style="fill:#9785A0;stroke:none;">
        <path d="M3001.9592 -1697.306 L2695.0747 -1390.4216 L2388.1904 -1697.306 L2695.075 -2004.1903 L3001.9592 -1697.306 "/>
      </g>
      <g style="fill:#9785A0;stroke:none;">
        <path d="M2388.1904 -2311.075 L2081.3062 -2004.1903 L1774.4216 -2311.0747 L2081.3062 -2617.9592 L2388.1904 -2311.075 "/>
      </g>
      <g style="fill:#9785A0;stroke:none;">
        <path d="M1774.4219 -2924.8435 L1467.5374 -2617.9592 L1160.6531 -2924.8435 L1467.5374 -3231.728 L1774.4219 -2924.8435 "/>
      </g>
      <g style="fill:#9277A0;stroke:none;">
        <path d="M1160.6531 -3538.6123 L853.76874 -3231.7278 L546.88434 -3538.6123 L853.76874 -3845.4966 L1160.6531 -3538.6123 "/>
      </g>
      <g style="fill:#9277A0;stroke:none;">
        <path d="M546.88446 -4152.381 L240.00006 -3845.4966 L-66.88422 -4152.381 L240.00018 -4459.265 L546.88446 -4152.381 "/>
      </g>
      <g style="fill:#9277A0;stroke:none;">
        <path d="M4229.496 757.7686 L3922.612 1064.653 L3615.7278 757.7686 L3922.612 450.88434 L4229.496 757.7686 "/>
      </g>
      <g style="fill:#8D6AA0;stroke:none;">
        <path d="M3615.7278 144.00006 L3308.8435 450.88434 L3001.9592 143.99994 L3308.8435 -162.88434 L3615.7278 144.00006 "/>
      </g>
      <g style="fill:#8D6AA0;stroke:none;">
        <path d="M3001.959 -469.76868 L2695.0747 -162.8844 L2388.1904 -469.76874 L2695.0747 -776.653 L3001.959 -469.76868 "/>
      </g>
      <g style="fill:#8D6AA0;stroke:none;">
        <path d="M2388.1904 -1083.5372 L2081.3062 -776.653 L1774.4216 -1083.5374 L2081.306 -1390.4216 L2388.1904 -1083.5372 "/>
      </g>
      <g style="fill:#895CA0;stroke:none;">
        <path d="M1774.4216 -1697.3059 L1467.5374 -1390.4216 L1160.6531 -1697.306 L1467.5374 -2004.1903 L1774.4216 -1697.3059 "/>
      </g>
      <g style="fill:#91A05C;stroke:none;">
        <path d="M1160.653 -2311.0747 L853.7687 -2004.1903 L546.88434 -2311.0747 L853.7686 -2617.959 L1160.653 -2311.0747 "/>
      </g>
      <g style="fill:#5C6AA0;stroke:none;">
        <path d="M546.88434 -2924.8433 L240.00006 -2617.959 L-66.88434 -2924.8435 L239.99994 -3231.7278 L546.88434 -2924.8433 "/>
      </g>
      <g style="fill:#9B92A0;stroke:none;">
        <path d="M-66.88434 -3538.612 L-373.76862 -3231.7278 L-680.6529 -3538.612 L-373.76862 -3845.4963 L-66.88434 -3538.612 "/>
      </g>
      <g style="fill:#9B92A0;stroke:none;">
        <path d="M3615.7278 1371.5372 L3308.8435 1678.4216 L3001.9592 1371.5374 L3308.8435 1064.653 L3615.7278 1371.5372 "/>
      </g>
      <g style="fill:#9B92A0;stroke:none;">
        <path d="M3001.9592 757.7687 L2695.075 1064.6531 L2388.1904 757.7686 L2695.0747 450.88428 L3001.9592 757.7687 "/>
      </g>
      <g style="fill:#9785A0;stroke:none;">
        <path d="M2388.1904 143.99994 L2081.3062 450.88428 L1774.4216 143.99994 L2081.3062 -162.8844 L2388.1904 143.99994 "/>
      </g>
      <g style="fill:#9785A0;stroke:none;">
        <path d="M1774.4216 -469.76874 L1467.5374 -162.88437 L1160.6531 -469.76874 L1467.5374 -776.6531 L1774.4216 -469.76874 "/>
      </g>
      <g style="fill:#9785A0;stroke:none;">
        <path d="M1160.6531 -1083.5374 L853.7687 -776.6531 L546.88434 -1083.5374 L853.7687 -1390.4218 L1160.6531 -1083.5374 "/>
      </g>
      <g style="fill:#9277A0;stroke:none;">
        <path d="M546.88434 -1697.306 L240.0 -1390.4218 L-66.88434 -1697.306 L240.0 -2004.1903 L546.88434 -1697.306 "/>
      </g>
      <g style="fill:#9277A0;stroke:none;">
        <path d="M-66.88428 -2311.0747 L-373.76862 -2004.1903 L-680.653 -2311.0747 L-373.76868 -2617.9592 L-66.88428 -2311.0747 "/>
      </g>
      <g style="fill:#9277A0;stroke:none;">
        <path d="M-680.6529 -2924.8435 L-987.5373 -2617.959 L-1294.4216 -2924.8433 L-987.5372 -3231.7278 L-680.6529 -2924.8435 "/>
      </g>
      <g style="fill:#8D6AA0;stroke:none;">
        <path d="M3001.959 1985.306 L2695.0747 2292.1902 L2388.1904 1985.306 L2695.0747 1678.4218 L3001.959 1985.306 "/>
      </g>
      <g style="fill:#8D6AA0;stroke:none;">
        <path d="M2388.1904 1371.5375 L2081.3062 1678.4218 L1774.4216 1371.5374 L2081.306 1064.6531 L2388.1904 1371.5375 "/>
      </g>
      <g style="fill:#8D6AA0;stroke:none;">
        <path d="M1774.4216 757.7686 L1467.5374 1064.653 L1160.6531 757.7686 L1467.5374 450.8843 L1774.4216 757.7686 "/>
      </g>
      <g style="fill:#895CA0;stroke:none;">
        <path d="M1160.6531 144.0 L853.7687 450.88434 L546.88434 144.0 L853.7687 -162.88434 L1160.6531 144.0 "/>
      </g>
      <g style="fill:#91A05C;stroke:none;">
        <path d="M546.88434 -469.76868 L240.0 -162.88434 L-66.88434 -469.76874 L239.99997 -776.653 L546.88434 -469.76868 "/>
      </g>
      <g style="fill:#5C6AA0;stroke:none;">
        <path d="M-66.88434 -1083.5374 L-373.76868 -776.6531 L-680.653 -1083.5374 L-373.76874 -1390.4216 L-66.88434 -1083.5374 "/>
      </g>
      <g style="fill:#9B92A0;stroke:none;">
        <path d="M-680.653 -1697.3059 L-987.5373 -1390.4216 L-1294.4216 -1697.306 L-987.5374 -2004.1903 L-680.653 -1697.3059 "/>
      </g>
      <g style="fill:#9B92A0;stroke:none;">
        <path d="M-1294.4216 -2311.0747 L-1601.3059 -2004.1903 L-1908.1902 -2311.0747 L-1601.3059 -2617.959 L-1294.4216 -2311.0747 "/>
      </g>
      <g style="fill:#9B92A0;stroke:none;">
        <path d="M2388.1902 2599.0745 L2081.306 2905.959 L1774.4216 2599.0747 L2081.306 2292.1902 L2388.1902 2599.0745 "/>
      </g>
      <g style="fill:#9785A0;stroke:none;">
        <path d="M1774.4216 1985.3062 L1467.5374 2292.1904 L1160.6531 1985.306 L1467.5374 1678.4218 L1774.4216 1985.3062 "/>
      </g>
      <g style="fill:#9785A0;stroke:none;">
        <path d="M1160.6531 1371.5374 L853.7687 1678.4218 L546.88434 1371.5374 L853.7687 1064.6531 L1160.6531 1371.5374 "/>
      </g>
      <g style="fill:#9785A0;stroke:none;">
        <path d="M546.88434 757.7687 L240.00003 1064.6531 L-66.88434 757.7686 L240.0 450.88434 L546.88434 757.7687 "/>
      </g>
      <g style="fill:#9277A0;stroke:none;">
        <path d="M-66.88434 144.0 L-373.76868 450.88428 L-680.653 143.99994 L-373.76874 -162.88437 L-66.88434 144.0 "/>
      </g>
      <g style="fill:#9277A0;stroke:none;">
        <path d="M-680.653 -469.76874 L-987.5374 -162.8844 L-1294.4216 -469.76874 L-987.5374 -776.653 L-680.653 -469.76874 "/>
      </g>
      <g style="fill:#9277A0;stroke:none;">
        <path d="M-1294.4216 -1083.5372 L-1601.3059 -776.653 L-1908.1902 -1083.5374 L-1601.3059 -1390.4216 L-1294.4216 -1083.5372 "/>
      </g>
      <g style="fill:#8D6AA0;stroke:none;">
        <path d="M-1908.1902 -1697.3059 L-2215.0745 -1390.4216 L-2521.9587 -1697.3059 L-2215.0745 -2004.1903 L-1908.1902 -1697.3059 "/>
      </g>
      <g style="fill:#8D6AA0;stroke:none;">
        <path d="M1774.4216 3212.8433 L1467.5374 3519.7275 L1160.6531 3212.8433 L1467.5374 2905.959 L1774.4216 3212.8433 "/>
      </g>
      <g style="fill:#8D6AA0;stroke:none;">
        <path d="M1160.6531 2599.0747 L853.76874 2905.959 L546.88434 2599.0747 L853.7687 2292.1902 L1160.6531 2599.0747 "/>
      </g>
      <g style="fill:#895CA0;stroke:none;">
        <path d="M546.88434 1985.306 L240.0 2292.1902 L-66.88434 1985.306 L240.0 1678.4218 L546.88434 1985.306 "/>
      </g>
      <g style="fill:#91A05C;stroke:none;">
        <path d="M-66.88434 1371.5374 L-373.76862 1678.4218 L-680.653 1371.5374 L-373.76868 1064.653 L-66.88434 1371.5374 "/>
      </g>
      <g style="fill:#5C6AA0;stroke:none;">
        <path d="M-680.653 757.7686 L-987.5373 1064.653 L-1294.4216 757.7686 L-987.5374 450.88428 L-680.653 757.7686 "/>
      </g>
      <g style="fill:#9B92A0;stroke:none;">
        <path d="M-1294.4216 143.99994 L-1601.3059 450.88428 L-1908.1902 143.99994 L-1601.3059 -162.8844 L-1294.4216 143.99994 "/>
      </g>
      <g style="fill:#9B92A0;stroke:none;">
        <path d="M-1908.1902 -469.76868 L-2215.0745 -162.88434 L-2521.959 -469.76874 L-2215.0747 -776.6531 L-1908.1902 -469.76868 "/>
      </g>
      <g style="fill:#9B92A0;stroke:none;">
        <path d="M-2521.959 -1083.5372 L-2828.8433 -776.653 L-3135.7275 -1083.5372 L-2828.8433 -1390.4215 L-2521.959 -1083.5372 "/>
      </g>
      <g style="fill:#9785A0;stroke:none;">
        <path d="M1160.6528 3826.6118 L853.7686 4133.496 L546.88434 3826.6118 L853.7686 3519.7275 L1160.6528 3826.6118 "/>
      </g>
      <g style="fill:#9785A0;stroke:none;">
        <path d="M546.88434 3212.8433 L240.00006 3519.7275 L-66.88434 3212.8433 L239.99994 2905.959 L546.88434 3212.8433 "/>
      </g>
      <g style="fill:#9785A0;stroke:none;">
        <path d="M-66.8844 2599.0747 L-373.76868 2905.959 L-680.653 2599.0747 L-373.76874 2292.1904 L-66.8844 2599.0747 "/>
      </g>
      <g style="fill:#9277A0;stroke:none;">
        <path d="M-680.653 1985.3062 L-987.5373 2292.1902 L-1294.4216 1985.306 L-987.5374 1678.4218 L-680.653 1985.3062 "/>
      </g>
      <g style="fill:#9277A0;stroke:none;">
        <path d="M-1294.4216 1371.5375 L-1601.3059 1678.4218 L-1908.1902 1371.5374 L-1601.3059 1064.6531 L-1294.4216 1371.5375 "/>
      </g>
      <g style="fill:#9277A0;stroke:none;">
        <path d="M-1908.1904 757.7687 L-2215.0747 1064.653 L-2521.959 757.7686 L-2215.0747 450.88434 L-1908.1904 757.7687 "/>
      </g>
      <g style="fill:#8D6AA0;stroke:none;">
        <path d="M-2521.959 144.00006 L-2828.8433 450.88434 L-3135.7278 143.99994 L-2828.8435 -162.88434 L-2521.959 144.00006 "/>
      </g>
      <g style="fill:#8D6AA0;stroke:none;">
        <path d="M-3135.7278 -469.76862 L-3442.612 -162.88434 L-3749.4963 -469.76862 L-3442.612 -776.6529 L-3135.7278 -469.76862 "/>
      </g>
      <g style="fill:#8D6AA0;stroke:none;">
        <path d="M546.8842 4440.3804 L239.99994 4747.265 L-66.88434 4440.3804 L239.99994 4133.4966 L546.8842 4440.3804 "/>
      </g>
      <g style="fill:#895CA0;stroke:none;">
        <path d="M-66.88434 3826.612 L-373.76862 4133.4966 L-680.653 3826.6118 L-373.76874 3519.7275 L-66.88434 3826.612 "/>
      </g>
      <g style="fill:#91A05C;stroke:none;">
        <path d="M-680.65314 3212.8433 L-987.5374 3519.7275 L-1294.4216 3212.8433 L-987.5374 2905.959 L-680.65314 3212.8433 "/>
      </g>
      <g style="fill:#5C6AA0;stroke:none;">
        <path d="M-1294.4216 2599.0747 L-1601.3059 2905.959 L-1908.1902 2599.0747 L-1601.3059 2292.1904 L-1294.4216 2599.0747 "/>
      </g>
      <g style="fill:#9B92A0;stroke:none;">
        <path d="M-1908.1904 1985.3062 L-2215.0747 2292.1902 L-2521.959 1985.306 L-2215.0747 1678.4218 L-1908.1904 1985.3062 "/>
      </g>
      <g style="fill:#9B92A0;stroke:none;">
        <path d="M-2521.959 1371.5375 L-2828.8433 1678.4218 L-3135.7278 1371.5374 L-2828.8435 1064.6531 L-2521.959 1371.5375 "/>
      </g>
      <g style="fill:#9B92A0;stroke:none;">
        <path d="M-3135.7278 757.76874 L-3442.612 1064.6531 L-3749.4963 757.7686 L-3442.612 450.88434 L-3135.7278 757.76874 "/>
      </g>
      <g style="fill:#9785A0;stroke:none;">
        <path d="M-3749.4963 144.00006 L-4056.3806 450.88434 L-4363.265 144.00006 L-4056.3806 -162.88422 L-3749.4963 144.00006 "/>
      </g>
    </g>
  </g>
</svg>
