<?xml version="1.0" encoding="UTF-8"?>
<svg xmlns="http://www.w3.org/2000/svg" height="288px" version="1.1" width="480px">
  <g style="fill:#2E6F5F;stroke:none;">
    <path d="M0.0 0.0 L480.0 0.0 L480.0 288.0 L0.0 288.0 L0.0 0.0 "/>
    <g style="">
      <g style="fill:#586F2E;stroke:none;">
        <path d="M2105.5 2272.0 L1951.4999 1964.0001 L2259.5 1964.0001 L2105.5 2272.0 "/>
      </g>
      <g style="fill:#5B6F36;stroke:none;">
        <path d="M2105.5 1708.0001 L1951.4999 1400.0001 L2259.5 1400.0001 L2105.5 1708.0001 "/>
      </g>
      <g style="fill:#5B6F36;stroke:none;">
        <path d="M2105.5 1144.0001 L1951.5 836.0001 L2259.5 836.0002 L2105.5 1144.0001 "/>
      </g>
      <g style="fill:#5D6F3D;stroke:none;">
        <path d="M2105.5 580.0001 L1951.5 272.00012 L2259.5 272.00015 L2105.5 580.0001 "/>
      </g>
      <g style="fill:#5D6F3D;stroke:none;">
        <path d="M2105.5 16.000153 L1951.5 -291.99988 L2259.5 -291.99982 L2105.5 16.000153 "/>
      </g>
      <g style="fill:#606F45;stroke:none;">
        <path d="M2105.5 -547.9999 L1951.5001 -855.9999 L2259.5 -855.9999 L2105.5 -547.9999 "/>
      </g>
      <g style="fill:#606F45;stroke:none;">
        <path d="M2105.5 -1111.9999 L1951.5001 -1419.9999 L2259.5 -1419.9999 L2105.5 -1111.9999 "/>
      </g>
      <g style="fill:#636F4D;stroke:none;">
        <path d="M2105.5 -1675.9999 L1951.5002 -1983.9998 L2259.5002 -1983.9998 L2105.5 -1675.9999 "/>
      </g>
      <g style="fill:#636F4D;stroke:none;">
        <path d="M1572.4999 2272.0 L1418.4999 1964.0001 L1726.4999 1964.0001 L1572.4999 2272.0 "/>
      </g>
      <g style="fill:#666F54;stroke:none;">
        <path d="M1572.4999 1708.0001 L1418.4999 1400.0001 L1726.4999 1400.0001 L1572.4999 1708.0001 "/>
      </g>
      <g style="fill:#666F54;stroke:none;">
        <path d="M1572.4999 1144.0001 L1418.5 836.00006 L1726.5 836.0001 L1572.4999 1144.0001 "/>
      </g>
      <g style="fill:#686F5C;stroke:none;">
        <path d="M1572.5 580.0001 L1418.5 272.0001 L1726.5 272.00012 L1572.5 580.0001 "/>
      </g>
      <g style="fill:#686F5C;stroke:none;">
        <path d="M1572.5 16.000092 L1418.5 -291.99994 L1726.5 -291.99988 L1572.5 16.000092 "/>
      </g>
      <g style="fill:#586F2E;stroke:none;">
        <path d="M1572.5001 -547.9999 L1418.5001 -855.9999 L1726.5001 -855.9999 L1572.5001 -547.9999 "/>
      </g>
      <g style="fill:#5B6F36;stroke:none;">
        <path d="M1572.5001 -1111.9999 L1418.5001 -1419.9999 L1726.5001 -1419.9999 L1572.5001 -1111.9999 "/>
      </g>
      <g style="fill:#5B6F36;stroke:none;">
        <path d="M1572.5001 -1675.9999 L1418.5002 -1984.0 L1726.5002 -1984.0 L1572.5001 -1675.9999 "/>
      </g>
      <g style="fill:#5D6F3D;stroke:none;">
        <path d="M1039.4998 2272.0 L885.4999 1964.0 L1193.4999 1964.0001 L1039.4998 2272.0 "/>
      </g>
      <g style="fill:#5D6F3D;stroke:none;">
        <path d="M1039.4999 1708.0 L885.4999 1400.0 L1193.4999 1400.0001 L1039.4999 1708.0 "/>
      </g>
      <g style="fill:#606F45;stroke:none;">
        <path d="M1039.5 1144.0 L885.49994 836.00006 L1193.5 836.00006 L1039.5 1144.0 "/>
      </g>
      <g style="fill:#606F45;stroke:none;">
        <path d="M1039.5 580.00006 L885.5 272.00003 L1193.5 272.00006 L1039.5 580.00006 "/>
      </g>
      <g style="fill:#636F4D;stroke:none;">
        <path d="M1039.5 16.000061 L885.50006 -291.99994 L1193.5 -291.99994 L1039.5 16.000061 "/>
      </g>
      <g style="fill:#636F4D;stroke:none;">
        <path d="M1039.5 -547.99994 L885.5001 -856.0 L1193.5001 -855.9999 L1039.5 -547.99994 "/>
      </g>
      <g style="fill:#666F54;stroke:none;">
        <path d="M1039.5001 -1112.0 L885.5001 -1420.0 L1193.5001 -1419.9999 L1039.5001 -1112.0 "/>
      </g>
      <g style="fill:#666F54;stroke:none;">
        <path d="M1039.5002 -1676.0 L885.50024 -1984.0 L1193.5002 -1984.0 L1039.5002 -1676.0 "/>
      </g>
      <g style="fill:#686F5C;stroke:none;">
        <path d="M506.49982 2272.0 L352.49985 1964.0 L660.4999 1964.0 L506.49982 2272.0 "/>
      </g>
      <g style="fill:#686F5C;stroke:none;">
        <path d="M506.49988 1708.0 L352.4999 1400.0 L660.4999 1400.0 L506.49988 1708.0 "/>
      </g>
      <g style="fill:#586F2E;stroke:none;">
        <path d="M506.49994 1144.0 L352.49994 836.0 L660.49994 836.0 L506.49994 1144.0 "/>
      </g>
      <g style="fill:#5B6F36;stroke:none;">
        <path d="M506.49997 580.0 L352.5 272.0 L660.5 272.00003 L506.49997 580.0 "/>
      </g>
      <g style="fill:#5B6F36;stroke:none;">
        <path d="M506.50003 16.0 L352.50006 -292.0 L660.50006 -292.0 L506.50003 16.0 "/>
      </g>
      <g style="fill:#5D6F3D;stroke:none;">
        <path d="M506.50006 -548.0 L352.5001 -856.0 L660.5001 -856.0 L506.50006 -548.0 "/>
      </g>
      <g style="fill:#5D6F3D;stroke:none;">
        <path d="M506.50012 -1112.0 L352.50015 -1420.0 L660.5001 -1420.0 L506.50012 -1112.0 "/>
      </g>
      <g style="fill:#606F45;stroke:none;">
        <path d="M506.50018 -1676.0 L352.50018 -1984.0 L660.5002 -1984.0 L506.50018 -1676.0 "/>
      </g>
      <g style="fill:#606F45;stroke:none;">
        <path d="M-26.500183 2272.0 L-180.50012 1964.0 L127.49985 1964.0 L-26.500183 2272.0 "/>
      </g>
      <g style="fill:#636F4D;stroke:none;">
        <path d="M-26.500122 1708.0 L-180.50012 1400.0 L127.49991 1400.0 L-26.500122 1708.0 "/>
      </g>
      <g style="fill:#636F4D;stroke:none;">
        <path d="M-26.500061 1144.0 L-180.50006 835.99994 L127.49994 835.99994 L-26.500061 1144.0 "/>
      </g>
      <g style="fill:#666F54;stroke:none;">
        <path d="M-26.50003 580.0 L-180.5 271.99994 L127.5 271.99997 L-26.50003 580.0 "/>
      </g>
      <g style="fill:#666F54;stroke:none;">
        <path d="M-26.49997 15.9999695 L-180.49994 -292.00006 L127.50006 -292.00006 L-26.49997 15.9999695 "/>
      </g>
      <g style="fill:#686F5C;stroke:none;">
        <path d="M-26.499939 -548.00006 L-180.49988 -856.0 L127.50009 -856.0 L-26.499939 -548.00006 "/>
      </g>
      <g style="fill:#686F5C;stroke:none;">
        <path d="M-26.499878 -1112.0 L-180.49988 -1420.0 L127.50015 -1420.0 L-26.499878 -1112.0 "/>
      </g>
      <g style="fill:#586F2E;stroke:none;">
        <path d="M-26.499817 -1676.0 L-180.49982 -1984.0 L127.50021 -1984.0 L-26.499817 -1676.0 "/>
      </g>
      <g style="fill:#5B6F36;stroke:none;">
        <path d="M-559.5001 2272.0 L-713.5001 1963.9999 L-405.50012 1963.9999 L-559.5001 2272.0 "/>
      </g>
      <g style="fill:#5B6F36;stroke:none;">
        <path d="M-559.5001 1707.9999 L-713.5001 1399.9999 L-405.50012 1399.9999 L-559.5001 1707.9999 "/>
      </g>
      <g style="fill:#5D6F3D;stroke:none;">
        <path d="M-559.5001 1144.0 L-713.5 835.9999 L-405.50006 835.99994 L-559.5001 1144.0 "/>
      </g>
      <g style="fill:#5D6F3D;stroke:none;">
        <path d="M-559.5 579.9999 L-713.5 271.9999 L-405.5 271.9999 L-559.5 579.9999 "/>
      </g>
      <g style="fill:#606F45;stroke:none;">
        <path d="M-559.5 15.999908 L-713.5 -292.00012 L-405.49994 -292.00006 L-559.5 15.999908 "/>
      </g>
      <g style="fill:#606F45;stroke:none;">
        <path d="M-559.4999 -548.00006 L-713.4999 -856.0001 L-405.49988 -856.0001 L-559.4999 -548.00006 "/>
      </g>
      <g style="fill:#636F4D;stroke:none;">
        <path d="M-559.4999 -1112.0001 L-713.4999 -1420.0001 L-405.49988 -1420.0001 L-559.4999 -1112.0001 "/>
      </g>
      <g style="fill:#636F4D;stroke:none;">
        <path d="M-559.4999 -1676.0001 L-713.49976 -1984.0 L-405.49982 -1984.0 L-559.4999 -1676.0001 "/>
      </g>
      <g style="fill:#666F54;stroke:none;">
        <path d="M-1092.5001 2272.0 L-1246.5001 1963.9999 L-938.5001 1963.9999 L-1092.5001 2272.0 "/>
      </g>
      <g style="fill:#666F54;stroke:none;">
        <path d="M-1092.5001 1707.9999 L-1246.5001 1399.9999 L-938.5001 1399.9999 L-1092.5001 1707.9999 "/>
      </g>
      <g style="fill:#686F5C;stroke:none;">
        <path d="M-1092.5001 1143.9999 L-1246.5 835.9999 L-938.5 835.9999 L-1092.5001 1143.9999 "/>
      </g>
      <g style="fill:#686F5C;stroke:none;">
        <path d="M-1092.5 579.9999 L-1246.5 271.99985 L-938.5 271.99988 L-1092.5 579.9999 "/>
      </g>
      <g style="fill:#586F2E;stroke:none;">
        <path d="M-1092.5 15.999847 L-1246.5 -292.00012 L-938.5 -292.00012 L-1092.5 15.999847 "/>
      </g>
      <g style="fill:#5B6F36;stroke:none;">
        <path d="M-1092.4999 -548.0001 L-1246.4999 -856.0001 L-938.4999 -856.0001 L-1092.4999 -548.0001 "/>
      </g>
      <g style="fill:#5B6F36;stroke:none;">
        <path d="M-1092.4999 -1112.0001 L-1246.4999 -1420.0001 L-938.4999 -1420.0001 L-1092.4999 -1112.0001 "/>
      </g>
      <g style="fill:#5D6F3D;stroke:none;">
        <path d="M-1092.4999 -1676.0001 L-1246.4998 -1984.0002 L-938.49976 -1984.0002 L-1092.4999 -1676.0001 "/>
      </g>
      <g style="fill:#5D6F3D;stroke:none;">
        <path d="M-1625.5002 2271.9998 L-1779.5002 1963.9998 L-1471.5001 1963.9999 L-1625.5002 2271.9998 "/>
      </g>
      <g style="fill:#606F45;stroke:none;">
        <path d="M-1625.5002 1707.9998 L-1779.5 1399.9998 L-1471.5001 1399.9999 L-1625.5002 1707.9998 "/>
      </g>
      <g style="fill:#606F45;stroke:none;">
        <path d="M-1625.5 1143.9998 L-1779.5 835.9998 L-1471.5 835.9998 L-1625.5 1143.9998 "/>
      </g>
      <g style="fill:#636F4D;stroke:none;">
        <path d="M-1625.5 579.9998 L-1779.5 271.99982 L-1471.5 271.99982 L-1625.5 579.9998 "/>
      </g>
      <g style="fill:#636F4D;stroke:none;">
        <path d="M-1625.5 15.999817 L-1779.5 -292.00018 L-1471.5 -292.00018 L-1625.5 15.999817 "/>
      </g>
      <g style="fill:#666F54;stroke:none;">
        <path d="M-1625.5 -548.0002 L-1779.5 -856.00024 L-1471.4999 -856.0001 L-1625.5 -548.0002 "/>
      </g>
      <g style="fill:#666F54;stroke:none;">
        <path d="M-1625.4998 -1112.0002 L-1779.4998 -1420.0002 L-1471.4999 -1420.0001 L-1625.4998 -1112.0002 "/>
      </g>
      <g style="fill:#686F5C;stroke:none;">
        <path d="M-1625.4998 -1676.0002 L-1779.4998 -1984.0002 L-1471.4998 -1984.0002 L-1625.4998 -1676.0002 "/>
      </g>
    </g>
  </g>
</svg>
