<?xml version="1.0" encoding="UTF-8"?>
<svg xmlns="http://www.w3.org/2000/svg" height="288px" version="1.1" width="480px">
  <g style="fill:#B64EB7;stroke:none;">
    <path d="M0.0 0.0 L480.0 0.0 L480.0 288.0 L0.0 288.0 L0.0 0.0 "/>
    <g style="">
      <g style="fill:none;stroke:#B78C08;stroke-width:3.0;">
        <path d="M713.0814 279.65396 L636.9895 321.8324 L594.81104 245.74048 L670.90295 203.56204 L713.0814 279.65396 "/>
      </g>
      <g style="fill:none;stroke:#B508B7;stroke-width:3.0;">
        <path d="M632.8595 224.64987 L669.1537 204.53166 L671.6302 204.87396 L673.56946 208.37245 L675.50867 211.87093 L677.4479 215.3694 L679.38715 218.86789 L681.3264 222.36636 L683.2656 225.86484 L685.20483 229.36333 L687.1441 232.8618 L689.0833 236.36028 L691.0226 239.85876 L692.9618 243.35724 L694.901 246.85571 L696.8403 250.35419 L698.77954 253.85268 L700.71875 257.35114 L702.65796 260.8496 L704.5972 264.3481 L706.5365 267.8466 L708.4757 271.34506 L710.4149 274.84357 L712.3542 278.34204 L713.0814 279.65396 L675.03796 300.74182 L632.8595 224.64987 Z "/>
      </g>
      <g style="fill:none;stroke:#B783B7;stroke-width:3.0;">
        <path d="M670.90295 203.56204 L594.81104 245.74048 L552.6326 169.64856 L628.72455 127.47012 L670.90295 203.56204 "/>
      </g>
      <g style="fill:none;stroke:#B519B7;stroke-width:3.0;">
        <path d="M553.5072 169.16374 L626.9753 128.43974 L629.4518 128.78204 L631.391 132.28053 L633.3302 135.779 L635.2695 139.27748 L637.20874 142.77597 L639.14795 146.27444 L641.08716 149.77292 L643.0264 153.27141 L644.96564 156.76988 L646.9049 160.26836 L648.8441 163.76685 L650.7834 167.26532 L652.7226 170.7638 L654.66187 174.26228 L656.6011 177.76076 L658.54034 181.25923 L660.47955 184.75772 L662.4188 188.2562 L664.35803 191.75467 L666.29724 195.25316 L668.2365 198.75163 L670.1758 202.2501 L670.90295 203.56204 L597.43494 244.28604 L594.5741 245.30122 L553.8427 171.81985 L553.5072 169.16374 Z "/>
      </g>
      <g style="fill:none;stroke:#B783B7;stroke-width:3.0;">
        <path d="M628.72455 127.47012 L552.6326 169.64856 L510.4542 93.556625 L586.54614 51.378197 L628.72455 127.47012 "/>
      </g>
      <g style="fill:none;stroke:#B519B7;stroke-width:3.0;">
        <path d="M511.3288 93.07182 L584.7969 52.347816 L587.2733 52.690125 L589.2126 56.188606 L591.1518 59.687088 L593.09106 63.185562 L595.0303 66.684044 L596.9695 70.182526 L598.90875 73.681 L600.848 77.17948 L602.78723 80.67796 L604.72644 84.17644 L606.6657 87.67492 L608.6049 91.1734 L610.5442 94.671875 L612.4834 98.17036 L614.42267 101.66884 L616.3619 105.16731 L618.30115 108.665794 L620.24036 112.164276 L622.1796 115.66275 L624.11884 119.16123 L626.0581 122.65971 L627.9973 126.15819 L628.72455 127.47012 L555.2565 168.19412 L552.3902 169.21124 L550.451 165.71277 L548.5117 162.21428 L546.5725 158.7158 L544.63324 155.21733 L542.69403 151.71884 L540.75476 148.22037 L538.81555 144.7219 L536.8763 141.2234 L534.9371 137.72493 L532.9978 134.22644 L531.0586 130.72797 L529.1193 127.22949 L527.1801 123.73101 L525.2409 120.23253 L523.30164 116.734055 L521.3624 113.23557 L519.42316 109.73709 L517.48395 106.23862 L515.5447 102.74014 L513.60547 99.24165 L511.6662 95.74318 L511.3288 93.07182 Z "/>
      </g>
      <g style="fill:none;stroke:#B671B7;stroke-width:3.0;">
        <path d="M586.54614 51.378197 L510.4542 93.556625 L468.27576 17.464706 L544.3677 -24.71373 L586.54614 51.378197 "/>
      </g>
      <g style="fill:none;stroke:#B52BB7;stroke-width:3.0;">
        <path d="M469.15036 16.979904 L542.6184 -23.74411 L545.0949 -23.401794 L547.0341 -19.90332 L548.9734 -16.40483 L550.9126 -12.906357 L552.85187 -9.407883 L554.7911 -5.9093933 L556.73035 -2.4109192 L558.66956 1.0875549 L560.60876 4.5860443 L562.54803 8.084518 L564.4873 11.582993 L566.4265 15.081482 L568.3657 18.579956 L570.305 22.07843 L572.2442 25.57692 L574.1835 29.075394 L576.1227 32.573868 L578.06195 36.072357 L580.00116 39.57083 L581.9404 43.069305 L583.87964 46.567787 L585.8189 50.06627 L586.54614 51.378197 L513.07806 92.1022 L510.2118 93.11932 L508.27255 89.62084 L506.3333 86.12236 L504.39407 82.62388 L502.45483 79.125404 L500.5156 75.62692 L498.57635 72.12845 L496.63712 68.62997 L494.69788 65.131485 L492.75864 61.63301 L490.8194 58.13453 L488.88016 54.636047 L486.94092 51.137573 L485.00168 47.63909 L483.06244 44.14061 L481.1232 40.642136 L479.18396 37.143654 L477.24472 33.645172 L475.30548 30.146698 L473.36624 26.648216 L471.427 23.149734 L469.4878 19.65126 L469.15036 16.979904 Z "/>
      </g>
      <g style="fill:none;stroke:#B671B7;stroke-width:3.0;">
        <path d="M544.3677 -24.71373 L468.27576 17.464706 L426.09732 -58.627213 L502.18924 -100.80565 L544.3677 -24.71373 "/>
      </g>
      <g style="fill:none;stroke:#B52BB7;stroke-width:3.0;">
        <path d="M426.97192 -59.112015 L500.44 -99.83603 L502.91644 -99.49371 L504.8557 -95.99524 L506.79492 -92.496765 L508.7342 -88.998276 L510.6734 -85.4998 L512.6127 -82.00133 L514.5519 -78.50284 L516.49115 -75.004364 L518.43036 -71.50589 L520.3696 -68.0074 L522.30884 -64.50893 L524.24805 -61.010452 L526.1873 -57.511963 L528.1266 -54.01349 L530.0658 -50.515015 L532.005 -47.016525 L533.9443 -43.51805 L535.8835 -40.019577 L537.82275 -36.521088 L539.76196 -33.022614 L541.70123 -29.52414 L543.64044 -26.02565 L544.3677 -24.71373 L470.8996 16.01027 L468.03336 17.02739 L466.09412 13.528915 L464.15488 10.030441 L462.21564 6.531967 L460.2764 3.0334778 L458.33716 -0.46499634 L456.39792 -3.9634705 L454.45868 -7.46196 L452.51944 -10.960434 L450.5802 -14.458908 L448.64096 -17.957397 L446.70172 -21.455872 L444.7625 -24.954346 L442.82324 -28.452835 L440.88403 -31.95131 L438.94476 -35.449783 L437.00555 -38.948273 L435.06628 -42.446747 L433.12708 -45.94522 L431.1878 -49.44371 L429.2486 -52.942184 L427.30933 -56.44066 L426.97192 -59.112015 Z "/>
      </g>
      <g style="fill:none;stroke:#B660B7;stroke-width:3.0;">
        <path d="M502.18924 -100.80565 L426.09732 -58.627213 L383.91888 -134.71913 L460.0108 -176.89757 L502.18924 -100.80565 "/>
      </g>
      <g style="fill:none;stroke:#B53DB7;stroke-width:3.0;">
        <path d="M384.79352 -135.20393 L458.26157 -175.92793 L460.73804 -175.58565 L462.67725 -172.08717 L464.61652 -168.58867 L466.55573 -165.0902 L468.495 -161.59172 L470.4342 -158.09325 L472.37347 -154.59474 L474.31268 -151.09627 L476.25195 -147.5978 L478.19116 -144.09932 L480.13043 -140.60085 L482.06964 -137.10237 L484.0089 -133.6039 L485.94812 -130.1054 L487.88736 -126.60692 L489.8266 -123.108444 L491.76584 -119.60997 L493.70508 -116.111496 L495.64432 -112.61302 L497.58356 -109.11452 L499.5228 -105.61604 L501.46204 -102.117584 L502.18924 -100.80565 L428.7212 -60.08165 L425.85492 -59.064514 L423.91568 -62.563004 L421.97644 -66.06148 L420.0372 -69.55995 L418.09796 -73.05844 L416.15872 -76.556915 L414.21948 -80.05539 L412.28027 -83.55388 L410.341 -87.05235 L408.4018 -90.55083 L406.46252 -94.04932 L404.52332 -97.54779 L402.58405 -101.046265 L400.64484 -104.544754 L398.70557 -108.04323 L396.76636 -111.5417 L394.82712 -115.04018 L392.88788 -118.53868 L390.94864 -122.037155 L389.0094 -125.53563 L387.07016 -129.0341 L385.13092 -132.53258 L384.79352 -135.20393 Z "/>
      </g>
      <g style="fill:none;stroke:#B660B7;stroke-width:3.0;">
        <path d="M460.0108 -176.89757 L383.91888 -134.71913 L341.74048 -210.81105 L417.8324 -252.98949 L460.0108 -176.89757 "/>
      </g>
      <g style="fill:none;stroke:#B53DB7;stroke-width:3.0;">
        <path d="M342.61508 -211.29585 L416.08313 -252.01985 L418.5596 -251.67757 L420.49884 -248.1791 L422.43808 -244.68059 L424.37732 -241.18211 L426.31656 -237.68364 L428.2558 -234.18517 L430.195 -230.68669 L432.13428 -227.18822 L434.0735 -223.68971 L436.01276 -220.19124 L437.95197 -216.69276 L439.89124 -213.19429 L441.83044 -209.69582 L443.7697 -206.19734 L445.70892 -202.69887 L447.6482 -199.20036 L449.5874 -195.70189 L451.52664 -192.20341 L453.46588 -188.70494 L455.40512 -185.20647 L457.34436 -181.708 L459.2836 -178.20949 L460.0108 -176.89757 L386.54276 -136.17357 L383.6765 -135.15645 L381.73724 -138.65492 L379.79803 -142.1534 L377.85876 -145.65187 L375.91956 -149.15034 L373.9803 -152.64885 L372.04108 -156.14732 L370.1018 -159.6458 L368.1626 -163.14427 L366.22333 -166.64275 L364.28412 -170.14122 L362.34488 -173.63972 L360.40564 -177.1382 L358.4664 -180.63667 L356.52716 -184.13515 L354.58792 -187.63362 L352.64868 -191.1321 L350.70944 -194.6306 L348.7702 -198.12907 L346.83096 -201.62755 L344.89172 -205.12602 L342.95248 -208.6245 L342.61508 -211.29585 Z "/>
      </g>
      <g style="fill:none;stroke:#B78C08;stroke-width:3.0;">
        <path d="M417.8324 -252.98949 L341.74048 -210.81105 L299.56204 -286.90295 L375.65396 -329.08142 L417.8324 -252.98949 "/>
      </g>
      <g style="fill:none;stroke:#B508B7;stroke-width:3.0;">
        <path d="M300.43665 -287.38776 L373.90472 -328.11176 L376.38116 -327.76947 L378.3204 -324.271 L380.25964 -320.77252 L382.19888 -317.27405 L384.13812 -313.77557 L386.07736 -310.2771 L388.0166 -306.77863 L389.95584 -303.28015 L391.89508 -299.78168 L393.83432 -296.28314 L395.77356 -292.78467 L397.71277 -289.2862 L399.65204 -285.78772 L401.59125 -282.28925 L403.53052 -278.79077 L405.46973 -275.2923 L407.409 -271.79382 L409.3482 -268.29535 L411.28748 -264.79688 L413.22668 -261.2984 L415.16595 -257.79993 L417.10516 -254.3014 L417.8324 -252.98949 L344.36432 -212.26549 L341.49805 -211.24837 L339.55884 -214.74684 L337.61957 -218.24532 L335.68036 -221.74379 L333.7411 -225.2423 L331.80188 -228.74077 L329.8626 -232.23924 L327.9234 -235.73772 L325.98416 -239.23619 L324.04492 -242.73466 L322.10568 -246.23317 L320.16644 -249.73164 L318.2272 -253.23012 L316.28796 -256.72858 L314.34872 -260.22705 L312.4095 -263.72552 L310.47025 -267.22406 L308.531 -270.72253 L306.5918 -274.221 L304.65253 -277.71948 L302.71332 -281.21796 L300.77405 -284.71643 L300.43665 -287.38776 Z "/>
      </g>
      <g style="fill:none;stroke:#B783B7;stroke-width:3.0;">
        <path d="M636.9895 321.8324 L560.8976 364.01083 L518.7191 287.91888 L594.81104 245.74048 L636.9895 321.8324 "/>
      </g>
      <g style="fill:none;stroke:#B519B7;stroke-width:3.0;">
        <path d="M519.59375 287.43408 L593.0618 246.71008 L595.53827 247.0524 L597.4775 250.55087 L599.41675 254.04936 L601.35596 257.54785 L603.2952 261.04633 L605.23444 264.5448 L607.1737 268.04327 L609.1129 271.54175 L611.0522 275.04022 L612.9914 278.5387 L614.93066 282.0372 L616.8699 285.53568 L618.8091 289.03415 L620.74835 292.53262 L622.6876 296.03113 L624.62683 299.5296 L626.56604 303.02808 L628.5053 306.52655 L630.4446 310.02502 L632.3838 313.5235 L634.323 317.02197 L636.26227 320.52045 L636.9895 321.8324 L563.5214 362.5564 L560.65515 363.57352 L558.71594 360.07504 L556.7767 356.57657 L554.8374 353.07806 L552.8982 349.5796 L550.959 346.08112 L549.0197 342.58264 L547.0805 339.08417 L545.14124 335.5857 L543.202 332.08722 L541.26276 328.58875 L539.32355 325.09027 L537.3843 321.59177 L535.44507 318.0933 L533.5058 314.59482 L531.5666 311.0963 L529.6273 307.59784 L527.6881 304.09937 L525.74884 300.6009 L523.80963 297.10242 L521.87036 293.60394 L519.93115 290.10547 L519.59375 287.43408 Z "/>
      </g>
      <g style="fill:none;stroke:#B783B7;stroke-width:3.0;">
        <path d="M594.81104 245.74048 L518.7191 287.91888 L476.5407 211.82698 L552.6326 169.64856 L594.81104 245.74048 "/>
      </g>
      <g style="fill:none;stroke:#B519B7;stroke-width:3.0;">
        <path d="M477.4153 211.34216 L550.88336 170.61816 L553.3598 170.96048 L555.2991 174.45895 L557.2383 177.95744 L559.17755 181.45592 L561.11676 184.9544 L563.056 188.45288 L564.99524 191.95135 L566.9345 195.44983 L568.8737 198.94832 L570.813 202.4468 L572.7522 205.94527 L574.69147 209.44376 L576.6307 212.94223 L578.56995 216.4407 L580.50916 219.93918 L582.4484 223.43767 L584.38763 226.93616 L586.3269 230.43463 L588.2661 233.9331 L590.2053 237.43158 L592.1446 240.93005 L594.08386 244.42854 L594.81104 245.74048 L521.34296 286.46448 L518.47675 287.4816 L516.5375 283.9831 L514.59827 280.48462 L512.659 276.98615 L510.71976 273.48767 L508.78052 269.9892 L506.84128 266.49072 L504.90204 262.99225 L502.96283 259.49377 L501.02356 255.99527 L499.08435 252.4968 L497.1451 248.99832 L495.20587 245.49985 L493.26663 242.00137 L491.3274 238.50288 L489.38815 235.00441 L487.4489 231.50592 L485.50967 228.00745 L483.57043 224.50897 L481.6312 221.0105 L479.69196 217.51201 L477.75272 214.01353 L477.4153 211.34216 Z "/>
      </g>
      <g style="fill:none;stroke:#B671B7;stroke-width:3.0;">
        <path d="M552.6326 169.64856 L476.5407 211.82698 L434.36224 135.73506 L510.4542 93.556625 L552.6326 169.64856 "/>
      </g>
      <g style="fill:none;stroke:#B52BB7;stroke-width:3.0;">
        <path d="M435.23688 135.25024 L508.70496 94.526245 L511.1814 94.86856 L513.12067 98.367035 L515.0599 101.86552 L516.9991 105.364 L518.93835 108.86247 L520.87756 112.360954 L522.81683 115.859436 L524.75604 119.35791 L526.6953 122.85639 L528.6345 126.35487 L530.5738 129.85335 L532.513 133.35184 L534.4523 136.85031 L536.3915 140.34879 L538.33075 143.84726 L540.26996 147.34575 L542.2092 150.84422 L544.14844 154.3427 L546.0877 157.84119 L548.0269 161.33966 L549.9662 164.83813 L551.9054 168.33662 L552.6326 169.64856 L479.16455 210.37256 L476.29828 211.38968 L474.35904 207.89119 L472.4198 204.39272 L470.4806 200.89423 L468.54132 197.39575 L466.6021 193.89728 L464.66284 190.3988 L462.72363 186.90031 L460.7844 183.40184 L458.84515 179.90337 L456.9059 176.40488 L454.96667 172.9064 L453.02744 169.40793 L451.0882 165.90944 L449.14896 162.41096 L447.20972 158.91249 L445.27048 155.414 L443.33124 151.91553 L441.392 148.41705 L439.45276 144.91856 L437.51352 141.42009 L435.57428 137.92162 L435.23688 135.25024 Z "/>
      </g>
      <g style="fill:none;stroke:#B671B7;stroke-width:3.0;">
        <path d="M510.4542 93.556625 L434.36224 135.73506 L392.18384 59.643135 L468.27576 17.464706 L510.4542 93.556625 "/>
      </g>
      <g style="fill:none;stroke:#B52BB7;stroke-width:3.0;">
        <path d="M393.05847 59.158325 L466.52652 18.434326 L469.00296 18.776642 L470.9422 22.275116 L472.88144 25.773598 L474.82068 29.27208 L476.75992 32.770554 L478.69916 36.269035 L480.6384 39.767517 L482.57764 43.26599 L484.51688 46.764473 L486.45612 50.262955 L488.39536 53.76143 L490.3346 57.25991 L492.27383 60.758385 L494.21307 64.25687 L496.1523 67.75535 L498.09155 71.25382 L500.0308 74.752304 L501.97003 78.250786 L503.90924 81.74926 L505.8485 85.24774 L507.78772 88.746216 L509.72696 92.244705 L510.4542 93.556625 L436.9861 134.28062 L434.11987 135.29774 L432.1806 131.79927 L430.2414 128.3008 L428.30212 124.802315 L426.3629 121.30383 L424.42368 117.80535 L422.48444 114.30688 L420.5452 110.808395 L418.60596 107.30991 L416.66672 103.81144 L414.72748 100.31296 L412.78824 96.814476 L410.849 93.316 L408.90976 89.81752 L406.97052 86.31904 L405.03128 82.820564 L403.09204 79.32208 L401.1528 75.8236 L399.21356 72.32513 L397.27432 68.826645 L395.33508 65.32816 L393.39587 61.82969 L393.05847 59.158325 Z "/>
      </g>
      <g style="fill:none;stroke:#B660B7;stroke-width:3.0;">
        <path d="M468.27576 17.464706 L392.18384 59.643135 L350.0054 -16.448776 L426.09732 -58.627213 L468.27576 17.464706 "/>
      </g>
      <g style="fill:none;stroke:#B53DB7;stroke-width:3.0;">
        <path d="M350.88 -16.933594 L424.34808 -57.657593 L426.82452 -57.315277 L428.7638 -53.816803 L430.703 -50.31833 L432.64227 -46.81984 L434.58148 -43.321365 L436.52075 -39.82289 L438.45996 -36.3244 L440.3992 -32.825928 L442.33844 -29.327454 L444.27768 -25.828964 L446.21692 -22.33049 L448.15616 -18.832016 L450.0954 -15.333527 L452.03464 -11.8350525 L453.97388 -8.336578 L455.91312 -4.838089 L457.85236 -1.3396149 L459.7916 2.1588593 L461.73083 5.6573486 L463.67007 9.155823 L465.6093 12.654297 L467.54855 16.152771 L468.27576 17.464706 L394.80768 58.188705 L391.94144 59.205826 L390.0022 55.707344 L388.06296 52.20887 L386.12372 48.710396 L384.18448 45.211906 L382.24524 41.713432 L380.306 38.21496 L378.36676 34.71647 L376.42752 31.217995 L374.48828 27.71952 L372.54904 24.221039 L370.6098 20.722565 L368.67056 17.22409 L366.73132 13.725601 L364.79208 10.227127 L362.85284 6.728653 L360.9136 3.2301636 L358.97437 -0.26831055 L357.03516 -3.7667847 L355.0959 -7.265274 L353.15668 -10.763748 L351.2174 -14.262222 L350.88 -16.933594 Z "/>
      </g>
      <g style="fill:none;stroke:#B660B7;stroke-width:3.0;">
        <path d="M426.09732 -58.627213 L350.0054 -16.448776 L307.82697 -92.540695 L383.91888 -134.71913 L426.09732 -58.627213 "/>
      </g>
      <g style="fill:none;stroke:#B53DB7;stroke-width:3.0;">
        <path d="M308.7016 -93.02551 L382.16965 -133.74953 L384.64612 -133.40721 L386.58533 -129.90874 L388.5246 -126.41023 L390.4638 -122.91176 L392.40308 -119.413284 L394.3423 -115.91481 L396.28156 -112.416336 L398.22076 -108.91786 L400.16003 -105.41939 L402.09924 -101.9209 L404.0385 -98.42241 L405.97772 -94.923935 L407.917 -91.42546 L409.8562 -87.92697 L411.79544 -84.4285 L413.73468 -80.93002 L415.67392 -77.43153 L417.61316 -73.93306 L419.5524 -70.434586 L421.49164 -66.9361 L423.43088 -63.437622 L425.37012 -59.939148 L426.09732 -58.627213 L352.62927 -17.903214 L349.763 -16.886078 L347.82376 -20.384567 L345.88452 -23.883041 L343.94528 -27.381516 L342.00604 -30.880005 L340.0668 -34.37848 L338.12756 -37.876953 L336.18832 -41.375443 L334.24908 -44.873917 L332.30984 -48.37239 L330.3706 -51.87088 L328.43137 -55.369354 L326.49213 -58.86783 L324.5529 -62.366318 L322.61365 -65.86479 L320.67444 -69.363266 L318.7352 -72.86174 L316.79596 -76.360245 L314.85672 -79.85872 L312.91748 -83.35719 L310.97824 -86.85567 L309.039 -90.35414 L308.7016 -93.02551 Z "/>
      </g>
      <g style="fill:none;stroke:#B78C08;stroke-width:3.0;">
        <path d="M383.91888 -134.71913 L307.82697 -92.540695 L265.64853 -168.63261 L341.74048 -210.81105 L383.91888 -134.71913 "/>
      </g>
      <g style="fill:none;stroke:#B508B7;stroke-width:3.0;">
        <path d="M266.52316 -169.11742 L339.9912 -209.84145 L342.46768 -209.49913 L344.40692 -206.00066 L346.34616 -202.50215 L348.2854 -199.00368 L350.22464 -195.5052 L352.16388 -192.00673 L354.1031 -188.50826 L356.04236 -185.00978 L357.98157 -181.51128 L359.92084 -178.0128 L361.86005 -174.51433 L363.79932 -171.01585 L365.73853 -167.51738 L367.6778 -164.0189 L369.617 -160.52043 L371.55627 -157.02193 L373.49548 -153.52345 L375.43472 -150.02498 L377.37396 -146.5265 L379.3132 -143.02803 L381.25244 -139.52956 L383.19168 -136.03105 L383.91888 -134.71913 L310.45084 -93.99513 L307.58456 -92.97801 L305.64532 -96.47649 L303.7061 -99.97496 L301.76685 -103.473434 L299.8276 -106.97191 L297.88837 -110.47041 L295.94913 -113.96889 L294.0099 -117.46736 L292.07065 -120.965836 L290.1314 -124.46431 L288.19217 -127.96278 L286.25296 -131.46129 L284.31372 -134.95976 L282.37448 -138.45824 L280.43524 -141.95671 L278.496 -145.45518 L276.55676 -148.95366 L274.61752 -152.45216 L272.67828 -155.95064 L270.73904 -159.44911 L268.7998 -162.94759 L266.86057 -166.44606 L266.52316 -169.11742 Z "/>
      </g>
      <g style="fill:none;stroke:#B783B7;stroke-width:3.0;">
        <path d="M341.74048 -210.81105 L265.64853 -168.63261 L223.47012 -244.72453 L299.56204 -286.90295 L341.74048 -210.81105 "/>
      </g>
      <g style="fill:none;stroke:#B519B7;stroke-width:3.0;">
        <path d="M224.34473 -245.20934 L297.8128 -285.93335 L300.28925 -285.59106 L302.2285 -282.0926 L304.16772 -278.59412 L306.10696 -275.09558 L308.0462 -271.5971 L309.98544 -268.09863 L311.92468 -264.60016 L313.86392 -261.10168 L315.80316 -257.6032 L317.7424 -254.10472 L319.68164 -250.60625 L321.62085 -247.10777 L323.56012 -243.6093 L325.49933 -240.11082 L327.4386 -236.61235 L329.3778 -233.11385 L331.31708 -229.61537 L333.2563 -226.1169 L335.19556 -222.61842 L337.13477 -219.11995 L339.07404 -215.62148 L341.01324 -212.12297 L341.74048 -210.81105 L268.2724 -170.08705 L265.40613 -169.06993 L263.4669 -172.5684 L261.52765 -176.06688 L259.5884 -179.56535 L257.64917 -183.06386 L255.70993 -186.56233 L253.77069 -190.0608 L251.83148 -193.55928 L249.89224 -197.05775 L247.953 -200.55623 L246.01376 -204.05473 L244.07452 -207.5532 L242.13528 -211.05168 L240.19604 -214.55016 L238.2568 -218.04863 L236.31757 -221.5471 L234.37833 -225.04561 L232.43909 -228.54408 L230.49985 -232.04256 L228.56061 -235.54103 L226.62137 -239.0395 L224.68213 -242.53798 L224.34473 -245.20934 Z "/>
      </g>
      <g style="fill:none;stroke:#B783B7;stroke-width:3.0;">
        <path d="M560.8976 364.01083 L484.80563 406.18927 L442.6272 330.09735 L518.7191 287.91888 L560.8976 364.01083 "/>
      </g>
      <g style="fill:none;stroke:#B519B7;stroke-width:3.0;">
        <path d="M443.50183 329.61252 L516.9699 288.88852 L519.44635 289.23083 L521.38556 292.7293 L523.3248 296.22778 L525.26404 299.72626 L527.2033 303.22473 L529.1425 306.72324 L531.0818 310.2217 L533.021 313.7202 L534.96027 317.2187 L536.8995 320.71716 L538.83875 324.21564 L540.77795 327.7141 L542.71716 331.2126 L544.65643 334.71106 L546.5957 338.20953 L548.5349 341.708 L550.4741 345.20648 L552.4134 348.705 L554.3526 352.20346 L556.2919 355.70193 L558.2311 359.20044 L560.17035 362.6989 L560.8976 364.01083 L487.4295 404.73483 L484.56323 405.75195 L482.624 402.25348 L480.68475 398.755 L478.7455 395.2565 L476.80627 391.75803 L474.86703 388.25955 L472.9278 384.76105 L470.98856 381.26257 L469.04932 377.7641 L467.11008 374.26562 L465.17084 370.76715 L463.2316 367.26868 L461.29236 363.7702 L459.35312 360.27173 L457.41388 356.77325 L455.47464 353.27478 L453.5354 349.77628 L451.5962 346.27777 L449.65692 342.7793 L447.7177 339.28082 L445.77844 335.78235 L443.83923 332.28387 L443.50183 329.61252 Z "/>
      </g>
      <g style="fill:none;stroke:#B671B7;stroke-width:3.0;">
        <path d="M518.7191 287.91888 L442.6272 330.09735 L400.44876 254.0054 L476.5407 211.82698 L518.7191 287.91888 "/>
      </g>
      <g style="fill:none;stroke:#B52BB7;stroke-width:3.0;">
        <path d="M401.3234 253.5206 L474.79144 212.7966 L477.2679 213.13892 L479.20715 216.63739 L481.1464 220.13586 L483.08563 223.63434 L485.02487 227.13283 L486.9641 230.63132 L488.90332 234.12979 L490.8426 237.62827 L492.7818 241.12674 L494.72104 244.62521 L496.66028 248.1237 L498.59952 251.62218 L500.53876 255.12067 L502.478 258.61914 L504.41724 262.1176 L506.35648 265.6161 L508.29572 269.11456 L510.23495 272.61304 L512.1742 276.11154 L514.1134 279.61002 L516.0527 283.1085 L517.9919 286.607 L518.7191 287.91888 L445.25107 328.64288 L442.3848 329.66003 L440.44556 326.16156 L438.50632 322.6631 L436.56708 319.16458 L434.62784 315.66608 L432.6886 312.1676 L430.74936 308.66913 L428.81012 305.17065 L426.87088 301.67218 L424.93164 298.1737 L422.9924 294.67523 L421.05316 291.17676 L419.11395 287.67828 L417.17468 284.1798 L415.23547 280.6813 L413.2962 277.18283 L411.357 273.68436 L409.41772 270.18588 L407.47852 266.68738 L405.53928 263.1889 L403.60004 259.69043 L401.6608 256.19196 L401.3234 253.5206 Z "/>
      </g>
      <g style="fill:none;stroke:#B671B7;stroke-width:3.0;">
        <path d="M476.5407 211.82698 L400.44876 254.0054 L358.27032 177.91348 L434.36224 135.73506 L476.5407 211.82698 "/>
      </g>
      <g style="fill:none;stroke:#B52BB7;stroke-width:3.0;">
        <path d="M359.14496 177.42868 L432.61304 136.70468 L435.08948 137.047 L437.02872 140.54547 L438.96796 144.04395 L440.9072 147.54243 L442.84644 151.04091 L444.78568 154.53938 L446.7249 158.03787 L448.66415 161.53635 L450.6034 165.03482 L452.5426 168.5333 L454.48187 172.03178 L456.42108 175.53026 L458.36035 179.02875 L460.29956 182.52722 L462.2388 186.0257 L464.17804 189.52417 L466.11728 193.02266 L468.05652 196.52113 L469.99576 200.01962 L471.935 203.5181 L473.87424 207.01657 L475.81348 210.51505 L476.5407 211.82698 L403.07263 252.551 L400.20636 253.5681 L398.26712 250.06961 L396.32788 246.57114 L394.38864 243.07266 L392.4494 239.57419 L390.5102 236.0757 L388.57092 232.57722 L386.6317 229.07874 L384.69244 225.58026 L382.75323 222.08179 L380.81396 218.58331 L378.87476 215.08482 L376.9355 211.58635 L374.99628 208.08786 L373.057 204.58939 L371.1178 201.09091 L369.17856 197.59244 L367.23932 194.09395 L365.30008 190.59547 L363.36084 187.097 L361.4216 183.59851 L359.48236 180.10004 L359.14496 177.42868 Z "/>
      </g>
      <g style="fill:none;stroke:#B660B7;stroke-width:3.0;">
        <path d="M434.36224 135.73506 L358.27032 177.91348 L316.09192 101.82156 L392.18384 59.643135 L434.36224 135.73506 "/>
      </g>
      <g style="fill:none;stroke:#B53DB7;stroke-width:3.0;">
        <path d="M316.96655 101.336754 L390.4346 60.612755 L392.91104 60.95507 L394.85028 64.453545 L396.78952 67.95203 L398.72876 71.45051 L400.668 74.94898 L402.60724 78.447464 L404.54648 81.945946 L406.48572 85.44442 L408.42496 88.9429 L410.3642 92.44138 L412.30344 95.93986 L414.24268 99.43834 L416.1819 102.93681 L418.12115 106.435295 L420.06036 109.93378 L421.99963 113.43225 L423.93884 116.93073 L425.8781 120.429214 L427.81732 123.9277 L429.7566 127.42617 L431.6958 130.92465 L433.63504 134.42313 L434.36224 135.73506 L360.89423 176.45906 L358.02792 177.47618 L356.08868 173.97769 L354.14948 170.47922 L352.2102 166.98074 L350.271 163.48227 L348.33173 159.98378 L346.39252 156.4853 L344.45325 152.98682 L342.51404 149.48834 L340.57477 145.98987 L338.63556 142.4914 L336.69632 138.9929 L334.75708 135.49443 L332.81784 131.99594 L330.8786 128.49747 L328.93936 124.99899 L327.00012 121.50051 L325.06088 118.00203 L323.12164 114.503555 L321.1824 111.00507 L319.24316 107.50659 L317.30392 104.00812 L316.96655 101.336754 Z "/>
      </g>
      <g style="fill:none;stroke:#B660B7;stroke-width:3.0;">
        <path d="M392.18384 59.643135 L316.09192 101.82156 L273.91348 25.729645 L350.0054 -16.448776 L392.18384 59.643135 "/>
      </g>
      <g style="fill:none;stroke:#B53DB7;stroke-width:3.0;">
        <path d="M274.78812 25.244827 L348.25616 -15.479172 L350.7326 -15.136841 L352.67184 -11.638367 L354.61108 -8.139893 L356.55032 -4.641403 L358.48956 -1.1429291 L360.4288 2.355545 L362.36804 5.8540344 L364.30728 9.352509 L366.24652 12.850983 L368.18576 16.349472 L370.125 19.847946 L372.06424 23.34642 L374.00348 26.844902 L375.94272 30.343376 L377.88196 33.84185 L379.8212 37.34034 L381.76044 40.838814 L383.69965 44.337288 L385.63892 47.835777 L387.57812 51.33425 L389.5174 54.832726 L391.4566 58.331207 L392.18384 59.643135 L318.71576 100.36714 L315.8495 101.384254 L313.91028 97.88577 L311.971 94.3873 L310.0318 90.888824 L308.09253 87.390335 L306.15332 83.89186 L304.21408 80.39339 L302.27484 76.8949 L300.3356 73.39642 L298.39636 69.89795 L296.45712 66.39946 L294.51788 62.900986 L292.57864 59.40251 L290.6394 55.904022 L288.70016 52.40555 L286.76093 48.907074 L284.8217 45.408585 L282.88245 41.91011 L280.9432 38.411636 L279.00397 34.913147 L277.06473 31.414673 L275.1255 27.916199 L274.78812 25.244827 Z "/>
      </g>
      <g style="fill:none;stroke:#B78C08;stroke-width:3.0;">
        <path d="M350.0054 -16.448776 L273.91348 25.729645 L231.73505 -50.362274 L307.82697 -92.540695 L350.0054 -16.448776 "/>
      </g>
      <g style="fill:none;stroke:#B508B7;stroke-width:3.0;">
        <path d="M232.60968 -50.84709 L306.07773 -91.57109 L308.5542 -91.228775 L310.4934 -87.7303 L312.43265 -84.2318 L314.3719 -80.73332 L316.31113 -77.23485 L318.25037 -73.736374 L320.1896 -70.237885 L322.12885 -66.73941 L324.06808 -63.240936 L326.00732 -59.742462 L327.94656 -56.243973 L329.8858 -52.7455 L331.82504 -49.247025 L333.76428 -45.748535 L335.70352 -42.25006 L337.64276 -38.751587 L339.582 -35.253098 L341.52124 -31.754623 L343.46048 -28.25615 L345.39972 -24.75766 L347.33896 -21.259186 L349.2782 -17.760712 L350.0054 -16.448776 L276.53735 24.275223 L273.67108 25.292343 L271.73184 21.793854 L269.7926 18.29538 L267.85336 14.7969055 L265.91412 11.298416 L263.97488 7.799942 L262.03564 4.301468 L260.0964 0.8029785 L258.15717 -2.6954956 L256.21793 -6.1939697 L254.27869 -9.692459 L252.33945 -13.190933 L250.4002 -16.689407 L248.46097 -20.187897 L246.52173 -23.68637 L244.58252 -27.184845 L242.64325 -30.68332 L240.70404 -34.181824 L238.76477 -37.680298 L236.82556 -41.178772 L234.88629 -44.677246 L232.94708 -48.17572 L232.60968 -50.84709 Z "/>
      </g>
      <g style="fill:none;stroke:#B783B7;stroke-width:3.0;">
        <path d="M307.82697 -92.540695 L231.73505 -50.362274 L189.55661 -126.45421 L265.64853 -168.63261 L307.82697 -92.540695 "/>
      </g>
      <g style="fill:none;stroke:#B519B7;stroke-width:3.0;">
        <path d="M190.43124 -126.93901 L263.8993 -167.66301 L266.37576 -167.3207 L268.315 -163.82222 L270.25424 -160.32372 L272.19348 -156.82524 L274.13272 -153.32677 L276.07193 -149.8283 L278.01117 -146.32982 L279.9504 -142.83134 L281.88965 -139.33284 L283.8289 -135.83437 L285.76813 -132.33589 L287.70737 -128.83742 L289.6466 -125.33894 L291.58585 -121.84047 L293.5251 -118.341995 L295.46432 -114.84349 L297.40356 -111.34502 L299.3428 -107.84654 L301.28204 -104.34807 L303.22128 -100.849594 L305.16052 -97.35112 L307.09976 -93.852615 L307.82697 -92.540695 L234.35892 -51.816696 L231.49265 -50.79959 L229.5534 -54.298065 L227.61417 -57.79654 L225.67493 -61.295013 L223.73569 -64.79349 L221.79645 -68.29199 L219.85721 -71.79047 L217.91797 -75.28894 L215.97873 -78.787415 L214.03949 -82.28589 L212.10025 -85.78436 L210.16101 -89.28287 L208.2218 -92.78134 L206.28253 -96.279816 L204.34332 -99.77829 L202.40405 -103.27678 L200.46484 -106.77525 L198.52557 -110.27373 L196.58636 -113.7722 L194.6471 -117.270676 L192.70789 -120.76915 L190.76862 -124.267624 L190.43124 -126.93901 Z "/>
      </g>
      <g style="fill:none;stroke:#B783B7;stroke-width:3.0;">
        <path d="M265.64853 -168.63261 L189.55661 -126.45421 L147.37817 -202.54613 L223.47012 -244.72453 L265.64853 -168.63261 "/>
      </g>
      <g style="fill:none;stroke:#B519B7;stroke-width:3.0;">
        <path d="M148.2528 -203.03093 L221.72089 -243.75493 L224.19733 -243.41261 L226.13657 -239.91414 L228.0758 -236.41566 L230.01505 -232.91716 L231.95428 -229.41869 L233.89352 -225.92021 L235.83276 -222.42174 L237.772 -218.92326 L239.71124 -215.42479 L241.65048 -211.92628 L243.58969 -208.42781 L245.52893 -204.92934 L247.46817 -201.43086 L249.40741 -197.93239 L251.34665 -194.43391 L253.28589 -190.93541 L255.22513 -187.43694 L257.16437 -183.93846 L259.1036 -180.43999 L261.04285 -176.94151 L262.9821 -173.44304 L264.92133 -169.94453 L265.64853 -168.63261 L192.18048 -127.908615 L189.31421 -126.891525 L187.37497 -130.39 L185.43573 -133.88847 L183.49649 -137.38695 L181.55725 -140.88542 L179.61801 -144.3839 L177.67877 -147.88237 L175.73956 -151.38084 L173.8003 -154.87932 L171.86108 -158.37779 L169.92181 -161.87633 L167.9826 -165.3748 L166.04333 -168.87328 L164.10413 -172.37175 L162.16486 -175.87022 L160.22565 -179.3687 L158.28638 -182.86717 L156.34717 -186.36565 L154.40793 -189.86412 L152.46869 -193.3626 L150.52945 -196.86107 L148.59021 -200.35954 L148.2528 -203.03093 Z "/>
      </g>
      <g style="fill:none;stroke:#B671B7;stroke-width:3.0;">
        <path d="M484.80563 406.18927 L408.7137 448.36768 L366.53528 372.27576 L442.6272 330.09735 L484.80563 406.18927 "/>
      </g>
      <g style="fill:none;stroke:#B52BB7;stroke-width:3.0;">
        <path d="M367.4099 371.79095 L440.87796 331.06696 L443.35443 331.40924 L445.29364 334.9077 L447.23288 338.40622 L449.17212 341.9047 L451.11136 345.4032 L453.0506 348.90167 L454.98984 352.40015 L456.92908 355.89862 L458.86832 359.3971 L460.80756 362.89557 L462.7468 366.39404 L464.68604 369.89252 L466.62527 373.391 L468.5645 376.88947 L470.50375 380.38797 L472.443 383.88644 L474.38223 387.38492 L476.32147 390.88342 L478.26068 394.3819 L480.19995 397.88037 L482.13916 401.37885 L484.07843 404.87732 L484.80563 406.18927 L411.3376 446.91327 L408.4713 447.93036 L406.53207 444.4319 L404.59283 440.9334 L402.6536 437.43494 L400.71436 433.93646 L398.77512 430.438 L396.83588 426.9395 L394.89664 423.44104 L392.9574 419.94257 L391.01816 416.44403 L389.07892 412.94556 L387.13968 409.4471 L385.20044 405.9486 L383.2612 402.45013 L381.32196 398.95166 L379.38272 395.4532 L377.44348 391.9547 L375.50427 388.45624 L373.565 384.95776 L371.6258 381.4593 L369.68652 377.96082 L367.7473 374.46234 L367.4099 371.79095 Z "/>
      </g>
      <g style="fill:none;stroke:#B671B7;stroke-width:3.0;">
        <path d="M442.6272 330.09735 L366.53528 372.27576 L324.35684 296.18384 L400.44876 254.0054 L442.6272 330.09735 "/>
      </g>
      <g style="fill:none;stroke:#B52BB7;stroke-width:3.0;">
        <path d="M325.23145 295.69904 L398.69952 254.97504 L401.17596 255.31734 L403.11523 258.81583 L405.05444 262.3143 L406.9937 265.81277 L408.93292 269.31125 L410.87216 272.80975 L412.8114 276.30823 L414.75064 279.8067 L416.68988 283.30518 L418.62912 286.80365 L420.56836 290.30212 L422.5076 293.8006 L424.44684 297.29907 L426.38608 300.79755 L428.32532 304.29602 L430.26456 307.79453 L432.2038 311.29303 L434.14304 314.7915 L436.08228 318.28998 L438.0215 321.78845 L439.96075 325.28693 L441.89996 328.7854 L442.6272 330.09735 L369.15915 370.82135 L366.29288 371.83844 L364.35364 368.33997 L362.4144 364.8415 L360.47516 361.34302 L358.53592 357.84454 L356.59668 354.34607 L354.65744 350.8476 L352.7182 347.34912 L350.77896 343.85065 L348.83972 340.35214 L346.90048 336.85367 L344.96124 333.35516 L343.02203 329.8567 L341.08276 326.35822 L339.14355 322.85974 L337.20428 319.36127 L335.26508 315.8628 L333.3258 312.36432 L331.3866 308.86584 L329.44733 305.36737 L327.50812 301.8689 L325.56888 298.3704 L325.23145 295.69904 Z "/>
      </g>
      <g style="fill:none;stroke:#B660B7;stroke-width:3.0;">
        <path d="M400.44876 254.0054 L324.35684 296.18384 L282.1784 220.09192 L358.27032 177.91348 L400.44876 254.0054 "/>
      </g>
      <g style="fill:none;stroke:#B53DB7;stroke-width:3.0;">
        <path d="M283.05304 219.60712 L356.52112 178.8831 L358.99756 179.22542 L360.93677 182.72389 L362.87604 186.22238 L364.81525 189.72086 L366.75452 193.21933 L368.69373 196.7178 L370.633 200.2163 L372.5722 203.71477 L374.51147 207.21326 L376.45068 210.71173 L378.38995 214.2102 L380.32916 217.70868 L382.2684 221.20717 L384.20764 224.70564 L386.14688 228.20413 L388.08612 231.7026 L390.02536 235.20108 L391.9646 238.69955 L393.90384 242.19804 L395.84308 245.69652 L397.78232 249.195 L399.72156 252.69348 L400.44876 254.0054 L326.9807 294.72943 L324.11444 295.74652 L322.1752 292.24805 L320.23596 288.74957 L318.29672 285.2511 L316.35748 281.75262 L314.41827 278.25415 L312.479 274.75568 L310.5398 271.25717 L308.60052 267.7587 L306.66132 264.26022 L304.72205 260.76175 L302.78284 257.26328 L300.84357 253.76479 L298.90436 250.2663 L296.9651 246.76782 L295.02588 243.26935 L293.08664 239.77087 L291.1474 236.27238 L289.20816 232.77391 L287.26892 229.27544 L285.32968 225.77695 L283.39044 222.27847 L283.05304 219.60712 Z "/>
      </g>
      <g style="fill:none;stroke:#B660B7;stroke-width:3.0;">
        <path d="M358.27032 177.91348 L282.1784 220.09192 L240.0 144.0 L316.09192 101.82156 L358.27032 177.91348 "/>
      </g>
      <g style="fill:none;stroke:#B53DB7;stroke-width:3.0;">
        <path d="M240.8746 143.5152 L314.34265 102.79118 L316.81912 103.1335 L318.75836 106.63197 L320.6976 110.130455 L322.63684 113.62894 L324.57608 117.12741 L326.51532 120.62589 L328.45453 124.124374 L330.3938 127.62285 L332.333 131.12134 L334.27228 134.61981 L336.2115 138.11829 L338.15076 141.61676 L340.08997 145.11523 L342.02924 148.61372 L343.96844 152.11221 L345.90768 155.61069 L347.84692 159.10916 L349.78616 162.60764 L351.7254 166.10612 L353.66464 169.6046 L355.60388 173.10307 L357.54312 176.60156 L358.27032 177.91348 L284.8023 218.6375 L281.936 219.65462 L279.99677 216.15613 L278.05756 212.65765 L276.1183 209.15918 L274.17908 205.6607 L272.2398 202.16222 L270.3006 198.66374 L268.36133 195.16525 L266.42212 191.66678 L264.48285 188.1683 L262.54364 184.66983 L260.6044 181.17134 L258.66516 177.67287 L256.72592 174.17438 L254.78668 170.6759 L252.84744 167.17743 L250.9082 163.67896 L248.96896 160.18047 L247.02972 156.68199 L245.09048 153.1835 L243.15125 149.68503 L241.212 146.18655 L240.8746 143.5152 Z "/>
      </g>
      <g style="fill:none;stroke:#B78C08;stroke-width:3.0;">
        <path d="M316.09192 101.82156 L240.0 144.0 L197.82156 67.90808 L273.91348 25.729645 L316.09192 101.82156 "/>
      </g>
      <g style="fill:none;stroke:#B508B7;stroke-width:3.0;">
        <path d="M198.69617 67.42327 L272.16425 26.699265 L274.6407 27.04158 L276.57993 30.540054 L278.51917 34.03853 L280.4584 37.537018 L282.39764 41.035492 L284.33688 44.533966 L286.27612 48.032455 L288.21536 51.53093 L290.1546 55.029404 L292.09384 58.527893 L294.03308 62.026367 L295.9723 65.52484 L297.91156 69.02333 L299.85077 72.521805 L301.79004 76.02028 L303.72925 79.51877 L305.66852 83.01724 L307.60773 86.51572 L309.54697 90.014206 L311.4862 93.51268 L313.42545 97.011154 L315.3647 100.509636 L316.09192 101.82156 L242.62384 142.54556 L239.75757 143.56268 L237.81836 140.06421 L235.87909 136.56573 L233.93988 133.06726 L232.00061 129.56877 L230.0614 126.0703 L228.12216 122.57182 L226.18292 119.07333 L224.24368 115.57486 L222.30444 112.076385 L220.3652 108.577896 L218.42596 105.07942 L216.48672 101.58095 L214.54749 98.08246 L212.60825 94.583984 L210.669 91.08551 L208.72977 87.58702 L206.79053 84.08855 L204.85129 80.59007 L202.91205 77.09158 L200.97281 73.59311 L199.03357 70.094635 L198.69617 67.42327 Z "/>
      </g>
      <g style="fill:none;stroke:#B783B7;stroke-width:3.0;">
        <path d="M273.91348 25.729645 L197.82156 67.90808 L155.64313 -8.183838 L231.73505 -50.362274 L273.91348 25.729645 "/>
      </g>
      <g style="fill:none;stroke:#B519B7;stroke-width:3.0;">
        <path d="M156.51776 -8.668655 L229.98581 -49.392654 L232.46228 -49.050354 L234.40149 -45.55188 L236.34073 -42.053375 L238.27997 -38.5549 L240.21921 -35.056427 L242.15845 -31.557953 L244.09769 -28.059464 L246.03693 -24.56099 L247.97617 -21.062515 L249.9154 -17.564041 L251.85464 -14.065552 L253.79388 -10.567078 L255.73312 -7.0686035 L257.67236 -3.5701141 L259.6116 -0.071640015 L261.55084 3.426834 L263.49005 6.9253235 L265.42932 10.423798 L267.36853 13.922272 L269.3078 17.420761 L271.247 20.919235 L273.18625 24.41771 L273.91348 25.729645 L200.44543 66.45365 L197.57916 67.47078 L195.63992 63.97229 L193.70068 60.473816 L191.76144 56.97534 L189.8222 53.476852 L187.88297 49.97838 L185.94373 46.479904 L184.00449 42.981415 L182.06525 39.48294 L180.126 35.984467 L178.18677 32.485977 L176.24753 28.987503 L174.30829 25.489029 L172.36905 21.99054 L170.42981 18.492065 L168.4906 14.993591 L166.55133 11.495117 L164.61212 7.9966125 L162.67285 4.4981384 L160.73364 0.9996643 L158.79437 -2.4988098 L156.85516 -5.997284 L156.51776 -8.668655 Z "/>
      </g>
      <g style="fill:none;stroke:#B783B7;stroke-width:3.0;">
        <path d="M231.73505 -50.362274 L155.64313 -8.183838 L113.46469 -84.27576 L189.55661 -126.45421 L231.73505 -50.362274 "/>
      </g>
      <g style="fill:none;stroke:#B519B7;stroke-width:3.0;">
        <path d="M114.339294 -84.760574 L187.80737 -125.48457 L190.28381 -125.14226 L192.22308 -121.64378 L194.1623 -118.14531 L196.10156 -114.646835 L198.04077 -111.14836 L199.98001 -107.64989 L201.91925 -104.15141 L203.85849 -100.65292 L205.79773 -97.15442 L207.73697 -93.655945 L209.67621 -90.15747 L211.61545 -86.659 L213.55469 -83.16052 L215.49393 -79.66205 L217.43317 -76.163574 L219.3724 -72.66507 L221.31165 -69.166595 L223.25085 -65.66812 L225.19012 -62.169647 L227.12933 -58.671173 L229.0686 -55.1727 L231.00781 -51.674194 L231.73505 -50.362274 L158.267 -9.63826 L155.40073 -8.621155 L153.46149 -12.119629 L151.52225 -15.618103 L149.58301 -19.116577 L147.64377 -22.615051 L145.70453 -26.113556 L143.76529 -29.61203 L141.82605 -33.110504 L139.88681 -36.60898 L137.94757 -40.107452 L136.00833 -43.605927 L134.06909 -47.10443 L132.12988 -50.602905 L130.19061 -54.10138 L128.2514 -57.599854 L126.31213 -61.098328 L124.372925 -64.5968 L122.433655 -68.09531 L120.494446 -71.59378 L118.555176 -75.092255 L116.61597 -78.59073 L114.6767 -82.0892 L114.339294 -84.760574 Z "/>
      </g>
      <g style="fill:none;stroke:#B671B7;stroke-width:3.0;">
        <path d="M189.55661 -126.45421 L113.46469 -84.27576 L71.286255 -160.36766 L147.37817 -202.54613 L189.55661 -126.45421 "/>
      </g>
      <g style="fill:none;stroke:#B52BB7;stroke-width:3.0;">
        <path d="M72.16089 -160.8525 L145.62897 -201.57649 L148.10541 -201.23418 L150.04462 -197.7357 L151.98389 -194.23723 L153.9231 -190.73875 L155.86237 -187.24028 L157.80157 -183.7418 L159.74084 -180.24333 L161.68005 -176.74486 L163.61932 -173.24638 L165.55853 -169.74785 L167.49777 -166.24937 L169.43701 -162.7509 L171.37625 -159.25243 L173.31549 -155.75395 L175.25473 -152.25548 L177.19397 -148.757 L179.13321 -145.25853 L181.07245 -141.76006 L183.01169 -138.26158 L184.95093 -134.7631 L186.89017 -131.26463 L188.8294 -127.7661 L189.55661 -126.45421 L116.08856 -85.73018 L113.22229 -84.71307 L111.28305 -88.21155 L109.34381 -91.71002 L107.40457 -95.208496 L105.46533 -98.707 L103.52609 -102.205475 L101.58685 -105.703964 L99.647644 -109.20244 L97.708374 -112.70091 L95.769165 -116.19939 L93.829895 -119.69786 L91.890686 -123.196335 L89.951416 -126.69481 L88.01221 -130.19328 L86.07294 -133.69176 L84.13373 -137.19023 L82.19446 -140.68877 L80.25525 -144.18724 L78.31601 -147.68571 L76.37677 -151.18419 L74.43753 -154.68266 L72.49829 -158.18114 L72.16089 -160.8525 Z "/>
      </g>
      <g style="fill:none;stroke:#B671B7;stroke-width:3.0;">
        <path d="M408.7137 448.36768 L332.6218 490.54608 L290.44336 414.45416 L366.53528 372.27576 L408.7137 448.36768 "/>
      </g>
      <g style="fill:none;stroke:#B52BB7;stroke-width:3.0;">
        <path d="M291.318 413.96936 L364.78604 373.24536 L367.2625 373.5877 L369.20172 377.08618 L371.14096 380.58466 L373.0802 384.08313 L375.01944 387.5816 L376.95868 391.08008 L378.89792 394.57855 L380.83716 398.07706 L382.7764 401.57553 L384.71564 405.074 L386.65488 408.5725 L388.59412 412.07098 L390.53336 415.56946 L392.4726 419.06793 L394.41183 422.5664 L396.35107 426.06488 L398.2903 429.56335 L400.22955 433.06183 L402.16876 436.5603 L404.10803 440.05878 L406.04724 443.55725 L407.9865 447.05573 L408.7137 448.36768 L335.24567 489.09167 L332.3794 490.10876 L330.44016 486.6103 L328.50092 483.11182 L326.56168 479.61334 L324.62244 476.11487 L322.6832 472.6164 L320.74396 469.11792 L318.80472 465.61945 L316.86548 462.12097 L314.92624 458.6225 L312.987 455.12402 L311.04776 451.62555 L309.10852 448.127 L307.16928 444.62854 L305.23004 441.13007 L303.2908 437.6316 L301.35156 434.13312 L299.41235 430.63464 L297.47308 427.13617 L295.53387 423.6377 L293.5946 420.13922 L291.6554 416.64075 L291.318 413.96936 Z "/>
      </g>
      <g style="fill:none;stroke:#B660B7;stroke-width:3.0;">
        <path d="M366.53528 372.27576 L290.44336 414.45416 L248.26492 338.36224 L324.35684 296.18384 L366.53528 372.27576 "/>
      </g>
      <g style="fill:none;stroke:#B53DB7;stroke-width:3.0;">
        <path d="M249.13956 337.87744 L322.6076 297.15344 L325.08405 297.4958 L327.02332 300.99426 L328.96252 304.49274 L330.9018 307.9912 L332.841 311.4897 L334.78027 314.98816 L336.71948 318.48663 L338.65872 321.9851 L340.59796 325.4836 L342.5372 328.9821 L344.47644 332.48056 L346.41568 335.97906 L348.35492 339.47754 L350.29416 342.976 L352.2334 346.4745 L354.17264 349.97296 L356.11188 353.47144 L358.05112 356.9699 L359.99036 360.46838 L361.9296 363.96686 L363.86884 367.46533 L365.80804 370.96384 L366.53528 372.27576 L293.06723 412.99976 L290.20096 414.01685 L288.26172 410.51837 L286.32248 407.0199 L284.38324 403.52142 L282.444 400.02295 L280.50476 396.52448 L278.56552 393.026 L276.62628 389.52753 L274.68704 386.02905 L272.7478 382.53058 L270.80856 379.0321 L268.86932 375.53363 L266.9301 372.03513 L264.99084 368.53665 L263.05164 365.03815 L261.11237 361.53967 L259.17316 358.0412 L257.23392 354.54272 L255.29468 351.04425 L253.35544 347.54578 L251.4162 344.0473 L249.47696 340.54883 L249.13956 337.87744 Z "/>
      </g>
      <g style="fill:none;stroke:#B660B7;stroke-width:3.0;">
        <path d="M324.35684 296.18384 L248.26492 338.36224 L206.08649 262.27032 L282.1784 220.09192 L324.35684 296.18384 "/>
      </g>
      <g style="fill:none;stroke:#B53DB7;stroke-width:3.0;">
        <path d="M206.96112 261.78552 L280.4292 221.06154 L282.90564 221.40385 L284.84485 224.90233 L286.78412 228.40082 L288.72333 231.89929 L290.6626 235.39777 L292.6018 238.89624 L294.54108 242.39473 L296.4803 245.8932 L298.41956 249.3917 L300.35876 252.89017 L302.29803 256.38864 L304.23724 259.88712 L306.17648 263.38562 L308.11572 266.8841 L310.05496 270.38257 L311.9942 273.88104 L313.93344 277.37952 L315.87268 280.878 L317.81192 284.37646 L319.75116 287.87494 L321.6904 291.3734 L323.62964 294.87192 L324.35684 296.18384 L250.8888 336.90784 L248.02252 337.92496 L246.08328 334.42648 L244.14404 330.92798 L242.2048 327.4295 L240.26556 323.93103 L238.32632 320.43256 L236.38708 316.93408 L234.44785 313.4356 L232.5086 309.93713 L230.56937 306.43866 L228.63013 302.9402 L226.69092 299.44168 L224.75168 295.9432 L222.81244 292.44473 L220.8732 288.94623 L218.93396 285.44775 L216.99472 281.94928 L215.05548 278.4508 L213.11624 274.95233 L211.177 271.45386 L209.23776 267.95538 L207.29852 264.4569 L206.96112 261.78552 Z "/>
      </g>
      <g style="fill:none;stroke:#B78C08;stroke-width:3.0;">
        <path d="M282.1784 220.09192 L206.08649 262.27032 L163.90808 186.17842 L240.0 144.0 L282.1784 220.09192 "/>
      </g>
      <g style="fill:none;stroke:#B508B7;stroke-width:3.0;">
        <path d="M164.78271 185.69362 L238.25073 144.96962 L240.7272 145.31194 L242.66644 148.81041 L244.60568 152.3089 L246.54492 155.80737 L248.48416 159.30585 L250.4234 162.80432 L252.36264 166.30281 L254.30188 169.80128 L256.2411 173.29977 L258.18036 176.79825 L260.11957 180.29672 L262.0588 183.7952 L263.99805 187.29367 L265.93732 190.79216 L267.87653 194.29065 L269.81577 197.78912 L271.755 201.2876 L273.69424 204.78607 L275.63348 208.28456 L277.57272 211.78304 L279.51196 215.28151 L281.4512 218.78 L282.1784 220.09192 L208.71036 260.81592 L205.84409 261.83304 L203.90485 258.33456 L201.9656 254.83607 L200.02637 251.3376 L198.08713 247.83911 L196.14789 244.34064 L194.20868 240.84216 L192.26941 237.34369 L190.3302 233.8452 L188.39096 230.34673 L186.45172 226.84824 L184.51248 223.34976 L182.57324 219.85129 L180.634 216.35281 L178.69476 212.85432 L176.75552 209.35585 L174.81628 205.85736 L172.87704 202.35889 L170.9378 198.86041 L168.99857 195.36194 L167.05933 191.86345 L165.12009 188.36497 L164.78271 185.69362 Z "/>
      </g>
      <g style="fill:none;stroke:#B783B7;stroke-width:3.0;">
        <path d="M240.0 144.0 L163.90808 186.17842 L121.729645 110.0865 L197.82156 67.90808 L240.0 144.0 "/>
      </g>
      <g style="fill:none;stroke:#B519B7;stroke-width:3.0;">
        <path d="M122.60428 109.6017 L196.07233 68.8777 L198.54877 69.22002 L200.488 72.71849 L202.42725 76.216965 L204.36649 79.715454 L206.30573 83.21393 L208.24496 86.7124 L210.1842 90.21089 L212.12344 93.709366 L214.06268 97.20784 L216.00192 100.70633 L217.94116 104.2048 L219.88037 107.70328 L221.81964 111.20177 L223.75885 114.70024 L225.69812 118.198715 L227.63733 121.697205 L229.5766 125.19568 L231.51581 128.69415 L233.45505 132.19264 L235.39429 135.69112 L237.33353 139.18959 L239.27277 142.68808 L240.0 144.0 L166.53192 184.724 L163.66565 185.74112 L161.72644 182.24263 L159.78717 178.74416 L157.84796 175.24568 L155.90869 171.7472 L153.96948 168.24872 L152.03024 164.75024 L150.091 161.25175 L148.15176 157.75328 L146.21252 154.2548 L144.27328 150.75632 L142.33405 147.25784 L140.3948 143.75937 L138.45557 140.26088 L136.51633 136.7624 L134.57709 133.26393 L132.63785 129.76544 L130.69861 126.26697 L128.75937 122.76849 L126.82013 119.270004 L124.88089 115.77153 L122.94165 112.273056 L122.60428 109.6017 Z "/>
      </g>
      <g style="fill:none;stroke:#B783B7;stroke-width:3.0;">
        <path d="M197.82156 67.90808 L121.729645 110.0865 L79.55121 33.994583 L155.64313 -8.183838 L197.82156 67.90808 "/>
      </g>
      <g style="fill:none;stroke:#B519B7;stroke-width:3.0;">
        <path d="M80.42584 33.50978 L153.89389 -7.214218 L156.37036 -6.8719177 L158.30957 -3.3734436 L160.24881 0.12506104 L162.18805 3.6235352 L164.12729 7.1220093 L166.06653 10.620483 L168.00577 14.118973 L169.945 17.617447 L171.88425 21.115921 L173.82349 24.614395 L175.76273 28.112885 L177.70197 31.611359 L179.6412 35.109833 L181.58044 38.608322 L183.51968 42.106796 L185.45892 45.60527 L187.39813 49.10376 L189.3374 52.602234 L191.27661 56.100708 L193.21588 59.599197 L195.15509 63.09767 L197.09433 66.596146 L197.82156 67.90808 L124.353516 108.63208 L121.48724 109.6492 L119.548004 106.15071 L117.608765 102.65224 L115.669525 99.15376 L113.730286 95.65527 L111.791046 92.1568 L109.85181 88.658325 L107.91257 85.159836 L105.97333 81.66136 L104.03409 78.16289 L102.09485 74.6644 L100.15561 71.165924 L98.21637 67.66745 L96.27713 64.16896 L94.33789 60.670486 L92.39868 57.172012 L90.45941 53.67354 L88.5202 50.175034 L86.58093 46.67656 L84.64172 43.178085 L82.70245 39.67961 L80.763245 36.181137 L80.42584 33.50978 Z "/>
      </g>
      <g style="fill:none;stroke:#B671B7;stroke-width:3.0;">
        <path d="M155.64313 -8.183838 L79.55121 33.994583 L37.372772 -42.097336 L113.46469 -84.27576 L155.64313 -8.183838 "/>
      </g>
      <g style="fill:none;stroke:#B52BB7;stroke-width:3.0;">
        <path d="M38.247406 -42.582138 L111.715454 -83.30614 L114.191895 -82.96384 L116.131165 -79.46536 L118.07037 -75.96686 L120.00964 -72.46838 L121.94885 -68.96991 L123.88809 -65.471436 L125.82733 -61.97296 L127.76657 -58.474487 L129.70581 -54.975983 L131.64505 -51.47751 L133.58429 -47.979034 L135.52353 -44.48056 L137.46277 -40.982086 L139.40201 -37.483612 L141.34125 -33.985138 L143.28049 -30.486633 L145.21973 -26.98816 L147.15894 -23.489685 L149.0982 -19.99121 L151.03741 -16.492737 L152.97668 -12.994263 L154.9159 -9.495758 L155.64313 -8.183838 L82.17508 32.54016 L79.30881 33.557266 L77.36957 30.058792 L75.43033 26.560318 L73.49109 23.061844 L71.55185 19.56337 L69.61261 16.064865 L67.67337 12.566391 L65.73413 9.067917 L63.79489 5.5694427 L61.85565 2.0709686 L59.916412 -1.4275055 L57.977173 -4.92601 L56.037964 -8.424484 L54.098694 -11.922958 L52.159485 -15.4214325 L50.220215 -18.919907 L48.281006 -22.41838 L46.341736 -25.916885 L44.402527 -29.41536 L42.463257 -32.913834 L40.524048 -36.412308 L38.584778 -39.91078 L38.247406 -42.582138 Z "/>
      </g>
      <g style="fill:none;stroke:#B671B7;stroke-width:3.0;">
        <path d="M113.46469 -84.27576 L37.372772 -42.097336 L-4.805664 -118.189255 L71.286255 -160.36766 L113.46469 -84.27576 "/>
      </g>
      <g style="fill:none;stroke:#B52BB7;stroke-width:3.0;">
        <path d="M-3.9310303 -118.67406 L69.53705 -159.39806 L72.01349 -159.05577 L73.9527 -155.5573 L75.89197 -152.05882 L77.83118 -148.56029 L79.77045 -145.06181 L81.709656 -141.56334 L83.648926 -138.06487 L85.588135 -134.56639 L87.527405 -131.06792 L89.46661 -127.56944 L91.40585 -124.07097 L93.34509 -120.572495 L95.28433 -117.07402 L97.22357 -113.57555 L99.16281 -110.07707 L101.10205 -106.57854 L103.04129 -103.08006 L104.98053 -99.581604 L106.91977 -96.08313 L108.85901 -92.584656 L110.79825 -89.08618 L112.73749 -85.58768 L113.46469 -84.27576 L39.996643 -43.551758 L37.13037 -42.534653 L35.19113 -46.033127 L33.251892 -49.5316 L31.312653 -53.030075 L29.373413 -56.52858 L27.434174 -60.027054 L25.494934 -63.525528 L23.555725 -67.024 L21.616455 -70.52248 L19.677246 -74.02095 L17.737976 -77.519455 L15.798767 -81.01793 L13.859497 -84.5164 L11.920288 -88.01488 L9.981018 -91.51335 L8.041809 -95.011826 L6.102539 -98.51033 L4.16333 -102.008804 L2.224121 -105.50728 L0.28485107 -109.00575 L-1.654419 -112.50423 L-3.593628 -116.0027 L-3.9310303 -118.67406 Z "/>
      </g>
      <g style="fill:none;stroke:#B660B7;stroke-width:3.0;">
        <path d="M332.6218 490.54608 L256.52988 532.72455 L214.35144 456.63263 L290.44336 414.45416 L332.6218 490.54608 "/>
      </g>
      <g style="fill:none;stroke:#B53DB7;stroke-width:3.0;">
        <path d="M215.22607 456.14783 L288.69412 415.42383 L291.1706 415.7661 L293.1098 419.2646 L295.04904 422.76306 L296.98828 426.26154 L298.92752 429.76 L300.86676 433.25848 L302.806 436.75696 L304.74524 440.2555 L306.68448 443.75397 L308.62372 447.25244 L310.56296 450.75092 L312.5022 454.2494 L314.44144 457.74786 L316.38068 461.24634 L318.31992 464.7448 L320.25916 468.2433 L322.1984 471.74176 L324.13763 475.24023 L326.07684 478.7387 L328.0161 482.23718 L329.95532 485.73572 L331.8946 489.2342 L332.6218 490.54608 L259.15375 531.27014 L256.28748 532.28723 L254.34824 528.78876 L252.409 525.2903 L250.46976 521.7918 L248.53052 518.29333 L246.59128 514.79486 L244.65204 511.29633 L242.7128 507.79785 L240.77356 504.29938 L238.83432 500.8009 L236.89508 497.30243 L234.95584 493.80396 L233.0166 490.30548 L231.07736 486.807 L229.13812 483.30853 L227.19888 479.81006 L225.25964 476.31158 L223.32043 472.8131 L221.38116 469.31464 L219.44196 465.8161 L217.50269 462.31763 L215.56348 458.81915 L215.22607 456.14783 Z "/>
      </g>
      <g style="fill:none;stroke:#B660B7;stroke-width:3.0;">
        <path d="M290.44336 414.45416 L214.35144 456.63263 L172.173 380.5407 L248.26492 338.36224 L290.44336 414.45416 "/>
      </g>
      <g style="fill:none;stroke:#B53DB7;stroke-width:3.0;">
        <path d="M173.04764 380.0559 L246.51569 339.3319 L248.99216 339.6742 L250.9314 343.17267 L252.8706 346.67114 L254.80984 350.16962 L256.74908 353.6681 L258.68832 357.1666 L260.62756 360.66507 L262.5668 364.16357 L264.50604 367.66205 L266.44528 371.16052 L268.38452 374.659 L270.32376 378.15747 L272.263 381.65594 L274.20224 385.15442 L276.14148 388.6529 L278.08072 392.15137 L280.01996 395.64984 L281.9592 399.14832 L283.89844 402.64682 L285.83768 406.14532 L287.77692 409.6438 L289.71613 413.14227 L290.44336 414.45416 L216.97531 455.17822 L214.10904 456.1953 L212.1698 452.69684 L210.23056 449.19836 L208.29132 445.6999 L206.35208 442.20142 L204.41284 438.70294 L202.4736 435.2044 L200.53436 431.70593 L198.59512 428.20746 L196.65588 424.70898 L194.71664 421.2105 L192.7774 417.71204 L190.83817 414.21356 L188.89893 410.7151 L186.95972 407.2166 L185.02045 403.71814 L183.08124 400.21967 L181.142 396.7212 L179.20276 393.2227 L177.26352 389.7242 L175.32428 386.2257 L173.38504 382.72723 L173.04764 380.0559 Z "/>
      </g>
      <g style="fill:none;stroke:#B78C08;stroke-width:3.0;">
        <path d="M248.26492 338.36224 L172.173 380.5407 L129.99457 304.4488 L206.08649 262.27032 L248.26492 338.36224 "/>
      </g>
      <g style="fill:none;stroke:#B508B7;stroke-width:3.0;">
        <path d="M130.8692 303.964 L204.33725 263.23996 L206.81372 263.58228 L208.75296 267.08075 L210.6922 270.57922 L212.63144 274.0777 L214.57068 277.57617 L216.50989 281.07468 L218.44913 284.57315 L220.38837 288.07162 L222.3276 291.57013 L224.26685 295.0686 L226.20609 298.56708 L228.14532 302.06555 L230.08456 305.56403 L232.0238 309.0625 L233.96304 312.56097 L235.90228 316.05945 L237.84152 319.55792 L239.78076 323.0564 L241.72 326.5549 L243.65924 330.05338 L245.59848 333.55188 L247.53772 337.05035 L248.26492 338.36224 L174.79688 379.0863 L171.9306 380.1034 L169.99136 376.60492 L168.05212 373.10645 L166.11288 369.60797 L164.17365 366.1095 L162.2344 362.611 L160.29517 359.11252 L158.35593 355.61404 L156.41669 352.11554 L154.47745 348.61707 L152.53821 345.1186 L150.599 341.62012 L148.65976 338.12164 L146.72052 334.62317 L144.78128 331.1247 L142.84204 327.62622 L140.9028 324.12775 L138.96356 320.62924 L137.02432 317.13077 L135.08508 313.6323 L133.14584 310.1338 L131.2066 306.6353 L130.8692 303.964 Z "/>
      </g>
      <g style="fill:none;stroke:#B783B7;stroke-width:3.0;">
        <path d="M206.08649 262.27032 L129.99457 304.4488 L87.81616 228.35686 L163.90808 186.17842 L206.08649 262.27032 "/>
      </g>
      <g style="fill:none;stroke:#B519B7;stroke-width:3.0;">
        <path d="M88.690796 227.87206 L162.15881 187.14804 L164.63528 187.49036 L166.57452 190.98883 L168.51376 194.4873 L170.453 197.9858 L172.39224 201.48427 L174.33148 204.98276 L176.27072 208.48123 L178.20996 211.9797 L180.14917 215.47818 L182.08844 218.97667 L184.02765 222.47514 L185.96689 225.97363 L187.90613 229.4721 L189.84537 232.97058 L191.7846 236.46906 L193.72385 239.96753 L195.66309 243.46602 L197.60233 246.96451 L199.54156 250.46298 L201.4808 253.96146 L203.42004 257.45993 L205.35928 260.95844 L206.08649 262.27032 L132.61844 302.99435 L129.75217 304.01147 L127.81293 300.513 L125.87369 297.01453 L123.93445 293.51605 L121.99521 290.01758 L120.05597 286.51907 L118.11676 283.0206 L116.17749 279.52213 L114.23828 276.02362 L112.29904 272.52515 L110.3598 269.02667 L108.42056 265.5282 L106.48132 262.02972 L104.54208 258.53125 L102.602844 255.03276 L100.663605 251.53429 L98.724365 248.0358 L96.785126 244.53732 L94.84589 241.03885 L92.90665 237.54037 L90.96741 234.04189 L89.02817 230.54341 L88.690796 227.87206 Z "/>
      </g>
      <g style="fill:none;stroke:#B783B7;stroke-width:3.0;">
        <path d="M163.90808 186.17842 L87.81616 228.35686 L45.637726 152.26494 L121.729645 110.0865 L163.90808 186.17842 "/>
      </g>
      <g style="fill:none;stroke:#B519B7;stroke-width:3.0;">
        <path d="M46.51236 151.78014 L119.98041 111.05612 L122.45685 111.39844 L124.39609 114.89691 L126.33533 118.395386 L128.27457 121.893875 L130.2138 125.39235 L132.15305 128.89082 L134.09229 132.38931 L136.03152 135.88779 L137.97076 139.38626 L139.91 142.88475 L141.84924 146.38322 L143.78845 149.8817 L145.72772 153.38019 L147.66693 156.87866 L149.6062 160.37714 L151.54541 163.87563 L153.48468 167.3741 L155.42389 170.87257 L157.36313 174.37106 L159.30237 177.86954 L161.24161 181.36801 L163.18085 184.86649 L163.90808 186.17842 L90.44 226.90244 L87.57373 227.91956 L85.63452 224.42107 L83.69525 220.92259 L81.75604 217.42412 L79.81677 213.92563 L77.87756 210.42715 L75.938324 206.92868 L73.999084 203.43019 L72.059845 199.93172 L70.120605 196.43324 L68.181366 192.93475 L66.24213 189.43628 L64.30289 185.9378 L62.363647 182.43932 L60.424408 178.94084 L58.48517 175.44237 L56.54593 171.94388 L54.60669 168.4454 L52.66745 164.94693 L50.72821 161.44844 L48.78897 157.94997 L46.84973 154.45149 L46.51236 151.78014 Z "/>
      </g>
      <g style="fill:none;stroke:#B671B7;stroke-width:3.0;">
        <path d="M121.729645 110.0865 L45.637726 152.26494 L3.4592896 76.17302 L79.55121 33.994583 L121.729645 110.0865 "/>
      </g>
      <g style="fill:none;stroke:#B52BB7;stroke-width:3.0;">
        <path d="M4.3339233 75.68822 L77.80197 34.964203 L80.27844 35.306503 L82.21765 38.804977 L84.15689 42.303482 L86.09613 45.801956 L88.03537 49.30043 L89.97461 52.798904 L91.91385 56.297394 L93.85309 59.795868 L95.79233 63.294342 L97.73157 66.792816 L99.67081 70.291306 L101.61005 73.78978 L103.549286 77.28825 L105.488525 80.78674 L107.427765 84.28522 L109.367004 87.78369 L111.30621 91.28218 L113.24548 94.780655 L115.18469 98.27913 L117.12396 101.77762 L119.06317 105.27609 L121.00241 108.77457 L121.729645 110.0865 L48.261597 150.81052 L45.395325 151.82764 L43.456085 148.32915 L41.516846 144.83067 L39.577606 141.3322 L37.638367 137.83371 L35.699127 134.33524 L33.759888 130.83676 L31.820648 127.33827 L29.881409 123.8398 L27.94217 120.341324 L26.00293 116.842834 L24.06369 113.34436 L22.12445 109.84589 L20.185211 106.3474 L18.245972 102.84892 L16.306763 99.35045 L14.367493 95.851974 L12.428284 92.35347 L10.489014 88.854996 L8.549805 85.35652 L6.6105347 81.85805 L4.6713257 78.35957 L4.3339233 75.68822 Z "/>
      </g>
      <g style="fill:none;stroke:#B671B7;stroke-width:3.0;">
        <path d="M79.55121 33.994583 L3.4592896 76.17302 L-38.719116 0.081100464 L37.372772 -42.097336 L79.55121 33.994583 "/>
      </g>
      <g style="fill:none;stroke:#B52BB7;stroke-width:3.0;">
        <path d="M-37.844482 -0.40370178 L35.623535 -41.127716 L38.099976 -40.785416 L40.039246 -37.28694 L41.978455 -33.788437 L43.917725 -30.289963 L45.856934 -26.791489 L47.796173 -23.293015 L49.735413 -19.79454 L51.674652 -16.296066 L53.61389 -12.797562 L55.55313 -9.299088 L57.49237 -5.8006134 L59.43161 -2.3021393 L61.37085 1.1963348 L63.31009 4.694809 L65.24933 8.193283 L67.18857 11.691788 L69.12781 15.190262 L71.06702 18.688736 L73.00629 22.18721 L74.945496 25.685684 L76.884766 29.184158 L78.823975 32.682663 L79.55121 33.994583 L6.08313 74.7186 L3.216919 75.7357 L1.2776489 72.23723 L-0.6616211 68.738754 L-2.60083 65.24028 L-4.540039 61.741806 L-6.479309 58.2433 L-8.418579 54.744827 L-10.357788 51.246353 L-12.296997 47.74788 L-14.236267 44.249405 L-16.175537 40.75093 L-18.114746 37.252426 L-20.053955 33.753952 L-21.993225 30.255478 L-23.932434 26.757004 L-25.871704 23.25853 L-27.810913 19.760056 L-29.750183 16.26155 L-31.689392 12.763077 L-33.628662 9.264603 L-35.56787 5.7661285 L-37.50714 2.2676544 L-37.844482 -0.40370178 Z "/>
      </g>
      <g style="fill:none;stroke:#B660B7;stroke-width:3.0;">
        <path d="M37.372772 -42.097336 L-38.719116 0.081100464 L-80.89758 -76.01082 L-4.805664 -118.189255 L37.372772 -42.097336 "/>
      </g>
      <g style="fill:none;stroke:#B53DB7;stroke-width:3.0;">
        <path d="M-80.02295 -76.49562 L-6.5548706 -117.21965 L-4.07843 -116.877335 L-2.1392212 -113.37886 L-0.19995117 -109.88039 L1.7392578 -106.38188 L3.6785278 -102.88341 L5.617737 -99.38493 L7.557007 -95.88646 L9.496216 -92.387985 L11.435486 -88.88951 L13.374695 -85.39101 L15.313934 -81.89253 L17.253174 -78.39406 L19.192413 -74.895584 L21.131653 -71.39711 L23.070892 -67.898636 L25.010132 -64.40013 L26.949371 -60.901657 L28.88861 -57.403183 L30.82785 -53.90471 L32.76709 -50.406235 L34.70633 -46.90776 L36.64557 -43.409256 L37.372772 -42.097336 L-36.095276 -1.3733215 L-38.961548 -0.35621643 L-40.900757 -3.8546906 L-42.840027 -7.3531647 L-44.779297 -10.851639 L-46.718506 -14.350143 L-48.657715 -17.848618 L-50.596985 -21.347092 L-52.536194 -24.845566 L-54.475464 -28.34404 L-56.414673 -31.842514 L-58.353943 -35.34102 L-60.29315 -38.839493 L-62.23242 -42.337967 L-64.17163 -45.83644 L-66.1109 -49.334915 L-68.05011 -52.83339 L-69.98938 -56.331894 L-71.92859 -59.830368 L-73.8678 -63.328842 L-75.80707 -66.82732 L-77.74634 -70.32579 L-79.68555 -73.824265 L-80.02295 -76.49562 Z "/>
      </g>
      <g style="fill:none;stroke:#B660B7;stroke-width:3.0;">
        <path d="M256.52988 532.72455 L180.43796 574.90295 L138.25952 498.81104 L214.35144 456.63263 L256.52988 532.72455 "/>
      </g>
      <g style="fill:none;stroke:#B53DB7;stroke-width:3.0;">
        <path d="M139.13412 498.32623 L212.6022 457.60223 L215.07864 457.94452 L217.01788 461.44305 L218.95712 464.94153 L220.89636 468.44 L222.8356 471.93848 L224.77484 475.43695 L226.71408 478.93542 L228.65332 482.4339 L230.59256 485.93237 L232.5318 489.43085 L234.47104 492.92932 L236.41028 496.4278 L238.34952 499.92627 L240.28876 503.42474 L242.228 506.92328 L244.16724 510.42175 L246.10648 513.9202 L248.04572 517.4187 L249.98492 520.9172 L251.9242 524.41565 L253.8634 527.9141 L255.80267 531.4126 L256.52988 532.72455 L183.06183 573.44855 L180.19556 574.46564 L178.25632 570.96716 L176.31708 567.4687 L174.37784 563.9702 L172.4386 560.47174 L170.49936 556.97327 L168.56012 553.4748 L166.62088 549.9763 L164.68164 546.47784 L162.7424 542.9794 L160.80316 539.4809 L158.86392 535.9824 L156.92468 532.4839 L154.98544 528.9854 L153.0462 525.48694 L151.10696 521.98846 L149.16772 518.49 L147.22852 514.9915 L145.28925 511.49304 L143.35004 507.99457 L141.41077 504.4961 L139.47156 500.99762 L139.13412 498.32623 Z "/>
      </g>
      <g style="fill:none;stroke:#B78C08;stroke-width:3.0;">
        <path d="M214.35144 456.63263 L138.25952 498.81104 L96.081085 422.71912 L172.173 380.5407 L214.35144 456.63263 "/>
      </g>
      <g style="fill:none;stroke:#B508B7;stroke-width:3.0;">
        <path d="M96.95569 422.2343 L170.42377 381.5103 L172.90024 381.85263 L174.83948 385.3511 L176.77869 388.8496 L178.71793 392.34808 L180.65717 395.84656 L182.5964 399.34503 L184.53564 402.8435 L186.47488 406.34198 L188.41412 409.84045 L190.35336 413.33893 L192.2926 416.8374 L194.23184 420.33588 L196.17108 423.83435 L198.11032 427.3329 L200.04956 430.83136 L201.9888 434.32983 L203.92804 437.8283 L205.86728 441.32678 L207.80652 444.82526 L209.74576 448.32373 L211.685 451.8222 L213.62424 455.32068 L214.35144 456.63263 L140.88339 497.35663 L138.01712 498.37372 L136.07788 494.87524 L134.13864 491.37677 L132.1994 487.8783 L130.26016 484.37982 L128.32092 480.88135 L126.38168 477.38287 L124.442444 473.8844 L122.503204 470.38593 L120.563965 466.88745 L118.624725 463.38898 L116.685486 459.8905 L114.74625 456.39197 L112.80701 452.8935 L110.8678 449.39502 L108.92853 445.89655 L106.98932 442.39807 L105.05008 438.8996 L103.11084 435.40112 L101.1716 431.90265 L99.23236 428.40417 L97.29312 424.9057 L96.95569 422.2343 Z "/>
      </g>
      <g style="fill:none;stroke:#B783B7;stroke-width:3.0;">
        <path d="M172.173 380.5407 L96.081085 422.71912 L53.90265 346.6272 L129.99457 304.4488 L172.173 380.5407 "/>
      </g>
      <g style="fill:none;stroke:#B519B7;stroke-width:3.0;">
        <path d="M54.777252 346.1424 L128.24533 305.4184 L130.7218 305.7607 L132.66104 309.2592 L134.60028 312.7577 L136.53952 316.25616 L138.47876 319.75464 L140.41797 323.2531 L142.35721 326.7516 L144.29645 330.25006 L146.23569 333.74854 L148.17493 337.247 L150.11417 340.74548 L152.0534 344.244 L153.99265 347.74246 L155.93188 351.24094 L157.87112 354.73944 L159.81036 358.2379 L161.7496 361.7364 L163.68884 365.23486 L165.62808 368.73334 L167.56732 372.2318 L169.50656 375.7303 L171.4458 379.22876 L172.173 380.5407 L98.704956 421.2647 L95.838684 422.2818 L93.899445 418.78333 L91.960205 415.28485 L90.020966 411.78638 L88.081726 408.2879 L86.14249 404.78943 L84.20325 401.29095 L82.26401 397.79248 L80.32477 394.294 L78.38553 390.79553 L76.44629 387.29706 L74.50708 383.79855 L72.56784 380.30008 L70.6286 376.8016 L68.68936 373.3031 L66.75012 369.80463 L64.81088 366.30615 L62.871643 362.80768 L60.932404 359.3092 L58.993164 355.81073 L57.053925 352.31226 L55.114685 348.81378 L54.777252 346.1424 Z "/>
      </g>
      <g style="fill:none;stroke:#B783B7;stroke-width:3.0;">
        <path d="M129.99457 304.4488 L53.90265 346.6272 L11.724243 270.53528 L87.81616 228.35686 L129.99457 304.4488 "/>
      </g>
      <g style="fill:none;stroke:#B519B7;stroke-width:3.0;">
        <path d="M12.598816 270.05048 L86.066895 229.32648 L88.543365 229.6688 L90.482605 233.16727 L92.421844 236.66574 L94.361084 240.16423 L96.30032 243.6627 L98.23956 247.1612 L100.1788 250.65967 L102.11804 254.15814 L104.05725 257.65662 L105.99652 261.1551 L107.93573 264.65356 L109.87497 268.15207 L111.81421 271.65054 L113.75345 275.14902 L115.69269 278.6475 L117.63193 282.146 L119.57117 285.64447 L121.51041 289.14294 L123.449646 292.64142 L125.388885 296.1399 L127.328125 299.63837 L129.26736 303.13684 L129.99457 304.4488 L56.52652 345.1728 L53.660248 346.1899 L51.72101 342.6914 L49.78177 339.19293 L47.84253 335.69446 L45.90329 332.19598 L43.96405 328.6975 L42.02484 325.19904 L40.08557 321.70056 L38.146362 318.2021 L36.207123 314.7036 L34.267883 311.20514 L32.328644 307.70663 L30.389404 304.20816 L28.450165 300.70966 L26.510925 297.21118 L24.571686 293.7127 L22.632446 290.21423 L20.693207 286.71576 L18.753967 283.2173 L16.814728 279.7188 L14.875488 276.22034 L12.936249 272.72186 L12.598816 270.05048 Z "/>
      </g>
      <g style="fill:none;stroke:#B671B7;stroke-width:3.0;">
        <path d="M87.81616 228.35686 L11.724243 270.53528 L-30.454224 194.44337 L45.637726 152.26494 L87.81616 228.35686 "/>
      </g>
      <g style="fill:none;stroke:#B52BB7;stroke-width:3.0;">
        <path d="M-29.57959 193.95856 L43.88849 153.23456 L46.36493 153.57687 L48.30417 157.07535 L50.24341 160.57382 L52.182648 164.07231 L54.121887 167.57079 L56.061127 171.06926 L58.000366 174.56775 L59.939606 178.06622 L61.878845 181.5647 L63.818085 185.06319 L65.757324 188.56166 L67.69653 192.06013 L69.6358 195.55862 L71.57501 199.0571 L73.51428 202.55557 L75.45349 206.05406 L77.39276 209.55254 L79.33197 213.05101 L81.27121 216.5495 L83.21045 220.04797 L85.14969 223.54645 L87.08893 227.04492 L87.81616 228.35686 L14.3480835 269.08087 L11.481812 270.098 L9.542603 266.5995 L7.6033325 263.101 L5.6641235 259.60254 L3.7248535 256.10406 L1.7856445 252.60559 L-0.15362549 249.10712 L-2.0928345 245.60863 L-4.0321045 242.11015 L-5.9713135 238.61168 L-7.9105835 235.11319 L-9.8497925 231.61472 L-11.7890625 228.11624 L-13.7282715 224.61775 L-15.66748 221.11928 L-17.60675 217.6208 L-19.54602 214.12231 L-21.48523 210.62384 L-23.424438 207.12537 L-25.363708 203.62688 L-27.302917 200.1284 L-29.242188 196.62993 L-29.57959 193.95856 Z "/>
      </g>
      <g style="fill:none;stroke:#B671B7;stroke-width:3.0;">
        <path d="M45.637726 152.26494 L-30.454224 194.44337 L-72.63263 118.351456 L3.4592896 76.17302 L45.637726 152.26494 "/>
      </g>
      <g style="fill:none;stroke:#B52BB7;stroke-width:3.0;">
        <path d="M-71.75806 117.86664 L1.710083 77.14264 L4.1865234 77.48494 L6.1257324 80.98341 L8.064972 84.48192 L10.004211 87.98039 L11.943451 91.47887 L13.88269 94.97734 L15.82193 98.47583 L17.76117 101.974304 L19.700409 105.47278 L21.639648 108.97125 L23.578888 112.46974 L25.518127 115.968216 L27.457367 119.46669 L29.396606 122.96518 L31.335846 126.46365 L33.275085 129.96213 L35.214294 133.46062 L37.153564 136.95909 L39.092773 140.45757 L41.032043 143.95605 L42.971252 147.45453 L44.910492 150.953 L45.637726 152.26494 L-27.830322 192.98894 L-30.696594 194.00607 L-32.635864 190.50758 L-34.575073 187.00911 L-36.514343 183.51064 L-38.453552 180.01215 L-40.392822 176.51367 L-42.33203 173.0152 L-44.27124 169.51671 L-46.21051 166.01823 L-48.14978 162.51976 L-50.08899 159.02127 L-52.0282 155.5228 L-53.96747 152.02432 L-55.90674 148.52583 L-57.845947 145.02736 L-59.785156 141.52888 L-61.724426 138.03041 L-63.663635 134.5319 L-65.602905 131.03343 L-67.542114 127.53496 L-69.481384 124.03648 L-71.42059 120.53801 L-71.75806 117.86664 Z "/>
      </g>
      <g style="fill:none;stroke:#B660B7;stroke-width:3.0;">
        <path d="M3.4592896 76.17302 L-72.63263 118.351456 L-114.811035 42.259537 L-38.719116 0.081100464 L3.4592896 76.17302 "/>
      </g>
      <g style="fill:none;stroke:#B53DB7;stroke-width:3.0;">
        <path d="M-113.93646 41.77472 L-40.468384 1.0507202 L-37.991943 1.3930206 L-36.052673 4.8914948 L-34.113464 8.389999 L-32.174194 11.8884735 L-30.234985 15.386948 L-28.295776 18.885422 L-26.356506 22.383896 L-24.417236 25.88237 L-22.478027 29.380875 L-20.538818 32.87935 L-18.599548 36.377823 L-16.660278 39.876297 L-14.721069 43.37477 L-12.78186 46.873245 L-10.84259 50.37172 L-8.90332 53.870224 L-6.9641113 57.3687 L-5.0249023 60.867172 L-3.0856323 64.36565 L-1.1464233 67.86412 L0.7928467 71.362595 L2.7320557 74.8611 L3.4592896 76.17302 L-70.00879 116.89702 L-72.875 117.91414 L-74.81427 114.415665 L-76.75354 110.91719 L-78.69275 107.41872 L-80.63196 103.92024 L-82.57123 100.42174 L-84.5105 96.92326 L-86.44971 93.42479 L-88.388916 89.926315 L-90.328186 86.42784 L-92.267456 82.92937 L-94.206665 79.43086 L-96.145874 75.93239 L-98.085144 72.433914 L-100.02435 68.93544 L-101.96362 65.436966 L-103.90283 61.93849 L-105.8421 58.439987 L-107.78131 54.941513 L-109.72058 51.44304 L-111.65979 47.944565 L-113.59906 44.44609 L-113.93646 41.77472 Z "/>
      </g>
      <g style="fill:none;stroke:#B660B7;stroke-width:3.0;">
        <path d="M-38.719116 0.081100464 L-114.811035 42.259537 L-156.9895 -33.832382 L-80.89758 -76.01082 L-38.719116 0.081100464 "/>
      </g>
      <g style="fill:none;stroke:#B53DB7;stroke-width:3.0;">
        <path d="M-156.11487 -34.3172 L-82.64679 -75.0412 L-80.17035 -74.6989 L-78.23114 -71.200424 L-76.29187 -67.70195 L-74.35266 -64.203445 L-72.41339 -60.70497 L-70.47418 -57.206497 L-68.53491 -53.708023 L-66.5957 -50.20955 L-64.65643 -46.711075 L-62.717224 -43.21257 L-60.777954 -39.714096 L-58.838745 -36.215622 L-56.899536 -32.717148 L-54.960266 -29.218674 L-53.020996 -25.7202 L-51.081787 -22.221695 L-49.14258 -18.72322 L-47.20331 -15.224747 L-45.264038 -11.726273 L-43.32483 -8.227798 L-41.38562 -4.7293243 L-39.44635 -1.2308197 L-38.719116 0.081100464 L-112.187195 40.8051 L-115.05347 41.82222 L-116.992676 38.323746 L-118.931946 34.82527 L-120.871216 31.326797 L-122.810425 27.828293 L-124.74963 24.329819 L-126.6889 20.831345 L-128.62811 17.33287 L-130.56738 13.834396 L-132.50659 10.335922 L-134.44586 6.8374176 L-136.38507 3.3389435 L-138.32434 -0.15953064 L-140.26355 -3.6580048 L-142.20282 -7.156479 L-144.14203 -10.654953 L-146.0813 -14.153458 L-148.02051 -17.651932 L-149.95972 -21.150406 L-151.89899 -24.64888 L-153.83826 -28.147354 L-155.77747 -31.645828 L-156.11487 -34.3172 Z "/>
      </g>
      <g style="fill:none;stroke:#B78C08;stroke-width:3.0;">
        <path d="M180.43796 574.90295 L104.34604 617.0814 L62.167603 540.9895 L138.25952 498.81104 L180.43796 574.90295 "/>
      </g>
      <g style="fill:none;stroke:#B508B7;stroke-width:3.0;">
        <path d="M63.042236 540.50464 L136.51028 499.7807 L138.98672 500.123 L140.92596 503.62146 L142.8652 507.11993 L144.80444 510.6184 L146.74368 514.1169 L148.68292 517.61536 L150.62216 521.11383 L152.5614 524.61237 L154.50064 528.11084 L156.43988 531.6093 L158.37912 535.1078 L160.31836 538.60626 L162.2576 542.10474 L164.19684 545.6032 L166.13608 549.1017 L168.07532 552.60016 L170.01456 556.09863 L171.9538 559.5971 L173.893 563.0956 L175.83228 566.59406 L177.77148 570.0926 L179.71075 573.59106 L180.43796 574.90295 L106.96991 615.62695 L104.10364 616.6441 L102.1644 613.1456 L100.22516 609.64716 L98.28592 606.1487 L96.34668 602.6502 L94.40744 599.15173 L92.4682 595.6532 L90.52896 592.1547 L88.58972 588.65625 L86.65048 585.1578 L84.71124 581.6593 L82.772 578.1608 L80.83276 574.66235 L78.893524 571.1639 L76.954285 567.6654 L75.015045 564.16693 L73.075806 560.66846 L71.1366 557.17 L69.19733 553.6715 L67.25812 550.173 L65.31885 546.6745 L63.37964 543.176 L63.042236 540.50464 Z "/>
      </g>
      <g style="fill:none;stroke:#B783B7;stroke-width:3.0;">
        <path d="M138.25952 498.81104 L62.167603 540.9895 L19.989166 464.89758 L96.081085 422.71912 L138.25952 498.81104 "/>
      </g>
      <g style="fill:none;stroke:#B519B7;stroke-width:3.0;">
        <path d="M20.8638 464.41272 L94.33185 423.68878 L96.80832 424.03107 L98.74756 427.52954 L100.68677 431.028 L102.62601 434.5265 L104.56525 438.02496 L106.504486 441.52344 L108.443726 445.0219 L110.382965 448.52045 L112.322205 452.01892 L114.261444 455.5174 L116.20068 459.01587 L118.13992 462.51434 L120.07916 466.01282 L122.0184 469.5113 L123.95764 473.00977 L125.89688 476.50824 L127.83612 480.0067 L129.77536 483.5052 L131.7146 487.00366 L133.65384 490.5022 L135.59308 494.00067 L137.53232 497.49915 L138.25952 498.81104 L64.79147 539.53503 L61.9252 540.5522 L59.985962 537.0537 L58.046722 533.55524 L56.107483 530.05676 L54.168243 526.5583 L52.229004 523.0598 L50.289764 519.5613 L48.350525 516.0628 L46.411285 512.56433 L44.472046 509.06586 L42.532806 505.56738 L40.593567 502.0689 L38.654327 498.57043 L36.715088 495.07196 L34.77588 491.5735 L32.83661 488.075 L30.8974 484.57654 L28.95816 481.07806 L27.01892 477.5796 L25.079681 474.08105 L23.140442 470.58258 L21.201202 467.0841 L20.8638 464.41272 Z "/>
      </g>
      <g style="fill:none;stroke:#B783B7;stroke-width:3.0;">
        <path d="M96.081085 422.71912 L19.989166 464.89758 L-22.18927 388.80566 L53.90265 346.6272 L96.081085 422.71912 "/>
      </g>
      <g style="fill:none;stroke:#B519B7;stroke-width:3.0;">
        <path d="M-21.314636 388.3208 L52.15341 347.59683 L54.629883 347.93915 L56.569122 351.43762 L58.50836 354.9361 L60.4476 358.43457 L62.38684 361.93304 L64.32605 365.43155 L66.26529 368.93002 L68.20453 372.4285 L70.14377 375.927 L72.08301 379.42548 L74.02225 382.92395 L75.96149 386.42242 L77.90073 389.9209 L79.839966 393.41937 L81.779205 396.91785 L83.718445 400.41632 L85.657684 403.9148 L87.596924 407.41327 L89.53616 410.91174 L91.4754 414.41028 L93.41464 417.90875 L95.35388 421.40723 L96.081085 422.71912 L22.613037 463.4431 L19.746765 464.46027 L17.807526 460.9618 L15.868286 457.46332 L13.929047 453.96484 L11.989807 450.46637 L10.050568 446.9679 L8.111328 443.46936 L6.172119 439.9709 L4.232849 436.4724 L2.2936401 432.97394 L0.35437012 429.47546 L-1.5848389 425.977 L-3.524109 422.47852 L-5.463318 418.98004 L-7.402588 415.48157 L-9.341797 411.9831 L-11.281067 408.48462 L-13.220276 404.9861 L-15.159546 401.48764 L-17.098755 397.98917 L-19.038025 394.49066 L-20.977234 390.9922 L-21.314636 388.3208 Z "/>
      </g>
      <g style="fill:none;stroke:#B671B7;stroke-width:3.0;">
        <path d="M53.90265 346.6272 L-22.18927 388.80566 L-64.367676 312.71375 L11.724243 270.53528 L53.90265 346.6272 "/>
      </g>
      <g style="fill:none;stroke:#B52BB7;stroke-width:3.0;">
        <path d="M-63.493042 312.22888 L9.974976 271.5049 L12.451447 271.84723 L14.390686 275.3457 L16.329926 278.84418 L18.269165 282.34265 L20.208405 285.84113 L22.147644 289.3396 L24.086884 292.8381 L26.026123 296.33658 L27.965332 299.83508 L29.904602 303.33356 L31.843811 306.83203 L33.78305 310.3305 L35.72229 313.82898 L37.66153 317.32745 L39.60077 320.82593 L41.54001 324.3244 L43.479248 327.82288 L45.418488 331.32135 L47.357727 334.81985 L49.296967 338.31833 L51.236206 341.8168 L53.175446 345.3153 L53.90265 346.6272 L-19.565369 387.3512 L-22.43164 388.36835 L-24.37091 384.86987 L-26.31012 381.3714 L-28.24939 377.87292 L-30.188599 374.37445 L-32.12787 370.87595 L-34.067078 367.37747 L-36.006348 363.87897 L-37.945557 360.3805 L-39.884827 356.88202 L-41.824036 353.38354 L-43.763306 349.88507 L-45.702515 346.3866 L-47.641785 342.88812 L-49.580994 339.38965 L-51.520264 335.89117 L-53.459473 332.3927 L-55.39868 328.8942 L-57.33795 325.39572 L-59.27722 321.89722 L-61.21643 318.39874 L-63.15564 314.90027 L-63.493042 312.22888 Z "/>
      </g>
      <g style="fill:none;stroke:#B671B7;stroke-width:3.0;">
        <path d="M11.724243 270.53528 L-64.367676 312.71375 L-106.54614 236.62181 L-30.454224 194.44337 L11.724243 270.53528 "/>
      </g>
      <g style="fill:none;stroke:#B52BB7;stroke-width:3.0;">
        <path d="M-105.67151 236.13698 L-32.20343 195.413 L-29.72699 195.75531 L-27.78772 199.25378 L-25.84851 202.75226 L-23.909302 206.25075 L-21.970032 209.74922 L-20.030762 213.2477 L-18.091553 216.74619 L-16.152344 220.24466 L-14.213074 223.74313 L-12.273865 227.24162 L-10.334595 230.7401 L-8.395386 234.23857 L-6.4561157 237.73706 L-4.5169067 241.23553 L-2.5776367 244.73401 L-0.63842773 248.2325 L1.3008423 251.73097 L3.2400513 255.22945 L5.1793213 258.72794 L7.1185303 262.2264 L9.05777 265.72488 L10.997009 269.22336 L11.724243 270.53528 L-61.743835 311.25928 L-64.61011 312.27643 L-66.54932 308.77795 L-68.48859 305.27948 L-70.427795 301.781 L-72.367065 298.2825 L-74.306274 294.78403 L-76.245544 291.28555 L-78.18475 287.78705 L-80.12402 284.28857 L-82.06323 280.7901 L-84.0025 277.29163 L-85.94171 273.79315 L-87.88098 270.29468 L-89.82019 266.7962 L-91.7594 263.29773 L-93.69867 259.79926 L-95.63794 256.30075 L-97.57715 252.80228 L-99.51636 249.3038 L-101.45563 245.80531 L-103.39484 242.30684 L-105.33411 238.80836 L-105.67151 236.13698 Z "/>
      </g>
      <g style="fill:none;stroke:#B660B7;stroke-width:3.0;">
        <path d="M-30.454224 194.44337 L-106.54614 236.62181 L-148.72455 160.52989 L-72.63263 118.351456 L-30.454224 194.44337 "/>
      </g>
      <g style="fill:none;stroke:#B53DB7;stroke-width:3.0;">
        <path d="M-147.84991 160.04506 L-74.381836 119.321075 L-71.905396 119.663376 L-69.96619 123.16185 L-68.02698 126.660355 L-66.08771 130.15883 L-64.14844 133.6573 L-62.20923 137.15578 L-60.27002 140.65427 L-58.33075 144.15274 L-56.39148 147.65121 L-54.45227 151.14969 L-52.51306 154.64818 L-50.57379 158.14665 L-48.63452 161.64513 L-46.695312 165.14362 L-44.756104 168.64209 L-42.816833 172.14056 L-40.877625 175.63905 L-38.938354 179.13753 L-36.999146 182.636 L-35.059875 186.13449 L-33.120667 189.63297 L-31.181396 193.13144 L-30.454224 194.44337 L-103.92224 235.16737 L-106.78851 236.18451 L-108.72778 232.68602 L-110.66699 229.18755 L-112.60626 225.68907 L-114.54547 222.19058 L-116.48474 218.69211 L-118.42395 215.19363 L-120.36316 211.69514 L-122.30243 208.19667 L-124.2417 204.6982 L-126.18091 201.1997 L-128.12012 197.70123 L-130.05939 194.20276 L-131.99866 190.70427 L-133.93787 187.2058 L-135.87708 183.70732 L-137.81635 180.20885 L-139.75555 176.71034 L-141.69482 173.21187 L-143.63403 169.7134 L-145.5733 166.21492 L-147.51251 162.71645 L-147.84991 160.04506 Z "/>
      </g>
      <g style="fill:none;stroke:#B660B7;stroke-width:3.0;">
        <path d="M-72.63263 118.351456 L-148.72455 160.52989 L-190.90295 84.43797 L-114.811035 42.259537 L-72.63263 118.351456 "/>
      </g>
      <g style="fill:none;stroke:#B53DB7;stroke-width:3.0;">
        <path d="M-190.02832 83.95314 L-116.5603 43.229156 L-114.08386 43.571457 L-112.14459 47.06993 L-110.20538 50.568436 L-108.26611 54.06691 L-106.326904 57.565384 L-104.387695 61.063858 L-102.448425 64.56233 L-100.509155 68.06081 L-98.56995 71.55931 L-96.63074 75.057785 L-94.69147 78.55626 L-92.7522 82.05473 L-90.81299 85.55321 L-88.87378 89.05168 L-86.93451 92.550156 L-84.99524 96.04866 L-83.05603 99.547134 L-81.11682 103.04561 L-79.17755 106.54408 L-77.23834 110.04256 L-75.29907 113.54103 L-73.35986 117.039536 L-72.63263 118.351456 L-146.10071 159.07545 L-148.96692 160.09258 L-150.90619 156.5941 L-152.84546 153.09563 L-154.78467 149.59715 L-156.72388 146.09868 L-158.66315 142.60017 L-160.60242 139.1017 L-162.54163 135.60323 L-164.48083 132.10475 L-166.4201 128.60628 L-168.35938 125.1078 L-170.29858 121.6093 L-172.2378 118.110825 L-174.17706 114.61235 L-176.11627 111.11388 L-178.05554 107.6154 L-179.99475 104.11693 L-181.93402 100.61842 L-183.87323 97.11995 L-185.8125 93.621475 L-187.75171 90.123 L-189.69098 86.62453 L-190.02832 83.95314 Z "/>
      </g>
      <g style="fill:none;stroke:#B78C08;stroke-width:3.0;">
        <path d="M-114.811035 42.259537 L-190.90295 84.43797 L-233.08142 8.346054 L-156.9895 -33.832382 L-114.811035 42.259537 "/>
      </g>
      <g style="fill:none;stroke:#B508B7;stroke-width:3.0;">
        <path d="M-232.20679 7.8612213 L-158.73871 -32.862762 L-156.26227 -32.520462 L-154.32306 -29.021988 L-152.38379 -25.523514 L-150.44458 -22.02501 L-148.50531 -18.526535 L-146.5661 -15.028061 L-144.62683 -11.529587 L-142.68762 -8.031113 L-140.74835 -4.5326385 L-138.80914 -1.0341339 L-136.86987 2.4643402 L-134.93066 5.9628143 L-132.99146 9.461288 L-131.05219 12.959763 L-129.11292 16.458237 L-127.173706 19.956741 L-125.2345 23.455215 L-123.29523 26.95369 L-121.35596 30.452164 L-119.41675 33.950638 L-117.47754 37.449112 L-115.53827 40.947617 L-114.811035 42.259537 L-188.27911 82.983536 L-191.14539 84.000656 L-193.0846 80.50218 L-195.02386 77.00371 L-196.96313 73.50523 L-198.90234 70.00673 L-200.84155 66.508255 L-202.78082 63.00978 L-204.72003 59.511307 L-206.6593 56.012833 L-208.59851 52.51436 L-210.53778 49.015854 L-212.47699 45.51738 L-214.41626 42.018906 L-216.35547 38.52043 L-218.29474 35.021957 L-220.23395 31.523483 L-222.17322 28.024979 L-224.11243 24.526505 L-226.05164 21.02803 L-227.9909 17.529556 L-229.93018 14.031082 L-231.86938 10.532608 L-232.20679 7.8612213 Z "/>
      </g>
    </g>
  </g>
</svg>
