<?xml version="1.0" encoding="UTF-8"?>
<svg xmlns="http://www.w3.org/2000/svg" height="288px" version="1.1" width="480px">
  <g style="fill:#AB622A;stroke:none;">
    <path d="M0.0 0.0 L480.0 0.0 L480.0 288.0 L0.0 288.0 L0.0 0.0 "/>
    <g style="">
      <g style="fill:#AB4900;stroke:none;">
        <path d="M195.3975 884.99084 L228.63152 786.703 L293.68536 851.75684 L195.3975 884.99084 "/>
      </g>
      <g style="fill:#0066AB;stroke:none;">
        <path d="M295.09955 785.28876 L328.33356 687.001 L393.3874 752.05475 L295.09955 785.28876 "/>
      </g>
      <g style="fill:#AB7A55;stroke:none;">
        <path d="M394.8016 685.58673 L428.0356 587.2989 L493.08945 652.35266 L394.8016 685.58673 "/>
      </g>
      <g style="fill:#AB7A55;stroke:none;">
        <path d="M494.50366 585.88464 L527.7377 487.5968 L592.7915 552.65063 L494.50366 585.88464 "/>
      </g>
      <g style="fill:#AB4900;stroke:none;">
        <path d="M594.2057 486.1826 L627.4397 387.89474 L692.4935 452.94855 L594.2057 486.1826 "/>
      </g>
      <g style="fill:#0066AB;stroke:none;">
        <path d="M693.9077 386.48053 L727.1417 288.1927 L792.19556 353.24652 L693.9077 386.48053 "/>
      </g>
      <g style="fill:#AB7A55;stroke:none;">
        <path d="M793.6098 286.77844 L826.8438 188.49063 L891.89764 253.54445 L793.6098 286.77844 "/>
      </g>
      <g style="fill:#AB7A55;stroke:none;">
        <path d="M893.3118 187.0764 L926.54584 88.788574 L991.5997 153.8424 L893.3118 187.0764 "/>
      </g>
      <g style="fill:#AB4900;stroke:none;">
        <path d="M201.53638 741.4467 L108.53638 787.4467 L108.53635 695.4468 L201.53638 741.4467 "/>
      </g>
      <g style="fill:#0066AB;stroke:none;">
        <path d="M301.2383 641.74506 L208.23831 687.7451 L208.23831 595.74506 L301.2383 641.74506 "/>
      </g>
      <g style="fill:#AB7A55;stroke:none;">
        <path d="M400.94055 542.0435 L307.94058 588.0435 L307.94055 496.04355 L400.94055 542.0435 "/>
      </g>
      <g style="fill:#AB7A55;stroke:none;">
        <path d="M500.64267 442.34088 L407.6427 488.34088 L407.64264 396.34088 L500.64267 442.34088 "/>
      </g>
      <g style="fill:#AB4900;stroke:none;">
        <path d="M600.34326 342.6395 L507.34326 388.63953 L507.34326 296.63953 L600.34326 342.6395 "/>
      </g>
      <g style="fill:#0066AB;stroke:none;">
        <path d="M700.0457 242.93765 L607.0457 288.93765 L607.04565 196.93764 L700.0457 242.93765 "/>
      </g>
      <g style="fill:#AB7A55;stroke:none;">
        <path d="M799.7477 143.23508 L706.7477 189.23508 L706.7477 97.23511 L799.7477 143.23508 "/>
      </g>
      <g style="fill:#AB7A55;stroke:none;">
        <path d="M899.45044 43.529663 L806.4505 89.52963 L806.4505 -2.4704285 L899.45044 43.529663 "/>
      </g>
      <g style="fill:#AB4900;stroke:none;">
        <path d="M-4.007904 597.9048 L94.27994 631.13873 L29.226135 696.1926 L-4.007904 597.9048 "/>
      </g>
      <g style="fill:#0066AB;stroke:none;">
        <path d="M95.69513 498.20312 L193.98297 531.43713 L128.92917 596.49097 L95.69513 498.20312 "/>
      </g>
      <g style="fill:#AB7A55;stroke:none;">
        <path d="M195.3968 398.5009 L293.68466 431.73486 L228.63086 496.7887 L195.3968 398.5009 "/>
      </g>
      <g style="fill:#AB7A55;stroke:none;">
        <path d="M295.0989 298.79938 L393.38672 332.0334 L328.33292 397.0872 L295.0989 298.79938 "/>
      </g>
      <g style="fill:#AB4900;stroke:none;">
        <path d="M394.80032 199.09619 L493.08813 232.33018 L428.03433 297.38403 L394.80032 199.09619 "/>
      </g>
      <g style="fill:#0066AB;stroke:none;">
        <path d="M494.50388 99.39676 L592.79175 132.63074 L527.7379 197.68454 L494.50388 99.39676 "/>
      </g>
      <g style="fill:#AB7A55;stroke:none;">
        <path d="M594.205 -0.30786133 L692.49286 32.926147 L627.439 97.97998 L594.205 -0.30786133 "/>
      </g>
      <g style="fill:#AB7A55;stroke:none;">
        <path d="M693.9065 -100.0036 L792.19434 -66.76956 L727.1405 -1.7157288 L693.9065 -100.0036 "/>
      </g>
      <g style="fill:#AB4900;stroke:none;">
        <path d="M-59.867615 604.0438 L-105.86755 511.04388 L-13.867615 511.04385 L-59.867615 604.0438 "/>
      </g>
      <g style="fill:#0066AB;stroke:none;">
        <path d="M39.83435 504.34192 L-6.165619 411.34192 L85.83435 411.3419 L39.83435 504.34192 "/>
      </g>
      <g style="fill:#AB7A55;stroke:none;">
        <path d="M139.53647 404.6398 L93.5365 311.63977 L185.5365 311.63977 L139.53647 404.6398 "/>
      </g>
      <g style="fill:#AB7A55;stroke:none;">
        <path d="M239.23584 304.9383 L193.23587 211.93832 L285.23584 211.93832 L239.23584 304.9383 "/>
      </g>
      <g style="fill:#AB4900;stroke:none;">
        <path d="M338.94022 205.2355 L292.94025 112.235565 L384.94022 112.235535 L338.94022 205.2355 "/>
      </g>
      <g style="fill:#0066AB;stroke:none;">
        <path d="M438.63782 105.533844 L392.63794 12.5338745 L484.63785 12.5338745 L438.63782 105.533844 "/>
      </g>
      <g style="fill:#AB7A55;stroke:none;">
        <path d="M538.3392 5.8310547 L492.33917 -87.168915 L584.3392 -87.168915 L538.3392 5.8310547 "/>
      </g>
      <g style="fill:#AB7A55;stroke:none;">
        <path d="M638.04785 -93.870605 L592.0478 -186.8706 L684.04785 -186.8706 L638.04785 -93.870605 "/>
      </g>
      <g style="fill:#AB4900;stroke:none;">
        <path d="M-115.7301 398.4994 L-148.96408 496.78723 L-214.01794 431.73343 L-115.7301 398.4994 "/>
      </g>
      <g style="fill:#0066AB;stroke:none;">
        <path d="M-16.026886 298.79852 L-49.260925 397.08636 L-114.31476 332.0326 L-16.026886 298.79852 "/>
      </g>
      <g style="fill:#AB7A55;stroke:none;">
        <path d="M83.674286 199.09508 L50.440308 297.38297 L-14.613525 232.32916 L83.674286 199.09508 "/>
      </g>
      <g style="fill:#AB7A55;stroke:none;">
        <path d="M183.37677 99.3996 L150.14275 197.68741 L85.08893 132.6336 L183.37677 99.3996 "/>
      </g>
      <g style="fill:#AB4900;stroke:none;">
        <path d="M283.0779 -0.30718994 L249.8439 97.98065 L184.79007 32.92685 L283.0779 -0.30718994 "/>
      </g>
      <g style="fill:#0066AB;stroke:none;">
        <path d="M382.78204 -100.01544 L349.54807 -1.7275696 L284.49423 -66.78137 L382.78204 -100.01544 "/>
      </g>
      <g style="fill:#AB7A55;stroke:none;">
        <path d="M482.48032 -199.72095 L449.2463 -101.433105 L384.19247 -166.48694 L482.48032 -199.72095 "/>
      </g>
      <g style="fill:#AB7A55;stroke:none;">
        <path d="M582.1838 -299.4096 L548.9497 -201.12158 L483.8959 -266.1754 L582.1838 -299.4096 "/>
      </g>
      <g style="fill:#AB4900;stroke:none;">
        <path d="M-321.27374 342.64023 L-228.27374 296.6402 L-228.27374 388.64026 L-321.27374 342.64023 "/>
      </g>
      <g style="fill:#0066AB;stroke:none;">
        <path d="M-221.57098 242.93799 L-128.57098 196.93805 L-128.57104 288.93805 L-221.57098 242.93799 "/>
      </g>
      <g style="fill:#AB7A55;stroke:none;">
        <path d="M-121.86893 143.23544 L-28.868896 97.235535 L-28.868896 189.23553 L-121.86893 143.23544 "/>
      </g>
      <g style="fill:#AB7A55;stroke:none;">
        <path d="M-22.160522 43.535095 L70.83945 -2.4649353 L70.83945 89.535095 L-22.160522 43.535095 "/>
      </g>
      <g style="fill:#AB4900;stroke:none;">
        <path d="M77.53674 -56.166718 L170.53677 -102.16669 L170.53674 -10.166687 L77.53674 -56.166718 "/>
      </g>
      <g style="fill:#0066AB;stroke:none;">
        <path d="M177.22482 -155.87653 L270.22482 -201.87653 L270.2248 -109.876526 L177.22482 -155.87653 "/>
      </g>
      <g style="fill:#AB7A55;stroke:none;">
        <path d="M276.9394 -255.5727 L369.93936 -301.5727 L369.93933 -209.57281 L276.9394 -255.5727 "/>
      </g>
      <g style="fill:#AB7A55;stroke:none;">
        <path d="M376.6366 -355.27625 L469.63663 -401.27618 L469.6366 -309.27625 L376.6366 -355.27625 "/>
      </g>
      <g style="fill:#AB4900;stroke:none;">
        <path d="M-315.13287 286.7751 L-413.42072 253.54108 L-348.36688 188.48726 L-315.13287 286.7751 "/>
      </g>
      <g style="fill:#0066AB;stroke:none;">
        <path d="M-215.4303 187.0716 L-313.71814 153.83759 L-248.6643 88.78375 L-215.4303 187.0716 "/>
      </g>
      <g style="fill:#AB7A55;stroke:none;">
        <path d="M-115.73355 87.3844 L-214.02142 54.15039 L-148.96759 -10.903412 L-115.73355 87.3844 "/>
      </g>
      <g style="fill:#AB7A55;stroke:none;">
        <path d="M-16.034973 -12.313721 L-114.322815 -45.54779 L-49.268982 -110.60162 L-16.034973 -12.313721 "/>
      </g>
      <g style="fill:#AB4900;stroke:none;">
        <path d="M83.65886 -112.00958 L-14.628967 -145.24359 L50.424835 -210.29742 L83.65886 -112.00958 "/>
      </g>
      <g style="fill:#0066AB;stroke:none;">
        <path d="M183.37201 -211.72784 L85.08414 -244.96185 L150.13797 -310.0157 L183.37201 -211.72784 "/>
      </g>
      <g style="fill:#AB7A55;stroke:none;">
        <path d="M283.07175 -311.43378 L184.7839 -344.6678 L249.83774 -409.72162 L283.07175 -311.43378 "/>
      </g>
      <g style="fill:#AB7A55;stroke:none;">
        <path d="M382.78226 -411.1374 L284.49442 -444.3714 L349.54828 -509.42523 L382.78226 -411.1374 "/>
      </g>
      <g style="fill:#AB4900;stroke:none;">
        <path d="M-458.66107 81.24176 L-412.66107 174.2417 L-504.66107 174.24164 L-458.66107 81.24176 "/>
      </g>
      <g style="fill:#0066AB;stroke:none;">
        <path d="M-358.96832 -18.463074 L-312.96832 74.536865 L-404.96832 74.536865 L-358.96832 -18.463074 "/>
      </g>
      <g style="fill:#AB7A55;stroke:none;">
        <path d="M-259.27252 -118.16858 L-213.27246 -25.16858 L-305.2724 -25.168488 L-259.27252 -118.16858 "/>
      </g>
      <g style="fill:#AB7A55;stroke:none;">
        <path d="M-159.56174 -217.86383 L-113.56174 -124.86383 L-205.56177 -124.86377 L-159.56174 -217.86383 "/>
      </g>
      <g style="fill:#AB4900;stroke:none;">
        <path d="M-59.85611 -317.56757 L-13.856049 -224.56744 L-105.85611 -224.56757 L-59.85611 -317.56757 "/>
      </g>
      <g style="fill:#0066AB;stroke:none;">
        <path d="M39.845215 -417.26202 L85.845245 -324.26202 L-6.154785 -324.26202 L39.845215 -417.26202 "/>
      </g>
      <g style="fill:#AB7A55;stroke:none;">
        <path d="M139.52786 -516.97003 L185.5279 -423.97003 L93.527985 -423.97003 L139.52786 -516.97003 "/>
      </g>
      <g style="fill:#AB7A55;stroke:none;">
        <path d="M239.24356 -616.674 L285.24344 -523.6739 L193.24341 -523.674 L239.24356 -616.674 "/>
      </g>
    </g>
  </g>
</svg>
