<?xml version="1.0" encoding="UTF-8"?>
<svg xmlns="http://www.w3.org/2000/svg" height="288px" version="1.1" width="480px">
  <g style="fill:#9CAD7D;stroke:none;">
    <path d="M0.0 0.0 L480.0 0.0 L480.0 288.0 L0.0 288.0 L0.0 0.0 "/>
    <g style="">
      <g style="fill:#0DAD84;stroke:none;">
        <path d="M160.93784 -61.963997 L196.5661 -46.101265 L180.70338 -10.472992 L145.0751 -26.335724 L160.93784 -61.963997 "/>
      </g>
      <g style="fill:#74AD0D;stroke:none;">
        <path d="M162.88348 -18.406929 L146.90219 -25.522251 L145.68521 -27.70604 L147.31216 -31.360222 L148.93912 -35.014404 L150.56606 -38.668587 L152.193 -42.32277 L153.81995 -45.97695 L155.4469 -49.63113 L157.07384 -53.285313 L158.70079 -56.939495 L160.32773 -60.593678 L160.93784 -61.963997 L178.7462 -54.035202 L162.88348 -18.406929 Z "/>
      </g>
      <g style="fill:#7BAD20;stroke:none;">
        <path d="M145.0751 -26.335724 L180.70338 -10.472992 L164.84065 25.155273 L129.21237 9.292549 L145.0751 -26.335724 "/>
      </g>
      <g style="fill:#7BAD20;stroke:none;">
        <path d="M163.92711 24.748543 L131.03946 10.106018 L129.82248 7.922226 L131.44943 4.268051 L133.07639 0.6138687 L134.70332 -3.0403137 L136.33028 -6.694496 L137.95721 -10.348679 L139.58417 -14.002861 L141.21112 -17.657043 L142.83806 -21.311226 L144.465 -24.965405 L145.0751 -26.335724 L177.96274 -11.693207 L180.48932 -10.023285 L165.8331 22.895126 L163.92711 24.748543 Z "/>
      </g>
      <g style="fill:#81AD33;stroke:none;">
        <path d="M129.21237 9.292549 L164.84065 25.155273 L148.97792 60.783554 L113.349655 44.920822 L129.21237 9.292549 "/>
      </g>
      <g style="fill:#81AD33;stroke:none;">
        <path d="M148.06438 60.376816 L115.17674 45.7343 L113.959755 43.550507 L115.5867 39.896324 L117.21365 36.24214 L118.84059 32.58796 L120.467545 28.933777 L122.09449 25.279594 L123.721436 21.625412 L125.34838 17.97123 L126.97533 14.317047 L128.60228 10.662872 L129.21237 9.292549 L162.1 23.935066 L164.63728 25.612045 L163.01035 29.266235 L161.38339 32.92041 L159.75644 36.5746 L158.1295 40.228775 L156.50255 43.882965 L154.87561 47.53714 L153.24866 51.191315 L151.6217 54.845505 L149.99477 58.49968 L148.06438 60.376816 Z "/>
      </g>
      <g style="fill:#88AD45;stroke:none;">
        <path d="M113.349655 44.920822 L148.97792 60.783554 L133.1152 96.41182 L97.48692 80.54909 L113.349655 44.920822 "/>
      </g>
      <g style="fill:#88AD45;stroke:none;">
        <path d="M132.20166 96.00508 L99.31401 81.362564 L98.09703 79.17877 L99.723976 75.5246 L101.35092 71.87041 L102.97787 68.21623 L104.60481 64.56204 L106.231766 60.907867 L107.8587 57.253693 L109.48566 53.599503 L111.112595 49.945312 L112.73955 46.291138 L113.349655 44.920822 L146.23729 59.56334 L148.77455 61.240326 L147.14761 64.8945 L145.52066 68.54869 L143.8937 72.202866 L142.26677 75.857056 L140.63983 79.51123 L139.01288 83.165405 L137.38593 86.819595 L135.75899 90.47377 L134.13203 94.12796 L132.20166 96.00508 Z "/>
      </g>
      <g style="fill:#8FAD58;stroke:none;">
        <path d="M97.48692 80.54909 L133.1152 96.41182 L117.252464 132.0401 L81.62419 116.17737 L97.48692 80.54909 "/>
      </g>
      <g style="fill:#8FAD58;stroke:none;">
        <path d="M116.33892 131.63336 L83.45128 116.990845 L82.2343 114.80705 L83.861244 111.15286 L85.48819 107.49869 L87.115135 103.8445 L88.74209 100.19032 L90.36903 96.53613 L91.99598 92.88196 L93.622925 89.22777 L95.24987 85.57359 L96.876816 81.9194 L97.48692 80.54909 L130.37456 95.191605 L132.91183 96.86859 L131.28488 100.52278 L129.65793 104.176956 L128.03099 107.83115 L126.40404 111.48532 L124.77709 115.13951 L123.15015 118.793686 L121.5232 122.447876 L119.896255 126.10205 L118.26931 129.75623 L116.33892 131.63336 Z "/>
      </g>
      <g style="fill:#95AD6B;stroke:none;">
        <path d="M81.62419 116.17737 L117.252464 132.0401 L101.38974 167.66837 L65.76147 151.80563 L81.62419 116.17737 "/>
      </g>
      <g style="fill:#95AD6B;stroke:none;">
        <path d="M100.4762 167.26163 L67.588554 152.61911 L66.37157 150.43532 L67.99852 146.78114 L69.625465 143.12695 L71.25241 139.47278 L72.87936 135.81859 L74.5063 132.16441 L76.13325 128.51022 L77.76019 124.85605 L79.38714 121.20186 L81.01409 117.54768 L81.62419 116.17737 L114.511826 130.81989 L117.049095 132.49687 L115.42215 136.15105 L113.795204 139.80524 L112.16826 143.45941 L110.54131 147.1136 L108.91437 150.76778 L107.28742 154.42197 L105.66047 158.07614 L104.03352 161.73032 L102.40658 165.3845 L100.4762 167.26163 Z "/>
      </g>
      <g style="fill:#0DAD84;stroke:none;">
        <path d="M65.76147 151.80563 L101.38974 167.66837 L85.52701 203.29663 L49.898735 187.43393 L65.76147 151.80563 "/>
      </g>
      <g style="fill:#74AD0D;stroke:none;">
        <path d="M84.613464 202.88992 L51.725822 188.24738 L50.508842 186.06357 L52.135788 182.4094 L53.762733 178.75522 L55.38968 175.10104 L57.016624 171.44687 L58.64357 167.79268 L60.270523 164.1385 L61.89747 160.48431 L63.524414 156.83014 L65.15136 153.17595 L65.76147 151.80563 L98.6491 166.44815 L101.18637 168.12514 L99.559425 171.77933 L97.93248 175.4335 L96.30553 179.08768 L94.67858 182.74185 L93.051636 186.39603 L91.42469 190.05023 L89.797745 193.7044 L88.1708 197.35858 L86.54385 201.01276 L84.613464 202.88992 Z "/>
      </g>
      <g style="fill:#7BAD20;stroke:none;">
        <path d="M49.898735 187.43393 L85.52701 203.29663 L69.664276 238.9249 L34.036003 223.06216 L49.898735 187.43393 "/>
      </g>
      <g style="fill:#7BAD20;stroke:none;">
        <path d="M68.75073 238.51816 L35.86309 223.87564 L34.64611 221.69186 L36.273056 218.03769 L37.9 214.38351 L39.526955 210.72934 L41.1539 207.07516 L42.780846 203.42096 L44.40779 199.76675 L46.034737 196.11258 L47.661682 192.4584 L49.288628 188.80423 L49.898735 187.43393 L82.78637 202.07645 L85.32364 203.75342 L83.69669 207.4076 L82.06975 211.06177 L80.4428 214.71594 L78.81586 218.37012 L77.1889 222.02429 L75.56196 225.6785 L73.93501 229.33267 L72.30807 232.98685 L70.68112 236.64102 L68.75073 238.51816 Z "/>
      </g>
      <g style="fill:#81AD33;stroke:none;">
        <path d="M196.5661 -46.101265 L232.19438 -30.23854 L216.33165 5.3897324 L180.70338 -10.472992 L196.5661 -46.101265 "/>
      </g>
      <g style="fill:#81AD33;stroke:none;">
        <path d="M215.4181 4.982994 L182.53047 -9.659523 L181.31349 -11.843315 L182.94043 -15.497498 L184.56738 -19.151672 L186.19434 -22.805859 L187.82127 -26.460041 L189.44821 -30.11422 L191.07516 -33.768402 L192.70212 -37.422585 L194.32907 -41.076767 L195.95601 -44.73095 L196.5661 -46.101265 L229.45375 -31.458748 L231.99101 -29.781765 L230.36406 -26.127583 L228.73712 -22.473404 L227.11017 -18.819221 L225.48322 -15.165039 L223.85628 -11.510857 L222.22932 -7.856674 L220.60239 -4.2024918 L218.97543 -0.5483093 L217.3485 3.1058655 L215.4181 4.982994 Z "/>
      </g>
      <g style="fill:#88AD45;stroke:none;">
        <path d="M180.70338 -10.472992 L216.33165 5.3897324 L200.46892 41.018005 L164.84065 25.155273 L180.70338 -10.472992 "/>
      </g>
      <g style="fill:#88AD45;stroke:none;">
        <path d="M199.55537 40.611267 L166.66774 25.96875 L165.45076 23.784958 L167.0777 20.130775 L168.70465 16.476593 L170.3316 12.822418 L171.95854 9.168228 L173.5855 5.5140533 L175.21243 1.8598633 L176.83939 -1.7943115 L178.46634 -5.448494 L180.09328 -9.102676 L180.70338 -10.472992 L213.59102 4.169525 L216.12828 5.846504 L214.50133 9.500687 L212.87439 13.154869 L211.24744 16.809052 L209.6205 20.463234 L207.99355 24.117416 L206.36661 27.771591 L204.73965 31.425781 L203.1127 35.079956 L201.48576 38.734146 L199.55537 40.611267 Z "/>
      </g>
      <g style="fill:#8FAD58;stroke:none;">
        <path d="M164.84065 25.155273 L200.46892 41.018005 L184.60619 76.64627 L148.97792 60.783554 L164.84065 25.155273 "/>
      </g>
      <g style="fill:#8FAD58;stroke:none;">
        <path d="M183.69264 76.23953 L150.80501 61.597015 L149.58803 59.413223 L151.21498 55.75905 L152.84192 52.104874 L154.46887 48.450684 L156.09583 44.79651 L157.72276 41.14232 L159.3497 37.488144 L160.97665 33.833954 L162.6036 30.17978 L164.23055 26.525597 L164.84065 25.155273 L197.72829 39.7978 L200.26555 41.474777 L198.63861 45.128967 L197.01166 48.783142 L195.3847 52.437317 L193.75777 56.091507 L192.13081 59.745697 L190.50388 63.39987 L188.87692 67.05405 L187.24997 70.70822 L185.62303 74.36241 L183.69264 76.23953 Z "/>
      </g>
      <g style="fill:#95AD6B;stroke:none;">
        <path d="M148.97792 60.783554 L184.60619 76.64627 L168.74347 112.274536 L133.1152 96.41182 L148.97792 60.783554 "/>
      </g>
      <g style="fill:#95AD6B;stroke:none;">
        <path d="M167.82993 111.8678 L134.94229 97.22528 L133.7253 95.041504 L135.35225 91.387314 L136.97919 87.73314 L138.60614 84.078964 L140.2331 80.424774 L141.86003 76.7706 L143.48698 73.11641 L145.11392 69.462234 L146.74088 65.808044 L148.36783 62.15387 L148.97792 60.783554 L181.86555 75.42607 L184.40282 77.10306 L182.77588 80.75723 L181.14893 84.41141 L179.52197 88.0656 L177.89503 91.71979 L176.2681 95.37396 L174.64114 99.02814 L173.01419 102.68231 L171.38725 106.3365 L169.7603 109.99069 L167.82993 111.8678 Z "/>
      </g>
      <g style="fill:#0DAD84;stroke:none;">
        <path d="M133.1152 96.41182 L168.74347 112.274536 L152.88074 147.90283 L117.252464 132.0401 L133.1152 96.41182 "/>
      </g>
      <g style="fill:#74AD0D;stroke:none;">
        <path d="M151.9672 147.4961 L119.07955 132.85358 L117.86257 130.66978 L119.48952 127.015594 L121.11646 123.36142 L122.74341 119.70723 L124.37036 116.053055 L125.99731 112.398865 L127.62425 108.74469 L129.25119 105.0905 L130.87814 101.436325 L132.5051 97.782135 L133.1152 96.41182 L166.00284 111.05434 L168.5401 112.73132 L166.91315 116.3855 L165.2862 120.03967 L163.65926 123.69388 L162.0323 127.34805 L160.40536 131.00223 L158.77841 134.6564 L157.15146 138.31061 L155.52452 141.96478 L153.89758 145.61896 L151.9672 147.4961 Z "/>
      </g>
      <g style="fill:#7BAD20;stroke:none;">
        <path d="M117.252464 132.0401 L152.88074 147.90283 L137.018 183.5311 L101.38974 167.66837 L117.252464 132.0401 "/>
      </g>
      <g style="fill:#7BAD20;stroke:none;">
        <path d="M136.10446 183.12436 L103.21683 168.48184 L101.99984 166.29805 L103.62679 162.64388 L105.25374 158.98969 L106.880684 155.33551 L108.50763 151.68132 L110.134575 148.02715 L111.76152 144.37296 L113.388466 140.71878 L115.01541 137.06459 L116.642365 133.41042 L117.252464 132.0401 L150.1401 146.68262 L152.67737 148.35959 L151.05042 152.01376 L149.42346 155.66797 L147.79652 159.32214 L146.16959 162.97632 L144.54263 166.6305 L142.91568 170.2847 L141.28873 173.93887 L139.66179 177.59305 L138.03485 181.24722 L136.10446 183.12436 Z "/>
      </g>
      <g style="fill:#81AD33;stroke:none;">
        <path d="M101.38974 167.66837 L137.018 183.5311 L121.15527 219.15936 L85.52701 203.29663 L101.38974 167.66837 "/>
      </g>
      <g style="fill:#81AD33;stroke:none;">
        <path d="M120.24173 218.75262 L87.354095 204.1101 L86.137115 201.9263 L87.76406 198.27213 L89.39101 194.61795 L91.01795 190.96378 L92.6449 187.3096 L94.27184 183.6554 L95.898796 180.00122 L97.52574 176.34705 L99.15269 172.69287 L100.77963 169.03868 L101.38974 167.66837 L134.27737 182.31088 L136.81464 183.98785 L135.18768 187.64206 L133.56075 191.29623 L131.93379 194.95041 L130.30685 198.60458 L128.6799 202.25876 L127.052956 205.91296 L125.42601 209.56714 L123.799065 213.22131 L122.17212 216.87549 L120.24173 218.75262 Z "/>
      </g>
      <g style="fill:#88AD45;stroke:none;">
        <path d="M85.52701 203.29663 L121.15527 219.15936 L105.29254 254.78763 L69.664276 238.9249 L85.52701 203.29663 "/>
      </g>
      <g style="fill:#88AD45;stroke:none;">
        <path d="M104.379 254.38089 L71.49136 239.73837 L70.27438 237.55457 L71.90133 233.90039 L73.528275 230.24622 L75.15523 226.59204 L76.78217 222.93787 L78.40912 219.28369 L80.036064 215.62949 L81.66301 211.97531 L83.289955 208.32114 L84.9169 204.66696 L85.52701 203.29663 L118.41464 217.93918 L120.951904 219.61615 L119.32496 223.27032 L117.69801 226.9245 L116.07107 230.57867 L114.44412 234.23285 L112.81717 237.88702 L111.19022 241.54123 L109.56328 245.1954 L107.93633 248.84958 L106.30939 252.50375 L104.379 254.38089 Z "/>
      </g>
      <g style="fill:#8FAD58;stroke:none;">
        <path d="M232.19438 -30.23854 L267.82266 -14.375809 L251.95993 21.252464 L216.33165 5.3897324 L232.19438 -30.23854 "/>
      </g>
      <g style="fill:#8FAD58;stroke:none;">
        <path d="M251.04639 20.845726 L218.15875 6.203209 L216.94176 4.019417 L218.5687 0.36523438 L220.19565 -3.288948 L221.82259 -6.9431305 L223.44954 -10.597313 L225.07649 -14.251495 L226.70343 -17.905678 L228.33038 -21.559856 L229.95732 -25.214039 L231.58427 -28.868221 L232.19438 -30.23854 L265.08203 -15.596024 L267.6193 -13.919037 L265.99234 -10.264854 L264.36542 -6.610672 L262.73846 -2.9564896 L261.1115 0.6976929 L259.48456 4.3518753 L257.8576 8.006058 L256.23065 11.66024 L254.60371 15.314423 L252.97678 18.968597 L251.04639 20.845726 Z "/>
      </g>
      <g style="fill:#95AD6B;stroke:none;">
        <path d="M216.33165 5.3897324 L251.95993 21.252464 L236.0972 56.880737 L200.46892 41.018005 L216.33165 5.3897324 "/>
      </g>
      <g style="fill:#95AD6B;stroke:none;">
        <path d="M235.18365 56.474 L202.29602 41.831482 L201.07903 39.64769 L202.70596 35.9935 L204.33292 32.339325 L205.95987 28.685143 L207.5868 25.03096 L209.21376 21.376778 L210.8407 17.722595 L212.46765 14.06842 L214.0946 10.41423 L215.72154 6.7600555 L216.33165 5.3897324 L249.21928 20.03225 L251.75656 21.709236 L250.12961 25.363419 L248.50267 29.017601 L246.87572 32.671783 L245.24878 36.325966 L243.62183 39.98015 L241.99487 43.634323 L240.36794 47.288513 L238.74098 50.942688 L237.11404 54.596878 L235.18365 56.474 Z "/>
      </g>
      <g style="fill:#0DAD84;stroke:none;">
        <path d="M200.46892 41.018005 L236.0972 56.880737 L220.23447 92.509 L184.60619 76.64627 L200.46892 41.018005 "/>
      </g>
      <g style="fill:#74AD0D;stroke:none;">
        <path d="M219.32092 92.102264 L186.43329 77.45975 L185.2163 75.275955 L186.84325 71.62178 L188.47018 67.96759 L190.09714 64.313416 L191.72409 60.65924 L193.35103 57.00505 L194.97797 53.35086 L196.60492 49.696686 L198.23187 46.04251 L199.85881 42.38832 L200.46892 41.018005 L233.35655 55.660522 L235.89383 57.33751 L234.26689 60.9917 L232.63994 64.645874 L231.01299 68.30005 L229.38605 71.95424 L227.7591 75.60843 L226.13216 79.2626 L224.5052 82.91678 L222.87827 86.57095 L221.25131 90.22514 L219.32092 92.102264 Z "/>
      </g>
      <g style="fill:#7BAD20;stroke:none;">
        <path d="M184.60619 76.64627 L220.23447 92.509 L204.37173 128.13727 L168.74347 112.274536 L184.60619 76.64627 "/>
      </g>
      <g style="fill:#7BAD20;stroke:none;">
        <path d="M203.45819 127.73053 L170.57056 113.08801 L169.35356 110.904236 L170.98051 107.250046 L172.60745 103.595856 L174.2344 99.94168 L175.86136 96.287506 L177.4883 92.63333 L179.11525 88.97914 L180.74219 85.32495 L182.36914 81.67078 L183.9961 78.0166 L184.60619 76.64627 L217.49382 91.28879 L220.0311 92.96579 L218.40416 96.619965 L216.7772 100.27414 L215.15027 103.92833 L213.52332 107.58252 L211.89636 111.236694 L210.26942 114.89087 L208.64247 118.545044 L207.01553 122.199234 L205.38858 125.853424 L203.45819 127.73053 Z "/>
      </g>
      <g style="fill:#81AD33;stroke:none;">
        <path d="M168.74347 112.274536 L204.37173 128.13727 L188.509 163.76556 L152.88074 147.90283 L168.74347 112.274536 "/>
      </g>
      <g style="fill:#81AD33;stroke:none;">
        <path d="M187.59546 163.35883 L154.70782 148.71631 L153.49084 146.5325 L155.11778 142.87833 L156.74472 139.22415 L158.37167 135.56995 L159.99863 131.91577 L161.62558 128.2616 L163.25252 124.60742 L164.87946 120.95322 L166.50641 117.29904 L168.13336 113.64487 L168.74347 112.274536 L201.6311 126.91705 L204.16837 128.59406 L202.54143 132.24823 L200.91449 135.9024 L199.28754 139.55661 L197.66058 143.21078 L196.03363 146.86496 L194.4067 150.51913 L192.77975 154.17334 L191.1528 157.82751 L189.52585 161.48169 L187.59546 163.35883 Z "/>
      </g>
      <g style="fill:#88AD45;stroke:none;">
        <path d="M152.88074 147.90283 L188.509 163.76556 L172.64629 199.39383 L137.018 183.5311 L152.88074 147.90283 "/>
      </g>
      <g style="fill:#88AD45;stroke:none;">
        <path d="M171.73274 198.98709 L138.84511 184.34457 L137.62811 182.16077 L139.25507 178.50659 L140.882 174.85242 L142.50894 171.19824 L144.1359 167.54404 L145.76285 163.88986 L147.38979 160.23569 L149.01672 156.58151 L150.64368 152.9273 L152.27063 149.27313 L152.88074 147.90283 L185.76837 162.54535 L188.30563 164.22232 L186.6787 167.8765 L185.05176 171.5307 L183.4248 175.18488 L181.79785 178.83905 L180.17091 182.49323 L178.54398 186.14743 L176.91702 189.8016 L175.29007 193.45578 L173.66312 197.10995 L171.73274 198.98709 Z "/>
      </g>
      <g style="fill:#8FAD58;stroke:none;">
        <path d="M137.018 183.5311 L172.64629 199.39383 L156.78355 235.0221 L121.15527 219.15936 L137.018 183.5311 "/>
      </g>
      <g style="fill:#8FAD58;stroke:none;">
        <path d="M155.87001 234.61536 L122.982376 219.97284 L121.76538 217.78903 L123.39233 214.13486 L125.01927 210.48068 L126.64622 206.8265 L128.27316 203.17233 L129.90012 199.51813 L131.52707 195.86395 L133.154 192.20978 L134.78094 188.5556 L136.4079 184.9014 L137.018 183.5311 L169.90564 198.17361 L172.44292 199.85059 L170.81598 203.50479 L169.18903 207.15897 L167.56207 210.81314 L165.93512 214.46732 L164.30818 218.12149 L162.68124 221.7757 L161.05429 225.42987 L159.42734 229.08405 L157.8004 232.73822 L155.87001 234.61536 Z "/>
      </g>
      <g style="fill:#95AD6B;stroke:none;">
        <path d="M121.15527 219.15936 L156.78355 235.0221 L140.92082 270.65036 L105.29254 254.78763 L121.15527 219.15936 "/>
      </g>
      <g style="fill:#95AD6B;stroke:none;">
        <path d="M140.00728 270.24362 L107.119644 255.6011 L105.90265 253.4173 L107.529594 249.76312 L109.15654 246.10895 L110.78349 242.45477 L112.41044 238.8006 L114.037384 235.14642 L115.66433 231.49222 L117.291275 227.83804 L118.91822 224.18387 L120.545166 220.5297 L121.15527 219.15936 L154.04291 233.80188 L156.58018 235.47888 L154.95325 239.13306 L153.3263 242.78723 L151.69934 246.4414 L150.0724 250.09558 L148.44545 253.74976 L146.81851 257.40396 L145.19156 261.05814 L143.5646 264.7123 L141.93767 268.3665 L140.00728 270.24362 Z "/>
      </g>
      <g style="fill:#0DAD84;stroke:none;">
        <path d="M267.82266 -14.375809 L303.45093 1.4869156 L287.5882 37.11519 L251.95993 21.252464 L267.82266 -14.375809 "/>
      </g>
      <g style="fill:#74AD0D;stroke:none;">
        <path d="M286.67465 36.708458 L253.78702 22.065933 L252.57004 19.882149 L254.19698 16.227966 L255.82393 12.573784 L257.45087 8.919601 L259.07782 5.265419 L260.70477 1.6112366 L262.33173 -2.0429459 L263.95868 -5.6971283 L265.5856 -9.351303 L267.21255 -13.005486 L267.82266 -14.375809 L300.7103 0.26670837 L303.24756 1.9436874 L301.6206 5.59787 L299.99365 9.252052 L298.3667 12.906235 L296.73975 16.560417 L295.11282 20.2146 L293.48587 23.868782 L291.85895 27.522964 L290.232 31.177147 L288.60504 34.83133 L286.67465 36.708458 Z "/>
      </g>
      <g style="fill:#7BAD20;stroke:none;">
        <path d="M251.95993 21.252464 L287.5882 37.11519 L271.72546 72.74347 L236.0972 56.880737 L251.95993 21.252464 "/>
      </g>
      <g style="fill:#7BAD20;stroke:none;">
        <path d="M270.81192 72.33673 L237.92429 57.694214 L236.7073 55.51042 L238.33426 51.85623 L239.9612 48.202057 L241.58815 44.547882 L243.21509 40.893692 L244.84204 37.23951 L246.46898 33.585327 L248.09593 29.931152 L249.72287 26.276962 L251.34982 22.622787 L251.95993 21.252464 L284.84756 35.89498 L287.38483 37.57196 L285.75787 41.226143 L284.13092 44.880325 L282.50397 48.534515 L280.87704 52.18869 L279.2501 55.842865 L277.62314 59.497055 L275.99622 63.15123 L274.36926 66.80542 L272.7423 70.459595 L270.81192 72.33673 Z "/>
      </g>
      <g style="fill:#81AD33;stroke:none;">
        <path d="M236.0972 56.880737 L271.72546 72.74347 L255.86273 108.371735 L220.23447 92.509 L236.0972 56.880737 "/>
      </g>
      <g style="fill:#81AD33;stroke:none;">
        <path d="M254.94919 107.965 L222.06155 93.32248 L220.84457 91.13869 L222.47153 87.48451 L224.09846 83.83032 L225.72542 80.17615 L227.35236 76.52197 L228.97931 72.86778 L230.60626 69.21359 L232.2332 65.55942 L233.86015 61.905243 L235.48709 58.251053 L236.0972 56.880737 L268.98483 71.523254 L271.5221 73.200226 L269.89514 76.854416 L268.2682 80.508606 L266.64124 84.16278 L265.0143 87.816956 L263.38736 91.471146 L261.76044 95.125336 L260.13348 98.77951 L258.50653 102.433685 L256.87958 106.08786 L254.94919 107.965 Z "/>
      </g>
      <g style="fill:#88AD45;stroke:none;">
        <path d="M220.23447 92.509 L255.86273 108.371735 L240.0 144.0 L204.37173 128.13727 L220.23447 92.509 "/>
      </g>
      <g style="fill:#88AD45;stroke:none;">
        <path d="M239.08646 143.59326 L206.19882 128.95074 L204.98184 126.76697 L206.6088 123.11278 L208.23575 119.45859 L209.86269 115.80441 L211.48962 112.15024 L213.11658 108.49606 L214.74353 104.84187 L216.37047 101.18768 L217.99742 97.53351 L219.62436 93.87933 L220.23447 92.509 L253.1221 107.15152 L255.65936 108.82851 L254.03242 112.4827 L252.40547 116.13687 L250.77853 119.791046 L249.15158 123.44524 L247.52463 127.09941 L245.89769 130.7536 L244.27074 134.40778 L242.6438 138.06195 L241.01685 141.71614 L239.08646 143.59326 Z "/>
      </g>
      <g style="fill:#8FAD58;stroke:none;">
        <path d="M204.37173 128.13727 L240.0 144.0 L224.13727 179.62827 L188.509 163.76556 L204.37173 128.13727 "/>
      </g>
      <g style="fill:#8FAD58;stroke:none;">
        <path d="M223.22372 179.22156 L190.33609 164.57903 L189.11911 162.39523 L190.74606 158.74106 L192.37302 155.08688 L193.99995 151.43268 L195.6269 147.7785 L197.25385 144.12433 L198.8808 140.47015 L200.50775 136.81595 L202.13469 133.16177 L203.76164 129.5076 L204.37173 128.13727 L237.25937 142.77979 L239.79663 144.45677 L238.1697 148.11096 L236.54276 151.76514 L234.9158 155.41933 L233.28885 159.0735 L231.6619 162.72769 L230.03496 166.38187 L228.40802 170.03606 L226.78107 173.69022 L225.15411 177.34439 L223.22372 179.22156 Z "/>
      </g>
      <g style="fill:#95AD6B;stroke:none;">
        <path d="M188.509 163.76556 L224.13727 179.62827 L208.27455 215.25656 L172.64629 199.39383 L188.509 163.76556 "/>
      </g>
      <g style="fill:#95AD6B;stroke:none;">
        <path d="M207.36101 214.84982 L174.47337 200.2073 L173.25638 198.0235 L174.88333 194.36932 L176.51028 190.71515 L178.13724 187.06097 L179.76418 183.40677 L181.39111 179.7526 L183.01807 176.09842 L184.64502 172.44424 L186.27196 168.79004 L187.89891 165.13586 L188.509 163.76556 L221.39664 178.40808 L223.9339 180.08505 L222.30696 183.73923 L220.68002 187.3934 L219.05307 191.04758 L217.42612 194.70178 L215.79918 198.35596 L214.17224 202.01016 L212.54529 205.66434 L210.91833 209.31851 L209.29138 212.97269 L207.36101 214.84982 Z "/>
      </g>
      <g style="fill:#0DAD84;stroke:none;">
        <path d="M172.64629 199.39383 L208.27455 215.25656 L192.41182 250.88483 L156.78355 235.0221 L172.64629 199.39383 "/>
      </g>
      <g style="fill:#74AD0D;stroke:none;">
        <path d="M191.49828 250.47809 L158.61064 235.83557 L157.39366 233.65176 L159.0206 229.99759 L160.64755 226.34341 L162.2745 222.68924 L163.90144 219.03506 L165.52838 215.38086 L167.15533 211.72668 L168.78229 208.07251 L170.40924 204.41833 L172.03618 200.76413 L172.64629 199.39383 L205.53392 214.03635 L208.07118 215.71332 L206.44424 219.36752 L204.81729 223.0217 L203.19034 226.67587 L201.56339 230.33005 L199.93645 233.98422 L198.30951 237.6384 L196.68256 241.29257 L195.0556 244.94678 L193.42867 248.60095 L191.49828 250.47809 Z "/>
      </g>
      <g style="fill:#7BAD20;stroke:none;">
        <path d="M156.78355 235.0221 L192.41182 250.88483 L176.54909 286.5131 L140.92082 270.65036 L156.78355 235.0221 "/>
      </g>
      <g style="fill:#7BAD20;stroke:none;">
        <path d="M175.63554 286.10635 L142.74791 271.46384 L141.53093 269.28003 L143.15787 265.62585 L144.78482 261.97168 L146.41177 258.3175 L148.03873 254.66333 L149.66566 251.00916 L151.2926 247.35495 L152.91956 243.70078 L154.54651 240.0466 L156.17345 236.39243 L156.78355 235.0221 L189.67119 249.66461 L192.20845 251.34158 L190.58151 254.99576 L188.95456 258.64996 L187.3276 262.30414 L185.70067 265.9583 L184.07372 269.6125 L182.44678 273.2667 L180.81982 276.92087 L179.19287 280.57504 L177.56593 284.22922 L175.63554 286.10635 Z "/>
      </g>
      <g style="fill:#81AD33;stroke:none;">
        <path d="M303.45093 1.4869156 L339.0792 17.349648 L323.2165 52.97792 L287.5882 37.11519 L303.45093 1.4869156 "/>
      </g>
      <g style="fill:#81AD33;stroke:none;">
        <path d="M322.30292 52.571182 L289.41528 37.928665 L288.1983 35.744873 L289.82526 32.09069 L291.4522 28.436508 L293.07913 24.782326 L294.7061 21.128143 L296.33304 17.47396 L297.95996 13.819778 L299.5869 10.165596 L301.21387 6.5114136 L302.84082 2.8572388 L303.45093 1.4869156 L336.33856 16.12944 L338.87582 17.80642 L337.2489 21.460602 L335.62195 25.114784 L333.995 28.768967 L332.36804 32.42315 L330.7411 36.07733 L329.11414 39.731514 L327.4872 43.385696 L325.86026 47.03987 L324.23334 50.69406 L322.30292 52.571182 Z "/>
      </g>
      <g style="fill:#88AD45;stroke:none;">
        <path d="M287.5882 37.11519 L323.2165 52.97792 L307.35376 88.6062 L271.72546 72.74347 L287.5882 37.11519 "/>
      </g>
      <g style="fill:#88AD45;stroke:none;">
        <path d="M306.4402 88.19946 L273.55255 73.556946 L272.33557 71.37314 L273.96252 67.71896 L275.58948 64.06479 L277.21643 60.4106 L278.84335 56.75641 L280.4703 53.102234 L282.09723 49.44806 L283.72418 45.79387 L285.35114 42.139687 L286.9781 38.485504 L287.5882 37.11519 L320.47583 51.75772 L323.01312 53.434692 L321.38617 57.088882 L319.75922 60.743057 L318.13226 64.39725 L316.5053 68.05142 L314.87836 71.7056 L313.25143 75.35979 L311.62448 79.01396 L309.99753 82.66815 L308.3706 86.32233 L306.4402 88.19946 Z "/>
      </g>
      <g style="fill:#8FAD58;stroke:none;">
        <path d="M271.72546 72.74347 L307.35376 88.6062 L291.49103 124.23447 L255.86273 108.371735 L271.72546 72.74347 "/>
      </g>
      <g style="fill:#8FAD58;stroke:none;">
        <path d="M290.57745 123.82773 L257.68982 109.18521 L256.47284 107.0014 L258.0998 103.34723 L259.72675 99.693054 L261.3537 96.03888 L262.98062 92.38469 L264.60757 88.7305 L266.23453 85.076324 L267.86145 81.42215 L269.4884 77.76796 L271.11536 74.113785 L271.72546 72.74347 L304.6131 87.38599 L307.1504 89.06296 L305.52344 92.71715 L303.89648 96.37134 L302.26953 100.02551 L300.64258 103.67969 L299.01562 107.33388 L297.3887 110.98807 L295.76175 114.64224 L294.1348 118.29642 L292.50787 121.95059 L290.57745 123.82773 Z "/>
      </g>
      <g style="fill:#95AD6B;stroke:none;">
        <path d="M255.86273 108.371735 L291.49103 124.23447 L275.6283 159.86273 L240.0 144.0 L255.86273 108.371735 "/>
      </g>
      <g style="fill:#95AD6B;stroke:none;">
        <path d="M274.71472 159.456 L241.82709 144.81348 L240.6101 142.62968 L242.23706 138.9755 L243.86401 135.32132 L245.49095 131.66714 L247.11789 128.01297 L248.74484 124.35878 L250.3718 120.70459 L251.99873 117.050415 L253.62569 113.39624 L255.25262 109.74205 L255.86273 108.371735 L288.75037 123.01425 L291.28766 124.69124 L289.6607 128.34543 L288.03375 131.9996 L286.4068 135.65378 L284.77985 139.30797 L283.15292 142.96214 L281.52597 146.61633 L279.89902 150.27051 L278.2721 153.92468 L276.64514 157.57887 L274.71472 159.456 Z "/>
      </g>
      <g style="fill:#0DAD84;stroke:none;">
        <path d="M240.0 144.0 L275.6283 159.86273 L259.76556 195.491 L224.13727 179.62827 L240.0 144.0 "/>
      </g>
      <g style="fill:#74AD0D;stroke:none;">
        <path d="M258.852 195.08426 L225.96436 180.44174 L224.74738 178.25797 L226.37433 174.60379 L228.00128 170.94962 L229.62822 167.29541 L231.25517 163.64124 L232.88211 159.98705 L234.50906 156.33287 L236.13602 152.67868 L237.76295 149.0245 L239.38991 145.37032 L240.0 144.0 L272.88763 158.64252 L275.42493 160.3195 L273.79797 163.9737 L272.17102 167.62787 L270.54407 171.28207 L268.9171 174.93625 L267.2902 178.59042 L265.66324 182.2446 L264.0363 185.89877 L262.40936 189.55295 L260.7824 193.20712 L258.852 195.08426 Z "/>
      </g>
      <g style="fill:#7BAD20;stroke:none;">
        <path d="M224.13727 179.62827 L259.76556 195.491 L243.90283 231.1193 L208.27455 215.25656 L224.13727 179.62827 "/>
      </g>
      <g style="fill:#7BAD20;stroke:none;">
        <path d="M242.98927 230.71255 L210.10164 216.07004 L208.88464 213.88623 L210.5116 210.23206 L212.13855 206.57785 L213.7655 202.92368 L215.39244 199.2695 L217.01938 195.61533 L218.64633 191.96115 L220.27328 188.30698 L221.90022 184.65277 L223.52718 180.9986 L224.13727 179.62827 L257.0249 194.27081 L259.5622 195.94778 L257.93524 199.60196 L256.3083 203.25613 L254.68135 206.91031 L253.05441 210.56451 L251.42746 214.21869 L249.8005 217.8729 L248.17355 221.52707 L246.54662 225.18124 L244.91968 228.83542 L242.98927 230.71255 Z "/>
      </g>
      <g style="fill:#81AD33;stroke:none;">
        <path d="M208.27455 215.25656 L243.90283 231.1193 L228.0401 266.74756 L192.41182 250.88483 L208.27455 215.25656 "/>
      </g>
      <g style="fill:#81AD33;stroke:none;">
        <path d="M227.12654 266.34082 L194.2389 251.6983 L193.02193 249.5145 L194.64886 245.86032 L196.27582 242.20615 L197.90277 238.55197 L199.52971 234.8978 L201.15665 231.24359 L202.7836 227.58942 L204.41055 223.93521 L206.0375 220.28104 L207.66444 216.62686 L208.27455 215.25656 L241.16219 229.89908 L243.69946 231.57605 L242.07251 235.23026 L240.44557 238.88443 L238.81862 242.5386 L237.19168 246.19278 L235.56473 249.84695 L233.93777 253.50113 L232.31084 257.1553 L230.6839 260.8095 L229.05695 264.46368 L227.12654 266.34082 Z "/>
      </g>
      <g style="fill:#88AD45;stroke:none;">
        <path d="M192.41182 250.88483 L228.0401 266.74756 L212.17737 302.37582 L176.54909 286.5131 L192.41182 250.88483 "/>
      </g>
      <g style="fill:#88AD45;stroke:none;">
        <path d="M211.26381 301.9691 L178.37617 287.32657 L177.1592 285.14276 L178.78613 281.4886 L180.41309 277.8344 L182.04004 274.18024 L183.66699 270.52606 L185.29393 266.87186 L186.92087 263.21768 L188.54782 259.5635 L190.17477 255.90933 L191.80171 252.25516 L192.41182 250.88483 L225.29945 265.52734 L227.83673 267.2043 L226.20978 270.8585 L224.58284 274.5127 L222.9559 278.16687 L221.32895 281.82104 L219.702 285.47522 L218.07504 289.12943 L216.4481 292.7836 L214.82117 296.43777 L213.19421 300.09195 L211.26381 301.9691 Z "/>
      </g>
      <g style="fill:#8FAD58;stroke:none;">
        <path d="M339.0792 17.349648 L374.70746 33.21238 L358.84473 68.84065 L323.2165 52.97792 L339.0792 17.349648 "/>
      </g>
      <g style="fill:#8FAD58;stroke:none;">
        <path d="M357.93118 68.433914 L325.04358 53.791397 L323.8266 51.607605 L325.45352 47.953415 L327.08047 44.29924 L328.7074 40.645058 L330.33435 36.990875 L331.9613 33.336693 L333.58826 29.68251 L335.2152 26.028328 L336.84216 22.374146 L338.4691 18.71997 L339.0792 17.349648 L371.96683 31.992165 L374.5041 33.66915 L372.87717 37.323334 L371.2502 40.977516 L369.62326 44.6317 L367.9963 48.28589 L366.36935 51.940063 L364.74243 55.59424 L363.11548 59.24843 L361.48853 62.902603 L359.86157 66.55679 L357.93118 68.433914 Z "/>
      </g>
      <g style="fill:#95AD6B;stroke:none;">
        <path d="M323.2165 52.97792 L358.84473 68.84065 L342.98203 104.46893 L307.35376 88.6062 L323.2165 52.97792 "/>
      </g>
      <g style="fill:#95AD6B;stroke:none;">
        <path d="M342.06848 104.062195 L309.18085 89.41968 L307.96387 87.23587 L309.5908 83.581696 L311.21774 79.92752 L312.8447 76.27333 L314.47162 72.61914 L316.09857 68.964966 L317.72552 65.31079 L319.35248 61.6566 L320.97943 58.002426 L322.60638 54.348236 L323.2165 52.97792 L356.1041 67.62044 L358.64136 69.297424 L357.01443 72.951614 L355.38748 76.60579 L353.76053 80.25998 L352.13358 83.914154 L350.50665 87.56833 L348.8797 91.22252 L347.25275 94.87669 L345.6258 98.53088 L343.99884 102.18506 L342.06848 104.062195 Z "/>
      </g>
      <g style="fill:#0DAD84;stroke:none;">
        <path d="M307.35376 88.6062 L342.98203 104.46893 L327.11926 140.0972 L291.49103 124.23447 L307.35376 88.6062 "/>
      </g>
      <g style="fill:#74AD0D;stroke:none;">
        <path d="M326.20575 139.69046 L293.3181 125.04794 L292.10114 122.864136 L293.7281 119.20996 L295.355 115.555786 L296.98196 111.90161 L298.60892 108.24742 L300.23584 104.59323 L301.8628 100.93906 L303.48975 97.28488 L305.1167 93.63069 L306.74365 89.97652 L307.35376 88.6062 L340.2414 103.24872 L342.77866 104.92569 L341.1517 108.57988 L339.52475 112.23407 L337.8978 115.888245 L336.27084 119.54242 L334.64392 123.19661 L333.01697 126.8508 L331.39 130.50497 L329.76306 134.15915 L328.1361 137.81332 L326.20575 139.69046 Z "/>
      </g>
      <g style="fill:#7BAD20;stroke:none;">
        <path d="M291.49103 124.23447 L327.11926 140.0972 L311.25656 175.72546 L275.6283 159.86273 L291.49103 124.23447 "/>
      </g>
      <g style="fill:#7BAD20;stroke:none;">
        <path d="M310.34302 175.31873 L277.45538 160.67621 L276.2384 158.49242 L277.86536 154.83823 L279.49228 151.18405 L281.11923 147.52988 L282.7462 143.8757 L284.3731 140.22151 L286.00006 136.56732 L287.627 132.91315 L289.25397 129.25897 L290.88092 125.60478 L291.49103 124.23447 L324.37866 138.87698 L326.9159 140.55397 L325.28897 144.20816 L323.66202 147.86234 L322.03506 151.51651 L320.40814 155.1707 L318.7812 158.82487 L317.15424 162.47906 L315.52728 166.13324 L313.90033 169.78741 L312.27338 173.44162 L310.34302 175.31873 Z "/>
      </g>
      <g style="fill:#81AD33;stroke:none;">
        <path d="M275.6283 159.86273 L311.25656 175.72546 L295.39383 211.35373 L259.76556 195.491 L275.6283 159.86273 "/>
      </g>
      <g style="fill:#81AD33;stroke:none;">
        <path d="M294.4803 210.94699 L261.59265 196.30447 L260.37567 194.1207 L262.00262 190.46652 L263.62955 186.81235 L265.2565 183.15814 L266.88345 179.50397 L268.5104 175.84976 L270.13733 172.19559 L271.76428 168.54141 L273.39124 164.88724 L275.0182 161.23305 L275.6283 159.86273 L308.51593 174.50525 L311.0532 176.18222 L309.42624 179.83643 L307.7993 183.4906 L306.17236 187.1448 L304.5454 190.79898 L302.91846 194.45316 L301.2915 198.10733 L299.66455 201.7615 L298.0376 205.41568 L296.41068 209.06985 L294.4803 210.94699 Z "/>
      </g>
      <g style="fill:#88AD45;stroke:none;">
        <path d="M259.76556 195.491 L295.39383 211.35373 L279.5311 246.98203 L243.90283 231.1193 L259.76556 195.491 "/>
      </g>
      <g style="fill:#88AD45;stroke:none;">
        <path d="M278.61755 246.57529 L245.72992 231.93277 L244.51294 229.74896 L246.1399 226.09479 L247.76683 222.44058 L249.39377 218.7864 L251.02072 215.13223 L252.64767 211.47806 L254.27461 207.82388 L255.90155 204.16971 L257.5285 200.5155 L259.15546 196.86133 L259.76556 195.491 L292.6532 210.13351 L295.19046 211.81052 L293.5635 215.46469 L291.93655 219.11887 L290.30963 222.77304 L288.68268 226.42725 L287.05573 230.08142 L285.42877 233.73563 L283.80182 237.3898 L282.17487 241.04398 L280.54794 244.69815 L278.61755 246.57529 Z "/>
      </g>
      <g style="fill:#8FAD58;stroke:none;">
        <path d="M243.90283 231.1193 L279.5311 246.98203 L263.66837 282.6103 L228.0401 266.74756 L243.90283 231.1193 "/>
      </g>
      <g style="fill:#8FAD58;stroke:none;">
        <path d="M262.75482 282.20355 L229.86719 267.56104 L228.6502 265.37723 L230.27716 261.72305 L231.9041 258.06888 L233.53104 254.4147 L235.15799 250.76053 L236.78494 247.10632 L238.4119 243.45215 L240.03883 239.79794 L241.66577 236.14377 L243.29272 232.4896 L243.90283 231.1193 L276.79047 245.76181 L279.32773 247.43878 L277.70078 251.09299 L276.07385 254.74716 L274.4469 258.40134 L272.81995 262.0555 L271.193 265.7097 L269.56604 269.36386 L267.9391 273.01804 L266.31216 276.67224 L264.6852 280.32642 L262.75482 282.20355 Z "/>
      </g>
      <g style="fill:#95AD6B;stroke:none;">
        <path d="M228.0401 266.74756 L263.66837 282.6103 L247.80563 318.23856 L212.17737 302.37582 L228.0401 266.74756 "/>
      </g>
      <g style="fill:#95AD6B;stroke:none;">
        <path d="M246.89209 317.83182 L214.00446 303.1893 L212.78748 301.0055 L214.41443 297.35132 L216.04137 293.69714 L217.66832 290.04297 L219.29526 286.3888 L220.92221 282.7346 L222.54916 279.0804 L224.1761 275.42624 L225.80304 271.77206 L227.43 268.1179 L228.0401 266.74756 L260.92773 281.39008 L263.465 283.06705 L261.83804 286.72122 L260.21112 290.37543 L258.58417 294.0296 L256.9572 297.68378 L255.33026 301.33795 L253.70331 304.99216 L252.07637 308.64633 L250.44943 312.3005 L248.82248 315.95468 L246.89209 317.83182 Z "/>
      </g>
      <g style="fill:#0DAD84;stroke:none;">
        <path d="M374.70746 33.21238 L410.33572 49.07512 L394.473 84.703384 L358.84473 68.84065 L374.70746 33.21238 "/>
      </g>
      <g style="fill:#74AD0D;stroke:none;">
        <path d="M393.55945 84.296646 L360.6718 69.65413 L359.45483 67.47034 L361.0818 63.816147 L362.70874 60.161972 L364.3357 56.507782 L365.96265 52.853607 L367.58957 49.199432 L369.21652 45.545242 L370.84348 41.89106 L372.47043 38.236877 L374.09735 34.582703 L374.70746 33.21238 L407.5951 47.854904 L410.13235 49.53189 L408.50543 53.186066 L406.87848 56.840256 L405.25153 60.49443 L403.62457 64.14862 L401.99762 67.802795 L400.3707 71.45697 L398.74374 75.11116 L397.1168 78.765335 L395.48984 82.419525 L393.55945 84.296646 Z "/>
      </g>
      <g style="fill:#7BAD20;stroke:none;">
        <path d="M358.84473 68.84065 L394.473 84.703384 L378.6103 120.331665 L342.98203 104.46893 L358.84473 68.84065 "/>
      </g>
      <g style="fill:#7BAD20;stroke:none;">
        <path d="M377.69675 119.92493 L344.8091 105.28241 L343.5921 103.0986 L345.21906 99.44443 L346.846 95.79025 L348.47296 92.13606 L350.0999 88.48187 L351.72684 84.8277 L353.3538 81.17352 L354.98074 77.51933 L356.6077 73.86516 L358.23465 70.21097 L358.84473 68.84065 L391.73236 83.48317 L394.26962 85.16016 L392.6427 88.81435 L391.01575 92.46852 L389.3888 96.12271 L387.76184 99.776886 L386.13492 103.43106 L384.50797 107.08525 L382.881 110.739426 L381.25406 114.393616 L379.6271 118.04779 L377.69675 119.92493 Z "/>
      </g>
      <g style="fill:#81AD33;stroke:none;">
        <path d="M342.98203 104.46893 L378.6103 120.331665 L362.74756 155.95993 L327.11926 140.0972 L342.98203 104.46893 "/>
      </g>
      <g style="fill:#81AD33;stroke:none;">
        <path d="M361.834 155.55319 L328.94635 140.91068 L327.72937 138.72687 L329.35632 135.0727 L330.98328 131.41852 L332.61023 127.76434 L334.23718 124.11015 L335.8641 120.45596 L337.49106 116.80179 L339.118 113.14761 L340.74496 109.49342 L342.37192 105.83925 L342.98203 104.46893 L375.86966 119.11145 L378.40692 120.78842 L376.77997 124.44261 L375.153 128.0968 L373.52606 131.75098 L371.8991 135.40515 L370.2722 139.05934 L368.64523 142.71353 L367.01828 146.3677 L365.39133 150.02188 L363.76437 153.67606 L361.834 155.55319 Z "/>
      </g>
      <g style="fill:#88AD45;stroke:none;">
        <path d="M327.11926 140.0972 L362.74756 155.95993 L346.88483 191.5882 L311.25656 175.72546 L327.11926 140.0972 "/>
      </g>
      <g style="fill:#88AD45;stroke:none;">
        <path d="M345.97128 191.18146 L313.08365 176.53894 L311.86664 174.35513 L313.4936 170.70096 L315.12054 167.04678 L316.7475 163.39261 L318.37445 159.73843 L320.0014 156.08424 L321.62836 152.43005 L323.25528 148.77588 L324.88223 145.1217 L326.5092 141.46751 L327.11926 140.0972 L360.00693 154.73972 L362.5442 156.4167 L360.91724 160.07089 L359.29028 163.72507 L357.66333 167.37924 L356.0364 171.03342 L354.40945 174.68759 L352.7825 178.3418 L351.15555 181.99597 L349.5286 185.65015 L347.90167 189.30435 L345.97128 191.18146 Z "/>
      </g>
      <g style="fill:#8FAD58;stroke:none;">
        <path d="M311.25656 175.72546 L346.88483 191.5882 L331.0221 227.21646 L295.39383 211.35373 L311.25656 175.72546 "/>
      </g>
      <g style="fill:#8FAD58;stroke:none;">
        <path d="M330.10855 226.80972 L297.22092 212.1672 L296.00394 209.98343 L297.63086 206.32925 L299.2578 202.67508 L300.88477 199.02087 L302.51172 195.3667 L304.13867 191.7125 L305.76562 188.05832 L307.39255 184.40414 L309.0195 180.74997 L310.64645 177.0958 L311.25656 175.72546 L344.1442 190.36798 L346.68146 192.04495 L345.0545 195.69916 L343.42755 199.35333 L341.8006 203.00754 L340.17368 206.66171 L338.54672 210.31589 L336.91977 213.97006 L335.29282 217.62424 L333.6659 221.27841 L332.03894 224.93259 L330.10855 226.80972 Z "/>
      </g>
      <g style="fill:#95AD6B;stroke:none;">
        <path d="M295.39383 211.35373 L331.0221 227.21646 L315.15936 262.84476 L279.5311 246.98203 L295.39383 211.35373 "/>
      </g>
      <g style="fill:#95AD6B;stroke:none;">
        <path d="M314.24582 262.43802 L281.3582 247.7955 L280.1412 245.6117 L281.76816 241.95752 L283.39508 238.30331 L285.02203 234.64914 L286.649 230.99496 L288.27594 227.34079 L289.9029 223.68661 L291.52982 220.03244 L293.15677 216.37823 L294.78372 212.72406 L295.39383 211.35373 L328.28146 225.99625 L330.81873 227.67325 L329.19177 231.32742 L327.56482 234.9816 L325.93787 238.63577 L324.31094 242.28998 L322.684 245.94415 L321.05704 249.59836 L319.43008 253.25253 L317.80316 256.9067 L316.1762 260.56088 L314.24582 262.43802 Z "/>
      </g>
      <g style="fill:#0DAD84;stroke:none;">
        <path d="M279.5311 246.98203 L315.15936 262.84476 L299.29663 298.47302 L263.66837 282.6103 L279.5311 246.98203 "/>
      </g>
      <g style="fill:#74AD0D;stroke:none;">
        <path d="M298.3831 298.06628 L265.49545 283.42377 L264.27847 281.23996 L265.90543 277.5858 L267.53235 273.9316 L269.1593 270.27744 L270.78625 266.62326 L272.4132 262.96906 L274.04016 259.31488 L275.6671 255.66068 L277.29404 252.0065 L278.921 248.35233 L279.5311 246.98203 L312.41873 261.62454 L314.956 263.3015 L313.32904 266.95572 L311.7021 270.6099 L310.07513 274.26407 L308.4482 277.91824 L306.82126 281.57242 L305.1943 285.2266 L303.56738 288.88077 L301.94043 292.53497 L300.31348 296.18915 L298.3831 298.06628 Z "/>
      </g>
      <g style="fill:#7BAD20;stroke:none;">
        <path d="M263.66837 282.6103 L299.29663 298.47302 L283.4339 334.1013 L247.80563 318.23856 L263.66837 282.6103 "/>
      </g>
      <g style="fill:#7BAD20;stroke:none;">
        <path d="M282.52036 333.69455 L249.63272 319.05203 L248.41574 316.86823 L250.0427 313.21405 L251.66963 309.55988 L253.29659 305.9057 L254.92352 302.25153 L256.55048 298.59732 L258.17743 294.94315 L259.80438 291.28897 L261.4313 287.6348 L263.05826 283.98062 L263.66837 282.6103 L296.556 297.2528 L299.09326 298.92978 L297.4663 302.58395 L295.83936 306.23816 L294.21243 309.89233 L292.58548 313.5465 L290.95853 317.20068 L289.33157 320.8549 L287.70465 324.50906 L286.0777 328.16324 L284.45074 331.8174 L282.52036 333.69455 Z "/>
      </g>
      <g style="fill:#81AD33;stroke:none;">
        <path d="M410.33572 49.07512 L445.964 64.937836 L430.10126 100.5661 L394.473 84.703384 L410.33572 49.07512 "/>
      </g>
      <g style="fill:#81AD33;stroke:none;">
        <path d="M429.1877 100.15938 L396.30008 85.516846 L395.0831 83.33307 L396.71005 79.67888 L398.337 76.024704 L399.96396 72.370514 L401.5909 68.71634 L403.21783 65.062164 L404.8448 61.407974 L406.47174 57.7538 L408.0987 54.09961 L409.72562 50.445435 L410.33572 49.07512 L443.22336 63.717636 L445.76062 65.39461 L444.1337 69.04878 L442.50674 72.70297 L440.8798 76.35715 L439.25284 80.01132 L437.6259 83.66551 L435.99896 87.31969 L434.372 90.97388 L432.74506 94.62805 L431.1181 98.28224 L429.1877 100.15938 Z "/>
      </g>
      <g style="fill:#88AD45;stroke:none;">
        <path d="M394.473 84.703384 L430.10126 100.5661 L414.23856 136.19437 L378.6103 120.331665 L394.473 84.703384 "/>
      </g>
      <g style="fill:#88AD45;stroke:none;">
        <path d="M413.325 135.78766 L380.43738 121.14511 L379.22037 118.961334 L380.84732 115.30716 L382.47427 111.652985 L384.10123 107.998795 L385.72818 104.344604 L387.3551 100.69043 L388.98206 97.036255 L390.609 93.382065 L392.23596 89.72789 L393.8629 86.0737 L394.473 84.703384 L427.36063 99.3459 L429.8979 101.02287 L428.27097 104.67706 L426.644 108.33124 L425.01706 111.98541 L423.3901 115.6396 L421.76318 119.29379 L420.13623 122.94797 L418.50928 126.60214 L416.88232 130.25633 L415.25537 133.9105 L413.325 135.78766 Z "/>
      </g>
      <g style="fill:#8FAD58;stroke:none;">
        <path d="M378.6103 120.331665 L414.23856 136.19437 L398.37582 171.82266 L362.74756 155.95993 L378.6103 120.331665 "/>
      </g>
      <g style="fill:#8FAD58;stroke:none;">
        <path d="M397.46228 171.41592 L364.57465 156.77339 L363.35764 154.5896 L364.9846 150.93542 L366.61154 147.28125 L368.2385 143.62708 L369.86545 139.97289 L371.4924 136.3187 L373.11932 132.66452 L374.74628 129.01035 L376.37323 125.356155 L378.00018 121.70198 L378.6103 120.331665 L411.49792 134.97418 L414.0352 136.65115 L412.40823 140.30533 L410.78128 143.9595 L409.15433 147.6137 L407.52737 151.26788 L405.90045 154.92206 L404.2735 158.57623 L402.64655 162.23041 L401.0196 165.8846 L399.39267 169.53879 L397.46228 171.41592 Z "/>
      </g>
      <g style="fill:#95AD6B;stroke:none;">
        <path d="M362.74756 155.95993 L398.37582 171.82266 L382.5131 207.4509 L346.88483 191.5882 L362.74756 155.95993 "/>
      </g>
      <g style="fill:#95AD6B;stroke:none;">
        <path d="M381.59955 207.04419 L348.7119 192.40164 L347.49493 190.21786 L349.12186 186.56369 L350.7488 182.90952 L352.37576 179.25534 L354.00272 175.60117 L355.62967 171.94699 L357.2566 168.29279 L358.88354 164.63861 L360.5105 160.98444 L362.13745 157.33025 L362.74756 155.95993 L395.6352 170.60245 L398.17245 172.27942 L396.5455 175.9336 L394.91855 179.5878 L393.2916 183.24197 L391.66464 186.89615 L390.03772 190.55032 L388.41077 194.2045 L386.7838 197.85867 L385.15686 201.51288 L383.52994 205.16705 L381.59955 207.04419 Z "/>
      </g>
      <g style="fill:#0DAD84;stroke:none;">
        <path d="M346.88483 191.5882 L382.5131 207.4509 L366.65036 243.0792 L331.0221 227.21646 L346.88483 191.5882 "/>
      </g>
      <g style="fill:#74AD0D;stroke:none;">
        <path d="M365.73682 242.67245 L332.84918 228.02994 L331.6322 225.84616 L333.25916 222.19199 L334.88608 218.53781 L336.51303 214.8836 L338.13998 211.22943 L339.76694 207.57523 L341.3939 203.92105 L343.0208 200.26688 L344.64777 196.6127 L346.27472 192.95853 L346.88483 191.5882 L379.77246 206.23071 L382.30972 207.90768 L380.68277 211.56186 L379.05582 215.21603 L377.42886 218.87024 L375.8019 222.52441 L374.175 226.17862 L372.54803 229.8328 L370.92108 233.48697 L369.29416 237.14114 L367.6672 240.79532 L365.73682 242.67245 Z "/>
      </g>
      <g style="fill:#7BAD20;stroke:none;">
        <path d="M331.0221 227.21646 L366.65036 243.0792 L350.78763 278.70746 L315.15936 262.84476 L331.0221 227.21646 "/>
      </g>
      <g style="fill:#7BAD20;stroke:none;">
        <path d="M349.87408 278.30075 L316.98645 263.6582 L315.76947 261.47443 L317.39642 257.82025 L319.02338 254.16605 L320.6503 250.51187 L322.27725 246.8577 L323.9042 243.20352 L325.53113 239.54935 L327.15808 235.89517 L328.78503 232.24097 L330.412 228.58679 L331.0221 227.21646 L363.90973 241.85898 L366.447 243.53598 L364.82004 247.19016 L363.19308 250.84433 L361.56613 254.4985 L359.9392 258.15268 L358.31226 261.80685 L356.6853 265.46106 L355.05835 269.11523 L353.43143 272.7694 L351.80447 276.4236 L349.87408 278.30075 Z "/>
      </g>
      <g style="fill:#81AD33;stroke:none;">
        <path d="M315.15936 262.84476 L350.78763 278.70746 L334.9249 314.33572 L299.29663 298.47302 L315.15936 262.84476 "/>
      </g>
      <g style="fill:#81AD33;stroke:none;">
        <path d="M334.01135 313.92902 L301.12372 299.28647 L299.90674 297.1027 L301.5337 293.44852 L303.16064 289.79434 L304.78757 286.14017 L306.41452 282.486 L308.04147 278.8318 L309.66843 275.1776 L311.29535 271.5234 L312.9223 267.86923 L314.54926 264.21506 L315.15936 262.84476 L348.047 277.48727 L350.58426 279.1642 L348.9573 282.81842 L347.33035 286.4726 L345.7034 290.1268 L344.07648 293.78098 L342.44952 297.43515 L340.82257 301.08932 L339.19565 304.7435 L337.5687 308.39767 L335.94174 312.05185 L334.01135 313.92902 Z "/>
      </g>
      <g style="fill:#88AD45;stroke:none;">
        <path d="M299.29663 298.47302 L334.9249 314.33572 L319.06216 349.96402 L283.4339 334.1013 L299.29663 298.47302 "/>
      </g>
      <g style="fill:#88AD45;stroke:none;">
        <path d="M318.14862 349.55728 L285.261 334.91476 L284.044 332.73096 L285.67096 329.07678 L287.2979 325.4226 L288.92487 321.76843 L290.5518 318.11426 L292.17874 314.46005 L293.8057 310.80588 L295.43262 307.1517 L297.05957 303.49753 L298.68652 299.84335 L299.29663 298.47302 L332.18427 313.11554 L334.72153 314.7925 L333.09457 318.4467 L331.46765 322.10086 L329.8407 325.75504 L328.21375 329.4092 L326.5868 333.0634 L324.95984 336.71762 L323.3329 340.3718 L321.70596 344.02597 L320.079 347.68015 L318.14862 349.55728 Z "/>
      </g>
    </g>
  </g>
</svg>
