<?xml version="1.0" encoding="UTF-8"?>
<svg xmlns="http://www.w3.org/2000/svg" height="288px" version="1.1" width="480px">
  <g style="fill:#87A662;stroke:none;">
    <path d="M0.0 0.0 L480.0 0.0 L480.0 288.0 L0.0 288.0 L0.0 0.0 "/>
    <g style="">
      <g style="fill:#6272A6;stroke:none;">
        <path d="M-117.0 -247.0 C-98.22232 -247.0 -83.0 -231.77768 -83.0 -213.0 C-83.0 -194.22232 -98.22232 -179.0 -117.0 -179.0 C-135.77768 -179.0 -151.0 -194.22232 -151.0 -213.0 C-151.0 -231.77768 -135.77768 -247.0 -117.0 -247.0 Z "/>
      </g>
      <g style="fill:#77A662;stroke:none;">
        <path d="M-118.42511 -179.02933 L-122.60622 -179.46002 L-126.18476 -180.2551 L-130.02716 -181.58508 L-133.64537 -183.3463 L-137.00836 -185.50769 L-140.08505 -188.03822 L-142.84439 -190.9068 L-145.25531 -194.08237 L-147.28676 -197.53389 L-148.90768 -201.23029 L-150.08702 -205.1405 L-150.73949 -208.77066 L-151.0 -213.0 L-150.79373 -216.76654 L-150.08705 -220.85951 L-148.90771 -224.76973 L-147.28677 -228.46613 L-145.25533 -231.91763 L-142.84439 -235.09322 L-140.08505 -237.96178 L-137.00836 -240.4923 L-133.64539 -242.65369 L-130.02716 -244.4149 L-126.18478 -245.74489 L-122.60623 -246.53996 L-118.42513 -246.97064 L-117.00006 -247.0 L-117.00006 -179.0488 L-118.42511 -179.02933 Z "/>
      </g>
      <g style="fill:#A6627D;stroke:none;">
        <path d="M-117.0 -145.0 C-98.22232 -145.0 -83.0 -129.77768 -83.0 -111.0 C-83.0 -92.22232 -98.22232 -77.0 -117.0 -77.0 C-135.77768 -77.0 -151.0 -92.22232 -151.0 -111.0 C-151.0 -129.77768 -135.77768 -145.0 -117.0 -145.0 Z "/>
      </g>
      <g style="fill:#6282A6;stroke:none;">
        <path d="M-118.42511 -77.02933 L-122.60622 -77.46001 L-126.18476 -78.2551 L-130.02716 -79.58508 L-133.64537 -81.3463 L-137.00836 -83.507706 L-140.08505 -86.03822 L-142.84439 -88.906784 L-145.25531 -92.08235 L-147.28676 -95.533844 L-148.90768 -99.230255 L-150.08702 -103.14049 L-150.73949 -106.770615 L-151.0 -111.0 L-150.79373 -114.766525 L-150.08705 -118.8595 L-148.90771 -122.769714 L-147.28677 -126.46611 L-145.25533 -129.91763 L-142.84439 -133.0932 L-140.08505 -135.96178 L-137.00836 -138.49228 L-133.64539 -140.65369 L-130.02716 -142.41489 L-126.18478 -143.74487 L-122.60623 -144.53995 L-118.42513 -144.97063 L-117.0 -145.0 L-112.77063 -144.73952 L-108.69643 -143.97878 L-105.23027 -142.90771 L-101.53387 -141.28677 L-98.08235 -139.25533 L-94.906784 -136.8444 L-92.03821 -134.08508 L-89.50768 -131.00839 L-87.34628 -127.64539 L-85.58507 -124.02717 L-84.25508 -120.18478 L-83.3874 -116.14928 L-83.01307 -111.951706 L-83.11654 -108.16472 L-83.71398 -104.035355 L-84.64858 -100.51146 L-86.12577 -96.74031 L-88.023834 -93.203735 L-90.31172 -89.93274 L-92.95839 -86.95839 L-95.93275 -84.31174 L-99.20375 -82.023865 L-102.74035 -80.12581 L-106.511475 -78.648636 L-110.48607 -77.62338 L-114.63306 -77.08115 L-118.42511 -77.02933 Z "/>
      </g>
      <g style="fill:#6272A6;stroke:none;">
        <path d="M-117.0 -43.0 C-98.22232 -43.0 -83.0 -27.77768 -83.0 -9.0 C-83.0 9.777679 -98.22232 25.0 -117.0 25.0 C-135.77768 25.0 -151.0 9.777679 -151.0 -9.0 C-151.0 -27.77768 -135.77768 -43.0 -117.0 -43.0 Z "/>
      </g>
      <g style="fill:#77A662;stroke:none;">
        <path d="M-118.42511 24.970673 L-122.60622 24.539948 L-126.18476 23.744873 L-130.02716 22.414856 L-133.64537 20.653625 L-137.00836 18.492249 L-140.08505 15.961731 L-142.84439 13.093109 L-145.25531 9.91748 L-147.28676 6.465973 L-148.90768 2.7695618 L-150.08702 -1.1406708 L-150.73949 -4.7707977 L-151.0 -9.0 L-150.79373 -12.766525 L-150.08705 -16.859497 L-148.90771 -20.76973 L-147.28677 -24.46614 L-145.25533 -27.917633 L-142.84439 -31.0932 L-140.08505 -33.96176 L-137.00836 -36.49228 L-133.64539 -38.65367 L-130.02716 -40.414886 L-126.18478 -41.744858 L-122.60623 -42.539948 L-118.42513 -42.970627 L-117.0 -43.0 L-112.77063 -42.739532 L-108.69643 -41.978775 L-105.23027 -40.9077 L-101.53387 -39.286774 L-98.08235 -37.25531 L-94.906784 -34.84439 L-92.03821 -32.085052 L-89.50768 -29.008362 L-87.34628 -25.645401 L-85.58507 -22.027176 L-84.25508 -18.184753 L-83.3874 -14.149261 L-83.01307 -9.951706 L-83.11654 -6.1647186 L-83.71398 -2.0353546 L-84.64858 1.4885406 L-86.12577 5.2596893 L-88.023834 8.796265 L-90.31172 12.067322 L-92.95839 15.041748 L-95.93275 17.688385 L-99.20375 19.976288 L-102.74035 21.87436 L-106.511475 23.351562 L-110.48607 24.3768 L-114.63306 24.919037 L-118.42511 24.970673 Z "/>
      </g>
      <g style="fill:#A6627D;stroke:none;">
        <path d="M-117.0 59.0 C-98.22232 59.0 -83.0 74.22232 -83.0 93.0 C-83.0 111.77768 -98.22232 127.0 -117.0 127.0 C-135.77768 127.0 -151.0 111.77768 -151.0 93.0 C-151.0 74.22232 -135.77768 59.0 -117.0 59.0 Z "/>
      </g>
      <g style="fill:#6282A6;stroke:none;">
        <path d="M-118.42511 126.97067 L-122.60622 126.53995 L-126.18476 125.74487 L-130.02716 124.414856 L-133.64537 122.653625 L-137.00836 120.49225 L-140.08505 117.96173 L-142.84439 115.09311 L-145.25531 111.91748 L-147.28676 108.46597 L-148.90768 104.76956 L-150.08702 100.859375 L-150.73949 97.22925 L-151.0 93.0 L-150.79373 89.23349 L-150.08705 85.1405 L-148.90771 81.230316 L-147.28677 77.533905 L-145.25533 74.0824 L-142.84439 70.90677 L-140.08505 68.03815 L-137.00836 65.50763 L-133.64539 63.346252 L-130.02716 61.585022 L-126.18478 60.255005 L-122.60623 59.45993 L-118.42513 59.029236 L-117.0 59.0 L-112.77063 59.26053 L-108.69643 60.02127 L-105.23027 61.092346 L-101.53387 62.713287 L-98.08235 64.74475 L-94.906784 67.15567 L-92.03821 69.91504 L-89.50768 72.99179 L-87.34628 76.3548 L-85.58507 79.97299 L-84.25508 83.81537 L-83.3874 87.85089 L-83.01307 92.04843 L-83.11654 95.835236 L-83.71398 99.96463 L-84.64858 103.488525 L-86.12577 107.25964 L-88.023834 110.7962 L-90.31172 114.06726 L-92.95839 117.04169 L-95.93275 119.688324 L-99.20375 121.97623 L-102.74035 123.8743 L-106.511475 125.3515 L-110.48607 126.37674 L-114.63306 126.918976 L-118.42511 126.97067 Z "/>
      </g>
      <g style="fill:#6272A6;stroke:none;">
        <path d="M-117.0 161.0 C-98.22232 161.0 -83.0 176.22232 -83.0 195.0 C-83.0 213.77768 -98.22232 229.0 -117.0 229.0 C-135.77768 229.0 -151.0 213.77768 -151.0 195.0 C-151.0 176.22232 -135.77768 161.0 -117.0 161.0 Z "/>
      </g>
      <g style="fill:#77A662;stroke:none;">
        <path d="M-118.42511 228.97067 L-122.60622 228.53995 L-126.18476 227.74487 L-130.02716 226.41486 L-133.64537 224.65363 L-137.00836 222.49225 L-140.08505 219.96173 L-142.84439 217.09311 L-145.25531 213.91748 L-147.28676 210.46597 L-148.90768 206.76956 L-150.08702 202.85938 L-150.73949 199.22925 L-151.0 195.0 L-150.79373 191.23349 L-150.08705 187.1405 L-148.90771 183.23032 L-147.28677 179.5339 L-145.25533 176.0824 L-142.84439 172.90677 L-140.08505 170.03815 L-137.00836 167.50763 L-133.64539 165.34625 L-130.02716 163.58502 L-126.18478 162.255 L-122.60623 161.45993 L-118.42513 161.02924 L-117.0 161.0 L-112.77063 161.26053 L-108.69643 162.02127 L-105.23027 163.09235 L-101.53387 164.71329 L-98.08235 166.74475 L-94.906784 169.15567 L-92.03821 171.91504 L-89.50768 174.99179 L-87.34628 178.3548 L-85.58507 181.97299 L-84.25508 185.81537 L-83.3874 189.85089 L-83.01307 194.04843 L-83.11654 197.83524 L-83.71398 201.96463 L-84.64858 205.48853 L-86.12577 209.25964 L-88.023834 212.7962 L-90.31172 216.06726 L-92.95839 219.04169 L-95.93275 221.68832 L-99.20375 223.97623 L-102.74035 225.8743 L-106.511475 227.3515 L-110.48607 228.37674 L-114.63306 228.91898 L-118.42511 228.97067 Z "/>
      </g>
      <g style="fill:#A6627D;stroke:none;">
        <path d="M-117.0 263.0 C-98.22232 263.0 -83.0 278.2223 -83.0 297.0 C-83.0 315.7777 -98.22232 331.0 -117.0 331.0 C-135.77768 331.0 -151.0 315.7777 -151.0 297.0 C-151.0 278.2223 -135.77768 263.0 -117.0 263.0 Z "/>
      </g>
      <g style="fill:#6282A6;stroke:none;">
        <path d="M-118.42511 330.9707 L-122.60622 330.54004 L-126.18476 329.74493 L-130.02716 328.41504 L-133.64537 326.6538 L-137.00836 324.4925 L-140.08505 321.96204 L-142.84439 319.09344 L-145.25531 315.91785 L-147.28676 312.46625 L-148.90768 308.76996 L-150.08702 304.85974 L-150.73949 301.2296 L-151.0 297.0 L-150.79373 293.2334 L-150.08705 289.14044 L-148.90771 285.23022 L-147.28677 281.53394 L-145.25533 278.0824 L-142.84439 274.9068 L-140.08505 272.0382 L-137.00836 269.50775 L-133.64539 267.34644 L-130.02716 265.5852 L-126.18478 264.25525 L-122.60623 263.46017 L-118.42513 263.02948 L-117.0 263.0 L-112.77063 263.2605 L-108.69643 264.02124 L-105.23027 265.09235 L-101.53387 266.71326 L-98.08235 268.74463 L-94.906784 271.15552 L-92.03821 273.91486 L-89.50768 276.99152 L-87.34628 280.35455 L-85.58507 283.97278 L-84.25508 287.81512 L-83.3874 291.8506 L-83.01307 296.04828 L-83.11654 299.83533 L-83.71398 303.96472 L-84.64858 307.4886 L-86.12577 311.25964 L-88.023834 314.79626 L-90.31172 318.06726 L-92.95839 321.04156 L-95.93275 323.68823 L-99.20375 325.97607 L-102.74035 327.87408 L-106.511475 329.3512 L-110.48607 330.3764 L-114.63306 330.91858 L-118.42511 330.9707 Z "/>
      </g>
      <g style="fill:#6272A6;stroke:none;">
        <path d="M-117.0 365.0 C-98.22232 365.0 -83.0 380.2223 -83.0 399.0 C-83.0 417.7777 -98.22232 433.0 -117.0 433.0 C-135.77768 433.0 -151.0 417.7777 -151.0 399.0 C-151.0 380.2223 -135.77768 365.0 -117.0 365.0 Z "/>
      </g>
      <g style="fill:#77A662;stroke:none;">
        <path d="M-118.42511 432.9707 L-122.60622 432.54004 L-126.18476 431.74493 L-130.02716 430.41504 L-133.64537 428.6538 L-137.00836 426.4925 L-140.08505 423.96204 L-142.84439 421.09344 L-145.25531 417.91785 L-147.28676 414.46625 L-148.90768 410.76996 L-150.08702 406.85974 L-150.73949 403.2296 L-151.0 399.0 L-150.79373 395.2334 L-150.08705 391.14044 L-148.90771 387.23022 L-147.28677 383.53394 L-145.25533 380.0824 L-142.84439 376.9068 L-140.08505 374.0382 L-137.00836 371.50775 L-133.64539 369.34644 L-130.02716 367.5852 L-126.18478 366.25537 L-122.60623 365.46027 L-118.42513 365.0296 L-117.0 365.0 L-112.77063 365.26044 L-108.69643 366.02118 L-105.23027 367.09222 L-101.53387 368.71313 L-98.08235 370.7445 L-94.906784 373.1554 L-92.03821 375.91473 L-89.50768 378.9914 L-87.34628 382.35443 L-85.58507 385.97266 L-84.25508 389.815 L-83.3874 393.85046 L-83.01307 398.04816 L-83.11654 401.83533 L-83.71398 405.96472 L-84.64858 409.4886 L-86.12577 413.25964 L-88.023834 416.79626 L-90.31172 420.06726 L-92.95839 423.04156 L-95.93275 425.68823 L-99.20375 427.97607 L-102.74035 429.87408 L-106.511475 431.3512 L-110.48607 432.3764 L-114.63306 432.91858 L-118.42511 432.9707 Z "/>
      </g>
      <g style="fill:#A6627D;stroke:none;">
        <path d="M-117.0 467.0 C-98.22232 467.0 -83.0 482.2223 -83.0 501.0 C-83.0 519.7777 -98.22232 535.0 -117.0 535.0 C-135.77768 535.0 -151.0 519.7777 -151.0 501.0 C-151.0 482.2223 -135.77768 467.0 -117.0 467.0 Z "/>
      </g>
      <g style="fill:#6282A6;stroke:none;">
        <path d="M-118.42511 534.9707 L-122.60622 534.54004 L-126.18476 533.74493 L-130.02716 532.41504 L-133.64537 530.6538 L-137.00836 528.4925 L-140.08505 525.96204 L-142.84439 523.09344 L-145.25531 519.91785 L-147.28676 516.46625 L-148.90768 512.76996 L-150.08702 508.85974 L-150.73949 505.2296 L-151.0 501.0 L-150.79373 497.2334 L-150.08705 493.14044 L-148.90771 489.23022 L-147.28677 485.53394 L-145.25533 482.0824 L-142.84439 478.9068 L-140.08505 476.0382 L-137.00836 473.50775 L-133.64539 471.34644 L-130.02716 469.5852 L-126.18478 468.25537 L-122.60623 467.46027 L-118.42513 467.0296 L-117.0 467.0 L-112.77063 467.26044 L-108.69643 468.02118 L-105.23027 469.09222 L-101.53387 470.71313 L-98.08235 472.7445 L-94.906784 475.1554 L-92.03821 477.91473 L-89.50768 480.9914 L-87.34628 484.35443 L-85.58507 487.97266 L-84.25508 491.815 L-83.3874 495.85046 L-83.01307 500.04816 L-83.11654 503.83533 L-83.71398 507.96472 L-84.64858 511.4886 L-86.12577 515.25964 L-88.023834 518.79626 L-90.31172 522.06726 L-92.95839 525.04156 L-95.93275 527.68823 L-99.20375 529.9761 L-102.74035 531.8741 L-106.511475 533.3512 L-110.48607 534.3764 L-114.63306 534.9186 L-118.42511 534.9707 Z "/>
      </g>
      <g style="fill:#6272A6;stroke:none;">
        <path d="M-15.0 -247.0 C3.7776794 -247.0 19.0 -231.77768 19.0 -213.0 C19.0 -194.22232 3.7776794 -179.0 -15.0 -179.0 C-33.77768 -179.0 -49.0 -194.22232 -49.0 -213.0 C-49.0 -231.77768 -33.77768 -247.0 -15.0 -247.0 Z "/>
      </g>
      <g style="fill:#77A662;stroke:none;">
        <path d="M-16.42511 -179.02933 L-20.606201 -179.46002 L-24.184746 -180.2551 L-28.027138 -181.58508 L-31.645363 -183.3463 L-35.008354 -185.50769 L-38.085045 -188.03822 L-40.844376 -190.9068 L-43.255295 -194.08237 L-45.286743 -197.53389 L-46.907677 -201.23029 L-48.087006 -205.1405 L-48.73947 -208.77066 L-49.0 -213.0 L-48.79373 -216.76654 L-48.087036 -220.85951 L-46.907707 -224.76973 L-45.286774 -228.46613 L-43.255325 -231.91763 L-40.844406 -235.09322 L-38.085075 -237.96178 L-35.008385 -240.4923 L-31.645393 -242.65369 L-28.027168 -244.4149 L-24.184776 -245.74489 L-20.606232 -246.53996 L-16.42514 -246.97064 L-15.0 -247.0 L-10.770645 -246.73952 L-6.6964417 -245.97878 L-3.2302704 -244.90771 L0.46614075 -243.28677 L3.917633 -241.25533 L7.0932007 -238.84439 L9.961761 -236.08505 L12.492279 -233.00836 L14.653671 -229.64539 L16.414886 -226.02716 L17.744858 -222.18478 L18.612564 -218.14926 L18.986893 -213.95169 L18.883469 -210.16472 L18.286026 -206.03534 L17.35141 -202.51144 L15.874222 -198.74033 L13.976166 -195.20374 L11.688278 -191.93272 L9.041626 -188.95837 L6.067276 -186.3117 L2.79628 -184.02382 L-0.7402954 -182.12576 L-4.511444 -180.64857 L-8.486038 -179.62335 L-12.633011 -179.08112 L-16.42511 -179.02933 Z "/>
      </g>
      <g style="fill:#A6627D;stroke:none;">
        <path d="M-15.0 -145.0 C3.7776794 -145.0 19.0 -129.77768 19.0 -111.0 C19.0 -92.22232 3.7776794 -77.0 -15.0 -77.0 C-33.77768 -77.0 -49.0 -92.22232 -49.0 -111.0 C-49.0 -129.77768 -33.77768 -145.0 -15.0 -145.0 Z "/>
      </g>
      <g style="fill:#6282A6;stroke:none;">
        <path d="M-16.42511 -77.02933 L-20.606201 -77.46001 L-24.184746 -78.2551 L-28.027138 -79.58508 L-31.645363 -81.3463 L-35.008354 -83.507706 L-38.085045 -86.03822 L-40.844376 -88.906784 L-43.255295 -92.08235 L-45.286743 -95.533844 L-46.907677 -99.230255 L-48.087006 -103.14049 L-48.73947 -106.770615 L-49.0 -111.0 L-48.79373 -114.766525 L-48.087036 -118.8595 L-46.907707 -122.769714 L-45.286774 -126.46611 L-43.255325 -129.91763 L-40.844406 -133.0932 L-38.085075 -135.96178 L-35.008385 -138.49228 L-31.645393 -140.65369 L-28.027168 -142.41489 L-24.184776 -143.74487 L-20.606232 -144.53995 L-16.42514 -144.97063 L-15.0 -145.0 L-10.770645 -144.73952 L-6.6964417 -143.97878 L-3.2302704 -142.90771 L0.46614075 -141.28677 L3.917633 -139.25533 L7.0932007 -136.8444 L9.961761 -134.08508 L12.492279 -131.00839 L14.653671 -127.64539 L16.414886 -124.02717 L17.744858 -120.18478 L18.612564 -116.14928 L18.986893 -111.951706 L18.883469 -108.16472 L18.286026 -104.035355 L17.35141 -100.51146 L15.874222 -96.74031 L13.976166 -93.203735 L11.688278 -89.93274 L9.041626 -86.95839 L6.067276 -84.31174 L2.79628 -82.023865 L-0.7402954 -80.12581 L-4.511444 -78.648636 L-8.486038 -77.62338 L-12.633011 -77.08115 L-16.42511 -77.02933 Z "/>
      </g>
      <g style="fill:#6272A6;stroke:none;">
        <path d="M-15.0 -43.0 C3.7776794 -43.0 19.0 -27.77768 19.0 -9.0 C19.0 9.777679 3.7776794 25.0 -15.0 25.0 C-33.77768 25.0 -49.0 9.777679 -49.0 -9.0 C-49.0 -27.77768 -33.77768 -43.0 -15.0 -43.0 Z "/>
      </g>
      <g style="fill:#77A662;stroke:none;">
        <path d="M-16.42511 24.970673 L-20.606201 24.539948 L-24.184746 23.744873 L-28.027138 22.414856 L-31.645363 20.653625 L-35.008354 18.492249 L-38.085045 15.961731 L-40.844376 13.093109 L-43.255295 9.91748 L-45.286743 6.465973 L-46.907677 2.7695618 L-48.087006 -1.1406708 L-48.73947 -4.7707977 L-49.0 -9.0 L-48.79373 -12.766525 L-48.087036 -16.859497 L-46.907707 -20.76973 L-45.286774 -24.46614 L-43.255325 -27.917633 L-40.844406 -31.0932 L-38.085075 -33.96176 L-35.008385 -36.49228 L-31.645393 -38.65367 L-28.027168 -40.414886 L-24.184776 -41.744858 L-20.606232 -42.539948 L-16.42514 -42.970627 L-15.0 -43.0 L-10.770645 -42.739532 L-6.6964417 -41.978775 L-3.2302704 -40.9077 L0.46614075 -39.286774 L3.917633 -37.25531 L7.0932007 -34.84439 L9.961761 -32.085052 L12.492279 -29.008362 L14.653671 -25.645401 L16.414886 -22.027176 L17.744858 -18.184753 L18.612564 -14.149261 L18.986893 -9.951706 L18.883469 -6.1647186 L18.286026 -2.0353546 L17.35141 1.4885406 L15.874222 5.2596893 L13.976166 8.796265 L11.688278 12.067322 L9.041626 15.041748 L6.067276 17.688385 L2.79628 19.976288 L-0.7402954 21.87436 L-4.511444 23.351562 L-8.486038 24.3768 L-12.633011 24.919037 L-16.42511 24.970673 Z "/>
      </g>
      <g style="fill:#A6627D;stroke:none;">
        <path d="M-15.0 59.0 C3.7776794 59.0 19.0 74.22232 19.0 93.0 C19.0 111.77768 3.7776794 127.0 -15.0 127.0 C-33.77768 127.0 -49.0 111.77768 -49.0 93.0 C-49.0 74.22232 -33.77768 59.0 -15.0 59.0 Z "/>
      </g>
      <g style="fill:#6282A6;stroke:none;">
        <path d="M-16.42511 126.97067 L-20.606201 126.53995 L-24.184746 125.74487 L-28.027138 124.414856 L-31.645363 122.653625 L-35.008354 120.49225 L-38.085045 117.96173 L-40.844376 115.09311 L-43.255295 111.91748 L-45.286743 108.46597 L-46.907677 104.76956 L-48.087006 100.859375 L-48.73947 97.22925 L-49.0 93.0 L-48.79373 89.23349 L-48.087036 85.1405 L-46.907707 81.230316 L-45.286774 77.533905 L-43.255325 74.0824 L-40.844406 70.90677 L-38.085075 68.03815 L-35.008385 65.50763 L-31.645393 63.346252 L-28.027168 61.585022 L-24.184776 60.255005 L-20.606232 59.45993 L-16.42514 59.029236 L-15.0 59.0 L-10.770645 59.26053 L-6.6964417 60.02127 L-3.2302704 61.092346 L0.46614075 62.713287 L3.917633 64.74475 L7.0932007 67.15567 L9.961761 69.91504 L12.492279 72.99179 L14.653671 76.3548 L16.414886 79.97299 L17.744858 83.81537 L18.612564 87.85089 L18.986893 92.04843 L18.883469 95.835236 L18.286026 99.96463 L17.35141 103.488525 L15.874222 107.25964 L13.976166 110.7962 L11.688278 114.06726 L9.041626 117.04169 L6.067276 119.688324 L2.79628 121.97623 L-0.7402954 123.8743 L-4.511444 125.3515 L-8.486038 126.37674 L-12.633011 126.918976 L-16.42511 126.97067 Z "/>
      </g>
      <g style="fill:#6272A6;stroke:none;">
        <path d="M-15.0 161.0 C3.7776794 161.0 19.0 176.22232 19.0 195.0 C19.0 213.77768 3.7776794 229.0 -15.0 229.0 C-33.77768 229.0 -49.0 213.77768 -49.0 195.0 C-49.0 176.22232 -33.77768 161.0 -15.0 161.0 Z "/>
      </g>
      <g style="fill:#77A662;stroke:none;">
        <path d="M-16.42511 228.97067 L-20.606201 228.53995 L-24.184746 227.74487 L-28.027138 226.41486 L-31.645363 224.65363 L-35.008354 222.49225 L-38.085045 219.96173 L-40.844376 217.09311 L-43.255295 213.91748 L-45.286743 210.46597 L-46.907677 206.76956 L-48.087006 202.85938 L-48.73947 199.22925 L-49.0 195.0 L-48.79373 191.23349 L-48.087036 187.1405 L-46.907707 183.23032 L-45.286774 179.5339 L-43.255325 176.0824 L-40.844406 172.90677 L-38.085075 170.03815 L-35.008385 167.50763 L-31.645393 165.34625 L-28.027168 163.58502 L-24.184776 162.255 L-20.606232 161.45993 L-16.42514 161.02924 L-15.0 161.0 L-10.770645 161.26053 L-6.6964417 162.02127 L-3.2302704 163.09235 L0.46614075 164.71329 L3.917633 166.74475 L7.0932007 169.15567 L9.961761 171.91504 L12.492279 174.99179 L14.653671 178.3548 L16.414886 181.97299 L17.744858 185.81537 L18.612564 189.85089 L18.986893 194.04843 L18.883469 197.83524 L18.286026 201.96463 L17.35141 205.48853 L15.874222 209.25964 L13.976166 212.7962 L11.688278 216.06726 L9.041626 219.04169 L6.067276 221.68832 L2.79628 223.97623 L-0.7402954 225.8743 L-4.511444 227.3515 L-8.486038 228.37674 L-12.633011 228.91898 L-16.42511 228.97067 Z "/>
      </g>
      <g style="fill:#A6627D;stroke:none;">
        <path d="M-15.0 263.0 C3.7776794 263.0 19.0 278.2223 19.0 297.0 C19.0 315.7777 3.7776794 331.0 -15.0 331.0 C-33.77768 331.0 -49.0 315.7777 -49.0 297.0 C-49.0 278.2223 -33.77768 263.0 -15.0 263.0 Z "/>
      </g>
      <g style="fill:#6282A6;stroke:none;">
        <path d="M-16.42511 330.9707 L-20.606201 330.54004 L-24.184746 329.74493 L-28.027138 328.41504 L-31.645363 326.6538 L-35.008354 324.4925 L-38.085045 321.96204 L-40.844376 319.09344 L-43.255295 315.91785 L-45.286743 312.46625 L-46.907677 308.76996 L-48.087006 304.85974 L-48.73947 301.2296 L-49.0 297.0 L-48.79373 293.2334 L-48.087036 289.14044 L-46.907707 285.23022 L-45.286774 281.53394 L-43.255325 278.0824 L-40.844406 274.9068 L-38.085075 272.0382 L-35.008385 269.50775 L-31.645393 267.34644 L-28.027168 265.5852 L-24.184776 264.25525 L-20.606232 263.46017 L-16.42514 263.02948 L-15.0 263.0 L-10.770645 263.2605 L-6.6964417 264.02124 L-3.2302704 265.09235 L0.46614075 266.71326 L3.917633 268.74463 L7.0932007 271.15552 L9.961761 273.91486 L12.492279 276.99152 L14.653671 280.35455 L16.414886 283.97278 L17.744858 287.81512 L18.612564 291.8506 L18.986893 296.04828 L18.883469 299.83533 L18.286026 303.96472 L17.35141 307.4886 L15.874222 311.25964 L13.976166 314.79626 L11.688278 318.06726 L9.041626 321.04156 L6.067276 323.68823 L2.79628 325.97607 L-0.7402954 327.87408 L-4.511444 329.3512 L-8.486038 330.3764 L-12.633011 330.91858 L-16.42511 330.9707 Z "/>
      </g>
      <g style="fill:#6272A6;stroke:none;">
        <path d="M-15.0 365.0 C3.7776794 365.0 19.0 380.2223 19.0 399.0 C19.0 417.7777 3.7776794 433.0 -15.0 433.0 C-33.77768 433.0 -49.0 417.7777 -49.0 399.0 C-49.0 380.2223 -33.77768 365.0 -15.0 365.0 Z "/>
      </g>
      <g style="fill:#77A662;stroke:none;">
        <path d="M-16.42511 432.9707 L-20.606201 432.54004 L-24.184746 431.74493 L-28.027138 430.41504 L-31.645363 428.6538 L-35.008354 426.4925 L-38.085045 423.96204 L-40.844376 421.09344 L-43.255295 417.91785 L-45.286743 414.46625 L-46.907677 410.76996 L-48.087006 406.85974 L-48.73947 403.2296 L-49.0 399.0 L-48.79373 395.2334 L-48.087036 391.14044 L-46.907707 387.23022 L-45.286774 383.53394 L-43.255325 380.0824 L-40.844406 376.9068 L-38.085075 374.0382 L-35.008385 371.50775 L-31.645393 369.34644 L-28.027168 367.5852 L-24.184776 366.25537 L-20.606232 365.46027 L-16.42514 365.0296 L-15.0 365.0 L-10.770645 365.26044 L-6.6964417 366.02118 L-3.2302704 367.09222 L0.46614075 368.71313 L3.917633 370.7445 L7.0932007 373.1554 L9.961761 375.91473 L12.492279 378.9914 L14.653671 382.35443 L16.414886 385.97266 L17.744858 389.815 L18.612564 393.85046 L18.986893 398.04816 L18.883469 401.83533 L18.286026 405.96472 L17.35141 409.4886 L15.874222 413.25964 L13.976166 416.79626 L11.688278 420.06726 L9.041626 423.04156 L6.067276 425.68823 L2.79628 427.97607 L-0.7402954 429.87408 L-4.511444 431.3512 L-8.486038 432.3764 L-12.633011 432.91858 L-16.42511 432.9707 Z "/>
      </g>
      <g style="fill:#A6627D;stroke:none;">
        <path d="M-15.0 467.0 C3.7776794 467.0 19.0 482.2223 19.0 501.0 C19.0 519.7777 3.7776794 535.0 -15.0 535.0 C-33.77768 535.0 -49.0 519.7777 -49.0 501.0 C-49.0 482.2223 -33.77768 467.0 -15.0 467.0 Z "/>
      </g>
      <g style="fill:#6282A6;stroke:none;">
        <path d="M-16.42511 534.9707 L-20.606201 534.54004 L-24.184746 533.74493 L-28.027138 532.41504 L-31.645363 530.6538 L-35.008354 528.4925 L-38.085045 525.96204 L-40.844376 523.09344 L-43.255295 519.91785 L-45.286743 516.46625 L-46.907677 512.76996 L-48.087006 508.85974 L-48.73947 505.2296 L-49.0 501.0 L-48.79373 497.2334 L-48.087036 493.14044 L-46.907707 489.23022 L-45.286774 485.53394 L-43.255325 482.0824 L-40.844406 478.9068 L-38.085075 476.0382 L-35.008385 473.50775 L-31.645393 471.34644 L-28.027168 469.5852 L-24.184776 468.25537 L-20.606232 467.46027 L-16.42514 467.0296 L-15.0 467.0 L-10.770645 467.26044 L-6.6964417 468.02118 L-3.2302704 469.09222 L0.46614075 470.71313 L3.917633 472.7445 L7.0932007 475.1554 L9.961761 477.91473 L12.492279 480.9914 L14.653671 484.35443 L16.414886 487.97266 L17.744858 491.815 L18.612564 495.85046 L18.986893 500.04816 L18.883469 503.83533 L18.286026 507.96472 L17.35141 511.4886 L15.874222 515.25964 L13.976166 518.79626 L11.688278 522.06726 L9.041626 525.04156 L6.067276 527.68823 L2.79628 529.9761 L-0.7402954 531.8741 L-4.511444 533.3512 L-8.486038 534.3764 L-12.633011 534.9186 L-16.42511 534.9707 Z "/>
      </g>
      <g style="fill:#6272A6;stroke:none;">
        <path d="M87.0 -247.0 C105.77768 -247.0 121.0 -231.77768 121.0 -213.0 C121.0 -194.22232 105.77768 -179.0 87.0 -179.0 C68.22232 -179.0 53.0 -194.22232 53.0 -213.0 C53.0 -231.77768 68.22232 -247.0 87.0 -247.0 Z "/>
      </g>
      <g style="fill:#77A662;stroke:none;">
        <path d="M85.57489 -179.02933 L81.3938 -179.46002 L77.81526 -180.2551 L73.97284 -181.58508 L70.354614 -183.3463 L66.99165 -185.50769 L63.914963 -188.03822 L61.155624 -190.9068 L58.744705 -194.08237 L56.713257 -197.53389 L55.092346 -201.23029 L53.91301 -205.1405 L53.260513 -208.77066 L53.0 -213.0 L53.206253 -216.76654 L53.912964 -220.85951 L55.0923 -224.76973 L56.713226 -228.46613 L58.74469 -231.91763 L61.15561 -235.09322 L63.914948 -237.96178 L66.99164 -240.4923 L70.3546 -242.65369 L73.972824 -244.4149 L77.81525 -245.74489 L81.39378 -246.53996 L85.57486 -246.97064 L87.0 -247.0 L91.229355 -246.73952 L95.30356 -245.97878 L98.76973 -244.90771 L102.46614 -243.28677 L105.91766 -241.25533 L109.09329 -238.84439 L111.961914 -236.08505 L114.49243 -233.00836 L116.65381 -229.64539 L118.41504 -226.02716 L119.745056 -222.18478 L120.61273 -218.14926 L120.98709 -213.95169 L120.88345 -210.16472 L120.28598 -206.03534 L119.35138 -202.51144 L117.874176 -198.74033 L115.976105 -195.20374 L113.6882 -191.93272 L111.041565 -188.95837 L108.06714 -186.3117 L104.7961 -184.02382 L101.25952 -182.12576 L97.48837 -180.64857 L93.51378 -179.62335 L89.366806 -179.08112 L85.57489 -179.02933 Z "/>
      </g>
      <g style="fill:#A6627D;stroke:none;">
        <path d="M87.0 -145.0 C105.77768 -145.0 121.0 -129.77768 121.0 -111.0 C121.0 -92.22232 105.77768 -77.0 87.0 -77.0 C68.22232 -77.0 53.0 -92.22232 53.0 -111.0 C53.0 -129.77768 68.22232 -145.0 87.0 -145.0 Z "/>
      </g>
      <g style="fill:#6282A6;stroke:none;">
        <path d="M85.57489 -77.02933 L81.3938 -77.46001 L77.81526 -78.2551 L73.97284 -79.58508 L70.354614 -81.3463 L66.99165 -83.507706 L63.914963 -86.03822 L61.155624 -88.906784 L58.744705 -92.08235 L56.713257 -95.533844 L55.092346 -99.230255 L53.91301 -103.14049 L53.260513 -106.770615 L53.0 -111.0 L53.206253 -114.766525 L53.912964 -118.8595 L55.0923 -122.769714 L56.713226 -126.46611 L58.74469 -129.91763 L61.15561 -133.0932 L63.914948 -135.96178 L66.99164 -138.49228 L70.3546 -140.65369 L73.972824 -142.41489 L77.81525 -143.74487 L81.39378 -144.53995 L85.57486 -144.97063 L87.0 -145.0 L91.229355 -144.73952 L95.30356 -143.97878 L98.76973 -142.90771 L102.46614 -141.28677 L105.91766 -139.25533 L109.09329 -136.8444 L111.961914 -134.08508 L114.49243 -131.00839 L116.65381 -127.64539 L118.41504 -124.02717 L119.745056 -120.18478 L120.61273 -116.14928 L120.98709 -111.951706 L120.88345 -108.16472 L120.28598 -104.035355 L119.35138 -100.51146 L117.874176 -96.74031 L115.976105 -93.203735 L113.6882 -89.93274 L111.041565 -86.95839 L108.06714 -84.31174 L104.7961 -82.023865 L101.25952 -80.12581 L97.48837 -78.648636 L93.51378 -77.62338 L89.366806 -77.08115 L85.57489 -77.02933 Z "/>
      </g>
      <g style="fill:#6272A6;stroke:none;">
        <path d="M87.0 -43.0 C105.77768 -43.0 121.0 -27.77768 121.0 -9.0 C121.0 9.777679 105.77768 25.0 87.0 25.0 C68.22232 25.0 53.0 9.777679 53.0 -9.0 C53.0 -27.77768 68.22232 -43.0 87.0 -43.0 Z "/>
      </g>
      <g style="fill:#77A662;stroke:none;">
        <path d="M85.57489 24.970673 L81.3938 24.539948 L77.81526 23.744873 L73.97284 22.414856 L70.354614 20.653625 L66.99165 18.492249 L63.914963 15.961731 L61.155624 13.093109 L58.744705 9.91748 L56.713257 6.465973 L55.092346 2.7695618 L53.91301 -1.1406708 L53.260513 -4.7707977 L53.0 -9.0 L53.206253 -12.766525 L53.912964 -16.859497 L55.0923 -20.76973 L56.713226 -24.46614 L58.74469 -27.917633 L61.15561 -31.0932 L63.914948 -33.96176 L66.99164 -36.49228 L70.3546 -38.65367 L73.972824 -40.414886 L77.81525 -41.744858 L81.39378 -42.539948 L85.57486 -42.970627 L87.0 -43.0 L91.229355 -42.739532 L95.30356 -41.978775 L98.76973 -40.9077 L102.46614 -39.286774 L105.91766 -37.25531 L109.09329 -34.84439 L111.961914 -32.085052 L114.49243 -29.008362 L116.65381 -25.645401 L118.41504 -22.027176 L119.745056 -18.184753 L120.61273 -14.149261 L120.98709 -9.951706 L120.88345 -6.1647186 L120.28598 -2.0353546 L119.35138 1.4885406 L117.874176 5.2596893 L115.976105 8.796265 L113.6882 12.067322 L111.041565 15.041748 L108.06714 17.688385 L104.7961 19.976288 L101.25952 21.87436 L97.48837 23.351562 L93.51378 24.3768 L89.366806 24.919037 L85.57489 24.970673 Z "/>
      </g>
      <g style="fill:#A6627D;stroke:none;">
        <path d="M87.0 59.0 C105.77768 59.0 121.0 74.22232 121.0 93.0 C121.0 111.77768 105.77768 127.0 87.0 127.0 C68.22232 127.0 53.0 111.77768 53.0 93.0 C53.0 74.22232 68.22232 59.0 87.0 59.0 Z "/>
      </g>
      <g style="fill:#6282A6;stroke:none;">
        <path d="M85.57489 126.97067 L81.3938 126.53995 L77.81526 125.74487 L73.97284 124.414856 L70.354614 122.653625 L66.99165 120.49225 L63.914963 117.96173 L61.155624 115.09311 L58.744705 111.91748 L56.713257 108.46597 L55.092346 104.76956 L53.91301 100.859375 L53.260513 97.22925 L53.0 93.0 L53.206253 89.23349 L53.912964 85.1405 L55.0923 81.230316 L56.713226 77.533905 L58.74469 74.0824 L61.15561 70.90677 L63.914948 68.03815 L66.99164 65.50763 L70.3546 63.346252 L73.972824 61.585022 L77.81525 60.255005 L81.39378 59.45993 L85.57486 59.029236 L87.0 59.0 L91.229355 59.26053 L95.30356 60.02127 L98.76973 61.092346 L102.46614 62.713287 L105.91766 64.74475 L109.09329 67.15567 L111.961914 69.91504 L114.49243 72.99179 L116.65381 76.3548 L118.41504 79.97299 L119.745056 83.81537 L120.61273 87.85089 L120.98709 92.04843 L120.88345 95.835236 L120.28598 99.96463 L119.35138 103.488525 L117.874176 107.25964 L115.976105 110.7962 L113.6882 114.06726 L111.041565 117.04169 L108.06714 119.688324 L104.7961 121.97623 L101.25952 123.8743 L97.48837 125.3515 L93.51378 126.37674 L89.366806 126.918976 L85.57489 126.97067 Z "/>
      </g>
      <g style="fill:#6272A6;stroke:none;">
        <path d="M87.0 161.0 C105.77768 161.0 121.0 176.22232 121.0 195.0 C121.0 213.77768 105.77768 229.0 87.0 229.0 C68.22232 229.0 53.0 213.77768 53.0 195.0 C53.0 176.22232 68.22232 161.0 87.0 161.0 Z "/>
      </g>
      <g style="fill:#77A662;stroke:none;">
        <path d="M85.57489 228.97067 L81.3938 228.53995 L77.81526 227.74487 L73.97284 226.41486 L70.354614 224.65363 L66.99165 222.49225 L63.914963 219.96173 L61.155624 217.09311 L58.744705 213.91748 L56.713257 210.46597 L55.092346 206.76956 L53.91301 202.85938 L53.260513 199.22925 L53.0 195.0 L53.206253 191.23349 L53.912964 187.1405 L55.0923 183.23032 L56.713226 179.5339 L58.74469 176.0824 L61.15561 172.90677 L63.914948 170.03815 L66.99164 167.50763 L70.3546 165.34625 L73.972824 163.58502 L77.81525 162.255 L81.39378 161.45993 L85.57486 161.02924 L87.0 161.0 L91.229355 161.26053 L95.30356 162.02127 L98.76973 163.09235 L102.46614 164.71329 L105.91766 166.74475 L109.09329 169.15567 L111.961914 171.91504 L114.49243 174.99179 L116.65381 178.3548 L118.41504 181.97299 L119.745056 185.81537 L120.61273 189.85089 L120.98709 194.04843 L120.88345 197.83524 L120.28598 201.96463 L119.35138 205.48853 L117.874176 209.25964 L115.976105 212.7962 L113.6882 216.06726 L111.041565 219.04169 L108.06714 221.68832 L104.7961 223.97623 L101.25952 225.8743 L97.48837 227.3515 L93.51378 228.37674 L89.366806 228.91898 L85.57489 228.97067 Z "/>
      </g>
      <g style="fill:#A6627D;stroke:none;">
        <path d="M87.0 263.0 C105.77768 263.0 121.0 278.2223 121.0 297.0 C121.0 315.7777 105.77768 331.0 87.0 331.0 C68.22232 331.0 53.0 315.7777 53.0 297.0 C53.0 278.2223 68.22232 263.0 87.0 263.0 Z "/>
      </g>
      <g style="fill:#6282A6;stroke:none;">
        <path d="M85.57489 330.9707 L81.3938 330.54004 L77.81526 329.74493 L73.97284 328.41504 L70.354614 326.6538 L66.99165 324.4925 L63.914963 321.96204 L61.155624 319.09344 L58.744705 315.91785 L56.713257 312.46625 L55.092346 308.76996 L53.91301 304.85974 L53.260513 301.2296 L53.0 297.0 L53.206253 293.2334 L53.912964 289.14044 L55.0923 285.23022 L56.713226 281.53394 L58.74469 278.0824 L61.15561 274.9068 L63.914948 272.0382 L66.99164 269.50775 L70.3546 267.34644 L73.972824 265.5852 L77.81525 264.25525 L81.39378 263.46017 L85.57486 263.02948 L87.0 263.0 L91.229355 263.2605 L95.30356 264.02124 L98.76973 265.09235 L102.46614 266.71326 L105.91766 268.74463 L109.09329 271.15552 L111.961914 273.91486 L114.49243 276.99152 L116.65381 280.35455 L118.41504 283.97278 L119.745056 287.81512 L120.61273 291.8506 L120.98709 296.04828 L120.88345 299.83533 L120.28598 303.96472 L119.35138 307.4886 L117.874176 311.25964 L115.976105 314.79626 L113.6882 318.06726 L111.041565 321.04156 L108.06714 323.68823 L104.7961 325.97607 L101.25952 327.87408 L97.48837 329.3512 L93.51378 330.3764 L89.366806 330.91858 L85.57489 330.9707 Z "/>
      </g>
      <g style="fill:#6272A6;stroke:none;">
        <path d="M87.0 365.0 C105.77768 365.0 121.0 380.2223 121.0 399.0 C121.0 417.7777 105.77768 433.0 87.0 433.0 C68.22232 433.0 53.0 417.7777 53.0 399.0 C53.0 380.2223 68.22232 365.0 87.0 365.0 Z "/>
      </g>
      <g style="fill:#77A662;stroke:none;">
        <path d="M85.57489 432.9707 L81.3938 432.54004 L77.81526 431.74493 L73.97284 430.41504 L70.354614 428.6538 L66.99165 426.4925 L63.914963 423.96204 L61.155624 421.09344 L58.744705 417.91785 L56.713257 414.46625 L55.092346 410.76996 L53.91301 406.85974 L53.260513 403.2296 L53.0 399.0 L53.206253 395.2334 L53.912964 391.14044 L55.0923 387.23022 L56.713226 383.53394 L58.74469 380.0824 L61.15561 376.9068 L63.914948 374.0382 L66.99164 371.50775 L70.3546 369.34644 L73.972824 367.5852 L77.81525 366.25537 L81.39378 365.46027 L85.57486 365.0296 L87.0 365.0 L91.229355 365.26044 L95.30356 366.02118 L98.76973 367.09222 L102.46614 368.71313 L105.91766 370.7445 L109.09329 373.1554 L111.961914 375.91473 L114.49243 378.9914 L116.65381 382.35443 L118.41504 385.97266 L119.745056 389.815 L120.61273 393.85046 L120.98709 398.04816 L120.88345 401.83533 L120.28598 405.96472 L119.35138 409.4886 L117.874176 413.25964 L115.976105 416.79626 L113.6882 420.06726 L111.041565 423.04156 L108.06714 425.68823 L104.7961 427.97607 L101.25952 429.87408 L97.48837 431.3512 L93.51378 432.3764 L89.366806 432.91858 L85.57489 432.9707 Z "/>
      </g>
      <g style="fill:#A6627D;stroke:none;">
        <path d="M87.0 467.0 C105.77768 467.0 121.0 482.2223 121.0 501.0 C121.0 519.7777 105.77768 535.0 87.0 535.0 C68.22232 535.0 53.0 519.7777 53.0 501.0 C53.0 482.2223 68.22232 467.0 87.0 467.0 Z "/>
      </g>
      <g style="fill:#6282A6;stroke:none;">
        <path d="M85.57489 534.9707 L81.3938 534.54004 L77.81526 533.74493 L73.97284 532.41504 L70.354614 530.6538 L66.99165 528.4925 L63.914963 525.96204 L61.155624 523.09344 L58.744705 519.91785 L56.713257 516.46625 L55.092346 512.76996 L53.91301 508.85974 L53.260513 505.2296 L53.0 501.0 L53.206253 497.2334 L53.912964 493.14044 L55.0923 489.23022 L56.713226 485.53394 L58.74469 482.0824 L61.15561 478.9068 L63.914948 476.0382 L66.99164 473.50775 L70.3546 471.34644 L73.972824 469.5852 L77.81525 468.25537 L81.39378 467.46027 L85.57486 467.0296 L87.0 467.0 L91.229355 467.26044 L95.30356 468.02118 L98.76973 469.09222 L102.46614 470.71313 L105.91766 472.7445 L109.09329 475.1554 L111.961914 477.91473 L114.49243 480.9914 L116.65381 484.35443 L118.41504 487.97266 L119.745056 491.815 L120.61273 495.85046 L120.98709 500.04816 L120.88345 503.83533 L120.28598 507.96472 L119.35138 511.4886 L117.874176 515.25964 L115.976105 518.79626 L113.6882 522.06726 L111.041565 525.04156 L108.06714 527.68823 L104.7961 529.9761 L101.25952 531.8741 L97.48837 533.3512 L93.51378 534.3764 L89.366806 534.9186 L85.57489 534.9707 Z "/>
      </g>
      <g style="fill:#6272A6;stroke:none;">
        <path d="M189.0 -247.0 C207.77768 -247.0 223.0 -231.77768 223.0 -213.0 C223.0 -194.22232 207.77768 -179.0 189.0 -179.0 C170.22232 -179.0 155.0 -194.22232 155.0 -213.0 C155.0 -231.77768 170.22232 -247.0 189.0 -247.0 Z "/>
      </g>
      <g style="fill:#77A662;stroke:none;">
        <path d="M187.57492 -179.02933 L183.39383 -179.46002 L179.81525 -180.2551 L175.97287 -181.58508 L172.35468 -183.3463 L168.99167 -185.50769 L165.91492 -188.03822 L163.15555 -190.9068 L160.74463 -194.08237 L158.71317 -197.53389 L157.09222 -201.23029 L155.91287 -205.1405 L155.2604 -208.77066 L155.0 -213.0 L155.2063 -216.76654 L155.913 -220.85951 L157.09235 -224.76973 L158.71329 -228.46613 L160.74475 -231.91763 L163.15567 -235.09322 L165.91504 -237.96178 L168.99179 -240.4923 L172.3548 -242.65369 L175.97299 -244.4149 L179.81537 -245.74489 L183.39392 -246.53996 L187.57501 -246.97064 L189.0 -247.0 L193.22934 -246.73952 L197.30356 -245.97878 L200.76968 -244.90771 L204.4661 -243.28677 L207.9176 -241.25533 L211.09323 -238.84439 L213.96185 -236.08505 L216.49237 -233.00836 L218.65375 -229.64539 L220.41498 -226.02716 L221.745 -222.18478 L222.61267 -218.14926 L222.98703 -213.95169 L222.88345 -210.16472 L222.28598 -206.03534 L221.35138 -202.51144 L219.87418 -198.74033 L217.9761 -195.20374 L215.6882 -191.93272 L213.04156 -188.95837 L210.06714 -186.3117 L206.79608 -184.02382 L203.25952 -182.12576 L199.4884 -180.64857 L195.51382 -179.62335 L191.36682 -179.08112 L187.57492 -179.02933 Z "/>
      </g>
      <g style="fill:#A6627D;stroke:none;">
        <path d="M189.0 -145.0 C207.77768 -145.0 223.0 -129.77768 223.0 -111.0 C223.0 -92.22232 207.77768 -77.0 189.0 -77.0 C170.22232 -77.0 155.0 -92.22232 155.0 -111.0 C155.0 -129.77768 170.22232 -145.0 189.0 -145.0 Z "/>
      </g>
      <g style="fill:#6282A6;stroke:none;">
        <path d="M187.57492 -77.02933 L183.39383 -77.46001 L179.81525 -78.2551 L175.97287 -79.58508 L172.35468 -81.3463 L168.99167 -83.507706 L165.91492 -86.03822 L163.15555 -88.906784 L160.74463 -92.08235 L158.71317 -95.533844 L157.09222 -99.230255 L155.91287 -103.14049 L155.2604 -106.770615 L155.0 -111.0 L155.2063 -114.766525 L155.913 -118.8595 L157.09235 -122.769714 L158.71329 -126.46611 L160.74475 -129.91763 L163.15567 -133.0932 L165.91504 -135.96178 L168.99179 -138.49228 L172.3548 -140.65369 L175.97299 -142.41489 L179.81537 -143.74487 L183.39392 -144.53995 L187.57501 -144.97063 L189.0 -145.0 L193.22934 -144.73952 L197.30356 -143.97878 L200.76968 -142.90771 L204.4661 -141.28677 L207.9176 -139.25533 L211.09323 -136.8444 L213.96185 -134.08508 L216.49237 -131.00839 L218.65375 -127.64539 L220.41498 -124.02717 L221.745 -120.18478 L222.61267 -116.14928 L222.98703 -111.951706 L222.88345 -108.16472 L222.28598 -104.035355 L221.35138 -100.51146 L219.87418 -96.74031 L217.9761 -93.203735 L215.6882 -89.93274 L213.04156 -86.95839 L210.06714 -84.31174 L206.79608 -82.023865 L203.25952 -80.12581 L199.4884 -78.648636 L195.51382 -77.62338 L191.36682 -77.08115 L187.57492 -77.02933 Z "/>
      </g>
      <g style="fill:#6272A6;stroke:none;">
        <path d="M189.0 -43.0 C207.77768 -43.0 223.0 -27.77768 223.0 -9.0 C223.0 9.777679 207.77768 25.0 189.0 25.0 C170.22232 25.0 155.0 9.777679 155.0 -9.0 C155.0 -27.77768 170.22232 -43.0 189.0 -43.0 Z "/>
      </g>
      <g style="fill:#77A662;stroke:none;">
        <path d="M187.57492 24.970673 L183.39383 24.539948 L179.81525 23.744873 L175.97287 22.414856 L172.35468 20.653625 L168.99167 18.492249 L165.91492 15.961731 L163.15555 13.093109 L160.74463 9.91748 L158.71317 6.465973 L157.09222 2.7695618 L155.91287 -1.1406708 L155.2604 -4.7707977 L155.0 -9.0 L155.2063 -12.766525 L155.913 -16.859497 L157.09235 -20.76973 L158.71329 -24.46614 L160.74475 -27.917633 L163.15567 -31.0932 L165.91504 -33.96176 L168.99179 -36.49228 L172.3548 -38.65367 L175.97299 -40.414886 L179.81537 -41.744858 L183.39392 -42.539948 L187.57501 -42.970627 L189.0 -43.0 L193.22934 -42.739532 L197.30356 -41.978775 L200.76968 -40.9077 L204.4661 -39.286774 L207.9176 -37.25531 L211.09323 -34.84439 L213.96185 -32.085052 L216.49237 -29.008362 L218.65375 -25.645401 L220.41498 -22.027176 L221.745 -18.184753 L222.61267 -14.149261 L222.98703 -9.951706 L222.88345 -6.1647186 L222.28598 -2.0353546 L221.35138 1.4885406 L219.87418 5.2596893 L217.9761 8.796265 L215.6882 12.067322 L213.04156 15.041748 L210.06714 17.688385 L206.79608 19.976288 L203.25952 21.87436 L199.4884 23.351562 L195.51382 24.3768 L191.36682 24.919037 L187.57492 24.970673 Z "/>
      </g>
      <g style="fill:#A6627D;stroke:none;">
        <path d="M189.0 59.0 C207.77768 59.0 223.0 74.22232 223.0 93.0 C223.0 111.77768 207.77768 127.0 189.0 127.0 C170.22232 127.0 155.0 111.77768 155.0 93.0 C155.0 74.22232 170.22232 59.0 189.0 59.0 Z "/>
      </g>
      <g style="fill:#6282A6;stroke:none;">
        <path d="M187.57492 126.97067 L183.39383 126.53995 L179.81525 125.74487 L175.97287 124.414856 L172.35468 122.653625 L168.99167 120.49225 L165.91492 117.96173 L163.15555 115.09311 L160.74463 111.91748 L158.71317 108.46597 L157.09222 104.76956 L155.91287 100.859375 L155.2604 97.22925 L155.0 93.0 L155.2063 89.23349 L155.913 85.1405 L157.09235 81.230316 L158.71329 77.533905 L160.74475 74.0824 L163.15567 70.90677 L165.91504 68.03815 L168.99179 65.50763 L172.3548 63.346252 L175.97299 61.585022 L179.81537 60.255005 L183.39392 59.45993 L187.57501 59.029236 L189.0 59.0 L193.22934 59.26053 L197.30356 60.02127 L200.76968 61.092346 L204.4661 62.713287 L207.9176 64.74475 L211.09323 67.15567 L213.96185 69.91504 L216.49237 72.99179 L218.65375 76.3548 L220.41498 79.97299 L221.745 83.81537 L222.61267 87.85089 L222.98703 92.04843 L222.88345 95.835236 L222.28598 99.96463 L221.35138 103.488525 L219.87418 107.25964 L217.9761 110.7962 L215.6882 114.06726 L213.04156 117.04169 L210.06714 119.688324 L206.79608 121.97623 L203.25952 123.8743 L199.4884 125.3515 L195.51382 126.37674 L191.36682 126.918976 L187.57492 126.97067 Z "/>
      </g>
      <g style="fill:#6272A6;stroke:none;">
        <path d="M189.0 161.0 C207.77768 161.0 223.0 176.22232 223.0 195.0 C223.0 213.77768 207.77768 229.0 189.0 229.0 C170.22232 229.0 155.0 213.77768 155.0 195.0 C155.0 176.22232 170.22232 161.0 189.0 161.0 Z "/>
      </g>
      <g style="fill:#77A662;stroke:none;">
        <path d="M187.57492 228.97067 L183.39383 228.53995 L179.81525 227.74487 L175.97287 226.41486 L172.35468 224.65363 L168.99167 222.49225 L165.91492 219.96173 L163.15555 217.09311 L160.74463 213.91748 L158.71317 210.46597 L157.09222 206.76956 L155.91287 202.85938 L155.2604 199.22925 L155.0 195.0 L155.2063 191.23349 L155.913 187.1405 L157.09235 183.23032 L158.71329 179.5339 L160.74475 176.0824 L163.15567 172.90677 L165.91504 170.03815 L168.99179 167.50763 L172.3548 165.34625 L175.97299 163.58502 L179.81537 162.255 L183.39392 161.45993 L187.57501 161.02924 L189.0 161.0 L193.22934 161.26053 L197.30356 162.02127 L200.76968 163.09235 L204.4661 164.71329 L207.9176 166.74475 L211.09323 169.15567 L213.96185 171.91504 L216.49237 174.99179 L218.65375 178.3548 L220.41498 181.97299 L221.745 185.81537 L222.61267 189.85089 L222.98703 194.04843 L222.88345 197.83524 L222.28598 201.96463 L221.35138 205.48853 L219.87418 209.25964 L217.9761 212.7962 L215.6882 216.06726 L213.04156 219.04169 L210.06714 221.68832 L206.79608 223.97623 L203.25952 225.8743 L199.4884 227.3515 L195.51382 228.37674 L191.36682 228.91898 L187.57492 228.97067 Z "/>
      </g>
      <g style="fill:#A6627D;stroke:none;">
        <path d="M189.0 263.0 C207.77768 263.0 223.0 278.2223 223.0 297.0 C223.0 315.7777 207.77768 331.0 189.0 331.0 C170.22232 331.0 155.0 315.7777 155.0 297.0 C155.0 278.2223 170.22232 263.0 189.0 263.0 Z "/>
      </g>
      <g style="fill:#6282A6;stroke:none;">
        <path d="M187.57492 330.9707 L183.39383 330.54004 L179.81525 329.74493 L175.97287 328.41504 L172.35468 326.6538 L168.99167 324.4925 L165.91492 321.96204 L163.15555 319.09344 L160.74463 315.91785 L158.71317 312.46625 L157.09222 308.76996 L155.91287 304.85974 L155.2604 301.2296 L155.0 297.0 L155.2063 293.2334 L155.913 289.14044 L157.09235 285.23022 L158.71329 281.53394 L160.74475 278.0824 L163.15567 274.9068 L165.91504 272.0382 L168.99179 269.50775 L172.3548 267.34644 L175.97299 265.5852 L179.81537 264.25525 L183.39392 263.46017 L187.57501 263.02948 L189.0 263.0 L193.22934 263.2605 L197.30356 264.02124 L200.76968 265.09235 L204.4661 266.71326 L207.9176 268.74463 L211.09323 271.15552 L213.96185 273.91486 L216.49237 276.99152 L218.65375 280.35455 L220.41498 283.97278 L221.745 287.81512 L222.61267 291.8506 L222.98703 296.04828 L222.88345 299.83533 L222.28598 303.96472 L221.35138 307.4886 L219.87418 311.25964 L217.9761 314.79626 L215.6882 318.06726 L213.04156 321.04156 L210.06714 323.68823 L206.79608 325.97607 L203.25952 327.87408 L199.4884 329.3512 L195.51382 330.3764 L191.36682 330.91858 L187.57492 330.9707 Z "/>
      </g>
      <g style="fill:#6272A6;stroke:none;">
        <path d="M189.0 365.0 C207.77768 365.0 223.0 380.2223 223.0 399.0 C223.0 417.7777 207.77768 433.0 189.0 433.0 C170.22232 433.0 155.0 417.7777 155.0 399.0 C155.0 380.2223 170.22232 365.0 189.0 365.0 Z "/>
      </g>
      <g style="fill:#77A662;stroke:none;">
        <path d="M187.57492 432.9707 L183.39383 432.54004 L179.81525 431.74493 L175.97287 430.41504 L172.35468 428.6538 L168.99167 426.4925 L165.91492 423.96204 L163.15555 421.09344 L160.74463 417.91785 L158.71317 414.46625 L157.09222 410.76996 L155.91287 406.85974 L155.2604 403.2296 L155.0 399.0 L155.2063 395.2334 L155.913 391.14044 L157.09235 387.23022 L158.71329 383.53394 L160.74475 380.0824 L163.15567 376.9068 L165.91504 374.0382 L168.99179 371.50775 L172.3548 369.34644 L175.97299 367.5852 L179.81537 366.25537 L183.39392 365.46027 L187.57501 365.0296 L189.0 365.0 L193.22934 365.26044 L197.30356 366.02118 L200.76968 367.09222 L204.4661 368.71313 L207.9176 370.7445 L211.09323 373.1554 L213.96185 375.91473 L216.49237 378.9914 L218.65375 382.35443 L220.41498 385.97266 L221.745 389.815 L222.61267 393.85046 L222.98703 398.04816 L222.88345 401.83533 L222.28598 405.96472 L221.35138 409.4886 L219.87418 413.25964 L217.9761 416.79626 L215.6882 420.06726 L213.04156 423.04156 L210.06714 425.68823 L206.79608 427.97607 L203.25952 429.87408 L199.4884 431.3512 L195.51382 432.3764 L191.36682 432.91858 L187.57492 432.9707 Z "/>
      </g>
      <g style="fill:#A6627D;stroke:none;">
        <path d="M189.0 467.0 C207.77768 467.0 223.0 482.2223 223.0 501.0 C223.0 519.7777 207.77768 535.0 189.0 535.0 C170.22232 535.0 155.0 519.7777 155.0 501.0 C155.0 482.2223 170.22232 467.0 189.0 467.0 Z "/>
      </g>
      <g style="fill:#6282A6;stroke:none;">
        <path d="M187.57492 534.9707 L183.39383 534.54004 L179.81525 533.74493 L175.97287 532.41504 L172.35468 530.6538 L168.99167 528.4925 L165.91492 525.96204 L163.15555 523.09344 L160.74463 519.91785 L158.71317 516.46625 L157.09222 512.76996 L155.91287 508.85974 L155.2604 505.2296 L155.0 501.0 L155.2063 497.2334 L155.913 493.14044 L157.09235 489.23022 L158.71329 485.53394 L160.74475 482.0824 L163.15567 478.9068 L165.91504 476.0382 L168.99179 473.50775 L172.3548 471.34644 L175.97299 469.5852 L179.81537 468.25537 L183.39392 467.46027 L187.57501 467.0296 L189.0 467.0 L193.22934 467.26044 L197.30356 468.02118 L200.76968 469.09222 L204.4661 470.71313 L207.9176 472.7445 L211.09323 475.1554 L213.96185 477.91473 L216.49237 480.9914 L218.65375 484.35443 L220.41498 487.97266 L221.745 491.815 L222.61267 495.85046 L222.98703 500.04816 L222.88345 503.83533 L222.28598 507.96472 L221.35138 511.4886 L219.87418 515.25964 L217.9761 518.79626 L215.6882 522.06726 L213.04156 525.04156 L210.06714 527.68823 L206.79608 529.9761 L203.25952 531.8741 L199.4884 533.3512 L195.51382 534.3764 L191.36682 534.9186 L187.57492 534.9707 Z "/>
      </g>
      <g style="fill:#6272A6;stroke:none;">
        <path d="M291.0 -247.0 C309.77768 -247.0 325.0 -231.77768 325.0 -213.0 C325.0 -194.22232 309.77768 -179.0 291.0 -179.0 C272.22232 -179.0 257.0 -194.22232 257.0 -213.0 C257.0 -231.77768 272.22232 -247.0 291.0 -247.0 Z "/>
      </g>
      <g style="fill:#77A662;stroke:none;">
        <path d="M289.57492 -179.02933 L285.39383 -179.46002 L281.81525 -180.2551 L277.97287 -181.58508 L274.35468 -183.3463 L270.99167 -185.50769 L267.91492 -188.03822 L265.15555 -190.9068 L262.74463 -194.08237 L260.71317 -197.53389 L259.09222 -201.23029 L257.91287 -205.1405 L257.2604 -208.77066 L257.0 -213.0 L257.2063 -216.76654 L257.913 -220.85951 L259.09235 -224.76973 L260.7133 -228.46613 L262.74475 -231.91763 L265.15567 -235.09322 L267.91504 -237.96178 L270.9918 -240.4923 L274.3548 -242.65369 L277.973 -244.4149 L281.81537 -245.74489 L285.39392 -246.53996 L289.575 -246.97064 L291.0 -247.0 L295.22934 -246.73952 L299.30356 -245.97878 L302.76968 -244.90771 L306.4661 -243.28677 L309.9176 -241.25533 L313.09323 -238.84439 L315.96185 -236.08505 L318.49237 -233.00836 L320.65375 -229.64539 L322.41498 -226.02716 L323.745 -222.18478 L324.61267 -218.14926 L324.98703 -213.95169 L324.88345 -210.16472 L324.28598 -206.03534 L323.35138 -202.51144 L321.87418 -198.74033 L319.9761 -195.20374 L317.6882 -191.93272 L315.04156 -188.95837 L312.06714 -186.3117 L308.79608 -184.02382 L305.25952 -182.12576 L301.4884 -180.64857 L297.51382 -179.62335 L293.36682 -179.08112 L289.57492 -179.02933 Z "/>
      </g>
      <g style="fill:#A6627D;stroke:none;">
        <path d="M291.0 -145.0 C309.77768 -145.0 325.0 -129.77768 325.0 -111.0 C325.0 -92.22232 309.77768 -77.0 291.0 -77.0 C272.22232 -77.0 257.0 -92.22232 257.0 -111.0 C257.0 -129.77768 272.22232 -145.0 291.0 -145.0 Z "/>
      </g>
      <g style="fill:#6282A6;stroke:none;">
        <path d="M289.57492 -77.02933 L285.39383 -77.46001 L281.81525 -78.2551 L277.97287 -79.58508 L274.35468 -81.3463 L270.99167 -83.507706 L267.91492 -86.03822 L265.15555 -88.906784 L262.74463 -92.08235 L260.71317 -95.533844 L259.09222 -99.230255 L257.91287 -103.14049 L257.2604 -106.770615 L257.0 -111.0 L257.2063 -114.766525 L257.913 -118.8595 L259.09235 -122.769714 L260.7133 -126.46611 L262.74475 -129.91763 L265.15567 -133.0932 L267.91504 -135.96178 L270.9918 -138.49228 L274.3548 -140.65369 L277.973 -142.41489 L281.81537 -143.74487 L285.39392 -144.53995 L289.575 -144.97063 L291.0 -145.0 L295.22934 -144.73952 L299.30356 -143.97878 L302.76968 -142.90771 L306.4661 -141.28677 L309.9176 -139.25533 L313.09323 -136.8444 L315.96185 -134.08508 L318.49237 -131.00839 L320.65375 -127.64539 L322.41498 -124.02717 L323.745 -120.18478 L324.61267 -116.14928 L324.98703 -111.951706 L324.88345 -108.16472 L324.28598 -104.035355 L323.35138 -100.51146 L321.87418 -96.74031 L319.9761 -93.203735 L317.6882 -89.93274 L315.04156 -86.95839 L312.06714 -84.31174 L308.79608 -82.023865 L305.25952 -80.12581 L301.4884 -78.648636 L297.51382 -77.62338 L293.36682 -77.08115 L289.57492 -77.02933 Z "/>
      </g>
      <g style="fill:#6272A6;stroke:none;">
        <path d="M291.0 -43.0 C309.77768 -43.0 325.0 -27.77768 325.0 -9.0 C325.0 9.777679 309.77768 25.0 291.0 25.0 C272.22232 25.0 257.0 9.777679 257.0 -9.0 C257.0 -27.77768 272.22232 -43.0 291.0 -43.0 Z "/>
      </g>
      <g style="fill:#77A662;stroke:none;">
        <path d="M289.57492 24.970673 L285.39383 24.539948 L281.81525 23.744873 L277.97287 22.414856 L274.35468 20.653625 L270.99167 18.492249 L267.91492 15.961731 L265.15555 13.093109 L262.74463 9.91748 L260.71317 6.465973 L259.09222 2.7695618 L257.91287 -1.1406708 L257.2604 -4.7707977 L257.0 -9.0 L257.2063 -12.766525 L257.913 -16.859497 L259.09235 -20.76973 L260.7133 -24.46614 L262.74475 -27.917633 L265.15567 -31.0932 L267.91504 -33.96176 L270.9918 -36.49228 L274.3548 -38.65367 L277.973 -40.414886 L281.81537 -41.744858 L285.39392 -42.539948 L289.575 -42.970627 L291.0 -43.0 L295.22934 -42.739532 L299.30356 -41.978775 L302.76968 -40.9077 L306.4661 -39.286774 L309.9176 -37.25531 L313.09323 -34.84439 L315.96185 -32.085052 L318.49237 -29.008362 L320.65375 -25.645401 L322.41498 -22.027176 L323.745 -18.184753 L324.61267 -14.149261 L324.98703 -9.951706 L324.88345 -6.1647186 L324.28598 -2.0353546 L323.35138 1.4885406 L321.87418 5.2596893 L319.9761 8.796265 L317.6882 12.067322 L315.04156 15.041748 L312.06714 17.688385 L308.79608 19.976288 L305.25952 21.87436 L301.4884 23.351562 L297.51382 24.3768 L293.36682 24.919037 L289.57492 24.970673 Z "/>
      </g>
      <g style="fill:#A6627D;stroke:none;">
        <path d="M291.0 59.0 C309.77768 59.0 325.0 74.22232 325.0 93.0 C325.0 111.77768 309.77768 127.0 291.0 127.0 C272.22232 127.0 257.0 111.77768 257.0 93.0 C257.0 74.22232 272.22232 59.0 291.0 59.0 Z "/>
      </g>
      <g style="fill:#6282A6;stroke:none;">
        <path d="M289.57492 126.97067 L285.39383 126.53995 L281.81525 125.74487 L277.97287 124.414856 L274.35468 122.653625 L270.99167 120.49225 L267.91492 117.96173 L265.15555 115.09311 L262.74463 111.91748 L260.71317 108.46597 L259.09222 104.76956 L257.91287 100.859375 L257.2604 97.22925 L257.0 93.0 L257.2063 89.23349 L257.913 85.1405 L259.09235 81.230316 L260.7133 77.533905 L262.74475 74.0824 L265.15567 70.90677 L267.91504 68.03815 L270.9918 65.50763 L274.3548 63.346252 L277.973 61.585022 L281.81537 60.255005 L285.39392 59.45993 L289.575 59.029236 L291.0 59.0 L295.22934 59.26053 L299.30356 60.02127 L302.76968 61.092346 L306.4661 62.713287 L309.9176 64.74475 L313.09323 67.15567 L315.96185 69.91504 L318.49237 72.99179 L320.65375 76.3548 L322.41498 79.97299 L323.745 83.81537 L324.61267 87.85089 L324.98703 92.04843 L324.88345 95.835236 L324.28598 99.96463 L323.35138 103.488525 L321.87418 107.25964 L319.9761 110.7962 L317.6882 114.06726 L315.04156 117.04169 L312.06714 119.688324 L308.79608 121.97623 L305.25952 123.8743 L301.4884 125.3515 L297.51382 126.37674 L293.36682 126.918976 L289.57492 126.97067 Z "/>
      </g>
      <g style="fill:#6272A6;stroke:none;">
        <path d="M291.0 161.0 C309.77768 161.0 325.0 176.22232 325.0 195.0 C325.0 213.77768 309.77768 229.0 291.0 229.0 C272.22232 229.0 257.0 213.77768 257.0 195.0 C257.0 176.22232 272.22232 161.0 291.0 161.0 Z "/>
      </g>
      <g style="fill:#77A662;stroke:none;">
        <path d="M289.57492 228.97067 L285.39383 228.53995 L281.81525 227.74487 L277.97287 226.41486 L274.35468 224.65363 L270.99167 222.49225 L267.91492 219.96173 L265.15555 217.09311 L262.74463 213.91748 L260.71317 210.46597 L259.09222 206.76956 L257.91287 202.85938 L257.2604 199.22925 L257.0 195.0 L257.2063 191.23349 L257.913 187.1405 L259.09235 183.23032 L260.7133 179.5339 L262.74475 176.0824 L265.15567 172.90677 L267.91504 170.03815 L270.9918 167.50763 L274.3548 165.34625 L277.973 163.58502 L281.81537 162.255 L285.39392 161.45993 L289.575 161.02924 L291.0 161.0 L295.22934 161.26053 L299.30356 162.02127 L302.76968 163.09235 L306.4661 164.71329 L309.9176 166.74475 L313.09323 169.15567 L315.96185 171.91504 L318.49237 174.99179 L320.65375 178.3548 L322.41498 181.97299 L323.745 185.81537 L324.61267 189.85089 L324.98703 194.04843 L324.88345 197.83524 L324.28598 201.96463 L323.35138 205.48853 L321.87418 209.25964 L319.9761 212.7962 L317.6882 216.06726 L315.04156 219.04169 L312.06714 221.68832 L308.79608 223.97623 L305.25952 225.8743 L301.4884 227.3515 L297.51382 228.37674 L293.36682 228.91898 L289.57492 228.97067 Z "/>
      </g>
      <g style="fill:#A6627D;stroke:none;">
        <path d="M291.0 263.0 C309.77768 263.0 325.0 278.2223 325.0 297.0 C325.0 315.7777 309.77768 331.0 291.0 331.0 C272.22232 331.0 257.0 315.7777 257.0 297.0 C257.0 278.2223 272.22232 263.0 291.0 263.0 Z "/>
      </g>
      <g style="fill:#6282A6;stroke:none;">
        <path d="M289.57492 330.9707 L285.39383 330.54004 L281.81525 329.74493 L277.97287 328.41504 L274.35468 326.6538 L270.99167 324.4925 L267.91492 321.96204 L265.15555 319.09344 L262.74463 315.91785 L260.71317 312.46625 L259.09222 308.76996 L257.91287 304.85974 L257.2604 301.2296 L257.0 297.0 L257.2063 293.2334 L257.913 289.14044 L259.09235 285.23022 L260.7133 281.53394 L262.74475 278.0824 L265.15567 274.9068 L267.91504 272.0382 L270.9918 269.50775 L274.3548 267.34644 L277.973 265.5852 L281.81537 264.25525 L285.39392 263.46017 L289.575 263.02948 L291.0 263.0 L295.22934 263.2605 L299.30356 264.02124 L302.76968 265.09235 L306.4661 266.71326 L309.9176 268.74463 L313.09323 271.15552 L315.96185 273.91486 L318.49237 276.99152 L320.65375 280.35455 L322.41498 283.97278 L323.745 287.81512 L324.61267 291.8506 L324.98703 296.04828 L324.88345 299.83533 L324.28598 303.96472 L323.35138 307.4886 L321.87418 311.25964 L319.9761 314.79626 L317.6882 318.06726 L315.04156 321.04156 L312.06714 323.68823 L308.79608 325.97607 L305.25952 327.87408 L301.4884 329.3512 L297.51382 330.3764 L293.36682 330.91858 L289.57492 330.9707 Z "/>
      </g>
      <g style="fill:#6272A6;stroke:none;">
        <path d="M291.0 365.0 C309.77768 365.0 325.0 380.2223 325.0 399.0 C325.0 417.7777 309.77768 433.0 291.0 433.0 C272.22232 433.0 257.0 417.7777 257.0 399.0 C257.0 380.2223 272.22232 365.0 291.0 365.0 Z "/>
      </g>
      <g style="fill:#77A662;stroke:none;">
        <path d="M289.57492 432.9707 L285.39383 432.54004 L281.81525 431.74493 L277.97287 430.41504 L274.35468 428.6538 L270.99167 426.4925 L267.91492 423.96204 L265.15555 421.09344 L262.74463 417.91785 L260.71317 414.46625 L259.09222 410.76996 L257.91287 406.85974 L257.2604 403.2296 L257.0 399.0 L257.2063 395.2334 L257.913 391.14044 L259.09235 387.23022 L260.7133 383.53394 L262.74475 380.0824 L265.15567 376.9068 L267.91504 374.0382 L270.9918 371.50775 L274.3548 369.34644 L277.973 367.5852 L281.81537 366.25537 L285.39392 365.46027 L289.575 365.0296 L291.0 365.0 L295.22934 365.26044 L299.30356 366.02118 L302.76968 367.09222 L306.4661 368.71313 L309.9176 370.7445 L313.09323 373.1554 L315.96185 375.91473 L318.49237 378.9914 L320.65375 382.35443 L322.41498 385.97266 L323.745 389.815 L324.61267 393.85046 L324.98703 398.04816 L324.88345 401.83533 L324.28598 405.96472 L323.35138 409.4886 L321.87418 413.25964 L319.9761 416.79626 L317.6882 420.06726 L315.04156 423.04156 L312.06714 425.68823 L308.79608 427.97607 L305.25952 429.87408 L301.4884 431.3512 L297.51382 432.3764 L293.36682 432.91858 L289.57492 432.9707 Z "/>
      </g>
      <g style="fill:#A6627D;stroke:none;">
        <path d="M291.0 467.0 C309.77768 467.0 325.0 482.2223 325.0 501.0 C325.0 519.7777 309.77768 535.0 291.0 535.0 C272.22232 535.0 257.0 519.7777 257.0 501.0 C257.0 482.2223 272.22232 467.0 291.0 467.0 Z "/>
      </g>
      <g style="fill:#6282A6;stroke:none;">
        <path d="M289.57492 534.9707 L285.39383 534.54004 L281.81525 533.74493 L277.97287 532.41504 L274.35468 530.6538 L270.99167 528.4925 L267.91492 525.96204 L265.15555 523.09344 L262.74463 519.91785 L260.71317 516.46625 L259.09222 512.76996 L257.91287 508.85974 L257.2604 505.2296 L257.0 501.0 L257.2063 497.2334 L257.913 493.14044 L259.09235 489.23022 L260.7133 485.53394 L262.74475 482.0824 L265.15567 478.9068 L267.91504 476.0382 L270.9918 473.50775 L274.3548 471.34644 L277.973 469.5852 L281.81537 468.25537 L285.39392 467.46027 L289.575 467.0296 L291.0 467.0 L295.22934 467.26044 L299.30356 468.02118 L302.76968 469.09222 L306.4661 470.71313 L309.9176 472.7445 L313.09323 475.1554 L315.96185 477.91473 L318.49237 480.9914 L320.65375 484.35443 L322.41498 487.97266 L323.745 491.815 L324.61267 495.85046 L324.98703 500.04816 L324.88345 503.83533 L324.28598 507.96472 L323.35138 511.4886 L321.87418 515.25964 L319.9761 518.79626 L317.6882 522.06726 L315.04156 525.04156 L312.06714 527.68823 L308.79608 529.9761 L305.25952 531.8741 L301.4884 533.3512 L297.51382 534.3764 L293.36682 534.9186 L289.57492 534.9707 Z "/>
      </g>
      <g style="fill:#6272A6;stroke:none;">
        <path d="M393.0 -247.0 C411.7777 -247.0 427.0 -231.77768 427.0 -213.0 C427.0 -194.22232 411.7777 -179.0 393.0 -179.0 C374.2223 -179.0 359.0 -194.22232 359.0 -213.0 C359.0 -231.77768 374.2223 -247.0 393.0 -247.0 Z "/>
      </g>
      <g style="fill:#77A662;stroke:none;">
        <path d="M391.5749 -179.02933 L387.39368 -179.46002 L383.8152 -180.2551 L379.97284 -181.58508 L376.35468 -183.3463 L372.99164 -185.50769 L369.91498 -188.03822 L367.15564 -190.9068 L364.74475 -194.08237 L362.71338 -197.53389 L361.09247 -201.23029 L359.91312 -205.1405 L359.26065 -208.77066 L359.0 -213.0 L359.2063 -216.76654 L359.91296 -220.85951 L361.09235 -224.76973 L362.71326 -228.46613 L364.74463 -231.91763 L367.15552 -235.09322 L369.91486 -237.96178 L372.99152 -240.4923 L376.35455 -242.65369 L379.97278 -244.4149 L383.81512 -245.74489 L387.39362 -246.53996 L391.57483 -246.97064 L393.0 -247.0 L397.22943 -246.73952 L401.30365 -245.97878 L404.76978 -244.90771 L408.46606 -243.28677 L411.9176 -241.25533 L415.0932 -238.84439 L417.9618 -236.08505 L420.49225 -233.00836 L422.65356 -229.64539 L424.4148 -226.02716 L425.74463 -222.18478 L426.61237 -218.14926 L426.98663 -213.95169 L426.88348 -210.16472 L426.28607 -206.03534 L425.3515 -202.51144 L423.87433 -198.74033 L421.97632 -195.20374 L419.68848 -191.93272 L417.0418 -188.95837 L414.0675 -186.3117 L410.7965 -184.02382 L407.25983 -182.12576 L403.48877 -180.64857 L399.51422 -179.62335 L395.3672 -179.08112 L391.5749 -179.02933 Z "/>
      </g>
      <g style="fill:#A6627D;stroke:none;">
        <path d="M393.0 -145.0 C411.7777 -145.0 427.0 -129.77768 427.0 -111.0 C427.0 -92.22232 411.7777 -77.0 393.0 -77.0 C374.2223 -77.0 359.0 -92.22232 359.0 -111.0 C359.0 -129.77768 374.2223 -145.0 393.0 -145.0 Z "/>
      </g>
      <g style="fill:#6282A6;stroke:none;">
        <path d="M391.5749 -77.02933 L387.39368 -77.46001 L383.8152 -78.2551 L379.97284 -79.58508 L376.35468 -81.3463 L372.99164 -83.507706 L369.91498 -86.03822 L367.15564 -88.906784 L364.74475 -92.08235 L362.71338 -95.533844 L361.09247 -99.230255 L359.91312 -103.14049 L359.26065 -106.770615 L359.0 -111.0 L359.2063 -114.766525 L359.91296 -118.8595 L361.09235 -122.769714 L362.71326 -126.46611 L364.74463 -129.91763 L367.15552 -133.0932 L369.91486 -135.96178 L372.99152 -138.49228 L376.35455 -140.65369 L379.97278 -142.41489 L383.81512 -143.74487 L387.39362 -144.53995 L391.57483 -144.97063 L393.0 -145.0 L397.22943 -144.73952 L401.30365 -143.97878 L404.76978 -142.90771 L408.46606 -141.28677 L411.9176 -139.25533 L415.0932 -136.8444 L417.9618 -134.08508 L420.49225 -131.00839 L422.65356 -127.64539 L424.4148 -124.02717 L425.74463 -120.18478 L426.61237 -116.14928 L426.98663 -111.951706 L426.88348 -108.16472 L426.28607 -104.035355 L425.3515 -100.51146 L423.87433 -96.74031 L421.97632 -93.203735 L419.68848 -89.93274 L417.0418 -86.95839 L414.0675 -84.31174 L410.7965 -82.023865 L407.25983 -80.12581 L403.48877 -78.648636 L399.51422 -77.62338 L395.3672 -77.08115 L391.5749 -77.02933 Z "/>
      </g>
      <g style="fill:#6272A6;stroke:none;">
        <path d="M393.0 -43.0 C411.7777 -43.0 427.0 -27.77768 427.0 -9.0 C427.0 9.777679 411.7777 25.0 393.0 25.0 C374.2223 25.0 359.0 9.777679 359.0 -9.0 C359.0 -27.77768 374.2223 -43.0 393.0 -43.0 Z "/>
      </g>
      <g style="fill:#77A662;stroke:none;">
        <path d="M391.5749 24.970673 L387.39368 24.539948 L383.8152 23.744873 L379.97284 22.414856 L376.35468 20.653625 L372.99164 18.492249 L369.91498 15.961731 L367.15564 13.093109 L364.74475 9.91748 L362.71338 6.465973 L361.09247 2.7695618 L359.91312 -1.1406708 L359.26065 -4.7707977 L359.0 -9.0 L359.2063 -12.766525 L359.91296 -16.859497 L361.09235 -20.76973 L362.71326 -24.46614 L364.74463 -27.917633 L367.15552 -31.0932 L369.91486 -33.96176 L372.99152 -36.49228 L376.35455 -38.65367 L379.97278 -40.414886 L383.81512 -41.744858 L387.39362 -42.539948 L391.57483 -42.970627 L393.0 -43.0 L397.22943 -42.739532 L401.30365 -41.978775 L404.76978 -40.9077 L408.46606 -39.286774 L411.9176 -37.25531 L415.0932 -34.84439 L417.9618 -32.085052 L420.49225 -29.008362 L422.65356 -25.645401 L424.4148 -22.027176 L425.74463 -18.184753 L426.61237 -14.149261 L426.98663 -9.951706 L426.88348 -6.1647186 L426.28607 -2.0353546 L425.3515 1.4885406 L423.87433 5.2596893 L421.97632 8.796265 L419.68848 12.067322 L417.0418 15.041748 L414.0675 17.688385 L410.7965 19.976288 L407.25983 21.87436 L403.48877 23.351562 L399.51422 24.3768 L395.3672 24.919037 L391.5749 24.970673 Z "/>
      </g>
      <g style="fill:#A6627D;stroke:none;">
        <path d="M393.0 59.0 C411.7777 59.0 427.0 74.22232 427.0 93.0 C427.0 111.77768 411.7777 127.0 393.0 127.0 C374.2223 127.0 359.0 111.77768 359.0 93.0 C359.0 74.22232 374.2223 59.0 393.0 59.0 Z "/>
      </g>
      <g style="fill:#6282A6;stroke:none;">
        <path d="M391.5749 126.97067 L387.39368 126.53995 L383.8152 125.74487 L379.97284 124.414856 L376.35468 122.653625 L372.99164 120.49225 L369.91498 117.96173 L367.15564 115.09311 L364.74475 111.91748 L362.71338 108.46597 L361.09247 104.76956 L359.91312 100.859375 L359.26065 97.22925 L359.0 93.0 L359.2063 89.23349 L359.91296 85.1405 L361.09235 81.230316 L362.71326 77.533905 L364.74463 74.0824 L367.15552 70.90677 L369.91486 68.03815 L372.99152 65.50763 L376.35455 63.346252 L379.97278 61.585022 L383.81512 60.255005 L387.39362 59.45993 L391.57483 59.029236 L393.0 59.0 L397.22943 59.26053 L401.30365 60.02127 L404.76978 61.092346 L408.46606 62.713287 L411.9176 64.74475 L415.0932 67.15567 L417.9618 69.91504 L420.49225 72.99179 L422.65356 76.3548 L424.4148 79.97299 L425.74463 83.81537 L426.61237 87.85089 L426.98663 92.04843 L426.88348 95.835236 L426.28607 99.96463 L425.3515 103.488525 L423.87433 107.25964 L421.97632 110.7962 L419.68848 114.06726 L417.0418 117.04169 L414.0675 119.688324 L410.7965 121.97623 L407.25983 123.8743 L403.48877 125.3515 L399.51422 126.37674 L395.3672 126.918976 L391.5749 126.97067 Z "/>
      </g>
      <g style="fill:#6272A6;stroke:none;">
        <path d="M393.0 161.0 C411.7777 161.0 427.0 176.22232 427.0 195.0 C427.0 213.77768 411.7777 229.0 393.0 229.0 C374.2223 229.0 359.0 213.77768 359.0 195.0 C359.0 176.22232 374.2223 161.0 393.0 161.0 Z "/>
      </g>
      <g style="fill:#77A662;stroke:none;">
        <path d="M391.5749 228.97067 L387.39368 228.53995 L383.8152 227.74487 L379.97284 226.41486 L376.35468 224.65363 L372.99164 222.49225 L369.91498 219.96173 L367.15564 217.09311 L364.74475 213.91748 L362.71338 210.46597 L361.09247 206.76956 L359.91312 202.85938 L359.26065 199.22925 L359.0 195.0 L359.2063 191.23349 L359.91296 187.1405 L361.09235 183.23032 L362.71326 179.5339 L364.74463 176.0824 L367.15552 172.90677 L369.91486 170.03815 L372.99152 167.50763 L376.35455 165.34625 L379.97278 163.58502 L383.81512 162.255 L387.39362 161.45993 L391.57483 161.02924 L393.0 161.0 L397.22943 161.26053 L401.30365 162.02127 L404.76978 163.09235 L408.46606 164.71329 L411.9176 166.74475 L415.0932 169.15567 L417.9618 171.91504 L420.49225 174.99179 L422.65356 178.3548 L424.4148 181.97299 L425.74463 185.81537 L426.61237 189.85089 L426.98663 194.04843 L426.88348 197.83524 L426.28607 201.96463 L425.3515 205.48853 L423.87433 209.25964 L421.97632 212.7962 L419.68848 216.06726 L417.0418 219.04169 L414.0675 221.68832 L410.7965 223.97623 L407.25983 225.8743 L403.48877 227.3515 L399.51422 228.37674 L395.3672 228.91898 L391.5749 228.97067 Z "/>
      </g>
      <g style="fill:#A6627D;stroke:none;">
        <path d="M393.0 263.0 C411.7777 263.0 427.0 278.2223 427.0 297.0 C427.0 315.7777 411.7777 331.0 393.0 331.0 C374.2223 331.0 359.0 315.7777 359.0 297.0 C359.0 278.2223 374.2223 263.0 393.0 263.0 Z "/>
      </g>
      <g style="fill:#6282A6;stroke:none;">
        <path d="M391.5749 330.9707 L387.39368 330.54004 L383.8152 329.74493 L379.97284 328.41504 L376.35468 326.6538 L372.99164 324.4925 L369.91498 321.96204 L367.15564 319.09344 L364.74475 315.91785 L362.71338 312.46625 L361.09247 308.76996 L359.91312 304.85974 L359.26065 301.2296 L359.0 297.0 L359.2063 293.2334 L359.91296 289.14044 L361.09235 285.23022 L362.71326 281.53394 L364.74463 278.0824 L367.15552 274.9068 L369.91486 272.0382 L372.99152 269.50775 L376.35455 267.34644 L379.97278 265.5852 L383.81512 264.25525 L387.39362 263.46017 L391.57483 263.02948 L393.0 263.0 L397.22943 263.2605 L401.30365 264.02124 L404.76978 265.09235 L408.46606 266.71326 L411.9176 268.74463 L415.0932 271.15552 L417.9618 273.91486 L420.49225 276.99152 L422.65356 280.35455 L424.4148 283.97278 L425.74463 287.81512 L426.61237 291.8506 L426.98663 296.04828 L426.88348 299.83533 L426.28607 303.96472 L425.3515 307.4886 L423.87433 311.25964 L421.97632 314.79626 L419.68848 318.06726 L417.0418 321.04156 L414.0675 323.68823 L410.7965 325.97607 L407.25983 327.87408 L403.48877 329.3512 L399.51422 330.3764 L395.3672 330.91858 L391.5749 330.9707 Z "/>
      </g>
      <g style="fill:#6272A6;stroke:none;">
        <path d="M393.0 365.0 C411.7777 365.0 427.0 380.2223 427.0 399.0 C427.0 417.7777 411.7777 433.0 393.0 433.0 C374.2223 433.0 359.0 417.7777 359.0 399.0 C359.0 380.2223 374.2223 365.0 393.0 365.0 Z "/>
      </g>
      <g style="fill:#77A662;stroke:none;">
        <path d="M391.5749 432.9707 L387.39368 432.54004 L383.8152 431.74493 L379.97284 430.41504 L376.35468 428.6538 L372.99164 426.4925 L369.91498 423.96204 L367.15564 421.09344 L364.74475 417.91785 L362.71338 414.46625 L361.09247 410.76996 L359.91312 406.85974 L359.26065 403.2296 L359.0 399.0 L359.2063 395.2334 L359.91296 391.14044 L361.09235 387.23022 L362.71326 383.53394 L364.74463 380.0824 L367.15552 376.9068 L369.91486 374.0382 L372.99152 371.50775 L376.35455 369.34644 L379.97278 367.5852 L383.81512 366.25537 L387.39362 365.46027 L391.57483 365.0296 L393.0 365.0 L397.22943 365.26044 L401.30365 366.02118 L404.76978 367.09222 L408.46606 368.71313 L411.9176 370.7445 L415.0932 373.1554 L417.9618 375.91473 L420.49225 378.9914 L422.65356 382.35443 L424.4148 385.97266 L425.74463 389.815 L426.61237 393.85046 L426.98663 398.04816 L426.88348 401.83533 L426.28607 405.96472 L425.3515 409.4886 L423.87433 413.25964 L421.97632 416.79626 L419.68848 420.06726 L417.0418 423.04156 L414.0675 425.68823 L410.7965 427.97607 L407.25983 429.87408 L403.48877 431.3512 L399.51422 432.3764 L395.3672 432.91858 L391.5749 432.9707 Z "/>
      </g>
      <g style="fill:#A6627D;stroke:none;">
        <path d="M393.0 467.0 C411.7777 467.0 427.0 482.2223 427.0 501.0 C427.0 519.7777 411.7777 535.0 393.0 535.0 C374.2223 535.0 359.0 519.7777 359.0 501.0 C359.0 482.2223 374.2223 467.0 393.0 467.0 Z "/>
      </g>
      <g style="fill:#6282A6;stroke:none;">
        <path d="M391.5749 534.9707 L387.39368 534.54004 L383.8152 533.74493 L379.97284 532.41504 L376.35468 530.6538 L372.99164 528.4925 L369.91498 525.96204 L367.15564 523.09344 L364.74475 519.91785 L362.71338 516.46625 L361.09247 512.76996 L359.91312 508.85974 L359.26065 505.2296 L359.0 501.0 L359.2063 497.2334 L359.91296 493.14044 L361.09235 489.23022 L362.71326 485.53394 L364.74463 482.0824 L367.15552 478.9068 L369.91486 476.0382 L372.99152 473.50775 L376.35455 471.34644 L379.97278 469.5852 L383.81512 468.25537 L387.39362 467.46027 L391.57483 467.0296 L393.0 467.0 L397.22943 467.26044 L401.30365 468.02118 L404.76978 469.09222 L408.46606 470.71313 L411.9176 472.7445 L415.0932 475.1554 L417.9618 477.91473 L420.49225 480.9914 L422.65356 484.35443 L424.4148 487.97266 L425.74463 491.815 L426.61237 495.85046 L426.98663 500.04816 L426.88348 503.83533 L426.28607 507.96472 L425.3515 511.4886 L423.87433 515.25964 L421.97632 518.79626 L419.68848 522.06726 L417.0418 525.04156 L414.0675 527.68823 L410.7965 529.9761 L407.25983 531.8741 L403.48877 533.3512 L399.51422 534.3764 L395.3672 534.9186 L391.5749 534.9707 Z "/>
      </g>
      <g style="fill:#6272A6;stroke:none;">
        <path d="M495.0 -247.0 C513.7777 -247.0 529.0 -231.77768 529.0 -213.0 C529.0 -194.22232 513.7777 -179.0 495.0 -179.0 C476.2223 -179.0 461.0 -194.22232 461.0 -213.0 C461.0 -231.77768 476.2223 -247.0 495.0 -247.0 Z "/>
      </g>
      <g style="fill:#77A662;stroke:none;">
        <path d="M493.5749 -179.02933 L489.39368 -179.46002 L485.8152 -180.2551 L481.97284 -181.58508 L478.35468 -183.3463 L474.99164 -185.50769 L471.91498 -188.03822 L469.15564 -190.9068 L466.74475 -194.08237 L464.71338 -197.53389 L463.09247 -201.23029 L461.9132 -205.1405 L461.26074 -208.77066 L461.0 -213.0 L461.20624 -216.76654 L461.9129 -220.85951 L463.09222 -224.76973 L464.71313 -228.46613 L466.7445 -231.91763 L469.1554 -235.09322 L471.91473 -237.96178 L474.9914 -240.4923 L478.35443 -242.65369 L481.97266 -244.4149 L485.815 -245.74489 L489.3935 -246.53996 L493.5747 -246.97064 L495.0 -247.0 L499.22943 -246.73952 L503.30365 -245.97878 L506.76978 -244.90771 L510.46606 -243.28677 L513.9176 -241.25533 L517.0932 -238.84439 L519.9618 -236.08505 L522.49225 -233.00836 L524.65356 -229.64539 L526.4148 -226.02716 L527.7446 -222.18478 L528.61237 -218.14926 L528.98663 -213.95169 L528.8835 -210.16472 L528.2861 -206.03534 L527.3515 -202.51144 L525.8743 -198.74033 L523.9763 -195.20374 L521.6885 -191.93272 L519.0418 -188.95837 L516.0675 -186.3117 L512.7965 -184.02382 L509.25983 -182.12576 L505.48877 -180.64857 L501.51422 -179.62335 L497.3672 -179.08112 L493.5749 -179.02933 Z "/>
      </g>
      <g style="fill:#A6627D;stroke:none;">
        <path d="M495.0 -145.0 C513.7777 -145.0 529.0 -129.77768 529.0 -111.0 C529.0 -92.22232 513.7777 -77.0 495.0 -77.0 C476.2223 -77.0 461.0 -92.22232 461.0 -111.0 C461.0 -129.77768 476.2223 -145.0 495.0 -145.0 Z "/>
      </g>
      <g style="fill:#6282A6;stroke:none;">
        <path d="M493.5749 -77.02933 L489.39368 -77.46001 L485.8152 -78.2551 L481.97284 -79.58508 L478.35468 -81.3463 L474.99164 -83.507706 L471.91498 -86.03822 L469.15564 -88.906784 L466.74475 -92.08235 L464.71338 -95.533844 L463.09247 -99.230255 L461.9132 -103.14049 L461.26074 -106.770615 L461.0 -111.0 L461.20624 -114.766525 L461.9129 -118.8595 L463.09222 -122.769714 L464.71313 -126.46611 L466.7445 -129.91763 L469.1554 -133.0932 L471.91473 -135.96178 L474.9914 -138.49228 L478.35443 -140.65369 L481.97266 -142.41489 L485.815 -143.74487 L489.3935 -144.53995 L493.5747 -144.97063 L495.0 -145.0 L499.22943 -144.73952 L503.30365 -143.97878 L506.76978 -142.90771 L510.46606 -141.28677 L513.9176 -139.25533 L517.0932 -136.8444 L519.9618 -134.08508 L522.49225 -131.00839 L524.65356 -127.64539 L526.4148 -124.02717 L527.7446 -120.18478 L528.61237 -116.14928 L528.98663 -111.951706 L528.8835 -108.16472 L528.2861 -104.035355 L527.3515 -100.51146 L525.8743 -96.74031 L523.9763 -93.203735 L521.6885 -89.93274 L519.0418 -86.95839 L516.0675 -84.31174 L512.7965 -82.023865 L509.25983 -80.12581 L505.48877 -78.648636 L501.51422 -77.62338 L497.3672 -77.08115 L493.5749 -77.02933 Z "/>
      </g>
      <g style="fill:#6272A6;stroke:none;">
        <path d="M495.0 -43.0 C513.7777 -43.0 529.0 -27.77768 529.0 -9.0 C529.0 9.777679 513.7777 25.0 495.0 25.0 C476.2223 25.0 461.0 9.777679 461.0 -9.0 C461.0 -27.77768 476.2223 -43.0 495.0 -43.0 Z "/>
      </g>
      <g style="fill:#77A662;stroke:none;">
        <path d="M493.5749 24.970673 L489.39368 24.539948 L485.8152 23.744873 L481.97284 22.414856 L478.35468 20.653625 L474.99164 18.492249 L471.91498 15.961731 L469.15564 13.093109 L466.74475 9.91748 L464.71338 6.465973 L463.09247 2.7695618 L461.9132 -1.1406708 L461.26074 -4.7707977 L461.0 -9.0 L461.20624 -12.766525 L461.9129 -16.859497 L463.09222 -20.76973 L464.71313 -24.46614 L466.7445 -27.917633 L469.1554 -31.0932 L471.91473 -33.96176 L474.9914 -36.49228 L478.35443 -38.65367 L481.97266 -40.414886 L485.815 -41.744858 L489.3935 -42.539948 L493.5747 -42.970627 L495.0 -43.0 L499.22943 -42.739532 L503.30365 -41.978775 L506.76978 -40.9077 L510.46606 -39.286774 L513.9176 -37.25531 L517.0932 -34.84439 L519.9618 -32.085052 L522.49225 -29.008362 L524.65356 -25.645401 L526.4148 -22.027176 L527.7446 -18.184753 L528.61237 -14.149261 L528.98663 -9.951706 L528.8835 -6.1647186 L528.2861 -2.0353546 L527.3515 1.4885406 L525.8743 5.2596893 L523.9763 8.796265 L521.6885 12.067322 L519.0418 15.041748 L516.0675 17.688385 L512.7965 19.976288 L509.25983 21.87436 L505.48877 23.351562 L501.51422 24.3768 L497.3672 24.919037 L493.5749 24.970673 Z "/>
      </g>
      <g style="fill:#A6627D;stroke:none;">
        <path d="M495.0 59.0 C513.7777 59.0 529.0 74.22232 529.0 93.0 C529.0 111.77768 513.7777 127.0 495.0 127.0 C476.2223 127.0 461.0 111.77768 461.0 93.0 C461.0 74.22232 476.2223 59.0 495.0 59.0 Z "/>
      </g>
      <g style="fill:#6282A6;stroke:none;">
        <path d="M493.5749 126.97067 L489.39368 126.53995 L485.8152 125.74487 L481.97284 124.414856 L478.35468 122.653625 L474.99164 120.49225 L471.91498 117.96173 L469.15564 115.09311 L466.74475 111.91748 L464.71338 108.46597 L463.09247 104.76956 L461.9132 100.859375 L461.26074 97.22925 L461.0 93.0 L461.20624 89.23349 L461.9129 85.1405 L463.09222 81.230316 L464.71313 77.533905 L466.7445 74.0824 L469.1554 70.90677 L471.91473 68.03815 L474.9914 65.50763 L478.35443 63.346252 L481.97266 61.585022 L485.815 60.255005 L489.3935 59.45993 L493.5747 59.029236 L495.0 59.0 L499.22943 59.26053 L503.30365 60.02127 L506.76978 61.092346 L510.46606 62.713287 L513.9176 64.74475 L517.0932 67.15567 L519.9618 69.91504 L522.49225 72.99179 L524.65356 76.3548 L526.4148 79.97299 L527.7446 83.81537 L528.61237 87.85089 L528.98663 92.04843 L528.8835 95.835236 L528.2861 99.96463 L527.3515 103.488525 L525.8743 107.25964 L523.9763 110.7962 L521.6885 114.06726 L519.0418 117.04169 L516.0675 119.688324 L512.7965 121.97623 L509.25983 123.8743 L505.48877 125.3515 L501.51422 126.37674 L497.3672 126.918976 L493.5749 126.97067 Z "/>
      </g>
      <g style="fill:#6272A6;stroke:none;">
        <path d="M495.0 161.0 C513.7777 161.0 529.0 176.22232 529.0 195.0 C529.0 213.77768 513.7777 229.0 495.0 229.0 C476.2223 229.0 461.0 213.77768 461.0 195.0 C461.0 176.22232 476.2223 161.0 495.0 161.0 Z "/>
      </g>
      <g style="fill:#77A662;stroke:none;">
        <path d="M493.5749 228.97067 L489.39368 228.53995 L485.8152 227.74487 L481.97284 226.41486 L478.35468 224.65363 L474.99164 222.49225 L471.91498 219.96173 L469.15564 217.09311 L466.74475 213.91748 L464.71338 210.46597 L463.09247 206.76956 L461.9132 202.85938 L461.26074 199.22925 L461.0 195.0 L461.20624 191.23349 L461.9129 187.1405 L463.09222 183.23032 L464.71313 179.5339 L466.7445 176.0824 L469.1554 172.90677 L471.91473 170.03815 L474.9914 167.50763 L478.35443 165.34625 L481.97266 163.58502 L485.815 162.255 L489.3935 161.45993 L493.5747 161.02924 L495.0 161.0 L499.22943 161.26053 L503.30365 162.02127 L506.76978 163.09235 L510.46606 164.71329 L513.9176 166.74475 L517.0932 169.15567 L519.9618 171.91504 L522.49225 174.99179 L524.65356 178.3548 L526.4148 181.97299 L527.7446 185.81537 L528.61237 189.85089 L528.98663 194.04843 L528.8835 197.83524 L528.2861 201.96463 L527.3515 205.48853 L525.8743 209.25964 L523.9763 212.7962 L521.6885 216.06726 L519.0418 219.04169 L516.0675 221.68832 L512.7965 223.97623 L509.25983 225.8743 L505.48877 227.3515 L501.51422 228.37674 L497.3672 228.91898 L493.5749 228.97067 Z "/>
      </g>
      <g style="fill:#A6627D;stroke:none;">
        <path d="M495.0 263.0 C513.7777 263.0 529.0 278.2223 529.0 297.0 C529.0 315.7777 513.7777 331.0 495.0 331.0 C476.2223 331.0 461.0 315.7777 461.0 297.0 C461.0 278.2223 476.2223 263.0 495.0 263.0 Z "/>
      </g>
      <g style="fill:#6282A6;stroke:none;">
        <path d="M493.5749 330.9707 L489.39368 330.54004 L485.8152 329.74493 L481.97284 328.41504 L478.35468 326.6538 L474.99164 324.4925 L471.91498 321.96204 L469.15564 319.09344 L466.74475 315.91785 L464.71338 312.46625 L463.09247 308.76996 L461.9132 304.85974 L461.26074 301.2296 L461.0 297.0 L461.20624 293.2334 L461.9129 289.14044 L463.09222 285.23022 L464.71313 281.53394 L466.7445 278.0824 L469.1554 274.9068 L471.91473 272.0382 L474.9914 269.50775 L478.35443 267.34644 L481.97266 265.5852 L485.815 264.25525 L489.3935 263.46017 L493.5747 263.02948 L495.0 263.0 L499.22943 263.2605 L503.30365 264.02124 L506.76978 265.09235 L510.46606 266.71326 L513.9176 268.74463 L517.0932 271.15552 L519.9618 273.91486 L522.49225 276.99152 L524.65356 280.35455 L526.4148 283.97278 L527.7446 287.81512 L528.61237 291.8506 L528.98663 296.04828 L528.8835 299.83533 L528.2861 303.96472 L527.3515 307.4886 L525.8743 311.25964 L523.9763 314.79626 L521.6885 318.06726 L519.0418 321.04156 L516.0675 323.68823 L512.7965 325.97607 L509.25983 327.87408 L505.48877 329.3512 L501.51422 330.3764 L497.3672 330.91858 L493.5749 330.9707 Z "/>
      </g>
      <g style="fill:#6272A6;stroke:none;">
        <path d="M495.0 365.0 C513.7777 365.0 529.0 380.2223 529.0 399.0 C529.0 417.7777 513.7777 433.0 495.0 433.0 C476.2223 433.0 461.0 417.7777 461.0 399.0 C461.0 380.2223 476.2223 365.0 495.0 365.0 Z "/>
      </g>
      <g style="fill:#77A662;stroke:none;">
        <path d="M493.5749 432.9707 L489.39368 432.54004 L485.8152 431.74493 L481.97284 430.41504 L478.35468 428.6538 L474.99164 426.4925 L471.91498 423.96204 L469.15564 421.09344 L466.74475 417.91785 L464.71338 414.46625 L463.09247 410.76996 L461.9132 406.85974 L461.26074 403.2296 L461.0 399.0 L461.20624 395.2334 L461.9129 391.14044 L463.09222 387.23022 L464.71313 383.53394 L466.7445 380.0824 L469.1554 376.9068 L471.91473 374.0382 L474.9914 371.50775 L478.35443 369.34644 L481.97266 367.5852 L485.815 366.25537 L489.3935 365.46027 L493.5747 365.0296 L495.0 365.0 L499.22943 365.26044 L503.30365 366.02118 L506.76978 367.09222 L510.46606 368.71313 L513.9176 370.7445 L517.0932 373.1554 L519.9618 375.91473 L522.49225 378.9914 L524.65356 382.35443 L526.4148 385.97266 L527.7446 389.815 L528.61237 393.85046 L528.98663 398.04816 L528.8835 401.83533 L528.2861 405.96472 L527.3515 409.4886 L525.8743 413.25964 L523.9763 416.79626 L521.6885 420.06726 L519.0418 423.04156 L516.0675 425.68823 L512.7965 427.97607 L509.25983 429.87408 L505.48877 431.3512 L501.51422 432.3764 L497.3672 432.91858 L493.5749 432.9707 Z "/>
      </g>
      <g style="fill:#A6627D;stroke:none;">
        <path d="M495.0 467.0 C513.7777 467.0 529.0 482.2223 529.0 501.0 C529.0 519.7777 513.7777 535.0 495.0 535.0 C476.2223 535.0 461.0 519.7777 461.0 501.0 C461.0 482.2223 476.2223 467.0 495.0 467.0 Z "/>
      </g>
      <g style="fill:#6282A6;stroke:none;">
        <path d="M493.5749 534.9707 L489.39368 534.54004 L485.8152 533.74493 L481.97284 532.41504 L478.35468 530.6538 L474.99164 528.4925 L471.91498 525.96204 L469.15564 523.09344 L466.74475 519.91785 L464.71338 516.46625 L463.09247 512.76996 L461.9132 508.85974 L461.26074 505.2296 L461.0 501.0 L461.20624 497.2334 L461.9129 493.14044 L463.09222 489.23022 L464.71313 485.53394 L466.7445 482.0824 L469.1554 478.9068 L471.91473 476.0382 L474.9914 473.50775 L478.35443 471.34644 L481.97266 469.5852 L485.815 468.25537 L489.3935 467.46027 L493.5747 467.0296 L495.0 467.0 L499.22943 467.26044 L503.30365 468.02118 L506.76978 469.09222 L510.46606 470.71313 L513.9176 472.7445 L517.0932 475.1554 L519.9618 477.91473 L522.49225 480.9914 L524.65356 484.35443 L526.4148 487.97266 L527.7446 491.815 L528.61237 495.85046 L528.98663 500.04816 L528.8835 503.83533 L528.2861 507.96472 L527.3515 511.4886 L525.8743 515.25964 L523.9763 518.79626 L521.6885 522.06726 L519.0418 525.04156 L516.0675 527.68823 L512.7965 529.9761 L509.25983 531.8741 L505.48877 533.3512 L501.51422 534.3764 L497.3672 534.9186 L493.5749 534.9707 Z "/>
      </g>
      <g style="fill:#6272A6;stroke:none;">
        <path d="M597.0 -247.0 C615.7777 -247.0 631.0 -231.77768 631.0 -213.0 C631.0 -194.22232 615.7777 -179.0 597.0 -179.0 C578.2223 -179.0 563.0 -194.22232 563.0 -213.0 C563.0 -231.77768 578.2223 -247.0 597.0 -247.0 Z "/>
      </g>
      <g style="fill:#77A662;stroke:none;">
        <path d="M595.5749 -179.02933 L591.3937 -179.46002 L587.8152 -180.2551 L583.97284 -181.58508 L580.3547 -183.3463 L576.99164 -185.50769 L573.915 -188.03822 L571.15564 -190.9068 L568.74475 -194.08237 L566.7134 -197.53389 L565.09247 -201.23029 L563.9132 -205.1405 L563.26074 -208.77066 L563.0 -213.0 L563.20624 -216.76654 L563.9129 -220.85951 L565.0922 -224.76973 L566.71313 -228.46613 L568.7445 -231.91763 L571.1554 -235.09322 L573.91473 -237.96178 L576.9914 -240.4923 L580.35443 -242.65369 L583.97266 -244.4149 L587.815 -245.74489 L591.3935 -246.53996 L595.5747 -246.97064 L597.0 -247.0 L601.22943 -246.73952 L605.30365 -245.97878 L608.7698 -244.90771 L612.46606 -243.28677 L615.9176 -241.25533 L619.0932 -238.84439 L621.9618 -236.08505 L624.49225 -233.00836 L626.65356 -229.64539 L628.4148 -226.02716 L629.7446 -222.18478 L630.61237 -218.14926 L630.98663 -213.95169 L630.8835 -210.16472 L630.2861 -206.03534 L629.3515 -202.51144 L627.8743 -198.74033 L625.9763 -195.20374 L623.6885 -191.93272 L621.0418 -188.95837 L618.0675 -186.3117 L614.7965 -184.02382 L611.2598 -182.12576 L607.4888 -180.64857 L603.5142 -179.62335 L599.3672 -179.08112 L595.5749 -179.02933 Z "/>
      </g>
      <g style="fill:#A6627D;stroke:none;">
        <path d="M597.0 -145.0 C615.7777 -145.0 631.0 -129.77768 631.0 -111.0 C631.0 -92.22232 615.7777 -77.0 597.0 -77.0 C578.2223 -77.0 563.0 -92.22232 563.0 -111.0 C563.0 -129.77768 578.2223 -145.0 597.0 -145.0 Z "/>
      </g>
      <g style="fill:#6282A6;stroke:none;">
        <path d="M595.5749 -77.02933 L591.3937 -77.46001 L587.8152 -78.2551 L583.97284 -79.58508 L580.3547 -81.3463 L576.99164 -83.507706 L573.915 -86.03822 L571.15564 -88.906784 L568.74475 -92.08235 L566.7134 -95.533844 L565.09247 -99.230255 L563.9132 -103.14049 L563.26074 -106.770615 L563.0 -111.0 L563.20624 -114.766525 L563.9129 -118.8595 L565.0922 -122.769714 L566.71313 -126.46611 L568.7445 -129.91763 L571.1554 -133.0932 L573.91473 -135.96178 L576.9914 -138.49228 L580.35443 -140.65369 L583.97266 -142.41489 L587.815 -143.74487 L591.3935 -144.53995 L595.5747 -144.97063 L597.0 -145.0 L601.22943 -144.73952 L605.30365 -143.97878 L608.7698 -142.90771 L612.46606 -141.28677 L615.9176 -139.25533 L619.0932 -136.8444 L621.9618 -134.08508 L624.49225 -131.00839 L626.65356 -127.64539 L628.4148 -124.02717 L629.7446 -120.18478 L630.61237 -116.14928 L630.98663 -111.951706 L630.8835 -108.16472 L630.2861 -104.035355 L629.3515 -100.51146 L627.8743 -96.74031 L625.9763 -93.203735 L623.6885 -89.93274 L621.0418 -86.95839 L618.0675 -84.31174 L614.7965 -82.023865 L611.2598 -80.12581 L607.4888 -78.648636 L603.5142 -77.62338 L599.3672 -77.08115 L595.5749 -77.02933 Z "/>
      </g>
      <g style="fill:#6272A6;stroke:none;">
        <path d="M597.0 -43.0 C615.7777 -43.0 631.0 -27.77768 631.0 -9.0 C631.0 9.777679 615.7777 25.0 597.0 25.0 C578.2223 25.0 563.0 9.777679 563.0 -9.0 C563.0 -27.77768 578.2223 -43.0 597.0 -43.0 Z "/>
      </g>
      <g style="fill:#77A662;stroke:none;">
        <path d="M595.5749 24.970673 L591.3937 24.539948 L587.8152 23.744873 L583.97284 22.414856 L580.3547 20.653625 L576.99164 18.492249 L573.915 15.961731 L571.15564 13.093109 L568.74475 9.91748 L566.7134 6.465973 L565.09247 2.7695618 L563.9132 -1.1406708 L563.26074 -4.7707977 L563.0 -9.0 L563.20624 -12.766525 L563.9129 -16.859497 L565.0922 -20.76973 L566.71313 -24.46614 L568.7445 -27.917633 L571.1554 -31.0932 L573.91473 -33.96176 L576.9914 -36.49228 L580.35443 -38.65367 L583.97266 -40.414886 L587.815 -41.744858 L591.3935 -42.539948 L595.5747 -42.970627 L597.0 -43.0 L601.22943 -42.739532 L605.30365 -41.978775 L608.7698 -40.9077 L612.46606 -39.286774 L615.9176 -37.25531 L619.0932 -34.84439 L621.9618 -32.085052 L624.49225 -29.008362 L626.65356 -25.645401 L628.4148 -22.027176 L629.7446 -18.184753 L630.61237 -14.149261 L630.98663 -9.951706 L630.8835 -6.1647186 L630.2861 -2.0353546 L629.3515 1.4885406 L627.8743 5.2596893 L625.9763 8.796265 L623.6885 12.067322 L621.0418 15.041748 L618.0675 17.688385 L614.7965 19.976288 L611.2598 21.87436 L607.4888 23.351562 L603.5142 24.3768 L599.3672 24.919037 L595.5749 24.970673 Z "/>
      </g>
      <g style="fill:#A6627D;stroke:none;">
        <path d="M597.0 59.0 C615.7777 59.0 631.0 74.22232 631.0 93.0 C631.0 111.77768 615.7777 127.0 597.0 127.0 C578.2223 127.0 563.0 111.77768 563.0 93.0 C563.0 74.22232 578.2223 59.0 597.0 59.0 Z "/>
      </g>
      <g style="fill:#6282A6;stroke:none;">
        <path d="M595.5749 126.97067 L591.3937 126.53995 L587.8152 125.74487 L583.97284 124.414856 L580.3547 122.653625 L576.99164 120.49225 L573.915 117.96173 L571.15564 115.09311 L568.74475 111.91748 L566.7134 108.46597 L565.09247 104.76956 L563.9132 100.859375 L563.26074 97.22925 L563.0 93.0 L563.20624 89.23349 L563.9129 85.1405 L565.0922 81.230316 L566.71313 77.533905 L568.7445 74.0824 L571.1554 70.90677 L573.91473 68.03815 L576.9914 65.50763 L580.35443 63.346252 L583.97266 61.585022 L587.815 60.255005 L591.3935 59.45993 L595.5747 59.029236 L597.0 59.0 L601.22943 59.26053 L605.30365 60.02127 L608.7698 61.092346 L612.46606 62.713287 L615.9176 64.74475 L619.0932 67.15567 L621.9618 69.91504 L624.49225 72.99179 L626.65356 76.3548 L628.4148 79.97299 L629.7446 83.81537 L630.61237 87.85089 L630.98663 92.04843 L630.8835 95.835236 L630.2861 99.96463 L629.3515 103.488525 L627.8743 107.25964 L625.9763 110.7962 L623.6885 114.06726 L621.0418 117.04169 L618.0675 119.688324 L614.7965 121.97623 L611.2598 123.8743 L607.4888 125.3515 L603.5142 126.37674 L599.3672 126.918976 L595.5749 126.97067 Z "/>
      </g>
      <g style="fill:#6272A6;stroke:none;">
        <path d="M597.0 161.0 C615.7777 161.0 631.0 176.22232 631.0 195.0 C631.0 213.77768 615.7777 229.0 597.0 229.0 C578.2223 229.0 563.0 213.77768 563.0 195.0 C563.0 176.22232 578.2223 161.0 597.0 161.0 Z "/>
      </g>
      <g style="fill:#77A662;stroke:none;">
        <path d="M595.5749 228.97067 L591.3937 228.53995 L587.8152 227.74487 L583.97284 226.41486 L580.3547 224.65363 L576.99164 222.49225 L573.915 219.96173 L571.15564 217.09311 L568.74475 213.91748 L566.7134 210.46597 L565.09247 206.76956 L563.9132 202.85938 L563.26074 199.22925 L563.0 195.0 L563.20624 191.23349 L563.9129 187.1405 L565.0922 183.23032 L566.71313 179.5339 L568.7445 176.0824 L571.1554 172.90677 L573.91473 170.03815 L576.9914 167.50763 L580.35443 165.34625 L583.97266 163.58502 L587.815 162.255 L591.3935 161.45993 L595.5747 161.02924 L597.0 161.0 L601.22943 161.26053 L605.30365 162.02127 L608.7698 163.09235 L612.46606 164.71329 L615.9176 166.74475 L619.0932 169.15567 L621.9618 171.91504 L624.49225 174.99179 L626.65356 178.3548 L628.4148 181.97299 L629.7446 185.81537 L630.61237 189.85089 L630.98663 194.04843 L630.8835 197.83524 L630.2861 201.96463 L629.3515 205.48853 L627.8743 209.25964 L625.9763 212.7962 L623.6885 216.06726 L621.0418 219.04169 L618.0675 221.68832 L614.7965 223.97623 L611.2598 225.8743 L607.4888 227.3515 L603.5142 228.37674 L599.3672 228.91898 L595.5749 228.97067 Z "/>
      </g>
      <g style="fill:#A6627D;stroke:none;">
        <path d="M597.0 263.0 C615.7777 263.0 631.0 278.2223 631.0 297.0 C631.0 315.7777 615.7777 331.0 597.0 331.0 C578.2223 331.0 563.0 315.7777 563.0 297.0 C563.0 278.2223 578.2223 263.0 597.0 263.0 Z "/>
      </g>
      <g style="fill:#6282A6;stroke:none;">
        <path d="M595.5749 330.9707 L591.3937 330.54004 L587.8152 329.74493 L583.97284 328.41504 L580.3547 326.6538 L576.99164 324.4925 L573.915 321.96204 L571.15564 319.09344 L568.74475 315.91785 L566.7134 312.46625 L565.09247 308.76996 L563.9132 304.85974 L563.26074 301.2296 L563.0 297.0 L563.20624 293.2334 L563.9129 289.14044 L565.0922 285.23022 L566.71313 281.53394 L568.7445 278.0824 L571.1554 274.9068 L573.91473 272.0382 L576.9914 269.50775 L580.35443 267.34644 L583.97266 265.5852 L587.815 264.25525 L591.3935 263.46017 L595.5747 263.02948 L597.0 263.0 L601.22943 263.2605 L605.30365 264.02124 L608.7698 265.09235 L612.46606 266.71326 L615.9176 268.74463 L619.0932 271.15552 L621.9618 273.91486 L624.49225 276.99152 L626.65356 280.35455 L628.4148 283.97278 L629.7446 287.81512 L630.61237 291.8506 L630.98663 296.04828 L630.8835 299.83533 L630.2861 303.96472 L629.3515 307.4886 L627.8743 311.25964 L625.9763 314.79626 L623.6885 318.06726 L621.0418 321.04156 L618.0675 323.68823 L614.7965 325.97607 L611.2598 327.87408 L607.4888 329.3512 L603.5142 330.3764 L599.3672 330.91858 L595.5749 330.9707 Z "/>
      </g>
      <g style="fill:#6272A6;stroke:none;">
        <path d="M597.0 365.0 C615.7777 365.0 631.0 380.2223 631.0 399.0 C631.0 417.7777 615.7777 433.0 597.0 433.0 C578.2223 433.0 563.0 417.7777 563.0 399.0 C563.0 380.2223 578.2223 365.0 597.0 365.0 Z "/>
      </g>
      <g style="fill:#77A662;stroke:none;">
        <path d="M595.5749 432.9707 L591.3937 432.54004 L587.8152 431.74493 L583.97284 430.41504 L580.3547 428.6538 L576.99164 426.4925 L573.915 423.96204 L571.15564 421.09344 L568.74475 417.91785 L566.7134 414.46625 L565.09247 410.76996 L563.9132 406.85974 L563.26074 403.2296 L563.0 399.0 L563.20624 395.2334 L563.9129 391.14044 L565.0922 387.23022 L566.71313 383.53394 L568.7445 380.0824 L571.1554 376.9068 L573.91473 374.0382 L576.9914 371.50775 L580.35443 369.34644 L583.97266 367.5852 L587.815 366.25537 L591.3935 365.46027 L595.5747 365.0296 L597.0 365.0 L601.22943 365.26044 L605.30365 366.02118 L608.7698 367.09222 L612.46606 368.71313 L615.9176 370.7445 L619.0932 373.1554 L621.9618 375.91473 L624.49225 378.9914 L626.65356 382.35443 L628.4148 385.97266 L629.7446 389.815 L630.61237 393.85046 L630.98663 398.04816 L630.8835 401.83533 L630.2861 405.96472 L629.3515 409.4886 L627.8743 413.25964 L625.9763 416.79626 L623.6885 420.06726 L621.0418 423.04156 L618.0675 425.68823 L614.7965 427.97607 L611.2598 429.87408 L607.4888 431.3512 L603.5142 432.3764 L599.3672 432.91858 L595.5749 432.9707 Z "/>
      </g>
      <g style="fill:#A6627D;stroke:none;">
        <path d="M597.0 467.0 C615.7777 467.0 631.0 482.2223 631.0 501.0 C631.0 519.7777 615.7777 535.0 597.0 535.0 C578.2223 535.0 563.0 519.7777 563.0 501.0 C563.0 482.2223 578.2223 467.0 597.0 467.0 Z "/>
      </g>
      <g style="fill:#6282A6;stroke:none;">
        <path d="M595.5749 534.9707 L591.3937 534.54004 L587.8152 533.74493 L583.97284 532.41504 L580.3547 530.6538 L576.99164 528.4925 L573.915 525.96204 L571.15564 523.09344 L568.74475 519.91785 L566.7134 516.46625 L565.09247 512.76996 L563.9132 508.85974 L563.26074 505.2296 L563.0 501.0 L563.20624 497.2334 L563.9129 493.14044 L565.0922 489.23022 L566.71313 485.53394 L568.7445 482.0824 L571.1554 478.9068 L573.91473 476.0382 L576.9914 473.50775 L580.35443 471.34644 L583.97266 469.5852 L587.815 468.25537 L591.3935 467.46027 L595.5747 467.0296 L597.0 467.0 L601.22943 467.26044 L605.30365 468.02118 L608.7698 469.09222 L612.46606 470.71313 L615.9176 472.7445 L619.0932 475.1554 L621.9618 477.91473 L624.49225 480.9914 L626.65356 484.35443 L628.4148 487.97266 L629.7446 491.815 L630.61237 495.85046 L630.98663 500.04816 L630.8835 503.83533 L630.2861 507.96472 L629.3515 511.4886 L627.8743 515.25964 L625.9763 518.79626 L623.6885 522.06726 L621.0418 525.04156 L618.0675 527.68823 L614.7965 529.9761 L611.2598 531.8741 L607.4888 533.3512 L603.5142 534.3764 L599.3672 534.9186 L595.5749 534.9707 Z "/>
      </g>
    </g>
  </g>
</svg>
