<?xml version="1.0" encoding="UTF-8"?>
<svg xmlns="http://www.w3.org/2000/svg" height="288px" version="1.1" width="480px">
  <g style="fill:#FF81B3;stroke:none;">
    <path d="M0.0 0.0 L480.0 0.0 L480.0 288.0 L0.0 288.0 L0.0 0.0 "/>
    <g style="">
      <g style="fill:#C7FF81;stroke:none;">
        <path d="M1388.9646 1432.1051 C1298.9421 1432.1051 1225.9646 1359.1276 1225.9646 1269.105 C1225.9646 1179.0826 1298.9423 1106.105 1388.9646 1106.105 C1478.987 1106.105 1551.9646 1179.0828 1551.9646 1269.1051 C1551.9646 1359.1276 1478.987 1432.1051 1388.9646 1432.1051 Z "/>
      </g>
      <g style="fill:#FFE981;stroke:none;">
        <path d="M1388.9646 1106.105 C1298.9423 1106.105 1225.9646 1033.1274 1225.9646 943.10504 C1225.9646 853.08264 1298.9423 780.10504 1388.9646 780.10504 C1478.987 780.10504 1551.9647 853.0827 1551.9647 943.1051 C1551.9646 1033.1274 1478.987 1106.105 1388.9646 1106.105 Z "/>
      </g>
      <g style="fill:#FF9C81;stroke:none;">
        <path d="M1388.9646 780.10504 C1298.9423 780.10504 1225.9646 707.12744 1225.9646 617.10504 C1225.9647 527.08264 1298.9424 454.10504 1388.9647 454.10504 C1478.987 454.10507 1551.9647 527.08264 1551.9647 617.1051 C1551.9647 707.12744 1478.987 780.10504 1388.9646 780.10504 Z "/>
      </g>
      <g style="fill:#FC81FF;stroke:none;">
        <path d="M1388.9647 454.10504 C1298.9424 454.10504 1225.9647 381.1275 1225.9647 291.10504 C1225.9647 201.08258 1298.9424 128.10506 1388.9647 128.10506 C1478.987 128.10507 1551.9647 201.08261 1551.9647 291.10507 C1551.9647 381.12753 1478.987 454.10507 1388.9647 454.10504 Z "/>
      </g>
      <g style="fill:#FD9AFF;stroke:none;">
        <path d="M1388.9647 128.10506 C1298.9424 128.10506 1225.9647 55.127502 1225.9647 -34.89496 C1225.9648 -124.91742 1298.9424 -197.89496 1388.9648 -197.89493 C1478.9872 -197.89493 1551.9647 -124.91739 1551.9647 -34.894928 C1551.9647 55.127533 1478.987 128.10507 1388.9647 128.10506 Z "/>
      </g>
      <g style="fill:#FD9AFF;stroke:none;">
        <path d="M1388.9648 -197.89493 C1298.9424 -197.89496 1225.9648 -270.8725 1225.9648 -360.89496 C1225.9648 -450.91742 1298.9424 -523.89496 1388.9648 -523.89496 C1478.9872 -523.89496 1551.9648 -450.91736 1551.9647 -360.8949 C1551.9647 -270.87244 1478.9872 -197.89493 1388.9648 -197.89493 Z "/>
      </g>
      <g style="fill:#FD9AFF;stroke:none;">
        <path d="M1388.9648 -523.89496 C1298.9424 -523.89496 1225.9648 -596.8725 1225.9648 -686.89496 C1225.9648 -776.91736 1298.9424 -849.8949 1388.9648 -849.8949 C1478.9873 -849.8949 1551.9648 -776.91736 1551.9648 -686.8949 C1551.9648 -596.87244 1478.9872 -523.89496 1388.9648 -523.89496 Z "/>
      </g>
      <g style="fill:#FD9AFF;stroke:none;">
        <path d="M1388.9648 -849.8949 C1298.9424 -849.8949 1225.9648 -922.87244 1225.9648 -1012.8949 C1225.9648 -1102.9174 1298.9424 -1175.8949 1388.9648 -1175.8949 C1478.9873 -1175.8949 1551.9648 -1102.9174 1551.9648 -1012.8949 C1551.9648 -922.87244 1478.9873 -849.8949 1388.9648 -849.8949 Z "/>
      </g>
      <g style="fill:#FD9AFF;stroke:none;">
        <path d="M947.70605 1384.3635 C884.05066 1320.7081 884.05066 1217.5023 947.70605 1153.8469 C1011.3616 1090.1914 1114.5674 1090.1914 1178.2229 1153.8469 C1241.8784 1217.5023 1241.8783 1320.7083 1178.2229 1384.3636 C1114.5674 1448.019 1011.3615 1448.019 947.70605 1384.3635 Z "/>
      </g>
      <g style="fill:#FDB3FF;stroke:none;">
        <path d="M947.70624 1058.3634 C884.0508 994.70795 884.0508 891.5021 947.70624 827.84656 C1011.3617 764.19116 1114.5676 764.19116 1178.223 827.84656 C1241.8784 891.5021 1241.8784 994.70795 1178.223 1058.3634 C1114.5676 1122.0188 1011.3617 1122.0188 947.70624 1058.3634 Z "/>
      </g>
      <g style="fill:#FDB3FF;stroke:none;">
        <path d="M947.7058 732.3638 C884.0504 668.7084 884.0504 565.50244 947.7058 501.84705 C1011.3613 438.19153 1114.5671 438.19153 1178.2227 501.84692 C1241.8782 565.50244 1241.878 668.7084 1178.2227 732.36383 C1114.5671 796.0192 1011.36127 796.0193 947.7058 732.3638 Z "/>
      </g>
      <g style="fill:#FDB3FF;stroke:none;">
        <path d="M947.706 406.36334 C884.05054 342.70792 884.05054 239.5021 947.70605 175.84659 C1011.36145 112.191086 1114.5674 112.19122 1178.2228 175.84662 C1241.8782 239.50201 1241.8783 342.70795 1178.2229 406.36334 C1114.5674 470.01892 1011.36145 470.01886 947.706 406.36334 Z "/>
      </g>
      <g style="fill:#FDB3FF;stroke:none;">
        <path d="M947.7063 80.36333 C884.0509 16.707916 884.0509 -86.49802 947.7064 -150.15353 C1011.3619 -213.8089 1114.5676 -213.8089 1178.2231 -150.15338 C1241.8785 -86.497986 1241.8787 16.707825 1178.2231 80.36322 C1114.5676 144.01874 1011.36176 144.01872 947.7063 80.36333 Z "/>
      </g>
      <g style="fill:#FDB3FF;stroke:none;">
        <path d="M947.7052 -245.6362 C884.04974 -309.2917 884.04974 -412.4975 947.70526 -476.153 C1011.3608 -539.80853 1114.5667 -539.80853 1178.2222 -476.153 C1241.8774 -412.49762 1241.8774 -309.2918 1178.2219 -245.63629 C1114.5665 -181.98077 1011.36066 -181.98077 947.7052 -245.6362 Z "/>
      </g>
      <g style="fill:#FECCFF;stroke:none;">
        <path d="M947.7033 -571.6369 C884.04785 -635.2924 884.04785 -738.4982 947.70337 -802.1538 C1011.3589 -865.8093 1114.5647 -865.8093 1178.2202 -802.1537 C1241.8755 -738.4985 1241.8755 -635.2924 1178.22 -571.637 C1114.5645 -507.9815 1011.3587 -507.9815 947.7033 -571.6369 Z "/>
      </g>
      <g style="fill:#FECCFF;stroke:none;">
        <path d="M947.70764 -897.63745 C884.0521 -961.29297 884.0521 -1064.4988 947.70764 -1128.1543 C1011.36304 -1191.8098 1114.5688 -1191.8096 1178.2242 -1128.1542 C1241.8798 -1064.4987 1241.8798 -961.29285 1178.2244 -897.6376 C1114.5688 -833.98193 1011.36304 -833.98193 947.70764 -897.63745 Z "/>
      </g>
      <g style="fill:#FECCFF;stroke:none;">
        <path d="M573.96375 1269.106 C573.96375 1179.0835 646.94135 1106.106 736.96375 1106.106 C826.98615 1106.106 899.9636 1179.0836 899.9636 1269.106 C899.9636 1359.1284 826.9861 1432.106 736.9636 1432.106 C646.9412 1432.106 573.9637 1359.1284 573.96375 1269.106 Z "/>
      </g>
      <g style="fill:#FECCFF;stroke:none;">
        <path d="M573.9648 943.10474 C573.9648 853.0824 646.94244 780.10474 736.9648 780.10474 C826.98724 780.10474 899.96484 853.08246 899.96484 943.1048 C899.96484 1033.1272 826.9872 1106.1047 736.9648 1106.1047 C646.94244 1106.1047 573.9648 1033.1272 573.9648 943.10474 Z "/>
      </g>
      <g style="fill:#FECCFF;stroke:none;">
        <path d="M573.9652 617.1046 C573.9653 527.0822 646.9429 454.10468 736.9652 454.10468 C826.9877 454.1047 899.9652 527.0823 899.9652 617.10474 C899.9652 707.1271 826.98755 780.1047 736.96515 780.1047 C646.94275 780.1047 573.9652 707.127 573.9652 617.1046 Z "/>
      </g>
      <g style="fill:#FEE5FF;stroke:none;">
        <path d="M573.96 291.1056 C573.96 201.08325 646.9375 128.1056 736.95996 128.1056 C826.9824 128.10562 899.95996 201.08328 899.95996 291.10562 C899.95996 381.12796 826.9824 454.10562 736.95996 454.1056 C646.9375 454.1056 573.96 381.12793 573.96 291.1056 Z "/>
      </g>
      <g style="fill:#FEE5FF;stroke:none;">
        <path d="M573.9647 -34.894653 C573.9647 -124.91699 646.9423 -197.89465 736.9647 -197.89462 C826.9872 -197.89462 899.9647 -124.91696 899.9647 -34.894623 C899.9647 55.127716 826.9872 128.10538 736.9647 128.10536 C646.94226 128.10536 573.9647 55.1277 573.9647 -34.894653 Z "/>
      </g>
      <g style="fill:#FEE5FF;stroke:none;">
        <path d="M573.96405 -360.89575 C573.96405 -450.9181 646.9416 -523.89575 736.96405 -523.89575 C826.9865 -523.89575 899.96405 -450.91803 899.96405 -360.8957 C899.96405 -270.87323 826.98645 -197.89572 736.964 -197.89572 C646.9416 -197.89575 573.96405 -270.8733 573.96405 -360.89575 Z "/>
      </g>
      <g style="fill:#FEE5FF;stroke:none;">
        <path d="M573.9638 -686.895 C573.96387 -776.9175 646.9414 -849.895 736.96387 -849.895 C826.9863 -849.895 899.96387 -776.91724 899.96387 -686.89496 C899.9638 -596.8725 826.98627 -523.8949 736.9638 -523.8949 C646.94135 -523.895 573.9638 -596.87256 573.9638 -686.895 Z "/>
      </g>
      <g style="fill:#FEE5FF;stroke:none;">
        <path d="M573.96655 -1012.8955 C573.96655 -1102.918 646.9441 -1175.8955 736.96655 -1175.8955 C826.989 -1175.8955 899.96655 -1102.918 899.96655 -1012.8955 C899.96655 -922.8733 826.989 -849.8955 736.96655 -849.8955 C646.9441 -849.8955 573.96655 -922.8733 573.96655 -1012.8955 Z "/>
      </g>
      <g style="fill:#C7FF81;stroke:none;">
        <path d="M295.70782 1153.8461 C359.36334 1090.1907 462.56915 1090.1907 526.22455 1153.8462 C589.88007 1217.5016 589.88 1320.7074 526.2246 1384.3628 C462.56912 1448.0183 359.36316 1448.0183 295.7078 1384.3629 C232.05228 1320.7075 232.05228 1217.5016 295.70782 1153.8461 Z "/>
      </g>
      <g style="fill:#FFE981;stroke:none;">
        <path d="M295.71173 827.84656 C359.36713 764.19104 462.5731 764.19116 526.22845 827.84656 C589.88385 891.5021 589.884 994.7079 526.22845 1058.3633 C462.57294 1122.0188 359.36713 1122.0188 295.71173 1058.3634 C232.05621 994.7079 232.05621 891.5021 295.71173 827.84656 Z "/>
      </g>
      <g style="fill:#FF9C81;stroke:none;">
        <path d="M295.7046 501.8462 C359.3601 438.1908 462.56604 438.19086 526.2213 501.84625 C589.87683 565.5017 589.8768 668.7076 526.2214 732.36304 C462.56586 796.01855 359.35992 796.0185 295.70453 732.36304 C232.04916 668.70764 232.04904 565.5017 295.7046 501.8462 Z "/>
      </g>
      <g style="fill:#FC81FF;stroke:none;">
        <path d="M295.70093 175.84459 C359.35632 112.18919 462.56213 112.18921 526.21765 175.84473 C589.87317 239.50014 589.87317 342.70593 526.21765 406.36133 C462.5621 470.0169 359.35632 470.0169 295.70093 406.36145 C232.04541 342.7059 232.04541 239.5001 295.70093 175.84459 Z "/>
      </g>
      <g style="fill:#FD9AFF;stroke:none;">
        <path d="M295.7145 -150.14847 C359.37003 -213.80383 462.57584 -213.80371 526.2314 -150.1482 C589.88684 -86.49292 589.88684 16.712906 526.2313 80.36841 C462.5758 144.02393 359.37 144.02393 295.7146 80.368515 C232.0591 16.712997 232.05899 -86.49295 295.7145 -150.14847 Z "/>
      </g>
      <g style="fill:#FD9AFF;stroke:none;">
        <path d="M295.71283 -476.14502 C359.36835 -539.80054 462.57416 -539.80054 526.2297 -476.14502 C589.8852 -412.4895 589.8852 -309.2837 526.2297 -245.62817 C462.57413 -181.97266 359.36832 -181.97266 295.71283 -245.6282 C232.0573 -309.2837 232.05731 -412.4895 295.71283 -476.14502 Z "/>
      </g>
      <g style="fill:#FD9AFF;stroke:none;">
        <path d="M295.70895 -802.15063 C359.36447 -865.80615 462.57028 -865.80615 526.2258 -802.15063 C589.8813 -738.4951 589.8813 -635.2893 526.22577 -571.6338 C462.57025 -507.97827 359.36444 -507.97827 295.70892 -571.6338 C232.05342 -635.2893 232.05344 -738.4951 295.70895 -802.15063 Z "/>
      </g>
      <g style="fill:#FD9AFF;stroke:none;">
        <path d="M295.70557 -1128.1614 C359.36108 -1191.8169 462.5669 -1191.8169 526.2224 -1128.1614 C589.8777 -1064.5059 589.8777 -961.30005 526.2224 -897.64453 C462.56662 -833.98926 359.36105 -833.98926 295.70557 -897.64453 C232.05003 -961.30005 232.05005 -1064.5059 295.70557 -1128.1614 Z "/>
      </g>
      <g style="fill:#FD9AFF;stroke:none;">
        <path d="M84.96295 1106.105 C174.98541 1106.1051 247.96294 1179.0828 247.96292 1269.1051 C247.96292 1359.1276 174.98538 1432.1051 84.96292 1432.1051 C-5.05954 1432.1051 -78.03711 1359.1274 -78.03705 1269.105 C-78.03705 1179.0826 -5.0595093 1106.105 84.96295 1106.105 Z "/>
      </g>
      <g style="fill:#FDB3FF;stroke:none;">
        <path d="M84.96149 780.10474 C174.98395 780.1048 247.9615 853.0824 247.96149 943.10486 C247.96149 1033.1272 174.98395 1106.1047 84.96149 1106.1047 C-5.060974 1106.1047 -78.03851 1033.1272 -78.03851 943.10474 C-78.03851 853.08234 -5.060974 780.10474 84.96149 780.10474 Z "/>
      </g>
      <g style="fill:#FDB3FF;stroke:none;">
        <path d="M84.96469 454.1047 C174.98715 454.1047 247.96457 527.0823 247.96457 617.10474 C247.96455 707.1271 174.987 780.10474 84.96454 780.1047 C-5.0579224 780.1047 -78.03546 707.1271 -78.03546 617.1047 C-78.0354 527.0823 -5.05777 454.10468 84.96469 454.1047 Z "/>
      </g>
      <g style="fill:#FDB3FF;stroke:none;">
        <path d="M84.96411 128.10605 C174.98657 128.10605 247.96411 201.0836 247.96411 291.10605 C247.9641 381.1285 174.98654 454.10605 84.96408 454.10605 C-5.05838 454.10602 -78.03589 381.12848 -78.03589 291.10602 C-78.03589 201.08357 -5.0583496 128.10603 84.96411 128.10605 Z "/>
      </g>
      <g style="fill:#FDB3FF;stroke:none;">
        <path d="M84.98367 -197.87881 C175.00613 -197.87881 247.98367 -124.901276 247.98367 -34.878815 C247.98366 55.14366 175.0061 128.12119 84.98364 128.12119 C-5.0388184 128.12117 -78.01636 55.14363 -78.01636 -34.878845 C-78.0163 -124.901306 -5.038788 -197.87881 84.98367 -197.87881 Z "/>
      </g>
      <g style="fill:#FDB3FF;stroke:none;">
        <path d="M84.96417 -523.8984 C174.98663 -523.8983 247.96417 -450.92078 247.96417 -360.89832 C247.96416 -270.87585 174.9866 -197.89835 84.96414 -197.89835 C-5.058319 -197.89835 -78.03583 -270.87592 -78.03583 -360.89838 C-78.03583 -450.92084 -5.0582886 -523.8984 84.96417 -523.8984 Z "/>
      </g>
      <g style="fill:#FECCFF;stroke:none;">
        <path d="M84.972015 -849.8882 C174.99448 -849.8882 247.97202 -776.91064 247.97188 -686.88794 C247.97188 -596.8655 174.99432 -523.88794 84.97186 -523.888 C-5.050598 -523.88824 -78.02814 -596.8658 -78.02814 -686.88824 C-78.028015 -776.91064 -5.0504456 -849.8882 84.972015 -849.8882 Z "/>
      </g>
      <g style="fill:#FECCFF;stroke:none;">
        <path d="M84.9646 -1175.8958 C174.98706 -1175.8958 247.9646 -1102.9182 247.96458 -1012.89575 C247.96458 -922.8733 174.98703 -849.89575 84.96457 -849.89575 C-5.057892 -849.896 -78.0354 -922.87354 -78.0354 -1012.896 C-78.0354 -1102.9185 -5.0578613 -1175.896 84.9646 -1175.8958 Z "/>
      </g>
      <g style="fill:#FECCFF;stroke:none;">
        <path d="M-125.77582 1153.8467 C-62.1203 1217.5022 -62.12036 1320.708 -125.77588 1384.3635 C-189.43127 1448.0189 -292.6372 1448.0189 -356.29272 1384.3634 C-419.94824 1320.708 -419.94806 1217.5022 -356.29266 1153.8467 C-292.63715 1090.1912 -189.43134 1090.1912 -125.77582 1153.8467 Z "/>
      </g>
      <g style="fill:#FECCFF;stroke:none;">
        <path d="M-125.782166 827.84344 C-62.126648 891.49896 -62.126648 994.7048 -125.78204 1058.3604 C-189.43756 1122.0156 -292.64337 1122.0159 -356.2989 1058.3604 C-419.9544 994.7049 -419.9544 891.49896 -356.2989 827.84357 C-292.6435 764.18805 -189.43768 764.18805 -125.782166 827.84344 Z "/>
      </g>
      <g style="fill:#FECCFF;stroke:none;">
        <path d="M-125.78052 501.84613 C-62.125 565.50165 -62.125183 668.70746 -125.78058 732.363 C-189.43597 796.0184 -292.64178 796.0185 -356.2973 732.363 C-419.95282 668.7074 -419.95276 565.5016 -356.29736 501.84613 C-292.64197 438.19073 -189.43604 438.19073 -125.78052 501.84613 Z "/>
      </g>
      <g style="fill:#FEE5FF;stroke:none;">
        <path d="M-125.78162 175.84613 C-62.1261 239.50166 -62.1261 342.70746 -125.78162 406.36298 C-189.43713 470.0185 -292.64294 470.0185 -356.29846 406.36298 C-419.95398 342.70746 -419.95398 239.50163 -356.29846 175.84612 C-292.64294 112.19061 -189.43713 112.19061 -125.78162 175.84613 Z "/>
      </g>
      <g style="fill:#FEE5FF;stroke:none;">
        <path d="M-125.77911 -150.16705 C-62.123657 -86.511536 -62.123657 16.69429 -125.779175 80.34956 C-189.4347 144.00531 -292.6405 144.00531 -356.29602 80.34953 C-419.95154 16.69426 -419.95154 -86.511566 -356.29596 -150.16705 C-292.64044 -213.82257 -189.43463 -213.82257 -125.77911 -150.16705 Z "/>
      </g>
      <g style="fill:#FEE5FF;stroke:none;">
        <path d="M-125.78644 -476.16608 C-62.13092 -412.5103 -62.13092 -309.30475 -125.786316 -245.64899 C-189.44183 -181.99371 -292.64764 -181.99371 -356.30316 -245.64899 C-419.95868 -309.3045 -419.95868 -412.5103 -356.30316 -476.16583 C-292.64777 -539.82135 -189.44196 -539.82135 -125.78644 -476.16608 Z "/>
      </g>
      <g style="fill:#FEE5FF;stroke:none;">
        <path d="M-125.77295 -802.13525 C-62.117493 -738.48004 -62.117493 -635.274 -125.77301 -571.6187 C-189.42853 -507.96295 -292.63434 -507.96295 -356.28986 -571.6187 C-419.94537 -635.274 -419.94537 -738.4798 -356.2898 -802.1354 C-292.63428 -865.7909 -189.42847 -865.7908 -125.77295 -802.13525 Z "/>
      </g>
      <g style="fill:#FEE5FF;stroke:none;">
        <path d="M-125.79297 -1128.1919 C-62.13745 -1064.5361 -62.13745 -961.33057 -125.79285 -897.6748 C-189.44836 -834.01953 -292.65417 -834.01965 -356.3097 -897.6749 C-419.9652 -961.33044 -419.9652 -1064.5363 -356.3097 -1128.1918 C-292.6543 -1191.8473 -189.44849 -1191.8472 -125.79297 -1128.1919 Z "/>
      </g>
      <g style="fill:#C7FF81;stroke:none;">
        <path d="M-404.03058 1269.1099 C-404.03064 1359.1322 -477.0083 1432.1097 -567.03076 1432.1097 C-657.053 1432.1097 -730.03076 1359.1322 -730.03076 1269.1097 C-730.03076 1179.0873 -657.053 1106.1097 -567.03076 1106.1099 C-477.00824 1106.1099 -404.03058 1179.0874 -404.03058 1269.1099 Z "/>
      </g>
      <g style="fill:#FFE981;stroke:none;">
        <path d="M-404.02972 943.1115 C-404.02972 1033.134 -477.0074 1106.1116 -567.0298 1106.1116 C-657.05225 1106.1115 -730.0298 1033.1339 -730.02966 943.11145 C-730.02966 853.089 -657.0521 780.11145 -567.02966 780.1115 C-477.0074 780.1115 -404.02972 853.08905 -404.02972 943.1115 Z "/>
      </g>
      <g style="fill:#FF9C81;stroke:none;">
        <path d="M-404.03485 617.1063 C-404.03485 707.1288 -477.0124 780.1064 -567.0348 780.1064 C-657.05725 780.1063 -730.0348 707.1288 -730.0348 617.1063 C-730.0348 527.08386 -657.05725 454.10632 -567.0348 454.10635 C-477.01233 454.10638 -404.0348 527.08386 -404.03485 617.1063 Z "/>
      </g>
      <g style="fill:#FC81FF;stroke:none;">
        <path d="M-404.02747 291.11713 C-404.02747 381.1396 -477.005 454.11713 -567.02747 454.1171 C-657.0499 454.11707 -730.02747 381.13953 -730.02747 291.11707 C-730.02747 201.09462 -657.0499 128.11708 -567.02747 128.1171 C-477.005 128.11711 -404.02747 201.09465 -404.02747 291.11713 Z "/>
      </g>
      <g style="fill:#FD9AFF;stroke:none;">
        <path d="M-404.03748 -34.911957 C-404.03748 55.11052 -477.015 128.08806 -567.0375 128.08804 C-657.05994 128.08803 -730.0375 55.11049 -730.0375 -34.911957 C-730.0375 -124.93442 -657.05994 -197.91196 -567.0375 -197.91196 C-477.01495 -197.91196 -404.0374 -124.93442 -404.03748 -34.911957 Z "/>
      </g>
      <g style="fill:#FD9AFF;stroke:none;">
        <path d="M-404.0406 -360.9029 C-404.0406 -270.88043 -477.01813 -197.90292 -567.04065 -197.90292 C-657.0631 -197.90292 -730.04065 -270.8805 -730.04065 -360.90295 C-730.0405 -450.9254 -657.063 -523.90295 -567.0405 -523.9029 C-477.01813 -523.9029 -404.0406 -450.92535 -404.0406 -360.9029 Z "/>
      </g>
      <g style="fill:#FD9AFF;stroke:none;">
        <path d="M-404.03546 -686.8931 C-404.03546 -596.87067 -477.013 -523.8931 -567.0354 -523.8931 C-657.05786 -523.8932 -730.0354 -596.8707 -730.0354 -686.8932 C-730.0354 -776.91565 -657.05786 -849.8932 -567.0354 -849.8932 C-477.01294 -849.8932 -404.03546 -776.91565 -404.03546 -686.8931 Z "/>
      </g>
      <g style="fill:#FD9AFF;stroke:none;">
        <path d="M-404.0354 -1012.88245 C-404.0354 -922.86 -477.01294 -849.88245 -567.0354 -849.88245 C-657.05786 -849.88245 -730.0354 -922.86 -730.0354 -1012.88245 C-730.0354 -1102.9049 -657.05786 -1175.8824 -567.0354 -1175.8824 C-477.01294 -1175.8824 -404.0354 -1102.9049 -404.0354 -1012.88245 Z "/>
      </g>
      <g style="fill:#FD9AFF;stroke:none;">
        <path d="M-777.7776 1384.3611 C-841.43335 1448.0166 -944.6389 1448.0166 -1008.2947 1384.3611 C-1071.95 1320.7057 -1071.95 1217.4999 -1008.2947 1153.8444 C-944.63916 1090.1888 -841.43335 1090.1888 -777.77783 1153.8442 C-714.1223 1217.4998 -714.1223 1320.7056 -777.7776 1384.3611 Z "/>
      </g>
      <g style="fill:#FDB3FF;stroke:none;">
        <path d="M-777.7766 1058.3674 C-841.4321 1122.023 -944.63794 1122.0228 -1008.29346 1058.3674 C-1071.949 994.7119 -1071.9489 891.5061 -1008.29333 827.8506 C-944.6378 764.19507 -841.432 764.19507 -777.7765 827.8506 C-714.1212 891.506 -714.12134 994.7119 -777.7766 1058.3674 Z "/>
      </g>
      <g style="fill:#FDB3FF;stroke:none;">
        <path d="M-777.7772 732.3629 C-841.43274 796.01843 -944.63855 796.01843 -1008.29407 732.3629 C-1071.9496 668.7075 -1071.9496 565.5017 -1008.29407 501.8462 C-944.6388 438.19067 -841.43274 438.19067 -777.77747 501.84607 C-714.12195 565.5016 -714.1217 668.7074 -777.7772 732.3629 Z "/>
      </g>
      <g style="fill:#FDB3FF;stroke:none;">
        <path d="M-777.77625 406.3606 C-841.43176 470.0161 -944.6376 470.0161 -1008.2931 406.3606 C-1071.9486 342.7052 -1071.9486 239.49937 -1008.2931 175.84387 C-944.6376 112.188354 -841.432 112.188354 -777.77625 175.84377 C-714.121 239.49928 -714.121 342.70508 -777.77625 406.3606 Z "/>
      </g>
      <g style="fill:#FDB3FF;stroke:none;">
        <path d="M-777.77625 80.35512 C-841.43176 144.01062 -944.6376 144.01062 -1008.2931 80.35509 C-1071.9486 16.69957 -1071.9486 -86.506226 -1008.2931 -150.16174 C-944.6378 -213.81726 -841.43176 -213.81726 -777.7765 -150.16174 C-714.1207 -86.506195 -714.1207 16.6996 -777.77625 80.35512 Z "/>
      </g>
      <g style="fill:#FDB3FF;stroke:none;">
        <path d="M-777.7831 -245.60706 C-841.4386 -181.95154 -944.6444 -181.95154 -1008.2999 -245.60693 C-1071.9554 -309.26245 -1071.9554 -412.46826 -1008.2998 -476.12378 C-944.6443 -539.7793 -841.4387 -539.7793 -777.78296 -476.12378 C-714.1278 -412.46838 -714.1278 -309.26257 -777.7831 -245.60706 Z "/>
      </g>
      <g style="fill:#FECCFF;stroke:none;">
        <path d="M-777.79224 -571.5891 C-841.44775 -507.9336 -944.65356 -507.9336 -1008.3091 -571.5891 C-1071.9646 -635.24475 -1071.9646 -738.4503 -1008.3091 -802.1061 C-944.6538 -865.76135 -841.44775 -865.76135 -777.7925 -802.1061 C-714.1367 -738.4503 -714.1367 -635.24475 -777.79224 -571.5891 Z "/>
      </g>
      <g style="fill:#FECCFF;stroke:none;">
        <path d="M-777.77905 -897.63293 C-841.4346 -833.9772 -944.6404 -833.9772 -1008.2959 -897.6327 C-1071.9514 -961.2882 -1071.9514 -1064.494 -1008.2959 -1128.1495 C-944.6404 -1191.805 -841.4348 -1191.805 -777.77905 -1128.1495 C-714.1238 -1064.4943 -714.1238 -961.2882 -777.77905 -897.63293 Z "/>
      </g>
    </g>
  </g>
</svg>
