<?xml version="1.0" encoding="UTF-8"?>
<svg xmlns="http://www.w3.org/2000/svg" height="288px" version="1.1" width="480px">
  <g style="fill:#A69362;stroke:none;">
    <path d="M0.0 0.0 L480.0 0.0 L480.0 288.0 L0.0 288.0 L0.0 0.0 "/>
    <g style="">
      <g style="fill:#A69567;stroke:none;">
        <path d="M-117.0 -247.0 C-98.22232 -247.0 -83.0 -231.77768 -83.0 -213.0 C-83.0 -194.22232 -98.22232 -179.0 -117.0 -179.0 C-135.77768 -179.0 -151.0 -194.22232 -151.0 -213.0 C-151.0 -231.77768 -135.77768 -247.0 -117.0 -247.0 Z "/>
      </g>
      <g style="fill:#A6966D;stroke:none;">
        <path d="M-117.0 -145.0 C-98.22232 -145.0 -83.0 -129.77768 -83.0 -111.0 C-83.0 -92.22232 -98.22232 -77.0 -117.0 -77.0 C-135.77768 -77.0 -151.0 -92.22232 -151.0 -111.0 C-151.0 -129.77768 -135.77768 -145.0 -117.0 -145.0 Z "/>
      </g>
      <g style="fill:#A69873;stroke:none;">
        <path d="M-117.0 -43.0 C-98.22232 -43.0 -83.0 -27.77768 -83.0 -9.0 C-83.0 9.777679 -98.22232 25.0 -117.0 25.0 C-135.77768 25.0 -151.0 9.777679 -151.0 -9.0 C-151.0 -27.77768 -135.77768 -43.0 -117.0 -43.0 Z "/>
      </g>
      <g style="fill:#A69A78;stroke:none;">
        <path d="M-117.0 59.0 C-98.22232 59.0 -83.0 74.22232 -83.0 93.0 C-83.0 111.77768 -98.22232 127.0 -117.0 127.0 C-135.77768 127.0 -151.0 111.77768 -151.0 93.0 C-151.0 74.22232 -135.77768 59.0 -117.0 59.0 Z "/>
      </g>
      <g style="fill:#A69B7E;stroke:none;">
        <path d="M-117.0 161.0 C-98.22232 161.0 -83.0 176.22232 -83.0 195.0 C-83.0 213.77768 -98.22232 229.0 -117.0 229.0 C-135.77768 229.0 -151.0 213.77768 -151.0 195.0 C-151.0 176.22232 -135.77768 161.0 -117.0 161.0 Z "/>
      </g>
      <g style="fill:#A69D84;stroke:none;">
        <path d="M-117.0 263.0 C-98.22232 263.0 -83.0 278.2223 -83.0 297.0 C-83.0 315.7777 -98.22232 331.0 -117.0 331.0 C-135.77768 331.0 -151.0 315.7777 -151.0 297.0 C-151.0 278.2223 -135.77768 263.0 -117.0 263.0 Z "/>
      </g>
      <g style="fill:#A69567;stroke:none;">
        <path d="M-117.0 365.0 C-98.22232 365.0 -83.0 380.2223 -83.0 399.0 C-83.0 417.7777 -98.22232 433.0 -117.0 433.0 C-135.77768 433.0 -151.0 417.7777 -151.0 399.0 C-151.0 380.2223 -135.77768 365.0 -117.0 365.0 Z "/>
      </g>
      <g style="fill:#A6966D;stroke:none;">
        <path d="M-117.0 467.0 C-98.22232 467.0 -83.0 482.2223 -83.0 501.0 C-83.0 519.7777 -98.22232 535.0 -117.0 535.0 C-135.77768 535.0 -151.0 519.7777 -151.0 501.0 C-151.0 482.2223 -135.77768 467.0 -117.0 467.0 Z "/>
      </g>
      <g style="fill:#A69873;stroke:none;">
        <path d="M-15.0 -247.0 C3.7776794 -247.0 19.0 -231.77768 19.0 -213.0 C19.0 -194.22232 3.7776794 -179.0 -15.0 -179.0 C-33.77768 -179.0 -49.0 -194.22232 -49.0 -213.0 C-49.0 -231.77768 -33.77768 -247.0 -15.0 -247.0 Z "/>
      </g>
      <g style="fill:#A69A78;stroke:none;">
        <path d="M-15.0 -145.0 C3.7776794 -145.0 19.0 -129.77768 19.0 -111.0 C19.0 -92.22232 3.7776794 -77.0 -15.0 -77.0 C-33.77768 -77.0 -49.0 -92.22232 -49.0 -111.0 C-49.0 -129.77768 -33.77768 -145.0 -15.0 -145.0 Z "/>
      </g>
      <g style="fill:#A69B7E;stroke:none;">
        <path d="M-15.0 -43.0 C3.7776794 -43.0 19.0 -27.77768 19.0 -9.0 C19.0 9.777679 3.7776794 25.0 -15.0 25.0 C-33.77768 25.0 -49.0 9.777679 -49.0 -9.0 C-49.0 -27.77768 -33.77768 -43.0 -15.0 -43.0 Z "/>
      </g>
      <g style="fill:#A69D84;stroke:none;">
        <path d="M-15.0 59.0 C3.7776794 59.0 19.0 74.22232 19.0 93.0 C19.0 111.77768 3.7776794 127.0 -15.0 127.0 C-33.77768 127.0 -49.0 111.77768 -49.0 93.0 C-49.0 74.22232 -33.77768 59.0 -15.0 59.0 Z "/>
      </g>
      <g style="fill:#A69567;stroke:none;">
        <path d="M-15.0 161.0 C3.7776794 161.0 19.0 176.22232 19.0 195.0 C19.0 213.77768 3.7776794 229.0 -15.0 229.0 C-33.77768 229.0 -49.0 213.77768 -49.0 195.0 C-49.0 176.22232 -33.77768 161.0 -15.0 161.0 Z "/>
      </g>
      <g style="fill:#A6966D;stroke:none;">
        <path d="M-15.0 263.0 C3.7776794 263.0 19.0 278.2223 19.0 297.0 C19.0 315.7777 3.7776794 331.0 -15.0 331.0 C-33.77768 331.0 -49.0 315.7777 -49.0 297.0 C-49.0 278.2223 -33.77768 263.0 -15.0 263.0 Z "/>
      </g>
      <g style="fill:#A69873;stroke:none;">
        <path d="M-15.0 365.0 C3.7776794 365.0 19.0 380.2223 19.0 399.0 C19.0 417.7777 3.7776794 433.0 -15.0 433.0 C-33.77768 433.0 -49.0 417.7777 -49.0 399.0 C-49.0 380.2223 -33.77768 365.0 -15.0 365.0 Z "/>
      </g>
      <g style="fill:#A69A78;stroke:none;">
        <path d="M-15.0 467.0 C3.7776794 467.0 19.0 482.2223 19.0 501.0 C19.0 519.7777 3.7776794 535.0 -15.0 535.0 C-33.77768 535.0 -49.0 519.7777 -49.0 501.0 C-49.0 482.2223 -33.77768 467.0 -15.0 467.0 Z "/>
      </g>
      <g style="fill:#A69B7E;stroke:none;">
        <path d="M87.0 -247.0 C105.77768 -247.0 121.0 -231.77768 121.0 -213.0 C121.0 -194.22232 105.77768 -179.0 87.0 -179.0 C68.22232 -179.0 53.0 -194.22232 53.0 -213.0 C53.0 -231.77768 68.22232 -247.0 87.0 -247.0 Z "/>
      </g>
      <g style="fill:#A69D84;stroke:none;">
        <path d="M87.0 -145.0 C105.77768 -145.0 121.0 -129.77768 121.0 -111.0 C121.0 -92.22232 105.77768 -77.0 87.0 -77.0 C68.22232 -77.0 53.0 -92.22232 53.0 -111.0 C53.0 -129.77768 68.22232 -145.0 87.0 -145.0 Z "/>
      </g>
      <g style="fill:#A69567;stroke:none;">
        <path d="M87.0 -43.0 C105.77768 -43.0 121.0 -27.77768 121.0 -9.0 C121.0 9.777679 105.77768 25.0 87.0 25.0 C68.22232 25.0 53.0 9.777679 53.0 -9.0 C53.0 -27.77768 68.22232 -43.0 87.0 -43.0 Z "/>
      </g>
      <g style="fill:#A6966D;stroke:none;">
        <path d="M87.0 59.0 C105.77768 59.0 121.0 74.22232 121.0 93.0 C121.0 111.77768 105.77768 127.0 87.0 127.0 C68.22232 127.0 53.0 111.77768 53.0 93.0 C53.0 74.22232 68.22232 59.0 87.0 59.0 Z "/>
      </g>
      <g style="fill:#A69873;stroke:none;">
        <path d="M87.0 161.0 C105.77768 161.0 121.0 176.22232 121.0 195.0 C121.0 213.77768 105.77768 229.0 87.0 229.0 C68.22232 229.0 53.0 213.77768 53.0 195.0 C53.0 176.22232 68.22232 161.0 87.0 161.0 Z "/>
      </g>
      <g style="fill:#A69A78;stroke:none;">
        <path d="M87.0 263.0 C105.77768 263.0 121.0 278.2223 121.0 297.0 C121.0 315.7777 105.77768 331.0 87.0 331.0 C68.22232 331.0 53.0 315.7777 53.0 297.0 C53.0 278.2223 68.22232 263.0 87.0 263.0 Z "/>
      </g>
      <g style="fill:#A69B7E;stroke:none;">
        <path d="M87.0 365.0 C105.77768 365.0 121.0 380.2223 121.0 399.0 C121.0 417.7777 105.77768 433.0 87.0 433.0 C68.22232 433.0 53.0 417.7777 53.0 399.0 C53.0 380.2223 68.22232 365.0 87.0 365.0 Z "/>
      </g>
      <g style="fill:#A69D84;stroke:none;">
        <path d="M87.0 467.0 C105.77768 467.0 121.0 482.2223 121.0 501.0 C121.0 519.7777 105.77768 535.0 87.0 535.0 C68.22232 535.0 53.0 519.7777 53.0 501.0 C53.0 482.2223 68.22232 467.0 87.0 467.0 Z "/>
      </g>
      <g style="fill:#A6A362;stroke:none;">
        <path d="M189.0 -247.0 C207.77768 -247.0 223.0 -231.77768 223.0 -213.0 C223.0 -194.22232 207.77768 -179.0 189.0 -179.0 C170.22232 -179.0 155.0 -194.22232 155.0 -213.0 C155.0 -231.77768 170.22232 -247.0 189.0 -247.0 Z "/>
      </g>
      <g style="fill:#9E62A6;stroke:none;">
        <path d="M189.0 -145.0 C207.77768 -145.0 223.0 -129.77768 223.0 -111.0 C223.0 -92.22232 207.77768 -77.0 189.0 -77.0 C170.22232 -77.0 155.0 -92.22232 155.0 -111.0 C155.0 -129.77768 170.22232 -145.0 189.0 -145.0 Z "/>
      </g>
      <g style="fill:#62A698;stroke:none;">
        <path d="M189.0 -43.0 C207.77768 -43.0 223.0 -27.77768 223.0 -9.0 C223.0 9.777679 207.77768 25.0 189.0 25.0 C170.22232 25.0 155.0 9.777679 155.0 -9.0 C155.0 -27.77768 170.22232 -43.0 189.0 -43.0 Z "/>
      </g>
      <g style="fill:#A69567;stroke:none;">
        <path d="M189.0 59.0 C207.77768 59.0 223.0 74.22232 223.0 93.0 C223.0 111.77768 207.77768 127.0 189.0 127.0 C170.22232 127.0 155.0 111.77768 155.0 93.0 C155.0 74.22232 170.22232 59.0 189.0 59.0 Z "/>
      </g>
      <g style="fill:#A6966D;stroke:none;">
        <path d="M189.0 161.0 C207.77768 161.0 223.0 176.22232 223.0 195.0 C223.0 213.77768 207.77768 229.0 189.0 229.0 C170.22232 229.0 155.0 213.77768 155.0 195.0 C155.0 176.22232 170.22232 161.0 189.0 161.0 Z "/>
      </g>
      <g style="fill:#A69873;stroke:none;">
        <path d="M189.0 263.0 C207.77768 263.0 223.0 278.2223 223.0 297.0 C223.0 315.7777 207.77768 331.0 189.0 331.0 C170.22232 331.0 155.0 315.7777 155.0 297.0 C155.0 278.2223 170.22232 263.0 189.0 263.0 Z "/>
      </g>
      <g style="fill:#A69A78;stroke:none;">
        <path d="M189.0 365.0 C207.77768 365.0 223.0 380.2223 223.0 399.0 C223.0 417.7777 207.77768 433.0 189.0 433.0 C170.22232 433.0 155.0 417.7777 155.0 399.0 C155.0 380.2223 170.22232 365.0 189.0 365.0 Z "/>
      </g>
      <g style="fill:#A69B7E;stroke:none;">
        <path d="M189.0 467.0 C207.77768 467.0 223.0 482.2223 223.0 501.0 C223.0 519.7777 207.77768 535.0 189.0 535.0 C170.22232 535.0 155.0 519.7777 155.0 501.0 C155.0 482.2223 170.22232 467.0 189.0 467.0 Z "/>
      </g>
      <g style="fill:#A69D84;stroke:none;">
        <path d="M291.0 -247.0 C309.77768 -247.0 325.0 -231.77768 325.0 -213.0 C325.0 -194.22232 309.77768 -179.0 291.0 -179.0 C272.22232 -179.0 257.0 -194.22232 257.0 -213.0 C257.0 -231.77768 272.22232 -247.0 291.0 -247.0 Z "/>
      </g>
      <g style="fill:#A69567;stroke:none;">
        <path d="M291.0 -145.0 C309.77768 -145.0 325.0 -129.77768 325.0 -111.0 C325.0 -92.22232 309.77768 -77.0 291.0 -77.0 C272.22232 -77.0 257.0 -92.22232 257.0 -111.0 C257.0 -129.77768 272.22232 -145.0 291.0 -145.0 Z "/>
      </g>
      <g style="fill:#A6966D;stroke:none;">
        <path d="M291.0 -43.0 C309.77768 -43.0 325.0 -27.77768 325.0 -9.0 C325.0 9.777679 309.77768 25.0 291.0 25.0 C272.22232 25.0 257.0 9.777679 257.0 -9.0 C257.0 -27.77768 272.22232 -43.0 291.0 -43.0 Z "/>
      </g>
      <g style="fill:#A69873;stroke:none;">
        <path d="M291.0 59.0 C309.77768 59.0 325.0 74.22232 325.0 93.0 C325.0 111.77768 309.77768 127.0 291.0 127.0 C272.22232 127.0 257.0 111.77768 257.0 93.0 C257.0 74.22232 272.22232 59.0 291.0 59.0 Z "/>
      </g>
      <g style="fill:#A69A78;stroke:none;">
        <path d="M291.0 161.0 C309.77768 161.0 325.0 176.22232 325.0 195.0 C325.0 213.77768 309.77768 229.0 291.0 229.0 C272.22232 229.0 257.0 213.77768 257.0 195.0 C257.0 176.22232 272.22232 161.0 291.0 161.0 Z "/>
      </g>
      <g style="fill:#A69B7E;stroke:none;">
        <path d="M291.0 263.0 C309.77768 263.0 325.0 278.2223 325.0 297.0 C325.0 315.7777 309.77768 331.0 291.0 331.0 C272.22232 331.0 257.0 315.7777 257.0 297.0 C257.0 278.2223 272.22232 263.0 291.0 263.0 Z "/>
      </g>
      <g style="fill:#A69D84;stroke:none;">
        <path d="M291.0 365.0 C309.77768 365.0 325.0 380.2223 325.0 399.0 C325.0 417.7777 309.77768 433.0 291.0 433.0 C272.22232 433.0 257.0 417.7777 257.0 399.0 C257.0 380.2223 272.22232 365.0 291.0 365.0 Z "/>
      </g>
      <g style="fill:#A69567;stroke:none;">
        <path d="M291.0 467.0 C309.77768 467.0 325.0 482.2223 325.0 501.0 C325.0 519.7777 309.77768 535.0 291.0 535.0 C272.22232 535.0 257.0 519.7777 257.0 501.0 C257.0 482.2223 272.22232 467.0 291.0 467.0 Z "/>
      </g>
      <g style="fill:#A6966D;stroke:none;">
        <path d="M393.0 -247.0 C411.7777 -247.0 427.0 -231.77768 427.0 -213.0 C427.0 -194.22232 411.7777 -179.0 393.0 -179.0 C374.2223 -179.0 359.0 -194.22232 359.0 -213.0 C359.0 -231.77768 374.2223 -247.0 393.0 -247.0 Z "/>
      </g>
      <g style="fill:#A69873;stroke:none;">
        <path d="M393.0 -145.0 C411.7777 -145.0 427.0 -129.77768 427.0 -111.0 C427.0 -92.22232 411.7777 -77.0 393.0 -77.0 C374.2223 -77.0 359.0 -92.22232 359.0 -111.0 C359.0 -129.77768 374.2223 -145.0 393.0 -145.0 Z "/>
      </g>
      <g style="fill:#A69A78;stroke:none;">
        <path d="M393.0 -43.0 C411.7777 -43.0 427.0 -27.77768 427.0 -9.0 C427.0 9.777679 411.7777 25.0 393.0 25.0 C374.2223 25.0 359.0 9.777679 359.0 -9.0 C359.0 -27.77768 374.2223 -43.0 393.0 -43.0 Z "/>
      </g>
      <g style="fill:#A69B7E;stroke:none;">
        <path d="M393.0 59.0 C411.7777 59.0 427.0 74.22232 427.0 93.0 C427.0 111.77768 411.7777 127.0 393.0 127.0 C374.2223 127.0 359.0 111.77768 359.0 93.0 C359.0 74.22232 374.2223 59.0 393.0 59.0 Z "/>
      </g>
      <g style="fill:#A69D84;stroke:none;">
        <path d="M393.0 161.0 C411.7777 161.0 427.0 176.22232 427.0 195.0 C427.0 213.77768 411.7777 229.0 393.0 229.0 C374.2223 229.0 359.0 213.77768 359.0 195.0 C359.0 176.22232 374.2223 161.0 393.0 161.0 Z "/>
      </g>
      <g style="fill:#A69567;stroke:none;">
        <path d="M393.0 263.0 C411.7777 263.0 427.0 278.2223 427.0 297.0 C427.0 315.7777 411.7777 331.0 393.0 331.0 C374.2223 331.0 359.0 315.7777 359.0 297.0 C359.0 278.2223 374.2223 263.0 393.0 263.0 Z "/>
      </g>
      <g style="fill:#A6966D;stroke:none;">
        <path d="M393.0 365.0 C411.7777 365.0 427.0 380.2223 427.0 399.0 C427.0 417.7777 411.7777 433.0 393.0 433.0 C374.2223 433.0 359.0 417.7777 359.0 399.0 C359.0 380.2223 374.2223 365.0 393.0 365.0 Z "/>
      </g>
      <g style="fill:#A69873;stroke:none;">
        <path d="M393.0 467.0 C411.7777 467.0 427.0 482.2223 427.0 501.0 C427.0 519.7777 411.7777 535.0 393.0 535.0 C374.2223 535.0 359.0 519.7777 359.0 501.0 C359.0 482.2223 374.2223 467.0 393.0 467.0 Z "/>
      </g>
      <g style="fill:#A69A78;stroke:none;">
        <path d="M495.0 -247.0 C513.7777 -247.0 529.0 -231.77768 529.0 -213.0 C529.0 -194.22232 513.7777 -179.0 495.0 -179.0 C476.2223 -179.0 461.0 -194.22232 461.0 -213.0 C461.0 -231.77768 476.2223 -247.0 495.0 -247.0 Z "/>
      </g>
      <g style="fill:#A69B7E;stroke:none;">
        <path d="M495.0 -145.0 C513.7777 -145.0 529.0 -129.77768 529.0 -111.0 C529.0 -92.22232 513.7777 -77.0 495.0 -77.0 C476.2223 -77.0 461.0 -92.22232 461.0 -111.0 C461.0 -129.77768 476.2223 -145.0 495.0 -145.0 Z "/>
      </g>
      <g style="fill:#A69D84;stroke:none;">
        <path d="M495.0 -43.0 C513.7777 -43.0 529.0 -27.77768 529.0 -9.0 C529.0 9.777679 513.7777 25.0 495.0 25.0 C476.2223 25.0 461.0 9.777679 461.0 -9.0 C461.0 -27.77768 476.2223 -43.0 495.0 -43.0 Z "/>
      </g>
      <g style="fill:#A6A362;stroke:none;">
        <path d="M495.0 59.0 C513.7777 59.0 529.0 74.22232 529.0 93.0 C529.0 111.77768 513.7777 127.0 495.0 127.0 C476.2223 127.0 461.0 111.77768 461.0 93.0 C461.0 74.22232 476.2223 59.0 495.0 59.0 Z "/>
      </g>
      <g style="fill:#9E62A6;stroke:none;">
        <path d="M495.0 161.0 C513.7777 161.0 529.0 176.22232 529.0 195.0 C529.0 213.77768 513.7777 229.0 495.0 229.0 C476.2223 229.0 461.0 213.77768 461.0 195.0 C461.0 176.22232 476.2223 161.0 495.0 161.0 Z "/>
      </g>
      <g style="fill:#62A698;stroke:none;">
        <path d="M495.0 263.0 C513.7777 263.0 529.0 278.2223 529.0 297.0 C529.0 315.7777 513.7777 331.0 495.0 331.0 C476.2223 331.0 461.0 315.7777 461.0 297.0 C461.0 278.2223 476.2223 263.0 495.0 263.0 Z "/>
      </g>
      <g style="fill:#A69567;stroke:none;">
        <path d="M495.0 365.0 C513.7777 365.0 529.0 380.2223 529.0 399.0 C529.0 417.7777 513.7777 433.0 495.0 433.0 C476.2223 433.0 461.0 417.7777 461.0 399.0 C461.0 380.2223 476.2223 365.0 495.0 365.0 Z "/>
      </g>
      <g style="fill:#A6966D;stroke:none;">
        <path d="M495.0 467.0 C513.7777 467.0 529.0 482.2223 529.0 501.0 C529.0 519.7777 513.7777 535.0 495.0 535.0 C476.2223 535.0 461.0 519.7777 461.0 501.0 C461.0 482.2223 476.2223 467.0 495.0 467.0 Z "/>
      </g>
      <g style="fill:#A69873;stroke:none;">
        <path d="M597.0 -247.0 C615.7777 -247.0 631.0 -231.77768 631.0 -213.0 C631.0 -194.22232 615.7777 -179.0 597.0 -179.0 C578.2223 -179.0 563.0 -194.22232 563.0 -213.0 C563.0 -231.77768 578.2223 -247.0 597.0 -247.0 Z "/>
      </g>
      <g style="fill:#A69A78;stroke:none;">
        <path d="M597.0 -145.0 C615.7777 -145.0 631.0 -129.77768 631.0 -111.0 C631.0 -92.22232 615.7777 -77.0 597.0 -77.0 C578.2223 -77.0 563.0 -92.22232 563.0 -111.0 C563.0 -129.77768 578.2223 -145.0 597.0 -145.0 Z "/>
      </g>
      <g style="fill:#A69B7E;stroke:none;">
        <path d="M597.0 -43.0 C615.7777 -43.0 631.0 -27.77768 631.0 -9.0 C631.0 9.777679 615.7777 25.0 597.0 25.0 C578.2223 25.0 563.0 9.777679 563.0 -9.0 C563.0 -27.77768 578.2223 -43.0 597.0 -43.0 Z "/>
      </g>
      <g style="fill:#A69D84;stroke:none;">
        <path d="M597.0 59.0 C615.7777 59.0 631.0 74.22232 631.0 93.0 C631.0 111.77768 615.7777 127.0 597.0 127.0 C578.2223 127.0 563.0 111.77768 563.0 93.0 C563.0 74.22232 578.2223 59.0 597.0 59.0 Z "/>
      </g>
      <g style="fill:#A69567;stroke:none;">
        <path d="M597.0 161.0 C615.7777 161.0 631.0 176.22232 631.0 195.0 C631.0 213.77768 615.7777 229.0 597.0 229.0 C578.2223 229.0 563.0 213.77768 563.0 195.0 C563.0 176.22232 578.2223 161.0 597.0 161.0 Z "/>
      </g>
      <g style="fill:#A6966D;stroke:none;">
        <path d="M597.0 263.0 C615.7777 263.0 631.0 278.2223 631.0 297.0 C631.0 315.7777 615.7777 331.0 597.0 331.0 C578.2223 331.0 563.0 315.7777 563.0 297.0 C563.0 278.2223 578.2223 263.0 597.0 263.0 Z "/>
      </g>
      <g style="fill:#A69873;stroke:none;">
        <path d="M597.0 365.0 C615.7777 365.0 631.0 380.2223 631.0 399.0 C631.0 417.7777 615.7777 433.0 597.0 433.0 C578.2223 433.0 563.0 417.7777 563.0 399.0 C563.0 380.2223 578.2223 365.0 597.0 365.0 Z "/>
      </g>
      <g style="fill:#A69A78;stroke:none;">
        <path d="M597.0 467.0 C615.7777 467.0 631.0 482.2223 631.0 501.0 C631.0 519.7777 615.7777 535.0 597.0 535.0 C578.2223 535.0 563.0 519.7777 563.0 501.0 C563.0 482.2223 578.2223 467.0 597.0 467.0 Z "/>
      </g>
    </g>
  </g>
</svg>
