<?xml version="1.0" encoding="UTF-8"?>
<svg xmlns="http://www.w3.org/2000/svg" height="288px" version="1.1" width="480px">
  <g style="fill:#AB622A;stroke:none;">
    <path d="M0.0 0.0 L480.0 0.0 L480.0 288.0 L0.0 288.0 L0.0 0.0 "/>
    <g style="">
      <g style="fill:#AB4900;stroke:none;">
        <path d="M-118.16172 191.54222 C-111.82617 182.49411 -99.355255 180.29517 -90.30716 186.6307 C-81.25905 192.96625 -79.06009 205.43716 -85.39564 214.48528 C-91.731186 223.53339 -104.2021 225.73233 -113.250206 219.39679 C-122.29831 213.06125 -124.49727 200.59033 -118.16172 191.54222 Z "/>
      </g>
      <g style="fill:#0066AB;stroke:none;">
        <path d="M-86.25603 215.62648 L-89.20758 218.57568 L-92.21846 220.58583 L-95.92566 222.13905 L-99.84907 222.9208 L-103.861435 222.90866 L-107.835495 222.08017 L-111.64398 220.4129 L-114.75442 218.23495 L-117.62372 215.2264 L-119.76145 211.77536 L-121.14518 208.00912 L-121.75246 204.05493 L-121.56084 200.04008 L-120.70169 196.52328 L-118.939835 192.74104 L-118.16172 191.54222 L-118.1615 191.54196 L-85.47737 214.42764 L-86.25603 215.62648 Z "/>
      </g>
      <g style="fill:#AB7A55;stroke:none;">
        <path d="M-60.82108 231.69257 C-54.48553 222.64447 -42.014614 220.4455 -32.96651 226.78105 C-23.918407 233.1166 -21.719444 245.58751 -28.054993 254.63562 C-34.39054 263.68372 -46.86146 265.8827 -55.909565 259.54712 C-64.95767 253.21158 -67.15663 240.74066 -60.82108 231.69257 Z "/>
      </g>
      <g style="fill:#AB7A55;stroke:none;">
        <path d="M-28.915379 255.77682 L-31.86692 258.72604 L-34.877808 260.73618 L-38.584995 262.2894 L-42.508408 263.07117 L-46.520767 263.05902 L-50.494827 262.23053 L-54.30331 260.56326 L-57.413773 258.3853 L-60.283073 255.37674 L-62.420803 251.9257 L-63.804527 248.15947 L-64.411804 244.20529 L-64.220184 240.19043 L-63.361046 236.67361 L-61.599186 232.89139 L-60.82108 231.69257 L-58.050014 228.50533 L-54.779922 226.03967 L-51.138065 224.31805 L-47.2517 223.36292 L-43.248108 223.1967 L-39.254536 223.84184 L-35.815998 225.11458 L-32.197018 227.3472 L-29.469261 229.89314 L-27.085178 233.21083 L-25.447624 236.88614 L-24.57905 240.79181 L-24.501875 244.80058 L-25.238544 248.78519 L-26.594753 252.20387 L-28.915379 255.77682 Z "/>
      </g>
      <g style="fill:#AB4900;stroke:none;">
        <path d="M-3.4804306 271.8429 C2.8551178 262.7948 15.326029 260.59583 24.374138 266.9314 C33.422245 273.26694 35.6212 285.73785 29.285652 294.78595 C22.950104 303.83408 10.479191 306.03302 1.4310846 299.69748 C-7.6170244 293.36194 -9.81598 280.89102 -3.4804306 271.8429 Z "/>
      </g>
      <g style="fill:#0066AB;stroke:none;">
        <path d="M28.42527 295.9272 L25.473724 298.87637 L22.462852 300.88654 L18.75568 302.43976 L14.832268 303.22153 L10.819902 303.20938 L6.8458443 302.3809 L3.0373383 300.7136 L-0.07312298 298.53564 L-2.9424477 295.52707 L-5.0801945 292.07602 L-6.463915 288.30978 L-7.071189 284.3556 L-6.8795576 280.34076 L-6.020423 276.82394 L-4.258561 273.04172 L-3.4804306 271.8429 L-0.7093725 268.65567 L2.5607185 266.19 L6.2025642 264.46838 L10.088917 263.51324 L14.092516 263.34702 L18.086082 263.99216 L21.524643 265.26492 L25.143631 267.49756 L27.871403 270.04352 L30.255508 273.3612 L31.893063 277.0365 L32.761635 280.94217 L32.838802 284.95096 L32.10213 288.93555 L30.745926 292.35425 L28.42527 295.9272 Z "/>
      </g>
      <g style="fill:#AB7A55;stroke:none;">
        <path d="M53.86022 311.99326 C60.19577 302.94516 72.66667 300.7462 81.71478 307.08173 C90.76289 313.4173 92.96185 325.88818 86.626305 334.9363 C80.29076 343.9844 67.81985 346.18338 58.771736 339.84784 C49.72362 333.51227 47.52467 321.04135 53.86022 311.99326 Z "/>
      </g>
      <g style="fill:#AB7A55;stroke:none;">
        <path d="M85.765915 336.0775 L82.81438 339.02673 L79.8035 341.03687 L76.09632 342.59012 L72.17291 343.37186 L68.16055 343.35974 L64.18649 342.53125 L60.37799 340.86395 L57.267525 338.68597 L54.398193 335.6774 L52.260452 332.22638 L50.87673 328.46014 L50.269463 324.50595 L50.46109 320.49112 L51.32023 316.9743 L53.082092 313.19205 L53.86022 311.99326 L56.63128 308.806 L59.901367 306.34036 L63.543213 304.61874 L67.429565 303.66357 L71.43317 303.49738 L75.426735 304.14252 L78.86529 305.41525 L82.484276 307.6479 L85.21205 310.19385 L87.59616 313.51154 L89.23371 317.18686 L90.10229 321.09253 L90.17946 325.1013 L89.44278 329.08588 L88.08658 332.50458 L85.765915 336.0775 Z "/>
      </g>
      <g style="fill:#AB4900;stroke:none;">
        <path d="M111.200874 352.1436 C117.53642 343.0955 130.00734 340.89655 139.05544 347.2321 C148.10353 353.56763 150.3025 366.03854 143.96695 375.08664 C137.63141 384.13477 125.16048 386.3337 116.11238 379.99817 C107.06429 373.66263 104.865326 361.1917 111.200874 352.1436 Z "/>
      </g>
      <g style="fill:#0066AB;stroke:none;">
        <path d="M143.10658 376.22784 L140.15501 379.17706 L137.14413 381.1872 L133.43694 382.74042 L129.51352 383.5222 L125.501144 383.51 L121.5271 382.68155 L117.71866 381.0143 L114.6082 378.83633 L111.73892 375.82782 L109.60122 372.37677 L108.21747 368.61053 L107.6102 364.65637 L107.8018 360.64148 L108.66095 357.1247 L110.42279 353.34244 L111.200874 352.1436 L113.97193 348.95636 L117.242035 346.49072 L120.88391 344.7691 L124.77025 343.81396 L128.77386 343.64777 L132.76744 344.2929 L136.20595 345.5656 L139.8249 347.79822 L142.55264 350.34415 L144.93669 353.6618 L146.57426 357.33713 L147.44286 361.2428 L147.52003 365.2516 L146.78336 369.2362 L145.42719 372.6549 L143.10658 376.22784 Z "/>
      </g>
      <g style="fill:#AB7A55;stroke:none;">
        <path d="M168.5415 392.29395 C174.87706 383.24585 187.34798 381.04688 196.39607 387.38245 C205.44417 393.71796 207.64314 406.18887 201.30759 415.237 C194.97205 424.2851 182.50111 426.48407 173.45302 420.1485 C164.40492 413.81296 162.20596 401.34204 168.5415 392.29395 Z "/>
      </g>
      <g style="fill:#AB7A55;stroke:none;">
        <path d="M200.44722 416.3782 L197.49565 419.3274 L194.48479 421.33755 L190.77759 422.89078 L186.85417 423.67255 L182.8418 423.66037 L178.86775 422.8319 L175.05931 421.16464 L171.94884 418.9867 L169.07957 415.97815 L166.94186 412.52713 L165.55812 408.76086 L164.95084 404.8067 L165.14244 400.79184 L166.0016 397.27502 L167.76344 393.4928 L168.5415 392.29395 L171.31258 389.1067 L174.58269 386.64105 L178.22455 384.91946 L182.1109 383.9643 L186.11452 383.7981 L190.1081 384.44324 L193.5466 385.71594 L197.16556 387.94858 L199.89328 390.4945 L202.27734 393.81216 L203.9149 397.4875 L204.7835 401.39316 L204.86067 405.40192 L204.12401 409.38654 L202.76784 412.80524 L200.44722 416.3782 Z "/>
      </g>
      <g style="fill:#AB4900;stroke:none;">
        <path d="M225.88216 432.44427 C232.21771 423.39618 244.68863 421.1972 253.73672 427.53278 C262.78482 433.86832 264.9838 446.33923 258.64825 455.38733 C252.31271 464.43542 239.84177 466.6344 230.79367 460.29883 C221.74557 453.96332 219.54662 441.49237 225.88216 432.44427 Z "/>
      </g>
      <g style="fill:#0066AB;stroke:none;">
        <path d="M257.78787 456.52856 L254.83633 459.47775 L251.82544 461.4879 L248.11823 463.0411 L244.19482 463.82288 L240.18243 463.81073 L236.20839 462.98224 L232.39996 461.315 L229.28949 459.13702 L226.42023 456.12848 L224.2825 452.6775 L222.89877 448.9112 L222.29149 444.95703 L222.4831 440.94217 L223.34224 437.42535 L225.10408 433.64313 L225.88216 432.44427 L228.65323 429.25705 L231.92332 426.79138 L235.5652 425.0698 L239.45154 424.11462 L243.45517 423.94843 L247.44873 424.59357 L250.88727 425.86627 L254.5062 428.09894 L257.23395 430.64484 L259.61798 433.9625 L261.25555 437.63782 L262.12415 441.5435 L262.20132 445.55225 L261.46466 449.53687 L260.1085 452.9556 L257.78787 456.52856 Z "/>
      </g>
      <g style="fill:#AB7A55;stroke:none;">
        <path d="M283.2228 472.5946 C289.55835 463.5465 302.02927 461.34756 311.07736 467.6831 C320.1255 474.01868 322.32443 486.48956 315.9889 495.53766 C309.65335 504.5858 297.18243 506.78476 288.1343 500.4492 C279.0862 494.11365 276.88727 481.64273 283.2228 472.5946 Z "/>
      </g>
      <g style="fill:#AB7A55;stroke:none;">
        <path d="M315.1285 496.6789 L312.177 499.6281 L309.16602 501.63818 L305.45883 503.1914 L301.53552 503.97324 L297.52313 503.9611 L293.54907 503.13263 L289.7406 501.46533 L286.63013 499.28735 L283.76086 496.27884 L281.62317 492.82782 L280.2394 489.06155 L279.63214 485.1074 L279.82373 481.09253 L280.68283 477.57568 L282.44467 473.79343 L283.2228 472.5946 L285.9939 469.4074 L289.26398 466.94174 L292.90585 465.22015 L296.79218 464.26498 L300.7958 464.09875 L304.7894 464.74393 L308.2279 466.01663 L311.84686 468.24927 L314.57462 470.7952 L316.95865 474.11285 L318.5962 477.78815 L319.46475 481.6938 L319.5419 485.70258 L318.80527 489.6872 L317.4491 493.1059 L315.1285 496.6789 Z "/>
      </g>
      <g style="fill:#AB4900;stroke:none;">
        <path d="M-58.155525 165.36772 C-69.03341 167.28577 -79.40658 160.02242 -81.324646 149.14453 C-83.24271 138.26665 -75.97934 127.89348 -65.101456 125.9754 C-54.223576 124.05733 -43.850407 131.32071 -41.93234 142.1986 C-40.014267 153.07648 -47.277637 163.44965 -58.155525 165.36772 Z "/>
      </g>
      <g style="fill:#0066AB;stroke:none;">
        <path d="M-44.402065 155.8335 L-46.768673 159.05891 L-49.743103 161.76236 L-52.83737 163.64162 L-56.75765 165.07025 L-58.155525 165.36772 L-62.368675 165.662 L-66.42446 165.09319 L-70.21701 163.73535 L-73.64047 161.66266 L-76.58898 158.94923 L-78.95668 155.66917 L-80.48814 152.3378 L-81.46842 148.20009 L-81.596985 144.47101 L-80.93683 140.43924 L-79.49591 136.68248 L-77.34837 133.30658 L-74.56833 130.41737 L-71.22987 128.12074 L-67.85351 126.66232 L-63.686123 125.776825 L-59.513653 125.77847 L-55.963257 126.486115 L-52.24358 128.00919 L-48.91652 130.23067 L-46.087944 133.07645 L-43.863686 136.47235 L-42.349613 140.3443 L-41.690254 144.08377 L-41.788727 148.24005 L-42.717377 152.19193 L-44.402065 155.8335 Z "/>
      </g>
      <g style="fill:#AB7A55;stroke:none;">
        <path d="M-0.8149605 205.5181 C-11.692846 207.43616 -22.066015 200.17279 -23.984085 189.29492 C-25.902153 178.41702 -18.638779 168.04385 -7.760891 166.1258 C3.116993 164.20772 13.490162 171.47108 15.40823 182.34897 C17.326294 193.22687 10.062927 203.60004 -0.8149605 205.5181 Z "/>
      </g>
      <g style="fill:#AB7A55;stroke:none;">
        <path d="M12.938511 195.98389 L10.571899 199.20929 L7.5974693 201.91275 L4.5032043 203.792 L0.5829334 205.22064 L-0.8149605 205.5181 L-5.0281315 205.81238 L-9.083918 205.24355 L-12.876465 203.88571 L-16.299915 201.81303 L-19.248417 199.0996 L-21.61612 195.81952 L-23.147577 192.48816 L-24.127865 188.35048 L-24.256422 184.62138 L-23.596272 180.58963 L-22.155357 176.83286 L-20.00782 173.45695 L-17.22776 170.56776 L-13.889309 168.27112 L-10.512951 166.81271 L-6.3455505 165.92722 L-2.1730766 165.92886 L1.377327 166.6365 L5.0970078 168.15958 L8.424057 170.38106 L11.252638 173.22684 L13.476902 176.62274 L14.990974 180.49469 L15.65032 184.23415 L15.551849 188.39044 L14.623199 192.3423 L12.938511 195.98389 Z "/>
      </g>
      <g style="fill:#AB4900;stroke:none;">
        <path d="M56.525635 245.66852 C45.64775 247.58658 35.274574 240.32323 33.356506 229.44534 C31.43843 218.56744 38.70181 208.19427 49.579697 206.27621 C60.457565 204.35814 70.83075 211.62149 72.74881 222.49939 C74.666885 233.37729 67.4035 243.75044 56.525635 245.66852 Z "/>
      </g>
      <g style="fill:#0066AB;stroke:none;">
        <path d="M70.27908 236.1343 L67.912476 239.35973 L64.938034 242.06316 L61.843773 243.94241 L57.923508 245.37106 L56.525635 245.66852 L52.31247 245.9628 L48.25668 245.39398 L44.464127 244.03615 L41.04068 241.96346 L38.09218 239.25003 L35.72449 235.96997 L34.193024 232.63858 L33.212715 228.50089 L33.084175 224.77182 L33.744324 220.74005 L35.185223 216.98328 L37.33278 213.60739 L40.11284 210.71819 L43.451275 208.42154 L46.827652 206.96313 L50.99504 206.07764 L55.16751 206.07932 L58.717896 206.78693 L62.43759 208.31001 L65.76463 210.5315 L68.59323 213.37726 L70.81748 216.77318 L72.33156 220.64514 L72.99089 224.38457 L72.892426 228.54086 L71.96377 232.49272 L70.27908 236.1343 Z "/>
      </g>
      <g style="fill:#AB7A55;stroke:none;">
        <path d="M113.86597 285.81854 C102.98808 287.7366 92.6149 280.47324 90.69684 269.59537 C88.77878 258.71747 96.042145 248.3443 106.92003 246.42624 C117.79791 244.50818 128.17108 251.77151 130.08914 262.6494 C132.00722 273.5273 124.74385 283.90048 113.86597 285.81854 Z "/>
      </g>
      <g style="fill:#AB7A55;stroke:none;">
        <path d="M127.619446 276.2843 L125.25284 279.50974 L122.27841 282.21317 L119.18416 284.09244 L115.2639 285.5211 L113.86597 285.81854 L109.65281 286.11282 L105.597015 285.544 L101.80447 284.18616 L98.38101 282.11346 L95.43251 279.40005 L93.06483 276.12 L91.53335 272.7886 L90.55305 268.6509 L90.424515 264.92184 L91.084656 260.89008 L92.52556 257.1333 L94.67311 253.75742 L97.45317 250.86821 L100.79161 248.57156 L104.16797 247.11317 L108.33537 246.22766 L112.50784 246.22932 L116.05823 246.93694 L119.77792 248.46004 L123.10498 250.68152 L125.93356 253.52728 L128.1578 256.9232 L129.67188 260.79517 L130.33124 264.5346 L130.23277 268.6909 L129.30412 272.64273 L127.619446 276.2843 Z "/>
      </g>
      <g style="fill:#AB4900;stroke:none;">
        <path d="M171.20705 325.9692 C160.32916 327.88727 149.956 320.6239 148.03792 309.746 C146.11987 298.86816 153.38321 288.49496 164.2611 286.5769 C175.13898 284.65884 185.51215 291.9222 187.43024 302.80008 C189.3483 313.67798 182.08493 324.05115 171.20705 325.9692 Z "/>
      </g>
      <g style="fill:#0066AB;stroke:none;">
        <path d="M184.96051 316.435 L182.5939 319.6604 L179.61948 322.36383 L176.5252 324.2431 L172.60493 325.67172 L171.20705 325.9692 L166.9939 326.2635 L162.93811 325.69467 L159.14557 324.33685 L155.72209 322.26416 L152.77354 319.5507 L150.40584 316.27063 L148.87439 312.93924 L147.89415 308.80157 L147.76556 305.0725 L148.42572 301.04074 L149.86664 297.28397 L152.01418 293.90808 L154.79422 291.0189 L158.13269 288.72226 L161.50903 287.26382 L165.67642 286.37833 L169.84888 286.37997 L173.39929 287.0876 L177.11899 288.6107 L180.44606 290.83218 L183.27466 293.67798 L185.4989 297.07388 L187.013 300.94583 L187.67233 304.68524 L187.57385 308.84155 L186.64522 312.79343 L184.96051 316.435 Z "/>
      </g>
      <g style="fill:#AB7A55;stroke:none;">
        <path d="M228.54735 366.11908 C217.66946 368.03714 207.29631 360.7738 205.37825 349.8959 C203.46017 339.018 210.72354 328.64487 221.60143 326.7268 C232.47928 324.80872 242.85248 332.07208 244.77057 342.94998 C246.6886 353.82785 239.42523 364.20102 228.54735 366.11908 Z "/>
      </g>
      <g style="fill:#AB7A55;stroke:none;">
        <path d="M242.30081 356.58487 L239.9342 359.81027 L236.95978 362.51373 L233.86551 364.39297 L229.94524 365.8216 L228.54735 366.11908 L224.3342 366.4134 L220.27841 365.84454 L216.48587 364.4867 L213.06241 362.41403 L210.11386 359.70056 L207.74615 356.42047 L206.2147 353.0891 L205.23447 348.95148 L205.1059 345.22238 L205.76605 341.1906 L207.20697 337.43387 L209.35449 334.05795 L212.13457 331.16876 L215.47302 328.87213 L218.84937 327.41373 L223.01675 326.52823 L227.18921 326.52988 L230.7396 327.2375 L234.45929 328.76056 L237.78636 330.98206 L240.61496 333.82785 L242.83923 337.22375 L244.35327 341.09573 L245.01266 344.83514 L244.91415 348.9914 L243.98553 352.9433 L242.30081 356.58487 Z "/>
      </g>
      <g style="fill:#AB4900;stroke:none;">
        <path d="M285.8886 406.27032 C275.0107 408.18842 264.6375 400.92505 262.71945 390.04715 C260.80142 379.16928 268.06476 368.7961 278.94263 366.87805 C289.82053 364.95996 300.19373 372.22333 302.11176 383.1012 C304.02982 393.9791 296.76648 404.35223 285.8886 406.27032 Z "/>
      </g>
      <g style="fill:#0066AB;stroke:none;">
        <path d="M299.64206 396.73608 L297.27545 399.96152 L294.30106 402.66498 L291.20676 404.54425 L287.2865 405.9729 L285.8886 406.27032 L281.67548 406.56464 L277.6197 405.99582 L273.82715 404.638 L270.4037 402.56528 L267.45514 399.8518 L265.0874 396.57175 L263.55597 393.24036 L262.57568 389.10272 L262.4471 385.37363 L263.10727 381.34186 L264.5482 377.5851 L266.6957 374.2092 L269.47577 371.32 L272.81424 369.02338 L276.19058 367.56497 L280.35797 366.67944 L284.53043 366.6811 L288.08084 367.38873 L291.80054 368.91183 L295.1276 371.1333 L297.9562 373.9791 L300.18048 377.375 L301.69455 381.24695 L302.35385 384.9864 L302.2554 389.14267 L301.32675 393.09454 L299.64206 396.73608 Z "/>
      </g>
      <g style="fill:#AB7A55;stroke:none;">
        <path d="M343.22937 446.42062 C332.35147 448.33868 321.9783 441.07538 320.0602 430.19745 C318.14215 419.31958 325.40555 408.94638 336.28342 407.02832 C347.16132 405.11023 357.53445 412.3736 359.45255 423.25153 C361.37064 434.1294 354.1072 444.50253 343.22937 446.42062 Z "/>
      </g>
      <g style="fill:#AB7A55;stroke:none;">
        <path d="M356.98282 436.88638 L354.61624 440.11182 L351.64178 442.81528 L348.54752 444.69452 L344.62732 446.12323 L343.22937 446.42062 L339.01624 446.71494 L334.96042 446.1461 L331.16797 444.78833 L327.74445 442.71564 L324.79593 440.00217 L322.4282 436.7221 L320.89676 433.39072 L319.91647 429.25302 L319.7879 425.52393 L320.44803 421.4922 L321.88898 417.7354 L324.0365 414.3595 L326.81656 411.4703 L330.15506 409.17365 L333.53137 407.71524 L337.69873 406.8297 L341.87122 406.8314 L345.42163 407.539 L349.14133 409.0621 L352.46838 411.2836 L355.29694 414.12933 L357.52118 417.52524 L359.0353 421.39722 L359.69464 425.1367 L359.5962 429.29297 L358.6675 433.2448 L356.98282 436.88638 Z "/>
      </g>
      <g style="fill:#AB4900;stroke:none;">
        <path d="M-10.007614 71.94902 C-0.95949554 78.28456 1.2394485 90.75548 -5.096092 99.80357 C-11.431641 108.851685 -23.902557 111.05066 -32.95067 104.7151 C-41.99878 98.37955 -44.197723 85.90863 -37.862183 76.860535 C-31.526634 67.81242 -19.055725 65.613464 -10.007614 71.94902 Z "/>
      </g>
      <g style="fill:#0066AB;stroke:none;">
        <path d="M-5.662239 100.573074 L-8.208199 103.30084 L-11.525894 105.68494 L-15.201202 107.322495 L-19.10688 108.191086 L-23.115662 108.268265 L-27.100266 107.5316 L-30.518951 106.175415 L-34.091873 103.85472 L-37.041084 100.90318 L-39.051216 97.89227 L-40.60444 94.18509 L-41.386208 90.26169 L-41.37406 86.24933 L-40.54557 82.27525 L-38.87829 78.46677 L-36.700356 75.35632 L-33.691772 72.487 L-30.24073 70.34924 L-26.474487 68.965546 L-22.520317 68.35826 L-18.50547 68.5499 L-14.988655 69.40903 L-11.206429 71.17088 L-10.007614 71.94902 L-6.820366 74.72008 L-4.354721 77.99017 L-2.6330948 81.632 L-1.677948 85.51837 L-1.5117264 89.52197 L-2.156868 93.51553 L-3.4296188 96.9541 L-5.662239 100.573074 Z "/>
      </g>
      <g style="fill:#AB7A55;stroke:none;">
        <path d="M47.333015 112.09938 C56.38112 118.43494 58.58007 130.90585 52.24453 139.95395 C45.908974 149.00206 33.43807 151.20102 24.389961 144.86546 C15.34185 138.5299 13.142887 126.059006 19.478443 117.010895 C25.813984 107.9628 38.284904 105.763824 47.333015 112.09938 Z "/>
      </g>
      <g style="fill:#AB7A55;stroke:none;">
        <path d="M51.678375 140.72345 L49.132423 143.45122 L45.81472 145.83533 L42.139427 147.4729 L38.233765 148.34146 L34.225006 148.41864 L30.240402 147.68196 L26.821716 146.32578 L23.248749 144.00508 L20.299545 141.05354 L18.289387 138.04266 L16.736153 134.3355 L15.954407 130.41208 L15.966541 126.39972 L16.795025 122.42566 L18.462326 118.61716 L20.640278 115.50668 L23.64885 112.63736 L27.099892 110.49962 L30.866123 109.11589 L34.82029 108.508606 L38.83514 108.700226 L42.351955 109.55936 L46.134186 111.32123 L47.333015 112.09938 L50.520264 114.87044 L52.9859 118.14055 L54.70751 121.78241 L55.662636 125.66876 L55.828857 129.67236 L55.183716 133.66592 L53.910973 137.10446 L51.678375 140.72345 Z "/>
      </g>
      <g style="fill:#AB4900;stroke:none;">
        <path d="M104.67355 152.24994 C113.72167 158.58548 115.92064 171.0564 109.58508 180.10449 C103.24954 189.15262 90.77864 191.35156 81.730515 185.01602 C72.6824 178.68048 70.48345 166.20956 76.818985 157.16145 C83.15454 148.11334 95.62544 145.91438 104.67355 152.24994 Z "/>
      </g>
      <g style="fill:#0066AB;stroke:none;">
        <path d="M109.018936 180.87398 L106.47298 183.60176 L103.15529 185.98587 L99.47999 187.62344 L95.57434 188.49202 L91.56555 188.56918 L87.580956 187.83253 L84.16225 186.47632 L80.5893 184.15564 L77.640076 181.20407 L75.62991 178.1932 L74.076675 174.48602 L73.29493 170.56262 L73.30706 166.55026 L74.13554 162.57619 L75.80284 158.76768 L77.98083 155.65726 L80.989395 152.7879 L84.44043 150.65015 L88.20665 149.26643 L92.16083 148.65915 L96.17567 148.85078 L99.692474 149.70993 L103.47473 151.4718 L104.67355 152.24994 L107.860825 155.02101 L110.32649 158.2911 L112.04811 161.93295 L113.00325 165.8193 L113.16945 169.82289 L112.52433 173.81647 L111.25157 177.25502 L109.018936 180.87398 Z "/>
      </g>
      <g style="fill:#AB7A55;stroke:none;">
        <path d="M162.01434 192.40015 C171.06247 198.73569 173.26143 211.2066 166.92587 220.25471 C160.59033 229.30283 148.11942 231.50179 139.07129 225.16623 C130.0232 218.83069 127.824234 206.35977 134.15979 197.31168 C140.49533 188.26357 152.96625 186.0646 162.01434 192.40015 Z "/>
      </g>
      <g style="fill:#AB7A55;stroke:none;">
        <path d="M166.35973 221.0242 L163.81377 223.75198 L160.4961 226.1361 L156.82079 227.77365 L152.91513 228.64224 L148.90634 228.71942 L144.92175 227.98276 L141.50302 226.62654 L137.93008 224.30585 L134.98087 221.3543 L132.9707 218.34341 L131.41745 214.63625 L130.63571 210.71283 L130.64786 206.70047 L131.47635 202.72641 L133.14365 198.91791 L135.32162 195.80746 L138.33018 192.93814 L141.78122 190.80038 L145.54745 189.41666 L149.50162 188.80937 L153.51646 189.001 L157.03326 189.86014 L160.81552 191.62201 L162.01434 192.40015 L165.20161 195.17122 L167.66728 198.44133 L169.38892 202.08318 L170.34404 205.96953 L170.51025 209.97311 L169.86511 213.96667 L168.59236 217.40524 L166.35973 221.0242 Z "/>
      </g>
      <g style="fill:#AB4900;stroke:none;">
        <path d="M219.35486 232.55046 C228.40295 238.886 230.60191 251.35693 224.26637 260.40503 C217.93082 269.45312 205.4599 271.6521 196.4118 265.31653 C187.36368 258.981 185.16473 246.51007 191.50029 237.46198 C197.83583 228.41388 210.30673 226.2149 219.35486 232.55046 Z "/>
      </g>
      <g style="fill:#0066AB;stroke:none;">
        <path d="M223.70023 261.1745 L221.15427 263.90228 L217.83655 266.28638 L214.16124 267.92395 L210.25558 268.7925 L206.2468 268.8697 L202.2622 268.13303 L198.84354 266.77686 L195.2706 264.45618 L192.32144 261.50464 L190.3113 258.49374 L188.75807 254.78656 L187.97629 250.86313 L187.98843 246.85077 L188.81693 242.87671 L190.48419 239.0682 L192.66211 235.95776 L195.67072 233.08844 L199.12175 230.9507 L202.88799 229.56697 L206.84216 228.95972 L210.85703 229.15134 L214.37386 230.01047 L218.15604 231.77231 L219.35486 232.55046 L222.54205 235.32147 L225.00766 238.59157 L226.72931 242.23344 L227.68445 246.11981 L227.85068 250.12341 L227.20554 254.11697 L225.9328 257.55554 L223.70023 261.1745 Z "/>
      </g>
      <g style="fill:#AB7A55;stroke:none;">
        <path d="M276.69482 272.70123 C285.74295 279.03677 287.9419 291.5077 281.60635 300.5558 C275.2708 309.60388 262.7999 311.80286 253.75177 305.46732 C244.70367 299.13177 242.5047 286.66083 248.84027 277.61273 C255.17581 268.56464 267.64673 266.36566 276.69482 272.70123 Z "/>
      </g>
      <g style="fill:#AB7A55;stroke:none;">
        <path d="M281.0402 301.3253 L278.49426 304.05307 L275.1765 306.43713 L271.50122 308.0747 L267.59558 308.9433 L263.5868 309.02045 L259.60217 308.28378 L256.1835 306.9276 L252.6106 304.60693 L249.6614 301.6554 L247.6513 298.64453 L246.09808 294.93735 L245.31628 291.01392 L245.32843 287.00156 L246.15692 283.0275 L247.82419 279.219 L250.00208 276.10852 L253.01068 273.2392 L256.46173 271.10147 L260.22797 269.71774 L264.18216 269.11047 L268.197 269.3021 L271.71384 270.16125 L275.49603 271.92307 L276.69482 272.70123 L279.88205 275.47226 L282.34766 278.74234 L284.0693 282.38422 L285.02444 286.2706 L285.19067 290.2742 L284.54553 294.26776 L283.27283 297.70633 L281.0402 301.3253 Z "/>
      </g>
      <g style="fill:#AB4900;stroke:none;">
        <path d="M334.03693 312.8509 C343.08505 319.18643 345.284 331.65735 338.94846 340.70544 C332.6129 349.75354 320.142 351.9525 311.09387 345.61694 C302.04578 339.2814 299.84683 326.8105 306.18237 317.7624 C312.5179 308.7143 324.98883 306.51532 334.03693 312.8509 Z "/>
      </g>
      <g style="fill:#0066AB;stroke:none;">
        <path d="M338.38232 341.47495 L335.83636 344.2027 L332.51862 346.5868 L328.84332 348.22437 L324.93765 349.09296 L320.9289 349.1701 L316.94427 348.4334 L313.5256 347.07724 L309.9527 344.7566 L307.0035 341.80505 L304.99338 338.79416 L303.44016 335.08698 L302.6584 331.16357 L302.67053 327.15118 L303.49902 323.17712 L305.16626 319.36862 L307.3442 316.25818 L310.35278 313.38885 L313.80383 311.2511 L317.57007 309.86737 L321.52426 309.26013 L325.53912 309.45175 L329.05594 310.31088 L332.83813 312.07272 L334.03693 312.8509 L337.22415 315.6219 L339.6898 318.892 L341.41144 322.53387 L342.36655 326.42023 L342.53278 330.42383 L341.88763 334.41742 L340.6149 337.85596 L338.38232 341.47495 Z "/>
      </g>
      <g style="fill:#AB7A55;stroke:none;">
        <path d="M391.379 353.0008 C400.42712 359.33636 402.62607 371.80725 396.29053 380.85535 C389.95496 389.9035 377.48404 392.10248 368.4359 385.7669 C359.38782 379.43137 357.18884 366.96045 363.52444 357.9123 C369.86 348.8642 382.3309 346.66522 391.379 353.0008 Z "/>
      </g>
      <g style="fill:#AB7A55;stroke:none;">
        <path d="M395.72437 381.62485 L393.1784 384.35263 L389.86066 386.7367 L386.18536 388.37424 L382.27972 389.24286 L378.271 389.32007 L374.2864 388.58337 L370.86774 387.22717 L367.29474 384.90652 L364.34555 381.95502 L362.33542 378.94415 L360.78223 375.23697 L360.00043 371.31354 L360.01257 367.30118 L360.84106 363.3271 L362.50836 359.5186 L364.68628 356.40808 L367.69485 353.5388 L371.1459 351.40103 L374.91214 350.0173 L378.86633 349.41003 L382.88116 349.60168 L386.39798 350.46082 L390.18018 352.22266 L391.379 353.0008 L394.56628 355.77185 L397.03186 359.04193 L398.75348 362.68378 L399.70856 366.57013 L399.87476 370.5737 L399.22964 374.5673 L397.95694 378.00586 L395.72437 381.62485 Z "/>
      </g>
      <g style="fill:#AB4900;stroke:none;">
        <path d="M-1.023552 34.464233 C-2.9416351 23.58635 4.3217545 13.213196 15.199631 11.29512 C26.07753 9.377045 36.450684 16.640411 38.36875 27.51831 C40.286827 38.39621 33.023453 48.76938 22.145569 50.687424 C11.267685 52.6055 0.894516 45.342133 -1.023552 34.464233 Z "/>
      </g>
      <g style="fill:#0066AB;stroke:none;">
        <path d="M34.11348 43.703247 L31.2677 46.53183 L27.871803 48.756073 L23.999847 50.270157 L20.260399 50.929535 L16.104118 50.831055 L12.152275 49.902405 L8.510696 48.217712 L5.285248 45.851105 L2.5818253 42.87668 L0.7025604 39.78241 L-0.7260666 35.862152 L-1.023552 34.464233 L-1.3178406 30.251083 L-0.7490082 26.195282 L0.60881805 22.40274 L2.6814957 18.979279 L5.394943 16.030792 L8.675003 13.663101 L12.006386 12.131638 L16.144081 11.151321 L19.873138 11.022781 L23.904907 11.682938 L27.661674 13.12381 L31.037567 15.271393 L33.92678 18.051437 L36.223427 21.389862 L37.681816 24.76622 L38.56732 28.933655 L38.56566 33.106125 L37.858047 36.65651 L36.334953 40.37619 L34.11348 43.703247 Z "/>
      </g>
      <g style="fill:#AB7A55;stroke:none;">
        <path d="M56.317245 74.61461 C54.39917 63.73671 61.662544 53.363556 72.540436 51.445496 C83.41831 49.52742 93.79147 56.790787 95.70955 67.668686 C97.62762 78.54657 90.36424 88.91972 79.48636 90.8378 C68.608475 92.755875 58.235306 85.49251 56.317245 74.61461 Z "/>
      </g>
      <g style="fill:#AB7A55;stroke:none;">
        <path d="M91.45426 83.85361 L88.6085 86.682205 L85.212585 88.90645 L81.340614 90.42052 L77.60119 91.079895 L73.4449 90.98143 L69.49304 90.052765 L65.85147 88.36807 L62.626038 86.00148 L59.9226 83.02702 L58.043335 79.93277 L56.6147 76.01251 L56.317245 74.61461 L56.022957 70.40146 L56.59178 66.34567 L57.949615 62.553116 L60.02231 59.12967 L62.735733 56.181168 L66.01579 53.813477 L69.34718 52.281998 L73.48488 51.301697 L77.21394 51.173157 L81.245705 51.833298 L85.00248 53.2742 L88.37838 55.42177 L91.26758 58.201797 L93.56423 61.540222 L95.02264 64.91661 L95.90813 69.084015 L95.90646 73.2565 L95.19885 76.80687 L93.67574 80.526566 L91.45426 83.85361 Z "/>
      </g>
      <g style="fill:#AB4900;stroke:none;">
        <path d="M113.65808 114.76523 C111.73999 103.887314 119.00337 93.51416 129.88127 91.5961 C140.75916 89.67804 151.1323 96.94139 153.05038 107.819275 C154.96844 118.697174 147.70508 129.07034 136.8272 130.9884 C125.949295 132.90646 115.57614 125.64311 113.65808 114.76523 Z "/>
      </g>
      <g style="fill:#0066AB;stroke:none;">
        <path d="M148.7951 124.00423 L145.94934 126.832825 L142.55344 129.05707 L138.68149 130.57114 L134.94203 131.2305 L130.78574 131.13202 L126.83389 130.20337 L123.19231 128.51869 L119.96687 126.1521 L117.26343 123.17763 L115.384186 120.08339 L113.95555 116.16312 L113.65808 114.76523 L113.363785 110.55205 L113.93262 106.49626 L115.290436 102.703705 L117.36313 99.28027 L120.07657 96.33177 L123.35661 93.964066 L126.68802 92.4326 L130.82571 91.45232 L134.55478 91.32376 L138.58653 91.9839 L142.34332 93.42482 L145.71922 95.57236 L148.60843 98.35243 L150.90506 101.69087 L152.36346 105.067245 L153.24896 109.234634 L153.2473 113.407104 L152.53969 116.95749 L151.0166 120.677185 L148.7951 124.00423 Z "/>
      </g>
      <g style="fill:#AB7A55;stroke:none;">
        <path d="M170.99872 154.91563 C169.08063 144.03773 176.34402 133.66457 187.2219 131.74652 C198.0998 129.82845 208.47296 137.0918 210.39102 147.9697 C212.3091 158.84758 205.04575 169.22073 194.16785 171.13882 C183.28995 173.05688 172.91678 165.79352 170.99872 154.91563 Z "/>
      </g>
      <g style="fill:#AB7A55;stroke:none;">
        <path d="M206.13574 164.15463 L203.28998 166.98322 L199.89407 169.20749 L196.02213 170.72156 L192.28267 171.38092 L188.12637 171.28244 L184.17453 170.35379 L180.53296 168.6691 L177.30753 166.3025 L174.60408 163.32805 L172.72482 160.2338 L171.2962 156.31354 L170.99872 154.91563 L170.70444 150.70248 L171.27327 146.6467 L172.63109 142.85413 L174.70378 139.4307 L177.41722 136.48218 L180.69727 134.11449 L184.02867 132.58302 L188.16635 131.60272 L191.89542 131.47417 L195.92719 132.13431 L199.68396 133.57523 L203.05984 135.72278 L205.94905 138.50284 L208.2457 141.84128 L209.7041 145.21765 L210.5896 149.38504 L210.58794 153.5575 L209.88031 157.10788 L208.35724 160.82759 L206.13574 164.15463 Z "/>
      </g>
      <g style="fill:#AB4900;stroke:none;">
        <path d="M228.33945 195.06644 C226.42139 184.18855 233.68477 173.81537 244.56265 171.8973 C255.44052 169.97925 265.81372 177.24258 267.7318 188.1205 C269.64987 198.99838 262.38647 209.37155 251.5086 211.28964 C240.6307 213.20772 230.2575 205.94434 228.33945 195.06644 Z "/>
      </g>
      <g style="fill:#0066AB;stroke:none;">
        <path d="M263.4765 204.30548 L260.63074 207.1341 L257.2348 209.35834 L253.36285 210.87244 L249.62344 211.53174 L245.46713 211.43329 L241.51529 210.50464 L237.87369 208.81992 L234.64824 206.45331 L231.9448 203.47888 L230.06552 200.38458 L228.6369 196.46436 L228.33945 195.06644 L228.04514 190.85327 L228.61401 186.79749 L229.97185 183.00491 L232.04453 179.58145 L234.75797 176.63293 L238.03806 174.26523 L241.36945 172.73376 L245.50708 171.75351 L249.23615 171.62497 L253.26788 172.28513 L257.0247 173.72601 L260.4006 175.8736 L263.28983 178.65369 L265.5865 181.99213 L267.0449 185.3685 L267.93036 189.53584 L267.9287 193.70831 L267.2211 197.25873 L265.69797 200.97842 L263.4765 204.30548 Z "/>
      </g>
      <g style="fill:#AB7A55;stroke:none;">
        <path d="M285.67972 235.21596 C283.76163 224.33809 291.02502 213.96492 301.9029 212.04684 C312.78076 210.12881 323.1539 217.39217 325.072 228.27007 C326.99005 239.14793 319.72665 249.52109 308.8488 251.43913 C297.97095 253.35722 287.59778 246.09386 285.67972 235.21596 Z "/>
      </g>
      <g style="fill:#AB7A55;stroke:none;">
        <path d="M320.8167 244.45499 L317.97095 247.2836 L314.57504 249.50783 L310.7031 251.02191 L306.96362 251.68124 L302.80737 251.58278 L298.85553 250.65414 L295.21393 248.96942 L291.98846 246.60281 L289.28503 243.62837 L287.40576 240.53409 L285.97714 236.61385 L285.67972 235.21596 L285.3854 231.00279 L285.95425 226.94702 L287.31207 223.15446 L289.38477 219.73102 L292.09818 216.7825 L295.37823 214.41483 L298.70966 212.88336 L302.84732 211.90306 L306.5764 211.77452 L310.60812 212.43466 L314.36493 213.87556 L317.74084 216.02315 L320.63007 218.80322 L322.9267 222.14165 L324.3851 225.51804 L325.27057 229.6854 L325.2689 233.85786 L324.56128 237.40826 L323.03818 241.12794 L320.8167 244.45499 Z "/>
      </g>
      <g style="fill:#AB4900;stroke:none;">
        <path d="M343.02087 275.3681 C341.10278 264.49023 348.36618 254.11705 359.24408 252.19897 C370.12195 250.28091 380.49512 257.54425 382.41318 268.42218 C384.33124 279.30005 377.06787 289.67322 366.19003 291.5913 C355.31213 293.50937 344.93893 286.24603 343.02087 275.3681 Z "/>
      </g>
      <g style="fill:#0066AB;stroke:none;">
        <path d="M378.15793 284.60712 L375.31216 287.43573 L371.91626 289.65994 L368.0443 291.174 L364.30487 291.83344 L360.1486 291.73492 L356.19675 290.80627 L352.5551 289.12158 L349.32965 286.75497 L346.62622 283.78055 L344.74695 280.68628 L343.31833 276.76605 L343.02087 275.3681 L342.72656 271.15497 L343.2954 267.09918 L344.65326 263.30658 L346.72595 259.88312 L349.4394 256.93463 L352.71948 254.56691 L356.05084 253.03545 L360.1885 252.05519 L363.91757 251.92664 L367.94934 252.58678 L371.70612 254.02768 L375.08203 256.17523 L377.97125 258.95532 L380.2679 262.29376 L381.72632 265.6701 L382.61176 269.83752 L382.6101 274.00998 L381.9025 277.56036 L380.3794 281.28006 L378.15793 284.60712 Z "/>
      </g>
      <g style="fill:#AB7A55;stroke:none;">
        <path d="M400.36102 315.51593 C398.44293 304.638 405.70633 294.26483 416.58417 292.3468 C427.46216 290.4287 437.8353 297.69208 439.75336 308.56995 C441.67142 319.4478 434.40802 329.82104 423.53015 331.7391 C412.65228 333.65717 402.2791 326.3938 400.36102 315.51593 Z "/>
      </g>
      <g style="fill:#AB7A55;stroke:none;">
        <path d="M435.49802 324.7549 L432.65228 327.58353 L429.25635 329.8078 L425.3844 331.3219 L421.64496 331.9812 L417.48868 331.8827 L413.53687 330.9541 L409.8953 329.2694 L406.66986 326.90277 L403.96643 323.92834 L402.08713 320.8341 L400.6585 316.91382 L400.36102 315.51593 L400.0667 311.30273 L400.63556 307.24695 L401.9934 303.4544 L404.0661 300.03094 L406.77954 297.08243 L410.05963 294.71475 L413.391 293.1833 L417.52863 292.203 L421.2577 292.0744 L425.2895 292.73456 L429.04626 294.17548 L432.42218 296.32306 L435.31134 299.1031 L437.60794 302.44147 L439.06628 305.8178 L439.95197 309.98532 L439.9503 314.15778 L439.24265 317.7082 L437.71954 321.42786 L435.49802 324.7549 Z "/>
      </g>
      <g style="fill:#AB4900;stroke:none;">
        <path d="M75.204834 -14.878693 C68.86929 -5.830597 56.39837 -3.6316223 47.350273 -9.967194 C38.30217 -16.302734 36.10321 -28.773651 42.43875 -37.821747 C48.774292 -46.869843 61.24521 -49.068817 70.29331 -42.733276 C79.341415 -36.397736 81.540375 -23.926788 75.204834 -14.878693 Z "/>
      </g>
      <g style="fill:#0066AB;stroke:none;">
        <path d="M75.204834 -14.878693 L72.43379 -11.691498 L69.16372 -9.225891 L65.52184 -7.504242 L61.635483 -6.549103 L57.631874 -6.3828735 L53.638306 -7.0280457 L50.19976 -8.300751 L46.58078 -10.533325 L43.85302 -13.079254 L41.46895 -16.396973 L39.831383 -20.072296 L38.9628 -23.977966 L38.885628 -27.986725 L39.6223 -31.971313 L40.978477 -35.389984 L43.299126 -38.96295 L46.25065 -41.91211 L49.261513 -43.92224 L52.968704 -45.475464 L56.892128 -46.257233 L60.904488 -46.245087 L64.878555 -45.416595 L68.68706 -43.74933 L71.797516 -41.57144 L74.66681 -38.562866 L76.80454 -35.111847 L78.18827 -31.345612 L78.79553 -27.391418 L78.60393 -23.376556 L77.7448 -19.859772 L75.98297 -16.077545 L75.204834 -14.878693 Z "/>
      </g>
      <g style="fill:#AB7A55;stroke:none;">
        <path d="M132.5456 25.271622 C126.21005 34.319717 113.739136 36.518677 104.69103 30.183136 C95.64293 23.847595 93.44397 11.376663 99.77951 2.3285675 C106.11505 -6.7195435 118.58597 -8.918488 127.63408 -2.5829468 C136.68217 3.752594 138.88113 16.223526 132.5456 25.271622 Z "/>
      </g>
      <g style="fill:#AB7A55;stroke:none;">
        <path d="M132.5456 25.271622 L129.77457 28.458817 L126.504486 30.924454 L122.86264 32.646088 L118.97626 33.601227 L114.97267 33.767456 L110.9791 33.122314 L107.540565 31.849594 L103.92154 29.61699 L101.19379 27.071045 L98.80971 23.753357 L97.17215 20.078033 L96.30359 16.172363 L96.2264 12.163605 L96.963066 8.178986 L98.31925 4.76033 L100.63989 1.1873627 L103.5914 -1.7618103 L106.60228 -3.7719421 L110.30945 -5.325165 L114.23288 -6.1069336 L118.24524 -6.0947876 L122.2193 -5.2662964 L126.02779 -3.5990295 L129.13829 -1.4211426 L132.00758 1.5874481 L134.14532 5.0384827 L135.52905 8.804718 L136.1363 12.758911 L135.9447 16.773758 L135.08557 20.290558 L133.32375 24.07277 L132.5456 25.271622 Z "/>
      </g>
      <g style="fill:#AB4900;stroke:none;">
        <path d="M189.88618 65.42192 C183.55066 74.47003 171.07974 76.66899 162.03163 70.33345 C152.9835 63.997925 150.78456 51.527008 157.12009 42.478897 C163.45563 33.4308 175.92654 31.231827 184.97467 37.567352 C194.02278 43.90291 196.22173 56.373825 189.88618 65.42192 Z "/>
      </g>
      <g style="fill:#0066AB;stroke:none;">
        <path d="M189.88618 65.42192 L187.11516 68.609116 L183.8451 71.07475 L180.20325 72.79639 L176.31686 73.75154 L172.31328 73.917755 L168.31972 73.27263 L164.88115 71.99989 L161.26213 69.7673 L158.53435 67.221375 L156.15025 63.903656 L154.51271 60.228348 L153.64412 56.322678 L153.56694 52.313904 L154.3036 48.3293 L155.65979 44.910645 L157.98047 41.337692 L160.93198 38.38852 L163.94284 36.378387 L167.65001 34.82515 L171.57344 34.04338 L175.5858 34.055527 L179.55989 34.883957 L183.36841 36.55124 L186.47888 38.72917 L189.3482 41.737778 L191.48596 45.188812 L192.86969 48.955048 L193.47694 52.90924 L193.28531 56.924088 L192.4262 60.440887 L190.66435 64.22308 L189.88618 65.42192 Z "/>
      </g>
      <g style="fill:#AB7A55;stroke:none;">
        <path d="M247.22775 105.572266 C240.89221 114.62038 228.4213 116.81935 219.37318 110.483795 C210.32507 104.14824 208.12613 91.67732 214.46165 82.62921 C220.7972 73.581116 233.26813 71.38214 242.31622 77.71768 C251.36432 84.05324 253.5633 96.52417 247.22775 105.572266 Z "/>
      </g>
      <g style="fill:#AB7A55;stroke:none;">
        <path d="M247.22775 105.572266 L244.45673 108.75946 L241.18665 111.2251 L237.54477 112.94673 L233.65842 113.901886 L229.65482 114.0681 L225.66125 113.42294 L222.22269 112.15021 L218.6037 109.91763 L215.87592 107.37167 L213.4918 104.05397 L211.85425 100.37866 L210.98569 96.47299 L210.90851 92.46422 L211.64517 88.479614 L213.00134 85.06094 L215.32204 81.48801 L218.27356 78.53885 L221.28441 76.52872 L224.99158 74.97548 L228.91501 74.193695 L232.92737 74.20584 L236.90143 75.03433 L240.70996 76.701614 L243.82043 78.87952 L246.68976 81.88812 L248.82748 85.33917 L250.21121 89.10538 L250.81848 93.0596 L250.62686 97.07443 L249.76773 100.59123 L248.00589 104.37341 L247.22775 105.572266 Z "/>
      </g>
      <g style="fill:#AB4900;stroke:none;">
        <path d="M304.56802 145.72232 C298.23248 154.77042 285.76154 156.96938 276.71344 150.63382 C267.66534 144.29828 265.46637 131.82736 271.80194 122.77927 C278.13745 113.73117 290.6084 111.532196 299.6565 117.86774 C308.7046 124.20329 310.90356 136.67422 304.56802 145.72232 Z "/>
      </g>
      <g style="fill:#0066AB;stroke:none;">
        <path d="M304.56802 145.72232 L301.797 148.9095 L298.52692 151.37512 L294.885 153.09674 L290.99866 154.05191 L286.99506 154.21811 L283.00146 153.57297 L279.56296 152.30026 L275.94397 150.06769 L273.21625 147.52177 L270.8322 144.2041 L269.19464 140.52878 L268.32605 136.62308 L268.24887 132.61432 L268.98553 128.62971 L270.34167 125.21103 L272.6623 121.63803 L275.61383 118.6889 L278.6247 116.67877 L282.3319 115.12555 L286.2553 114.34378 L290.2677 114.35593 L294.24176 115.18442 L298.0502 116.85162 L301.1607 119.02957 L304.02997 122.03812 L306.16766 125.489136 L307.5514 129.25537 L308.1587 133.20956 L307.96707 137.22443 L307.1079 140.74121 L305.34613 144.52342 L304.56802 145.72232 Z "/>
      </g>
      <g style="fill:#AB7A55;stroke:none;">
        <path d="M361.90778 185.87308 C355.57224 194.92117 343.10132 197.12013 334.05322 190.78459 C325.00513 184.44905 322.80612 171.97813 329.14166 162.93004 C335.47723 153.88194 347.94818 151.68297 356.99628 158.01851 C366.04437 164.35405 368.24332 176.82498 361.90778 185.87308 Z "/>
      </g>
      <g style="fill:#AB7A55;stroke:none;">
        <path d="M361.90778 185.87308 L359.13672 189.06027 L355.86667 191.5259 L352.22476 193.24751 L348.33844 194.20267 L344.3348 194.36887 L340.34125 193.72372 L336.9027 192.45102 L333.28372 190.21844 L330.556 187.67253 L328.17194 184.35486 L326.53436 180.67953 L325.66577 176.77385 L325.58862 172.76508 L326.3253 168.78047 L327.68146 165.3618 L330.00204 161.78883 L332.95358 158.83969 L335.96448 156.82953 L339.67166 155.2763 L343.5951 154.4945 L347.60748 154.50665 L351.58154 155.33507 L355.39 157.00229 L358.50046 159.18033 L361.3697 162.18887 L363.50742 165.6399 L364.89117 169.40613 L365.4984 173.36034 L365.30682 177.3752 L364.4477 180.89198 L362.68588 184.6742 L361.90778 185.87308 Z "/>
      </g>
      <g style="fill:#AB4900;stroke:none;">
        <path d="M419.255 226.0242 C412.9195 235.0723 400.44855 237.27126 391.40045 230.93571 C382.35236 224.60017 380.15338 212.12924 386.48895 203.08115 C392.82446 194.03305 405.2954 191.83409 414.3435 198.16963 C423.3916 204.50517 425.59058 216.9761 419.255 226.0242 Z "/>
      </g>
      <g style="fill:#0066AB;stroke:none;">
        <path d="M419.255 226.0242 L416.48398 229.2114 L413.21393 231.67702 L409.57202 233.39864 L405.68567 234.35379 L401.68207 234.52 L397.68848 233.87485 L394.24997 232.60214 L390.63098 230.36958 L387.90326 227.82367 L385.51923 224.50598 L383.88165 220.83066 L383.01303 216.92497 L382.93585 212.9162 L383.67255 208.93161 L385.0287 205.51292 L387.3493 201.93993 L390.30084 198.99078 L393.3117 196.98065 L397.01892 195.42743 L400.94232 194.64566 L404.9547 194.65782 L408.92877 195.4863 L412.7372 197.15352 L415.84772 199.33145 L418.71695 202.34 L420.85468 205.79102 L422.2384 209.55727 L422.84567 213.51146 L422.65408 217.52632 L421.79492 221.0431 L420.03314 224.82532 L419.255 226.0242 Z "/>
      </g>
      <g style="fill:#AB7A55;stroke:none;">
        <path d="M476.58838 266.17377 C470.25284 275.22186 457.78186 277.42084 448.73376 271.08527 C439.6856 264.7497 437.4867 252.2788 443.8222 243.2307 C450.15778 234.1826 462.62866 231.98363 471.67682 238.3192 C480.7249 244.65474 482.92392 257.12567 476.58838 266.17377 Z "/>
      </g>
      <g style="fill:#AB7A55;stroke:none;">
        <path d="M476.58838 266.17377 L473.81738 269.36096 L470.5472 271.82657 L466.9053 273.5482 L463.01898 274.5034 L459.01538 274.66962 L455.02182 274.02454 L451.58325 272.75183 L447.9643 270.51913 L445.2365 267.9732 L442.85245 264.65552 L441.2149 260.9802 L440.3463 257.07452 L440.2691 253.06573 L441.0058 249.08113 L442.36194 245.66246 L444.68262 242.08948 L447.63412 239.14034 L450.645 237.1302 L454.35217 235.57698 L458.2756 234.79521 L462.28796 234.80737 L466.26205 235.63585 L470.07053 237.3031 L473.181 239.48102 L476.05032 242.48961 L478.18805 245.94063 L479.57178 249.70685 L480.17896 253.66101 L479.98737 257.67584 L479.1283 261.1927 L477.36646 264.97488 L476.58838 266.17377 Z "/>
      </g>
      <g style="fill:#AB4900;stroke:none;">
        <path d="M95.499535 -103.38541 C106.3774 -105.30344 116.750565 -98.04007 118.66864 -87.16217 C120.586716 -76.28427 113.32332 -65.9111 102.445465 -63.993073 C91.56758 -62.075043 81.19442 -69.33841 79.276344 -80.21628 C77.35829 -91.09415 84.621666 -101.467316 95.499535 -103.38541 Z "/>
      </g>
      <g style="fill:#0066AB;stroke:none;">
        <path d="M114.69237 -71.32422 L111.912285 -68.435 L108.57383 -66.13837 L105.197495 -64.67999 L101.03014 -63.794525 L96.857666 -63.796173 L93.30727 -64.503784 L89.58759 -66.026886 L86.26054 -68.24838 L83.43194 -71.094086 L81.207695 -74.49005 L79.69363 -78.36197 L79.03425 -82.10144 L79.13273 -86.25775 L80.06137 -90.209595 L81.74608 -93.8512 L84.11272 -97.07663 L87.08713 -99.78009 L90.18141 -101.65933 L94.10166 -103.08795 L95.499535 -103.38541 L99.71269 -103.67966 L103.768456 -103.11084 L107.561005 -101.75299 L110.984474 -99.68033 L113.932976 -96.96689 L116.30066 -93.68683 L117.83212 -90.35544 L118.81242 -86.21774 L118.94101 -82.48868 L118.28084 -78.45694 L116.839935 -74.700165 L114.69237 -71.32422 Z "/>
      </g>
      <g style="fill:#AB7A55;stroke:none;">
        <path d="M152.84012 -63.23523 C163.718 -65.15329 174.09117 -57.889923 176.00925 -47.012054 C177.92729 -36.134155 170.6639 -25.760956 159.78604 -23.842957 C148.90819 -21.924866 138.53499 -29.188263 136.61694 -40.06613 C134.69887 -50.94403 141.96222 -61.31717 152.84012 -63.23523 Z "/>
      </g>
      <g style="fill:#AB7A55;stroke:none;">
        <path d="M172.03296 -31.174103 L169.25287 -28.284851 L165.91441 -25.98822 L162.53806 -24.529846 L158.3707 -23.644379 L154.19824 -23.646057 L150.64783 -24.353668 L146.92816 -25.87674 L143.60112 -28.098206 L140.77252 -30.94397 L138.54828 -34.339905 L137.03421 -38.211853 L136.37483 -41.951263 L136.47333 -46.107574 L137.40195 -50.059418 L139.08667 -53.70102 L141.4533 -56.926453 L144.42772 -59.629913 L147.522 -61.509186 L151.44226 -62.937805 L152.84012 -63.23523 L157.05331 -63.52951 L161.10907 -62.960663 L164.90161 -61.602814 L168.32507 -59.53015 L171.27357 -56.81671 L173.64127 -53.53665 L175.17273 -50.20529 L176.15302 -46.067596 L176.28159 -42.338562 L175.62144 -38.306793 L174.18051 -34.55002 L172.03296 -31.174103 Z "/>
      </g>
      <g style="fill:#AB4900;stroke:none;">
        <path d="M210.1806 -23.085419 C221.0585 -25.003479 231.43169 -17.740112 233.34975 -6.862213 C235.26782 4.0156555 228.00441 14.388824 217.12656 16.306839 C206.24867 18.22496 195.87549 10.961578 193.95744 0.08364868 C192.03937 -10.79422 199.30275 -21.167358 210.1806 -23.085419 Z "/>
      </g>
      <g style="fill:#0066AB;stroke:none;">
        <path d="M229.37344 8.975723 L226.59335 11.864929 L223.25493 14.161575 L219.87857 15.619934 L215.71123 16.505417 L211.53876 16.503754 L207.98836 15.796173 L204.26868 14.273056 L200.9416 12.051575 L198.113 9.205826 L195.88873 5.80986 L194.37466 1.9379272 L193.71533 -1.8014832 L193.81381 -5.957794 L194.74246 -9.909637 L196.42715 -13.551239 L198.79378 -16.776672 L201.76823 -19.480133 L204.86247 -21.359406 L208.78275 -22.788025 L210.1806 -23.085419 L214.39377 -23.37973 L218.44957 -22.810883 L222.24214 -21.453033 L225.6656 -19.38034 L228.6141 -16.6669 L230.98183 -13.386841 L232.5133 -10.05545 L233.49356 -5.9177856 L233.6221 -2.1887207 L232.96194 1.8430176 L231.52103 5.5997925 L229.37344 8.975723 Z "/>
      </g>
      <g style="fill:#AB7A55;stroke:none;">
        <path d="M267.5216 17.065216 C278.39944 15.147217 288.77264 22.410553 290.69067 33.288467 C292.60876 44.16635 285.34537 54.53952 274.46753 56.457565 C263.58963 58.37564 253.21646 51.112274 251.2984 40.234375 C249.38034 29.356491 256.64374 18.983307 267.5216 17.065216 Z "/>
      </g>
      <g style="fill:#AB7A55;stroke:none;">
        <path d="M286.71442 49.12642 L283.9343 52.015625 L280.59586 54.312256 L277.2195 55.77063 L273.0522 56.656128 L268.8797 56.65448 L265.3293 55.94687 L261.60962 54.42375 L258.2826 52.20227 L255.45398 49.356537 L253.22974 45.9606 L251.71567 42.088654 L251.05627 38.349213 L251.15479 34.192932 L252.0834 30.241089 L253.76813 26.599457 L256.13474 23.374023 L259.1092 20.670593 L262.20343 18.79132 L266.1237 17.362686 L267.5216 17.065216 L271.73474 16.770935 L275.79053 17.339813 L279.58307 18.697617 L283.00653 20.770294 L285.95505 23.483719 L288.32272 26.76381 L289.8542 30.0952 L290.83447 34.23291 L290.963 37.96196 L290.3029 41.99373 L288.86197 45.75049 L286.71442 49.12642 Z "/>
      </g>
      <g style="fill:#AB4900;stroke:none;">
        <path d="M324.8617 57.21698 C335.73956 55.298965 346.11276 62.562347 348.03082 73.440216 C349.94885 84.318054 342.6855 94.69125 331.80762 96.6093 C320.92975 98.52739 310.55658 91.26401 308.6385 80.38614 C306.72043 69.50824 313.98383 59.13504 324.8617 57.21698 Z "/>
      </g>
      <g style="fill:#0066AB;stroke:none;">
        <path d="M344.05453 89.27814 L341.27448 92.16739 L337.93597 94.464005 L334.55966 95.92239 L330.39227 96.80786 L326.21982 96.80623 L322.66943 96.09862 L318.94977 94.5755 L315.62268 92.35402 L312.79407 89.50827 L310.56982 86.11235 L309.0558 82.2404 L308.39642 78.50098 L308.49487 74.34468 L309.4235 70.39282 L311.10825 66.751236 L313.47485 63.525787 L316.44928 60.822342 L319.54358 58.943085 L323.46384 57.514465 L324.8617 57.21698 L329.07486 56.922714 L333.1306 57.491547 L336.92316 58.849396 L340.34665 60.922073 L343.29517 63.63556 L345.6629 66.915634 L347.19434 70.24701 L348.1746 74.38464 L348.30313 78.11371 L347.643 82.14545 L346.2021 85.90222 L344.05453 89.27814 Z "/>
      </g>
      <g style="fill:#AB7A55;stroke:none;">
        <path d="M382.2028 97.365234 C393.0807 95.447174 403.45386 102.710556 405.37195 113.58844 C407.28998 124.46634 400.0266 134.83954 389.14868 136.75754 C378.27087 138.67564 367.89767 131.41223 365.9796 120.53433 C364.06152 109.65648 371.32492 99.283325 382.2028 97.365234 Z "/>
      </g>
      <g style="fill:#AB7A55;stroke:none;">
        <path d="M401.39566 129.4264 L398.6156 132.31563 L395.27713 134.61224 L391.90076 136.07065 L387.73337 136.9561 L383.5609 136.95447 L380.0105 136.24686 L376.29083 134.72374 L372.96375 132.50226 L370.13513 129.6565 L367.9109 126.26059 L366.39685 122.388626 L365.7375 118.64917 L365.83597 114.49292 L366.7646 110.54106 L368.4493 106.899475 L370.81595 103.67401 L373.79037 100.97058 L376.88464 99.09131 L380.8049 97.662674 L382.2028 97.365234 L386.41595 97.07092 L390.4717 97.639786 L394.26428 98.99759 L397.68774 101.07028 L400.6363 103.78377 L403.004 107.06384 L404.53546 110.39522 L405.51572 114.53287 L405.6443 118.26195 L404.98413 122.29372 L403.5432 126.05049 L401.39566 129.4264 Z "/>
      </g>
      <g style="fill:#AB4900;stroke:none;">
        <path d="M439.54315 137.51654 C450.421 135.59846 460.7942 142.86185 462.71225 153.73973 C464.6303 164.61763 457.36694 174.99083 446.48907 176.90886 C435.61118 178.82693 425.238 171.56352 423.31995 160.68562 C421.40192 149.80777 428.66528 139.4346 439.54315 137.51654 Z "/>
      </g>
      <g style="fill:#0066AB;stroke:none;">
        <path d="M458.73596 169.5777 L455.9559 172.46695 L452.61743 174.76357 L449.2411 176.22198 L445.07373 177.10742 L440.90125 177.10579 L437.35086 176.39816 L433.63116 174.87506 L430.30414 172.65356 L427.47546 169.80782 L425.25125 166.4119 L423.73718 162.53993 L423.07782 158.80046 L423.17633 154.6442 L424.10498 150.69237 L425.7897 147.05077 L428.1563 143.82535 L431.13074 141.12187 L434.22504 139.24261 L438.1453 137.814 L439.54315 137.51654 L443.75632 137.22227 L447.81204 137.79109 L451.6046 139.14894 L455.02808 141.22162 L457.97662 143.93507 L460.34433 147.21515 L461.87576 150.54652 L462.85602 154.68416 L462.9846 158.41324 L462.32446 162.445 L460.88354 166.20178 L458.73596 169.5777 Z "/>
      </g>
      <g style="fill:#AB7A55;stroke:none;">
        <path d="M496.88373 177.66666 C507.7616 175.74861 518.13477 183.01196 520.05286 193.8899 C521.9709 204.76778 514.7075 215.14095 503.82965 217.05898 C492.95178 218.97705 482.5786 211.7137 480.66052 200.83582 C478.7425 189.95792 486.00586 179.58472 496.88373 177.66666 Z "/>
      </g>
      <g style="fill:#AB7A55;stroke:none;">
        <path d="M516.07654 209.72783 L513.29645 212.61705 L509.958 214.91371 L506.58167 216.3721 L502.4143 217.25754 L498.24188 217.2559 L494.6915 216.54832 L490.97186 215.02524 L487.64478 212.80376 L484.81616 209.958 L482.59192 206.56209 L481.07788 202.69012 L480.41843 198.95065 L480.5169 194.79436 L481.44553 190.84251 L483.13025 187.20091 L485.4969 183.97546 L488.4713 181.27202 L491.56558 179.39276 L495.48587 177.96414 L496.88373 177.66666 L501.09692 177.37239 L505.15265 177.94122 L508.9452 179.29904 L512.36865 181.37172 L515.3172 184.08519 L517.6848 187.36522 L519.2163 190.69662 L520.19666 194.83432 L520.3252 198.56337 L519.66504 202.59515 L518.22406 206.35191 L516.07654 209.72783 Z "/>
      </g>
      <g style="fill:#AB4900;stroke:none;">
        <path d="M127.65187 -124.64819 C118.603775 -130.98373 116.404816 -143.45468 122.74036 -152.50278 C129.0759 -161.55087 141.54683 -163.74982 150.59492 -157.41428 C159.64302 -151.07874 161.84198 -138.60782 155.50644 -129.55972 C149.17088 -120.5116 136.69997 -118.31265 127.65187 -124.64819 Z "/>
      </g>
      <g style="fill:#0066AB;stroke:none;">
        <path d="M156.52258 -131.16599 L154.3446 -128.05554 L151.33606 -125.18625 L147.88504 -123.04852 L144.11879 -121.664764 L140.16461 -121.057495 L136.14975 -121.249115 L132.63293 -122.108246 L128.8507 -123.87012 L127.65187 -124.64819 L124.46463 -127.41925 L121.99899 -130.68936 L120.27739 -134.33127 L119.322235 -138.21759 L119.15604 -142.22119 L119.80118 -146.21475 L121.07388 -149.65326 L123.30649 -153.27225 L125.85242 -155.99997 L129.17007 -158.384 L132.8454 -160.0216 L136.75108 -160.8902 L140.75986 -160.96735 L144.74446 -160.23068 L148.16316 -158.87451 L151.73615 -156.55392 L154.68532 -153.60233 L156.69547 -150.59146 L158.2487 -146.88428 L159.03046 -142.96085 L159.0183 -138.94849 L158.18982 -134.97443 L156.52258 -131.16599 Z "/>
      </g>
      <g style="fill:#AB7A55;stroke:none;">
        <path d="M184.99197 -84.497955 C175.94388 -90.833496 173.74493 -103.30441 180.08047 -112.35251 C186.41602 -121.400604 198.88693 -123.59958 207.93503 -117.26404 C216.98314 -110.9285 219.1821 -98.45755 212.84656 -89.409454 C206.511 -80.36133 194.04008 -78.162415 184.99197 -84.497955 Z "/>
      </g>
      <g style="fill:#AB7A55;stroke:none;">
        <path d="M211.68472 -87.90524 L208.6762 -85.03601 L205.22516 -82.898254 L201.45891 -81.51453 L197.50473 -80.90723 L193.48987 -81.098816 L189.97307 -81.95801 L186.19083 -83.71982 L184.99197 -84.497955 L181.80475 -87.26901 L179.3391 -90.53909 L177.61751 -94.18097 L176.66238 -98.06729 L176.49615 -102.07089 L177.1413 -106.06448 L178.41403 -109.50299 L180.6466 -113.12201 L183.19252 -115.84973 L186.5102 -118.233765 L190.1855 -119.87134 L194.09119 -120.73993 L198.09995 -120.81711 L202.08456 -120.080444 L205.50327 -118.72427 L209.07625 -116.403656 L212.02544 -113.45209 L214.03558 -110.44122 L215.5888 -106.73401 L216.37054 -102.81064 L216.35838 -98.79822 L215.52992 -94.82419 L213.86267 -91.01575 L211.68472 -87.90524 Z "/>
      </g>
      <g style="fill:#AB4900;stroke:none;">
        <path d="M242.33157 -44.34778 C233.28348 -50.68332 231.0845 -63.154266 237.42006 -72.20236 C243.75558 -81.25046 256.22653 -83.4494 265.27463 -77.11386 C274.32272 -70.77829 276.52167 -58.307404 270.18616 -49.259308 C263.8506 -40.211212 251.37967 -38.012238 242.33157 -44.34778 Z "/>
      </g>
      <g style="fill:#0066AB;stroke:none;">
        <path d="M271.2023 -50.86557 L269.0243 -47.755096 L266.01578 -44.885834 L262.56476 -42.748108 L258.7985 -41.36438 L254.84433 -40.75711 L250.82947 -40.94873 L247.31265 -41.80786 L243.5304 -43.569733 L242.33157 -44.34778 L239.14432 -47.118835 L236.67863 -50.388977 L234.95705 -54.030853 L234.00189 -57.917175 L233.8357 -61.920776 L234.48083 -65.91437 L235.75356 -69.352905 L237.98619 -72.97183 L240.5321 -75.699554 L243.8498 -78.08362 L247.52509 -79.72116 L251.43079 -80.58978 L255.43954 -80.66693 L259.42413 -79.9303 L262.84286 -78.5741 L266.41586 -76.25348 L269.36505 -73.30188 L271.3752 -70.291046 L272.92844 -66.58383 L273.71017 -62.6604 L273.69803 -58.64801 L272.86957 -54.67398 L271.2023 -50.86557 Z "/>
      </g>
      <g style="fill:#AB7A55;stroke:none;">
        <path d="M299.67148 -4.1979675 C290.62338 -10.533508 288.42444 -23.004456 294.75998 -32.05255 C301.09552 -41.100677 313.56644 -43.29959 322.61453 -36.96405 C331.66263 -30.62851 333.8616 -18.157623 327.52606 -9.109497 C321.19052 -0.061401367 308.71957 2.1375732 299.67148 -4.1979675 Z "/>
      </g>
      <g style="fill:#AB7A55;stroke:none;">
        <path d="M328.5422 -10.715729 L326.36423 -7.605316 L323.3557 -4.736023 L319.90466 -2.5983276 L316.13843 -1.2145996 L312.18423 -0.6072998 L308.16937 -0.7989197 L304.6526 -1.658081 L300.8703 -3.4198914 L299.67148 -4.1979675 L296.48422 -6.969055 L294.01855 -10.239166 L292.29697 -13.881073 L291.34183 -17.767395 L291.1756 -21.770996 L291.82074 -25.764587 L293.09348 -29.203064 L295.3261 -32.82202 L297.872 -35.549744 L301.18973 -37.933807 L304.86502 -39.57138 L308.77072 -40.440033 L312.77948 -40.51718 L316.7641 -39.780518 L320.1828 -38.424316 L323.75577 -36.1037 L326.70496 -33.1521 L328.71515 -30.141205 L330.26834 -26.434052 L331.0501 -22.51062 L331.03796 -18.49823 L330.20947 -14.52417 L328.5422 -10.715729 Z "/>
      </g>
      <g style="fill:#AB4900;stroke:none;">
        <path d="M357.01184 35.95166 C347.96375 29.61612 345.76477 17.145203 352.10034 8.097107 C358.43585 -0.95098877 370.9068 -3.1499634 379.9549 3.1855774 C389.003 9.521118 391.20197 21.992065 384.8664 31.040161 C378.53088 40.088257 366.05994 42.2872 357.01184 35.95166 Z "/>
      </g>
      <g style="fill:#0066AB;stroke:none;">
        <path d="M383.7046 32.544373 L380.69604 35.413605 L377.24503 37.5513 L373.47876 38.93506 L369.5246 39.542328 L365.5097 39.35074 L361.99292 38.491577 L358.21072 36.729767 L357.01184 35.95166 L353.82465 33.18062 L351.359 29.910568 L349.6374 26.268677 L348.68225 22.382324 L348.51605 18.378693 L349.1612 14.385117 L350.4339 10.9466095 L352.66644 7.327606 L355.21237 4.599884 L358.53006 2.2158508 L362.20538 0.5782776 L366.11108 -0.29031372 L370.11984 -0.36749268 L374.10443 0.36917114 L377.52313 1.7253418 L381.0961 4.0459595 L384.04523 6.9974823 L386.0554 10.008347 L387.60858 13.715546 L388.39038 17.638977 L388.3782 21.651337 L387.54974 25.625381 L385.8825 29.433853 L383.7046 32.544373 Z "/>
      </g>
      <g style="fill:#AB7A55;stroke:none;">
        <path d="M414.35114 76.10071 C405.30304 69.76517 403.1041 57.29422 409.43964 48.246124 C415.77518 39.19803 428.2461 36.999084 437.2942 43.334625 C446.3423 49.670166 448.54126 62.141083 442.20572 71.18918 C435.87018 80.237274 423.39923 82.43625 414.35114 76.10071 Z "/>
      </g>
      <g style="fill:#AB7A55;stroke:none;">
        <path d="M441.0439 72.693405 L438.03537 75.56265 L434.58435 77.70036 L430.81808 79.08411 L426.8639 79.691376 L422.84903 79.499756 L419.33224 78.640625 L415.55005 76.87883 L414.35114 76.10071 L411.16397 73.329666 L408.69836 70.059586 L406.9767 66.417694 L406.02155 62.53134 L405.85535 58.52774 L406.5005 54.534164 L407.7732 51.095657 L410.0058 47.476654 L412.5517 44.74893 L415.8694 42.3649 L419.54468 40.72731 L423.45038 39.85872 L427.45917 39.781555 L431.44376 40.51822 L434.86243 41.874374 L438.43542 44.194977 L441.38458 47.14653 L443.3947 50.157394 L444.94794 53.86458 L445.72968 57.78801 L445.71753 61.8004 L444.88904 65.77443 L443.22183 69.5829 L441.0439 72.693405 Z "/>
      </g>
      <g style="fill:#AB4900;stroke:none;">
        <path d="M471.69656 116.253845 C462.64847 109.91829 460.44952 97.44736 466.78503 88.39926 C473.1206 79.351166 485.59152 77.15221 494.63962 83.48776 C503.68774 89.8233 505.88666 102.29422 499.55115 111.342316 C493.21558 120.39041 480.74466 122.589386 471.69656 116.253845 Z "/>
      </g>
      <g style="fill:#0066AB;stroke:none;">
        <path d="M498.38928 112.84651 L495.38077 115.715775 L491.92975 117.853485 L488.1635 119.23723 L484.2093 119.8445 L480.19446 119.65288 L476.67767 118.79375 L472.89545 117.03195 L471.69656 116.253845 L468.50937 113.4828 L466.04376 110.21272 L464.32214 106.570816 L463.36697 102.68448 L463.20074 98.68086 L463.84592 94.68729 L465.1186 91.24875 L467.3512 87.62979 L469.8971 84.90207 L473.21478 82.51799 L476.89014 80.88043 L480.79578 80.01184 L484.80457 79.93469 L488.78918 80.671326 L492.20786 82.02748 L495.78082 84.348114 L498.72998 87.29967 L500.7401 90.31053 L502.29333 94.017715 L503.07513 97.94115 L503.063 101.95352 L502.2345 105.92757 L500.56726 109.73599 L498.38928 112.84651 Z "/>
      </g>
      <g style="fill:#AB7A55;stroke:none;">
        <path d="M529.03784 156.40607 C519.98975 150.07053 517.7908 137.59958 524.12634 128.55148 C530.46185 119.50339 542.93274 117.30444 551.98083 123.639984 C561.02893 129.97552 563.2279 142.44643 556.8924 151.49452 C550.5568 160.54262 538.08594 162.74161 529.03784 156.40607 Z "/>
      </g>
      <g style="fill:#AB7A55;stroke:none;">
        <path d="M555.7306 152.99872 L552.722 155.86798 L549.27094 158.00566 L545.5047 159.3894 L541.55054 159.99673 L537.53577 159.80515 L534.019 158.94603 L530.23676 157.18417 L529.03784 156.40607 L525.85065 153.63503 L523.385 150.36494 L521.6634 146.72305 L520.70825 142.8367 L520.54205 138.8331 L521.1872 134.83952 L522.4599 131.40099 L524.6925 127.78201 L527.23834 125.05429 L530.556 122.67023 L534.2314 121.03267 L538.1371 120.16409 L542.1458 120.086914 L546.13043 120.82358 L549.5491 122.17973 L553.1221 124.50037 L556.0713 127.45195 L558.0814 130.46278 L559.6346 134.16997 L560.41626 138.09335 L560.4041 142.10573 L559.5757 146.0798 L557.90845 149.88824 L555.7306 152.99872 Z "/>
      </g>
      <g style="fill:#AB4900;stroke:none;">
        <path d="M198.96843 -201.84381 C200.88657 -190.96594 193.62317 -180.59274 182.74527 -178.67471 C171.8674 -176.75662 161.49425 -184.02002 159.57614 -194.89792 C157.65808 -205.77579 164.92145 -216.14896 175.79932 -218.06702 C186.6772 -219.98505 197.0504 -212.72174 198.96843 -201.84381 Z "/>
      </g>
      <g style="fill:#0066AB;stroke:none;">
        <path d="M195.26347 -186.35895 L192.55 -183.4104 L189.26996 -181.0427 L185.93857 -179.51126 L181.80087 -178.53091 L178.07178 -178.40234 L174.04001 -179.0625 L170.28325 -180.50339 L166.90733 -182.65094 L164.01813 -185.431 L161.72153 -188.7695 L160.26308 -192.14584 L159.37756 -196.31323 L159.37924 -200.48569 L160.08685 -204.0361 L161.60992 -207.75577 L163.83142 -211.08286 L166.67719 -213.9114 L170.07306 -216.13565 L173.945 -217.64966 L177.68448 -218.30911 L181.84079 -218.2106 L185.79268 -217.28201 L189.43422 -215.59732 L192.65968 -213.23071 L195.3631 -210.25626 L197.24232 -207.16199 L198.67097 -203.24173 L198.96843 -201.84381 L199.26276 -197.63065 L198.69391 -193.57489 L197.33618 -189.78241 L195.26347 -186.35895 Z "/>
      </g>
      <g style="fill:#AB7A55;stroke:none;">
        <path d="M256.3091 -161.69345 C258.22723 -150.81558 250.96387 -140.44241 240.08598 -138.52435 C229.20808 -136.6063 218.83492 -143.86966 216.91682 -154.74753 C214.99878 -165.6254 222.26215 -175.99863 233.13998 -177.91666 C244.01791 -179.83475 254.39108 -172.57138 256.3091 -161.69345 Z "/>
      </g>
      <g style="fill:#AB7A55;stroke:none;">
        <path d="M252.60416 -146.20859 L249.89069 -143.26004 L246.61063 -140.89233 L243.27924 -139.3609 L239.14154 -138.38058 L235.41246 -138.25201 L231.3807 -138.91214 L227.62393 -140.35309 L224.24803 -142.50061 L221.35884 -145.28067 L219.0622 -148.61914 L217.60379 -151.99548 L216.71826 -156.16284 L216.71992 -160.3353 L217.42754 -163.88574 L218.95062 -167.60541 L221.1721 -170.9325 L224.01787 -173.76105 L227.41373 -175.98529 L231.28566 -177.4993 L235.02515 -178.15875 L239.18147 -178.06024 L243.13336 -177.13162 L246.7749 -175.44693 L250.00037 -173.08035 L252.70377 -170.1059 L254.58301 -167.01163 L256.01166 -163.09137 L256.3091 -161.69345 L256.60342 -157.48029 L256.03458 -153.42453 L254.67685 -149.63205 L252.60416 -146.20859 Z "/>
      </g>
      <g style="fill:#AB4900;stroke:none;">
        <path d="M313.6515 -121.54666 C315.56955 -110.66876 308.30618 -100.29562 297.42828 -98.37756 C286.5504 -96.45947 276.17725 -103.72281 274.25916 -114.60071 C272.34106 -125.47861 279.60443 -135.85175 290.48236 -137.76987 C301.36017 -139.6879 311.7334 -132.42456 313.6515 -121.54666 Z "/>
      </g>
      <g style="fill:#0066AB;stroke:none;">
        <path d="M309.94647 -106.06177 L307.233 -103.11325 L303.95294 -100.74548 L300.62155 -99.21408 L296.48386 -98.233765 L292.7548 -98.105194 L288.72302 -98.76535 L284.96625 -100.20627 L281.59033 -102.35379 L278.70114 -105.13385 L276.40448 -108.47235 L274.94608 -111.848694 L274.06055 -116.01605 L274.06223 -120.18848 L274.76984 -123.73889 L276.29294 -127.45862 L278.51443 -130.78568 L281.3602 -133.61423 L284.75607 -135.83847 L288.62805 -137.35257 L292.36752 -138.01196 L296.5238 -137.91348 L300.47568 -136.98483 L304.11725 -135.30011 L307.3427 -132.9335 L310.04617 -129.95908 L311.9254 -126.86478 L313.35406 -122.94455 L313.6515 -121.54666 L313.94577 -117.33353 L313.3769 -113.27771 L312.01917 -109.48523 L309.94647 -106.06177 Z "/>
      </g>
      <g style="fill:#AB7A55;stroke:none;">
        <path d="M370.9895 -81.39075 C372.90756 -70.51285 365.64423 -60.13968 354.76633 -58.22165 C343.88846 -56.30356 333.51532 -63.566925 331.59717 -74.44476 C329.67914 -85.32269 336.94244 -95.69586 347.82034 -97.61392 C358.69824 -99.53198 369.0714 -92.268585 370.9895 -81.39075 Z "/>
      </g>
      <g style="fill:#AB7A55;stroke:none;">
        <path d="M367.28455 -65.90585 L364.57108 -62.957306 L361.29102 -60.58957 L357.95963 -59.058167 L353.82187 -58.07785 L350.0928 -57.94925 L346.06104 -58.609436 L342.30426 -60.050354 L338.92838 -62.197876 L336.03918 -64.977936 L333.74255 -68.31641 L332.2841 -71.69272 L331.3986 -75.86008 L331.40024 -80.03253 L332.1079 -83.58298 L333.63098 -87.302704 L335.85245 -90.62973 L338.69818 -93.45828 L342.09406 -95.682526 L345.96597 -97.19656 L349.7055 -97.85602 L353.86182 -97.75754 L357.81366 -96.82889 L361.45526 -95.144165 L364.6807 -92.77756 L367.38416 -89.80316 L369.2634 -86.70889 L370.69208 -82.788635 L370.9895 -81.39075 L371.28378 -77.17758 L370.71497 -73.121796 L369.3572 -69.329315 L367.28455 -65.90585 Z "/>
      </g>
      <g style="fill:#AB4900;stroke:none;">
        <path d="M428.3327 -41.24463 C430.25076 -30.36673 422.9874 -19.993591 412.10953 -18.0755 C401.23163 -16.15744 390.85846 -23.420776 388.94037 -34.298706 C387.0223 -45.176575 394.28568 -55.549744 405.16357 -57.467804 C416.04144 -59.385895 426.4146 -52.122528 428.3327 -41.24463 Z "/>
      </g>
      <g style="fill:#0066AB;stroke:none;">
        <path d="M424.6277 -25.759796 L421.91425 -22.811249 L418.63416 -20.443542 L415.3028 -18.912079 L411.1651 -17.931732 L407.43604 -17.803162 L403.4043 -18.463287 L399.64752 -19.904236 L396.27158 -22.051788 L393.38235 -24.831879 L391.0857 -28.170319 L389.6273 -31.546722 L388.74182 -35.71405 L388.74347 -39.886505 L389.45105 -43.43692 L390.97415 -47.156586 L393.19565 -50.483673 L396.04138 -53.312195 L399.4373 -55.536407 L403.3092 -57.050507 L407.0487 -57.70993 L411.205 -57.61148 L415.15683 -56.68283 L418.79843 -54.998077 L422.02386 -52.6315 L424.72733 -49.657074 L426.6066 -46.562775 L428.03522 -42.642548 L428.3327 -41.24463 L428.62698 -37.031464 L428.05817 -32.975708 L426.70038 -29.183258 L424.6277 -25.759796 Z "/>
      </g>
      <g style="fill:#AB7A55;stroke:none;">
        <path d="M485.6711 -1.0904236 C487.58926 9.787476 480.32587 20.160645 469.44797 22.078705 C458.5701 23.99678 448.19693 16.733414 446.2788 5.8554993 C444.36078 -5.0223694 451.62415 -15.395538 462.502 -17.313599 C473.37988 -19.231659 483.7531 -11.968323 485.6711 -1.0904236 Z "/>
      </g>
      <g style="fill:#AB7A55;stroke:none;">
        <path d="M481.96616 14.39447 L479.2527 17.342987 L475.9726 19.710709 L472.64124 21.242157 L468.50354 22.222504 L464.77448 22.35109 L460.7427 21.690918 L456.98596 20.250015 L453.61002 18.102463 L450.72076 15.322357 L448.42413 11.983887 L446.96573 8.607559 L446.08026 4.440201 L446.0819 0.2677307 L446.78955 -3.2826843 L448.31262 -7.0023804 L450.53412 -10.329437 L453.37988 -13.158051 L456.77576 -15.382233 L460.6477 -16.89624 L464.38715 -17.555695 L468.54346 -17.457184 L472.4953 -16.528625 L476.1369 -14.843903 L479.36237 -12.477295 L482.0658 -9.502838 L483.94507 -6.408539 L485.37372 -2.4883118 L485.6711 -1.0904236 L485.96545 3.1227722 L485.3966 7.1785126 L484.03885 10.970963 L481.96616 14.39447 Z "/>
      </g>
      <g style="fill:#AB4900;stroke:none;">
        <path d="M543.0113 39.058853 C544.9293 49.9368 537.66595 60.309937 526.7881 62.228027 C515.9103 64.14604 505.53705 56.882706 503.61896 46.00482 C501.70087 35.126938 508.96423 24.753769 519.84216 22.835663 C530.72 20.917633 541.09314 28.18103 543.0113 39.058853 Z "/>
      </g>
      <g style="fill:#0066AB;stroke:none;">
        <path d="M539.3062 54.543823 L536.5928 57.49234 L533.3127 59.86006 L529.9813 61.391495 L525.8436 62.37178 L522.1146 62.50035 L518.0829 61.84021 L514.32605 60.399277 L510.95013 58.251724 L508.0609 55.47165 L505.76428 52.13318 L504.30585 48.75682 L503.42035 44.589478 L503.422 40.417023 L504.12964 36.866608 L505.65277 33.146942 L507.8742 29.819855 L510.71997 26.991287 L514.11584 24.76709 L517.98785 23.25296 L521.7273 22.593567 L525.88354 22.692017 L529.83545 23.620667 L533.477 25.30539 L536.7025 27.672012 L539.4059 30.646423 L541.28516 33.740707 L542.71387 37.66089 L543.0113 39.058853 L543.30554 43.272064 L542.7367 47.327866 L541.3789 51.120316 L539.3062 54.543823 Z "/>
      </g>
      <g style="fill:#AB7A55;stroke:none;">
        <path d="M600.353 79.208145 C602.2711 90.08603 595.00775 100.45923 584.1299 102.37724 C573.25195 104.295334 562.87885 97.03198 560.9607 86.15411 C559.04266 75.276215 566.306 64.90306 577.18384 62.985 C588.06177 61.066864 598.43494 68.330215 600.353 79.208145 Z "/>
      </g>
      <g style="fill:#AB7A55;stroke:none;">
        <path d="M596.6481 94.69304 L593.9346 97.64157 L590.65454 100.00929 L587.3232 101.54074 L583.1855 102.52103 L579.4564 102.64963 L575.4247 101.9895 L571.66797 100.548615 L568.292 98.40106 L565.40283 95.62099 L563.1062 92.28253 L561.64777 88.90617 L560.7622 84.73877 L560.7638 80.566315 L561.47144 77.015884 L562.9945 73.296234 L565.21606 69.96913 L568.06177 67.14058 L571.45764 64.91637 L575.3296 63.402344 L579.06903 62.74289 L583.22534 62.841354 L587.17725 63.76996 L590.81885 65.454666 L594.04425 67.821304 L596.7477 70.79567 L598.62683 73.88992 L600.05566 77.81023 L600.353 79.208145 L600.6474 83.42128 L600.0785 87.47714 L598.7207 91.26956 L596.6481 94.69304 Z "/>
      </g>
    </g>
  </g>
</svg>
