<?xml version="1.0" encoding="UTF-8"?>
<svg xmlns="http://www.w3.org/2000/svg" height="288px" version="1.1" width="480px">
  <g style="fill:#671E01;stroke:none;">
    <path d="M0.0 0.0 L480.0 0.0 L480.0 288.0 L0.0 288.0 L0.0 0.0 "/>
    <g style="">
      <g style="fill:none;stroke:#674001;stroke-width:3.0;">
        <path d="M82.5 -36.0 L104.5 9.0 L60.5 9.0 L82.5 -36.0 "/>
      </g>
      <g style="fill:none;stroke:#672F01;stroke-width:3.0;">
        <path d="M82.49494 9.0 L63.0 9.0 L60.94 8.099998 L62.7 4.4999924 L64.46 0.89998627 L66.22 -2.7000198 L67.979996 -6.300026 L69.74 -9.900032 L71.5 -13.500038 L73.26 -17.100044 L75.020004 -20.700048 L76.78001 -24.300047 L78.54 -27.900045 L80.299995 -31.500044 L82.05999 -35.100044 L82.49494 -35.989655 L82.49494 9.0 Z "/>
      </g>
      <g style="fill:none;stroke:#670D01;stroke-width:3.0;">
        <path d="M82.5 9.0 L104.5 54.0 L60.5 54.0 L82.5 9.0 "/>
      </g>
      <g style="fill:none;stroke:#674001;stroke-width:3.0;">
        <path d="M103.0 54.0 L63.0 54.0 L60.94 53.100006 L62.7 49.50003 L64.46 45.900055 L66.22 42.30008 L67.979996 38.700104 L69.74 35.10013 L71.5 31.500153 L73.26 27.900173 L75.020004 24.300167 L76.78001 20.700161 L78.54 17.100155 L80.299995 13.500149 L82.05999 9.900143 L82.5 9.0 L84.259995 12.600006 L86.01999 16.200012 L87.77998 19.800018 L89.53998 23.400024 L91.29997 27.00003 L93.05997 30.600014 L94.81998 34.19999 L96.57999 37.799965 L98.34 41.39994 L100.100006 44.999916 L101.860016 48.59989 L103.620026 52.199867 L103.0 54.0 Z "/>
      </g>
      <g style="fill:none;stroke:#672F01;stroke-width:3.0;">
        <path d="M82.5 54.0 L104.5 99.0 L60.5 99.0 L82.5 54.0 "/>
      </g>
      <g style="fill:none;stroke:#670D01;stroke-width:3.0;">
        <path d="M103.0 99.0 L63.0 99.0 L60.94 98.100006 L62.7 94.50003 L64.46 90.900055 L66.22 87.30008 L67.979996 83.7001 L69.74 80.10013 L71.5 76.50015 L73.26 72.90018 L75.020004 69.3002 L76.78001 65.700226 L78.54 62.10025 L80.299995 58.500275 L82.05999 54.9003 L82.5 54.0 L84.259995 57.599976 L86.01999 61.19995 L87.77998 64.79993 L89.53998 68.3999 L91.29997 71.99988 L93.05997 75.59985 L94.81998 79.19983 L96.57999 82.799805 L98.34 86.39978 L100.100006 89.999756 L101.860016 93.59973 L103.620026 97.19971 L103.0 99.0 Z "/>
      </g>
      <g style="fill:none;stroke:#674001;stroke-width:3.0;">
        <path d="M82.5 99.0 L104.5 144.0 L60.5 144.0 L82.5 99.0 "/>
      </g>
      <g style="fill:none;stroke:#672F01;stroke-width:3.0;">
        <path d="M103.0 144.0 L63.0 144.0 L60.94 143.1 L62.7 139.50003 L64.46 135.90005 L66.22 132.30008 L67.979996 128.7001 L69.74 125.10013 L71.5 121.50015 L73.26 117.90018 L75.020004 114.3002 L76.78001 110.700226 L78.54 107.10025 L80.299995 103.500275 L82.05999 99.9003 L82.5 99.0 L84.259995 102.599976 L86.01999 106.19995 L87.77998 109.79993 L89.53998 113.3999 L91.29997 116.99988 L93.05997 120.59985 L94.81998 124.19983 L96.57999 127.799805 L98.34 131.39978 L100.100006 134.99976 L101.860016 138.59973 L103.620026 142.1997 L103.0 144.0 Z "/>
      </g>
      <g style="fill:none;stroke:#670D01;stroke-width:3.0;">
        <path d="M82.5 144.0 L104.5 189.0 L60.5 189.0 L82.5 144.0 "/>
      </g>
      <g style="fill:none;stroke:#674001;stroke-width:3.0;">
        <path d="M103.0 189.0 L63.0 189.0 L60.94 188.1 L62.7 184.50003 L64.46 180.90005 L66.22 177.30008 L67.979996 173.7001 L69.74 170.10013 L71.5 166.50015 L73.26 162.90018 L75.020004 159.3002 L76.78001 155.70023 L78.54 152.10025 L80.299995 148.50027 L82.05999 144.9003 L82.5 144.0 L84.259995 147.59998 L86.01999 151.19995 L87.77998 154.79993 L89.53998 158.3999 L91.29997 161.99988 L93.05997 165.59985 L94.81998 169.19983 L96.57999 172.7998 L98.34 176.39978 L100.100006 179.99976 L101.860016 183.59973 L103.620026 187.1997 L103.0 189.0 Z "/>
      </g>
      <g style="fill:none;stroke:#672F01;stroke-width:3.0;">
        <path d="M82.5 189.0 L104.5 234.0 L60.5 234.0 L82.5 189.0 "/>
      </g>
      <g style="fill:none;stroke:#670D01;stroke-width:3.0;">
        <path d="M103.0 234.0 L63.0 234.0 L60.94 233.09998 L62.7 229.49988 L64.46 225.89978 L66.22 222.29968 L67.979996 218.69963 L69.74 215.09966 L71.5 211.49968 L73.26 207.8997 L75.020004 204.29973 L76.78001 200.69975 L78.54 197.09978 L80.299995 193.4998 L82.05999 189.89983 L82.5 189.0 L84.259995 192.59998 L86.01999 196.19995 L87.77998 199.79993 L89.53998 203.3999 L91.29997 206.99988 L93.05997 210.59985 L94.81998 214.19983 L96.57999 217.7998 L98.34 221.39984 L100.100006 224.99994 L101.860016 228.60004 L103.620026 232.20013 L103.0 234.0 Z "/>
      </g>
      <g style="fill:none;stroke:#674001;stroke-width:3.0;">
        <path d="M82.5 234.0 L104.5 279.0 L60.5 279.0 L82.5 234.0 "/>
      </g>
      <g style="fill:none;stroke:#672F01;stroke-width:3.0;">
        <path d="M103.0 279.0 L63.0 279.0 L60.94 278.09998 L62.7 274.49988 L64.46 270.89978 L66.22 267.29968 L67.979996 263.6996 L69.74 260.0995 L71.5 256.4994 L73.26 252.89929 L75.020004 249.2992 L76.78001 245.6991 L78.54 242.099 L80.299995 238.4989 L82.05999 234.8988 L82.5 234.0 L84.259995 237.6001 L86.01999 241.2002 L87.77998 244.8003 L89.53998 248.40039 L91.29997 252.00049 L93.05997 255.60059 L94.81998 259.20068 L96.57999 262.80078 L98.34 266.40088 L100.100006 270.00098 L101.860016 273.60107 L103.620026 277.20117 L103.0 279.0 Z "/>
      </g>
      <g style="fill:none;stroke:#670D01;stroke-width:3.0;">
        <path d="M82.5 279.0 L104.5 324.0 L60.5 324.0 L82.5 279.0 "/>
      </g>
      <g style="fill:none;stroke:#674001;stroke-width:3.0;">
        <path d="M103.0 324.0 L63.0 324.0 L60.94 323.09998 L62.7 319.49988 L64.46 315.89978 L66.22 312.29968 L67.979996 308.6996 L69.74 305.0995 L71.5 301.4994 L73.26 297.8993 L75.020004 294.2992 L76.78001 290.6991 L78.54 287.099 L80.299995 283.4989 L82.05999 279.8988 L82.5 279.0 L84.259995 282.6001 L86.01999 286.2002 L87.77998 289.8003 L89.53998 293.4004 L91.29997 297.0005 L93.05997 300.6006 L94.81998 304.20068 L96.57999 307.80078 L98.34 311.40088 L100.100006 315.00098 L101.860016 318.60107 L103.620026 322.20117 L103.0 324.0 Z "/>
      </g>
      <g style="fill:none;stroke:#672F01;stroke-width:3.0;">
        <path d="M127.5 -36.0 L149.5 9.0 L105.5 9.0 L127.5 -36.0 "/>
      </g>
      <g style="fill:none;stroke:#670D01;stroke-width:3.0;">
        <path d="M148.0 9.0 L108.0 9.0 L105.94 8.099998 L107.70001 4.4999924 L109.46002 0.89998627 L111.22003 -2.7000198 L112.98004 -6.300026 L114.74005 -9.900032 L116.50006 -13.500038 L118.26007 -17.100044 L120.02008 -20.700048 L121.78009 -24.300047 L123.5401 -27.900045 L125.30011 -31.500044 L127.06012 -35.100044 L127.5 -36.0 L129.26001 -32.4 L131.02002 -28.800001 L132.78003 -25.200003 L134.54004 -21.600004 L136.30005 -18.000002 L138.06006 -14.399996 L139.82007 -10.79999 L141.58008 -7.1999836 L143.34009 -3.5999794 L145.1001 2.670288E-5 L146.8601 3.6000328 L148.62012 7.200039 L148.0 9.0 Z "/>
      </g>
      <g style="fill:none;stroke:#674001;stroke-width:3.0;">
        <path d="M127.5 9.0 L149.5 54.0 L105.5 54.0 L127.5 9.0 "/>
      </g>
      <g style="fill:none;stroke:#672F01;stroke-width:3.0;">
        <path d="M148.0 54.0 L108.0 54.0 L105.94 53.100006 L107.70001 49.50003 L109.46002 45.900055 L111.22003 42.30008 L112.98004 38.700104 L114.74005 35.10013 L116.50006 31.500153 L118.26007 27.900173 L120.02008 24.300167 L121.78009 20.700161 L123.5401 17.100155 L125.30011 13.500149 L127.06012 9.900143 L127.5 9.0 L129.26001 12.600006 L131.02002 16.200012 L132.78003 19.800018 L134.54004 23.400024 L136.30005 27.00003 L138.06006 30.600014 L139.82007 34.19999 L141.58008 37.799965 L143.34009 41.39994 L145.1001 44.999916 L146.8601 48.59989 L148.62012 52.199867 L148.0 54.0 Z "/>
      </g>
      <g style="fill:none;stroke:#670D01;stroke-width:3.0;">
        <path d="M127.5 54.0 L149.5 99.0 L105.5 99.0 L127.5 54.0 "/>
      </g>
      <g style="fill:none;stroke:#674001;stroke-width:3.0;">
        <path d="M148.0 99.0 L108.0 99.0 L105.94 98.100006 L107.70001 94.50003 L109.46002 90.900055 L111.22003 87.30008 L112.98004 83.7001 L114.74005 80.10013 L116.50006 76.50015 L118.26007 72.90018 L120.02008 69.3002 L121.78009 65.700226 L123.5401 62.10025 L125.30011 58.500275 L127.06012 54.9003 L127.5 54.0 L129.26001 57.599976 L131.02002 61.19995 L132.78003 64.79993 L134.54004 68.3999 L136.30005 71.99988 L138.06006 75.59985 L139.82007 79.19983 L141.58008 82.799805 L143.34009 86.39978 L145.1001 89.999756 L146.8601 93.59973 L148.62012 97.19971 L148.0 99.0 Z "/>
      </g>
      <g style="fill:none;stroke:#672F01;stroke-width:3.0;">
        <path d="M127.5 99.0 L149.5 144.0 L105.5 144.0 L127.5 99.0 "/>
      </g>
      <g style="fill:none;stroke:#670D01;stroke-width:3.0;">
        <path d="M148.0 144.0 L108.0 144.0 L105.94 143.1 L107.70001 139.50003 L109.46002 135.90005 L111.22003 132.30008 L112.98004 128.7001 L114.74005 125.10013 L116.50006 121.50015 L118.26007 117.90018 L120.02008 114.3002 L121.78009 110.700226 L123.5401 107.10025 L125.30011 103.500275 L127.06012 99.9003 L127.5 99.0 L129.26001 102.599976 L131.02002 106.19995 L132.78003 109.79993 L134.54004 113.3999 L136.30005 116.99988 L138.06006 120.59985 L139.82007 124.19983 L141.58008 127.799805 L143.34009 131.39978 L145.1001 134.99976 L146.8601 138.59973 L148.62012 142.1997 L148.0 144.0 Z "/>
      </g>
      <g style="fill:none;stroke:#674001;stroke-width:3.0;">
        <path d="M127.5 144.0 L149.5 189.0 L105.5 189.0 L127.5 144.0 "/>
      </g>
      <g style="fill:none;stroke:#672F01;stroke-width:3.0;">
        <path d="M148.0 189.0 L108.0 189.0 L105.94 188.1 L107.70001 184.50003 L109.46002 180.90005 L111.22003 177.30008 L112.98004 173.7001 L114.74005 170.10013 L116.50006 166.50015 L118.26007 162.90018 L120.02008 159.3002 L121.78009 155.70023 L123.5401 152.10025 L125.30011 148.50027 L127.06012 144.9003 L127.5 144.0 L129.26001 147.59998 L131.02002 151.19995 L132.78003 154.79993 L134.54004 158.3999 L136.30005 161.99988 L138.06006 165.59985 L139.82007 169.19983 L141.58008 172.7998 L143.34009 176.39978 L145.1001 179.99976 L146.8601 183.59973 L148.62012 187.1997 L148.0 189.0 Z "/>
      </g>
      <g style="fill:none;stroke:#670D01;stroke-width:3.0;">
        <path d="M127.5 189.0 L149.5 234.0 L105.5 234.0 L127.5 189.0 "/>
      </g>
      <g style="fill:none;stroke:#674001;stroke-width:3.0;">
        <path d="M148.0 234.0 L108.0 234.0 L105.94 233.09998 L107.70001 229.49988 L109.46002 225.89978 L111.22003 222.29968 L112.98004 218.69963 L114.74005 215.09966 L116.50006 211.49968 L118.26007 207.8997 L120.02008 204.29973 L121.78009 200.69975 L123.5401 197.09978 L125.30011 193.4998 L127.06012 189.89983 L127.5 189.0 L129.26001 192.59998 L131.02002 196.19995 L132.78003 199.79993 L134.54004 203.3999 L136.30005 206.99988 L138.06006 210.59985 L139.82007 214.19983 L141.58008 217.7998 L143.34009 221.39984 L145.1001 224.99994 L146.8601 228.60004 L148.62012 232.20013 L148.0 234.0 Z "/>
      </g>
      <g style="fill:none;stroke:#672F01;stroke-width:3.0;">
        <path d="M127.5 234.0 L149.5 279.0 L105.5 279.0 L127.5 234.0 "/>
      </g>
      <g style="fill:none;stroke:#670D01;stroke-width:3.0;">
        <path d="M148.0 279.0 L108.0 279.0 L105.94 278.09998 L107.70001 274.49988 L109.46002 270.89978 L111.22003 267.29968 L112.98004 263.6996 L114.74005 260.0995 L116.50006 256.4994 L118.26007 252.89929 L120.02008 249.2992 L121.78009 245.6991 L123.5401 242.099 L125.30011 238.4989 L127.06012 234.8988 L127.5 234.0 L129.26001 237.6001 L131.02002 241.2002 L132.78003 244.8003 L134.54004 248.40039 L136.30005 252.00049 L138.06006 255.60059 L139.82007 259.20068 L141.58008 262.80078 L143.34009 266.40088 L145.1001 270.00098 L146.8601 273.60107 L148.62012 277.20117 L148.0 279.0 Z "/>
      </g>
      <g style="fill:none;stroke:#674001;stroke-width:3.0;">
        <path d="M127.5 279.0 L149.5 324.0 L105.5 324.0 L127.5 279.0 "/>
      </g>
      <g style="fill:none;stroke:#672F01;stroke-width:3.0;">
        <path d="M148.0 324.0 L108.0 324.0 L105.94 323.09998 L107.70001 319.49988 L109.46002 315.89978 L111.22003 312.29968 L112.98004 308.6996 L114.74005 305.0995 L116.50006 301.4994 L118.26007 297.8993 L120.02008 294.2992 L121.78009 290.6991 L123.5401 287.099 L125.30011 283.4989 L127.06012 279.8988 L127.5 279.0 L129.26001 282.6001 L131.02002 286.2002 L132.78003 289.8003 L134.54004 293.4004 L136.30005 297.0005 L138.06006 300.6006 L139.82007 304.20068 L141.58008 307.80078 L143.34009 311.40088 L145.1001 315.00098 L146.8601 318.60107 L148.62012 322.20117 L148.0 324.0 Z "/>
      </g>
      <g style="fill:none;stroke:#670D01;stroke-width:3.0;">
        <path d="M172.5 -36.0 L194.5 9.0 L150.5 9.0 L172.5 -36.0 "/>
      </g>
      <g style="fill:none;stroke:#674001;stroke-width:3.0;">
        <path d="M193.0 9.0 L153.0 9.0 L150.94 8.099998 L152.70001 4.4999924 L154.46002 0.89998627 L156.22003 -2.7000198 L157.98004 -6.300026 L159.74005 -9.900032 L161.50006 -13.500038 L163.26007 -17.100044 L165.02008 -20.700048 L166.78009 -24.300047 L168.5401 -27.900045 L170.30011 -31.500044 L172.06012 -35.100044 L172.5 -36.0 L174.26001 -32.4 L176.02002 -28.800001 L177.78003 -25.200003 L179.54004 -21.600004 L181.30005 -18.000002 L183.06006 -14.399996 L184.82007 -10.79999 L186.58008 -7.1999836 L188.34009 -3.5999794 L190.1001 2.670288E-5 L191.8601 3.6000328 L193.62012 7.200039 L193.0 9.0 Z "/>
      </g>
      <g style="fill:none;stroke:#672F01;stroke-width:3.0;">
        <path d="M172.5 9.0 L194.5 54.0 L150.5 54.0 L172.5 9.0 "/>
      </g>
      <g style="fill:none;stroke:#670D01;stroke-width:3.0;">
        <path d="M193.0 54.0 L153.0 54.0 L150.94 53.100006 L152.70001 49.50003 L154.46002 45.900055 L156.22003 42.30008 L157.98004 38.700104 L159.74005 35.10013 L161.50006 31.500153 L163.26007 27.900173 L165.02008 24.300167 L166.78009 20.700161 L168.5401 17.100155 L170.30011 13.500149 L172.06012 9.900143 L172.5 9.0 L174.26001 12.600006 L176.02002 16.200012 L177.78003 19.800018 L179.54004 23.400024 L181.30005 27.00003 L183.06006 30.600014 L184.82007 34.19999 L186.58008 37.799965 L188.34009 41.39994 L190.1001 44.999916 L191.8601 48.59989 L193.62012 52.199867 L193.0 54.0 Z "/>
      </g>
      <g style="fill:none;stroke:#674001;stroke-width:3.0;">
        <path d="M172.5 54.0 L194.5 99.0 L150.5 99.0 L172.5 54.0 "/>
      </g>
      <g style="fill:none;stroke:#672F01;stroke-width:3.0;">
        <path d="M193.0 99.0 L153.0 99.0 L150.94 98.100006 L152.70001 94.50003 L154.46002 90.900055 L156.22003 87.30008 L157.98004 83.7001 L159.74005 80.10013 L161.50006 76.50015 L163.26007 72.90018 L165.02008 69.3002 L166.78009 65.700226 L168.5401 62.10025 L170.30011 58.500275 L172.06012 54.9003 L172.5 54.0 L174.26001 57.599976 L176.02002 61.19995 L177.78003 64.79993 L179.54004 68.3999 L181.30005 71.99988 L183.06006 75.59985 L184.82007 79.19983 L186.58008 82.799805 L188.34009 86.39978 L190.1001 89.999756 L191.8601 93.59973 L193.62012 97.19971 L193.0 99.0 Z "/>
      </g>
      <g style="fill:none;stroke:#670D01;stroke-width:3.0;">
        <path d="M172.5 99.0 L194.5 144.0 L150.5 144.0 L172.5 99.0 "/>
      </g>
      <g style="fill:none;stroke:#674001;stroke-width:3.0;">
        <path d="M193.0 144.0 L153.0 144.0 L150.94 143.1 L152.70001 139.50003 L154.46002 135.90005 L156.22003 132.30008 L157.98004 128.7001 L159.74005 125.10013 L161.50006 121.50015 L163.26007 117.90018 L165.02008 114.3002 L166.78009 110.700226 L168.5401 107.10025 L170.30011 103.500275 L172.06012 99.9003 L172.5 99.0 L174.26001 102.599976 L176.02002 106.19995 L177.78003 109.79993 L179.54004 113.3999 L181.30005 116.99988 L183.06006 120.59985 L184.82007 124.19983 L186.58008 127.799805 L188.34009 131.39978 L190.1001 134.99976 L191.8601 138.59973 L193.62012 142.1997 L193.0 144.0 Z "/>
      </g>
      <g style="fill:none;stroke:#672F01;stroke-width:3.0;">
        <path d="M172.5 144.0 L194.5 189.0 L150.5 189.0 L172.5 144.0 "/>
      </g>
      <g style="fill:none;stroke:#670D01;stroke-width:3.0;">
        <path d="M193.0 189.0 L153.0 189.0 L150.94 188.1 L152.70001 184.50003 L154.46002 180.90005 L156.22003 177.30008 L157.98004 173.7001 L159.74005 170.10013 L161.50006 166.50015 L163.26007 162.90018 L165.02008 159.3002 L166.78009 155.70023 L168.5401 152.10025 L170.30011 148.50027 L172.06012 144.9003 L172.5 144.0 L174.26001 147.59998 L176.02002 151.19995 L177.78003 154.79993 L179.54004 158.3999 L181.30005 161.99988 L183.06006 165.59985 L184.82007 169.19983 L186.58008 172.7998 L188.34009 176.39978 L190.1001 179.99976 L191.8601 183.59973 L193.62012 187.1997 L193.0 189.0 Z "/>
      </g>
      <g style="fill:none;stroke:#674001;stroke-width:3.0;">
        <path d="M172.5 189.0 L194.5 234.0 L150.5 234.0 L172.5 189.0 "/>
      </g>
      <g style="fill:none;stroke:#672F01;stroke-width:3.0;">
        <path d="M193.0 234.0 L153.0 234.0 L150.94 233.09998 L152.70001 229.49988 L154.46002 225.89978 L156.22003 222.29968 L157.98004 218.69963 L159.74005 215.09966 L161.50006 211.49968 L163.26007 207.8997 L165.02008 204.29973 L166.78009 200.69975 L168.5401 197.09978 L170.30011 193.4998 L172.06012 189.89983 L172.5 189.0 L174.26001 192.59998 L176.02002 196.19995 L177.78003 199.79993 L179.54004 203.3999 L181.30005 206.99988 L183.06006 210.59985 L184.82007 214.19983 L186.58008 217.7998 L188.34009 221.39984 L190.1001 224.99994 L191.8601 228.60004 L193.62012 232.20013 L193.0 234.0 Z "/>
      </g>
      <g style="fill:none;stroke:#670D01;stroke-width:3.0;">
        <path d="M172.5 234.0 L194.5 279.0 L150.5 279.0 L172.5 234.0 "/>
      </g>
      <g style="fill:none;stroke:#674001;stroke-width:3.0;">
        <path d="M193.0 279.0 L153.0 279.0 L150.94 278.09998 L152.70001 274.49988 L154.46002 270.89978 L156.22003 267.29968 L157.98004 263.6996 L159.74005 260.0995 L161.50006 256.4994 L163.26007 252.89929 L165.02008 249.2992 L166.78009 245.6991 L168.5401 242.099 L170.30011 238.4989 L172.06012 234.8988 L172.5 234.0 L174.26001 237.6001 L176.02002 241.2002 L177.78003 244.8003 L179.54004 248.40039 L181.30005 252.00049 L183.06006 255.60059 L184.82007 259.20068 L186.58008 262.80078 L188.34009 266.40088 L190.1001 270.00098 L191.8601 273.60107 L193.62012 277.20117 L193.0 279.0 Z "/>
      </g>
      <g style="fill:none;stroke:#672F01;stroke-width:3.0;">
        <path d="M172.5 279.0 L194.5 324.0 L150.5 324.0 L172.5 279.0 "/>
      </g>
      <g style="fill:none;stroke:#670D01;stroke-width:3.0;">
        <path d="M193.0 324.0 L153.0 324.0 L150.94 323.09998 L152.70001 319.49988 L154.46002 315.89978 L156.22003 312.29968 L157.98004 308.6996 L159.74005 305.0995 L161.50006 301.4994 L163.26007 297.8993 L165.02008 294.2992 L166.78009 290.6991 L168.5401 287.099 L170.30011 283.4989 L172.06012 279.8988 L172.5 279.0 L174.26001 282.6001 L176.02002 286.2002 L177.78003 289.8003 L179.54004 293.4004 L181.30005 297.0005 L183.06006 300.6006 L184.82007 304.20068 L186.58008 307.80078 L188.34009 311.40088 L190.1001 315.00098 L191.8601 318.60107 L193.62012 322.20117 L193.0 324.0 Z "/>
      </g>
      <g style="fill:none;stroke:#674001;stroke-width:3.0;">
        <path d="M217.5 -36.0 L239.5 9.0 L195.5 9.0 L217.5 -36.0 "/>
      </g>
      <g style="fill:none;stroke:#672F01;stroke-width:3.0;">
        <path d="M238.0 9.0 L198.0 9.0 L195.94 8.099998 L197.70001 4.4999924 L199.46002 0.89998627 L201.22003 -2.7000198 L202.98004 -6.300026 L204.74005 -9.900032 L206.50006 -13.500038 L208.26007 -17.100044 L210.02008 -20.700048 L211.78009 -24.300047 L213.5401 -27.900045 L215.30011 -31.500044 L217.06012 -35.100044 L217.5 -36.0 L219.26001 -32.4 L221.02002 -28.800001 L222.78003 -25.200003 L224.54004 -21.600004 L226.30005 -18.000002 L228.06006 -14.399996 L229.82007 -10.79999 L231.58008 -7.1999836 L233.34009 -3.5999794 L235.1001 2.670288E-5 L236.8601 3.6000328 L238.62012 7.200039 L238.0 9.0 Z "/>
      </g>
      <g style="fill:none;stroke:#670D01;stroke-width:3.0;">
        <path d="M217.5 9.0 L239.5 54.0 L195.5 54.0 L217.5 9.0 "/>
      </g>
      <g style="fill:none;stroke:#674001;stroke-width:3.0;">
        <path d="M238.0 54.0 L198.0 54.0 L195.94 53.100006 L197.70001 49.50003 L199.46002 45.900055 L201.22003 42.30008 L202.98004 38.700104 L204.74005 35.10013 L206.50006 31.500153 L208.26007 27.900173 L210.02008 24.300167 L211.78009 20.700161 L213.5401 17.100155 L215.30011 13.500149 L217.06012 9.900143 L217.5 9.0 L219.26001 12.600006 L221.02002 16.200012 L222.78003 19.800018 L224.54004 23.400024 L226.30005 27.00003 L228.06006 30.600014 L229.82007 34.19999 L231.58008 37.799965 L233.34009 41.39994 L235.1001 44.999916 L236.8601 48.59989 L238.62012 52.199867 L238.0 54.0 Z "/>
      </g>
      <g style="fill:none;stroke:#672F01;stroke-width:3.0;">
        <path d="M217.5 54.0 L239.5 99.0 L195.5 99.0 L217.5 54.0 "/>
      </g>
      <g style="fill:none;stroke:#670D01;stroke-width:3.0;">
        <path d="M238.0 99.0 L198.0 99.0 L195.94 98.100006 L197.70001 94.50003 L199.46002 90.900055 L201.22003 87.30008 L202.98004 83.7001 L204.74005 80.10013 L206.50006 76.50015 L208.26007 72.90018 L210.02008 69.3002 L211.78009 65.700226 L213.5401 62.10025 L215.30011 58.500275 L217.06012 54.9003 L217.5 54.0 L219.26001 57.599976 L221.02002 61.19995 L222.78003 64.79993 L224.54004 68.3999 L226.30005 71.99988 L228.06006 75.59985 L229.82007 79.19983 L231.58008 82.799805 L233.34009 86.39978 L235.1001 89.999756 L236.8601 93.59973 L238.62012 97.19971 L238.0 99.0 Z "/>
      </g>
      <g style="fill:none;stroke:#674001;stroke-width:3.0;">
        <path d="M217.5 99.0 L239.5 144.0 L195.5 144.0 L217.5 99.0 "/>
      </g>
      <g style="fill:none;stroke:#672F01;stroke-width:3.0;">
        <path d="M238.0 144.0 L198.0 144.0 L195.94 143.1 L197.70001 139.50003 L199.46002 135.90005 L201.22003 132.30008 L202.98004 128.7001 L204.74005 125.10013 L206.50006 121.50015 L208.26007 117.90018 L210.02008 114.3002 L211.78009 110.700226 L213.5401 107.10025 L215.30011 103.500275 L217.06012 99.9003 L217.5 99.0 L219.26001 102.599976 L221.02002 106.19995 L222.78003 109.79993 L224.54004 113.3999 L226.30005 116.99988 L228.06006 120.59985 L229.82007 124.19983 L231.58008 127.799805 L233.34009 131.39978 L235.1001 134.99976 L236.8601 138.59973 L238.62012 142.1997 L238.0 144.0 Z "/>
      </g>
      <g style="fill:none;stroke:#670D01;stroke-width:3.0;">
        <path d="M217.5 144.0 L239.5 189.0 L195.5 189.0 L217.5 144.0 "/>
      </g>
      <g style="fill:none;stroke:#674001;stroke-width:3.0;">
        <path d="M238.0 189.0 L198.0 189.0 L195.94 188.1 L197.70001 184.50003 L199.46002 180.90005 L201.22003 177.30008 L202.98004 173.7001 L204.74005 170.10013 L206.50006 166.50015 L208.26007 162.90018 L210.02008 159.3002 L211.78009 155.70023 L213.5401 152.10025 L215.30011 148.50027 L217.06012 144.9003 L217.5 144.0 L219.26001 147.59998 L221.02002 151.19995 L222.78003 154.79993 L224.54004 158.3999 L226.30005 161.99988 L228.06006 165.59985 L229.82007 169.19983 L231.58008 172.7998 L233.34009 176.39978 L235.1001 179.99976 L236.8601 183.59973 L238.62012 187.1997 L238.0 189.0 Z "/>
      </g>
      <g style="fill:none;stroke:#672F01;stroke-width:3.0;">
        <path d="M217.5 189.0 L239.5 234.0 L195.5 234.0 L217.5 189.0 "/>
      </g>
      <g style="fill:none;stroke:#670D01;stroke-width:3.0;">
        <path d="M238.0 234.0 L198.0 234.0 L195.94 233.09998 L197.70001 229.49988 L199.46002 225.89978 L201.22003 222.29968 L202.98004 218.69963 L204.74005 215.09966 L206.50006 211.49968 L208.26007 207.8997 L210.02008 204.29973 L211.78009 200.69975 L213.5401 197.09978 L215.30011 193.4998 L217.06012 189.89983 L217.5 189.0 L219.26001 192.59998 L221.02002 196.19995 L222.78003 199.79993 L224.54004 203.3999 L226.30005 206.99988 L228.06006 210.59985 L229.82007 214.19983 L231.58008 217.7998 L233.34009 221.39984 L235.1001 224.99994 L236.8601 228.60004 L238.62012 232.20013 L238.0 234.0 Z "/>
      </g>
      <g style="fill:none;stroke:#674001;stroke-width:3.0;">
        <path d="M217.5 234.0 L239.5 279.0 L195.5 279.0 L217.5 234.0 "/>
      </g>
      <g style="fill:none;stroke:#672F01;stroke-width:3.0;">
        <path d="M238.0 279.0 L198.0 279.0 L195.94 278.09998 L197.70001 274.49988 L199.46002 270.89978 L201.22003 267.29968 L202.98004 263.6996 L204.74005 260.0995 L206.50006 256.4994 L208.26007 252.89929 L210.02008 249.2992 L211.78009 245.6991 L213.5401 242.099 L215.30011 238.4989 L217.06012 234.8988 L217.5 234.0 L219.26001 237.6001 L221.02002 241.2002 L222.78003 244.8003 L224.54004 248.40039 L226.30005 252.00049 L228.06006 255.60059 L229.82007 259.20068 L231.58008 262.80078 L233.34009 266.40088 L235.1001 270.00098 L236.8601 273.60107 L238.62012 277.20117 L238.0 279.0 Z "/>
      </g>
      <g style="fill:none;stroke:#670D01;stroke-width:3.0;">
        <path d="M217.5 279.0 L239.5 324.0 L195.5 324.0 L217.5 279.0 "/>
      </g>
      <g style="fill:none;stroke:#674001;stroke-width:3.0;">
        <path d="M238.0 324.0 L198.0 324.0 L195.94 323.09998 L197.70001 319.49988 L199.46002 315.89978 L201.22003 312.29968 L202.98004 308.6996 L204.74005 305.0995 L206.50006 301.4994 L208.26007 297.8993 L210.02008 294.2992 L211.78009 290.6991 L213.5401 287.099 L215.30011 283.4989 L217.06012 279.8988 L217.5 279.0 L219.26001 282.6001 L221.02002 286.2002 L222.78003 289.8003 L224.54004 293.4004 L226.30005 297.0005 L228.06006 300.6006 L229.82007 304.20068 L231.58008 307.80078 L233.34009 311.40088 L235.1001 315.00098 L236.8601 318.60107 L238.62012 322.20117 L238.0 324.0 Z "/>
      </g>
      <g style="fill:none;stroke:#672F01;stroke-width:3.0;">
        <path d="M262.5 -36.0 L284.5 9.0 L240.5 9.0 L262.5 -36.0 "/>
      </g>
      <g style="fill:none;stroke:#670D01;stroke-width:3.0;">
        <path d="M283.0 9.0 L243.0 9.0 L240.94 8.099998 L242.70001 4.4999924 L244.46002 0.89998627 L246.22003 -2.7000198 L247.98004 -6.300026 L249.74005 -9.900032 L251.50006 -13.500038 L253.26007 -17.100044 L255.02008 -20.700048 L256.7801 -24.300047 L258.5401 -27.900045 L260.3001 -31.500044 L262.06012 -35.100044 L262.5 -36.0 L264.26 -32.4 L266.02002 -28.800001 L267.78003 -25.200003 L269.54004 -21.600004 L271.30005 -18.000002 L273.06006 -14.399996 L274.82007 -10.79999 L276.58008 -7.1999836 L278.3401 -3.5999794 L280.1001 2.670288E-5 L281.8601 3.6000328 L283.62012 7.200039 L283.0 9.0 Z "/>
      </g>
      <g style="fill:none;stroke:#674001;stroke-width:3.0;">
        <path d="M262.5 9.0 L284.5 54.0 L240.5 54.0 L262.5 9.0 "/>
      </g>
      <g style="fill:none;stroke:#672F01;stroke-width:3.0;">
        <path d="M283.0 54.0 L243.0 54.0 L240.94 53.100006 L242.70001 49.50003 L244.46002 45.900055 L246.22003 42.30008 L247.98004 38.700104 L249.74005 35.10013 L251.50006 31.500153 L253.26007 27.900173 L255.02008 24.300167 L256.7801 20.700161 L258.5401 17.100155 L260.3001 13.500149 L262.06012 9.900143 L262.5 9.0 L264.26 12.600006 L266.02002 16.200012 L267.78003 19.800018 L269.54004 23.400024 L271.30005 27.00003 L273.06006 30.600014 L274.82007 34.19999 L276.58008 37.799965 L278.3401 41.39994 L280.1001 44.999916 L281.8601 48.59989 L283.62012 52.199867 L283.0 54.0 Z "/>
      </g>
      <g style="fill:none;stroke:#670D01;stroke-width:3.0;">
        <path d="M262.5 54.0 L284.5 99.0 L240.5 99.0 L262.5 54.0 "/>
      </g>
      <g style="fill:none;stroke:#674001;stroke-width:3.0;">
        <path d="M283.0 99.0 L243.0 99.0 L240.94 98.100006 L242.70001 94.50003 L244.46002 90.900055 L246.22003 87.30008 L247.98004 83.7001 L249.74005 80.10013 L251.50006 76.50015 L253.26007 72.90018 L255.02008 69.3002 L256.7801 65.700226 L258.5401 62.10025 L260.3001 58.500275 L262.06012 54.9003 L262.5 54.0 L264.26 57.599976 L266.02002 61.19995 L267.78003 64.79993 L269.54004 68.3999 L271.30005 71.99988 L273.06006 75.59985 L274.82007 79.19983 L276.58008 82.799805 L278.3401 86.39978 L280.1001 89.999756 L281.8601 93.59973 L283.62012 97.19971 L283.0 99.0 Z "/>
      </g>
      <g style="fill:none;stroke:#672F01;stroke-width:3.0;">
        <path d="M262.5 99.0 L284.5 144.0 L240.5 144.0 L262.5 99.0 "/>
      </g>
      <g style="fill:none;stroke:#670D01;stroke-width:3.0;">
        <path d="M283.0 144.0 L243.0 144.0 L240.94 143.1 L242.70001 139.50003 L244.46002 135.90005 L246.22003 132.30008 L247.98004 128.7001 L249.74005 125.10013 L251.50006 121.50015 L253.26007 117.90018 L255.02008 114.3002 L256.7801 110.700226 L258.5401 107.10025 L260.3001 103.500275 L262.06012 99.9003 L262.5 99.0 L264.26 102.599976 L266.02002 106.19995 L267.78003 109.79993 L269.54004 113.3999 L271.30005 116.99988 L273.06006 120.59985 L274.82007 124.19983 L276.58008 127.799805 L278.3401 131.39978 L280.1001 134.99976 L281.8601 138.59973 L283.62012 142.1997 L283.0 144.0 Z "/>
      </g>
      <g style="fill:none;stroke:#674001;stroke-width:3.0;">
        <path d="M262.5 144.0 L284.5 189.0 L240.5 189.0 L262.5 144.0 "/>
      </g>
      <g style="fill:none;stroke:#672F01;stroke-width:3.0;">
        <path d="M283.0 189.0 L243.0 189.0 L240.94 188.1 L242.70001 184.50003 L244.46002 180.90005 L246.22003 177.30008 L247.98004 173.7001 L249.74005 170.10013 L251.50006 166.50015 L253.26007 162.90018 L255.02008 159.3002 L256.7801 155.70023 L258.5401 152.10025 L260.3001 148.50027 L262.06012 144.9003 L262.5 144.0 L264.26 147.59998 L266.02002 151.19995 L267.78003 154.79993 L269.54004 158.3999 L271.30005 161.99988 L273.06006 165.59985 L274.82007 169.19983 L276.58008 172.7998 L278.3401 176.39978 L280.1001 179.99976 L281.8601 183.59973 L283.62012 187.1997 L283.0 189.0 Z "/>
      </g>
      <g style="fill:none;stroke:#670D01;stroke-width:3.0;">
        <path d="M262.5 189.0 L284.5 234.0 L240.5 234.0 L262.5 189.0 "/>
      </g>
      <g style="fill:none;stroke:#674001;stroke-width:3.0;">
        <path d="M283.0 234.0 L243.0 234.0 L240.94 233.09998 L242.70001 229.49988 L244.46002 225.89978 L246.22003 222.29968 L247.98004 218.69963 L249.74005 215.09966 L251.50006 211.49968 L253.26007 207.8997 L255.02008 204.29973 L256.7801 200.69975 L258.5401 197.09978 L260.3001 193.4998 L262.06012 189.89983 L262.5 189.0 L264.26 192.59998 L266.02002 196.19995 L267.78003 199.79993 L269.54004 203.3999 L271.30005 206.99988 L273.06006 210.59985 L274.82007 214.19983 L276.58008 217.7998 L278.3401 221.39984 L280.1001 224.99994 L281.8601 228.60004 L283.62012 232.20013 L283.0 234.0 Z "/>
      </g>
      <g style="fill:none;stroke:#672F01;stroke-width:3.0;">
        <path d="M262.5 234.0 L284.5 279.0 L240.5 279.0 L262.5 234.0 "/>
      </g>
      <g style="fill:none;stroke:#670D01;stroke-width:3.0;">
        <path d="M283.0 279.0 L243.0 279.0 L240.94 278.09998 L242.70001 274.49988 L244.46002 270.89978 L246.22003 267.29968 L247.98004 263.6996 L249.74005 260.0995 L251.50006 256.4994 L253.26007 252.89929 L255.02008 249.2992 L256.7801 245.6991 L258.5401 242.099 L260.3001 238.4989 L262.06012 234.8988 L262.5 234.0 L264.26 237.6001 L266.02002 241.2002 L267.78003 244.8003 L269.54004 248.40039 L271.30005 252.00049 L273.06006 255.60059 L274.82007 259.20068 L276.58008 262.80078 L278.3401 266.40088 L280.1001 270.00098 L281.8601 273.60107 L283.62012 277.20117 L283.0 279.0 Z "/>
      </g>
      <g style="fill:none;stroke:#674001;stroke-width:3.0;">
        <path d="M262.5 279.0 L284.5 324.0 L240.5 324.0 L262.5 279.0 "/>
      </g>
      <g style="fill:none;stroke:#672F01;stroke-width:3.0;">
        <path d="M283.0 324.0 L243.0 324.0 L240.94 323.09998 L242.70001 319.49988 L244.46002 315.89978 L246.22003 312.29968 L247.98004 308.6996 L249.74005 305.0995 L251.50006 301.4994 L253.26007 297.8993 L255.02008 294.2992 L256.7801 290.6991 L258.5401 287.099 L260.3001 283.4989 L262.06012 279.8988 L262.5 279.0 L264.26 282.6001 L266.02002 286.2002 L267.78003 289.8003 L269.54004 293.4004 L271.30005 297.0005 L273.06006 300.6006 L274.82007 304.20068 L276.58008 307.80078 L278.3401 311.40088 L280.1001 315.00098 L281.8601 318.60107 L283.62012 322.20117 L283.0 324.0 Z "/>
      </g>
      <g style="fill:none;stroke:#670D01;stroke-width:3.0;">
        <path d="M307.5 -36.0 L329.5 9.0 L285.5 9.0 L307.5 -36.0 "/>
      </g>
      <g style="fill:none;stroke:#674001;stroke-width:3.0;">
        <path d="M328.0 9.0 L288.0 9.0 L285.94 8.099998 L287.7 4.4999924 L289.46002 0.89998627 L291.22003 -2.7000198 L292.98004 -6.300026 L294.74005 -9.900032 L296.50006 -13.500038 L298.26007 -17.100044 L300.02008 -20.700048 L301.7801 -24.300047 L303.5401 -27.900045 L305.3001 -31.500044 L307.06012 -35.100044 L307.5 -36.0 L309.26 -32.4 L311.02002 -28.800001 L312.78003 -25.200003 L314.54004 -21.600004 L316.30005 -18.000002 L318.06006 -14.399996 L319.82007 -10.79999 L321.58008 -7.1999836 L323.3401 -3.5999794 L325.1001 2.670288E-5 L326.8601 3.6000328 L328.62012 7.200039 L328.0 9.0 Z "/>
      </g>
      <g style="fill:none;stroke:#672F01;stroke-width:3.0;">
        <path d="M307.5 9.0 L329.5 54.0 L285.5 54.0 L307.5 9.0 "/>
      </g>
      <g style="fill:none;stroke:#670D01;stroke-width:3.0;">
        <path d="M328.0 54.0 L288.0 54.0 L285.94 53.100006 L287.7 49.50003 L289.46002 45.900055 L291.22003 42.30008 L292.98004 38.700104 L294.74005 35.10013 L296.50006 31.500153 L298.26007 27.900173 L300.02008 24.300167 L301.7801 20.700161 L303.5401 17.100155 L305.3001 13.500149 L307.06012 9.900143 L307.5 9.0 L309.26 12.600006 L311.02002 16.200012 L312.78003 19.800018 L314.54004 23.400024 L316.30005 27.00003 L318.06006 30.600014 L319.82007 34.19999 L321.58008 37.799965 L323.3401 41.39994 L325.1001 44.999916 L326.8601 48.59989 L328.62012 52.199867 L328.0 54.0 Z "/>
      </g>
      <g style="fill:none;stroke:#674001;stroke-width:3.0;">
        <path d="M307.5 54.0 L329.5 99.0 L285.5 99.0 L307.5 54.0 "/>
      </g>
      <g style="fill:none;stroke:#672F01;stroke-width:3.0;">
        <path d="M328.0 99.0 L288.0 99.0 L285.94 98.100006 L287.7 94.50003 L289.46002 90.900055 L291.22003 87.30008 L292.98004 83.7001 L294.74005 80.10013 L296.50006 76.50015 L298.26007 72.90018 L300.02008 69.3002 L301.7801 65.700226 L303.5401 62.10025 L305.3001 58.500275 L307.06012 54.9003 L307.5 54.0 L309.26 57.599976 L311.02002 61.19995 L312.78003 64.79993 L314.54004 68.3999 L316.30005 71.99988 L318.06006 75.59985 L319.82007 79.19983 L321.58008 82.799805 L323.3401 86.39978 L325.1001 89.999756 L326.8601 93.59973 L328.62012 97.19971 L328.0 99.0 Z "/>
      </g>
      <g style="fill:none;stroke:#670D01;stroke-width:3.0;">
        <path d="M307.5 99.0 L329.5 144.0 L285.5 144.0 L307.5 99.0 "/>
      </g>
      <g style="fill:none;stroke:#674001;stroke-width:3.0;">
        <path d="M328.0 144.0 L288.0 144.0 L285.94 143.1 L287.7 139.50003 L289.46002 135.90005 L291.22003 132.30008 L292.98004 128.7001 L294.74005 125.10013 L296.50006 121.50015 L298.26007 117.90018 L300.02008 114.3002 L301.7801 110.700226 L303.5401 107.10025 L305.3001 103.500275 L307.06012 99.9003 L307.5 99.0 L309.26 102.599976 L311.02002 106.19995 L312.78003 109.79993 L314.54004 113.3999 L316.30005 116.99988 L318.06006 120.59985 L319.82007 124.19983 L321.58008 127.799805 L323.3401 131.39978 L325.1001 134.99976 L326.8601 138.59973 L328.62012 142.1997 L328.0 144.0 Z "/>
      </g>
      <g style="fill:none;stroke:#672F01;stroke-width:3.0;">
        <path d="M307.5 144.0 L329.5 189.0 L285.5 189.0 L307.5 144.0 "/>
      </g>
      <g style="fill:none;stroke:#670D01;stroke-width:3.0;">
        <path d="M328.0 189.0 L288.0 189.0 L285.94 188.1 L287.7 184.50003 L289.46002 180.90005 L291.22003 177.30008 L292.98004 173.7001 L294.74005 170.10013 L296.50006 166.50015 L298.26007 162.90018 L300.02008 159.3002 L301.7801 155.70023 L303.5401 152.10025 L305.3001 148.50027 L307.06012 144.9003 L307.5 144.0 L309.26 147.59998 L311.02002 151.19995 L312.78003 154.79993 L314.54004 158.3999 L316.30005 161.99988 L318.06006 165.59985 L319.82007 169.19983 L321.58008 172.7998 L323.3401 176.39978 L325.1001 179.99976 L326.8601 183.59973 L328.62012 187.1997 L328.0 189.0 Z "/>
      </g>
      <g style="fill:none;stroke:#674001;stroke-width:3.0;">
        <path d="M307.5 189.0 L329.5 234.0 L285.5 234.0 L307.5 189.0 "/>
      </g>
      <g style="fill:none;stroke:#672F01;stroke-width:3.0;">
        <path d="M328.0 234.0 L288.0 234.0 L285.94 233.09998 L287.7 229.49988 L289.46002 225.89978 L291.22003 222.29968 L292.98004 218.69963 L294.74005 215.09966 L296.50006 211.49968 L298.26007 207.8997 L300.02008 204.29973 L301.7801 200.69975 L303.5401 197.09978 L305.3001 193.4998 L307.06012 189.89983 L307.5 189.0 L309.26 192.59998 L311.02002 196.19995 L312.78003 199.79993 L314.54004 203.3999 L316.30005 206.99988 L318.06006 210.59985 L319.82007 214.19983 L321.58008 217.7998 L323.3401 221.39984 L325.1001 224.99994 L326.8601 228.60004 L328.62012 232.20013 L328.0 234.0 Z "/>
      </g>
      <g style="fill:none;stroke:#670D01;stroke-width:3.0;">
        <path d="M307.5 234.0 L329.5 279.0 L285.5 279.0 L307.5 234.0 "/>
      </g>
      <g style="fill:none;stroke:#674001;stroke-width:3.0;">
        <path d="M328.0 279.0 L288.0 279.0 L285.94 278.09998 L287.7 274.49988 L289.46002 270.89978 L291.22003 267.29968 L292.98004 263.6996 L294.74005 260.0995 L296.50006 256.4994 L298.26007 252.89929 L300.02008 249.2992 L301.7801 245.6991 L303.5401 242.099 L305.3001 238.4989 L307.06012 234.8988 L307.5 234.0 L309.26 237.6001 L311.02002 241.2002 L312.78003 244.8003 L314.54004 248.40039 L316.30005 252.00049 L318.06006 255.60059 L319.82007 259.20068 L321.58008 262.80078 L323.3401 266.40088 L325.1001 270.00098 L326.8601 273.60107 L328.62012 277.20117 L328.0 279.0 Z "/>
      </g>
      <g style="fill:none;stroke:#672F01;stroke-width:3.0;">
        <path d="M307.5 279.0 L329.5 324.0 L285.5 324.0 L307.5 279.0 "/>
      </g>
      <g style="fill:none;stroke:#670D01;stroke-width:3.0;">
        <path d="M328.0 324.0 L288.0 324.0 L285.94 323.09998 L287.7 319.49988 L289.46002 315.89978 L291.22003 312.29968 L292.98004 308.6996 L294.74005 305.0995 L296.50006 301.4994 L298.26007 297.8993 L300.02008 294.2992 L301.7801 290.6991 L303.5401 287.099 L305.3001 283.4989 L307.06012 279.8988 L307.5 279.0 L309.26 282.6001 L311.02002 286.2002 L312.78003 289.8003 L314.54004 293.4004 L316.30005 297.0005 L318.06006 300.6006 L319.82007 304.20068 L321.58008 307.80078 L323.3401 311.40088 L325.1001 315.00098 L326.8601 318.60107 L328.62012 322.20117 L328.0 324.0 Z "/>
      </g>
      <g style="fill:none;stroke:#674001;stroke-width:3.0;">
        <path d="M352.5 -36.0 L374.5 9.0 L330.5 9.0 L352.5 -36.0 "/>
      </g>
      <g style="fill:none;stroke:#672F01;stroke-width:3.0;">
        <path d="M373.0 9.0 L333.0 9.0 L330.94 8.099998 L332.7 4.4999924 L334.46002 0.89998627 L336.22003 -2.7000198 L337.98004 -6.300026 L339.74005 -9.900032 L341.50006 -13.500038 L343.26007 -17.100044 L345.02008 -20.700048 L346.7801 -24.300047 L348.5401 -27.900045 L350.3001 -31.500044 L352.06012 -35.100044 L352.5 -36.0 L354.26 -32.4 L356.02002 -28.800001 L357.78003 -25.200003 L359.54004 -21.600004 L361.30005 -18.000002 L363.06006 -14.399996 L364.82007 -10.79999 L366.58008 -7.1999836 L368.3401 -3.5999794 L370.1001 2.670288E-5 L371.8601 3.6000328 L373.62012 7.200039 L373.0 9.0 Z "/>
      </g>
      <g style="fill:none;stroke:#670D01;stroke-width:3.0;">
        <path d="M352.5 9.0 L374.5 54.0 L330.5 54.0 L352.5 9.0 "/>
      </g>
      <g style="fill:none;stroke:#674001;stroke-width:3.0;">
        <path d="M373.0 54.0 L333.0 54.0 L330.94 53.100006 L332.7 49.50003 L334.46002 45.900055 L336.22003 42.30008 L337.98004 38.700104 L339.74005 35.10013 L341.50006 31.500153 L343.26007 27.900173 L345.02008 24.300167 L346.7801 20.700161 L348.5401 17.100155 L350.3001 13.500149 L352.06012 9.900143 L352.5 9.0 L354.26 12.600006 L356.02002 16.200012 L357.78003 19.800018 L359.54004 23.400024 L361.30005 27.00003 L363.06006 30.600014 L364.82007 34.19999 L366.58008 37.799965 L368.3401 41.39994 L370.1001 44.999916 L371.8601 48.59989 L373.62012 52.199867 L373.0 54.0 Z "/>
      </g>
      <g style="fill:none;stroke:#672F01;stroke-width:3.0;">
        <path d="M352.5 54.0 L374.5 99.0 L330.5 99.0 L352.5 54.0 "/>
      </g>
      <g style="fill:none;stroke:#670D01;stroke-width:3.0;">
        <path d="M373.0 99.0 L333.0 99.0 L330.94 98.100006 L332.7 94.50003 L334.46002 90.900055 L336.22003 87.30008 L337.98004 83.7001 L339.74005 80.10013 L341.50006 76.50015 L343.26007 72.90018 L345.02008 69.3002 L346.7801 65.700226 L348.5401 62.10025 L350.3001 58.500275 L352.06012 54.9003 L352.5 54.0 L354.26 57.599976 L356.02002 61.19995 L357.78003 64.79993 L359.54004 68.3999 L361.30005 71.99988 L363.06006 75.59985 L364.82007 79.19983 L366.58008 82.799805 L368.3401 86.39978 L370.1001 89.999756 L371.8601 93.59973 L373.62012 97.19971 L373.0 99.0 Z "/>
      </g>
      <g style="fill:none;stroke:#674001;stroke-width:3.0;">
        <path d="M352.5 99.0 L374.5 144.0 L330.5 144.0 L352.5 99.0 "/>
      </g>
      <g style="fill:none;stroke:#672F01;stroke-width:3.0;">
        <path d="M373.0 144.0 L333.0 144.0 L330.94 143.1 L332.7 139.50003 L334.46002 135.90005 L336.22003 132.30008 L337.98004 128.7001 L339.74005 125.10013 L341.50006 121.50015 L343.26007 117.90018 L345.02008 114.3002 L346.7801 110.700226 L348.5401 107.10025 L350.3001 103.500275 L352.06012 99.9003 L352.5 99.0 L354.26 102.599976 L356.02002 106.19995 L357.78003 109.79993 L359.54004 113.3999 L361.30005 116.99988 L363.06006 120.59985 L364.82007 124.19983 L366.58008 127.799805 L368.3401 131.39978 L370.1001 134.99976 L371.8601 138.59973 L373.62012 142.1997 L373.0 144.0 Z "/>
      </g>
      <g style="fill:none;stroke:#670D01;stroke-width:3.0;">
        <path d="M352.5 144.0 L374.5 189.0 L330.5 189.0 L352.5 144.0 "/>
      </g>
      <g style="fill:none;stroke:#674001;stroke-width:3.0;">
        <path d="M373.0 189.0 L333.0 189.0 L330.94 188.1 L332.7 184.50003 L334.46002 180.90005 L336.22003 177.30008 L337.98004 173.7001 L339.74005 170.10013 L341.50006 166.50015 L343.26007 162.90018 L345.02008 159.3002 L346.7801 155.70023 L348.5401 152.10025 L350.3001 148.50027 L352.06012 144.9003 L352.5 144.0 L354.26 147.59998 L356.02002 151.19995 L357.78003 154.79993 L359.54004 158.3999 L361.30005 161.99988 L363.06006 165.59985 L364.82007 169.19983 L366.58008 172.7998 L368.3401 176.39978 L370.1001 179.99976 L371.8601 183.59973 L373.62012 187.1997 L373.0 189.0 Z "/>
      </g>
      <g style="fill:none;stroke:#672F01;stroke-width:3.0;">
        <path d="M352.5 189.0 L374.5 234.0 L330.5 234.0 L352.5 189.0 "/>
      </g>
      <g style="fill:none;stroke:#670D01;stroke-width:3.0;">
        <path d="M373.0 234.0 L333.0 234.0 L330.94 233.09998 L332.7 229.49988 L334.46002 225.89978 L336.22003 222.29968 L337.98004 218.69963 L339.74005 215.09966 L341.50006 211.49968 L343.26007 207.8997 L345.02008 204.29973 L346.7801 200.69975 L348.5401 197.09978 L350.3001 193.4998 L352.06012 189.89983 L352.5 189.0 L354.26 192.59998 L356.02002 196.19995 L357.78003 199.79993 L359.54004 203.3999 L361.30005 206.99988 L363.06006 210.59985 L364.82007 214.19983 L366.58008 217.7998 L368.3401 221.39984 L370.1001 224.99994 L371.8601 228.60004 L373.62012 232.20013 L373.0 234.0 Z "/>
      </g>
      <g style="fill:none;stroke:#674001;stroke-width:3.0;">
        <path d="M352.5 234.0 L374.5 279.0 L330.5 279.0 L352.5 234.0 "/>
      </g>
      <g style="fill:none;stroke:#672F01;stroke-width:3.0;">
        <path d="M373.0 279.0 L333.0 279.0 L330.94 278.09998 L332.7 274.49988 L334.46002 270.89978 L336.22003 267.29968 L337.98004 263.6996 L339.74005 260.0995 L341.50006 256.4994 L343.26007 252.89929 L345.02008 249.2992 L346.7801 245.6991 L348.5401 242.099 L350.3001 238.4989 L352.06012 234.8988 L352.5 234.0 L354.26 237.6001 L356.02002 241.2002 L357.78003 244.8003 L359.54004 248.40039 L361.30005 252.00049 L363.06006 255.60059 L364.82007 259.20068 L366.58008 262.80078 L368.3401 266.40088 L370.1001 270.00098 L371.8601 273.60107 L373.62012 277.20117 L373.0 279.0 Z "/>
      </g>
      <g style="fill:none;stroke:#670D01;stroke-width:3.0;">
        <path d="M352.5 279.0 L374.5 324.0 L330.5 324.0 L352.5 279.0 "/>
      </g>
      <g style="fill:none;stroke:#674001;stroke-width:3.0;">
        <path d="M373.0 324.0 L333.0 324.0 L330.94 323.09998 L332.7 319.49988 L334.46002 315.89978 L336.22003 312.29968 L337.98004 308.6996 L339.74005 305.0995 L341.50006 301.4994 L343.26007 297.8993 L345.02008 294.2992 L346.7801 290.6991 L348.5401 287.099 L350.3001 283.4989 L352.06012 279.8988 L352.5 279.0 L354.26 282.6001 L356.02002 286.2002 L357.78003 289.8003 L359.54004 293.4004 L361.30005 297.0005 L363.06006 300.6006 L364.82007 304.20068 L366.58008 307.80078 L368.3401 311.40088 L370.1001 315.00098 L371.8601 318.60107 L373.62012 322.20117 L373.0 324.0 Z "/>
      </g>
      <g style="fill:none;stroke:#672F01;stroke-width:3.0;">
        <path d="M397.5 -36.0 L419.5 9.0 L375.5 9.0 L397.5 -36.0 "/>
      </g>
      <g style="fill:none;stroke:#670D01;stroke-width:3.0;">
        <path d="M418.0 9.0 L378.0 9.0 L375.94 8.099998 L377.7 4.4999924 L379.46002 0.89998627 L381.22003 -2.7000198 L382.98004 -6.300026 L384.74005 -9.900032 L386.50006 -13.500038 L388.26007 -17.100044 L390.02008 -20.700048 L391.7801 -24.300047 L393.5401 -27.900045 L395.3001 -31.500044 L397.06012 -35.100044 L397.5 -36.0 L399.26 -32.4 L401.02002 -28.800001 L402.78003 -25.200003 L404.54004 -21.600004 L406.30005 -18.000002 L408.06006 -14.399996 L409.82007 -10.79999 L411.58008 -7.1999836 L413.3401 -3.5999794 L415.1001 2.670288E-5 L416.8601 3.6000328 L418.62012 7.200039 L418.0 9.0 Z "/>
      </g>
      <g style="fill:none;stroke:#674001;stroke-width:3.0;">
        <path d="M397.5 9.0 L419.5 54.0 L375.5 54.0 L397.5 9.0 "/>
      </g>
      <g style="fill:none;stroke:#672F01;stroke-width:3.0;">
        <path d="M418.0 54.0 L378.0 54.0 L375.94 53.100006 L377.7 49.50003 L379.46002 45.900055 L381.22003 42.30008 L382.98004 38.700104 L384.74005 35.10013 L386.50006 31.500153 L388.26007 27.900173 L390.02008 24.300167 L391.7801 20.700161 L393.5401 17.100155 L395.3001 13.500149 L397.06012 9.900143 L397.5 9.0 L399.26 12.600006 L401.02002 16.200012 L402.78003 19.800018 L404.54004 23.400024 L406.30005 27.00003 L408.06006 30.600014 L409.82007 34.19999 L411.58008 37.799965 L413.3401 41.39994 L415.1001 44.999916 L416.8601 48.59989 L418.62012 52.199867 L418.0 54.0 Z "/>
      </g>
      <g style="fill:none;stroke:#670D01;stroke-width:3.0;">
        <path d="M397.5 54.0 L419.5 99.0 L375.5 99.0 L397.5 54.0 "/>
      </g>
      <g style="fill:none;stroke:#674001;stroke-width:3.0;">
        <path d="M418.0 99.0 L378.0 99.0 L375.94 98.100006 L377.7 94.50003 L379.46002 90.900055 L381.22003 87.30008 L382.98004 83.7001 L384.74005 80.10013 L386.50006 76.50015 L388.26007 72.90018 L390.02008 69.3002 L391.7801 65.700226 L393.5401 62.10025 L395.3001 58.500275 L397.06012 54.9003 L397.5 54.0 L399.26 57.599976 L401.02002 61.19995 L402.78003 64.79993 L404.54004 68.3999 L406.30005 71.99988 L408.06006 75.59985 L409.82007 79.19983 L411.58008 82.799805 L413.3401 86.39978 L415.1001 89.999756 L416.8601 93.59973 L418.62012 97.19971 L418.0 99.0 Z "/>
      </g>
      <g style="fill:none;stroke:#672F01;stroke-width:3.0;">
        <path d="M397.5 99.0 L419.5 144.0 L375.5 144.0 L397.5 99.0 "/>
      </g>
      <g style="fill:none;stroke:#670D01;stroke-width:3.0;">
        <path d="M418.0 144.0 L378.0 144.0 L375.94 143.1 L377.7 139.50003 L379.46002 135.90005 L381.22003 132.30008 L382.98004 128.7001 L384.74005 125.10013 L386.50006 121.50015 L388.26007 117.90018 L390.02008 114.3002 L391.7801 110.700226 L393.5401 107.10025 L395.3001 103.500275 L397.06012 99.9003 L397.5 99.0 L399.26 102.599976 L401.02002 106.19995 L402.78003 109.79993 L404.54004 113.3999 L406.30005 116.99988 L408.06006 120.59985 L409.82007 124.19983 L411.58008 127.799805 L413.3401 131.39978 L415.1001 134.99976 L416.8601 138.59973 L418.62012 142.1997 L418.0 144.0 Z "/>
      </g>
      <g style="fill:none;stroke:#674001;stroke-width:3.0;">
        <path d="M397.5 144.0 L419.5 189.0 L375.5 189.0 L397.5 144.0 "/>
      </g>
      <g style="fill:none;stroke:#672F01;stroke-width:3.0;">
        <path d="M418.0 189.0 L378.0 189.0 L375.94 188.1 L377.7 184.50003 L379.46002 180.90005 L381.22003 177.30008 L382.98004 173.7001 L384.74005 170.10013 L386.50006 166.50015 L388.26007 162.90018 L390.02008 159.3002 L391.7801 155.70023 L393.5401 152.10025 L395.3001 148.50027 L397.06012 144.9003 L397.5 144.0 L399.26 147.59998 L401.02002 151.19995 L402.78003 154.79993 L404.54004 158.3999 L406.30005 161.99988 L408.06006 165.59985 L409.82007 169.19983 L411.58008 172.7998 L413.3401 176.39978 L415.1001 179.99976 L416.8601 183.59973 L418.62012 187.1997 L418.0 189.0 Z "/>
      </g>
      <g style="fill:none;stroke:#670D01;stroke-width:3.0;">
        <path d="M397.5 189.0 L419.5 234.0 L375.5 234.0 L397.5 189.0 "/>
      </g>
      <g style="fill:none;stroke:#674001;stroke-width:3.0;">
        <path d="M418.0 234.0 L378.0 234.0 L375.94 233.09998 L377.7 229.49988 L379.46002 225.89978 L381.22003 222.29968 L382.98004 218.69963 L384.74005 215.09966 L386.50006 211.49968 L388.26007 207.8997 L390.02008 204.29973 L391.7801 200.69975 L393.5401 197.09978 L395.3001 193.4998 L397.06012 189.89983 L397.5 189.0 L399.26 192.59998 L401.02002 196.19995 L402.78003 199.79993 L404.54004 203.3999 L406.30005 206.99988 L408.06006 210.59985 L409.82007 214.19983 L411.58008 217.7998 L413.3401 221.39984 L415.1001 224.99994 L416.8601 228.60004 L418.62012 232.20013 L418.0 234.0 Z "/>
      </g>
      <g style="fill:none;stroke:#672F01;stroke-width:3.0;">
        <path d="M397.5 234.0 L419.5 279.0 L375.5 279.0 L397.5 234.0 "/>
      </g>
      <g style="fill:none;stroke:#670D01;stroke-width:3.0;">
        <path d="M418.0 279.0 L378.0 279.0 L375.94 278.09998 L377.7 274.49988 L379.46002 270.89978 L381.22003 267.29968 L382.98004 263.6996 L384.74005 260.0995 L386.50006 256.4994 L388.26007 252.89929 L390.02008 249.2992 L391.7801 245.6991 L393.5401 242.099 L395.3001 238.4989 L397.06012 234.8988 L397.5 234.0 L399.26 237.6001 L401.02002 241.2002 L402.78003 244.8003 L404.54004 248.40039 L406.30005 252.00049 L408.06006 255.60059 L409.82007 259.20068 L411.58008 262.80078 L413.3401 266.40088 L415.1001 270.00098 L416.8601 273.60107 L418.62012 277.20117 L418.0 279.0 Z "/>
      </g>
      <g style="fill:none;stroke:#674001;stroke-width:3.0;">
        <path d="M397.5 279.0 L419.5 324.0 L375.5 324.0 L397.5 279.0 "/>
      </g>
      <g style="fill:none;stroke:#672F01;stroke-width:3.0;">
        <path d="M418.0 324.0 L378.0 324.0 L375.94 323.09998 L377.7 319.49988 L379.46002 315.89978 L381.22003 312.29968 L382.98004 308.6996 L384.74005 305.0995 L386.50006 301.4994 L388.26007 297.8993 L390.02008 294.2992 L391.7801 290.6991 L393.5401 287.099 L395.3001 283.4989 L397.06012 279.8988 L397.5 279.0 L399.26 282.6001 L401.02002 286.2002 L402.78003 289.8003 L404.54004 293.4004 L406.30005 297.0005 L408.06006 300.6006 L409.82007 304.20068 L411.58008 307.80078 L413.3401 311.40088 L415.1001 315.00098 L416.8601 318.60107 L418.62012 322.20117 L418.0 324.0 Z "/>
      </g>
    </g>
  </g>
</svg>
