<?xml version="1.0" encoding="UTF-8"?>
<svg xmlns="http://www.w3.org/2000/svg" height="288px" version="1.1" width="480px">
  <g style="fill:#FF7DB5;stroke:none;">
    <path d="M0.0 0.0 L480.0 0.0 L480.0 288.0 L0.0 288.0 L0.0 0.0 "/>
    <g style="">
      <g style="fill:#4551FF;stroke:none;">
        <path d="M-300.67694 -560.3217 L-250.67694 -459.32172 L-350.67694 -459.32172 L-300.67694 -560.3217 "/>
      </g>
      <g style="fill:#BFFF45;stroke:none;">
        <path d="M-300.67694 -378.32172 L-250.67694 -277.32172 L-350.67694 -277.32172 L-300.67694 -378.32172 "/>
      </g>
      <g style="fill:#D045FF;stroke:none;">
        <path d="M-300.67694 -196.32172 L-250.67694 -95.32172 L-350.67694 -95.32172 L-300.67694 -196.32172 "/>
      </g>
      <g style="fill:#45FF62;stroke:none;">
        <path d="M-300.67694 -14.321716 L-250.67694 86.67828 L-350.67694 86.67828 L-300.67694 -14.321716 "/>
      </g>
      <g style="fill:#FF4596;stroke:none;">
        <path d="M-300.67694 167.67828 L-250.67694 268.67828 L-350.67694 268.67828 L-300.67694 167.67828 "/>
      </g>
      <g style="fill:#FF58A0;stroke:none;">
        <path d="M-300.67694 349.67828 L-250.67694 450.67828 L-350.67694 450.67828 L-300.67694 349.67828 "/>
      </g>
      <g style="fill:#FF58A0;stroke:none;">
        <path d="M-300.67694 531.6783 L-250.67694 632.6783 L-350.67694 632.6783 L-300.67694 531.6783 "/>
      </g>
      <g style="fill:#FF58A0;stroke:none;">
        <path d="M-300.67694 713.6783 L-250.67694 814.6783 L-350.67694 814.6783 L-300.67694 713.6783 "/>
      </g>
      <g style="fill:#FF58A0;stroke:none;">
        <path d="M-215.9938 -492.99466 L-114.993805 -542.9946 L-114.993805 -442.99466 L-215.9938 -492.99466 "/>
      </g>
      <g style="fill:#FF58A0;stroke:none;">
        <path d="M-215.99368 -310.994 L-114.99368 -360.994 L-114.99368 -260.994 L-215.99368 -310.994 "/>
      </g>
      <g style="fill:#FF6AAB;stroke:none;">
        <path d="M-215.99384 -128.99384 L-114.993835 -178.99384 L-114.993835 -78.993835 L-215.99384 -128.99384 "/>
      </g>
      <g style="fill:#FF6AAB;stroke:none;">
        <path d="M-215.9945 53.003784 L-114.99451 3.0037842 L-114.99451 103.003784 L-215.9945 53.003784 "/>
      </g>
      <g style="fill:#FF6AAB;stroke:none;">
        <path d="M-215.99396 235.00311 L-114.99396 185.00311 L-114.99396 285.0031 L-215.99396 235.00311 "/>
      </g>
      <g style="fill:#FF6AAB;stroke:none;">
        <path d="M-215.9942 417.0036 L-114.9942 367.0036 L-114.9942 467.0036 L-215.9942 417.0036 "/>
      </g>
      <g style="fill:#FF6AAB;stroke:none;">
        <path d="M-215.9903 599.0058 L-114.990295 549.0058 L-114.990295 649.0058 L-215.9903 599.0058 "/>
      </g>
      <g style="fill:#FF8FC0;stroke:none;">
        <path d="M-215.99213 781.008 L-114.99213 731.008 L-114.99213 831.008 L-215.99213 781.008 "/>
      </g>
      <g style="fill:#FF8FC0;stroke:none;">
        <path d="M3.3344116 -425.67755 L-46.66559 -526.67755 L53.33441 -526.67755 L3.3344116 -425.67755 "/>
      </g>
      <g style="fill:#FF8FC0;stroke:none;">
        <path d="M3.3336182 -243.67755 L-46.66638 -344.67755 L53.33362 -344.67755 L3.3336182 -243.67755 "/>
      </g>
      <g style="fill:#FF8FC0;stroke:none;">
        <path d="M3.3345337 -61.67694 L-46.665466 -162.67694 L53.334534 -162.67694 L3.3345337 -61.67694 "/>
      </g>
      <g style="fill:#FF8FC0;stroke:none;">
        <path d="M3.3328857 120.32184 L-46.667084 19.321838 L53.332916 19.321838 L3.3328857 120.32184 "/>
      </g>
      <g style="fill:#FFA2CA;stroke:none;">
        <path d="M3.3310242 302.32318 L-46.668976 201.32318 L53.331024 201.32318 L3.3310242 302.32318 "/>
      </g>
      <g style="fill:#FFA2CA;stroke:none;">
        <path d="M3.329193 484.31268 L-46.670807 383.31268 L53.329193 383.31268 L3.329193 484.31268 "/>
      </g>
      <g style="fill:#FFA2CA;stroke:none;">
        <path d="M3.3370056 666.32086 L-46.662994 565.32086 L53.337006 565.32086 L3.3370056 666.32086 "/>
      </g>
      <g style="fill:#FFA2CA;stroke:none;">
        <path d="M3.3368835 848.3194 L-46.663116 747.3194 L53.336884 747.3194 L3.3368835 848.3194 "/>
      </g>
      <g style="fill:#FFA2CA;stroke:none;">
        <path d="M222.64978 -493.00443 L121.64975 -443.00443 L121.64978 -543.0044 L222.64978 -493.00443 "/>
      </g>
      <g style="fill:#4551FF;stroke:none;">
        <path d="M222.64911 -311.00452 L121.64908 -261.00452 L121.64908 -361.00452 L222.64911 -311.00452 "/>
      </g>
      <g style="fill:#BFFF45;stroke:none;">
        <path d="M222.6524 -129.00491 L121.652374 -79.00491 L121.652374 -179.00494 L222.6524 -129.00491 "/>
      </g>
      <g style="fill:#D045FF;stroke:none;">
        <path d="M222.64484 52.994934 L121.64484 102.994995 L121.64484 2.994934 L222.64484 52.994934 "/>
      </g>
      <g style="fill:#45FF62;stroke:none;">
        <path d="M222.65411 234.99573 L121.65411 284.9958 L121.65411 184.99573 L222.65411 234.99573 "/>
      </g>
      <g style="fill:#FF4596;stroke:none;">
        <path d="M222.65192 416.99518 L121.65192 466.99518 L121.65192 366.99518 L222.65192 416.99518 "/>
      </g>
      <g style="fill:#FF58A0;stroke:none;">
        <path d="M222.64764 598.9897 L121.647644 648.9897 L121.647644 548.9897 L222.64764 598.9897 "/>
      </g>
      <g style="fill:#FF58A0;stroke:none;">
        <path d="M222.64642 780.98834 L121.64642 830.98834 L121.64642 730.98834 L222.64642 780.98834 "/>
      </g>
      <g style="fill:#FF58A0;stroke:none;">
        <path d="M307.32306 -560.3217 L357.32306 -459.32172 L257.32306 -459.32172 L307.32306 -560.3217 "/>
      </g>
      <g style="fill:#FF58A0;stroke:none;">
        <path d="M307.32306 -378.32172 L357.32306 -277.32172 L257.32306 -277.32172 L307.32306 -378.32172 "/>
      </g>
      <g style="fill:#FF58A0;stroke:none;">
        <path d="M307.32306 -196.32172 L357.32306 -95.32172 L257.32306 -95.32172 L307.32306 -196.32172 "/>
      </g>
      <g style="fill:#FF6AAB;stroke:none;">
        <path d="M307.32306 -14.321716 L357.323 86.67828 L257.323 86.67822 L307.32306 -14.321716 "/>
      </g>
      <g style="fill:#FF6AAB;stroke:none;">
        <path d="M307.32306 167.67828 L357.32306 268.67828 L257.32306 268.67822 L307.32306 167.67828 "/>
      </g>
      <g style="fill:#FF6AAB;stroke:none;">
        <path d="M307.32306 349.67828 L357.32306 450.67828 L257.32306 450.67822 L307.32306 349.67828 "/>
      </g>
      <g style="fill:#FF6AAB;stroke:none;">
        <path d="M307.32306 531.6783 L357.32306 632.6783 L257.32306 632.6783 L307.32306 531.6783 "/>
      </g>
      <g style="fill:#FF6AAB;stroke:none;">
        <path d="M307.32306 713.6783 L357.32306 814.6783 L257.32306 814.6783 L307.32306 713.6783 "/>
      </g>
      <g style="fill:#FF8FC0;stroke:none;">
        <path d="M392.01312 -492.98773 L493.01312 -542.98773 L493.01312 -442.98773 L392.01312 -492.98773 "/>
      </g>
      <g style="fill:#FF8FC0;stroke:none;">
        <path d="M392.0027 -310.99664 L493.0027 -360.99664 L493.00262 -260.99664 L392.0027 -310.99664 "/>
      </g>
      <g style="fill:#FF8FC0;stroke:none;">
        <path d="M392.0103 -128.99078 L493.0103 -178.99078 L493.0103 -78.99078 L392.0103 -128.99078 "/>
      </g>
      <g style="fill:#FF8FC0;stroke:none;">
        <path d="M392.00415 53.007446 L493.00415 3.0074463 L493.00415 103.00745 L392.00415 53.007446 "/>
      </g>
      <g style="fill:#FF8FC0;stroke:none;">
        <path d="M392.01227 234.99841 L493.01227 184.99841 L493.01227 284.9984 L392.01227 234.99841 "/>
      </g>
      <g style="fill:#FFA2CA;stroke:none;">
        <path d="M392.00476 417.00122 L493.00476 367.00122 L493.00476 467.00128 L392.00476 417.00122 "/>
      </g>
      <g style="fill:#FFA2CA;stroke:none;">
        <path d="M392.02197 598.98126 L493.02197 548.98126 L493.02197 648.98126 L392.02197 598.98126 "/>
      </g>
      <g style="fill:#FFA2CA;stroke:none;">
        <path d="M392.01782 780.9644 L493.01782 730.9644 L493.01782 830.9644 L392.01782 780.9644 "/>
      </g>
      <g style="fill:#FFA2CA;stroke:none;">
        <path d="M611.3494 -425.67755 L561.3494 -526.67755 L661.3494 -526.67755 L611.3494 -425.67755 "/>
      </g>
      <g style="fill:#FFA2CA;stroke:none;">
        <path d="M611.32 -243.67792 L561.32 -344.67792 L661.32 -344.67792 L611.32 -243.67792 "/>
      </g>
      <g style="fill:#4551FF;stroke:none;">
        <path d="M611.35114 -61.67505 L561.3512 -162.67505 L661.3512 -162.67505 L611.35114 -61.67505 "/>
      </g>
      <g style="fill:#BFFF45;stroke:none;">
        <path d="M611.3302 120.323 L561.3302 19.322998 L661.3302 19.322998 L611.3302 120.323 "/>
      </g>
      <g style="fill:#D045FF;stroke:none;">
        <path d="M611.3219 302.2954 L561.3219 201.29541 L661.3219 201.29541 L611.3219 302.2954 "/>
      </g>
      <g style="fill:#45FF62;stroke:none;">
        <path d="M611.3424 484.32843 L561.3424 383.32837 L661.3424 383.32837 L611.3424 484.32843 "/>
      </g>
      <g style="fill:#FF4596;stroke:none;">
        <path d="M611.3329 666.29584 L561.3329 565.29584 L661.3329 565.29584 L611.3329 666.29584 "/>
      </g>
      <g style="fill:#FF58A0;stroke:none;">
        <path d="M611.33606 848.3217 L561.3361 747.3217 L661.3361 747.3217 L611.33606 848.3217 "/>
      </g>
      <g style="fill:#FF58A0;stroke:none;">
        <path d="M830.64496 -493.00848 L729.64496 -443.00824 L729.64484 -543.00824 L830.64496 -493.00848 "/>
      </g>
      <g style="fill:#FF58A0;stroke:none;">
        <path d="M830.6296 -310.99432 L729.6297 -260.9942 L729.62946 -360.9942 L830.6296 -310.99432 "/>
      </g>
      <g style="fill:#FF58A0;stroke:none;">
        <path d="M830.6352 -129.00421 L729.6353 -79.00397 L729.6351 -179.00397 L830.6352 -129.00421 "/>
      </g>
      <g style="fill:#FF58A0;stroke:none;">
        <path d="M830.6463 52.99646 L729.6463 102.996704 L729.6462 2.996704 L830.6463 52.99646 "/>
      </g>
      <g style="fill:#FF6AAB;stroke:none;">
        <path d="M830.6353 234.98456 L729.63556 284.98468 L729.6353 184.98468 L830.6353 234.98456 "/>
      </g>
      <g style="fill:#FF6AAB;stroke:none;">
        <path d="M830.6077 416.99622 L729.608 466.9964 L729.6077 366.99634 L830.6077 416.99622 "/>
      </g>
      <g style="fill:#FF6AAB;stroke:none;">
        <path d="M830.67694 598.9854 L729.67694 648.98566 L729.6768 548.98566 L830.67694 598.9854 "/>
      </g>
      <g style="fill:#FF6AAB;stroke:none;">
        <path d="M830.67084 781.002 L729.67084 831.00226 L729.6707 731.00226 L830.67084 781.002 "/>
      </g>
    </g>
  </g>
</svg>
