<?xml version="1.0" encoding="UTF-8"?>
<svg xmlns="http://www.w3.org/2000/svg" height="288px" version="1.1" width="480px">
  <g style="fill:#FFFFFF;stroke:none;">
    <path d="M0.0 0.0 L480.0 0.0 L480.0 288.0 L0.0 288.0 L0.0 0.0 "/>
    <g style="">
      <g style="fill:none;stroke:#AB95FF;stroke-width:3.0;">
        <path d="M665.994 -234.01588 L593.994 -198.0159 L593.994 -270.01587 L665.994 -234.01588 "/>
      </g>
      <g style="fill:none;stroke:#95E8FF;stroke-width:3.0;">
        <path d="M593.994 -228.45749 L593.994 -269.01587 L596.244 -268.89087 L599.844 -267.09088 L603.444 -265.2909 L607.044 -263.4909 L610.64404 -261.6909 L614.244 -259.89087 L617.844 -258.09088 L621.44403 -256.2909 L625.04407 -254.49088 L628.64404 -252.69087 L632.244 -250.89087 L635.84406 -249.09087 L639.4441 -247.29086 L643.04407 -245.49086 L646.64404 -243.69086 L650.2441 -241.89085 L650.8557 -241.58504 L593.994 -228.45749 Z "/>
      </g>
      <g style="fill:none;stroke:#95FFAD;stroke-width:3.0;">
        <path d="M557.994 -234.0159 L485.99405 -198.0159 L485.99405 -270.0159 L557.994 -234.0159 "/>
      </g>
      <g style="fill:none;stroke:#AB95FF;stroke-width:3.0;">
        <path d="M485.99405 -201.0159 L485.99405 -269.0159 L488.24405 -268.8909 L491.84402 -267.09088 L495.444 -265.2909 L499.04398 -263.4909 L502.64395 -261.69092 L506.24393 -259.8909 L509.8439 -258.09088 L513.44385 -256.2909 L517.0438 -254.49089 L520.6438 -252.69089 L524.2438 -250.89088 L527.84375 -249.09088 L531.4437 -247.29088 L535.0437 -245.49088 L538.6437 -243.69087 L542.24365 -241.89087 L545.8436 -240.09087 L549.4436 -238.29086 L553.0436 -236.49088 L556.64355 -234.69089 L557.994 -234.0159 L554.39404 -232.21591 L550.79407 -230.41592 L547.1941 -228.61594 L543.5941 -226.81595 L539.99414 -225.01596 L536.39417 -223.21597 L532.7942 -221.41599 L529.1942 -219.616 L525.59424 -217.81601 L521.99426 -216.01602 L518.3943 -214.21603 L514.7943 -212.41605 L511.19437 -210.61606 L507.5944 -208.81607 L503.99442 -207.01608 L500.39444 -205.2161 L496.79446 -203.4161 L493.1945 -201.61612 L489.5945 -199.81613 L485.99454 -198.01614 L485.99405 -201.0159 Z "/>
      </g>
      <g style="fill:none;stroke:#95E8FF;stroke-width:3.0;">
        <path d="M449.99405 -234.0159 L377.99405 -198.0159 L377.99405 -270.0159 L449.99405 -234.0159 "/>
      </g>
      <g style="fill:none;stroke:#95FFAD;stroke-width:3.0;">
        <path d="M377.99344 -198.01614 L377.99405 -201.0159 L377.99405 -269.0159 L380.2441 -268.8909 L383.8442 -267.09088 L387.4443 -265.2909 L391.0444 -263.4909 L394.6445 -261.69092 L398.2446 -259.8909 L401.8447 -258.09088 L405.4448 -256.2909 L409.0449 -254.49089 L412.6449 -252.69089 L416.24487 -250.89088 L419.84485 -249.09088 L423.44482 -247.29088 L427.0448 -245.49088 L430.64478 -243.69087 L434.24475 -241.89087 L437.84473 -240.09087 L441.4447 -238.29086 L445.04468 -236.49088 L448.64465 -234.69089 L449.99405 -234.0159 L446.39407 -232.21591 L442.7941 -230.41592 L439.19412 -228.61594 L435.59415 -226.81595 L431.99417 -225.01596 L428.3942 -223.21597 L424.79422 -221.41599 L421.19424 -219.616 L417.59427 -217.81601 L413.9943 -216.01602 L410.39432 -214.21603 L406.79422 -212.41605 L403.19412 -210.61606 L399.59402 -208.81607 L395.99393 -207.01608 L392.39383 -205.2161 L388.79373 -203.4161 L385.19363 -201.61612 L381.59354 -199.81613 L377.99344 -198.01614 Z "/>
      </g>
      <g style="fill:none;stroke:#AB95FF;stroke-width:3.0;">
        <path d="M341.99405 -234.0159 L269.99405 -198.0159 L269.99405 -270.0159 L341.99405 -234.0159 "/>
      </g>
      <g style="fill:none;stroke:#95E8FF;stroke-width:3.0;">
        <path d="M269.9921 -198.01614 L269.99405 -201.0159 L269.99405 -269.0159 L272.2441 -268.8909 L275.8442 -267.09088 L279.4443 -265.2909 L283.0444 -263.4909 L286.6445 -261.69092 L290.2446 -259.8909 L293.8447 -258.09088 L297.4448 -256.2909 L301.0449 -254.49089 L304.645 -252.69089 L308.2451 -250.89088 L311.84518 -249.09088 L315.44528 -247.29088 L319.04538 -245.49088 L322.64548 -243.69087 L326.24557 -241.89087 L329.84567 -240.09087 L333.44577 -238.29086 L337.04587 -236.49088 L340.64597 -234.69089 L341.99405 -234.0159 L338.39395 -232.21591 L334.79385 -230.41592 L331.19376 -228.61594 L327.59366 -226.81595 L323.99356 -225.01596 L320.39346 -223.21597 L316.79337 -221.41599 L313.19327 -219.616 L309.59317 -217.81601 L305.99307 -216.01602 L302.39297 -214.21603 L298.79288 -212.41605 L295.19278 -210.61606 L291.59268 -208.81607 L287.99258 -207.01608 L284.3925 -205.2161 L280.7924 -203.4161 L277.1923 -201.61612 L273.5922 -199.81613 L269.9921 -198.01614 Z "/>
      </g>
      <g style="fill:none;stroke:#95FFAD;stroke-width:3.0;">
        <path d="M233.99405 -234.0159 L161.99405 -198.0159 L161.99405 -270.01593 L233.99405 -234.0159 "/>
      </g>
      <g style="fill:none;stroke:#AB95FF;stroke-width:3.0;">
        <path d="M161.9921 -198.01614 L161.99405 -201.0159 L161.99405 -269.01593 L164.24411 -268.89093 L167.84421 -267.0909 L171.4443 -265.2909 L175.0444 -263.4909 L178.6445 -261.69092 L182.2446 -259.89093 L185.8447 -258.0909 L189.4448 -256.2909 L193.04489 -254.4909 L196.64499 -252.6909 L200.24509 -250.8909 L203.84518 -249.0909 L207.44528 -247.2909 L211.04538 -245.49088 L214.64548 -243.69087 L218.24557 -241.89087 L221.84567 -240.09087 L225.44577 -238.29086 L229.04587 -236.49088 L232.64597 -234.69089 L233.99405 -234.0159 L230.39395 -232.21591 L226.79385 -230.41592 L223.19376 -228.61594 L219.59366 -226.81595 L215.99356 -225.01596 L212.39346 -223.21597 L208.79337 -221.41599 L205.19327 -219.616 L201.59317 -217.81601 L197.99307 -216.01602 L194.39297 -214.21603 L190.79288 -212.41605 L187.19278 -210.61606 L183.59268 -208.81607 L179.99258 -207.01608 L176.39249 -205.2161 L172.79239 -203.4161 L169.19229 -201.61612 L165.5922 -199.81613 L161.9921 -198.01614 Z "/>
      </g>
      <g style="fill:none;stroke:#95E8FF;stroke-width:3.0;">
        <path d="M125.99405 -234.01591 L53.99405 -198.01591 L53.99405 -270.01593 L125.99405 -234.01591 "/>
      </g>
      <g style="fill:none;stroke:#95FFAD;stroke-width:3.0;">
        <path d="M53.992096 -198.01616 L53.99405 -201.01591 L53.99405 -269.01593 L56.24411 -268.89093 L59.844208 -267.0909 L63.444305 -265.2909 L67.0444 -263.4909 L70.6445 -261.69092 L74.2446 -259.89093 L77.844696 -258.0909 L81.44479 -256.2909 L85.04489 -254.4909 L88.64499 -252.6909 L92.24509 -250.8909 L95.845184 -249.0909 L99.44528 -247.2909 L103.04538 -245.49089 L106.64548 -243.69089 L110.245575 -241.89088 L113.84567 -240.09088 L117.44577 -238.29088 L121.04587 -236.49089 L124.645966 -234.6909 L125.99405 -234.01591 L122.39395 -232.21593 L118.79385 -230.41594 L115.193756 -228.61595 L111.59366 -226.81596 L107.99356 -225.01598 L104.39346 -223.21599 L100.793365 -221.416 L97.19327 -219.61601 L93.59317 -217.81602 L89.99307 -216.01604 L86.392975 -214.21605 L82.79288 -212.41606 L79.19278 -210.61607 L75.59268 -208.81609 L71.992584 -207.0161 L68.39249 -205.21611 L64.79239 -203.41612 L61.19229 -201.61613 L57.592194 -199.81615 L53.992096 -198.01616 Z "/>
      </g>
      <g style="fill:none;stroke:#AB95FF;stroke-width:3.0;">
        <path d="M17.99405 -234.01591 L-54.00595 -198.01593 L-54.00595 -270.01593 L17.99405 -234.01591 "/>
      </g>
      <g style="fill:none;stroke:#95E8FF;stroke-width:3.0;">
        <path d="M-54.007904 -198.01617 L-54.00595 -201.01593 L-54.00595 -269.01593 L-51.75589 -268.89093 L-48.155792 -267.0909 L-44.555695 -265.2909 L-40.955597 -263.4909 L-37.3555 -261.69092 L-33.7554 -259.89093 L-30.155304 -258.0909 L-26.555206 -256.2909 L-22.955109 -254.4909 L-19.355011 -252.6909 L-15.754913 -250.8909 L-12.154816 -249.0909 L-8.554718 -247.2909 L-4.9546204 -245.49089 L-1.3545227 -243.69089 L2.245575 -241.89088 L5.8456726 -240.09088 L9.44577 -238.29088 L13.045868 -236.49089 L16.645966 -234.6909 L17.99405 -234.01591 L14.393951 -232.21593 L10.793854 -230.41594 L7.193756 -228.61595 L3.5936584 -226.81596 L-0.006439209 -225.01598 L-3.6065369 -223.21599 L-7.2066345 -221.416 L-10.806732 -219.61601 L-14.40683 -217.81602 L-18.006927 -216.01604 L-21.607025 -214.21605 L-25.207123 -212.41606 L-28.80722 -210.61607 L-32.40732 -208.81609 L-36.007416 -207.0161 L-39.607513 -205.21611 L-43.20761 -203.41612 L-46.80771 -201.61613 L-50.407806 -199.81615 L-54.007904 -198.01617 Z "/>
      </g>
      <g style="fill:none;stroke:#95FFAD;stroke-width:3.0;">
        <path d="M-90.00595 -234.01591 L-162.00592 -198.01593 L-162.00592 -270.01593 L-90.00595 -234.01591 "/>
      </g>
      <g style="fill:none;stroke:#AB95FF;stroke-width:3.0;">
        <path d="M-162.00787 -198.01617 L-162.00592 -201.01593 L-162.00592 -269.01593 L-159.75592 -268.89093 L-156.15582 -267.09094 L-152.55573 -265.29092 L-148.95563 -263.49094 L-145.35553 -261.69092 L-141.75543 -259.89093 L-138.15533 -258.0909 L-134.55524 -256.2909 L-130.95514 -254.4909 L-127.35501 -252.6909 L-123.75491 -250.8909 L-120.154816 -249.0909 L-116.55472 -247.2909 L-112.95462 -245.49089 L-109.35452 -243.69089 L-105.754425 -241.89088 L-102.15433 -240.09088 L-98.55423 -238.29088 L-94.95413 -236.49089 L-91.354034 -234.6909 L-90.00595 -234.01591 L-93.60605 -232.21593 L-97.20615 -230.41594 L-100.806244 -228.61595 L-104.40634 -226.81596 L-108.00644 -225.01598 L-111.60654 -223.216 L-115.206635 -221.41602 L-118.80673 -219.61603 L-122.40683 -217.81604 L-126.00693 -216.01605 L-129.607 -214.21606 L-133.20709 -212.41608 L-136.80719 -210.61609 L-140.40729 -208.8161 L-144.00739 -207.01611 L-147.60748 -205.21613 L-151.20758 -203.41614 L-154.80768 -201.61615 L-158.40778 -199.81616 L-162.00787 -198.01617 Z "/>
      </g>
      <g style="fill:none;stroke:#95E8FF;stroke-width:3.0;">
        <path d="M570.0141 -125.98446 L642.0141 -161.98447 L642.01404 -89.98445 L570.0141 -125.98446 "/>
      </g>
      <g style="fill:none;stroke:#95FFAD;stroke-width:3.0;">
        <path d="M570.0141 -125.98446 L573.6141 -127.78451 L577.21405 -129.58456 L580.814 -131.38461 L584.414 -133.18466 L588.014 -134.98471 L591.61395 -136.78476 L595.2139 -138.58481 L598.8139 -140.38486 L602.4139 -142.18489 L606.01385 -143.98488 L609.6139 -145.78487 L613.21387 -147.58485 L616.8139 -149.38484 L620.4139 -151.18483 L624.0139 -152.98482 L627.6139 -154.7848 L631.2139 -156.5848 L634.8139 -158.38478 L638.41394 -160.18477 L642.0139 -161.98476 L642.0141 -158.98445 L642.0141 -90.98445 L639.76404 -91.10949 L636.16406 -92.90954 L632.5641 -94.70959 L628.96405 -96.509636 L625.364 -98.309685 L621.76404 -100.10973 L618.16406 -101.90978 L614.564 -103.70983 L610.964 -105.50988 L607.364 -107.30993 L603.76404 -109.10998 L600.16406 -110.91003 L596.5641 -112.710075 L592.9641 -114.510124 L589.36414 -116.31017 L585.76416 -118.11022 L582.1642 -119.91027 L578.5642 -121.71032 L574.96423 -123.51037 L571.36426 -125.31042 L570.0141 -125.98446 Z "/>
      </g>
      <g style="fill:none;stroke:#AB95FF;stroke-width:3.0;">
        <path d="M462.01398 -125.98445 L534.014 -161.98444 L534.014 -89.98444 L462.01398 -125.98445 "/>
      </g>
      <g style="fill:none;stroke:#95E8FF;stroke-width:3.0;">
        <path d="M462.01398 -125.98445 L465.61395 -127.7845 L469.21393 -129.58455 L472.8139 -131.3846 L476.41388 -133.18465 L480.01385 -134.9847 L483.61383 -136.78474 L487.2138 -138.5848 L490.81378 -140.38484 L494.41376 -142.18488 L498.01373 -143.98486 L501.6137 -145.78485 L505.21368 -147.58484 L508.81366 -149.38483 L512.41364 -151.18481 L516.0136 -152.9848 L519.6136 -154.78479 L523.21356 -156.58478 L526.81354 -158.38477 L530.4135 -160.18475 L534.0135 -161.98474 L534.014 -158.98444 L534.014 -90.98444 L531.764 -91.109474 L528.164 -92.90952 L524.564 -94.70957 L520.96405 -96.50962 L517.3641 -98.30967 L513.7641 -100.10972 L510.16412 -101.90977 L506.56415 -103.709816 L502.96417 -105.509865 L499.3642 -107.30991 L495.76422 -109.10996 L492.16425 -110.91001 L488.56427 -112.71007 L484.9643 -114.51012 L481.36432 -116.310165 L477.76434 -118.110214 L474.16437 -119.91026 L470.5644 -121.71031 L466.96442 -123.51036 L463.36444 -125.31041 L462.01398 -125.98445 Z "/>
      </g>
      <g style="fill:none;stroke:#95FFAD;stroke-width:3.0;">
        <path d="M354.01443 -125.98497 L426.01447 -161.98495 L426.01443 -89.984955 L354.01443 -125.98497 "/>
      </g>
      <g style="fill:none;stroke:#AB95FF;stroke-width:3.0;">
        <path d="M354.01443 -125.98497 L357.61453 -127.78502 L361.21463 -129.58507 L364.81473 -131.38512 L368.41483 -133.18517 L372.01492 -134.98521 L375.61502 -136.78526 L379.21512 -138.58531 L382.81522 -140.38536 L386.4153 -142.1854 L390.0154 -143.98538 L393.6155 -145.78537 L397.2156 -147.58536 L400.8157 -149.38535 L404.4158 -151.18533 L408.0159 -152.98532 L411.61594 -154.78531 L415.2159 -156.5853 L418.8159 -158.38528 L422.41586 -160.18527 L426.01584 -161.98526 L426.01447 -158.98495 L426.01447 -90.984955 L423.76447 -91.109985 L420.1645 -92.910034 L416.5645 -94.71008 L412.96454 -96.51013 L409.36453 -98.31018 L405.76443 -100.11023 L402.16434 -101.91028 L398.56424 -103.71033 L394.96414 -105.510376 L391.36404 -107.310425 L387.76395 -109.11047 L384.16385 -110.91052 L380.56375 -112.71057 L376.96365 -114.51062 L373.36356 -116.31067 L369.76346 -118.11072 L366.16336 -119.91077 L362.56326 -121.710815 L358.96317 -123.510864 L355.36307 -125.31091 L354.01443 -125.98497 Z "/>
      </g>
      <g style="fill:none;stroke:#95E8FF;stroke-width:3.0;">
        <path d="M246.01456 -125.98582 L318.0146 -161.98581 L318.01456 -89.98581 L246.01456 -125.98582 "/>
      </g>
      <g style="fill:none;stroke:#95FFAD;stroke-width:3.0;">
        <path d="M246.01456 -125.98582 L249.61465 -127.785866 L253.21475 -129.5859 L256.81485 -131.38596 L260.41495 -133.186 L264.01505 -134.98605 L267.61514 -136.7861 L271.21524 -138.58615 L274.81534 -140.3862 L278.41544 -142.18625 L282.01553 -143.98624 L285.61563 -145.78622 L289.21573 -147.58621 L292.81583 -149.3862 L296.41592 -151.18619 L300.01602 -152.98618 L303.61612 -154.78616 L307.21622 -156.58615 L310.8163 -158.38614 L314.4164 -160.18613 L318.0165 -161.98611 L318.0146 -158.98581 L318.0146 -90.98581 L315.7645 -91.11084 L312.1644 -92.91089 L308.5643 -94.71094 L304.9642 -96.51099 L301.3641 -98.311035 L297.764 -100.111084 L294.1639 -101.91113 L290.5638 -103.71119 L286.9637 -105.51123 L283.36362 -107.31129 L279.76352 -109.111336 L276.16342 -110.911385 L272.56332 -112.71143 L268.96323 -114.51148 L265.36313 -116.31153 L261.76303 -118.11158 L258.16293 -119.91163 L254.56284 -121.71168 L250.96274 -123.51173 L247.36264 -125.311775 L246.01456 -125.98582 Z "/>
      </g>
      <g style="fill:none;stroke:#AB95FF;stroke-width:3.0;">
        <path d="M138.01602 -125.98573 L210.01605 -161.98572 L210.01602 -89.98571 L138.01602 -125.98573 "/>
      </g>
      <g style="fill:none;stroke:#95E8FF;stroke-width:3.0;">
        <path d="M138.01602 -125.98573 L141.61612 -127.78578 L145.21622 -129.58583 L148.81631 -131.38588 L152.41641 -133.18593 L156.01651 -134.98598 L159.61661 -136.78603 L163.2167 -138.58607 L166.8168 -140.38611 L170.4169 -142.18616 L174.017 -143.98615 L177.6171 -145.78613 L181.2172 -147.58612 L184.81729 -149.38611 L188.41739 -151.1861 L192.01749 -152.98608 L195.61758 -154.78607 L199.21768 -156.58606 L202.81778 -158.38605 L206.41788 -160.18604 L210.01797 -161.98602 L210.01605 -158.98572 L210.01605 -90.98571 L207.76596 -91.11074 L204.16586 -92.91079 L200.56577 -94.71084 L196.96567 -96.51089 L193.36557 -98.310936 L189.76547 -100.110985 L186.16537 -101.91103 L182.56528 -103.71108 L178.96518 -105.51113 L175.36508 -107.31118 L171.76498 -109.11123 L168.16489 -110.91128 L164.56479 -112.71133 L160.96469 -114.511375 L157.3646 -116.311424 L153.7645 -118.11147 L150.1644 -119.91152 L146.5643 -121.71157 L142.9642 -123.51163 L139.3641 -125.311676 L138.01602 -125.98573 Z "/>
      </g>
      <g style="fill:none;stroke:#95FFAD;stroke-width:3.0;">
        <path d="M30.016876 -125.98633 L102.01688 -161.98631 L102.01688 -89.98631 L30.016876 -125.98633 "/>
      </g>
      <g style="fill:none;stroke:#AB95FF;stroke-width:3.0;">
        <path d="M30.016876 -125.98633 L33.616974 -127.78638 L37.21707 -129.58643 L40.81717 -131.38647 L44.417267 -133.18652 L48.017365 -134.98657 L51.617462 -136.78662 L55.21756 -138.58667 L58.817657 -140.38672 L62.417755 -142.18677 L66.01785 -143.98676 L69.61795 -145.78674 L73.21805 -147.58673 L76.818146 -149.38672 L80.41824 -151.18669 L84.01834 -152.98668 L87.61844 -154.78667 L91.21854 -156.58665 L94.818634 -158.38664 L98.41873 -160.18665 L102.01883 -161.98663 L102.01688 -158.98631 L102.01688 -90.98631 L99.766815 -91.11134 L96.16672 -92.91139 L92.56662 -94.71144 L88.96652 -96.51149 L85.366425 -98.31154 L81.76633 -100.11159 L78.16623 -101.91164 L74.56613 -103.711685 L70.966034 -105.511734 L67.36594 -107.31178 L63.76584 -109.11183 L60.16574 -110.91188 L56.565643 -112.71193 L52.965546 -114.51198 L49.365448 -116.31203 L45.76535 -118.112076 L42.165253 -119.912125 L38.565155 -121.71217 L34.965057 -123.51222 L31.36496 -125.31227 L30.016876 -125.98633 Z "/>
      </g>
      <g style="fill:none;stroke:#95E8FF;stroke-width:3.0;">
        <path d="M-77.98386 -125.98571 L-5.983856 -161.9857 L-5.983856 -89.9857 L-77.98386 -125.98571 "/>
      </g>
      <g style="fill:none;stroke:#95FFAD;stroke-width:3.0;">
        <path d="M-77.98386 -125.98571 L-74.38376 -127.78576 L-70.78366 -129.5858 L-67.18356 -131.38585 L-63.583466 -133.1859 L-59.983368 -134.98595 L-56.38327 -136.786 L-52.783173 -138.58604 L-49.183075 -140.3861 L-45.582977 -142.18614 L-41.98288 -143.98613 L-38.382782 -145.78612 L-34.782684 -147.5861 L-31.182587 -149.3861 L-27.582489 -151.18608 L-23.982391 -152.98607 L-20.382294 -154.78606 L-16.782196 -156.58604 L-13.182098 -158.38603 L-9.582001 -160.186 L-5.981903 -161.986 L-5.983856 -158.9857 L-5.983856 -90.9857 L-8.233917 -91.11073 L-11.834015 -92.91078 L-15.434113 -94.71083 L-19.03421 -96.51088 L-22.634308 -98.31093 L-26.234406 -100.11098 L-29.834503 -101.911026 L-33.4346 -103.711075 L-37.0347 -105.51112 L-40.634796 -107.31117 L-44.234894 -109.11122 L-47.83499 -110.91127 L-51.43509 -112.71132 L-55.035187 -114.51137 L-58.635284 -116.31142 L-62.235382 -118.111465 L-65.83548 -119.911514 L-69.43558 -121.71156 L-73.035675 -123.51161 L-76.63577 -125.31167 L-77.98386 -125.98571 Z "/>
      </g>
      <g style="fill:none;stroke:#AB95FF;stroke-width:3.0;">
        <path d="M-185.98895 -125.98504 L-113.98898 -161.98502 L-113.98898 -89.98504 L-185.98895 -125.98504 "/>
      </g>
      <g style="fill:none;stroke:#95E8FF;stroke-width:3.0;">
        <path d="M-185.98895 -125.98504 L-182.38885 -127.78509 L-178.78876 -129.58514 L-175.18866 -131.3852 L-171.58856 -133.18524 L-167.98846 -134.98529 L-164.38837 -136.78534 L-160.78827 -138.58539 L-157.18817 -140.38544 L-153.58807 -142.18547 L-149.98798 -143.98546 L-146.38788 -145.78545 L-142.78778 -147.58543 L-139.18768 -149.38542 L-135.58759 -151.18541 L-131.98749 -152.9854 L-128.38739 -154.78539 L-124.78732 -156.58537 L-121.187225 -158.38536 L-117.58713 -160.18535 L-113.98703 -161.98534 L-113.98898 -158.96405 L-113.98898 -90.48884 L-116.239044 -91.11007 L-119.83914 -92.91012 L-123.43924 -94.71017 L-127.03934 -96.510216 L-130.63947 -98.310265 L-134.23956 -100.11031 L-137.83966 -101.91036 L-141.43976 -103.71041 L-145.03986 -105.51046 L-148.63995 -107.31051 L-152.24005 -109.11056 L-155.84015 -110.91061 L-159.44025 -112.710655 L-163.04034 -114.510704 L-166.64044 -116.31075 L-170.24054 -118.1108 L-173.84064 -119.91085 L-177.44073 -121.7109 L-181.04083 -123.51095 L-184.64093 -125.311 L-185.98895 -125.98504 Z "/>
      </g>
      <g style="fill:none;stroke:#95FFAD;stroke-width:3.0;">
        <path d="M665.994 -18.01587 L593.994 17.984108 L593.994 -54.015892 L665.994 -18.01587 "/>
      </g>
      <g style="fill:none;stroke:#AB95FF;stroke-width:3.0;">
        <path d="M593.994 17.985085 L593.994 14.984108 L593.994 -53.015892 L596.244 -52.89086 L599.844 -51.090813 L603.444 -49.29076 L607.044 -47.49071 L610.64404 -45.690662 L614.244 -43.890614 L617.844 -42.090565 L621.44403 -40.290516 L625.04407 -38.490467 L628.64404 -36.69042 L632.244 -34.89037 L635.84406 -33.09032 L639.4441 -31.290276 L643.04407 -29.490227 L646.64404 -27.69017 L650.2441 -25.890121 L653.8441 -24.090073 L657.4441 -22.290024 L661.04407 -20.489975 L664.64404 -18.689926 L665.994 -18.01587 L662.39404 -16.21582 L658.79407 -14.4157715 L655.1941 -12.615738 L651.59406 -10.815689 L647.994 -9.01564 L644.39404 -7.215599 L640.79407 -5.41555 L637.19403 -3.6155014 L633.594 -1.8154526 L629.994 -0.015403748 L626.39404 1.7846451 L622.794 3.584694 L619.194 5.3847427 L615.594 7.1847916 L611.994 8.98484 L608.394 10.784889 L604.79395 12.584938 L601.194 14.384987 L597.594 16.185036 L593.994 17.985085 Z "/>
      </g>
      <g style="fill:none;stroke:#95E8FF;stroke-width:3.0;">
        <path d="M557.994 -18.015877 L485.99405 17.984108 L485.99408 -54.015896 L557.994 -18.015877 "/>
      </g>
      <g style="fill:none;stroke:#95FFAD;stroke-width:3.0;">
        <path d="M485.99405 14.984108 L485.99405 -53.015896 L488.24405 -52.890865 L491.84402 -51.090816 L495.444 -49.290768 L499.04398 -47.49072 L502.64395 -45.69067 L506.24393 -43.89062 L509.8439 -42.090572 L513.44385 -40.290524 L517.0438 -38.49047 L520.6438 -36.690422 L524.2438 -34.890373 L527.84375 -33.090324 L531.4437 -31.290276 L535.0437 -29.490227 L538.6437 -27.690178 L542.24365 -25.89013 L545.8436 -24.09008 L549.4436 -22.290031 L553.0436 -20.489983 L556.64355 -18.689934 L557.994 -18.015877 L554.39404 -16.215828 L550.79407 -14.415779 L547.1941 -12.615746 L543.5941 -10.815697 L539.99414 -9.015648 L536.39417 -7.215599 L532.7942 -5.41555 L529.1942 -3.6155014 L525.59424 -1.8154526 L521.99426 -0.015403748 L518.3943 1.7846451 L514.7943 3.584694 L511.19437 5.3847427 L507.5944 7.1847916 L503.99442 8.98484 L500.39444 10.784889 L496.79446 12.584938 L493.1945 14.384987 L489.5945 16.185036 L485.99454 17.985085 L485.99405 14.984108 Z "/>
      </g>
      <g style="fill:none;stroke:#AB95FF;stroke-width:3.0;">
        <path d="M449.99402 -18.015884 L377.99402 17.9841 L377.99405 -54.0159 L449.99402 -18.015884 "/>
      </g>
      <g style="fill:none;stroke:#95E8FF;stroke-width:3.0;">
        <path d="M377.99344 17.985077 L377.99402 14.9841 L377.99402 -53.0159 L380.2441 -52.89087 L383.8442 -51.09082 L387.4443 -49.29077 L391.0444 -47.490723 L394.6445 -45.690674 L398.2446 -43.890625 L401.8447 -42.090576 L405.4448 -40.290527 L409.0449 -38.49048 L412.6449 -36.69043 L416.24487 -34.89038 L419.84485 -33.090332 L423.44482 -31.290283 L427.0448 -29.490234 L430.64478 -27.690186 L434.24475 -25.890137 L437.84473 -24.090088 L441.4447 -22.29004 L445.04468 -20.48999 L448.64465 -18.689941 L449.99402 -18.015884 L446.39404 -16.215836 L442.79407 -14.415787 L439.1941 -12.615753 L435.59412 -10.815704 L431.99414 -9.0156555 L428.39417 -7.2156067 L424.7942 -5.415558 L421.1942 -3.615509 L417.59424 -1.8154602 L413.99426 -0.015411377 L410.3943 1.7846375 L406.79422 3.5846863 L403.19412 5.384735 L399.59402 7.184784 L395.99393 8.984833 L392.39383 10.784882 L388.79373 12.58493 L385.19363 14.384979 L381.59354 16.185028 L377.99344 17.985077 Z "/>
      </g>
      <g style="fill:none;stroke:#95FFAD;stroke-width:3.0;">
        <path d="M341.99405 -18.0159 L269.99402 17.984093 L269.99405 -54.01592 L341.99405 -18.0159 "/>
      </g>
      <g style="fill:none;stroke:#AB95FF;stroke-width:3.0;">
        <path d="M269.9921 17.98507 L269.99402 14.984093 L269.99402 -53.015903 L272.2441 -52.89089 L275.8442 -51.09084 L279.4443 -49.29079 L283.0444 -47.49074 L286.6445 -45.690693 L290.2446 -43.890644 L293.8447 -42.090595 L297.4448 -40.290546 L301.0449 -38.490498 L304.645 -36.69045 L308.2451 -34.8904 L311.84518 -33.09035 L315.44528 -31.290298 L319.04538 -29.49025 L322.64548 -27.6902 L326.24557 -25.890152 L329.84567 -24.090103 L333.44577 -22.290054 L337.04587 -20.490005 L340.64597 -18.689957 L341.99405 -18.0159 L338.39395 -16.21585 L334.79385 -14.415802 L331.19376 -12.615753 L327.59366 -10.815704 L323.99356 -9.0156555 L320.39346 -7.2156067 L316.79337 -5.415558 L313.19327 -3.615509 L309.59317 -1.8154602 L305.99307 -0.015411377 L302.39297 1.7846375 L298.79288 3.5846863 L295.19278 5.3847275 L291.59268 7.1847763 L287.99258 8.984825 L284.3925 10.784874 L280.7924 12.584923 L277.1923 14.384972 L273.5922 16.18502 L269.9921 17.98507 Z "/>
      </g>
      <g style="fill:none;stroke:#95E8FF;stroke-width:3.0;">
        <path d="M233.99405 -18.015892 L161.99402 17.984093 L161.99405 -54.01591 L233.99405 -18.015892 "/>
      </g>
      <g style="fill:none;stroke:#95FFAD;stroke-width:3.0;">
        <path d="M161.9921 17.98507 L161.99402 14.984093 L161.99402 -53.01591 L164.24411 -52.89088 L167.84421 -51.090828 L171.4443 -49.29078 L175.0444 -47.49073 L178.6445 -45.69068 L182.2446 -43.890633 L185.8447 -42.090584 L189.4448 -40.290535 L193.04489 -38.490486 L196.64499 -36.690437 L200.24509 -34.89039 L203.84518 -33.09034 L207.44528 -31.29029 L211.04538 -29.490242 L214.64548 -27.690193 L218.24557 -25.890144 L221.84567 -24.090096 L225.44577 -22.290047 L229.04587 -20.489998 L232.64597 -18.689949 L233.99405 -18.015892 L230.39395 -16.215843 L226.79385 -14.415794 L223.19376 -12.615761 L219.59366 -10.815712 L215.99356 -9.015663 L212.39346 -7.2156143 L208.79337 -5.4155655 L205.19327 -3.6155167 L201.59317 -1.8154678 L197.99307 -0.015419006 L194.39297 1.7846298 L190.79288 3.5846786 L187.19278 5.3847275 L183.59268 7.1847763 L179.99258 8.984825 L176.39249 10.784874 L172.79239 12.584923 L169.19229 14.384972 L165.5922 16.18502 L161.9921 17.98507 Z "/>
      </g>
      <g style="fill:none;stroke:#AB95FF;stroke-width:3.0;">
        <path d="M125.99405 -18.015892 L53.99405 17.984085 L53.99405 -54.015915 L125.99405 -18.015892 "/>
      </g>
      <g style="fill:none;stroke:#95E8FF;stroke-width:3.0;">
        <path d="M53.992096 17.985062 L53.99405 14.984085 L53.99405 -53.015915 L56.24411 -52.890884 L59.844208 -51.090836 L63.444305 -49.290787 L67.0444 -47.490738 L70.6445 -45.69069 L74.2446 -43.89064 L77.844696 -42.09059 L81.44479 -40.29054 L85.04489 -38.49049 L88.64499 -36.69044 L92.24509 -34.890392 L95.845184 -33.090343 L99.44528 -31.290298 L103.04538 -29.49025 L106.64548 -27.6902 L110.245575 -25.890152 L113.84567 -24.090103 L117.44577 -22.290054 L121.04587 -20.490005 L124.645966 -18.689949 L125.99405 -18.015892 L122.39395 -16.215843 L118.79385 -14.415802 L115.193756 -12.615768 L111.59366 -10.81572 L107.99356 -9.015671 L104.39346 -7.215622 L100.793365 -5.415573 L97.19327 -3.6155243 L93.59317 -1.8154755 L89.99307 -0.015426636 L86.392975 1.7846222 L82.79288 3.584671 L79.19278 5.38472 L75.59268 7.1847687 L71.992584 8.9848175 L68.39249 10.784866 L64.79239 12.584915 L61.19229 14.384964 L57.592194 16.185013 L53.992096 17.985062 Z "/>
      </g>
      <g style="fill:none;stroke:#95FFAD;stroke-width:3.0;">
        <path d="M17.99405 -18.0159 L-54.00595 17.984077 L-54.00595 -54.01592 L17.99405 -18.0159 "/>
      </g>
      <g style="fill:none;stroke:#AB95FF;stroke-width:3.0;">
        <path d="M-54.007904 17.985054 L-54.00595 14.984077 L-54.00595 -53.01592 L-51.75589 -52.89089 L-48.155792 -51.09084 L-44.555695 -49.29079 L-40.955597 -47.49074 L-37.3555 -45.690693 L-33.7554 -43.890644 L-30.155304 -42.090595 L-26.555206 -40.290546 L-22.955109 -38.490498 L-19.355011 -36.69045 L-15.754913 -34.8904 L-12.154816 -33.09035 L-8.554718 -31.290298 L-4.9546204 -29.49025 L-1.3545227 -27.6902 L2.245575 -25.890152 L5.8456726 -24.090103 L9.44577 -22.290054 L13.045868 -20.490005 L16.645966 -18.689957 L17.99405 -18.0159 L14.393951 -16.21585 L10.793854 -14.415802 L7.193756 -12.615768 L3.5936584 -10.81572 L-0.006439209 -9.015671 L-3.6065369 -7.215622 L-7.2066345 -5.415573 L-10.806732 -3.6155243 L-14.40683 -1.8154755 L-18.006927 -0.015426636 L-21.607025 1.7846222 L-25.207123 3.584671 L-28.80722 5.38472 L-32.40732 7.1847687 L-36.007416 8.9848175 L-39.607513 10.784866 L-43.20761 12.584915 L-46.80771 14.384964 L-50.407806 16.185013 L-54.007904 17.985054 Z "/>
      </g>
      <g style="fill:none;stroke:#95E8FF;stroke-width:3.0;">
        <path d="M-90.00595 -18.015923 L-162.00592 17.984077 L-162.00592 -54.015923 L-90.00595 -18.015923 "/>
      </g>
      <g style="fill:none;stroke:#95FFAD;stroke-width:3.0;">
        <path d="M-162.00787 17.985054 L-162.00592 14.984077 L-162.00592 -53.015923 L-159.75592 -52.890892 L-156.15582 -51.090843 L-152.55573 -49.290794 L-148.95563 -47.490746 L-145.35553 -45.690697 L-141.75543 -43.890648 L-138.15533 -42.0906 L-134.55524 -40.29055 L-130.95514 -38.4905 L-127.35501 -36.690453 L-123.75491 -34.890404 L-120.154816 -33.090355 L-116.55472 -31.290306 L-112.95462 -29.490257 L-109.35452 -27.690208 L-105.754425 -25.89016 L-102.15433 -24.09011 L-98.55423 -22.290062 L-94.95413 -20.490013 L-91.354034 -18.689964 L-90.00595 -18.015923 L-93.60605 -16.215874 L-97.20615 -14.415825 L-100.806244 -12.615776 L-104.40634 -10.815727 L-108.00644 -9.015678 L-111.60654 -7.2156296 L-115.206635 -5.4155807 L-118.80673 -3.615532 L-122.40683 -1.8154831 L-126.00693 -0.015434265 L-129.607 1.7846146 L-133.20709 3.5846634 L-136.80719 5.384712 L-140.40729 7.184761 L-144.00739 8.98481 L-147.60748 10.784859 L-151.20758 12.584908 L-154.80768 14.384956 L-158.40778 16.185005 L-162.00787 17.985054 Z "/>
      </g>
      <g style="fill:none;stroke:#AB95FF;stroke-width:3.0;">
        <path d="M570.0136 90.01604 L642.0136 54.016037 L642.0136 126.01604 L570.0136 90.01604 "/>
      </g>
      <g style="fill:none;stroke:#95E8FF;stroke-width:3.0;">
        <path d="M570.0136 90.01604 L573.6136 88.21599 L577.21356 86.41594 L580.81354 84.61589 L584.4135 82.81584 L588.0135 81.01579 L591.61346 79.215744 L595.21344 77.415695 L598.8134 75.61565 L602.4134 73.8156 L606.0134 72.01555 L609.6134 70.2155 L613.2134 68.41545 L616.8134 66.6154 L620.41345 64.81535 L624.0134 63.015305 L627.6134 61.215256 L631.21344 59.415207 L634.8135 57.615158 L638.41345 55.81511 L642.0134 54.01506 L642.0136 57.016037 L642.0136 125.01604 L639.76355 124.89101 L636.1636 123.09096 L632.5636 121.29091 L628.96356 119.49086 L625.3635 117.69081 L621.76355 115.89076 L618.1636 114.09071 L614.56354 112.290665 L610.9635 110.490616 L607.3635 108.69057 L603.76355 106.89052 L600.1635 105.09047 L596.56354 103.29042 L592.96356 101.49037 L589.3636 99.69032 L585.7636 97.890274 L582.16364 96.090225 L578.56366 94.29018 L574.9637 92.49013 L571.3637 90.69008 L570.0136 90.01604 Z "/>
      </g>
      <g style="fill:none;stroke:#95FFAD;stroke-width:3.0;">
        <path d="M462.01364 90.01608 L534.0137 54.016083 L534.0137 126.01608 L462.01364 90.01608 "/>
      </g>
      <g style="fill:none;stroke:#AB95FF;stroke-width:3.0;">
        <path d="M462.01364 90.01608 L465.61362 88.216034 L469.2136 86.415985 L472.81357 84.61594 L476.41354 82.81589 L480.01352 81.01584 L483.6135 79.21579 L487.21347 77.41574 L490.81345 75.61569 L494.41342 73.81564 L498.0134 72.015594 L501.61337 70.215546 L505.21335 68.4155 L508.81332 66.61545 L512.4133 64.8154 L516.0133 63.01535 L519.6133 61.2153 L523.21326 59.415253 L526.81323 57.615204 L530.4132 55.815155 L534.0132 54.015106 L534.0137 57.016083 L534.0137 125.01608 L531.7637 124.89105 L528.1637 123.091 L524.5637 121.290955 L520.96375 119.490906 L517.3638 117.69086 L513.7638 115.89081 L510.16382 114.09076 L506.56384 112.29071 L502.96387 110.49066 L499.3639 108.69061 L495.76392 106.890564 L492.16394 105.090515 L488.56396 103.29047 L484.964 101.49042 L481.364 99.69037 L477.76404 97.89032 L474.16406 96.09027 L470.5641 94.29022 L466.9641 92.49017 L463.36414 90.690125 L462.01364 90.01608 Z "/>
      </g>
      <g style="fill:none;stroke:#95E8FF;stroke-width:3.0;">
        <path d="M354.01517 90.013885 L426.01517 54.013885 L426.01517 126.013885 L354.01517 90.013885 "/>
      </g>
      <g style="fill:none;stroke:#95FFAD;stroke-width:3.0;">
        <path d="M354.01517 90.013885 L357.61526 88.21384 L361.21536 86.41379 L364.81546 84.61374 L368.41556 82.81369 L372.01566 81.01364 L375.61575 79.21359 L379.21585 77.41354 L382.81595 75.613495 L386.41605 73.813446 L390.01614 72.0134 L393.61624 70.21335 L397.21634 68.4133 L400.81644 66.61325 L404.41653 64.8132 L408.01663 63.013153 L411.61667 61.213104 L415.21664 59.413055 L418.81662 57.613007 L422.4166 55.812958 L426.01657 54.01291 L426.01517 57.013885 L426.01517 125.013885 L423.76517 124.888855 L420.1652 123.088806 L416.56522 121.28876 L412.96524 119.48871 L409.36526 117.68866 L405.76517 115.88861 L402.16507 114.08856 L398.56497 112.28851 L394.96487 110.488464 L391.36478 108.688416 L387.76468 106.88837 L384.16458 105.08832 L380.56448 103.28827 L376.9644 101.48822 L373.3643 99.68817 L369.7642 97.88812 L366.1641 96.08807 L362.564 94.288025 L358.9639 92.487976 L355.3638 90.68793 L354.01517 90.013885 Z "/>
      </g>
      <g style="fill:none;stroke:#AB95FF;stroke-width:3.0;">
        <path d="M246.01363 90.01492 L318.01364 54.014923 L318.01364 126.01492 L246.01363 90.01492 "/>
      </g>
      <g style="fill:none;stroke:#95E8FF;stroke-width:3.0;">
        <path d="M246.01363 90.01492 L249.61372 88.214874 L253.21382 86.414825 L256.81393 84.61478 L260.41403 82.81473 L264.01413 81.01468 L267.61423 79.21463 L271.21432 77.41458 L274.81442 75.61453 L278.41452 73.81448 L282.01462 72.014435 L285.61472 70.214386 L289.2148 68.41434 L292.8149 66.61429 L296.415 64.81424 L300.0151 63.01419 L303.6152 61.21414 L307.2153 59.414093 L310.8154 57.614044 L314.4155 55.813995 L318.0156 54.013947 L318.01364 57.014923 L318.01364 125.01492 L315.76358 124.88989 L312.16348 123.08984 L308.5634 121.289795 L304.9633 119.489746 L301.3632 117.6897 L297.7631 115.88965 L294.163 114.0896 L290.5629 112.28955 L286.9628 110.4895 L283.3627 108.68945 L279.7626 106.889404 L276.1625 105.089355 L272.5624 103.28931 L268.9623 101.48926 L265.3622 99.68921 L261.76212 97.88916 L258.16202 96.08911 L254.5619 94.28906 L250.9618 92.48901 L247.36171 90.688965 L246.01363 90.01492 Z "/>
      </g>
      <g style="fill:none;stroke:#95FFAD;stroke-width:3.0;">
        <path d="M138.01094 90.01698 L210.01096 54.017 L210.01094 126.017 L138.01094 90.01698 "/>
      </g>
      <g style="fill:none;stroke:#AB95FF;stroke-width:3.0;">
        <path d="M138.01094 90.01698 L141.61104 88.216934 L145.21114 86.416885 L148.81123 84.61684 L152.41133 82.81679 L156.01143 81.01674 L159.61153 79.21669 L163.21164 77.41664 L166.81174 75.61659 L170.41183 73.81654 L174.01193 72.016495 L177.61203 70.216446 L181.21213 68.4164 L184.81223 66.61635 L188.41232 64.8163 L192.01242 63.01625 L195.61252 61.2162 L199.21262 59.416153 L202.81271 57.616104 L206.41281 55.816055 L210.01291 54.01602 L210.01096 57.017 L210.01094 125.017 L207.76088 124.89195 L204.16078 123.0919 L200.56068 121.291855 L196.96059 119.491806 L193.36049 117.69176 L189.76039 115.89171 L186.1603 114.09166 L182.5602 112.29161 L178.9601 110.49156 L175.36 108.69151 L171.7599 106.891464 L168.1598 105.091415 L164.55971 103.29137 L160.95961 101.49132 L157.35951 99.69127 L153.75941 97.89122 L150.15932 96.09117 L146.55922 94.29112 L142.95912 92.49107 L139.35902 90.691025 L138.01094 90.01698 Z "/>
      </g>
      <g style="fill:none;stroke:#95E8FF;stroke-width:3.0;">
        <path d="M30.011627 90.01582 L102.01163 54.015823 L102.01163 126.01582 L30.011627 90.01582 "/>
      </g>
      <g style="fill:none;stroke:#95FFAD;stroke-width:3.0;">
        <path d="M30.011627 90.01582 L33.611725 88.215775 L37.211823 86.415726 L40.81192 84.61568 L44.412018 82.81563 L48.012115 81.01558 L51.612213 79.21553 L55.21231 77.41548 L58.81241 75.61543 L62.412506 73.815384 L66.0126 72.015335 L69.6127 70.21529 L73.2128 68.41524 L76.8129 66.61519 L80.412994 64.81514 L84.01309 63.01509 L87.61319 61.215042 L91.21329 59.414993 L94.813385 57.614944 L98.41348 55.814896 L102.01358 54.014847 L102.01163 57.015823 L102.01163 125.01582 L99.761566 124.89079 L96.16147 123.090744 L92.56137 121.290695 L88.96127 119.49065 L85.361176 117.6906 L81.76108 115.89055 L78.16098 114.0905 L74.56088 112.29045 L70.960785 110.4904 L67.36069 108.69035 L63.76059 106.890305 L60.160492 105.090256 L56.560394 103.29021 L52.960297 101.49016 L49.3602 99.69011 L45.7601 97.89006 L42.160004 96.09001 L38.559906 94.28996 L34.95981 92.489914 L31.35971 90.689865 L30.011627 90.01582 Z "/>
      </g>
      <g style="fill:none;stroke:#AB95FF;stroke-width:3.0;">
        <path d="M-77.99094 90.017075 L-5.9909363 54.017075 L-5.9909363 126.017075 L-77.99094 90.017075 "/>
      </g>
      <g style="fill:none;stroke:#95E8FF;stroke-width:3.0;">
        <path d="M-77.99094 90.017075 L-74.39084 88.217026 L-70.79074 86.41698 L-67.19064 84.61693 L-63.590546 82.81688 L-59.990448 81.01683 L-56.39035 79.21678 L-52.790253 77.41673 L-49.190155 75.616684 L-45.590057 73.816635 L-41.98996 72.01659 L-38.389862 70.21654 L-34.789764 68.41649 L-31.189667 66.61644 L-27.58957 64.81639 L-23.989471 63.016342 L-20.389374 61.216293 L-16.789276 59.416245 L-13.189178 57.616196 L-9.589081 55.816147 L-5.988983 54.016098 L-5.9909363 57.017075 L-5.9909363 125.017075 L-8.240997 124.892044 L-11.841095 123.091995 L-15.441193 121.29195 L-19.04129 119.4919 L-22.641388 117.69185 L-26.241486 115.8918 L-29.841583 114.09175 L-33.44168 112.2917 L-37.04178 110.49165 L-40.641876 108.691605 L-44.241974 106.891556 L-47.84207 105.09151 L-51.44217 103.29146 L-55.042267 101.49141 L-58.642365 99.69136 L-62.242462 97.89131 L-65.84256 96.09126 L-69.44266 94.291214 L-73.042755 92.491165 L-76.64285 90.69112 L-77.99094 90.017075 Z "/>
      </g>
      <g style="fill:none;stroke:#95FFAD;stroke-width:3.0;">
        <path d="M-185.98627 90.01535 L-113.9863 54.015366 L-113.9863 126.015366 L-185.98627 90.01535 "/>
      </g>
      <g style="fill:none;stroke:#AB95FF;stroke-width:3.0;">
        <path d="M-185.98627 90.01535 L-182.38617 88.2153 L-178.78607 86.41525 L-175.18597 84.615204 L-171.58588 82.815155 L-167.98578 81.01511 L-164.38568 79.21506 L-160.78558 77.41501 L-157.18549 75.61496 L-153.58539 73.81491 L-149.98529 72.01486 L-146.3852 70.21481 L-142.7851 68.414764 L-139.185 66.61473 L-135.5849 64.81468 L-131.9848 63.014633 L-128.3847 61.214584 L-124.78464 59.414536 L-121.18454 57.614487 L-117.58444 55.814438 L-113.984344 54.01439 L-113.9863 57.015366 L-113.9863 125.015366 L-116.23636 124.890335 L-119.83646 123.09029 L-123.436554 121.29024 L-127.03665 119.49019 L-130.63678 117.69014 L-134.23688 115.89009 L-137.83698 114.09004 L-141.43707 112.28998 L-145.03717 110.48993 L-148.63727 108.68988 L-152.23737 106.88983 L-155.83746 105.08978 L-159.43756 103.289734 L-163.03766 101.489685 L-166.63776 99.68964 L-170.23785 97.88959 L-173.83795 96.08954 L-177.43805 94.28949 L-181.03815 92.48944 L-184.63824 90.68939 L-185.98627 90.01535 Z "/>
      </g>
      <g style="fill:none;stroke:#95E8FF;stroke-width:3.0;">
        <path d="M665.994 197.98413 L593.994 233.9841 L593.994 161.9841 L665.994 197.98413 "/>
      </g>
      <g style="fill:none;stroke:#95FFAD;stroke-width:3.0;">
        <path d="M593.994 233.9851 L593.994 230.9841 L593.994 162.9841 L596.244 163.10913 L599.844 164.90918 L603.444 166.70923 L607.044 168.50928 L610.64404 170.30933 L614.244 172.10938 L617.844 173.90942 L621.44403 175.70947 L625.04407 177.50952 L628.64404 179.30957 L632.244 181.10962 L635.84406 182.90967 L639.4441 184.70972 L643.04407 186.50977 L646.6441 188.30981 L650.2441 190.10986 L653.8441 191.90991 L657.4441 193.70996 L661.04407 195.51001 L664.64404 197.31006 L665.994 197.98413 L662.39404 199.78418 L658.79407 201.58423 L655.1941 203.38428 L651.59406 205.18433 L647.994 206.98438 L644.39404 208.78442 L640.79407 210.58447 L637.19403 212.38452 L633.594 214.18457 L629.994 215.98462 L626.394 217.78467 L622.794 219.58472 L619.194 221.38477 L615.594 223.18481 L611.99396 224.98486 L608.394 226.78491 L604.79395 228.58496 L601.194 230.38501 L597.594 232.18506 L593.994 233.9851 Z "/>
      </g>
      <g style="fill:none;stroke:#AB95FF;stroke-width:3.0;">
        <path d="M557.994 197.98413 L485.99402 233.9841 L485.99405 161.9841 L557.994 197.98413 "/>
      </g>
      <g style="fill:none;stroke:#95E8FF;stroke-width:3.0;">
        <path d="M485.99402 230.9841 L485.99402 162.9841 L488.24405 163.10913 L491.84402 164.90918 L495.44397 166.70923 L499.04395 168.50928 L502.64392 170.30933 L506.2439 172.10938 L509.84387 173.90942 L513.44385 175.70947 L517.0438 177.50952 L520.6438 179.30957 L524.2438 181.10962 L527.84375 182.90967 L531.4437 184.70972 L535.0437 186.50977 L538.6437 188.30981 L542.24365 190.10986 L545.8436 191.90991 L549.4436 193.70996 L553.0436 195.51001 L556.64355 197.31006 L557.994 197.98413 L554.39404 199.78418 L550.79407 201.58423 L547.1941 203.38428 L543.5941 205.18433 L539.99414 206.98438 L536.39417 208.78442 L532.7942 210.58447 L529.1942 212.38452 L525.59424 214.18457 L521.99426 215.98462 L518.3943 217.78467 L514.7943 219.58472 L511.19434 221.38477 L507.59436 223.18481 L503.9944 224.98486 L500.3944 226.78491 L496.79443 228.58496 L493.19446 230.38501 L489.59448 232.18506 L485.9945 233.9851 L485.99402 230.9841 Z "/>
      </g>
      <g style="fill:none;stroke:#95FFAD;stroke-width:3.0;">
        <path d="M449.99402 197.98413 L377.99402 233.9841 L377.99405 161.9841 L449.99402 197.98413 "/>
      </g>
      <g style="fill:none;stroke:#AB95FF;stroke-width:3.0;">
        <path d="M377.99344 233.9851 L377.99402 230.9841 L377.99402 162.9841 L380.2441 163.10913 L383.8442 164.90918 L387.4443 166.70923 L391.0444 168.50928 L394.6445 170.30933 L398.2446 172.10938 L401.8447 173.90942 L405.4448 175.70947 L409.0449 177.50952 L412.6449 179.30957 L416.24487 181.10962 L419.84485 182.90967 L423.44482 184.70972 L427.0448 186.50977 L430.64478 188.30981 L434.24475 190.10986 L437.84473 191.90991 L441.4447 193.70996 L445.04468 195.51001 L448.64465 197.31006 L449.99402 197.98413 L446.39404 199.78418 L442.79407 201.58423 L439.1941 203.38428 L435.59412 205.18433 L431.99414 206.98438 L428.39417 208.78442 L424.7942 210.58447 L421.1942 212.38452 L417.59424 214.18457 L413.99426 215.98462 L410.3943 217.78467 L406.79422 219.58472 L403.19412 221.38477 L399.59402 223.18481 L395.99393 224.98486 L392.39383 226.78491 L388.79373 228.58496 L385.19363 230.38501 L381.59354 232.18506 L377.99344 233.9851 Z "/>
      </g>
      <g style="fill:none;stroke:#95E8FF;stroke-width:3.0;">
        <path d="M341.99405 197.9841 L269.99402 233.98407 L269.99405 161.98407 L341.99405 197.9841 "/>
      </g>
      <g style="fill:none;stroke:#95FFAD;stroke-width:3.0;">
        <path d="M269.99207 233.98508 L269.99402 230.98407 L269.99402 162.98407 L272.2441 163.1091 L275.8442 164.90915 L279.44427 166.7092 L283.04437 168.50925 L286.64447 170.3093 L290.24457 172.10934 L293.84467 173.9094 L297.44476 175.70944 L301.04486 177.50949 L304.64496 179.30954 L308.24506 181.10959 L311.84515 182.90964 L315.44525 184.70969 L319.04535 186.50974 L322.64548 188.30978 L326.24557 190.10983 L329.84567 191.90988 L333.44577 193.70993 L337.04587 195.50998 L340.64597 197.31003 L341.99405 197.9841 L338.39395 199.78415 L334.79385 201.5842 L331.19376 203.38425 L327.59366 205.1843 L323.99356 206.98434 L320.39346 208.7844 L316.79333 210.58444 L313.19324 212.38449 L309.59314 214.18454 L305.99304 215.98459 L302.39294 217.78464 L298.79285 219.58469 L295.19275 221.38474 L291.59265 223.18478 L287.99255 224.98483 L284.39246 226.78488 L280.79236 228.58493 L277.19226 230.38498 L273.59216 232.18503 L269.99207 233.98508 Z "/>
      </g>
      <g style="fill:none;stroke:#AB95FF;stroke-width:3.0;">
        <path d="M233.99403 197.98413 L161.994 233.9841 L161.99403 161.9841 L233.99403 197.98413 "/>
      </g>
      <g style="fill:none;stroke:#95E8FF;stroke-width:3.0;">
        <path d="M161.99208 233.9851 L161.994 230.9841 L161.994 162.9841 L164.2441 163.10913 L167.8442 164.90918 L171.44429 166.70923 L175.04439 168.50928 L178.64449 170.30933 L182.24458 172.10938 L185.84468 173.90942 L189.44478 175.70947 L193.04488 177.50952 L196.64497 179.30957 L200.24507 181.10962 L203.84517 182.90967 L207.44527 184.70972 L211.04536 186.50977 L214.64546 188.30981 L218.24556 190.10986 L221.84566 191.90991 L225.44576 193.70996 L229.04585 195.51001 L232.64595 197.31006 L233.99403 197.98413 L230.39394 199.78418 L226.79384 201.58423 L223.19374 203.38428 L219.59364 205.18433 L215.99355 206.98438 L212.39345 208.78442 L208.79335 210.58447 L205.19325 212.38452 L201.59315 214.18457 L197.99306 215.98462 L194.39296 217.78467 L190.79286 219.58472 L187.19276 221.38477 L183.59267 223.18481 L179.99257 224.98486 L176.39247 226.78491 L172.79237 228.58496 L169.19228 230.38501 L165.59218 232.18506 L161.99208 233.9851 Z "/>
      </g>
      <g style="fill:none;stroke:#95FFAD;stroke-width:3.0;">
        <path d="M125.99405 197.98413 L53.99405 233.9841 L53.99411 161.9841 L125.99405 197.98413 "/>
      </g>
      <g style="fill:none;stroke:#AB95FF;stroke-width:3.0;">
        <path d="M53.992096 233.9851 L53.99405 230.9841 L53.99405 162.9841 L56.24417 163.10913 L59.84427 164.90918 L63.444366 166.70923 L67.044464 168.50928 L70.64456 170.30933 L74.24466 172.10938 L77.84476 173.90942 L81.444855 175.70947 L85.04495 177.50952 L88.64505 179.30957 L92.24515 181.10962 L95.845245 182.90967 L99.44534 184.70972 L103.04544 186.50977 L106.64554 188.30981 L110.245636 190.10986 L113.84573 191.90991 L117.44583 193.70996 L121.04593 195.51001 L124.64603 197.31006 L125.99405 197.98413 L122.39395 199.78418 L118.79385 201.58423 L115.193756 203.38428 L111.59366 205.18433 L107.99356 206.98438 L104.39346 208.78442 L100.793365 210.58447 L97.19327 212.38452 L93.59317 214.18457 L89.99307 215.98462 L86.392975 217.78467 L82.79288 219.58472 L79.19278 221.38477 L75.59268 223.18481 L71.992584 224.98486 L68.39249 226.78491 L64.79239 228.58496 L61.19229 230.38501 L57.592194 232.18506 L53.992096 233.9851 Z "/>
      </g>
      <g style="fill:none;stroke:#95E8FF;stroke-width:3.0;">
        <path d="M17.99405 197.9841 L-54.00595 233.98407 L-54.00589 161.98407 L17.99405 197.9841 "/>
      </g>
      <g style="fill:none;stroke:#95FFAD;stroke-width:3.0;">
        <path d="M-54.007904 233.98508 L-54.00595 230.98407 L-54.00595 162.98407 L-51.75583 163.1091 L-48.15573 164.90915 L-44.555634 166.7092 L-40.955536 168.50925 L-37.35544 170.3093 L-33.75534 172.10934 L-30.155243 173.9094 L-26.555145 175.70944 L-22.955048 177.50949 L-19.35495 179.30954 L-15.754852 181.10959 L-12.154755 182.90964 L-8.554657 184.70969 L-4.9545593 186.50974 L-1.3544617 188.30978 L2.245636 190.10983 L5.8457336 191.90988 L9.445831 193.70993 L13.045929 195.50998 L16.646027 197.31003 L17.99405 197.9841 L14.393951 199.78415 L10.793854 201.5842 L7.193756 203.38425 L3.5936584 205.1843 L-0.006439209 206.98434 L-3.6065369 208.7844 L-7.2066345 210.58444 L-10.806732 212.38449 L-14.40683 214.18454 L-18.006927 215.98459 L-21.607025 217.78464 L-25.207123 219.58469 L-28.80722 221.38474 L-32.40732 223.18478 L-36.007416 224.98483 L-39.607513 226.78488 L-43.20761 228.58493 L-46.80771 230.38498 L-50.407806 232.18503 L-54.007904 233.98508 Z "/>
      </g>
      <g style="fill:none;stroke:#AB95FF;stroke-width:3.0;">
        <path d="M-90.00595 197.98407 L-162.00592 233.98407 L-162.00592 161.98407 L-90.00595 197.98407 "/>
      </g>
      <g style="fill:none;stroke:#95E8FF;stroke-width:3.0;">
        <path d="M-162.00787 233.98505 L-162.00592 230.98407 L-162.00592 162.98407 L-159.7558 163.1091 L-156.1557 164.90915 L-152.5556 166.7092 L-148.9555 168.50925 L-145.35541 170.3093 L-141.75531 172.10934 L-138.15521 173.9094 L-134.55511 175.70944 L-130.95502 177.50949 L-127.35495 179.30954 L-123.75485 181.10959 L-120.154755 182.90964 L-116.55466 184.70969 L-112.95456 186.50974 L-109.35446 188.30978 L-105.754364 190.10983 L-102.15427 191.90988 L-98.55417 193.70993 L-94.95407 195.50998 L-91.35397 197.31003 L-90.00595 197.98407 L-93.60605 199.78412 L-97.20615 201.58417 L-100.806244 203.38422 L-104.40634 205.18427 L-108.00644 206.98431 L-111.60654 208.78436 L-115.206635 210.58441 L-118.80673 212.38446 L-122.40683 214.18451 L-126.00693 215.98456 L-129.607 217.7846 L-133.20709 219.58466 L-136.80719 221.3847 L-140.40729 223.18475 L-144.00739 224.9848 L-147.60748 226.78485 L-151.20758 228.5849 L-154.80768 230.38495 L-158.40778 232.185 L-162.00787 233.98505 Z "/>
      </g>
      <g style="fill:none;stroke:#95FFAD;stroke-width:3.0;">
        <path d="M570.0167 306.00974 L642.01666 270.00974 L642.0167 342.00974 L570.0167 306.00974 "/>
      </g>
      <g style="fill:none;stroke:#AB95FF;stroke-width:3.0;">
        <path d="M570.0167 306.00974 L573.6167 304.20993 L577.2167 302.41013 L580.81665 300.61032 L584.4166 298.81052 L588.0166 297.0107 L591.6166 295.2109 L595.21655 293.4111 L598.8165 291.6113 L602.4165 289.8115 L606.0165 288.0117 L609.61646 286.21188 L613.2165 284.41208 L616.8165 282.61227 L620.4165 280.81247 L624.0165 279.01266 L627.6165 277.21286 L631.21655 275.41306 L634.8165 273.61325 L638.4165 271.81345 L642.01654 270.01364 L642.01666 273.00974 L642.01666 341.00974 L639.7667 340.88486 L636.1667 339.08505 L632.56665 337.28525 L628.9667 335.48544 L625.3667 333.68564 L621.76666 331.88583 L618.1666 330.08603 L614.56665 328.28622 L610.9667 326.48642 L607.36664 324.6866 L603.7666 322.8868 L600.1666 321.087 L596.56665 319.2872 L592.9667 317.4874 L589.3667 315.6876 L585.7667 313.8878 L582.16675 312.08798 L578.5668 310.28818 L574.9668 308.48837 L571.3668 306.68857 L570.0167 306.00974 Z "/>
      </g>
      <g style="fill:none;stroke:#95E8FF;stroke-width:3.0;">
        <path d="M462.01703 306.00974 L534.01697 270.00967 L534.017 342.00967 L462.01703 306.00974 "/>
      </g>
      <g style="fill:none;stroke:#95FFAD;stroke-width:3.0;">
        <path d="M462.01703 306.00974 L465.617 304.20993 L469.21698 302.41013 L472.81696 300.61032 L476.41693 298.81052 L480.0169 297.0107 L483.61688 295.2109 L487.21686 293.4111 L490.81683 291.6113 L494.4168 289.8115 L498.01678 288.0117 L501.61676 286.21188 L505.21674 284.41208 L508.8167 282.61227 L512.4167 280.81247 L516.01666 279.01266 L519.61664 277.21286 L523.2166 275.41306 L526.8166 273.61325 L530.41656 271.81345 L534.01654 270.01364 L534.01697 273.00967 L534.01697 341.00967 L531.767 340.8848 L528.16705 339.085 L524.5671 337.2852 L520.9671 335.48538 L517.3671 333.68558 L513.76715 331.88577 L510.16718 330.08597 L506.5672 328.28616 L502.96722 326.48636 L499.36725 324.68655 L495.76727 322.88675 L492.1673 321.08694 L488.56732 319.28714 L484.96735 317.48734 L481.36737 315.68753 L477.7674 313.88773 L474.16742 312.08792 L470.56744 310.28812 L466.96747 308.4883 L463.3675 306.6885 L462.01703 306.00974 Z "/>
      </g>
      <g style="fill:none;stroke:#AB95FF;stroke-width:3.0;">
        <path d="M354.01865 306.0082 L426.01862 270.0082 L426.01865 342.0082 L354.01865 306.0082 "/>
      </g>
      <g style="fill:none;stroke:#95E8FF;stroke-width:3.0;">
        <path d="M354.01865 306.0082 L357.61874 304.2084 L361.21884 302.4086 L364.81894 300.6088 L368.41904 298.809 L372.01913 297.0092 L375.61923 295.20938 L379.21933 293.40958 L382.81943 291.60977 L386.41953 289.80997 L390.01962 288.01016 L393.61972 286.21036 L397.21982 284.41055 L400.81992 282.61075 L404.42 280.81094 L408.0201 279.01114 L411.62015 277.21133 L415.22012 275.41153 L418.82013 273.61172 L422.4201 271.81192 L426.02008 270.01212 L426.01862 273.0082 L426.01862 341.0082 L423.76868 340.88333 L420.1687 339.08353 L416.56873 337.28372 L412.96875 335.48392 L409.36874 333.6841 L405.76865 331.8843 L402.16855 330.0845 L398.56845 328.2847 L394.96835 326.4849 L391.36826 324.6851 L387.76816 322.88528 L384.16806 321.08548 L380.56796 319.28568 L376.96786 317.48587 L373.36777 315.68607 L369.76767 313.88626 L366.16757 312.08646 L362.56747 310.28665 L358.96738 308.48685 L355.36728 306.68704 L354.01865 306.0082 Z "/>
      </g>
      <g style="fill:none;stroke:#95FFAD;stroke-width:3.0;">
        <path d="M246.01878 306.0087 L318.01874 270.00864 L318.01877 342.00864 L246.01878 306.0087 "/>
      </g>
      <g style="fill:none;stroke:#AB95FF;stroke-width:3.0;">
        <path d="M246.01878 306.0087 L249.61888 304.2089 L253.21898 302.4091 L256.8191 300.60928 L260.4192 298.80948 L264.0193 297.00967 L267.6194 295.20987 L271.21948 293.41006 L274.81958 291.61026 L278.41968 289.81046 L282.01978 288.01065 L285.61987 286.21085 L289.21997 284.41104 L292.82007 282.61124 L296.42017 280.81143 L300.02026 279.01163 L303.62036 277.21182 L307.22046 275.41202 L310.82056 273.6122 L314.42065 271.8124 L318.02075 270.0126 L318.01874 273.00864 L318.01874 341.00864 L315.7687 340.88376 L312.16864 339.08395 L308.56854 337.28415 L304.96844 335.48434 L301.36835 333.68454 L297.76825 331.88474 L294.16815 330.08493 L290.56805 328.28513 L286.96796 326.48532 L283.36786 324.68552 L279.76776 322.8857 L276.16766 321.0859 L272.56757 319.2861 L268.96747 317.4863 L265.36737 315.6865 L261.76727 313.8867 L258.16718 312.08688 L254.56706 310.28708 L250.96696 308.48727 L247.36687 306.68747 L246.01878 306.0087 Z "/>
      </g>
      <g style="fill:none;stroke:#95E8FF;stroke-width:3.0;">
        <path d="M138.02333 306.0035 L210.02327 270.0035 L210.0233 342.0035 L138.02333 306.0035 "/>
      </g>
      <g style="fill:none;stroke:#95FFAD;stroke-width:3.0;">
        <path d="M138.02333 306.0035 L141.62343 304.2037 L145.22353 302.4039 L148.82362 300.6041 L152.42372 298.8043 L156.02382 297.0045 L159.62392 295.20468 L163.22401 293.40488 L166.82411 291.60507 L170.42421 289.80527 L174.0243 288.00546 L177.6244 286.20566 L181.2245 284.40585 L184.8246 282.60605 L188.4247 280.80624 L192.0248 279.00644 L195.6249 277.20663 L199.22499 275.40683 L202.82509 273.60703 L206.42519 271.80722 L210.02528 270.00742 L210.02327 273.0035 L210.02327 341.0035 L207.77324 340.87863 L204.17314 339.07883 L200.57304 337.27902 L196.97295 335.47922 L193.37285 333.6794 L189.77275 331.8796 L186.17265 330.0798 L182.57256 328.28 L178.97246 326.4802 L175.37236 324.6804 L171.77226 322.88058 L168.17216 321.08078 L164.57207 319.28098 L160.97197 317.48117 L157.37187 315.68137 L153.7718 313.88156 L150.1717 312.08176 L146.57161 310.28195 L142.97151 308.48215 L139.37141 306.68234 L138.02333 306.0035 Z "/>
      </g>
      <g style="fill:none;stroke:#AB95FF;stroke-width:3.0;">
        <path d="M30.01654 306.00885 L102.01654 270.00882 L102.0166 342.00882 L30.01654 306.00885 "/>
      </g>
      <g style="fill:none;stroke:#95E8FF;stroke-width:3.0;">
        <path d="M30.01654 306.00885 L33.61664 304.20905 L37.216736 302.40927 L40.816833 300.60947 L44.41693 298.80966 L48.01703 297.00986 L51.617126 295.21005 L55.217224 293.41025 L58.81732 291.61044 L62.41742 289.81064 L66.01752 288.01083 L69.617615 286.21103 L73.21771 284.41122 L76.81781 282.61142 L80.41791 280.8116 L84.018005 279.0118 L87.6181 277.212 L91.2182 275.4122 L94.8183 273.6124 L98.418396 271.8126 L102.01849 270.0128 L102.01654 273.00882 L102.01654 341.00882 L99.76654 340.88394 L96.16644 339.08414 L92.566345 337.28433 L88.96625 335.48453 L85.36615 333.68472 L81.76605 331.88492 L78.165955 330.0851 L74.56586 328.2853 L70.96576 326.4855 L67.36566 324.6857 L63.765564 322.8859 L60.165466 321.0861 L56.56537 319.2863 L52.96527 317.48648 L49.365173 315.68668 L45.765076 313.88687 L42.164978 312.08707 L38.56488 310.28726 L34.964783 308.48746 L31.364685 306.68762 L30.01654 306.00885 Z "/>
      </g>
      <g style="fill:none;stroke:#95FFAD;stroke-width:3.0;">
        <path d="M-77.961975 305.99487 L-5.961975 269.99487 L-5.961914 341.99487 L-77.961975 305.99487 "/>
      </g>
      <g style="fill:none;stroke:#AB95FF;stroke-width:3.0;">
        <path d="M-77.961975 305.99487 L-74.36188 304.19507 L-70.76178 302.39526 L-67.16168 300.59546 L-63.561584 298.79565 L-59.961487 296.99585 L-56.36139 295.19604 L-52.76129 293.39624 L-49.161194 291.59644 L-45.561096 289.79663 L-41.961 287.99683 L-38.3609 286.19702 L-34.760803 284.39722 L-31.160706 282.5974 L-27.560608 280.7976 L-23.96051 278.9978 L-20.360413 277.198 L-16.760315 275.3982 L-13.160217 273.5984 L-9.56012 271.79858 L-5.960022 269.99878 L-5.961975 272.99487 L-5.961975 340.99487 L-8.211975 340.87 L-11.812073 339.0702 L-15.41217 337.2704 L-19.012268 335.47058 L-22.612366 333.67078 L-26.212463 331.87097 L-29.812561 330.07117 L-33.41266 328.27136 L-37.012756 326.47156 L-40.612854 324.67175 L-44.21295 322.87195 L-47.81305 321.07214 L-51.413147 319.27234 L-55.013245 317.47253 L-58.613342 315.67273 L-62.21344 313.87292 L-65.81354 312.07312 L-69.413635 310.27332 L-73.01373 308.4735 L-76.61383 306.6737 L-77.961975 305.99487 Z "/>
      </g>
      <g style="fill:none;stroke:#95E8FF;stroke-width:3.0;">
        <path d="M-185.99396 306.016 L-113.99396 270.01593 L-113.9939 342.01593 L-185.99396 306.016 "/>
      </g>
      <g style="fill:none;stroke:#95FFAD;stroke-width:3.0;">
        <path d="M-185.99396 306.016 L-182.39386 304.2162 L-178.79376 302.41638 L-175.19366 300.61658 L-171.59357 298.81677 L-167.99347 297.01697 L-164.39337 295.21716 L-160.79327 293.41736 L-157.19318 291.61755 L-153.59308 289.81775 L-149.99298 288.01794 L-146.39288 286.21814 L-142.79279 284.41833 L-139.19269 282.61853 L-135.59259 280.81873 L-131.9925 279.01892 L-128.3924 277.21912 L-124.7923 275.4193 L-121.1922 273.6195 L-117.5921 271.8197 L-113.992004 270.0199 L-113.99396 273.01593 L-113.99396 341.01593 L-116.24396 340.89105 L-119.844055 339.09125 L-123.44415 337.29144 L-127.04425 335.49164 L-130.64435 333.69183 L-134.24445 331.89203 L-137.84454 330.09222 L-141.44464 328.29242 L-145.04474 326.4926 L-148.64484 324.6928 L-152.24493 322.893 L-155.84503 321.0932 L-159.44513 319.2934 L-163.04523 317.4936 L-166.64532 315.6938 L-170.24542 313.89398 L-173.84552 312.09418 L-177.44562 310.29437 L-181.04572 308.49457 L-184.64581 306.69476 L-185.99396 306.016 Z "/>
      </g>
      <g style="fill:none;stroke:#AB95FF;stroke-width:3.0;">
        <path d="M665.994 413.9841 L593.994 449.9841 L593.994 377.9841 L665.994 413.9841 "/>
      </g>
      <g style="fill:none;stroke:#95E8FF;stroke-width:3.0;">
        <path d="M593.994 449.9802 L593.994 446.9841 L593.994 378.9841 L596.244 379.10898 L599.844 380.90878 L603.444 382.7086 L607.044 384.5084 L610.644 386.3082 L614.244 388.108 L617.844 389.9078 L621.44403 391.7076 L625.044 393.50742 L628.64404 395.30722 L632.244 397.10703 L635.84406 398.90683 L639.44403 400.70663 L643.04407 402.50644 L646.64404 404.30624 L650.244 406.10605 L653.84406 407.90585 L657.44403 409.70566 L661.04407 411.50546 L664.64404 413.30527 L665.994 413.9841 L662.39404 415.7839 L658.79407 417.5837 L655.19403 419.3835 L651.594 421.18332 L647.994 422.98312 L644.39404 424.78293 L640.794 426.58273 L637.194 428.38254 L633.594 430.18234 L629.994 431.98215 L626.394 433.78195 L622.79395 435.58176 L619.194 437.38156 L615.594 439.18137 L611.99396 440.98117 L608.3939 442.78098 L604.79395 444.58078 L601.194 446.38058 L597.594 448.1804 L593.994 449.9802 Z "/>
      </g>
      <g style="fill:none;stroke:#95FFAD;stroke-width:3.0;">
        <path d="M557.994 413.9841 L485.99402 449.9841 L485.99402 377.9841 L557.994 413.9841 "/>
      </g>
      <g style="fill:none;stroke:#AB95FF;stroke-width:3.0;">
        <path d="M485.99402 446.9841 L485.99402 378.9841 L488.24402 379.10898 L491.844 380.90878 L495.44397 382.7086 L499.04395 384.5084 L502.64392 386.3082 L506.2439 388.108 L509.84387 389.9078 L513.44385 391.7076 L517.0438 393.50742 L520.6438 395.30722 L524.2438 397.10703 L527.84375 398.90683 L531.4437 400.70663 L535.0437 402.50644 L538.6437 404.30624 L542.24365 406.10605 L545.8436 407.90585 L549.4436 409.70566 L553.0436 411.50546 L556.64355 413.30527 L557.994 413.9841 L554.39404 415.7839 L550.79407 417.5837 L547.1941 419.3835 L543.5941 421.18332 L539.99414 422.98312 L536.39417 424.78293 L532.7942 426.58273 L529.1942 428.38254 L525.59424 430.18234 L521.99426 431.98215 L518.3943 433.78195 L514.7943 435.58176 L511.19434 437.38156 L507.59436 439.18137 L503.9944 440.98117 L500.3944 442.78098 L496.79443 444.58078 L493.19446 446.38058 L489.59448 448.1804 L485.9945 449.9802 L485.99402 446.9841 Z "/>
      </g>
      <g style="fill:none;stroke:#95E8FF;stroke-width:3.0;">
        <path d="M449.99402 413.9841 L377.99402 449.9841 L377.99402 377.9841 L449.99402 413.9841 "/>
      </g>
      <g style="fill:none;stroke:#95FFAD;stroke-width:3.0;">
        <path d="M377.9934 449.9802 L377.99402 446.9841 L377.99402 378.9841 L380.24408 379.10898 L383.84418 380.90878 L387.44427 382.7086 L391.04437 384.5084 L394.64447 386.3082 L398.24457 388.108 L401.84467 389.9078 L405.44476 391.7076 L409.04486 393.50742 L412.64487 395.30722 L416.24484 397.10703 L419.84482 398.90683 L423.4448 400.70663 L427.04477 402.50644 L430.64474 404.30624 L434.24472 406.10605 L437.8447 407.90585 L441.44467 409.70566 L445.04465 411.50546 L448.64462 413.30527 L449.99402 413.9841 L446.39404 415.7839 L442.79407 417.5837 L439.1941 419.3835 L435.59412 421.18332 L431.99414 422.98312 L428.39417 424.78293 L424.7942 426.58273 L421.1942 428.38254 L417.59424 430.18234 L413.99426 431.98215 L410.3943 433.78195 L406.7942 435.58176 L403.1941 437.38156 L399.594 439.18137 L395.9939 440.98117 L392.3938 442.78098 L388.7937 444.58078 L385.1936 446.38058 L381.5935 448.1804 L377.9934 449.9802 Z "/>
      </g>
      <g style="fill:none;stroke:#AB95FF;stroke-width:3.0;">
        <path d="M341.99402 413.9841 L269.99402 449.9841 L269.99402 377.9841 L341.99402 413.9841 "/>
      </g>
      <g style="fill:none;stroke:#95E8FF;stroke-width:3.0;">
        <path d="M269.99207 449.9802 L269.99402 446.9841 L269.99402 378.9841 L272.24408 379.10898 L275.84418 380.90878 L279.44427 382.7086 L283.04437 384.5084 L286.64447 386.3082 L290.24457 388.108 L293.84467 389.9078 L297.44476 391.7076 L301.04486 393.50742 L304.64496 395.30722 L308.24506 397.10703 L311.84515 398.90683 L315.44525 400.70663 L319.04535 402.50644 L322.64545 404.30624 L326.24554 406.10605 L329.84564 407.90585 L333.44574 409.70566 L337.04584 411.50546 L340.64594 413.30527 L341.99402 413.9841 L338.39392 415.7839 L334.79382 417.5837 L331.19373 419.3835 L327.59363 421.18332 L323.99353 422.98312 L320.39343 424.78293 L316.79333 426.58273 L313.19324 428.38254 L309.59314 430.18234 L305.99304 431.98215 L302.39294 433.78195 L298.79285 435.58176 L295.19275 437.38156 L291.59265 439.18137 L287.99255 440.98117 L284.39246 442.78098 L280.79236 444.58078 L277.19226 446.38058 L273.59216 448.1804 L269.99207 449.9802 Z "/>
      </g>
      <g style="fill:none;stroke:#95FFAD;stroke-width:3.0;">
        <path d="M233.99403 413.9841 L161.99402 449.9841 L161.99403 377.9841 L233.99403 413.9841 "/>
      </g>
      <g style="fill:none;stroke:#AB95FF;stroke-width:3.0;">
        <path d="M161.99207 449.9802 L161.99402 446.9841 L161.99403 378.9841 L164.2441 379.10898 L167.8442 380.90878 L171.44429 382.7086 L175.04439 384.5084 L178.64449 386.3082 L182.24458 388.108 L185.84468 389.9078 L189.44478 391.7076 L193.04488 393.50742 L196.64497 395.30722 L200.24507 397.10703 L203.84517 398.90683 L207.44527 400.70663 L211.04536 402.50644 L214.64546 404.30624 L218.24556 406.10605 L221.84566 407.90585 L225.44576 409.70566 L229.04585 411.50546 L232.64595 413.30527 L233.99403 413.9841 L230.39394 415.7839 L226.79384 417.5837 L223.19374 419.3835 L219.59364 421.18332 L215.99355 422.98312 L212.39345 424.78293 L208.79335 426.58273 L205.19324 428.38254 L201.59314 430.18234 L197.99304 431.98215 L194.39294 433.78195 L190.79285 435.58176 L187.19275 437.38156 L183.59265 439.18137 L179.99255 440.98117 L176.39246 442.78098 L172.79236 444.58078 L169.19226 446.38058 L165.59216 448.1804 L161.99207 449.9802 Z "/>
      </g>
      <g style="fill:none;stroke:#95E8FF;stroke-width:3.0;">
        <path d="M125.99402 413.9841 L53.99402 449.9841 L53.99402 377.9841 L125.99402 413.9841 "/>
      </g>
      <g style="fill:none;stroke:#95FFAD;stroke-width:3.0;">
        <path d="M53.992065 449.9802 L53.99402 446.9841 L53.99402 378.9841 L56.24408 379.10898 L59.844177 380.90878 L63.444275 382.7086 L67.04437 384.5084 L70.64447 386.3082 L74.24457 388.108 L77.844666 389.9078 L81.44476 391.7076 L85.04486 393.50742 L88.64496 395.30722 L92.245056 397.10703 L95.84515 398.90683 L99.44525 400.70663 L103.04535 402.50644 L106.64545 404.30624 L110.245544 406.10605 L113.84564 407.90585 L117.44574 409.70566 L121.04584 411.50546 L124.645935 413.30527 L125.99402 413.9841 L122.39392 415.7839 L118.79382 417.5837 L115.193726 419.3835 L111.59363 421.18332 L107.99353 422.98312 L104.39343 424.78293 L100.793335 426.58273 L97.19324 428.38254 L93.59314 430.18234 L89.99304 431.98215 L86.392944 433.78195 L82.79285 435.58176 L79.19275 437.38156 L75.59265 439.18137 L71.99255 440.98117 L68.392456 442.78098 L64.79236 444.58078 L61.19226 446.38058 L57.592163 448.1804 L53.992065 449.9802 Z "/>
      </g>
      <g style="fill:none;stroke:#AB95FF;stroke-width:3.0;">
        <path d="M17.994019 413.98407 L-54.00598 449.9841 L-54.00598 377.98407 L17.994019 413.98407 "/>
      </g>
      <g style="fill:none;stroke:#95E8FF;stroke-width:3.0;">
        <path d="M-54.007935 449.9802 L-54.00598 446.9841 L-54.00598 378.98407 L-51.75592 379.10895 L-48.155823 380.90875 L-44.555725 382.70856 L-40.955627 384.50836 L-37.35553 386.30817 L-33.755432 388.10797 L-30.155334 389.90778 L-26.555237 391.70758 L-22.95514 393.5074 L-19.355042 395.3072 L-15.754944 397.107 L-12.154846 398.9068 L-8.554749 400.7066 L-4.954651 402.5064 L-1.3545532 404.3062 L2.2455444 406.10602 L5.845642 407.90582 L9.44574 409.70563 L13.045837 411.50543 L16.645935 413.30524 L17.994019 413.98407 L14.393921 415.78387 L10.793823 417.5837 L7.1937256 419.3835 L3.593628 421.18332 L-0.0064697266 422.98312 L-3.6065674 424.78293 L-7.206665 426.58273 L-10.806763 428.38254 L-14.40686 430.18234 L-18.006958 431.98215 L-21.607056 433.78195 L-25.207153 435.58176 L-28.807251 437.38156 L-32.40735 439.18137 L-36.007446 440.98117 L-39.607544 442.78098 L-43.20764 444.58078 L-46.80774 446.38058 L-50.407837 448.1804 L-54.007935 449.9802 Z "/>
      </g>
      <g style="fill:none;stroke:#95FFAD;stroke-width:3.0;">
        <path d="M-90.00598 413.98407 L-162.00592 449.9841 L-162.00592 377.98407 L-90.00598 413.98407 "/>
      </g>
      <g style="fill:none;stroke:#AB95FF;stroke-width:3.0;">
        <path d="M-162.00787 449.9802 L-162.00592 446.9841 L-162.00592 378.98407 L-159.75592 379.10895 L-156.15582 380.90875 L-152.55573 382.70856 L-148.95563 384.50836 L-145.35553 386.30817 L-141.75543 388.10797 L-138.15533 389.90778 L-134.55524 391.70758 L-130.95514 393.5074 L-127.35504 395.3072 L-123.754944 397.107 L-120.15485 398.9068 L-116.55475 400.7066 L-112.95465 402.5064 L-109.35455 404.3062 L-105.754456 406.10602 L-102.15436 407.90582 L-98.55426 409.70563 L-94.95416 411.50543 L-91.354065 413.30524 L-90.00598 413.98407 L-93.60608 415.78387 L-97.20618 417.5837 L-100.806274 419.3835 L-104.40637 421.18332 L-108.00647 422.98312 L-111.60657 424.78293 L-115.206665 426.58273 L-118.80676 428.38254 L-122.40686 430.18234 L-126.00696 431.98215 L-129.607 433.78195 L-133.20709 435.58176 L-136.80719 437.38156 L-140.40729 439.18137 L-144.00739 440.98117 L-147.60748 442.78098 L-151.20758 444.58078 L-154.80768 446.38058 L-158.40778 448.1804 L-162.00787 449.9802 Z "/>
      </g>
      <g style="fill:none;stroke:#95E8FF;stroke-width:3.0;">
        <path d="M570.01666 522.0128 L642.0166 486.01273 L642.0167 558.0127 L570.01666 522.0128 "/>
      </g>
      <g style="fill:none;stroke:#95FFAD;stroke-width:3.0;">
        <path d="M570.01666 522.0128 L573.61664 520.213 L577.2166 518.4132 L580.8166 516.6134 L584.41656 514.8136 L588.01654 513.0138 L591.6165 511.21396 L595.2165 509.41415 L598.81647 507.61435 L602.41644 505.81454 L606.0165 504.01474 L609.61646 502.21494 L613.2165 500.41513 L616.81647 498.61533 L620.4165 496.81552 L624.0165 495.01572 L627.6165 493.2159 L631.2165 491.4161 L634.8165 489.6163 L638.4165 487.8165 L642.0165 486.0167 L642.0166 489.01273 L642.0166 557.0127 L639.7667 556.8878 L636.1667 555.088 L632.56665 553.2882 L628.9667 551.4884 L625.3667 549.6886 L621.76666 547.8888 L618.1666 546.089 L614.56665 544.2892 L610.9667 542.4894 L607.36664 540.6896 L603.7666 538.8898 L600.1666 537.08997 L596.56665 535.29016 L592.9667 533.49036 L589.3667 531.69055 L585.7667 529.89075 L582.16675 528.09094 L578.5668 526.29114 L574.9668 524.49133 L571.3668 522.6915 L570.01666 522.0128 Z "/>
      </g>
      <g style="fill:none;stroke:#AB95FF;stroke-width:3.0;">
        <path d="M462.01578 522.016 L534.01575 486.01596 L534.0158 558.016 L462.01578 522.016 "/>
      </g>
      <g style="fill:none;stroke:#95E8FF;stroke-width:3.0;">
        <path d="M462.01578 522.016 L465.61575 520.2162 L469.21573 518.4164 L472.8157 516.6166 L476.41568 514.8168 L480.01566 513.01697 L483.61563 511.2172 L487.2156 509.4174 L490.81558 507.61758 L494.41556 505.81778 L498.01553 504.01797 L501.6155 502.21817 L505.21548 500.41837 L508.81546 498.61856 L512.4154 496.81876 L516.0154 495.01895 L519.61536 493.21915 L523.21533 491.41934 L526.8153 489.61954 L530.4153 487.81973 L534.01526 486.01993 L534.01575 489.01596 L534.01575 557.016 L531.7658 556.8911 L528.16583 555.0913 L524.56586 553.2915 L520.9659 551.4917 L517.3659 549.6919 L513.7659 547.8921 L510.16595 546.0923 L506.56598 544.2925 L502.966 542.4927 L499.36603 540.6929 L495.76605 538.89307 L492.16608 537.09326 L488.5661 535.29346 L484.96613 533.49365 L481.36615 531.69385 L477.76617 529.89404 L474.1662 528.09424 L470.56622 526.29443 L466.96625 524.4946 L463.36627 522.6948 L462.01578 522.016 Z "/>
      </g>
      <g style="fill:none;stroke:#95FFAD;stroke-width:3.0;">
        <path d="M354.0186 522.0065 L426.01855 486.00638 L426.01862 558.00635 L354.0186 522.0065 "/>
      </g>
      <g style="fill:none;stroke:#AB95FF;stroke-width:3.0;">
        <path d="M354.0186 522.0065 L357.61868 520.20667 L361.21878 518.40686 L364.81888 516.60706 L368.41898 514.80725 L372.01907 513.00745 L375.61917 511.2076 L379.21927 509.4078 L382.81937 507.608 L386.41946 505.8082 L390.01956 504.0084 L393.61966 502.2086 L397.21976 500.40878 L400.81985 498.60898 L404.41995 496.80917 L408.02005 495.00937 L411.6201 493.20956 L415.22006 491.40976 L418.82004 489.60995 L422.42 487.81015 L426.02 486.01035 L426.01855 489.00638 L426.01855 557.00635 L423.76865 556.8815 L420.16867 555.08167 L416.5687 553.28186 L412.96872 551.48206 L409.3687 549.68225 L405.76862 547.88245 L402.16852 546.08264 L398.56842 544.28284 L394.96832 542.48303 L391.36823 540.6832 L387.76813 538.8834 L384.16803 537.0836 L380.56793 535.2838 L376.96783 533.484 L373.36774 531.6842 L369.76764 529.8844 L366.16754 528.0846 L362.56744 526.2848 L358.96735 524.485 L355.36725 522.6852 L354.0186 522.0065 Z "/>
      </g>
      <g style="fill:none;stroke:#95E8FF;stroke-width:3.0;">
        <path d="M246.01761 522.0073 L318.01758 486.0073 L318.01764 558.0073 L246.01761 522.0073 "/>
      </g>
      <g style="fill:none;stroke:#95FFAD;stroke-width:3.0;">
        <path d="M246.01761 522.0073 L249.6177 520.2075 L253.2178 518.4077 L256.8179 516.6079 L260.418 514.8081 L264.0181 513.0083 L267.6182 511.20853 L271.2183 509.40872 L274.8184 507.60892 L278.4185 505.8091 L282.0186 504.0093 L285.61868 502.2095 L289.21878 500.4097 L292.81888 498.6099 L296.41898 496.8101 L300.01907 495.01028 L303.61917 493.21048 L307.21927 491.41068 L310.81937 489.61087 L314.41946 487.81107 L318.01956 486.01126 L318.01758 489.0073 L318.01758 557.0073 L315.76758 556.88245 L312.16748 555.08264 L308.56738 553.28284 L304.9673 551.48303 L301.3672 549.6832 L297.7671 547.8834 L294.167 546.0836 L290.5669 544.2838 L286.9668 542.484 L283.3667 540.6842 L279.7666 538.8844 L276.1665 537.0846 L272.5664 535.2848 L268.9663 533.485 L265.3662 531.6852 L261.7661 529.8854 L258.16602 528.0856 L254.56592 526.28577 L250.96582 524.48596 L247.36572 522.68616 L246.01761 522.0073 Z "/>
      </g>
      <g style="fill:none;stroke:#AB95FF;stroke-width:3.0;">
        <path d="M138.0127 522.0156 L210.0127 486.01553 L210.01276 558.0155 L138.0127 522.0156 "/>
      </g>
      <g style="fill:none;stroke:#95E8FF;stroke-width:3.0;">
        <path d="M138.0127 522.0156 L141.6128 520.2158 L145.21289 518.416 L148.81299 516.6162 L152.41309 514.8164 L156.01318 513.0166 L159.61328 511.21677 L163.21338 509.41696 L166.81348 507.61716 L170.41357 505.81735 L174.01367 504.01755 L177.61377 502.21774 L181.21387 500.41794 L184.81396 498.61813 L188.41406 496.81833 L192.01416 495.01852 L195.61426 493.21872 L199.21436 491.4189 L202.81445 489.6191 L206.41455 487.8193 L210.01465 486.0195 L210.0127 489.01553 L210.0127 557.0155 L207.7627 556.8906 L204.1626 555.0908 L200.5625 553.291 L196.9624 551.4912 L193.3623 549.6914 L189.7622 547.8916 L186.16211 546.0918 L182.56201 544.292 L178.96191 542.4922 L175.36182 540.6924 L171.76172 538.8926 L168.16162 537.0928 L164.56152 535.29297 L160.96143 533.49316 L157.36133 531.69336 L153.76123 529.89355 L150.16113 528.09375 L146.56104 526.29395 L142.96094 524.49414 L139.36084 522.69434 L138.0127 522.0156 Z "/>
      </g>
      <g style="fill:none;stroke:#95FFAD;stroke-width:3.0;">
        <path d="M30.019531 522.0065 L102.01953 486.00644 L102.01959 558.0065 L30.019531 522.0065 "/>
      </g>
      <g style="fill:none;stroke:#AB95FF;stroke-width:3.0;">
        <path d="M30.019531 522.0065 L33.61963 520.20667 L37.219727 518.40686 L40.819824 516.60706 L44.41992 514.80725 L48.02002 513.00745 L51.620117 511.20767 L55.220215 509.40787 L58.820312 507.60806 L62.42041 505.80826 L66.02051 504.00845 L69.620605 502.20865 L73.2207 500.40884 L76.8208 498.60904 L80.4209 496.80923 L84.020996 495.00943 L87.62109 493.20963 L91.22119 491.40982 L94.82129 489.61002 L98.42139 487.8102 L102.021484 486.0104 L102.01953 489.00644 L102.01953 557.0065 L99.76953 556.8816 L96.16943 555.0818 L92.569336 553.282 L88.96924 551.4822 L85.36914 549.6824 L81.76904 547.88257 L78.168945 546.08276 L74.56885 544.28296 L70.96875 542.48315 L67.36865 540.68335 L63.768555 538.88354 L60.168457 537.08374 L56.56836 535.28394 L52.96826 533.48413 L49.368164 531.6843 L45.768066 529.8845 L42.16797 528.0847 L38.56787 526.2849 L34.967773 524.4851 L31.367676 522.6853 L30.019531 522.0065 Z "/>
      </g>
      <g style="fill:none;stroke:#95E8FF;stroke-width:3.0;">
        <path d="M-77.9646 521.984 L-5.9645996 485.98392 L-5.9645386 557.9839 L-77.9646 521.984 "/>
      </g>
      <g style="fill:none;stroke:#95FFAD;stroke-width:3.0;">
        <path d="M-77.9646 521.984 L-74.3645 520.1842 L-70.764404 518.3844 L-67.16431 516.5846 L-63.56421 514.7848 L-59.96411 512.985 L-56.364014 511.18515 L-52.763916 509.38535 L-49.16382 507.58554 L-45.56372 505.78574 L-41.963623 503.98593 L-38.363525 502.18613 L-34.763428 500.38632 L-31.16333 498.58652 L-27.563232 496.7867 L-23.963135 494.9869 L-20.363037 493.1871 L-16.76294 491.3873 L-13.162842 489.5875 L-9.562744 487.7877 L-5.9626465 485.98788 L-5.9645996 488.98392 L-5.9645996 556.9839 L-8.2146 556.859 L-11.814697 555.0592 L-15.414795 553.2594 L-19.014893 551.4596 L-22.61499 549.6598 L-26.215088 547.86 L-29.815186 546.0602 L-33.415283 544.2604 L-37.01538 542.4606 L-40.61548 540.66077 L-44.215576 538.86096 L-47.815674 537.06116 L-51.41577 535.26135 L-55.01587 533.46155 L-58.615967 531.66174 L-62.216064 529.86194 L-65.81616 528.06213 L-69.41626 526.2623 L-73.01636 524.4625 L-76.616455 522.6627 L-77.9646 521.984 Z "/>
      </g>
      <g style="fill:none;stroke:#AB95FF;stroke-width:3.0;">
        <path d="M-185.97528 522.0016 L-113.97534 486.00156 L-113.97528 558.0016 L-185.97528 522.0016 "/>
      </g>
      <g style="fill:none;stroke:#95E8FF;stroke-width:3.0;">
        <path d="M-185.97528 522.0016 L-182.37518 520.2018 L-178.77509 518.402 L-175.17499 516.6022 L-171.57489 514.80237 L-167.9748 513.00256 L-164.3747 511.2028 L-160.7746 509.40298 L-157.1745 507.60318 L-153.5744 505.80338 L-149.9743 504.00357 L-146.3742 502.20377 L-142.77411 500.40396 L-139.17401 498.60416 L-135.57391 496.80435 L-131.97382 495.00455 L-128.37372 493.20474 L-124.77368 491.40494 L-121.173584 489.60513 L-117.57349 487.80533 L-113.97339 486.00552 L-113.97534 489.00156 L-113.97534 557.0016 L-116.22534 556.8767 L-119.82544 555.0769 L-123.42554 553.2771 L-127.025635 551.4773 L-130.62567 549.6775 L-134.22577 547.8777 L-137.82587 546.0779 L-141.42596 544.2781 L-145.02606 542.4783 L-148.62616 540.67847 L-152.22626 538.87866 L-155.82635 537.07886 L-159.42645 535.27905 L-163.02655 533.47925 L-166.62665 531.67944 L-170.22675 529.87964 L-173.82684 528.07983 L-177.42694 526.28 L-181.02704 524.4802 L-184.62714 522.6804 L-185.97528 522.0016 Z "/>
      </g>
    </g>
  </g>
</svg>
