<?xml version="1.0" encoding="UTF-8"?>
<svg xmlns="http://www.w3.org/2000/svg" height="288px" version="1.1" width="480px">
  <g style="fill:#D5C466;stroke:none;">
    <path d="M0.0 0.0 L480.0 0.0 L480.0 288.0 L0.0 288.0 L0.0 0.0 "/>
    <g style="">
      <g style="fill:none;stroke:#D4BFD5;stroke-width:3.0;">
        <path d="M15.26178 -101.17111 L31.26178 -69.17111 L-0.7382202 -69.17111 L15.26178 -101.17111 "/>
      </g>
      <g style="fill:none;stroke:#D4BFD5;stroke-width:3.0;">
        <path d="M31.26178 -69.17111 L25.928425 -69.17111 L8.15066 -86.948875 L9.853333 -90.354225 L11.656152 -93.95986 L13.233618 -97.11479 L15.036436 -100.72043 L15.26178 -101.17111 L17.06459 -97.565475 L18.867401 -93.95985 L20.670212 -90.35421 L22.473022 -86.74857 L24.275833 -83.14294 L26.078644 -79.5373 L27.881454 -75.93166 L29.684265 -72.32603 L31.26178 -69.17111 Z "/>
      </g>
      <g style="fill:none;stroke:#D4BFD5;stroke-width:3.0;">
        <path d="M15.26178 -37.171112 L31.26178 -5.171112 L-0.7382202 -5.171112 L15.26178 -37.171112 "/>
      </g>
      <g style="fill:none;stroke:#D4BFD5;stroke-width:3.0;">
        <path d="M31.26178 -5.171112 L-0.7382202 -5.171112 L0.83924437 -8.326057 L2.6420608 -11.931709 L4.4448786 -15.537361 L6.247697 -19.143013 L6.480713 -19.609047 L24.042738 -19.609047 L24.275833 -19.142853 L26.078644 -15.537201 L27.881454 -11.931549 L29.684265 -8.325897 L31.26178 -5.171112 Z "/>
      </g>
      <g style="fill:none;stroke:#D3B2D5;stroke-width:3.0;">
        <path d="M15.26178 26.828888 L31.26178 58.828888 L-0.7382202 58.828888 L15.26178 26.828888 "/>
      </g>
      <g style="fill:none;stroke:#D3B2D5;stroke-width:3.0;">
        <path d="M31.26178 58.828888 L-0.7382202 58.828888 L0.83924437 55.673996 L2.6420608 52.068405 L4.4448786 48.462814 L6.247697 44.857224 L8.050515 41.251633 L9.853333 37.64604 L11.656152 34.04045 L13.233618 30.88556 L15.036436 27.279968 L15.26178 26.828888 L17.06459 30.434479 L18.867401 34.04007 L20.670212 37.64566 L22.473022 41.25125 L24.275833 44.856842 L26.078644 48.462433 L27.881454 52.068024 L29.684265 55.673615 L31.26178 58.828888 Z "/>
      </g>
      <g style="fill:none;stroke:#D3B2D5;stroke-width:3.0;">
        <path d="M15.26178 90.82889 L31.26178 122.82889 L-0.7382202 122.82889 L15.26178 90.82889 "/>
      </g>
      <g style="fill:none;stroke:#D3B2D5;stroke-width:3.0;">
        <path d="M31.26178 122.82889 L-0.7382202 122.82889 L0.83924437 119.673996 L2.6420608 116.068405 L4.4448786 112.462814 L6.247697 108.85722 L8.050515 105.25163 L9.853333 101.64604 L11.656152 98.04045 L13.233618 94.88556 L15.036436 91.27997 L15.26178 90.82889 L17.06459 94.43448 L18.867401 98.04007 L20.670212 101.64566 L22.473022 105.25125 L24.275833 108.85684 L26.078644 112.46243 L27.881454 116.06802 L29.684265 119.673615 L31.26178 122.82889 Z "/>
      </g>
      <g style="fill:none;stroke:#D3A5D5;stroke-width:3.0;">
        <path d="M15.26178 154.82889 L31.26178 186.82889 L-0.7382202 186.82889 L15.26178 154.82889 "/>
      </g>
      <g style="fill:none;stroke:#D3A5D5;stroke-width:3.0;">
        <path d="M31.26178 186.82889 L-0.7382202 186.82889 L0.83924437 183.67389 L2.6420608 180.06818 L4.4448786 176.46246 L6.247697 172.85675 L8.050515 169.25104 L9.853333 165.64532 L11.656152 162.03961 L13.233618 158.88461 L15.036436 155.2789 L15.26178 154.82889 L17.06459 158.4346 L18.867401 162.04031 L20.670212 165.64603 L22.473022 169.25174 L24.275833 172.85745 L26.078644 176.46317 L27.881454 180.06888 L29.684265 183.67459 L31.26178 186.82889 Z "/>
      </g>
      <g style="fill:none;stroke:#D3A5D5;stroke-width:3.0;">
        <path d="M15.26178 218.82889 L31.26178 250.82889 L-0.7382202 250.82889 L15.26178 218.82889 "/>
      </g>
      <g style="fill:none;stroke:#D3A5D5;stroke-width:3.0;">
        <path d="M31.26178 250.82889 L-0.7382202 250.82889 L0.83924437 247.67389 L2.6420608 244.06818 L4.4448786 240.46246 L6.247697 236.85675 L8.050515 233.25104 L9.853333 229.64532 L11.656152 226.03961 L13.233618 222.88461 L15.036436 219.2789 L15.26178 218.82889 L17.06459 222.4346 L18.867401 226.04031 L20.670212 229.64603 L22.473022 233.25174 L24.275833 236.85745 L26.078644 240.46317 L27.881454 244.06888 L29.684265 247.67459 L31.26178 250.82889 Z "/>
      </g>
      <g style="fill:none;stroke:#D298D5;stroke-width:3.0;">
        <path d="M15.26178 282.8289 L31.26178 314.8289 L-0.7382202 314.8289 L15.26178 282.8289 "/>
      </g>
      <g style="fill:none;stroke:#D298D5;stroke-width:3.0;">
        <path d="M31.26178 314.8289 L-0.7382202 314.8289 L0.83924437 311.6739 L2.6420608 308.06818 L4.4448786 304.46246 L6.247697 300.85675 L8.050515 297.25104 L9.853333 293.64532 L11.656152 290.0396 L13.233618 286.8846 L15.036436 283.2789 L15.26178 282.8289 L17.06459 286.4346 L18.867401 290.0403 L20.670212 293.64603 L22.473022 297.25174 L24.275833 300.85745 L26.078644 304.46317 L27.881454 308.06888 L29.684265 311.6746 L31.26178 314.8289 Z "/>
      </g>
      <g style="fill:none;stroke:#D298D5;stroke-width:3.0;">
        <path d="M15.26178 346.8289 L31.26178 378.8289 L-0.7382202 378.8289 L15.26178 346.8289 "/>
      </g>
      <g style="fill:none;stroke:#D298D5;stroke-width:3.0;">
        <path d="M31.26178 378.8289 L-0.7382202 378.8289 L0.83924437 375.6739 L2.6420608 372.06818 L4.4448786 368.46246 L6.247697 364.85675 L8.050515 361.25104 L9.853333 357.64532 L11.656152 354.0396 L13.233618 350.8846 L15.036436 347.2789 L15.26178 346.8289 L17.06459 350.4346 L18.867401 354.0403 L20.670212 357.64603 L22.473022 361.25174 L24.275833 364.85745 L26.078644 368.46317 L27.881454 372.06888 L29.684265 375.6746 L31.26178 378.8289 Z "/>
      </g>
      <g style="fill:none;stroke:#D28CD5;stroke-width:3.0;">
        <path d="M58.009583 -77.97863 L88.493324 -96.706726 L91.2823 -64.8285 L58.009583 -77.97863 "/>
      </g>
      <g style="fill:none;stroke:#D28CD5;stroke-width:3.0;">
        <path d="M91.28207 -64.828476 L88.00191 -66.125 L84.252884 -67.60672 L80.50386 -69.08844 L76.75484 -70.570145 L73.00581 -72.05185 L69.25679 -73.533554 L65.50777 -75.01526 L62.22736 -76.31175 L58.478306 -77.79346 L58.009583 -77.97863 L61.444366 -80.088844 L64.879166 -82.19906 L68.31398 -84.30927 L71.748795 -86.41948 L75.18361 -88.529686 L78.61842 -90.63989 L82.05324 -92.7501 L85.48805 -94.860306 L88.493324 -96.706726 L88.84745 -92.6587 L89.20158 -88.61067 L89.5557 -84.562645 L89.86556 -81.020615 L90.21969 -76.97258 L90.573814 -72.924545 L90.92794 -68.87651 L91.28207 -64.828476 Z "/>
      </g>
      <g style="fill:none;stroke:#D28CD5;stroke-width:3.0;">
        <path d="M58.009605 -13.978683 L88.49334 -32.70678 L91.282326 -0.82855225 L58.009605 -13.978683 "/>
      </g>
      <g style="fill:none;stroke:#D28CD5;stroke-width:3.0;">
        <path d="M91.28256 -0.82850647 L88.00193 -2.1250305 L84.25291 -3.60672 L80.50388 -5.0884094 L76.75486 -6.570099 L73.00584 -8.051788 L69.25681 -9.533478 L65.50779 -11.015167 L62.227383 -12.3116455 L58.47833 -13.793335 L58.009605 -13.978683 L61.44439 -16.088913 L64.87919 -18.199142 L68.314 -20.309372 L71.74882 -22.419601 L75.18363 -24.52983 L78.61845 -26.64006 L82.05326 -28.75029 L85.488075 -30.86052 L88.49334 -32.70678 L88.84753 -28.658745 L89.20171 -24.61071 L89.5559 -20.562675 L89.865814 -17.020645 L90.22 -12.97261 L90.57419 -8.924576 L90.928375 -4.876541 L91.28256 -0.82850647 Z "/>
      </g>
      <g style="fill:none;stroke:#D17FD5;stroke-width:3.0;">
        <path d="M58.00968 50.021545 L88.49343 31.293442 L91.2824 63.17166 L58.00968 50.021545 "/>
      </g>
      <g style="fill:none;stroke:#D17FD5;stroke-width:3.0;">
        <path d="M91.28217 63.171234 L88.00201 61.875183 L84.25298 60.393494 L80.50396 58.911804 L76.75494 57.430115 L73.00591 55.948425 L69.25689 54.466736 L65.507866 52.985046 L62.22746 51.68857 L58.478405 50.20688 L58.00968 50.021545 L61.444466 47.911316 L64.879265 45.801086 L68.31408 43.690857 L71.74889 41.580627 L75.18371 39.470398 L78.61852 37.36017 L82.05334 35.24994 L85.48815 33.13971 L88.49343 31.293442 L88.84756 35.341415 L89.20168 39.38939 L89.55581 43.437363 L89.86567 46.97934 L90.219795 51.027313 L90.57392 55.075287 L90.92805 59.12326 L91.28217 63.171234 Z "/>
      </g>
      <g style="fill:none;stroke:#D17FD5;stroke-width:3.0;">
        <path d="M58.00969 114.021484 L88.49344 95.293396 L91.28241 127.171616 L58.00969 114.021484 "/>
      </g>
      <g style="fill:none;stroke:#D17FD5;stroke-width:3.0;">
        <path d="M91.28218 127.17119 L88.002014 125.87514 L84.25299 124.39345 L80.50397 122.91176 L76.754944 121.43007 L73.00592 119.94838 L69.2569 118.46669 L65.50787 116.985 L62.227467 115.68852 L58.478413 114.20683 L58.00969 114.021484 L61.444473 111.911255 L64.87927 109.801025 L68.31409 107.690796 L71.7489 105.58057 L75.183716 103.47034 L78.61853 101.36011 L82.053345 99.24988 L85.48816 97.13965 L88.49344 95.293396 L88.847565 99.34137 L89.20169 103.38934 L89.55582 107.43732 L89.86568 110.979294 L90.2198 115.02727 L90.57393 119.07524 L90.928055 123.123215 L91.28218 127.17119 Z "/>
      </g>
      <g style="fill:none;stroke:#D072D5;stroke-width:3.0;">
        <path d="M58.009583 178.02103 L88.49333 159.29294 L91.2823 191.17117 L58.009583 178.02103 "/>
      </g>
      <g style="fill:none;stroke:#D072D5;stroke-width:3.0;">
        <path d="M91.282394 191.17184 L88.00191 189.8747 L84.252884 188.393 L80.50386 186.91132 L76.75484 185.42963 L73.00581 183.94794 L69.25679 182.46625 L65.50777 180.98456 L62.22736 179.68808 L58.478306 178.20639 L58.009583 178.02103 L61.444366 175.91092 L64.879166 173.80081 L68.31398 171.6907 L71.748795 169.5806 L75.18361 167.47049 L78.61842 165.36038 L82.05324 163.25027 L85.48805 161.14017 L88.49333 159.29294 L88.841965 163.2778 L89.1906 167.26266 L89.53923 171.24753 L89.88786 175.23239 L90.236496 179.21725 L90.58513 183.20212 L90.93376 187.18698 L91.282394 191.17184 Z "/>
      </g>
      <g style="fill:none;stroke:#D072D5;stroke-width:3.0;">
        <path d="M58.009674 242.02084 L88.49341 223.29276 L91.28238 255.17099 L58.009674 242.02084 "/>
      </g>
      <g style="fill:none;stroke:#D072D5;stroke-width:3.0;">
        <path d="M91.28247 255.17166 L88.00198 253.87451 L84.25296 252.39282 L80.50394 250.91113 L76.75491 249.42944 L73.00589 247.94775 L69.25687 246.46606 L65.50784 244.98438 L62.227448 243.6879 L58.478424 242.2062 L58.009674 242.02084 L61.444458 239.91074 L64.87926 237.80063 L68.31407 235.69052 L71.748886 233.58041 L75.1837 231.4703 L78.618515 229.3602 L82.05333 227.25009 L85.488144 225.13998 L88.49341 223.29276 L88.84204 227.27762 L89.190674 231.26248 L89.53931 235.24734 L89.88794 239.23221 L90.23657 243.21707 L90.585205 247.20193 L90.93384 251.1868 L91.28247 255.17166 Z "/>
      </g>
      <g style="fill:none;stroke:#D066D5;stroke-width:3.0;">
        <path d="M58.009552 306.02103 L88.493286 287.29294 L91.28226 319.17117 L58.009552 306.02103 "/>
      </g>
      <g style="fill:none;stroke:#D56694;stroke-width:3.0;">
        <path d="M91.28235 319.17184 L88.00186 317.8747 L84.25284 316.393 L80.503815 314.91132 L76.75479 313.42963 L73.00577 311.94794 L69.256744 310.46625 L65.50772 308.98456 L62.227325 307.68808 L58.478302 306.2064 L58.009552 306.02103 L61.444336 303.91092 L64.879135 301.8008 L68.31395 299.6907 L71.748764 297.5806 L75.18358 295.4705 L78.61839 293.36038 L82.05321 291.25027 L85.48802 289.14017 L88.493286 287.29294 L88.84192 291.2778 L89.19055 295.26266 L89.539185 299.24753 L89.88782 303.2324 L90.23645 307.21725 L90.58508 311.20212 L90.933716 315.18698 L91.28235 319.17184 Z "/>
      </g>
      <g style="fill:none;stroke:#D57E66;stroke-width:3.0;">
        <path d="M58.009644 370.02097 L88.49338 351.29288 L91.28235 383.1711 L58.009644 370.02097 "/>
      </g>
      <g style="fill:none;stroke:#D4BFD5;stroke-width:3.0;">
        <path d="M91.28244 383.17178 L88.00195 381.87463 L84.25293 380.39294 L80.50391 378.91125 L76.75488 377.42957 L73.00586 375.94788 L69.256836 374.4662 L65.50781 372.9845 L62.227417 371.68802 L58.478394 370.20633 L58.009644 370.02097 L61.444427 367.91086 L64.87923 365.80075 L68.31404 363.69064 L71.748856 361.58054 L75.18367 359.47043 L78.618484 357.36032 L82.0533 355.2502 L85.48811 353.1401 L88.49338 351.29288 L88.84201 355.27774 L89.19064 359.2626 L89.539276 363.24747 L89.88791 367.23233 L90.23654 371.2172 L90.585175 375.20206 L90.93381 379.18692 L91.28244 383.17178 Z "/>
      </g>
      <g style="fill:none;stroke:#D4BFD5;stroke-width:3.0;">
        <path d="M146.96667 -58.82837 L125.653015 -87.56385 L157.16685 -93.12059 L146.96667 -58.82837 "/>
      </g>
      <g style="fill:none;stroke:#D4BFD5;stroke-width:3.0;">
        <path d="M146.96667 -58.82837 L144.56519 -62.066162 L142.1637 -65.303955 L139.7622 -68.54175 L137.36072 -71.77954 L134.95923 -75.017334 L132.55774 -78.25513 L130.15625 -81.49292 L127.75476 -84.73071 L125.653015 -87.56385 L129.65475 -88.26947 L133.65646 -88.97509 L137.65817 -89.68071 L141.15967 -90.29813 L145.16138 -91.003746 L149.16309 -91.709366 L153.1648 -92.414986 L157.1665 -93.120605 L156.16122 -89.73966 L155.01193 -85.87575 L153.86264 -82.01184 L152.71335 -78.147934 L151.56406 -74.28403 L150.41476 -70.42012 L149.26547 -66.5562 L148.25984 -63.17527 L147.11055 -59.311348 L146.96667 -58.82837 Z "/>
      </g>
      <g style="fill:none;stroke:#D4BFD5;stroke-width:3.0;">
        <path d="M146.96648 5.171524 L125.6528 -23.563957 L157.16666 -29.120697 L146.96648 5.171524 "/>
      </g>
      <g style="fill:none;stroke:#D3B2D5;stroke-width:3.0;">
        <path d="M146.96648 5.171524 L144.56499 1.9337311 L142.1635 -1.3040619 L139.76201 -4.541855 L137.36052 -7.779648 L134.95903 -11.017441 L132.55754 -14.255234 L130.15605 -17.493027 L127.75456 -20.73082 L125.6528 -23.563957 L129.59201 -24.258537 L133.53122 -24.953117 L137.47043 -25.647697 L141.40964 -26.342278 L145.34885 -27.036858 L149.28806 -27.731438 L153.22726 -28.426018 L157.16647 -29.120598 L156.16103 -25.739792 L155.01173 -21.8759 L153.86244 -18.012009 L152.71315 -14.148117 L151.56386 -10.284225 L150.41457 -6.420334 L149.26527 -2.5564423 L148.25964 0.8244629 L147.11035 4.6883545 L146.96648 5.171524 Z "/>
      </g>
      <g style="fill:none;stroke:#D3B2D5;stroke-width:3.0;">
        <path d="M146.96677 69.17177 L125.65311 40.43628 L157.16695 34.879547 L146.96677 69.17177 "/>
      </g>
      <g style="fill:none;stroke:#D3B2D5;stroke-width:3.0;">
        <path d="M146.96677 69.17177 L144.56528 65.933975 L142.16379 62.696182 L139.7623 59.45839 L137.36081 56.220596 L134.95932 52.982803 L132.55783 49.74501 L130.15634 46.507217 L127.75485 43.269424 L125.65311 40.43628 L129.65485 39.730713 L133.65656 39.025146 L137.65826 38.31958 L141.15976 37.70221 L145.16147 36.996643 L149.16318 36.291077 L153.16489 35.58551 L157.1666 34.879944 L156.16132 38.260452 L155.01202 42.124344 L153.86273 45.988235 L152.71344 49.852127 L151.56415 53.71602 L150.41486 57.57991 L149.26556 61.4438 L148.25993 64.82471 L147.11064 68.6886 L146.96677 69.17177 Z "/>
      </g>
      <g style="fill:none;stroke:#D3B2D5;stroke-width:3.0;">
        <path d="M146.96718 133.17213 L125.6535 104.436676 L157.16736 98.87993 L146.96718 133.17213 "/>
      </g>
      <g style="fill:none;stroke:#D3A5D5;stroke-width:3.0;">
        <path d="M146.96718 133.17213 L144.56569 129.93434 L142.1642 126.69655 L139.76271 123.458755 L137.36122 120.22096 L134.95973 116.98317 L132.55824 113.74538 L130.15675 110.50758 L127.755264 107.26979 L125.6535 104.436676 L129.59271 103.742096 L133.53192 103.047516 L137.47113 102.352936 L141.41034 101.658356 L145.34955 100.963776 L149.28876 100.269196 L153.22797 99.574615 L157.16718 98.880035 L156.16173 102.26083 L155.01244 106.124725 L153.86314 109.98862 L152.71385 113.85251 L151.56456 117.7164 L150.41527 121.58029 L149.26598 125.44418 L148.26035 128.82509 L147.11105 132.68898 L146.96718 133.17213 Z "/>
      </g>
      <g style="fill:none;stroke:#D3A5D5;stroke-width:3.0;">
        <path d="M146.96631 197.17142 L125.65265 168.43594 L157.16649 162.87921 L146.96631 197.17142 "/>
      </g>
      <g style="fill:none;stroke:#D3A5D5;stroke-width:3.0;">
        <path d="M146.96631 197.17142 L144.56482 193.93362 L142.16333 190.69583 L139.76184 187.45804 L137.36035 184.22025 L134.95886 180.98245 L132.55737 177.74466 L130.15588 174.50687 L127.754395 171.26907 L125.65265 168.43594 L129.65439 167.73038 L133.6561 167.02481 L137.6578 166.31924 L141.1593 165.70187 L145.16101 164.9963 L149.16272 164.29074 L153.16443 163.58517 L157.16614 162.87961 L156.16086 166.26022 L155.01157 170.12424 L153.86227 173.98825 L152.71298 177.85226 L151.56369 181.71628 L150.4144 185.58029 L149.2651 189.4443 L148.25948 192.82532 L147.11018 196.68933 L146.96631 197.17142 Z "/>
      </g>
      <g style="fill:none;stroke:#D3A5D5;stroke-width:3.0;">
        <path d="M146.96593 261.17084 L125.65225 232.43533 L157.1661 226.8786 L146.96593 261.17084 "/>
      </g>
      <g style="fill:none;stroke:#D298D5;stroke-width:3.0;">
        <path d="M146.96593 261.17084 L144.56444 257.93304 L142.16295 254.69525 L139.76146 251.45746 L137.35997 248.21967 L134.95848 244.98187 L132.55699 241.74408 L130.1555 238.50629 L127.75401 235.2685 L125.65225 232.43533 L129.59146 231.74075 L133.53067 231.04617 L137.46988 230.3516 L141.40909 229.65701 L145.3483 228.96243 L149.2875 228.26785 L153.22672 227.57327 L157.16592 226.8787 L156.16048 230.25961 L155.01118 234.12363 L153.8619 237.98764 L152.7126 241.85165 L151.56331 245.71567 L150.41402 249.57968 L149.26472 253.4437 L148.2591 256.8247 L147.1098 260.68872 L146.96593 261.17084 Z "/>
      </g>
      <g style="fill:none;stroke:#D298D5;stroke-width:3.0;">
        <path d="M146.96631 325.17194 L125.65265 296.43643 L157.16649 290.8797 L146.96631 325.17194 "/>
      </g>
      <g style="fill:none;stroke:#D298D5;stroke-width:3.0;">
        <path d="M146.96631 325.17194 L144.56482 321.93414 L142.16333 318.69635 L139.76184 315.45856 L137.36035 312.22076 L134.95886 308.98297 L132.55737 305.74518 L130.15588 302.5074 L127.754395 299.2696 L125.65265 296.43643 L129.65439 295.73087 L133.6561 295.0253 L137.6578 294.31973 L141.1593 293.70236 L145.16101 292.9968 L149.16272 292.29123 L153.16443 291.58566 L157.16614 290.8801 L156.16086 294.2607 L155.01157 298.12473 L153.86227 301.98874 L152.71298 305.85275 L151.56369 309.71677 L150.4144 313.58078 L149.2651 317.4448 L148.25948 320.8258 L147.11018 324.68982 L146.96631 325.17194 Z "/>
      </g>
      <g style="fill:none;stroke:#D298D5;stroke-width:3.0;">
        <path d="M146.96577 389.1711 L125.6521 360.4356 L157.16595 354.87888 L146.96577 389.1711 "/>
      </g>
      <g style="fill:none;stroke:#D28CD5;stroke-width:3.0;">
        <path d="M146.96577 389.1711 L144.56429 385.93332 L142.1628 382.69553 L139.7613 379.45773 L137.35982 376.21994 L134.95833 372.98215 L132.55684 369.74435 L130.15535 366.50656 L127.75386 363.26877 L125.6521 360.4356 L129.59131 359.74103 L133.53052 359.04645 L137.46973 358.35187 L141.40894 357.6573 L145.34814 356.9627 L149.28735 356.26813 L153.22656 355.57355 L157.16577 354.87897 L156.16032 358.2599 L155.01103 362.1239 L153.86174 365.9879 L152.71245 369.85193 L151.56316 373.71594 L150.41386 377.57996 L149.26457 381.44397 L148.25894 384.82498 L147.10965 388.689 L146.96577 389.1711 Z "/>
      </g>
      <g style="fill:none;stroke:#D28CD5;stroke-width:3.0;">
        <path d="M227.86844 -85.35939 L201.09993 -61.622345 L192.8177 -92.53197 L227.86844 -85.35939 "/>
      </g>
      <g style="fill:none;stroke:#D28CD5;stroke-width:3.0;">
        <path d="M201.09993 -61.622345 L200.06465 -65.48605 L199.02937 -69.34976 L197.9941 -73.21347 L196.95882 -77.07718 L195.92354 -80.94089 L194.88826 -84.804596 L193.85298 -88.6683 L192.8177 -92.532 L196.27338 -91.824814 L200.22272 -91.01664 L204.17206 -90.208466 L208.1214 -89.40029 L212.07074 -88.59212 L216.02008 -87.78394 L219.96942 -86.97577 L223.4251 -86.268616 L227.37444 -85.46044 L227.86844 -85.35939 L224.85233 -82.6848 L221.83621 -80.01021 L218.8201 -77.33562 L215.80399 -74.661026 L212.78787 -71.986435 L209.77176 -69.311844 L206.75565 -66.63725 L203.73953 -63.96266 L201.09993 -61.622345 Z "/>
      </g>
      <g style="fill:none;stroke:#D28CD5;stroke-width:3.0;">
        <path d="M227.86844 -21.359375 L201.09991 2.3776703 L192.81769 -28.531952 L227.86844 -21.359375 "/>
      </g>
      <g style="fill:none;stroke:#D17FD5;stroke-width:3.0;">
        <path d="M201.09991 2.3776703 L200.06464 -1.4860382 L199.02936 -5.3497467 L197.99408 -9.213455 L196.9588 -13.077164 L195.92352 -16.940872 L194.88824 -20.80458 L193.85297 -24.66829 L192.81769 -28.531998 L196.27336 -27.824806 L200.2227 -27.01664 L204.17204 -26.208473 L208.12138 -25.400307 L212.07072 -24.59214 L216.02007 -23.783974 L219.9694 -22.975807 L223.42508 -22.268661 L227.37442 -21.460495 L227.86844 -21.359375 L224.85233 -18.684753 L221.83621 -16.010132 L218.8201 -13.33551 L215.80399 -10.660889 L212.78787 -7.986267 L209.77176 -5.3116455 L206.75565 -2.637024 L203.73953 0.037597656 L201.09991 2.3776703 Z "/>
      </g>
      <g style="fill:none;stroke:#D17FD5;stroke-width:3.0;">
        <path d="M227.86877 42.64055 L201.10025 66.37758 L192.81802 35.46797 L227.86877 42.64055 "/>
      </g>
      <g style="fill:none;stroke:#D17FD5;stroke-width:3.0;">
        <path d="M201.10025 66.37758 L200.0485 62.45253 L198.99673 58.52748 L197.94498 54.602432 L197.02469 51.168015 L195.97293 47.242966 L194.92117 43.317917 L193.86942 39.392868 L192.81766 35.46782 L196.2737 36.17517 L200.22304 36.9834 L204.17238 37.791626 L208.12172 38.599854 L212.07106 39.40808 L216.0204 40.21631 L219.96974 41.024536 L223.42542 41.731735 L227.37476 42.539963 L227.86877 42.64055 L224.85266 45.31511 L221.83655 47.98967 L218.82043 50.66423 L215.80432 53.33879 L212.78821 56.01335 L209.7721 58.687912 L206.75598 61.362473 L203.73987 64.03703 L201.10025 66.37758 Z "/>
      </g>
      <g style="fill:none;stroke:#D17FD5;stroke-width:3.0;">
        <path d="M227.86955 106.64078 L201.10104 130.37782 L192.81882 99.4682 L227.86955 106.64078 "/>
      </g>
      <g style="fill:none;stroke:#D072D5;stroke-width:3.0;">
        <path d="M201.10104 130.37782 L200.06577 126.514175 L199.03049 122.65053 L197.99521 118.78688 L196.95993 114.92323 L195.92465 111.059586 L194.88937 107.19594 L193.8541 103.33229 L192.81882 99.46864 L196.27449 100.1754 L200.22383 100.98363 L204.17317 101.791855 L208.12251 102.60008 L212.07185 103.40831 L216.0212 104.21654 L219.97054 105.024765 L223.42621 105.731964 L227.37555 106.54019 L227.86955 106.64078 L224.85344 109.31534 L221.83733 111.9899 L218.82121 114.66446 L215.8051 117.33902 L212.78899 120.01358 L209.77287 122.68814 L206.75676 125.3627 L203.74065 128.03726 L201.10104 130.37782 Z "/>
      </g>
      <g style="fill:none;stroke:#D072D5;stroke-width:3.0;">
        <path d="M227.86763 170.64078 L201.09912 194.3778 L192.8169 163.4682 L227.86763 170.64078 "/>
      </g>
      <g style="fill:none;stroke:#D072D5;stroke-width:3.0;">
        <path d="M201.09912 194.3778 L200.04736 190.45276 L198.9956 186.52771 L197.94385 182.60266 L197.02356 179.16824 L195.9718 175.2432 L194.92004 171.31815 L193.86829 167.3931 L192.81653 163.46805 L196.27257 164.1753 L200.22191 164.9834 L204.17125 165.7915 L208.12059 166.59961 L212.06993 167.40771 L216.01927 168.21582 L219.96861 169.02393 L223.42429 169.73102 L227.37363 170.53912 L227.86763 170.64078 L224.85152 173.31534 L221.8354 175.9899 L218.81929 178.66446 L215.80318 181.33902 L212.78706 184.01358 L209.77095 186.68814 L206.75484 189.3627 L203.73872 192.03726 L201.09912 194.3778 Z "/>
      </g>
      <g style="fill:none;stroke:#D072D5;stroke-width:3.0;">
        <path d="M227.86826 234.64066 L201.09976 258.3777 L192.81754 227.46808 L227.86826 234.64066 "/>
      </g>
      <g style="fill:none;stroke:#D066D5;stroke-width:3.0;">
        <path d="M201.09976 258.3777 L200.048 254.45264 L198.99625 250.52759 L197.94449 246.60254 L197.0242 243.16812 L195.97244 239.24307 L194.92068 235.31802 L193.86893 231.39297 L192.81717 227.46793 L196.27321 228.17517 L200.22255 228.98328 L204.17189 229.79138 L208.12123 230.59949 L212.07057 231.4076 L216.01991 232.2157 L219.96925 233.0238 L223.42493 233.7309 L227.37427 234.539 L227.86826 234.64066 L224.85214 237.31522 L221.83603 239.98978 L218.81992 242.66434 L215.8038 245.3389 L212.78769 248.01346 L209.77158 250.68802 L206.75546 253.36258 L203.73935 256.03714 L201.09976 258.3777 Z "/>
      </g>
      <g style="fill:none;stroke:#D56694;stroke-width:3.0;">
        <path d="M227.86682 298.6405 L201.09833 322.37756 L192.8161 291.46796 L227.86682 298.6405 "/>
      </g>
      <g style="fill:none;stroke:#D57E66;stroke-width:3.0;">
        <path d="M201.09833 322.37756 L200.04657 318.4525 L198.99481 314.52747 L197.94305 310.60242 L197.02277 307.168 L195.97101 303.24295 L194.91925 299.3179 L193.8675 295.39285 L192.81573 291.4678 L196.27177 292.17505 L200.22112 292.98315 L204.17046 293.79126 L208.1198 294.59937 L212.06914 295.40747 L216.01848 296.21558 L219.96782 297.02368 L223.4235 297.73077 L227.37283 298.53888 L227.86682 298.6405 L224.85071 301.31506 L221.8346 303.98962 L218.81848 306.66418 L215.80237 309.33875 L212.78625 312.0133 L209.77014 314.68787 L206.75403 317.36243 L203.73792 320.037 L201.09833 322.37756 Z "/>
      </g>
      <g style="fill:none;stroke:#D4BFD5;stroke-width:3.0;">
        <path d="M227.87143 362.64133 L201.10294 386.3784 L192.82071 355.46875 L227.87143 362.64133 "/>
      </g>
      <g style="fill:none;stroke:#D4BFD5;stroke-width:3.0;">
        <path d="M201.10294 386.3784 L200.06766 382.51462 L199.03238 378.65085 L197.9971 374.78708 L196.96182 370.9233 L195.92654 367.05954 L194.89127 363.19577 L193.85599 359.332 L192.82071 355.46823 L196.27638 356.17584 L200.22572 356.98395 L204.17506 357.79205 L208.1244 358.60016 L212.07375 359.40826 L216.02309 360.21637 L219.97243 361.02448 L223.4281 361.73157 L227.37744 362.53967 L227.87143 362.64133 L224.85532 365.3159 L221.8392 367.99045 L218.82309 370.665 L215.80698 373.33957 L212.79086 376.01413 L209.77475 378.6887 L206.75864 381.36325 L203.74252 384.0378 L201.10294 386.3784 Z "/>
      </g>
      <g style="fill:none;stroke:#D4BFD5;stroke-width:3.0;">
        <path d="M263.9654 -99.88477 L289.94513 -75.28693 L259.87494 -64.342285 L263.9654 -99.88477 "/>
      </g>
      <g style="fill:none;stroke:#D4BFD5;stroke-width:3.0;">
        <path d="M259.87482 -64.34235 L260.27826 -67.84648 L260.7392 -71.85127 L261.20013 -75.856064 L261.66107 -79.860855 L262.122 -83.86565 L262.58295 -87.87044 L263.04388 -91.87523 L263.4472 -95.37942 L263.90814 -99.3842 L263.9654 -99.88477 L266.89264 -97.11318 L269.8199 -94.3416 L272.74713 -91.57001 L275.67438 -88.798416 L278.60162 -86.026825 L281.52887 -83.25523 L284.45612 -80.48364 L287.38336 -77.71205 L289.94513 -75.28693 L286.18634 -73.91885 L282.42755 -72.55078 L278.66876 -71.18271 L274.90997 -69.81464 L271.15118 -68.44656 L267.3924 -67.07849 L263.6336 -65.71042 L259.87482 -64.34235 Z "/>
      </g>
      <g style="fill:none;stroke:#D3B2D5;stroke-width:3.0;">
        <path d="M263.96542 -35.884735 L289.94516 -11.286896 L259.875 -0.34225464 L263.96542 -35.884735 "/>
      </g>
      <g style="fill:none;stroke:#D3B2D5;stroke-width:3.0;">
        <path d="M259.87558 -0.342453 L260.27832 -3.8464203 L260.73926 -7.851181 L261.2002 -11.855942 L261.66113 -15.8607025 L262.12207 -19.865463 L262.583 -23.870224 L263.04395 -27.874985 L263.44727 -31.37915 L263.9082 -35.38391 L263.96542 -35.884735 L266.89267 -33.11313 L269.81992 -30.341522 L272.74716 -27.569916 L275.6744 -24.79831 L278.60165 -22.026703 L281.5289 -19.255096 L284.45615 -16.48349 L287.3834 -13.711884 L289.94516 -11.286896 L286.1268 -9.897125 L282.30844 -8.507355 L278.49008 -7.117584 L275.14902 -5.901535 L271.33066 -4.5117645 L267.5123 -3.121994 L263.69394 -1.7322235 L259.87558 -0.342453 Z "/>
      </g>
      <g style="fill:none;stroke:#D3B2D5;stroke-width:3.0;">
        <path d="M263.96536 28.115387 L289.9451 52.713226 L259.87494 63.657867 L263.96536 28.115387 "/>
      </g>
      <g style="fill:none;stroke:#D3B2D5;stroke-width:3.0;">
        <path d="M259.87552 63.65767 L260.27826 60.1537 L260.7392 56.14894 L261.20013 52.14418 L261.66107 48.13942 L262.122 44.13466 L262.58295 40.129898 L263.04388 36.125137 L263.4472 32.62097 L263.90814 28.61621 L263.96536 28.115387 L266.8926 30.886993 L269.81985 33.6586 L272.7471 36.430206 L275.67435 39.201813 L278.6016 41.97342 L281.52884 44.745026 L284.4561 47.516632 L287.38333 50.28824 L289.9451 52.713226 L286.12674 54.102997 L282.30838 55.492767 L278.49002 56.882538 L275.14896 58.098587 L271.3306 59.488358 L267.51224 60.878128 L263.69388 62.2679 L259.87552 63.65767 Z "/>
      </g>
      <g style="fill:none;stroke:#D3A5D5;stroke-width:3.0;">
        <path d="M263.9654 92.115326 L289.94513 116.713165 L259.87497 127.65781 L263.9654 92.115326 "/>
      </g>
      <g style="fill:none;stroke:#D3A5D5;stroke-width:3.0;">
        <path d="M259.87555 127.65761 L260.2783 124.15364 L260.73923 120.14888 L261.20016 116.14412 L261.6611 112.13936 L262.12204 108.1346 L262.58298 104.12984 L263.0439 100.12508 L263.44724 96.62091 L263.90817 92.61615 L263.9654 92.115326 L266.89264 94.88693 L269.8199 97.65854 L272.74713 100.430145 L275.67438 103.20175 L278.60162 105.97336 L281.52887 108.744965 L284.45612 111.51657 L287.38336 114.28818 L289.94513 116.713165 L286.12677 118.102936 L282.3084 119.49271 L278.49005 120.88248 L275.149 122.098526 L271.33063 123.4883 L267.51227 124.87807 L263.6939 126.26784 L259.87555 127.65761 Z "/>
      </g>
      <g style="fill:none;stroke:#D3A5D5;stroke-width:3.0;">
        <path d="M263.96512 156.11563 L289.94485 180.71347 L259.8747 191.65811 L263.96512 156.11563 "/>
      </g>
      <g style="fill:none;stroke:#D3A5D5;stroke-width:3.0;">
        <path d="M259.87527 191.65887 L260.278 188.15384 L260.73895 184.14896 L261.1999 180.14407 L261.66083 176.13919 L262.12177 172.13431 L262.5827 168.12943 L263.04364 164.12454 L263.44696 160.62027 L263.9079 156.61539 L263.96512 156.11563 L266.89236 158.88712 L269.8196 161.6586 L272.74686 164.43008 L275.6741 167.20157 L278.60135 169.97305 L281.5286 172.74454 L284.45584 175.51602 L287.3831 178.2875 L289.94485 180.71347 L286.1265 182.10336 L282.30814 183.49326 L278.48978 184.88315 L275.1487 186.0993 L271.33035 187.4892 L267.512 188.87909 L263.69363 190.26898 L259.87527 191.65887 Z "/>
      </g>
      <g style="fill:none;stroke:#D298D5;stroke-width:3.0;">
        <path d="M263.96503 220.11557 L289.94476 244.71341 L259.8746 255.65805 L263.96503 220.11557 "/>
      </g>
      <g style="fill:none;stroke:#D298D5;stroke-width:3.0;">
        <path d="M259.87518 255.65881 L260.27792 252.15378 L260.73886 248.1489 L261.1998 244.14401 L261.66074 240.13913 L262.12167 236.13425 L262.5826 232.12936 L263.04355 228.12448 L263.44687 224.62021 L263.9078 220.61533 L263.96503 220.11557 L266.89227 222.88705 L269.81952 225.65854 L272.74677 228.43002 L275.674 231.2015 L278.60126 233.97299 L281.5285 236.74448 L284.45575 239.51596 L287.383 242.28745 L289.94476 244.71341 L286.1264 246.1033 L282.30804 247.4932 L278.4897 248.88309 L275.14862 250.09924 L271.33026 251.48914 L267.5119 252.87903 L263.69354 254.26892 L259.87518 255.65881 Z "/>
      </g>
      <g style="fill:none;stroke:#D298D5;stroke-width:3.0;">
        <path d="M263.96484 284.11563 L289.94458 308.71347 L259.87442 319.6581 L263.96484 284.11563 "/>
      </g>
      <g style="fill:none;stroke:#D298D5;stroke-width:3.0;">
        <path d="M259.875 319.65887 L260.27774 316.15384 L260.73868 312.14896 L261.19962 308.14407 L261.66055 304.1392 L262.1215 300.1343 L262.58243 296.12943 L263.04337 292.12454 L263.4467 288.62027 L263.90762 284.6154 L263.96484 284.11563 L266.8921 286.88712 L269.81934 289.6586 L272.74658 292.43008 L275.67383 295.20157 L278.60107 297.97305 L281.52832 300.74454 L284.45557 303.51602 L287.3828 306.2875 L289.94458 308.71347 L286.12622 310.10336 L282.30786 311.49326 L278.4895 312.88315 L275.14844 314.0993 L271.33008 315.4892 L267.51172 316.8791 L263.69336 318.26898 L259.875 319.65887 Z "/>
      </g>
      <g style="fill:none;stroke:#D28CD5;stroke-width:3.0;">
        <path d="M263.96527 348.11548 L289.945 372.71332 L259.87485 383.65796 L263.96527 348.11548 "/>
      </g>
      <g style="fill:none;stroke:#D28CD5;stroke-width:3.0;">
        <path d="M259.87543 383.65872 L260.27817 380.1537 L260.7391 376.1488 L261.20004 372.14392 L261.66098 368.13904 L262.12192 364.13416 L262.58286 360.12927 L263.0438 356.1244 L263.4471 352.62012 L263.90805 348.61523 L263.96527 348.11548 L266.89252 350.88696 L269.81976 353.65845 L272.747 356.42993 L275.67426 359.20142 L278.6015 361.9729 L281.52875 364.7444 L284.456 367.51587 L287.38324 370.28735 L289.945 372.71332 L286.12665 374.1032 L282.3083 375.4931 L278.48993 376.883 L275.14886 378.09915 L271.3305 379.48904 L267.51215 380.87894 L263.6938 382.26883 L259.87543 383.65872 Z "/>
      </g>
      <g style="fill:none;stroke:#D28CD5;stroke-width:3.0;">
        <path d="M315.92682 -70.8226 L338.16675 -98.84732 L351.69055 -69.84546 L315.92682 -70.8226 "/>
      </g>
      <g style="fill:none;stroke:#D28CD5;stroke-width:3.0;">
        <path d="M351.6902 -69.84548 L348.1645 -69.9418 L344.1347 -70.05191 L340.10492 -70.16202 L336.07513 -70.272125 L332.04535 -70.38223 L328.01556 -70.49234 L323.98578 -70.60245 L320.45972 -70.69879 L316.42993 -70.8089 L315.92682 -70.8226 L318.43268 -73.980316 L320.93854 -77.13803 L323.4444 -80.295746 L325.95026 -83.45346 L328.45612 -86.611176 L330.96198 -89.76889 L333.46783 -92.926605 L335.9737 -96.08432 L338.16675 -98.84732 L339.85718 -95.22209 L341.5476 -91.596855 L343.23804 -87.97163 L344.92847 -84.3464 L346.6189 -80.72117 L348.30933 -77.09594 L349.99976 -73.47071 L351.6902 -69.84548 Z "/>
      </g>
      <g style="fill:none;stroke:#D17FD5;stroke-width:3.0;">
        <path d="M315.9267 -6.822876 L338.16666 -34.847595 L351.69043 -5.8457336 L315.9267 -6.822876 "/>
      </g>
      <g style="fill:none;stroke:#D17FD5;stroke-width:3.0;">
        <path d="M351.6901 -5.845642 L348.16437 -5.9420776 L344.13458 -6.052185 L340.1048 -6.1622925 L336.075 -6.2724 L332.04523 -6.3825073 L328.01544 -6.4926147 L323.98566 -6.602722 L320.4596 -6.699066 L316.4298 -6.8091736 L315.9267 -6.822876 L318.43256 -9.980591 L320.93842 -13.138306 L323.44427 -16.29602 L325.95013 -19.453735 L328.456 -22.61145 L330.96185 -25.769165 L333.4677 -28.92688 L335.97357 -32.084595 L338.16666 -34.847595 L339.8571 -31.222351 L341.54752 -27.597107 L343.23795 -23.971863 L344.92838 -20.346619 L346.6188 -16.721375 L348.30923 -13.09613 L349.99966 -9.470886 L351.6901 -5.845642 Z "/>
      </g>
      <g style="fill:none;stroke:#D17FD5;stroke-width:3.0;">
        <path d="M315.92667 57.177338 L338.16663 29.152618 L351.6904 58.15451 L315.92667 57.177338 "/>
      </g>
      <g style="fill:none;stroke:#D17FD5;stroke-width:3.0;">
        <path d="M351.69006 58.15457 L348.16434 58.058167 L344.13455 57.94806 L340.10477 57.83795 L336.07498 57.727844 L332.0452 57.617737 L328.0154 57.50763 L323.98563 57.397522 L320.45956 57.301178 L316.42978 57.19107 L315.92667 57.177338 L318.43253 54.019623 L320.9384 50.861908 L323.44424 47.704193 L325.9501 44.54648 L328.45596 41.388763 L330.96182 38.23105 L333.46768 35.073334 L335.97354 31.915619 L338.16663 29.152618 L339.85706 32.777863 L341.5475 36.403107 L343.2379 40.02835 L344.92834 43.653595 L346.61877 47.27884 L348.3092 50.904083 L349.99963 54.529327 L351.69006 58.15457 Z "/>
      </g>
      <g style="fill:none;stroke:#D072D5;stroke-width:3.0;">
        <path d="M315.92654 121.17767 L338.1665 93.152954 L351.69028 122.154816 L315.92654 121.17767 "/>
      </g>
      <g style="fill:none;stroke:#D072D5;stroke-width:3.0;">
        <path d="M351.68994 122.15491 L348.1642 122.05847 L344.13443 121.948364 L340.10464 121.83826 L336.07486 121.72815 L332.04507 121.61804 L328.0153 121.507935 L323.9855 121.39783 L320.45944 121.30148 L316.42966 121.191376 L315.92654 121.17767 L318.4324 118.01996 L320.93826 114.86224 L323.44412 111.70453 L325.94998 108.546814 L328.45584 105.3891 L330.9617 102.231384 L333.46756 99.07367 L335.97342 95.915955 L338.1665 93.152954 L339.85693 96.7782 L341.54736 100.40344 L343.2378 104.02869 L344.92822 107.65393 L346.61865 111.279175 L348.30908 114.90442 L349.9995 118.52966 L351.68994 122.15491 Z "/>
      </g>
      <g style="fill:none;stroke:#D072D5;stroke-width:3.0;">
        <path d="M315.92706 185.17783 L338.16702 157.1531 L351.6908 186.15497 L315.92706 185.17783 "/>
      </g>
      <g style="fill:none;stroke:#D072D5;stroke-width:3.0;">
        <path d="M351.69046 186.15506 L348.16473 186.05862 L344.13495 185.94852 L340.10516 185.83841 L336.07538 185.7283 L332.0456 185.6182 L328.0158 185.50809 L323.98602 185.39798 L320.45996 185.30164 L316.43018 185.19153 L315.92706 185.17783 L318.43292 182.02011 L320.93878 178.8624 L323.44464 175.70468 L325.9505 172.54697 L328.45636 169.38925 L330.96222 166.23154 L333.46808 163.07382 L335.97394 159.9161 L338.16702 157.1531 L339.85745 160.77835 L341.54788 164.4036 L343.2383 168.02884 L344.92874 171.65408 L346.61917 175.27933 L348.3096 178.90457 L350.00003 182.52982 L351.69046 186.15506 Z "/>
      </g>
      <g style="fill:none;stroke:#D066D5;stroke-width:3.0;">
        <path d="M315.92676 249.17789 L338.16675 221.15317 L351.69052 250.15506 L315.92676 249.17789 "/>
      </g>
      <g style="fill:none;stroke:#D56694;stroke-width:3.0;">
        <path d="M351.6902 250.15512 L348.16446 250.05872 L344.13467 249.94861 L340.1049 249.8385 L336.0751 249.7284 L332.04532 249.61829 L328.01553 249.50818 L323.98575 249.39807 L320.4597 249.30173 L316.4299 249.19162 L315.92676 249.17789 L318.43262 246.02017 L320.93848 242.86246 L323.44434 239.70474 L325.9502 236.54703 L328.45605 233.38931 L330.9619 230.2316 L333.46777 227.07388 L335.97363 223.91617 L338.16675 221.15317 L339.85718 224.77841 L341.5476 228.40366 L343.23804 232.0289 L344.92847 235.65414 L346.6189 239.27939 L348.30933 242.90463 L349.99976 246.52988 L351.6902 250.15512 Z "/>
      </g>
      <g style="fill:none;stroke:#D57E66;stroke-width:3.0;">
        <path d="M315.92517 313.1667 L338.1651 285.14197 L351.6889 314.14383 L315.92517 313.1667 "/>
      </g>
      <g style="fill:none;stroke:#D4BFD5;stroke-width:3.0;">
        <path d="M351.68854 314.14392 L348.16284 314.0475 L344.13306 313.93738 L340.10327 313.82727 L336.0735 313.71716 L332.0437 313.60706 L328.01392 313.49695 L323.98413 313.38684 L320.45807 313.2905 L316.42828 313.1804 L315.92517 313.1667 L318.43103 310.00897 L320.9369 306.85126 L323.44275 303.69354 L325.9486 300.53583 L328.45447 297.3781 L330.96033 294.2204 L333.4662 291.06268 L335.97205 287.90497 L338.1651 285.14197 L339.85553 288.7672 L341.54596 292.39246 L343.2364 296.0177 L344.92682 299.64294 L346.61725 303.2682 L348.30768 306.89343 L349.9981 310.51868 L351.68854 314.14392 Z "/>
      </g>
      <g style="fill:none;stroke:#D4BFD5;stroke-width:3.0;">
        <path d="M315.92673 377.17783 L338.16666 349.1531 L351.69046 378.15494 L315.92673 377.17783 "/>
      </g>
      <g style="fill:none;stroke:#D4BFD5;stroke-width:3.0;">
        <path d="M351.69028 378.15564 L348.1644 378.0586 L344.1346 377.9485 L340.10483 377.83838 L336.07504 377.72827 L332.04526 377.61816 L328.01547 377.50806 L323.9857 377.39795 L320.45963 377.3016 L316.42984 377.1915 L315.92673 377.17783 L318.4326 374.0201 L320.93845 370.8624 L323.4443 367.70468 L325.95016 364.54697 L328.45602 361.38925 L330.96188 358.23154 L333.46774 355.07382 L335.9736 351.9161 L338.16666 349.1531 L339.88394 352.83597 L341.60123 356.51883 L343.3185 360.2017 L344.82114 363.4242 L346.53842 367.10706 L348.2557 370.78992 L349.973 374.47278 L351.69028 378.15564 Z "/>
      </g>
      <g style="fill:none;stroke:#D4BFD5;stroke-width:3.0;">
        <path d="M409.92783 -61.362823 L380.07138 -81.07561 L407.78418 -97.07564 L409.92783 -61.362823 "/>
      </g>
      <g style="fill:none;stroke:#D3B2D5;stroke-width:3.0;">
        <path d="M409.92783 -61.362823 L406.5638 -63.583984 L403.1998 -65.805145 L399.8358 -68.026306 L396.47177 -70.24747 L393.10776 -72.46863 L389.74374 -74.68979 L386.37973 -76.91095 L383.01572 -79.13211 L380.07138 -81.07561 L383.5355 -83.07561 L386.9996 -85.07561 L390.4637 -87.07561 L393.92783 -89.07561 L397.39194 -91.07561 L400.85605 -93.07561 L404.32016 -95.07561 L407.78427 -97.075615 L407.99545 -93.55466 L408.2369 -89.53068 L408.47836 -85.5067 L408.71982 -81.48271 L408.96127 -77.458725 L409.20273 -73.43474 L409.44418 -69.41075 L409.65546 -65.88976 L409.8969 -61.865776 L409.92783 -61.362823 Z "/>
      </g>
      <g style="fill:none;stroke:#D3B2D5;stroke-width:3.0;">
        <path d="M409.9281 2.6371765 L380.07166 -17.075615 L407.78445 -33.075645 L409.9281 2.6371765 "/>
      </g>
      <g style="fill:none;stroke:#D3B2D5;stroke-width:3.0;">
        <path d="M409.9281 2.6371765 L406.5641 0.41604614 L403.20007 -1.8050842 L399.83606 -4.0262146 L396.47205 -6.247345 L393.10803 -8.468475 L389.74402 -10.689606 L386.38 -12.910736 L383.016 -15.131866 L380.07166 -17.075615 L383.53577 -19.075615 L386.99988 -21.075615 L390.464 -23.075615 L393.9281 -25.075615 L397.3922 -27.075615 L400.85632 -29.075615 L404.32043 -31.075615 L407.78455 -33.075615 L407.99573 -29.554657 L408.23718 -25.53067 L408.47864 -21.506683 L408.7201 -17.482697 L408.96155 -13.45871 L409.203 -9.434723 L409.44446 -5.410736 L409.65573 -1.8897476 L409.8972 2.1342392 L409.9281 2.6371765 Z "/>
      </g>
      <g style="fill:none;stroke:#D3B2D5;stroke-width:3.0;">
        <path d="M409.92822 66.63748 L380.07178 46.924683 L407.7846 30.924652 L409.92822 66.63748 "/>
      </g>
      <g style="fill:none;stroke:#D3A5D5;stroke-width:3.0;">
        <path d="M409.92822 66.63748 L406.5642 64.41629 L403.2002 62.1951 L399.83618 59.973907 L396.47217 57.752716 L393.10815 55.531525 L389.74414 53.310333 L386.38013 51.08914 L383.0161 48.86795 L380.07178 46.924683 L383.5359 44.924683 L387.0 42.924683 L390.4641 40.924683 L393.92822 38.924683 L397.39233 36.924683 L400.85645 34.924683 L404.32056 32.924683 L407.78467 30.924683 L407.99588 34.445587 L408.23734 38.469513 L408.4788 42.49344 L408.72025 46.517365 L408.9617 50.54129 L409.20316 54.565216 L409.4446 58.58914 L409.65588 62.110077 L409.89734 66.134 L409.92822 66.63748 Z "/>
      </g>
      <g style="fill:none;stroke:#D3A5D5;stroke-width:3.0;">
        <path d="M409.92776 130.63745 L380.07132 110.92467 L407.78412 94.92464 L409.92776 130.63745 "/>
      </g>
      <g style="fill:none;stroke:#D3A5D5;stroke-width:3.0;">
        <path d="M409.92776 130.63745 L406.56375 128.41626 L403.19974 126.19507 L399.83572 123.97388 L396.4717 121.752686 L393.1077 119.531494 L389.74368 117.3103 L386.37967 115.08911 L383.01566 112.86792 L380.07132 110.92467 L383.53543 108.92467 L386.99954 106.92467 L390.46365 104.92467 L393.92776 102.92467 L397.39188 100.92467 L400.856 98.92467 L404.3201 96.92467 L407.7842 94.92467 L407.9954 98.44557 L408.23685 102.4695 L408.4783 106.49342 L408.71976 110.51735 L408.9612 114.541275 L409.20267 118.5652 L409.44412 122.58913 L409.6554 126.11006 L409.89685 130.13399 L409.92776 130.63745 Z "/>
      </g>
      <g style="fill:none;stroke:#D3A5D5;stroke-width:3.0;">
        <path d="M409.93048 194.6384 L380.07404 174.92563 L407.78683 158.92557 L409.93048 194.6384 "/>
      </g>
      <g style="fill:none;stroke:#D298D5;stroke-width:3.0;">
        <path d="M409.93048 194.6384 L406.56647 192.4172 L403.20245 190.19601 L399.83844 187.97482 L396.47443 185.75363 L393.1104 183.53244 L389.7464 181.31125 L386.3824 179.09006 L383.01837 176.86887 L380.07404 174.92563 L383.53815 172.92563 L387.00226 170.92563 L390.46637 168.92563 L393.93048 166.92563 L397.3946 164.92563 L400.8587 162.92563 L404.3228 160.92563 L407.78693 158.92563 L407.9981 162.4465 L408.23956 166.47043 L408.48102 170.49435 L408.72247 174.51828 L408.96393 178.5422 L409.20538 182.56613 L409.44684 186.59006 L409.6581 190.111 L409.89957 194.13492 L409.93048 194.6384 Z "/>
      </g>
      <g style="fill:none;stroke:#D298D5;stroke-width:3.0;">
        <path d="M409.9308 258.63803 L380.07434 238.92523 L407.78717 222.9252 L409.9308 258.63803 "/>
      </g>
      <g style="fill:none;stroke:#D298D5;stroke-width:3.0;">
        <path d="M409.9308 258.63803 L406.56677 256.41684 L403.20276 254.19565 L399.83875 251.97446 L396.47473 249.75327 L393.11072 247.53207 L389.7467 245.31088 L386.3827 243.08969 L383.01868 240.8685 L380.07434 238.92523 L383.53845 236.92523 L387.00256 234.92523 L390.46667 232.92523 L393.9308 230.92523 L397.3949 228.92523 L400.859 226.92523 L404.32312 224.92523 L407.78723 222.92523 L407.99844 226.44614 L408.2399 230.47006 L408.48135 234.49399 L408.7228 238.51791 L408.96426 242.54184 L409.20572 246.56577 L409.44717 250.58969 L409.65845 254.11063 L409.8999 258.13455 L409.9308 258.63803 Z "/>
      </g>
      <g style="fill:none;stroke:#D298D5;stroke-width:3.0;">
        <path d="M409.91827 322.6312 L380.06183 302.9184 L407.77466 286.91837 L409.91827 322.6312 "/>
      </g>
      <g style="fill:none;stroke:#D28CD5;stroke-width:3.0;">
        <path d="M409.91827 322.6312 L406.55426 320.41 L403.19025 318.1888 L399.82623 315.96762 L396.46222 313.74643 L393.0982 311.52524 L389.7342 309.30405 L386.37018 307.08286 L383.00616 304.86166 L380.06183 302.9184 L383.52594 300.9184 L386.99005 298.9184 L390.45416 296.9184 L393.91827 294.9184 L397.3824 292.9184 L400.8465 290.9184 L404.3106 288.9184 L407.77472 286.9184 L407.98593 290.4393 L408.2274 294.46323 L408.46884 298.48715 L408.7103 302.51108 L408.95175 306.535 L409.1932 310.55893 L409.43466 314.58286 L409.64594 318.1038 L409.8874 322.12772 L409.91827 322.6312 Z "/>
      </g>
      <g style="fill:none;stroke:#D28CD5;stroke-width:3.0;">
        <path d="M409.92328 386.6335 L380.06683 366.92072 L407.7796 350.9207 L409.92328 386.6335 "/>
      </g>
      <g style="fill:none;stroke:#D28CD5;stroke-width:3.0;">
        <path d="M409.92328 386.6335 L406.55927 384.41232 L403.19525 382.19113 L399.83124 379.96994 L396.46722 377.74875 L393.1032 375.52756 L389.7392 373.30637 L386.37518 371.08517 L383.01117 368.86398 L380.06683 366.92072 L383.58588 364.88898 L387.10492 362.85724 L390.62396 360.8255 L393.70312 359.04773 L397.22217 357.016 L400.7412 354.98425 L404.26025 352.9525 L407.7793 350.92078 L407.99088 354.44162 L408.23233 358.46555 L408.4738 362.48947 L408.71524 366.5134 L408.9567 370.53732 L409.19815 374.56125 L409.4396 378.58517 L409.65088 382.1061 L409.89233 386.13004 L409.92328 386.6335 Z "/>
      </g>
      <g style="fill:none;stroke:#D28CD5;stroke-width:3.0;">
        <path d="M480.73654 -92.07352 L463.70087 -60.61267 L445.34644 -86.82553 L480.73654 -92.07352 "/>
      </g>
      <g style="fill:none;stroke:#D17FD5;stroke-width:3.0;">
        <path d="M463.70087 -60.61267 L461.37006 -63.941284 L459.03925 -67.2699 L456.70844 -70.59851 L454.66898 -73.51105 L452.33817 -76.83966 L450.00735 -80.168274 L447.67654 -83.49689 L445.34573 -86.8255 L448.83554 -87.34294 L452.8231 -87.934265 L456.81064 -88.52559 L460.7982 -89.11691 L464.78574 -89.70824 L468.7733 -90.29956 L472.76083 -90.890884 L476.24994 -91.408295 L480.2375 -91.99962 L480.73654 -92.07352 L478.8171 -88.52863 L476.89767 -84.98375 L474.97824 -81.43886 L473.0588 -77.89397 L471.13937 -74.349075 L469.21994 -70.804184 L467.3005 -67.25929 L465.38107 -63.7144 L463.70087 -60.61267 Z "/>
      </g>
      <g style="fill:none;stroke:#D17FD5;stroke-width:3.0;">
        <path d="M480.7359 -28.072693 L463.70023 3.388153 L445.3458 -22.824707 L480.7359 -28.072693 "/>
      </g>
      <g style="fill:none;stroke:#D17FD5;stroke-width:3.0;">
        <path d="M463.70023 3.388153 L461.36942 0.059539795 L459.0386 -3.2690735 L456.7078 -6.597687 L454.66833 -9.510223 L452.33752 -12.838837 L450.0067 -16.16745 L447.6759 -19.496063 L445.3451 -22.824677 L448.8349 -23.342102 L452.82245 -23.93341 L456.81 -24.52472 L460.79755 -25.116028 L464.7851 -25.707336 L468.77264 -26.298645 L472.7602 -26.889954 L476.2493 -27.407349 L480.23685 -27.998657 L480.7359 -28.072693 L478.81647 -24.527832 L476.89703 -20.982971 L474.9776 -17.43811 L473.05817 -13.8932495 L471.13873 -10.348389 L469.2193 -6.803528 L467.29987 -3.258667 L465.38043 0.28619385 L463.70023 3.388153 Z "/>
      </g>
      <g style="fill:none;stroke:#D17FD5;stroke-width:3.0;">
        <path d="M480.73727 35.926056 L463.7016 67.38687 L445.34717 41.17404 L480.73727 35.926056 "/>
      </g>
      <g style="fill:none;stroke:#D072D5;stroke-width:3.0;">
        <path d="M463.7016 67.38687 L461.3708 64.05826 L459.03998 60.729645 L456.70917 57.40103 L454.6697 54.488495 L452.3389 51.15988 L450.0081 47.83127 L447.67728 44.502655 L445.34647 41.17404 L448.83627 40.656647 L452.82382 40.06534 L456.81137 39.47403 L460.79892 38.88272 L464.78647 38.291412 L468.77402 37.700104 L472.76157 37.108795 L476.25067 36.5914 L480.23822 36.00009 L480.73727 35.926056 L478.81784 39.470978 L476.8984 43.0159 L474.97897 46.56082 L473.05954 50.105743 L471.1401 53.650665 L469.22067 57.195587 L467.30124 60.74051 L465.3818 64.28543 L463.7016 67.38687 Z "/>
      </g>
      <g style="fill:none;stroke:#D072D5;stroke-width:3.0;">
        <path d="M480.73822 99.92468 L463.70255 131.38553 L445.3481 105.17267 L480.73822 99.92468 "/>
      </g>
      <g style="fill:none;stroke:#D072D5;stroke-width:3.0;">
        <path d="M463.70255 131.38553 L461.37173 128.05692 L459.04092 124.7283 L456.7101 121.39969 L454.67065 118.48715 L452.33984 115.15854 L450.00903 111.829926 L447.67822 108.50131 L445.3474 105.1727 L448.83722 104.65527 L452.82477 104.063965 L456.81232 103.47266 L460.79987 102.88135 L464.7874 102.29004 L468.77496 101.69873 L472.7625 101.10742 L476.25162 100.59003 L480.23917 99.99872 L480.73822 99.92468 L478.8188 103.469604 L476.89935 107.01453 L474.97992 110.55945 L473.0605 114.10437 L471.14105 117.64929 L469.22162 121.194214 L467.3022 124.739136 L465.38275 128.28406 L463.70255 131.38553 Z "/>
      </g>
      <g style="fill:none;stroke:#D072D5;stroke-width:3.0;">
        <path d="M480.735 163.92694 L463.69934 195.38782 L445.3449 169.17499 L480.735 163.92694 "/>
      </g>
      <g style="fill:none;stroke:#D066D5;stroke-width:3.0;">
        <path d="M463.69934 195.38782 L461.36853 192.0592 L459.03772 188.73059 L456.7069 185.40198 L454.66745 182.48944 L452.33664 179.16083 L450.00583 175.83221 L447.67502 172.5036 L445.3442 169.17499 L448.834 168.6576 L452.82156 168.06628 L456.8091 167.47498 L460.79666 166.88367 L464.7842 166.29236 L468.77176 165.70105 L472.7593 165.10974 L476.2484 164.59235 L480.23596 164.00104 L480.735 163.92694 L478.81555 167.47186 L476.89612 171.01678 L474.97668 174.5617 L473.05725 178.10663 L471.13782 181.65155 L469.21838 185.19647 L467.29895 188.7414 L465.37952 192.28632 L463.69934 195.38782 Z "/>
      </g>
      <g style="fill:none;stroke:#D56694;stroke-width:3.0;">
        <path d="M480.73712 227.9259 L463.70148 259.38678 L445.34705 233.17389 L480.73712 227.9259 "/>
      </g>
      <g style="fill:none;stroke:#D57E66;stroke-width:3.0;">
        <path d="M463.70148 259.38678 L461.4073 256.11017 L459.1131 252.83356 L456.8189 249.55695 L454.52472 246.28033 L452.23053 243.00372 L449.93634 239.72711 L447.64215 236.4505 L445.34796 233.17389 L448.83615 232.6565 L452.8237 232.06519 L456.81125 231.47388 L460.7988 230.88257 L464.78635 230.29126 L468.7739 229.69995 L472.76144 229.10864 L476.25055 228.59125 L480.2381 227.99994 L480.73712 227.9259 L478.8177 231.47083 L476.89825 235.01575 L474.97882 238.56067 L473.0594 242.10559 L471.13995 245.65051 L469.22052 249.19543 L467.3011 252.74036 L465.38165 256.28528 L463.70148 259.38678 Z "/>
      </g>
      <g style="fill:none;stroke:#D4BFD5;stroke-width:3.0;">
        <path d="M480.73474 291.92688 L463.6991 323.38776 L445.34467 297.17487 L480.73474 291.92688 "/>
      </g>
      <g style="fill:none;stroke:#D4BFD5;stroke-width:3.0;">
        <path d="M463.6991 323.38776 L461.4049 320.11115 L459.11072 316.83453 L456.81653 313.55792 L454.52234 310.2813 L452.22815 307.0047 L449.93396 303.7281 L447.63977 300.45148 L445.34558 297.17487 L448.83377 296.65747 L452.82132 296.06616 L456.80887 295.47485 L460.79642 294.88354 L464.78397 294.29224 L468.7715 293.70093 L472.75906 293.10962 L476.24817 292.59222 L480.23572 292.00092 L480.73474 291.92688 L478.8153 295.4718 L476.89587 299.01672 L474.97644 302.56165 L473.057 306.10657 L471.13757 309.6515 L469.21814 313.1964 L467.2987 316.74133 L465.37927 320.28625 L463.6991 323.38776 Z "/>
      </g>
      <g style="fill:none;stroke:#D4BFD5;stroke-width:3.0;">
        <path d="M480.73672 355.9258 L463.70108 387.38663 L445.34665 361.1738 L480.73672 355.9258 "/>
      </g>
      <g style="fill:none;stroke:#D4BFD5;stroke-width:3.0;">
        <path d="M463.70108 387.38663 L461.37027 384.058 L459.03946 380.7294 L456.70865 377.4008 L454.6692 374.48825 L452.33838 371.15964 L450.00757 367.83102 L447.67676 364.5024 L445.34595 361.1738 L448.83575 360.6564 L452.8233 360.0651 L456.81085 359.4738 L460.7984 358.88248 L464.78595 358.29117 L468.7735 357.69986 L472.76105 357.10855 L476.25015 356.59116 L480.2377 355.99985 L480.73672 355.9258 L478.8173 359.47073 L476.89786 363.01566 L474.97842 366.56058 L473.059 370.1055 L471.13956 373.65042 L469.22012 377.19534 L467.3007 380.74026 L465.38126 384.2852 L463.70108 387.38663 Z "/>
      </g>
    </g>
  </g>
</svg>
