<?xml version="1.0" encoding="UTF-8"?>
<svg xmlns="http://www.w3.org/2000/svg" height="288px" version="1.1" width="480px">
  <g style="fill:#FFE0EE;stroke:none;">
    <path d="M0.0 0.0 L480.0 0.0 L480.0 288.0 L0.0 288.0 L0.0 0.0 "/>
    <g style="">
      <g style="fill:#C76DFF;stroke:none;">
        <path d="M-2302.5 -2636.5 L-1963.5 -2636.5 L-1963.5 -2297.5 L-2302.5 -2297.5 L-2302.5 -2636.5 "/>
      </g>
      <g style="fill:#6DFFF4;stroke:none;">
        <path d="M-2302.5 -1890.5 L-1963.5 -1890.5 L-1963.5 -1551.5 L-2302.5 -1551.5 L-2302.5 -1890.5 "/>
      </g>
      <g style="fill:#FFA9D0;stroke:none;">
        <path d="M-2302.5 -1144.5 L-1963.5 -1144.5 L-1963.5 -805.5 L-2302.5 -805.5 L-2302.5 -1144.5 "/>
      </g>
      <g style="fill:#DCFF6D;stroke:none;">
        <path d="M-2302.5 -398.5 L-1963.5 -398.5 L-1963.5 -59.5 L-2302.5 -59.5 L-2302.5 -398.5 "/>
      </g>
      <g style="fill:#FFA9D0;stroke:none;">
        <path d="M-2302.5 347.5 L-1963.5 347.5 L-1963.5 686.5 L-2302.5 686.5 L-2302.5 347.5 "/>
      </g>
      <g style="fill:#FF9A6D;stroke:none;">
        <path d="M-2302.5 1093.5 L-1963.5 1093.5 L-1963.5 1432.5 L-2302.5 1432.5 L-2302.5 1093.5 "/>
      </g>
      <g style="fill:#FFA9D0;stroke:none;">
        <path d="M-2302.5 1839.5 L-1963.5 1839.5 L-1963.5 2178.5 L-2302.5 2178.5 L-2302.5 1839.5 "/>
      </g>
      <g style="fill:#FF6DAF;stroke:none;">
        <path d="M-2302.5 2585.5 L-1963.5 2585.5 L-1963.5 2924.5 L-2302.5 2924.5 L-2302.5 2585.5 "/>
      </g>
      <g style="fill:#FFA9D0;stroke:none;">
        <path d="M-1624.5 -2636.5 L-1285.5 -2636.5 L-1285.5 -2297.5 L-1624.5 -2297.5 L-1624.5 -2636.5 "/>
      </g>
      <g style="fill:#FFE1EF;stroke:none;">
        <path d="M-1624.5 -1890.5 L-1285.5 -1890.5 L-1285.5 -1551.5 L-1624.5 -1551.5 L-1624.5 -1890.5 "/>
      </g>
      <g style="fill:#FFA9D0;stroke:none;">
        <path d="M-1624.5 -1144.5 L-1285.5 -1144.5 L-1285.5 -805.5 L-1624.5 -805.5 L-1624.5 -1144.5 "/>
      </g>
      <g style="fill:#FFE1EF;stroke:none;">
        <path d="M-1624.5 -398.5 L-1285.5 -398.5 L-1285.5 -59.5 L-1624.5 -59.5 L-1624.5 -398.5 "/>
      </g>
      <g style="fill:#FFCAE2;stroke:none;">
        <path d="M-1624.5 347.5 L-1285.5 347.5 L-1285.5 686.5 L-1624.5 686.5 L-1624.5 347.5 "/>
      </g>
      <g style="fill:#FFE1EF;stroke:none;">
        <path d="M-1624.5 1093.5 L-1285.5 1093.5 L-1285.5 1432.5 L-1624.5 1432.5 L-1624.5 1093.5 "/>
      </g>
      <g style="fill:#FFCAE2;stroke:none;">
        <path d="M-1624.5 1839.5 L-1285.5 1839.5 L-1285.5 2178.5 L-1624.5 2178.5 L-1624.5 1839.5 "/>
      </g>
      <g style="fill:#FFE1EF;stroke:none;">
        <path d="M-1624.5 2585.5 L-1285.5 2585.5 L-1285.5 2924.5 L-1624.5 2924.5 L-1624.5 2585.5 "/>
      </g>
      <g style="fill:#FFCAE2;stroke:none;">
        <path d="M-946.5 -2636.5 L-607.5 -2636.5 L-607.5 -2297.5 L-946.5 -2297.5 L-946.5 -2636.5 "/>
      </g>
      <g style="fill:#FFE1EF;stroke:none;">
        <path d="M-946.5 -1890.5 L-607.5 -1890.5 L-607.5 -1551.5 L-946.5 -1551.5 L-946.5 -1890.5 "/>
      </g>
      <g style="fill:#FFCAE2;stroke:none;">
        <path d="M-946.5 -1144.5 L-607.5 -1144.5 L-607.5 -805.5 L-946.5 -805.5 L-946.5 -1144.5 "/>
      </g>
      <g style="fill:#FFE1EF;stroke:none;">
        <path d="M-946.5 -398.5 L-607.5 -398.5 L-607.5 -59.5 L-946.5 -59.5 L-946.5 -398.5 "/>
      </g>
      <g style="fill:#FFCAE2;stroke:none;">
        <path d="M-946.5 347.5 L-607.5 347.5 L-607.5 686.5 L-946.5 686.5 L-946.5 347.5 "/>
      </g>
      <g style="fill:#FFE1EF;stroke:none;">
        <path d="M-946.5 1093.5 L-607.5 1093.5 L-607.5 1432.5 L-946.5 1432.5 L-946.5 1093.5 "/>
      </g>
      <g style="fill:#FFDAEB;stroke:none;">
        <path d="M-946.5 1839.5 L-607.5 1839.5 L-607.5 2178.5 L-946.5 2178.5 L-946.5 1839.5 "/>
      </g>
      <g style="fill:#FFE1EF;stroke:none;">
        <path d="M-946.5 2585.5 L-607.5 2585.5 L-607.5 2924.5 L-946.5 2924.5 L-946.5 2585.5 "/>
      </g>
      <g style="fill:#FFDAEB;stroke:none;">
        <path d="M-268.5 -2636.5 L70.5 -2636.5 L70.5 -2297.5 L-268.5 -2297.5 L-268.5 -2636.5 "/>
      </g>
      <g style="fill:#FFE1EF;stroke:none;">
        <path d="M-268.5 -1890.5 L70.5 -1890.5 L70.5 -1551.5 L-268.5 -1551.5 L-268.5 -1890.5 "/>
      </g>
      <g style="fill:#FFDAEB;stroke:none;">
        <path d="M-268.5 -1144.5 L70.5 -1144.5 L70.5 -805.5 L-268.5 -805.5 L-268.5 -1144.5 "/>
      </g>
      <g style="fill:#FFE1EF;stroke:none;">
        <path d="M-268.5 -398.5 L70.5 -398.5 L70.5 -59.5 L-268.5 -59.5 L-268.5 -398.5 "/>
      </g>
      <g style="fill:#FFDAEB;stroke:none;">
        <path d="M-268.5 347.5 L70.5 347.5 L70.5 686.5 L-268.5 686.5 L-268.5 347.5 "/>
      </g>
      <g style="fill:#FFDAEB;stroke:none;">
        <path d="M-268.5 1093.5 L70.5 1093.5 L70.5 1432.5 L-268.5 1432.5 L-268.5 1093.5 "/>
      </g>
      <g style="fill:#C76DFF;stroke:none;">
        <path d="M-268.5 1839.5 L70.5 1839.5 L70.5 2178.5 L-268.5 2178.5 L-268.5 1839.5 "/>
      </g>
      <g style="fill:#6DFFF4;stroke:none;">
        <path d="M-268.5 2585.5 L70.5 2585.5 L70.5 2924.5 L-268.5 2924.5 L-268.5 2585.5 "/>
      </g>
      <g style="fill:#FFA9D0;stroke:none;">
        <path d="M409.5 -2636.5 L748.5 -2636.5 L748.5 -2297.5 L409.5 -2297.5 L409.5 -2636.5 "/>
      </g>
      <g style="fill:#DCFF6D;stroke:none;">
        <path d="M409.5 -1890.5 L748.5 -1890.5 L748.5 -1551.5 L409.5 -1551.5 L409.5 -1890.5 "/>
      </g>
      <g style="fill:#FFA9D0;stroke:none;">
        <path d="M409.5 -1144.5 L748.5 -1144.5 L748.5 -805.5 L409.5 -805.5 L409.5 -1144.5 "/>
      </g>
      <g style="fill:#FF9A6D;stroke:none;">
        <path d="M409.5 -398.5 L748.5 -398.5 L748.5 -59.5 L409.5 -59.5 L409.5 -398.5 "/>
      </g>
      <g style="fill:#FFA9D0;stroke:none;">
        <path d="M409.5 347.5 L748.5 347.5 L748.5 686.5 L409.5 686.5 L409.5 347.5 "/>
      </g>
      <g style="fill:#FF6DAF;stroke:none;">
        <path d="M409.5 1093.5 L748.5 1093.5 L748.5 1432.5 L409.5 1432.5 L409.5 1093.5 "/>
      </g>
      <g style="fill:#FFA9D0;stroke:none;">
        <path d="M409.5 1839.5 L748.5 1839.5 L748.5 2178.5 L409.5 2178.5 L409.5 1839.5 "/>
      </g>
      <g style="fill:#FFE1EF;stroke:none;">
        <path d="M409.5 2585.5 L748.5 2585.5 L748.5 2924.5 L409.5 2924.5 L409.5 2585.5 "/>
      </g>
      <g style="fill:#FFA9D0;stroke:none;">
        <path d="M1087.5 -2636.5 L1426.5 -2636.5 L1426.5 -2297.5 L1087.5 -2297.5 L1087.5 -2636.5 "/>
      </g>
      <g style="fill:#FFE1EF;stroke:none;">
        <path d="M1087.5 -1890.5 L1426.5 -1890.5 L1426.5 -1551.5 L1087.5 -1551.5 L1087.5 -1890.5 "/>
      </g>
      <g style="fill:#FFCAE2;stroke:none;">
        <path d="M1087.5 -1144.5 L1426.5 -1144.5 L1426.5 -805.5 L1087.5 -805.5 L1087.5 -1144.5 "/>
      </g>
      <g style="fill:#FFE1EF;stroke:none;">
        <path d="M1087.5 -398.5 L1426.5 -398.5 L1426.5 -59.5 L1087.5 -59.5 L1087.5 -398.5 "/>
      </g>
      <g style="fill:#FFCAE2;stroke:none;">
        <path d="M1087.5 347.5 L1426.5 347.5 L1426.5 686.5 L1087.5 686.5 L1087.5 347.5 "/>
      </g>
      <g style="fill:#FFE1EF;stroke:none;">
        <path d="M1087.5 1093.5 L1426.5 1093.5 L1426.5 1432.5 L1087.5 1432.5 L1087.5 1093.5 "/>
      </g>
      <g style="fill:#FFCAE2;stroke:none;">
        <path d="M1087.5 1839.5 L1426.5 1839.5 L1426.5 2178.5 L1087.5 2178.5 L1087.5 1839.5 "/>
      </g>
      <g style="fill:#FFE1EF;stroke:none;">
        <path d="M1087.5 2585.5 L1426.5 2585.5 L1426.5 2924.5 L1087.5 2924.5 L1087.5 2585.5 "/>
      </g>
      <g style="fill:#FFCAE2;stroke:none;">
        <path d="M1765.5 -2636.5 L2104.5 -2636.5 L2104.5 -2297.5 L1765.5 -2297.5 L1765.5 -2636.5 "/>
      </g>
      <g style="fill:#FFE1EF;stroke:none;">
        <path d="M1765.5 -1890.5 L2104.5 -1890.5 L2104.5 -1551.5 L1765.5 -1551.5 L1765.5 -1890.5 "/>
      </g>
      <g style="fill:#FFCAE2;stroke:none;">
        <path d="M1765.5 -1144.5 L2104.5 -1144.5 L2104.5 -805.5 L1765.5 -805.5 L1765.5 -1144.5 "/>
      </g>
      <g style="fill:#FFE1EF;stroke:none;">
        <path d="M1765.5 -398.5 L2104.5 -398.5 L2104.5 -59.5 L1765.5 -59.5 L1765.5 -398.5 "/>
      </g>
      <g style="fill:#FFDAEB;stroke:none;">
        <path d="M1765.5 347.5 L2104.5 347.5 L2104.5 686.5 L1765.5 686.5 L1765.5 347.5 "/>
      </g>
      <g style="fill:#FFE1EF;stroke:none;">
        <path d="M1765.5 1093.5 L2104.5 1093.5 L2104.5 1432.5 L1765.5 1432.5 L1765.5 1093.5 "/>
      </g>
      <g style="fill:#FFDAEB;stroke:none;">
        <path d="M1765.5 1839.5 L2104.5 1839.5 L2104.5 2178.5 L1765.5 2178.5 L1765.5 1839.5 "/>
      </g>
      <g style="fill:#FFE1EF;stroke:none;">
        <path d="M1765.5 2585.5 L2104.5 2585.5 L2104.5 2924.5 L1765.5 2924.5 L1765.5 2585.5 "/>
      </g>
      <g style="fill:#FFDAEB;stroke:none;">
        <path d="M2443.5 -2636.5 L2782.5 -2636.5 L2782.5 -2297.5 L2443.5 -2297.5 L2443.5 -2636.5 "/>
      </g>
      <g style="fill:#FFE1EF;stroke:none;">
        <path d="M2443.5 -1890.5 L2782.5 -1890.5 L2782.5 -1551.5 L2443.5 -1551.5 L2443.5 -1890.5 "/>
      </g>
      <g style="fill:#FFDAEB;stroke:none;">
        <path d="M2443.5 -1144.5 L2782.5 -1144.5 L2782.5 -805.5 L2443.5 -805.5 L2443.5 -1144.5 "/>
      </g>
      <g style="fill:#FFDAEB;stroke:none;">
        <path d="M2443.5 -398.5 L2782.5 -398.5 L2782.5 -59.5 L2443.5 -59.5 L2443.5 -398.5 "/>
      </g>
      <g style="fill:#C76DFF;stroke:none;">
        <path d="M2443.5 347.5 L2782.5 347.5 L2782.5 686.5 L2443.5 686.5 L2443.5 347.5 "/>
      </g>
      <g style="fill:#6DFFF4;stroke:none;">
        <path d="M2443.5 1093.5 L2782.5 1093.5 L2782.5 1432.5 L2443.5 1432.5 L2443.5 1093.5 "/>
      </g>
      <g style="fill:#FFA9D0;stroke:none;">
        <path d="M2443.5 1839.5 L2782.5 1839.5 L2782.5 2178.5 L2443.5 2178.5 L2443.5 1839.5 "/>
      </g>
      <g style="fill:#DCFF6D;stroke:none;">
        <path d="M2443.5 2585.5 L2782.5 2585.5 L2782.5 2924.5 L2443.5 2924.5 L2443.5 2585.5 "/>
      </g>
    </g>
  </g>
</svg>
