<?xml version="1.0" encoding="UTF-8"?>
<svg xmlns="http://www.w3.org/2000/svg" height="288px" version="1.1" width="480px">
  <g style="fill:#191919;stroke:none;">
    <path d="M0.0 0.0 L480.0 0.0 L480.0 288.0 L0.0 288.0 L0.0 0.0 "/>
    <g style="">
      <g style="fill:#9BFF64;stroke:none;">
        <path d="M915.7483 -481.18732 C916.56744 -457.7295 898.2152 -438.04913 874.7574 -437.22998 C851.29956 -436.41083 831.61926 -454.76306 830.80005 -478.22083 C829.9809 -501.67865 848.3331 -521.359 871.7909 -522.1782 C895.2488 -522.9974 914.92914 -504.64514 915.7483 -481.18732 Z "/>
      </g>
      <g style="fill:#FF64C2;stroke:none;">
        <path d="M728.8622 -474.66107 C729.6814 -451.2033 711.3291 -431.52295 687.87134 -430.7038 C664.4135 -429.88458 644.73315 -448.23682 643.914 -471.69464 C643.09485 -495.15247 661.447 -514.8328 684.9049 -515.652 C708.3627 -516.4711 728.043 -498.1189 728.8622 -474.66107 Z "/>
      </g>
      <g style="fill:#64E8FF;stroke:none;">
        <path d="M541.97614 -468.1349 C542.7953 -444.67706 524.44305 -424.9967 500.98523 -424.17755 C477.52744 -423.3584 457.84705 -441.71063 457.0279 -465.16846 C456.20874 -488.62628 474.56097 -508.30664 498.0188 -509.1258 C521.47656 -509.94495 541.157 -491.5927 541.97614 -468.1349 Z "/>
      </g>
      <g style="fill:#6DE9FF;stroke:none;">
        <path d="M355.09003 -461.6087 C355.9092 -438.15088 337.55695 -418.47052 314.09915 -417.65137 C290.64136 -416.8322 270.96097 -435.18445 270.1418 -458.6422 C269.32263 -482.10004 287.67487 -501.7804 311.1327 -502.59955 C334.5905 -503.41876 354.27087 -485.06653 355.09003 -461.6087 Z "/>
      </g>
      <g style="fill:#6DE9FF;stroke:none;">
        <path d="M168.20395 -455.08246 C169.02312 -431.6247 150.67087 -411.94434 127.21306 -411.12518 C103.75525 -410.30597 84.07489 -428.6582 83.25574 -452.11603 C82.436554 -475.57385 100.78879 -495.2542 124.2466 -496.07336 C147.7044 -496.89252 167.38478 -478.54028 168.20395 -455.08246 Z "/>
      </g>
      <g style="fill:#6DE9FF;stroke:none;">
        <path d="M-18.682129 -448.55627 C-17.862976 -425.09845 -36.21521 -405.4181 -59.673035 -404.59894 C-83.13083 -403.7798 -102.81119 -422.13202 -103.63034 -445.58984 C-104.449524 -469.04767 -86.09729 -488.72803 -62.639496 -489.54718 C-39.18167 -490.36633 -19.501312 -472.0141 -18.682129 -448.55627 Z "/>
      </g>
      <g style="fill:#76EBFF;stroke:none;">
        <path d="M-205.56824 -442.0301 C-204.74908 -418.57227 -223.10138 -398.8919 -246.55908 -398.07275 C-270.01685 -397.2536 -289.69727 -415.60583 -290.51642 -439.0636 C-291.33557 -462.52142 -272.98328 -482.20178 -249.52551 -483.02094 C-226.06781 -483.84015 -206.38739 -465.4879 -205.56824 -442.0301 Z "/>
      </g>
      <g style="fill:#76EBFF;stroke:none;">
        <path d="M-392.45428 -435.50385 C-391.63513 -412.04608 -409.98743 -392.36572 -433.4452 -391.54657 C-456.90295 -390.72736 -476.58337 -409.0796 -477.40253 -432.5374 C-478.22168 -455.99524 -459.8694 -475.6756 -436.41162 -476.49475 C-412.95386 -477.3139 -393.27344 -458.96167 -392.45428 -435.50385 Z "/>
      </g>
      <g style="fill:#76EBFF;stroke:none;">
        <path d="M910.28973 -280.82275 C894.2818 -263.65637 867.3887 -262.71722 850.2223 -278.72516 C833.0559 -294.7331 832.11676 -321.62622 848.12463 -338.79263 C864.13257 -355.95905 891.02576 -356.89813 908.19214 -340.89023 C925.3585 -324.88226 926.29767 -297.98917 910.28973 -280.82275 Z "/>
      </g>
      <g style="fill:#7EECFF;stroke:none;">
        <path d="M723.40356 -274.2966 C707.3956 -257.1302 680.5025 -256.19104 663.33606 -272.19897 C646.1697 -288.20694 645.2306 -315.10004 661.23846 -332.26645 C677.24646 -349.43286 704.1395 -350.372 721.3059 -334.36407 C738.47235 -318.3561 739.4115 -291.463 723.40356 -274.2966 Z "/>
      </g>
      <g style="fill:#7EECFF;stroke:none;">
        <path d="M536.51746 -267.77026 C520.5095 -250.60385 493.6164 -249.66473 476.45 -265.67267 C459.28357 -281.6806 458.34445 -308.57373 474.35242 -325.7401 C490.36035 -342.90656 517.2534 -343.84564 534.41986 -327.8377 C551.58624 -311.82977 552.5254 -284.9367 536.51746 -267.77026 Z "/>
      </g>
      <g style="fill:#7EECFF;stroke:none;">
        <path d="M349.63147 -261.2439 C333.62354 -244.07747 306.7304 -243.13838 289.56403 -259.1463 C272.39758 -275.15424 271.45847 -302.04736 287.4664 -319.21378 C303.47437 -336.3802 330.36743 -337.31927 347.53387 -321.31134 C364.7003 -305.3034 365.6394 -278.4103 349.63147 -261.2439 Z "/>
      </g>
      <g style="fill:#87EDFF;stroke:none;">
        <path d="M162.74553 -254.72025 C146.73758 -237.55383 119.84448 -236.61469 102.6781 -252.62262 C85.51166 -268.63055 84.57254 -295.52368 100.580505 -312.69012 C116.58841 -329.8565 143.48157 -330.79562 160.648 -314.78766 C177.8144 -298.77972 178.75348 -271.88666 162.74553 -254.72025 Z "/>
      </g>
      <g style="fill:#87EDFF;stroke:none;">
        <path d="M-24.140594 -248.1927 C-40.1485 -231.02629 -67.04166 -230.08719 -84.20798 -246.09506 C-101.3743 -262.10306 -102.31357 -288.99612 -86.30563 -306.16254 C-70.29767 -323.32898 -43.40451 -324.2681 -26.238129 -308.26016 C-9.071777 -292.25226 -8.132629 -265.35913 -24.140594 -248.1927 Z "/>
      </g>
      <g style="fill:#87EDFF;stroke:none;">
        <path d="M-211.02686 -241.6649 C-227.03497 -224.49847 -253.9281 -223.55942 -271.09448 -239.56735 C-288.26086 -255.57518 -289.19995 -282.46832 -273.19208 -299.63477 C-257.18408 -316.80115 -230.29095 -317.7403 -213.12451 -301.73242 C-195.95819 -285.72452 -195.0191 -258.8313 -211.02686 -241.6649 Z "/>
      </g>
      <g style="fill:#90EEFF;stroke:none;">
        <path d="M-397.9129 -235.14009 C-413.92072 -217.9737 -440.8139 -217.03462 -457.9803 -233.04243 C-475.1466 -249.0504 -476.08588 -275.94354 -460.07788 -293.10995 C-444.07 -310.27637 -417.17682 -311.21545 -400.01038 -295.20758 C-382.84412 -279.19965 -381.90485 -252.30653 -397.9129 -235.14009 Z "/>
      </g>
      <g style="fill:#90EEFF;stroke:none;">
        <path d="M886.62384 -97.436714 C863.166 -96.617546 843.4857 -114.96979 842.6665 -138.4276 C841.84735 -161.88538 860.1996 -181.56573 883.6574 -182.3849 C907.11523 -183.20407 926.7956 -164.85184 927.61475 -141.39401 C928.4339 -117.93624 910.08167 -98.255875 886.62384 -97.436714 Z "/>
      </g>
      <g style="fill:#90EEFF;stroke:none;">
        <path d="M699.7374 -90.910706 C676.27954 -90.09154 656.59924 -108.44378 655.78 -131.90158 C654.9609 -155.3594 673.3131 -175.0398 696.77094 -175.85896 C720.22876 -176.67813 739.90906 -158.32585 740.7283 -134.86804 C741.5474 -111.41023 723.1952 -91.72987 699.7374 -90.910706 Z "/>
      </g>
      <g style="fill:#99F0FF;stroke:none;">
        <path d="M512.8517 -84.38717 C489.39386 -83.56801 469.71347 -101.92024 468.89432 -125.37805 C468.07513 -148.83586 486.42737 -168.51624 509.8852 -169.33539 C533.343 -170.15456 553.0234 -151.80229 553.8425 -128.34448 C554.6617 -104.88667 536.30945 -85.20633 512.8517 -84.38717 Z "/>
      </g>
      <g style="fill:#99F0FF;stroke:none;">
        <path d="M325.96478 -77.85724 C302.5069 -77.03807 282.8266 -95.39032 282.00745 -118.84812 C281.18826 -142.30594 299.54047 -161.9863 322.99832 -162.80547 C346.45605 -163.62463 366.1365 -145.27238 366.95566 -121.81458 C367.7748 -98.35677 349.42252 -78.67641 325.96478 -77.85724 Z "/>
      </g>
      <g style="fill:#99F0FF;stroke:none;">
        <path d="M139.0786 -71.33348 C115.62079 -70.51431 95.94043 -88.86655 95.12128 -112.324356 C94.30209 -135.78217 112.65433 -155.46252 136.11214 -156.2817 C159.56995 -157.10086 179.25034 -138.74863 180.06949 -115.29082 C180.88866 -91.83301 162.5364 -72.15264 139.0786 -71.33348 Z "/>
      </g>
      <g style="fill:#A2F1FF;stroke:none;">
        <path d="M-47.806976 -64.80631 C-71.26471 -63.98715 -90.94513 -82.339386 -91.76428 -105.797195 C-92.583466 -129.255 -74.23117 -148.93536 -50.773438 -149.75453 C-27.315552 -150.5737 -7.635254 -132.22147 -6.8160706 -108.76365 C-5.9969177 -85.30585 -24.34909 -65.62548 -47.806976 -64.80631 Z "/>
      </g>
      <g style="fill:#A2F1FF;stroke:none;">
        <path d="M-234.69366 -58.278374 C-258.15143 -57.459213 -277.83185 -75.81151 -278.65106 -99.26926 C-279.4702 -122.727005 -261.11792 -142.40744 -237.66016 -143.2266 C-214.20233 -144.04576 -194.52203 -125.69346 -193.70288 -102.23571 C-192.88367 -78.77797 -211.23584 -59.09754 -234.69366 -58.278374 Z "/>
      </g>
      <g style="fill:#A2F1FF;stroke:none;">
        <path d="M-421.58002 -51.751915 C-445.0379 -50.932747 -464.7182 -69.28505 -465.5374 -92.7428 C-466.35657 -116.20055 -448.0044 -135.88097 -424.5465 -136.70013 C-401.08875 -137.5193 -381.40833 -119.167 -380.58917 -95.70925 C-379.76996 -72.25151 -398.12225 -52.571075 -421.58002 -51.751915 Z "/>
      </g>
      <g style="fill:#9BFF64;stroke:none;">
        <path d="M862.0883 61.067856 C844.9219 45.05992 843.9828 18.166878 859.9907 1.0004578 C875.99866 -16.165985 902.8918 -17.10511 920.0582 -1.0971451 C937.2246 14.910797 938.16376 41.803833 922.1558 58.970245 C906.1478 76.13667 879.2547 77.075806 862.0883 61.067856 Z "/>
      </g>
      <g style="fill:#FF64C2;stroke:none;">
        <path d="M675.20233 67.593994 C658.0359 51.58606 657.0968 24.692963 673.10474 7.526535 C689.1127 -9.63987 716.00574 -10.579002 733.17224 5.42894 C750.3386 21.436882 751.2777 48.32997 735.2698 65.49638 C719.26184 82.66281 692.3688 83.601944 675.20233 67.593994 Z "/>
      </g>
      <g style="fill:#64E8FF;stroke:none;">
        <path d="M488.31628 74.11928 C471.14987 58.111343 470.21075 31.218185 486.2187 14.051765 C502.22662 -3.114647 529.1197 -4.053772 546.28613 11.954163 C563.4525 27.962112 564.39166 54.85527 548.3837 72.02168 C532.3758 89.188095 505.4827 90.12723 488.31628 74.11928 Z "/>
      </g>
      <g style="fill:#6DE9FF;stroke:none;">
        <path d="M301.43134 80.645935 C284.26492 64.638 283.32587 37.744904 299.33374 20.578545 C315.34167 3.4121323 342.23483 2.4729385 359.40125 18.48088 C376.56766 34.488815 377.5068 61.381912 361.49884 78.548325 C345.4909 95.71475 318.59775 96.653885 301.43134 80.645935 Z "/>
      </g>
      <g style="fill:#6DE9FF;stroke:none;">
        <path d="M114.54236 87.17297 C97.375946 71.16504 96.43677 44.272003 112.4447 27.10559 C128.45264 9.939171 155.34572 9.000046 172.51215 25.00798 C189.67856 41.01593 190.61769 67.90903 174.60976 85.07544 C158.6018 102.24187 131.70877 103.18092 114.54236 87.17297 Z "/>
      </g>
      <g style="fill:#6DE9FF;stroke:none;">
        <path d="M-72.33603 93.692184 C-89.50247 77.68425 -90.44159 50.791092 -74.433716 33.6248 C-58.42575 16.458267 -31.532654 15.519142 -14.366272 31.527084 C2.800171 47.53502 3.7392883 74.42818 -12.268646 91.59459 C-28.27652 108.760895 -55.169617 109.700134 -72.33603 93.692184 Z "/>
      </g>
      <g style="fill:#76EBFF;stroke:none;">
        <path d="M-259.2149 100.208374 C-276.38135 84.200424 -277.3203 57.30728 -261.3125 40.14099 C-245.30457 22.974571 -218.41144 22.035439 -201.245 38.04338 C-184.07855 54.05133 -183.1394 80.94447 -199.1474 98.11078 C-215.15533 115.27707 -242.04846 116.21631 -259.2149 100.208374 Z "/>
      </g>
      <g style="fill:#76EBFF;stroke:none;">
        <path d="M-446.136 106.77489 C-463.30237 90.76695 -464.2414 63.873795 -448.23358 46.707504 C-432.22577 29.541214 -405.33246 28.60196 -388.16608 44.609894 C-370.99963 60.617844 -370.0606 87.511 -386.0686 104.67729 C-402.07642 121.843704 -428.9696 122.78284 -446.136 106.77489 Z "/>
      </g>
      <g style="fill:#76EBFF;stroke:none;">
        <path d="M854.5319 201.36565 C853.71277 177.90785 872.065 158.22746 895.52277 157.40828 C918.9806 156.58913 938.66095 174.94139 939.48016 198.39919 C940.2993 221.85701 921.9471 241.53737 898.48926 242.35652 C875.0315 243.1757 855.3511 224.82347 854.5319 201.36565 Z "/>
      </g>
      <g style="fill:#7EECFF;stroke:none;">
        <path d="M667.6459 207.8911 C666.82666 184.4333 685.17896 164.75291 708.6367 163.93376 C732.09454 163.11461 751.7749 181.46687 752.59406 204.92467 C753.4132 228.38249 735.06104 248.06285 711.6032 248.882 C688.1454 249.70116 668.465 231.34892 667.6459 207.8911 Z "/>
      </g>
      <g style="fill:#7EECFF;stroke:none;">
        <path d="M480.75684 214.42384 C479.93768 190.96605 498.28992 171.28566 521.74774 170.46648 C545.20557 169.64732 564.8859 187.99959 565.7051 211.45738 C566.52423 234.91518 548.172 254.59557 524.71423 255.41472 C501.25638 256.2339 481.57602 237.88164 480.75684 214.42384 Z "/>
      </g>
      <g style="fill:#7EECFF;stroke:none;">
        <path d="M293.8711 220.95076 C293.05194 197.49297 311.40417 177.81258 334.86197 176.99342 C358.3198 176.17424 378.00015 194.5265 378.8193 217.9843 C379.6385 241.4421 361.28625 261.1225 337.82843 261.94165 C314.37064 262.7608 294.69025 244.40855 293.8711 220.95076 Z "/>
      </g>
      <g style="fill:#87EDFF;stroke:none;">
        <path d="M106.99841 227.4616 C106.17923 204.0038 124.53146 184.32344 147.98927 183.50426 C171.44708 182.6851 191.12744 201.03734 191.94661 224.49513 C192.76578 247.95296 174.41354 267.6333 150.95573 268.45245 C127.497925 269.27167 107.817566 250.91942 106.99841 227.4616 Z "/>
      </g>
      <g style="fill:#87EDFF;stroke:none;">
        <path d="M-79.90341 233.99959 C-80.722565 210.5418 -62.37033 190.8614 -38.912537 190.04225 C-15.454712 189.22307 4.225647 207.57533 5.0448 231.03313 C5.863983 254.49095 -12.488251 274.17133 -35.946075 274.99048 C-59.40387 275.80963 -79.08423 257.4574 -79.90341 233.99959 Z "/>
      </g>
      <g style="fill:#87EDFF;stroke:none;">
        <path d="M-266.80566 240.53609 C-267.62482 217.07826 -249.27252 197.3979 -225.81476 196.57872 C-202.35706 195.75957 -182.67657 214.1118 -181.85742 237.56963 C-181.03827 261.0274 -199.39075 280.70782 -222.84845 281.52698 C-246.30621 282.34613 -265.9865 263.9939 -266.80566 240.53609 Z "/>
      </g>
      <g style="fill:#90EEFF;stroke:none;">
        <path d="M-453.69617 247.06267 C-454.51532 223.60484 -436.16302 203.92448 -412.70526 203.10533 C-389.2475 202.28618 -369.56708 220.63838 -368.74792 244.0962 C-367.92877 267.55402 -386.2812 287.23444 -409.73895 288.0536 C-433.19672 288.87274 -452.877 270.52045 -453.69617 247.06267 Z "/>
      </g>
      <g style="fill:#90EEFF;stroke:none;">
        <path d="M871.8563 340.79303 C887.86426 323.62665 914.7574 322.6875 931.9238 338.69543 C949.0902 354.7033 950.0293 381.5965 934.0214 398.76288 C918.0135 415.92932 891.12036 416.8684 873.954 400.86047 C856.7876 384.85254 855.8484 357.95947 871.8563 340.79303 Z "/>
      </g>
      <g style="fill:#90EEFF;stroke:none;">
        <path d="M684.97095 347.31732 C700.9789 330.15094 727.8721 329.2118 745.03845 345.21973 C762.20483 361.22766 763.14404 388.1208 747.1361 405.28717 C731.1282 422.4536 704.235 423.3927 687.0686 407.38477 C669.9022 391.37683 668.96313 364.48376 684.97095 347.31732 Z "/>
      </g>
      <g style="fill:#99F0FF;stroke:none;">
        <path d="M498.08167 353.84674 C514.0896 336.6803 540.9828 335.7411 558.1492 351.74908 C575.3156 367.75696 576.25476 394.6501 560.2468 411.81647 C544.2389 428.9829 517.3457 429.92206 500.17926 413.91406 C483.01294 397.90613 482.0738 371.01312 498.08167 353.84674 Z "/>
      </g>
      <g style="fill:#99F0FF;stroke:none;">
        <path d="M311.19644 360.3728 C327.20438 343.20636 354.09753 342.2672 371.26395 358.27515 C388.43036 374.28308 389.3694 401.17627 373.36157 418.34265 C357.3536 435.5091 330.46045 436.44818 313.29404 420.4402 C296.12762 404.43225 295.1885 377.53918 311.19644 360.3728 Z "/>
      </g>
      <g style="fill:#99F0FF;stroke:none;">
        <path d="M124.31267 366.89832 C140.32071 349.73187 167.21375 348.79266 184.3803 364.8006 C201.54659 380.80853 202.4857 407.70166 186.47777 424.8681 C170.46982 442.03455 143.57678 442.97363 126.410385 426.96564 C109.24396 410.9577 108.30484 384.0647 124.31267 366.89832 Z "/>
      </g>
      <g style="fill:#A2F1FF;stroke:none;">
        <path d="M-62.592407 373.43353 C-46.58435 356.26715 -19.691315 355.328 -2.5249023 371.33594 C14.64151 387.34387 15.580658 414.237 -0.42730713 431.40338 C-16.435242 448.56982 -43.328278 449.5089 -60.494812 433.50098 C-77.6611 417.49304 -78.60022 390.59998 -62.592407 373.43353 Z "/>
      </g>
      <g style="fill:#A2F1FF;stroke:none;">
        <path d="M-249.49316 379.95874 C-233.48529 362.79236 -206.5921 361.85327 -189.42566 377.86115 C-172.25928 393.86902 -171.32013 420.7622 -187.32806 437.9286 C-203.336 455.09503 -230.22919 456.03412 -247.39557 440.02618 C-264.5619 424.0183 -265.50104 397.12518 -249.49316 379.95874 Z "/>
      </g>
      <g style="fill:#A2F1FF;stroke:none;">
        <path d="M-436.3532 386.47626 C-420.34528 369.3098 -393.4521 368.37073 -376.2857 384.37866 C-359.11932 400.38654 -358.18018 427.27966 -374.18823 444.44604 C-390.19598 461.6125 -417.08923 462.55157 -434.2556 446.54364 C-451.42188 430.53577 -452.36102 403.64264 -436.3532 386.47626 Z "/>
      </g>
      <g style="fill:#9BFF64;stroke:none;">
        <path d="M907.3901 497.19885 C930.84784 496.3797 950.52826 514.73193 951.3474 538.1898 C952.16656 561.6475 933.8143 581.328 910.3565 582.14716 C886.8988 582.9663 867.2184 564.614 866.3992 541.15625 C865.5801 517.69836 883.9323 498.018 907.3901 497.19885 Z "/>
      </g>
      <g style="fill:#FF64C2;stroke:none;">
        <path d="M720.50604 503.72296 C743.96375 502.9038 763.64417 521.2561 764.4634 544.71387 C765.2825 568.1717 746.9302 587.85205 723.4725 588.6712 C700.0147 589.4904 680.3343 571.1382 679.51514 547.68036 C678.696 524.2226 697.0483 504.54218 720.50604 503.72296 Z "/>
      </g>
      <g style="fill:#64E8FF;stroke:none;">
        <path d="M533.6153 510.25336 C557.07306 509.43414 576.7535 527.7864 577.57263 551.24426 C578.39185 574.70197 560.03955 594.38245 536.5818 595.20166 C513.124 596.0208 493.4436 577.66846 492.62442 554.21075 C491.80527 530.75287 510.15756 511.0725 533.6153 510.25336 Z "/>
      </g>
      <g style="fill:#6DE9FF;stroke:none;">
        <path d="M346.7225 516.78296 C370.18024 515.9638 389.86066 534.31604 390.67984 557.7739 C391.499 581.2316 373.1467 600.91205 349.68896 601.7312 C326.2312 602.55035 306.55078 584.19806 305.73163 560.74036 C304.91245 537.2825 323.26474 517.6021 346.7225 516.78296 Z "/>
      </g>
      <g style="fill:#6DE9FF;stroke:none;">
        <path d="M159.83446 523.3057 C183.2922 522.4866 202.97264 540.83887 203.7918 564.29663 C204.61096 587.75433 186.25867 607.4348 162.80092 608.25397 C139.34315 609.0731 119.662735 590.72076 118.84357 567.26306 C118.024414 543.8053 136.3767 524.1249 159.83446 523.3057 Z "/>
      </g>
      <g style="fill:#6DE9FF;stroke:none;">
        <path d="M-27.056732 529.8357 C-3.598999 529.0165 16.08142 547.36865 16.900574 570.82654 C17.719757 594.28436 -0.63253784 613.96466 -24.090271 614.7839 C-47.548035 615.603 -67.228455 597.25085 -68.04764 573.793 C-68.86679 550.33514 -50.514496 530.65485 -27.056732 529.8357 Z "/>
      </g>
      <g style="fill:#76EBFF;stroke:none;">
        <path d="M-213.97491 536.3598 C-190.51715 535.54065 -170.83673 553.89294 -170.01758 577.3507 C-169.19843 600.8084 -187.55072 620.4889 -211.00848 621.30804 C-234.46625 622.1272 -254.14667 603.77484 -254.96582 580.31714 C-255.78497 556.8594 -237.43268 537.17896 -213.97491 536.3598 Z "/>
      </g>
      <g style="fill:#76EBFF;stroke:none;">
        <path d="M-400.80444 542.8817 C-377.34668 542.06256 -357.66626 560.41486 -356.8471 583.8726 C-356.02795 607.3303 -374.38025 627.0108 -397.838 627.82996 C-421.29578 628.6491 -440.9762 610.29675 -441.79535 586.83905 C-442.6145 563.3813 -424.2622 543.70087 -400.80444 542.8817 Z "/>
      </g>
      <g style="fill:#76EBFF;stroke:none;">
        <path d="M943.79065 678.488 C960.9571 694.4959 961.89624 721.3891 945.8883 738.5555 C929.8804 755.72186 902.98724 756.661 885.82086 740.6531 C868.6545 724.64514 867.71533 697.7521 883.72327 680.5856 C899.73114 663.4193 926.6243 662.48016 943.79065 678.488 Z "/>
      </g>
      <g style="fill:#7EECFF;stroke:none;">
        <path d="M756.90295 685.0147 C774.06934 701.02264 775.0085 727.91583 759.0006 745.0822 C742.9926 762.24866 716.0995 763.1876 698.9331 747.1798 C681.7668 731.17194 680.82764 704.27875 696.8356 687.1123 C712.84344 669.9459 739.7366 669.00696 756.90295 685.0147 Z "/>
      </g>
      <g style="fill:#7EECFF;stroke:none;">
        <path d="M570.01404 691.5408 C587.1804 707.5487 588.1196 734.4418 572.1117 751.6083 C556.10376 768.7746 529.2106 769.7137 512.0442 753.7059 C494.8778 737.698 493.9386 710.8048 509.94653 693.63837 C525.95447 676.472 552.84766 675.5329 570.01404 691.5408 Z "/>
      </g>
      <g style="fill:#7EECFF;stroke:none;">
        <path d="M383.1167 698.06726 C400.2831 714.0752 401.22223 740.96826 385.2143 758.13477 C369.20636 775.301 342.31326 776.2402 325.14685 760.23236 C307.98047 744.2244 307.04135 717.33124 323.04932 700.16486 C339.05725 682.9985 365.95032 682.0593 383.1167 698.06726 Z "/>
      </g>
      <g style="fill:#87EDFF;stroke:none;">
        <path d="M196.24164 704.5931 C213.40805 720.601 214.34718 747.4941 198.33925 764.6606 C182.33136 781.82684 155.43822 782.766 138.2718 766.7582 C121.10544 750.7501 120.166306 723.85706 136.1742 706.6907 C152.18213 689.5243 179.07529 688.58514 196.24164 704.5931 Z "/>
      </g>
      <g style="fill:#87EDFF;stroke:none;">
        <path d="M9.353455 711.11633 C26.519836 727.1242 27.458954 754.0173 11.45105 771.1837 C-4.5568542 788.3501 -31.450012 789.28925 -48.616425 773.28143 C-65.782776 757.2734 -66.72189 730.3803 -50.71402 713.2138 C-34.706085 696.04755 -7.8129272 695.1084 9.353455 711.11633 Z "/>
      </g>
      <g style="fill:#87EDFF;stroke:none;">
        <path d="M-177.531 717.6444 C-160.36444 733.65234 -159.42535 760.54553 -175.43335 777.7119 C-191.44122 794.8783 -218.33435 795.81744 -235.5008 779.80963 C-252.66711 763.8016 -253.6062 736.9084 -237.59845 719.742 C-221.59045 702.57574 -194.69733 701.6366 -177.531 717.6444 Z "/>
      </g>
      <g style="fill:#90EEFF;stroke:none;">
        <path d="M-364.41028 724.17285 C-347.2439 740.1807 -346.30475 767.0739 -362.31268 784.24036 C-378.32062 801.40674 -405.21368 802.3458 -422.3802 786.3381 C-439.5465 770.33 -440.48566 743.4368 -424.47778 726.27045 C-408.46973 709.1041 -381.57666 708.16504 -364.41028 724.17285 Z "/>
      </g>
    </g>
  </g>
</svg>
