<?xml version="1.0" encoding="UTF-8"?>
<svg xmlns="http://www.w3.org/2000/svg" height="288px" version="1.1" width="480px">
  <g style="fill:#BFB3FF;stroke:none;">
    <path d="M0.0 0.0 L480.0 0.0 L480.0 288.0 L0.0 288.0 L0.0 0.0 "/>
    <g style="">
      <g style="fill:#4928FF;stroke:none;">
        <path d="M-1901.6118 -2210.3489 C-1789.498 -2210.3489 -1698.6118 -2119.4626 -1698.6118 -2007.3489 C-1698.6118 -1895.2351 -1789.498 -1804.3489 -1901.6118 -1804.3489 C-2013.7256 -1804.3489 -2104.6118 -1895.2351 -2104.6118 -2007.3489 C-2104.6118 -2119.4626 -2013.7256 -2210.3489 -1901.6118 -2210.3489 Z "/>
      </g>
      <g style="fill:#B928FF;stroke:none;">
        <path d="M-1901.6118 -1601.3489 C-1789.498 -1601.3489 -1698.6118 -1510.4626 -1698.6118 -1398.3489 C-1698.6118 -1286.2351 -1789.498 -1195.3489 -1901.6118 -1195.3489 C-2013.7256 -1195.3489 -2104.6118 -1286.2351 -2104.6118 -1398.3489 C-2104.6118 -1510.4626 -2013.7256 -1601.3489 -1901.6118 -1601.3489 Z "/>
      </g>
      <g style="fill:#6043FF;stroke:none;">
        <path d="M-1901.6118 -992.3489 C-1789.498 -992.3489 -1698.6118 -901.46265 -1698.6118 -789.3489 C-1698.6118 -677.2351 -1789.498 -586.3489 -1901.6118 -586.3489 C-2013.7256 -586.3489 -2104.6118 -677.2351 -2104.6118 -789.3489 C-2104.6118 -901.46265 -2013.7256 -992.3489 -1901.6118 -992.3489 Z "/>
      </g>
      <g style="fill:#DAD4FF;stroke:none;">
        <path d="M-1901.6118 -383.34888 C-1789.498 -383.34888 -1698.6118 -292.46265 -1698.6118 -180.34888 C-1698.6118 -68.23511 -1789.498 22.651123 -1901.6118 22.651123 C-2013.7256 22.651123 -2104.6118 -68.23511 -2104.6118 -180.34888 C-2104.6118 -292.46265 -2013.7256 -383.34888 -1901.6118 -383.34888 Z "/>
      </g>
      <g style="fill:#6043FF;stroke:none;">
        <path d="M-1901.6118 225.65112 C-1789.498 225.65112 -1698.6118 316.53735 -1698.6118 428.65112 C-1698.6118 540.7649 -1789.498 631.6511 -1901.6118 631.6511 C-2013.7256 631.6511 -2104.6118 540.7649 -2104.6118 428.65112 C-2104.6118 316.53735 -2013.7256 225.65112 -1901.6118 225.65112 Z "/>
      </g>
      <g style="fill:#DAD4FF;stroke:none;">
        <path d="M-1901.6118 834.6511 C-1789.498 834.6511 -1698.6118 925.53735 -1698.6118 1037.6511 C-1698.6118 1149.7649 -1789.498 1240.6511 -1901.6118 1240.6511 C-2013.7256 1240.6511 -2104.6118 1149.7649 -2104.6118 1037.6511 C-2104.6118 925.53735 -2013.7256 834.6511 -1901.6118 834.6511 Z "/>
      </g>
      <g style="fill:#765DFF;stroke:none;">
        <path d="M-1901.6118 1443.6511 C-1789.498 1443.6511 -1698.6118 1534.5374 -1698.6118 1646.6511 C-1698.6118 1758.7649 -1789.498 1849.6511 -1901.6118 1849.6511 C-2013.7256 1849.6511 -2104.6118 1758.7649 -2104.6118 1646.6511 C-2104.6118 1534.5374 -2013.7256 1443.6511 -1901.6118 1443.6511 Z "/>
      </g>
      <g style="fill:#D8D1FF;stroke:none;">
        <path d="M-1901.6118 2052.6511 C-1789.498 2052.6511 -1698.6118 2143.5374 -1698.6118 2255.6511 C-1698.6118 2367.765 -1789.498 2458.6511 -1901.6118 2458.6511 C-2013.7256 2458.6511 -2104.6118 2367.765 -2104.6118 2255.6511 C-2104.6118 2143.5374 -2013.7256 2052.6511 -1901.6118 2052.6511 Z "/>
      </g>
      <g style="fill:#765DFF;stroke:none;">
        <path d="M-1436.1538 -1863.8064 C-1515.4303 -1943.0828 -1515.4304 -2071.6152 -1436.1539 -2150.8916 C-1356.8774 -2230.1682 -1228.345 -2230.168 -1149.0686 -2150.8916 C-1069.7921 -2071.6152 -1069.7921 -1943.0828 -1149.0686 -1863.8064 C-1228.345 -1784.5299 -1356.8774 -1784.5299 -1436.1538 -1863.8064 Z "/>
      </g>
      <g style="fill:#D8D1FF;stroke:none;">
        <path d="M-1436.1536 -1254.8068 C-1515.43 -1334.0831 -1515.43 -1462.6157 -1436.1537 -1541.8921 C-1356.8773 -1621.1685 -1228.3447 -1621.1685 -1149.0684 -1541.8921 C-1069.7919 -1462.6157 -1069.792 -1334.0833 -1149.0684 -1254.8068 C-1228.3447 -1175.5304 -1356.8772 -1175.5304 -1436.1536 -1254.8068 Z "/>
      </g>
      <g style="fill:#8B76FF;stroke:none;">
        <path d="M-1436.155 -645.80664 C-1515.4314 -725.083 -1515.4314 -853.6156 -1436.155 -932.8921 C-1356.8787 -1012.16846 -1228.3461 -1012.16833 -1149.0696 -932.89197 C-1069.7932 -853.6156 -1069.7932 -725.083 -1149.0696 -645.80664 C-1228.3461 -566.5303 -1356.8785 -566.5303 -1436.155 -645.80664 Z "/>
      </g>
      <g style="fill:#D3CBFF;stroke:none;">
        <path d="M-1436.1547 -36.80493 C-1515.4312 -116.0813 -1515.431 -244.61401 -1436.1547 -323.89038 C-1356.8783 -403.16675 -1228.3457 -403.16675 -1149.0693 -323.89038 C-1069.793 -244.61401 -1069.793 -116.08154 -1149.0693 -36.805176 C-1228.3457 42.471436 -1356.8782 42.471436 -1436.1547 -36.80493 Z "/>
      </g>
      <g style="fill:#8B76FF;stroke:none;">
        <path d="M-1436.163 572.21875 C-1515.4395 492.94238 -1515.4396 364.40967 -1436.1632 285.1333 C-1356.8866 205.85693 -1228.3541 205.85693 -1149.0778 285.1333 C-1069.8013 364.40967 -1069.8013 492.94238 -1149.0778 572.21875 C-1228.3541 651.4951 -1356.8866 651.4951 -1436.163 572.21875 Z "/>
      </g>
      <g style="fill:#D3CBFF;stroke:none;">
        <path d="M-1436.1538 1181.1863 C-1515.4303 1101.9099 -1515.4302 973.37744 -1436.1538 894.1011 C-1356.8774 814.82446 -1228.3448 814.8247 -1149.0684 894.1011 C-1069.792 973.37744 -1069.7921 1101.9099 -1149.0685 1181.1865 C-1228.3448 1260.4629 -1356.8774 1260.4626 -1436.1538 1181.1863 Z "/>
      </g>
      <g style="fill:#9E8DFF;stroke:none;">
        <path d="M-1436.145 1790.1711 C-1515.4215 1710.8948 -1515.4214 1582.362 -1436.145 1503.0857 C-1356.8687 1423.8093 -1228.3359 1423.8093 -1149.0596 1503.0857 C-1069.7832 1582.362 -1069.7832 1710.8948 -1149.0596 1790.1711 C-1228.3359 1869.4475 -1356.8687 1869.4475 -1436.145 1790.1711 Z "/>
      </g>
      <g style="fill:#CAC1FF;stroke:none;">
        <path d="M-1436.1521 2399.195 C-1515.4287 2319.9187 -1515.4287 2191.3865 -1436.1523 2112.11 C-1356.876 2032.8337 -1228.3433 2032.8337 -1149.0669 2112.11 C-1069.7905 2191.3865 -1069.7905 2319.9187 -1149.0669 2399.195 C-1228.3433 2478.472 -1356.8757 2478.4714 -1436.1521 2399.195 Z "/>
      </g>
      <g style="fill:#9E8DFF;stroke:none;">
        <path d="M-480.6101 -2007.3503 C-480.6101 -1895.2366 -571.49634 -1804.3503 -683.6101 -1804.3503 C-795.7239 -1804.3503 -886.6101 -1895.2366 -886.6101 -2007.3503 C-886.6101 -2119.464 -795.724 -2210.3503 -683.6102 -2210.3503 C-571.49634 -2210.3503 -480.61023 -2119.464 -480.6101 -2007.3503 Z "/>
      </g>
      <g style="fill:#CAC1FF;stroke:none;">
        <path d="M-480.60962 -1398.3499 C-480.60962 -1286.2361 -571.49585 -1195.3499 -683.6096 -1195.3499 C-795.7234 -1195.3499 -886.6096 -1286.2361 -886.6096 -1398.3499 C-886.6096 -1510.4636 -795.7234 -1601.3499 -683.6096 -1601.3499 C-571.49585 -1601.3499 -480.60962 -1510.4636 -480.60962 -1398.3499 Z "/>
      </g>
      <g style="fill:#B0A1FF;stroke:none;">
        <path d="M-480.6067 -789.348 C-480.6067 -677.23425 -571.4929 -586.348 -683.6067 -586.3479 C-795.72046 -586.3479 -886.6067 -677.23413 -886.6067 -789.3479 C-886.6068 -901.4617 -795.7206 -992.3479 -683.6068 -992.3479 C-571.49304 -992.348 -480.6068 -901.4618 -480.6067 -789.348 Z "/>
      </g>
      <g style="fill:#B0A1FF;stroke:none;">
        <path d="M-480.61133 -180.34619 C-480.61133 -68.23242 -571.49756 22.653809 -683.6113 22.653809 C-795.7251 22.653809 -886.6113 -68.23218 -886.6113 -180.34607 C-886.6113 -292.45984 -795.7251 -383.3462 -683.61145 -383.3462 C-571.4977 -383.3462 -480.61145 -292.45996 -480.61133 -180.34619 Z "/>
      </g>
      <g style="fill:#4928FF;stroke:none;">
        <path d="M-480.62476 428.65063 C-480.62476 540.7644 -571.511 631.65063 -683.62476 631.65063 C-795.7385 631.65063 -886.62476 540.7644 -886.62476 428.65063 C-886.62476 316.53687 -795.7385 225.65063 -683.62476 225.65063 C-571.511 225.65063 -480.62476 316.53687 -480.62476 428.65063 Z "/>
      </g>
      <g style="fill:#B928FF;stroke:none;">
        <path d="M-480.60132 1037.6604 C-480.60132 1149.7742 -571.48755 1240.6606 -683.6013 1240.6606 C-795.7151 1240.6606 -886.6013 1149.7744 -886.6013 1037.6606 C-886.6013 925.5469 -795.7151 834.66064 -683.6013 834.66064 C-571.48755 834.66064 -480.60132 925.54663 -480.60132 1037.6604 Z "/>
      </g>
      <g style="fill:#6043FF;stroke:none;">
        <path d="M-480.60327 1646.6609 C-480.60327 1758.7747 -571.4895 1849.6609 -683.6033 1849.6609 C-795.71704 1849.6609 -886.6033 1758.7747 -886.6033 1646.6609 C-886.6033 1534.5471 -795.71704 1443.6609 -683.6033 1443.6609 C-571.4895 1443.6609 -480.60327 1534.5471 -480.60327 1646.6609 Z "/>
      </g>
      <g style="fill:#DAD4FF;stroke:none;">
        <path d="M-480.6333 2255.6433 C-480.6333 2367.757 -571.51953 2458.6433 -683.6333 2458.6433 C-795.7471 2458.6433 -886.6333 2367.757 -886.6333 2255.6433 C-886.6333 2143.5295 -795.7471 2052.6433 -683.6333 2052.6433 C-571.51953 2052.6433 -480.6333 2143.5295 -480.6333 2255.6433 Z "/>
      </g>
      <g style="fill:#6043FF;stroke:none;">
        <path d="M-218.1543 -2150.8916 C-138.87793 -2230.168 -10.345215 -2230.168 68.93115 -2150.8916 C148.20752 -2071.6152 148.20752 -1943.0828 68.93115 -1863.8064 C-10.345459 -1784.53 -138.87793 -1784.5299 -218.1543 -1863.8063 C-297.4308 -1943.0828 -297.4308 -2071.6152 -218.1543 -2150.8916 Z "/>
      </g>
      <g style="fill:#DAD4FF;stroke:none;">
        <path d="M-218.1532 -1541.891 C-138.87683 -1621.1674 -10.344238 -1621.1674 68.93213 -1541.8909 C148.2085 -1462.6145 148.2085 -1334.082 68.93213 -1254.8057 C-10.344238 -1175.5293 -138.87683 -1175.5292 -218.1532 -1254.8057 C-297.4297 -1334.082 -297.4297 -1462.6146 -218.1532 -1541.891 Z "/>
      </g>
      <g style="fill:#765DFF;stroke:none;">
        <path d="M-218.15442 -932.88464 C-138.87805 -1012.161 -10.345215 -1012.1609 68.93115 -932.8845 C148.20752 -853.60815 148.20752 -725.0757 68.93115 -645.7993 C-10.345703 -566.52295 -138.87805 -566.5228 -218.15442 -645.7992 C-297.4308 -725.0757 -297.4308 -853.6083 -218.15442 -932.88464 Z "/>
      </g>
      <g style="fill:#D8D1FF;stroke:none;">
        <path d="M-218.15173 -323.8955 C-138.87537 -403.17188 -10.342773 -403.17188 68.93359 -323.8954 C148.20996 -244.61902 148.20996 -116.086426 68.93359 -36.81006 C-10.343262 42.46631 -138.87537 42.46631 -218.15173 -36.81006 C-297.4281 -116.08667 -297.42834 -244.61914 -218.15173 -323.8955 Z "/>
      </g>
      <g style="fill:#765DFF;stroke:none;">
        <path d="M-218.15332 285.1018 C-138.87695 205.82544 -10.344238 205.82544 68.93213 285.1018 C148.2085 364.37817 148.2085 492.9109 68.93213 572.18726 C-10.344482 651.4636 -138.87695 651.4636 -218.15332 572.18726 C-297.4297 492.9109 -297.4297 364.37817 -218.15332 285.1018 Z "/>
      </g>
      <g style="fill:#D8D1FF;stroke:none;">
        <path d="M-218.15564 894.1116 C-138.87927 814.8352 -10.34668 814.8352 68.92969 894.1116 C148.20605 973.38794 148.20605 1101.9204 68.92969 1181.1968 C-10.34668 1260.4731 -138.87927 1260.4734 -218.15564 1181.1968 C-297.432 1101.9204 -297.432 973.38794 -218.15564 894.1116 Z "/>
      </g>
      <g style="fill:#8B76FF;stroke:none;">
        <path d="M-218.17627 1503.1335 C-138.8999 1423.8572 -10.3671875 1423.8572 68.90918 1503.1335 C148.18555 1582.4099 148.18555 1710.9426 68.90918 1790.219 C-10.3671875 1869.4954 -138.8999 1869.4954 -218.17627 1790.219 C-297.45264 1710.9426 -297.45264 1582.4099 -218.17627 1503.1335 Z "/>
      </g>
      <g style="fill:#D3CBFF;stroke:none;">
        <path d="M-218.20752 2112.1663 C-138.93115 2032.8899 -10.398926 2032.8899 68.87744 2112.1663 C148.1543 2191.4426 148.15381 2319.9753 68.87744 2399.2517 C-10.398926 2478.528 -138.93115 2478.528 -218.20801 2399.2517 C-297.48438 2319.9753 -297.4839 2191.4426 -218.20752 2112.1663 Z "/>
      </g>
      <g style="fill:#8B76FF;stroke:none;">
        <path d="M534.3989 -1804.3488 C422.28516 -1804.3486 331.39893 -1895.2349 331.39893 -2007.3486 C331.39893 -2119.4624 422.28516 -2210.3486 534.3989 -2210.3486 C646.5127 -2210.3486 737.3989 -2119.4626 737.3989 -2007.3488 C737.3989 -1895.235 646.5127 -1804.3488 534.3989 -1804.3488 Z "/>
      </g>
      <g style="fill:#D3CBFF;stroke:none;">
        <path d="M534.3987 -1195.3502 C422.2849 -1195.3501 331.39868 -1286.2363 331.39868 -1398.3501 C331.39868 -1510.4639 422.2849 -1601.3501 534.3987 -1601.3502 C646.51245 -1601.3502 737.3987 -1510.4641 737.3987 -1398.3503 C737.3987 -1286.2366 646.51245 -1195.3502 534.3987 -1195.3502 Z "/>
      </g>
      <g style="fill:#9E8DFF;stroke:none;">
        <path d="M534.37427 -586.3574 C422.2605 -586.3574 331.37427 -677.24365 331.37402 -789.3574 C331.37402 -901.4712 422.26025 -992.3574 534.374 -992.3574 C646.4878 -992.3574 737.374 -901.4712 737.374 -789.3574 C737.37427 -677.24365 646.48804 -586.3574 534.37427 -586.3574 Z "/>
      </g>
      <g style="fill:#CAC1FF;stroke:none;">
        <path d="M534.40137 22.661865 C422.2876 22.661865 331.40137 -68.224365 331.40137 -180.33813 C331.40137 -292.4519 422.28735 -383.33813 534.4011 -383.33813 C646.5149 -383.33813 737.40137 -292.4519 737.40137 -180.33813 C737.40137 -68.224365 646.51514 22.661865 534.40137 22.661865 Z "/>
      </g>
      <g style="fill:#9E8DFF;stroke:none;">
        <path d="M534.3982 631.6655 C422.28442 631.6655 331.3982 540.7793 331.3982 428.66553 C331.3982 316.55176 422.28442 225.66553 534.3982 225.66553 C646.51196 225.66553 737.3982 316.55176 737.3982 428.66553 C737.3982 540.7793 646.51196 631.6655 534.3982 631.6655 Z "/>
      </g>
      <g style="fill:#CAC1FF;stroke:none;">
        <path d="M534.4407 1240.7202 C422.3269 1240.7202 331.44043 1149.834 331.44043 1037.7202 C331.44043 925.60645 422.32666 834.7202 534.4404 834.7202 C646.5542 834.7202 737.4404 925.60645 737.4404 1037.7202 C737.4404 1149.834 646.55444 1240.7202 534.4407 1240.7202 Z "/>
      </g>
      <g style="fill:#B0A1FF;stroke:none;">
        <path d="M534.3286 1849.5698 C422.21484 1849.5698 331.3286 1758.6836 331.3286 1646.5698 C331.32837 1534.456 422.2146 1443.5698 534.32837 1443.5698 C646.44214 1443.5698 737.32837 1534.456 737.3286 1646.5698 C737.3286 1758.6836 646.4424 1849.5698 534.3286 1849.5698 Z "/>
      </g>
      <g style="fill:#B0A1FF;stroke:none;">
        <path d="M534.3899 2458.6677 C422.27612 2458.6677 331.3899 2367.7815 331.3899 2255.6677 C331.3899 2143.554 422.27612 2052.6677 534.3899 2052.6677 C646.50366 2052.6672 737.3899 2143.5535 737.3899 2255.6672 C737.3899 2367.781 646.50366 2458.6672 534.3899 2458.6677 Z "/>
      </g>
      <g style="fill:#4928FF;stroke:none;">
        <path d="M1286.9316 -2150.893 C1366.208 -2071.6167 1366.2078 -1943.0842 1286.9314 -1863.8076 C1207.655 -1784.5312 1079.1226 -1784.5315 999.8462 -1863.8079 C920.5696 -1943.0845 920.5698 -2071.6167 999.8462 -2150.893 C1079.1226 -2230.1697 1207.655 -2230.1697 1286.9316 -2150.893 Z "/>
      </g>
      <g style="fill:#B928FF;stroke:none;">
        <path d="M1286.9307 -1541.8923 C1366.207 -1462.616 1366.2068 -1334.0835 1286.9304 -1254.8071 C1207.6538 -1175.5308 1079.1216 -1175.5308 999.8452 -1254.8071 C920.5686 -1334.0837 920.56885 -1462.6162 999.8452 -1541.8926 C1079.1216 -1621.169 1207.654 -1621.169 1286.9307 -1541.8923 Z "/>
      </g>
      <g style="fill:#6043FF;stroke:none;">
        <path d="M1286.9233 -932.8828 C1366.1997 -853.60645 1366.1995 -725.0737 1286.9231 -645.79736 C1207.6465 -566.521 1079.1143 -566.521 999.8379 -645.79736 C920.56104 -725.074 920.5615 -853.60645 999.8379 -932.8828 C1079.1143 -1012.1592 1207.6467 -1012.1592 1286.9233 -932.8828 Z "/>
      </g>
      <g style="fill:#DAD4FF;stroke:none;">
        <path d="M1286.9443 -323.90222 C1366.2207 -244.62585 1366.2205 -116.09302 1286.9438 -36.81665 C1207.6675 42.459717 1079.1353 42.459717 999.8589 -36.81665 C920.58203 -116.093506 920.5825 -244.62585 999.8589 -323.90222 C1079.1353 -403.1786 1207.6675 -403.1786 1286.9443 -323.90222 Z "/>
      </g>
      <g style="fill:#6043FF;stroke:none;">
        <path d="M1286.9414 285.10352 C1366.2178 364.37988 1366.2175 492.9126 1286.9409 572.18896 C1207.6646 651.46533 1079.1323 651.46533 999.85596 572.18896 C920.5791 492.9121 920.57935 364.37988 999.85596 285.10352 C1079.1323 205.82715 1207.6646 205.8269 1286.9414 285.10352 Z "/>
      </g>
      <g style="fill:#DAD4FF;stroke:none;">
        <path d="M1286.9409 894.1011 C1366.2173 973.37744 1366.2173 1101.9097 1286.9407 1181.1865 C1207.6643 1260.4629 1079.1318 1260.4624 999.85547 1181.186 C920.57886 1101.9097 920.5791 973.37744 999.85547 894.1011 C1079.1321 814.8247 1207.6643 814.8247 1286.9409 894.1011 Z "/>
      </g>
      <g style="fill:#765DFF;stroke:none;">
        <path d="M1286.937 1503.1125 C1366.2134 1582.3889 1366.2134 1710.9211 1286.9368 1790.1975 C1207.6604 1869.4739 1079.1279 1869.4739 999.85156 1790.1975 C920.57495 1710.9211 920.5752 1582.3889 999.85156 1503.1125 C1079.1282 1423.8362 1207.6604 1423.8362 1286.937 1503.1125 Z "/>
      </g>
      <g style="fill:#D8D1FF;stroke:none;">
        <path d="M1286.9941 2112.092 C1366.2705 2191.3684 1366.2703 2319.9006 1286.9939 2399.177 C1207.7175 2478.4534 1079.185 2478.4534 999.9087 2399.177 C920.6321 2319.9006 920.6323 2191.3684 999.9087 2112.092 C1079.185 2032.8157 1207.7175 2032.8152 1286.9941 2112.092 Z "/>
      </g>
      <g style="fill:#765DFF;stroke:none;">
        <path d="M1549.3838 -2007.3542 C1549.3838 -2119.468 1640.27 -2210.3542 1752.3838 -2210.3542 C1864.4976 -2210.3542 1955.3838 -2119.468 1955.3838 -2007.3542 C1955.3838 -1895.2405 1864.4976 -1804.3542 1752.3838 -1804.3542 C1640.27 -1804.3542 1549.3838 -1895.2405 1549.3838 -2007.3542 Z "/>
      </g>
      <g style="fill:#D8D1FF;stroke:none;">
        <path d="M1549.3889 -1398.3469 C1549.3889 -1510.4607 1640.2751 -1601.3469 1752.3889 -1601.3469 C1864.5027 -1601.3469 1955.3889 -1510.4607 1955.3889 -1398.3469 C1955.3889 -1286.2332 1864.5027 -1195.3469 1752.3889 -1195.3469 C1640.2751 -1195.3469 1549.3889 -1286.2332 1549.3889 -1398.3469 Z "/>
      </g>
      <g style="fill:#8B76FF;stroke:none;">
        <path d="M1549.3989 -789.31616 C1549.3989 -901.42993 1640.2852 -992.31616 1752.3989 -992.31616 C1864.5127 -992.31616 1955.3989 -901.42993 1955.3989 -789.31616 C1955.3989 -677.2024 1864.5127 -586.31616 1752.3989 -586.31616 C1640.2852 -586.31616 1549.3989 -677.2024 1549.3989 -789.31616 Z "/>
      </g>
      <g style="fill:#D3CBFF;stroke:none;">
        <path d="M1549.3936 -180.32349 C1549.3936 -292.43726 1640.2798 -383.3235 1752.3936 -383.3235 C1864.5073 -383.32324 1955.3936 -292.437 1955.3936 -180.32324 C1955.3936 -68.20947 1864.5073 22.676758 1752.3936 22.676514 C1640.2798 22.676514 1549.3936 -68.20972 1549.3936 -180.32349 Z "/>
      </g>
      <g style="fill:#8B76FF;stroke:none;">
        <path d="M1549.3699 428.62256 C1549.3699 316.5088 1640.2561 225.62256 1752.3699 225.62256 C1864.4836 225.62256 1955.3699 316.5088 1955.3699 428.62256 C1955.3699 540.7363 1864.4836 631.62256 1752.3699 631.62256 C1640.2561 631.62256 1549.3699 540.7363 1549.3699 428.62256 Z "/>
      </g>
      <g style="fill:#D3CBFF;stroke:none;">
        <path d="M1549.3728 1037.5044 C1549.3728 925.3906 1640.259 834.5044 1752.3728 834.5044 C1864.4866 834.5044 1955.3728 925.3906 1955.3728 1037.5044 C1955.3728 1149.6182 1864.4866 1240.5044 1752.3728 1240.5044 C1640.259 1240.5044 1549.3728 1149.6182 1549.3728 1037.5044 Z "/>
      </g>
      <g style="fill:#9E8DFF;stroke:none;">
        <path d="M1549.3943 1646.647 C1549.3943 1534.5332 1640.2805 1443.647 1752.3943 1443.647 C1864.508 1443.647 1955.3943 1534.5332 1955.3943 1646.647 C1955.3943 1758.7607 1864.508 1849.647 1752.3943 1849.647 C1640.2805 1849.647 1549.3943 1758.7607 1549.3943 1646.647 Z "/>
      </g>
      <g style="fill:#CAC1FF;stroke:none;">
        <path d="M1549.3564 2255.9167 C1549.3564 2143.8035 1640.2427 2052.9167 1752.3564 2052.9167 C1864.4702 2052.9167 1955.3564 2143.8035 1955.3564 2255.9167 C1955.3564 2368.031 1864.4702 2458.9167 1752.3564 2458.9167 C1640.2427 2458.9167 1549.3564 2368.031 1549.3564 2255.9167 Z "/>
      </g>
      <g style="fill:#9E8DFF;stroke:none;">
        <path d="M2504.9229 -1863.8027 C2425.6465 -1784.5264 2297.1138 -1784.5261 2217.8374 -1863.8027 C2138.561 -1943.0791 2138.561 -2071.6116 2217.8374 -2150.888 C2297.1138 -2230.1646 2425.646 -2230.1646 2504.9224 -2150.8882 C2584.1987 -2071.6116 2584.1992 -1943.0793 2504.9229 -1863.8027 Z "/>
      </g>
      <g style="fill:#CAC1FF;stroke:none;">
        <path d="M2504.942 -1254.8119 C2425.6655 -1175.5355 2297.1333 -1175.5353 2217.857 -1254.8116 C2138.5806 -1334.0883 2138.5806 -1462.6207 2217.857 -1541.8971 C2297.1333 -1621.1737 2425.6655 -1621.1737 2504.942 -1541.8971 C2584.2183 -1462.6207 2584.2183 -1334.0885 2504.942 -1254.8119 Z "/>
      </g>
      <g style="fill:#B0A1FF;stroke:none;">
        <path d="M2504.899 -645.8058 C2425.6226 -566.5294 2297.0898 -566.5292 2217.8135 -645.80554 C2138.537 -725.0819 2138.537 -853.6146 2217.8135 -932.891 C2297.0898 -1012.1676 2425.6226 -1012.1675 2504.899 -932.8911 C2584.1753 -853.6146 2584.1753 -725.0824 2504.899 -645.8058 Z "/>
      </g>
      <g style="fill:#B0A1FF;stroke:none;">
        <path d="M2504.9565 -36.802734 C2425.6802 42.473633 2297.1475 42.473877 2217.871 -36.80249 C2138.5947 -116.07886 2138.5947 -244.61157 2217.871 -323.88794 C2297.1475 -403.16455 2425.6797 -403.16443 2504.956 -323.88806 C2584.233 -244.6117 2584.233 -116.079346 2504.9565 -36.802734 Z "/>
      </g>
      <g style="fill:#4928FF;stroke:none;">
        <path d="M2504.874 572.19116 C2425.5977 651.4675 2297.065 651.4675 2217.7886 572.19116 C2138.5122 492.9148 2138.5122 364.38208 2217.7886 285.1057 C2297.065 205.8291 2425.5977 205.82935 2504.874 285.1057 C2584.1504 364.38208 2584.1504 492.9143 2504.874 572.19116 Z "/>
      </g>
      <g style="fill:#B928FF;stroke:none;">
        <path d="M2505.1523 1181.25 C2425.876 1260.5264 2297.3433 1260.5266 2218.067 1181.2502 C2138.7905 1101.9739 2138.7905 973.44116 2218.067 894.1648 C2297.3433 814.8882 2425.8755 814.8884 2505.1519 894.1648 C2584.4282 973.44116 2584.4287 1101.9734 2505.1523 1181.25 Z "/>
      </g>
      <g style="fill:#6043FF;stroke:none;">
        <path d="M2505.3354 1790.3652 C2426.059 1869.6416 2297.5269 1869.6418 2218.2505 1790.3655 C2138.974 1711.0891 2138.974 1582.5564 2218.2505 1503.28 C2297.5269 1424.0034 2426.059 1424.0037 2505.3354 1503.28 C2584.6118 1582.5564 2584.6118 1711.0886 2505.3354 1790.3652 Z "/>
      </g>
      <g style="fill:#DAD4FF;stroke:none;">
        <path d="M2504.567 2399.032 C2425.2905 2478.3083 2296.7583 2478.3088 2217.4814 2399.0325 C2138.205 2319.756 2138.205 2191.2234 2217.4814 2111.947 C2296.7578 2032.6707 2425.2905 2032.6707 2504.567 2111.947 C2583.8433 2191.2234 2583.8433 2319.7556 2504.567 2399.032 Z "/>
      </g>
    </g>
  </g>
</svg>
