<?xml version="1.0" encoding="UTF-8"?>
<svg xmlns="http://www.w3.org/2000/svg" height="288px" version="1.1" width="480px">
  <g style="fill:#FFFFFF;stroke:none;">
    <path d="M0.0 0.0 L480.0 0.0 L480.0 288.0 L0.0 288.0 L0.0 0.0 "/>
    <g style="">
      <g style="fill:#054EF8;stroke:none;">
        <path d="M-217.5 -313.5 L-156.5 -313.5 L-156.5 -252.5 L-217.5 -252.5 L-217.5 -313.5 "/>
      </g>
      <g style="fill:#05F8C1;stroke:none;">
        <path d="M-217.5 -191.5 L-156.5 -191.5 L-156.5 -130.5 L-217.5 -130.5 L-217.5 -191.5 "/>
      </g>
      <g style="fill:#29F805;stroke:none;">
        <path d="M-217.5 -69.5 L-156.5 -69.5 L-156.5 -8.5 L-217.5 -8.5 L-217.5 -69.5 "/>
      </g>
      <g style="fill:#F8E705;stroke:none;">
        <path d="M-217.5 52.5 L-156.5 52.5 L-156.5 113.5 L-217.5 113.5 L-217.5 52.5 "/>
      </g>
      <g style="fill:#F86C6B;stroke:none;">
        <path d="M-217.5 174.5 L-156.5 174.5 L-156.5 235.5 L-217.5 235.5 L-217.5 174.5 "/>
      </g>
      <g style="fill:#F86C6B;stroke:none;">
        <path d="M-217.5 296.5 L-156.5 296.5 L-156.5 357.5 L-217.5 357.5 L-217.5 296.5 "/>
      </g>
      <g style="fill:#F86C6B;stroke:none;">
        <path d="M-217.5 418.5 L-156.5 418.5 L-156.5 479.5 L-217.5 479.5 L-217.5 418.5 "/>
      </g>
      <g style="fill:#F86C6B;stroke:none;">
        <path d="M-217.5 540.5 L-156.5 540.5 L-156.5 601.5 L-217.5 601.5 L-217.5 540.5 "/>
      </g>
      <g style="fill:#F86C6B;stroke:none;">
        <path d="M-95.5 -313.5 L-34.5 -313.5 L-34.5 -252.5 L-95.5 -252.5 L-95.5 -313.5 "/>
      </g>
      <g style="fill:#F85B5A;stroke:none;">
        <path d="M-95.5 -191.5 L-34.5 -191.5 L-34.5 -130.5 L-95.5 -130.5 L-95.5 -191.5 "/>
      </g>
      <g style="fill:#F85B5A;stroke:none;">
        <path d="M-95.5 -69.5 L-34.5 -69.5 L-34.5 -8.5 L-95.5 -8.5 L-95.5 -69.5 "/>
      </g>
      <g style="fill:#F85B5A;stroke:none;">
        <path d="M-95.5 52.5 L-34.5 52.5 L-34.5 113.5 L-95.5 113.5 L-95.5 52.5 "/>
      </g>
      <g style="fill:#F85B5A;stroke:none;">
        <path d="M-95.5 174.5 L-34.5 174.5 L-34.5 235.5 L-95.5 235.5 L-95.5 174.5 "/>
      </g>
      <g style="fill:#F85B5A;stroke:none;">
        <path d="M-95.5 296.5 L-34.5 296.5 L-34.5 357.5 L-95.5 357.5 L-95.5 296.5 "/>
      </g>
      <g style="fill:#F84B49;stroke:none;">
        <path d="M-95.5 418.5 L-34.5 418.5 L-34.5 479.5 L-95.5 479.5 L-95.5 418.5 "/>
      </g>
      <g style="fill:#F84B49;stroke:none;">
        <path d="M-95.5 540.5 L-34.5 540.5 L-34.5 601.5 L-95.5 601.5 L-95.5 540.5 "/>
      </g>
      <g style="fill:#F84B49;stroke:none;">
        <path d="M26.5 -313.5 L87.5 -313.5 L87.5 -252.5 L26.5 -252.5 L26.5 -313.5 "/>
      </g>
      <g style="fill:#F84B49;stroke:none;">
        <path d="M26.5 -191.5 L87.5 -191.5 L87.5 -130.5 L26.5 -130.5 L26.5 -191.5 "/>
      </g>
      <g style="fill:#F84B49;stroke:none;">
        <path d="M26.5 -69.5 L87.5 -69.5 L87.5 -8.5 L26.5 -8.5 L26.5 -69.5 "/>
      </g>
      <g style="fill:#F83A38;stroke:none;">
        <path d="M26.5 52.5 L87.5 52.5 L87.5 113.5 L26.5 113.5 L26.5 52.5 "/>
      </g>
      <g style="fill:#F83A38;stroke:none;">
        <path d="M26.5 174.5 L87.5 174.5 L87.5 235.5 L26.5 235.5 L26.5 174.5 "/>
      </g>
      <g style="fill:#F83A38;stroke:none;">
        <path d="M26.5 296.5 L87.5 296.5 L87.5 357.5 L26.5 357.5 L26.5 296.5 "/>
      </g>
      <g style="fill:#F83A38;stroke:none;">
        <path d="M26.5 418.5 L87.5 418.5 L87.5 479.5 L26.5 479.5 L26.5 418.5 "/>
      </g>
      <g style="fill:#F83A38;stroke:none;">
        <path d="M26.5 540.5 L87.5 540.5 L87.5 601.5 L26.5 601.5 L26.5 540.5 "/>
      </g>
      <g style="fill:#F82927;stroke:none;">
        <path d="M148.5 -313.5 L209.5 -313.5 L209.5 -252.5 L148.5 -252.5 L148.5 -313.5 "/>
      </g>
      <g style="fill:#F82927;stroke:none;">
        <path d="M148.5 -191.5 L209.5 -191.5 L209.5 -130.5 L148.5 -130.5 L148.5 -191.5 "/>
      </g>
      <g style="fill:#F82927;stroke:none;">
        <path d="M148.5 -69.5 L209.5 -69.5 L209.5 -8.5 L148.5 -8.5 L148.5 -69.5 "/>
      </g>
      <g style="fill:#F82927;stroke:none;">
        <path d="M148.5 52.5 L209.5 52.5 L209.5 113.5 L148.5 113.5 L148.5 52.5 "/>
      </g>
      <g style="fill:#F82927;stroke:none;">
        <path d="M148.5 174.5 L209.5 174.5 L209.5 235.5 L148.5 235.5 L148.5 174.5 "/>
      </g>
      <g style="fill:#F81816;stroke:none;">
        <path d="M148.5 296.5 L209.5 296.5 L209.5 357.5 L148.5 357.5 L148.5 296.5 "/>
      </g>
      <g style="fill:#F81816;stroke:none;">
        <path d="M148.5 418.5 L209.5 418.5 L209.5 479.5 L148.5 479.5 L148.5 418.5 "/>
      </g>
      <g style="fill:#F81816;stroke:none;">
        <path d="M148.5 540.5 L209.5 540.5 L209.5 601.5 L148.5 601.5 L148.5 540.5 "/>
      </g>
      <g style="fill:#F81816;stroke:none;">
        <path d="M270.5 -313.5 L331.5 -313.5 L331.5 -252.5 L270.5 -252.5 L270.5 -313.5 "/>
      </g>
      <g style="fill:#F81816;stroke:none;">
        <path d="M270.5 -191.5 L331.5 -191.5 L331.5 -130.5 L270.5 -130.5 L270.5 -191.5 "/>
      </g>
      <g style="fill:#F80705;stroke:none;">
        <path d="M270.5 -69.5 L331.5 -69.5 L331.5 -8.5 L270.5 -8.5 L270.5 -69.5 "/>
      </g>
      <g style="fill:#F87D7C;stroke:none;">
        <path d="M270.5 52.5 L331.5 52.5 L331.5 113.5 L270.5 113.5 L270.5 52.5 "/>
      </g>
      <g style="fill:#F87D7C;stroke:none;">
        <path d="M270.5 174.5 L331.5 174.5 L331.5 235.5 L270.5 235.5 L270.5 174.5 "/>
      </g>
      <g style="fill:#F87D7C;stroke:none;">
        <path d="M270.5 296.5 L331.5 296.5 L331.5 357.5 L270.5 357.5 L270.5 296.5 "/>
      </g>
      <g style="fill:#F87D7C;stroke:none;">
        <path d="M270.5 418.5 L331.5 418.5 L331.5 479.5 L270.5 479.5 L270.5 418.5 "/>
      </g>
      <g style="fill:#F87D7C;stroke:none;">
        <path d="M270.5 540.5 L331.5 540.5 L331.5 601.5 L270.5 601.5 L270.5 540.5 "/>
      </g>
      <g style="fill:#F88E8D;stroke:none;">
        <path d="M392.5 -313.5 L453.5 -313.5 L453.5 -252.5 L392.5 -252.5 L392.5 -313.5 "/>
      </g>
      <g style="fill:#F88E8D;stroke:none;">
        <path d="M392.5 -191.5 L453.5 -191.5 L453.5 -130.5 L392.5 -130.5 L392.5 -191.5 "/>
      </g>
      <g style="fill:#F88E8D;stroke:none;">
        <path d="M392.5 -69.5 L453.5 -69.5 L453.5 -8.5 L392.5 -8.5 L392.5 -69.5 "/>
      </g>
      <g style="fill:#F88E8D;stroke:none;">
        <path d="M392.5 52.5 L453.5 52.5 L453.5 113.5 L392.5 113.5 L392.5 52.5 "/>
      </g>
      <g style="fill:#F88E8D;stroke:none;">
        <path d="M392.5 174.5 L453.5 174.5 L453.5 235.5 L392.5 235.5 L392.5 174.5 "/>
      </g>
      <g style="fill:#F89F9E;stroke:none;">
        <path d="M392.5 296.5 L453.5 296.5 L453.5 357.5 L392.5 357.5 L392.5 296.5 "/>
      </g>
      <g style="fill:#F89F9E;stroke:none;">
        <path d="M392.5 418.5 L453.5 418.5 L453.5 479.5 L392.5 479.5 L392.5 418.5 "/>
      </g>
      <g style="fill:#F89F9E;stroke:none;">
        <path d="M392.5 540.5 L453.5 540.5 L453.5 601.5 L392.5 601.5 L392.5 540.5 "/>
      </g>
      <g style="fill:#F89F9E;stroke:none;">
        <path d="M514.5 -313.5 L575.5 -313.5 L575.5 -252.5 L514.5 -252.5 L514.5 -313.5 "/>
      </g>
      <g style="fill:#F89F9E;stroke:none;">
        <path d="M514.5 -191.5 L575.5 -191.5 L575.5 -130.5 L514.5 -130.5 L514.5 -191.5 "/>
      </g>
      <g style="fill:#F8AFAF;stroke:none;">
        <path d="M514.5 -69.5 L575.5 -69.5 L575.5 -8.5 L514.5 -8.5 L514.5 -69.5 "/>
      </g>
      <g style="fill:#F8AFAF;stroke:none;">
        <path d="M514.5 52.5 L575.5 52.5 L575.5 113.5 L514.5 113.5 L514.5 52.5 "/>
      </g>
      <g style="fill:#F8AFAF;stroke:none;">
        <path d="M514.5 174.5 L575.5 174.5 L575.5 235.5 L514.5 235.5 L514.5 174.5 "/>
      </g>
      <g style="fill:#F8AFAF;stroke:none;">
        <path d="M514.5 296.5 L575.5 296.5 L575.5 357.5 L514.5 357.5 L514.5 296.5 "/>
      </g>
      <g style="fill:#F8AFAF;stroke:none;">
        <path d="M514.5 418.5 L575.5 418.5 L575.5 479.5 L514.5 479.5 L514.5 418.5 "/>
      </g>
      <g style="fill:#054EF8;stroke:none;">
        <path d="M514.5 540.5 L575.5 540.5 L575.5 601.5 L514.5 601.5 L514.5 540.5 "/>
      </g>
      <g style="fill:#05F8C1;stroke:none;">
        <path d="M636.5 -313.5 L697.5 -313.5 L697.5 -252.5 L636.5 -252.5 L636.5 -313.5 "/>
      </g>
      <g style="fill:#29F805;stroke:none;">
        <path d="M636.5 -191.5 L697.5 -191.5 L697.5 -130.5 L636.5 -130.5 L636.5 -191.5 "/>
      </g>
      <g style="fill:#F8E705;stroke:none;">
        <path d="M636.5 -69.5 L697.5 -69.5 L697.5 -8.5 L636.5 -8.5 L636.5 -69.5 "/>
      </g>
      <g style="fill:#F86C6B;stroke:none;">
        <path d="M636.5 52.5 L697.5 52.5 L697.5 113.5 L636.5 113.5 L636.5 52.5 "/>
      </g>
      <g style="fill:#F86C6B;stroke:none;">
        <path d="M636.5 174.5 L697.5 174.5 L697.5 235.5 L636.5 235.5 L636.5 174.5 "/>
      </g>
      <g style="fill:#F86C6B;stroke:none;">
        <path d="M636.5 296.5 L697.5 296.5 L697.5 357.5 L636.5 357.5 L636.5 296.5 "/>
      </g>
      <g style="fill:#F86C6B;stroke:none;">
        <path d="M636.5 418.5 L697.5 418.5 L697.5 479.5 L636.5 479.5 L636.5 418.5 "/>
      </g>
      <g style="fill:#F86C6B;stroke:none;">
        <path d="M636.5 540.5 L697.5 540.5 L697.5 601.5 L636.5 601.5 L636.5 540.5 "/>
      </g>
    </g>
  </g>
</svg>
