<?xml version="1.0" encoding="UTF-8"?>
<svg xmlns="http://www.w3.org/2000/svg" height="288px" version="1.1" width="480px">
  <g style="fill:#FFF5CC;stroke:none;">
    <path d="M0.0 0.0 L480.0 0.0 L480.0 288.0 L0.0 288.0 L0.0 0.0 "/>
    <g style="">
      <g style="fill:#96FF00;stroke:none;">
        <path d="M1617.3293 1777.297 L1382.3293 1777.297 L1382.3293 1542.297 L1617.3293 1542.297 L1617.3293 1777.297 "/>
      </g>
      <g style="fill:#BDFF00;stroke:none;">
        <path d="M1617.3293 1330.297 L1382.3293 1330.297 L1382.3293 1095.297 L1617.3293 1095.297 L1617.3293 1330.297 "/>
      </g>
      <g style="fill:#E3FF00;stroke:none;">
        <path d="M1617.3295 883.297 L1382.3293 883.297 L1382.3293 648.297 L1617.3295 648.297 L1617.3295 883.297 "/>
      </g>
      <g style="fill:#FFF300;stroke:none;">
        <path d="M1617.3295 436.297 L1382.3295 436.297 L1382.3295 201.29698 L1617.3295 201.297 L1617.3295 436.297 "/>
      </g>
      <g style="fill:#FFCD00;stroke:none;">
        <path d="M1617.3295 -10.702988 L1382.3295 -10.703018 L1382.3296 -245.703 L1617.3295 -245.703 L1617.3295 -10.702988 "/>
      </g>
      <g style="fill:#FFE165;stroke:none;">
        <path d="M1617.3295 -457.70297 L1382.3296 -457.70303 L1382.3296 -692.703 L1617.3296 -692.703 L1617.3295 -457.70297 "/>
      </g>
      <g style="fill:#FFE165;stroke:none;">
        <path d="M1617.3296 -904.703 L1382.3296 -904.703 L1382.3296 -1139.703 L1617.3296 -1139.703 L1617.3296 -904.703 "/>
      </g>
      <g style="fill:#FFE165;stroke:none;">
        <path d="M1617.3296 -1351.703 L1382.3296 -1351.703 L1382.3296 -1586.703 L1617.3296 -1586.703 L1617.3296 -1351.703 "/>
      </g>
      <g style="fill:#FFE165;stroke:none;">
        <path d="M980.663 1659.8027 L1146.8331 1493.6326 L1313.0032 1659.8029 L1146.8331 1825.9728 L980.663 1659.8027 "/>
      </g>
      <g style="fill:#96FF00;stroke:none;">
        <path d="M980.66516 1212.802 L1146.8352 1046.632 L1313.0054 1212.802 L1146.8352 1378.9719 L980.66516 1212.802 "/>
      </g>
      <g style="fill:#BDFF00;stroke:none;">
        <path d="M980.66406 765.8013 L1146.8342 599.6312 L1313.0042 765.8014 L1146.8342 931.97144 L980.66406 765.8013 "/>
      </g>
      <g style="fill:#E3FF00;stroke:none;">
        <path d="M980.6654 318.80438 L1146.8354 152.63437 L1313.0056 318.80444 L1146.8354 484.97446 L980.6654 318.80438 "/>
      </g>
      <g style="fill:#FFF300;stroke:none;">
        <path d="M980.66614 -128.18744 L1146.8364 -294.35757 L1313.0065 -128.18741 L1146.8363 37.982758 L980.66614 -128.18744 "/>
      </g>
      <g style="fill:#FFCD00;stroke:none;">
        <path d="M980.6695 -575.18445 L1146.8396 -741.3544 L1313.0098 -575.18445 L1146.8396 -409.0143 L980.6695 -575.18445 "/>
      </g>
      <g style="fill:#FFE165;stroke:none;">
        <path d="M980.6648 -1022.2002 L1146.8347 -1188.3701 L1313.0049 -1022.2001 L1146.8347 -856.03 L980.6648 -1022.2002 "/>
      </g>
      <g style="fill:#FFE165;stroke:none;">
        <path d="M980.6709 -1469.1848 L1146.8411 -1635.355 L1313.0112 -1469.1847 L1146.8411 -1303.0146 L980.6709 -1469.1848 "/>
      </g>
      <g style="fill:#FFE165;stroke:none;">
        <path d="M911.32996 1542.3048 L911.32996 1777.3048 L676.32996 1777.3048 L676.32996 1542.3048 L911.32996 1542.3048 "/>
      </g>
      <g style="fill:#FFE165;stroke:none;">
        <path d="M911.32776 1095.3026 L911.32776 1330.3025 L676.3277 1330.3025 L676.32776 1095.3025 L911.32776 1095.3026 "/>
      </g>
      <g style="fill:#96FF00;stroke:none;">
        <path d="M911.3314 648.30475 L911.3314 883.3048 L676.3314 883.3047 L676.3314 648.30475 L911.3314 648.30475 "/>
      </g>
      <g style="fill:#BDFF00;stroke:none;">
        <path d="M911.33044 201.30524 L911.33044 436.30524 L676.33044 436.30524 L676.33044 201.30522 L911.33044 201.30524 "/>
      </g>
      <g style="fill:#E3FF00;stroke:none;">
        <path d="M911.327 -245.69037 L911.327 -10.690369 L676.327 -10.690384 L676.327 -245.69037 L911.327 -245.69037 "/>
      </g>
      <g style="fill:#FFF300;stroke:none;">
        <path d="M911.32227 -692.6859 L911.3222 -457.68594 L676.3222 -457.686 L676.3222 -692.68604 L911.32227 -692.6859 "/>
      </g>
      <g style="fill:#FFCD00;stroke:none;">
        <path d="M911.33813 -1139.7021 L911.33813 -904.70215 L676.33813 -904.70215 L676.33813 -1139.7021 L911.33813 -1139.7021 "/>
      </g>
      <g style="fill:#FFE165;stroke:none;">
        <path d="M911.30615 -1586.6797 L911.30615 -1351.6797 L676.30615 -1351.6797 L676.30615 -1586.6797 L911.30615 -1586.6797 "/>
      </g>
      <g style="fill:#FFE165;stroke:none;">
        <path d="M440.83347 1825.9646 L274.66333 1659.7944 L440.8335 1493.6243 L607.00354 1659.7944 L440.83347 1825.9646 "/>
      </g>
      <g style="fill:#FFE165;stroke:none;">
        <path d="M440.8328 1378.9666 L274.66263 1212.7965 L440.83282 1046.6265 L607.0029 1212.7965 L440.8328 1378.9666 "/>
      </g>
      <g style="fill:#FFE165;stroke:none;">
        <path d="M440.83246 931.96814 L274.6624 765.798 L440.8325 599.6279 L607.00256 765.798 L440.83246 931.96814 "/>
      </g>
      <g style="fill:#96FF00;stroke:none;">
        <path d="M440.83115 484.96365 L274.661 318.79346 L440.83118 152.62332 L607.0012 318.79352 L440.83115 484.96365 "/>
      </g>
      <g style="fill:#BDFF00;stroke:none;">
        <path d="M440.83496 37.967438 L274.66495 -128.20264 L440.8351 -294.37277 L607.0051 -128.20285 L440.83496 37.967438 "/>
      </g>
      <g style="fill:#E3FF00;stroke:none;">
        <path d="M440.83954 -409.0339 L274.66937 -575.2041 L440.83957 -741.374 L607.0096 -575.2041 L440.83954 -409.0339 "/>
      </g>
      <g style="fill:#FFF300;stroke:none;">
        <path d="M440.83005 -856.03784 L274.6599 -1022.208 L440.83008 -1188.3779 L607.0001 -1022.208 L440.83005 -856.03784 "/>
      </g>
      <g style="fill:#FFCD00;stroke:none;">
        <path d="M440.83948 -1303.0364 L274.66946 -1469.2063 L440.83963 -1635.3765 L607.00964 -1469.2063 L440.83948 -1303.0364 "/>
      </g>
      <g style="fill:#FFE165;stroke:none;">
        <path d="M-29.661133 1542.3042 L205.33887 1542.3042 L205.33884 1777.3042 L-29.661163 1777.3042 L-29.661133 1542.3042 "/>
      </g>
      <g style="fill:#FFE165;stroke:none;">
        <path d="M-29.663544 1095.3057 L205.33646 1095.3057 L205.33646 1330.3057 L-29.663544 1330.3057 L-29.663544 1095.3057 "/>
      </g>
      <g style="fill:#FFE165;stroke:none;">
        <path d="M-29.658844 648.29834 L205.34116 648.29834 L205.34113 883.29834 L-29.658875 883.29834 L-29.658844 648.29834 "/>
      </g>
      <g style="fill:#FFE165;stroke:none;">
        <path d="M-29.671265 201.30077 L205.32874 201.30078 L205.3287 436.30078 L-29.671295 436.30078 L-29.671265 201.30077 "/>
      </g>
      <g style="fill:#96FF00;stroke:none;">
        <path d="M-29.664154 -245.68408 L205.33585 -245.68408 L205.33585 -10.684082 L-29.664154 -10.684097 L-29.664154 -245.68408 "/>
      </g>
      <g style="fill:#BDFF00;stroke:none;">
        <path d="M-29.665558 -692.68115 L205.33444 -692.68115 L205.33441 -457.68112 L-29.665588 -457.68118 L-29.665558 -692.68115 "/>
      </g>
      <g style="fill:#E3FF00;stroke:none;">
        <path d="M-29.660278 -1139.7144 L205.33972 -1139.7144 L205.33969 -904.71436 L-29.660309 -904.71436 L-29.660278 -1139.7144 "/>
      </g>
      <g style="fill:#FFF300;stroke:none;">
        <path d="M-29.666595 -1586.6641 L205.3334 -1586.6641 L205.33337 -1351.6641 L-29.666626 -1351.6641 L-29.666595 -1586.6641 "/>
      </g>
      <g style="fill:#FFCD00;stroke:none;">
        <path d="M-99.00098 1659.8036 L-265.17102 1825.9735 L-431.34106 1659.8035 L-265.17102 1493.6333 L-99.00098 1659.8036 "/>
      </g>
      <g style="fill:#FFE165;stroke:none;">
        <path d="M-99.00238 1212.806 L-265.17236 1378.976 L-431.34247 1212.806 L-265.17242 1046.636 L-99.00238 1212.806 "/>
      </g>
      <g style="fill:#FFE165;stroke:none;">
        <path d="M-99.00287 765.80273 L-265.1729 931.9728 L-431.34296 765.80273 L-265.17303 599.6327 L-99.00287 765.80273 "/>
      </g>
      <g style="fill:#FFE165;stroke:none;">
        <path d="M-98.99963 318.80835 L-265.1698 484.9785 L-431.33972 318.8083 L-265.1698 152.63828 L-98.99963 318.80835 "/>
      </g>
      <g style="fill:#FFE165;stroke:none;">
        <path d="M-99.00012 -128.1962 L-265.17004 37.973846 L-431.3402 -128.19635 L-265.16998 -294.36624 L-99.00012 -128.1962 "/>
      </g>
      <g style="fill:#96FF00;stroke:none;">
        <path d="M-99.00714 -575.1929 L-265.17706 -409.02298 L-431.34723 -575.1929 L-265.17706 -741.3628 L-99.00714 -575.1929 "/>
      </g>
      <g style="fill:#BDFF00;stroke:none;">
        <path d="M-99.00183 -1022.1948 L-265.1718 -856.0248 L-431.3418 -1022.19495 L-265.17175 -1188.3649 L-99.00183 -1022.1948 "/>
      </g>
      <g style="fill:#E3FF00;stroke:none;">
        <path d="M-99.0116 -1469.1907 L-265.18176 -1303.0206 L-431.35205 -1469.1906 L-265.18195 -1635.3607 L-99.0116 -1469.1907 "/>
      </g>
      <g style="fill:#FFF300;stroke:none;">
        <path d="M-735.6699 1777.3058 L-735.6699 1542.3058 L-500.66992 1542.3058 L-500.66992 1777.3058 L-735.6699 1777.3058 "/>
      </g>
      <g style="fill:#FFCD00;stroke:none;">
        <path d="M-735.6582 1330.3024 L-735.6582 1095.3024 L-500.65814 1095.3025 L-500.6582 1330.3024 L-735.6582 1330.3024 "/>
      </g>
      <g style="fill:#FFE165;stroke:none;">
        <path d="M-735.66394 883.30383 L-735.66394 648.3039 L-500.66376 648.3039 L-500.66376 883.30396 L-735.66394 883.30383 "/>
      </g>
      <g style="fill:#FFE165;stroke:none;">
        <path d="M-735.67786 436.30438 L-735.67786 201.30437 L-500.67786 201.30438 L-500.67786 436.30438 L-735.67786 436.30438 "/>
      </g>
      <g style="fill:#FFE165;stroke:none;">
        <path d="M-735.6676 -10.702591 L-735.6676 -245.70258 L-500.66754 -245.70258 L-500.6676 -10.702576 L-735.6676 -10.702591 "/>
      </g>
      <g style="fill:#FFE165;stroke:none;">
        <path d="M-735.66077 -457.68637 L-735.66064 -692.6864 L-500.6607 -692.6863 L-500.6607 -457.6863 L-735.66077 -457.68637 "/>
      </g>
      <g style="fill:#96FF00;stroke:none;">
        <path d="M-735.6821 -904.71423 L-735.6821 -1139.7142 L-500.68213 -1139.7142 L-500.68213 -904.71423 L-735.6821 -904.71423 "/>
      </g>
      <g style="fill:#BDFF00;stroke:none;">
        <path d="M-735.65186 -1351.6854 L-735.65186 -1586.6854 L-500.6518 -1586.6854 L-500.65186 -1351.6854 L-735.65186 -1351.6854 "/>
      </g>
      <g style="fill:#E3FF00;stroke:none;">
        <path d="M-971.1387 1493.6498 L-804.9685 1659.8198 L-971.1384 1825.99 L-1137.3086 1659.8201 L-971.1387 1493.6498 "/>
      </g>
      <g style="fill:#FFF300;stroke:none;">
        <path d="M-971.1543 1046.6515 L-804.98413 1212.8217 L-971.15405 1378.9918 L-1137.3242 1212.8217 L-971.1543 1046.6515 "/>
      </g>
      <g style="fill:#FFCD00;stroke:none;">
        <path d="M-971.14246 599.6498 L-804.9723 765.81995 L-971.14233 931.9901 L-1137.3124 765.8202 L-971.14246 599.6498 "/>
      </g>
      <g style="fill:#FFE165;stroke:none;">
        <path d="M-971.1349 152.64151 L-804.9647 318.81146 L-971.13464 484.98184 L-1137.3048 318.81165 L-971.1349 152.64151 "/>
      </g>
      <g style="fill:#FFE165;stroke:none;">
        <path d="M-971.1354 -294.36435 L-804.9652 -128.19443 L-971.13513 37.97574 L-1137.3053 -128.19446 L-971.1354 -294.36435 "/>
      </g>
      <g style="fill:#FFE165;stroke:none;">
        <path d="M-971.14355 -741.3329 L-804.9734 -575.1627 L-971.14343 -408.99277 L-1137.3135 -575.1627 L-971.14355 -741.3329 "/>
      </g>
      <g style="fill:#FFE165;stroke:none;">
        <path d="M-971.1416 -1188.3834 L-804.9712 -1022.21326 L-971.1411 -856.0431 L-1137.3113 -1022.213 L-971.1416 -1188.3834 "/>
      </g>
      <g style="fill:#96FF00;stroke:none;">
        <path d="M-971.1592 -1635.3248 L-804.9888 -1469.1549 L-971.1592 -1302.9845 L-1137.3293 -1469.1544 L-971.1592 -1635.3248 "/>
      </g>
    </g>
  </g>
</svg>
