<?xml version="1.0" encoding="UTF-8"?>
<svg xmlns="http://www.w3.org/2000/svg" height="288px" version="1.1" width="480px">
  <g style="fill:#3D5DFF;stroke:none;">
    <path d="M0.0 0.0 L480.0 0.0 L480.0 288.0 L0.0 288.0 L0.0 0.0 "/>
    <g style="">
      <g style="fill:#FF9DAB;stroke:none;">
        <path d="M-1216.0245 -1520.0317 C-1101.1493 -1520.0317 -1008.02454 -1426.907 -1008.02454 -1312.0317 C-1008.02454 -1197.1565 -1101.1493 -1104.0317 -1216.0245 -1104.0317 C-1330.8998 -1104.0317 -1424.0245 -1197.1565 -1424.0245 -1312.0317 C-1424.0245 -1426.907 -1330.8998 -1520.0317 -1216.0245 -1520.0317 Z "/>
      </g>
      <g style="fill:#FFC4CD;stroke:none;">
        <path d="M-1216.0245 -1104.0317 C-1101.1493 -1104.0317 -1008.02454 -1010.907 -1008.02454 -896.03174 C-1008.02454 -781.1565 -1101.1493 -688.03174 -1216.0245 -688.03174 C-1330.8998 -688.03174 -1424.0245 -781.1565 -1424.0245 -896.03174 C-1424.0245 -1010.907 -1330.8998 -1104.0317 -1216.0245 -1104.0317 Z "/>
      </g>
      <g style="fill:#FF9DAB;stroke:none;">
        <path d="M-1216.0245 -688.03174 C-1101.1493 -688.03174 -1008.02454 -594.907 -1008.02454 -480.03174 C-1008.02454 -365.1565 -1101.1493 -272.03174 -1216.0245 -272.03174 C-1330.8998 -272.03174 -1424.0245 -365.1565 -1424.0245 -480.03174 C-1424.0245 -594.907 -1330.8998 -688.03174 -1216.0245 -688.03174 Z "/>
      </g>
      <g style="fill:#FFC4CD;stroke:none;">
        <path d="M-1216.0245 -272.03174 C-1101.1493 -272.03174 -1008.02454 -178.90698 -1008.02454 -64.03174 C-1008.02454 50.843506 -1101.1493 143.96826 -1216.0245 143.96826 C-1330.8998 143.96826 -1424.0245 50.843506 -1424.0245 -64.03174 C-1424.0245 -178.90698 -1330.8998 -272.03174 -1216.0245 -272.03174 Z "/>
      </g>
      <g style="fill:#FF9DAB;stroke:none;">
        <path d="M-1216.0245 143.96826 C-1101.1493 143.96826 -1008.02454 237.09302 -1008.02454 351.96826 C-1008.02454 466.8435 -1101.1493 559.96826 -1216.0245 559.96826 C-1330.8998 559.96826 -1424.0245 466.8435 -1424.0245 351.96826 C-1424.0245 237.09302 -1330.8998 143.96826 -1216.0245 143.96826 Z "/>
      </g>
      <g style="fill:#FFC4CD;stroke:none;">
        <path d="M-1216.0245 559.96826 C-1101.1493 559.96826 -1008.02454 653.093 -1008.02454 767.96826 C-1008.02454 882.8435 -1101.1493 975.96826 -1216.0245 975.96826 C-1330.8998 975.96826 -1424.0245 882.8435 -1424.0245 767.96826 C-1424.0245 653.093 -1330.8998 559.96826 -1216.0245 559.96826 Z "/>
      </g>
      <g style="fill:#FF9DAB;stroke:none;">
        <path d="M-1216.0245 975.96826 C-1101.1493 975.96826 -1008.02454 1069.093 -1008.02454 1183.9683 C-1008.02454 1298.8435 -1101.1493 1391.9683 -1216.0245 1391.9683 C-1330.8998 1391.9683 -1424.0245 1298.8435 -1424.0245 1183.9683 C-1424.0245 1069.093 -1330.8998 975.96826 -1216.0245 975.96826 Z "/>
      </g>
      <g style="fill:#FFC4CD;stroke:none;">
        <path d="M-1216.0245 1391.9683 C-1101.1493 1391.9683 -1008.02454 1485.093 -1008.02454 1599.9683 C-1008.02454 1714.8435 -1101.1493 1807.9683 -1216.0245 1807.9683 C-1330.8998 1807.9683 -1424.0245 1714.8435 -1424.0245 1599.9683 C-1424.0245 1485.093 -1330.8998 1391.9683 -1216.0245 1391.9683 Z "/>
      </g>
      <g style="fill:#FF9DAB;stroke:none;">
        <path d="M-800.0255 -1104.0317 C-914.90076 -1104.0317 -1008.0255 -1197.1565 -1008.0255 -1312.0317 C-1008.0255 -1426.907 -914.9007 -1520.0317 -800.02545 -1520.0317 C-685.15027 -1520.0317 -592.0255 -1426.9069 -592.0255 -1312.0317 C-592.0255 -1197.1565 -685.15027 -1104.0317 -800.0255 -1104.0317 Z "/>
      </g>
      <g style="fill:#FFC4CD;stroke:none;">
        <path d="M-800.02423 -688.03204 C-914.8995 -688.03204 -1008.02423 -781.15686 -1008.02423 -896.03204 C-1008.02423 -1010.9073 -914.8995 -1104.032 -800.02423 -1104.032 C-685.14905 -1104.032 -592.02423 -1010.9073 -592.02423 -896.03204 C-592.0243 -781.1568 -685.14905 -688.032 -800.02423 -688.03204 Z "/>
      </g>
      <g style="fill:#FF9DAB;stroke:none;">
        <path d="M-800.0247 -272.0337 C-914.89996 -272.0337 -1008.0247 -365.15845 -1008.0247 -480.0338 C-1008.02466 -594.90906 -914.8999 -688.0338 -800.02466 -688.0337 C-685.1494 -688.0337 -592.02466 -594.90894 -592.02466 -480.0337 C-592.02466 -365.15845 -685.14954 -272.0337 -800.0247 -272.0337 Z "/>
      </g>
      <g style="fill:#FFC4CD;stroke:none;">
        <path d="M-800.02466 143.9707 C-914.8999 143.97058 -1008.02466 50.845825 -1008.02466 -64.02942 C-1008.02466 -178.90466 -914.8999 -272.02942 -800.02466 -272.0293 C-685.1494 -272.0293 -592.02466 -178.90454 -592.02466 -64.0293 C-592.02466 50.845947 -685.1494 143.9707 -800.02466 143.9707 Z "/>
      </g>
      <g style="fill:#FF9DAB;stroke:none;">
        <path d="M-800.02686 559.9641 C-914.9021 559.96387 -1008.0268 466.83923 -1008.0268 351.964 C-1008.0268 237.08875 -914.90204 143.96411 -800.0268 143.96411 C-685.1516 143.96411 -592.0268 237.08887 -592.02686 351.9641 C-592.02686 466.83936 -685.1516 559.9641 -800.02686 559.9641 Z "/>
      </g>
      <g style="fill:#FFC4CD;stroke:none;">
        <path d="M-800.0251 975.96533 C-914.9003 975.96533 -1008.0251 882.8406 -1008.0251 767.96533 C-1008.0251 653.0901 -914.90027 559.96533 -800.025 559.96533 C-685.14984 559.96533 -592.025 653.0901 -592.025 767.96533 C-592.0251 882.8406 -685.1499 975.96533 -800.0251 975.96533 Z "/>
      </g>
      <g style="fill:#FF9DAB;stroke:none;">
        <path d="M-800.0238 1391.9585 C-914.89905 1391.9585 -1008.0238 1298.8337 -1008.0238 1183.9585 C-1008.0238 1069.0833 -914.89905 975.9585 -800.0238 975.9585 C-685.14856 975.9585 -592.0238 1069.0833 -592.0238 1183.9585 C-592.0238 1298.8337 -685.1486 1391.9585 -800.0238 1391.9585 Z "/>
      </g>
      <g style="fill:#FFC4CD;stroke:none;">
        <path d="M-800.0238 1807.9688 C-914.89905 1807.9688 -1008.0238 1714.844 -1008.0238 1599.9688 C-1008.02374 1485.0935 -914.899 1391.9688 -800.02374 1391.9688 C-685.14856 1391.9688 -592.0238 1485.0935 -592.0238 1599.9688 C-592.0238 1714.844 -685.14856 1807.9688 -800.0238 1807.9688 Z "/>
      </g>
      <g style="fill:#FFDB3D;stroke:none;">
        <path d="M-384.02454 -1520.0317 C-269.1493 -1520.0317 -176.02454 -1426.907 -176.02454 -1312.0317 C-176.02454 -1197.1565 -269.1494 -1104.0317 -384.02466 -1104.0317 C-498.89984 -1104.0317 -592.0246 -1197.1565 -592.0246 -1312.0317 C-592.02454 -1426.907 -498.89978 -1520.0317 -384.02454 -1520.0317 Z "/>
      </g>
      <g style="fill:#FF3D60;stroke:none;">
        <path d="M-384.02454 -1104.0317 C-269.1493 -1104.0317 -176.02454 -1010.9069 -176.02454 -896.0317 C-176.02454 -781.15643 -269.1493 -688.03174 -384.02454 -688.03174 C-498.89978 -688.03174 -592.02454 -781.15656 -592.02454 -896.0318 C-592.0245 -1010.907 -498.89972 -1104.0317 -384.02454 -1104.0317 Z "/>
      </g>
      <g style="fill:#DD3DFF;stroke:none;">
        <path d="M-384.02454 -688.0317 C-269.1493 -688.0317 -176.02454 -594.90686 -176.02454 -480.03162 C-176.02466 -365.15637 -269.1494 -272.03162 -384.02466 -272.03174 C-498.8999 -272.03174 -592.0246 -365.1565 -592.0246 -480.03174 C-592.0246 -594.907 -498.89978 -688.0317 -384.02454 -688.0317 Z "/>
      </g>
      <g style="fill:#3DFFDF;stroke:none;">
        <path d="M-384.02454 -272.03174 C-269.1493 -272.03162 -176.02454 -178.90686 -176.02454 -64.03162 C-176.02454 50.843628 -269.1493 143.96838 -384.02454 143.96826 C-498.89984 143.96826 -592.0246 50.843506 -592.02454 -64.03174 C-592.02454 -178.90698 -498.89978 -272.03174 -384.02454 -272.03174 Z "/>
      </g>
      <g style="fill:#5BFF3D;stroke:none;">
        <path d="M-384.0244 143.96826 C-269.14917 143.96838 -176.02454 237.09314 -176.02454 351.96838 C-176.02454 466.84363 -269.1493 559.96826 -384.02454 559.96826 C-498.89978 559.96826 -592.02454 466.8435 -592.0245 351.96826 C-592.0245 237.09302 -498.89972 143.96826 -384.0244 143.96826 Z "/>
      </g>
      <g style="fill:#FFE13D;stroke:none;">
        <path d="M-384.02454 559.96826 C-269.1493 559.96826 -176.02454 653.093 -176.02454 767.96826 C-176.02454 882.8435 -269.1494 975.96826 -384.02466 975.96826 C-498.89984 975.96826 -592.0246 882.8435 -592.0246 767.96826 C-592.02454 653.093 -498.89978 559.96826 -384.02454 559.96826 Z "/>
      </g>
      <g style="fill:#FF3D59;stroke:none;">
        <path d="M-384.02454 975.96826 C-269.1493 975.96826 -176.02454 1069.093 -176.02454 1183.9683 C-176.02454 1298.8435 -269.1493 1391.9683 -384.02454 1391.9683 C-498.89978 1391.9683 -592.02454 1298.8435 -592.02454 1183.9683 C-592.0245 1069.093 -498.89972 975.96826 -384.02454 975.96826 Z "/>
      </g>
      <g style="fill:#FF9DAB;stroke:none;">
        <path d="M-384.02454 1391.9683 C-269.1493 1391.9683 -176.02454 1485.093 -176.02454 1599.9683 C-176.02466 1714.8435 -269.1494 1807.9683 -384.02466 1807.9683 C-498.8999 1807.9683 -592.0246 1714.8435 -592.0246 1599.9683 C-592.0246 1485.093 -498.89978 1391.9683 -384.02454 1391.9683 Z "/>
      </g>
      <g style="fill:#FFC4CD;stroke:none;">
        <path d="M31.976685 -1104.032 C-82.89856 -1104.032 -176.02332 -1197.1567 -176.02332 -1312.032 C-176.02332 -1426.9072 -82.89856 -1520.032 31.976685 -1520.032 C146.85193 -1520.032 239.97668 -1426.9072 239.97668 -1312.032 C239.97668 -1197.1567 146.85193 -1104.032 31.976685 -1104.032 Z "/>
      </g>
      <g style="fill:#FF9DAB;stroke:none;">
        <path d="M31.975708 -688.0303 C-82.899536 -688.0303 -176.02429 -781.1551 -176.02429 -896.03033 C-176.02429 -1010.9056 -82.899536 -1104.0303 31.975708 -1104.0303 C146.85095 -1104.0303 239.97571 -1010.9055 239.97571 -896.0303 C239.97571 -781.1551 146.85095 -688.0303 31.975708 -688.0303 Z "/>
      </g>
      <g style="fill:#FFC4CD;stroke:none;">
        <path d="M31.974487 -272.0332 C-82.90076 -272.0332 -176.02551 -365.15796 -176.02551 -480.0332 C-176.02551 -594.90845 -82.90076 -688.0332 31.974487 -688.0332 C146.84973 -688.0332 239.97449 -594.90845 239.97449 -480.0332 C239.97449 -365.15796 146.84973 -272.0332 31.974487 -272.0332 Z "/>
      </g>
      <g style="fill:#FF9DAB;stroke:none;">
        <path d="M31.974243 143.97314 C-82.901 143.97314 -176.02576 50.84839 -176.02576 -64.026855 C-176.02576 -178.9021 -82.901 -272.02686 31.974243 -272.02686 C146.84949 -272.02686 239.97424 -178.9021 239.97424 -64.026855 C239.97424 50.84839 146.84949 143.97314 31.974243 143.97314 Z "/>
      </g>
      <g style="fill:#FFC4CD;stroke:none;">
        <path d="M31.9823 559.9724 C-82.892944 559.9724 -176.0177 466.84766 -176.0177 351.9724 C-176.0177 237.09717 -82.892944 143.97241 31.9823 143.97241 C146.85754 143.97241 239.9823 237.09717 239.9823 351.9724 C239.9823 466.84766 146.85754 559.9724 31.9823 559.9724 Z "/>
      </g>
      <g style="fill:#FF9DAB;stroke:none;">
        <path d="M31.985962 975.98047 C-82.88928 975.98047 -176.01404 882.8557 -176.01404 767.98047 C-176.01404 653.1052 -82.88928 559.98047 31.985962 559.98047 C146.8612 559.98047 239.98596 653.1052 239.98596 767.98047 C239.98596 882.8557 146.8612 975.98047 31.985962 975.98047 Z "/>
      </g>
      <g style="fill:#FFC4CD;stroke:none;">
        <path d="M31.972046 1391.9668 C-82.9032 1391.9668 -176.02783 1298.842 -176.02783 1183.9668 C-176.02783 1069.0916 -82.903076 975.9668 31.972168 975.9668 C146.84741 975.9668 239.97217 1069.0916 239.97217 1183.9668 C239.97217 1298.842 146.84729 1391.9668 31.972046 1391.9668 Z "/>
      </g>
      <g style="fill:#FF9DAB;stroke:none;">
        <path d="M31.97705 1807.9727 C-82.89819 1807.9727 -176.02295 1714.8479 -176.02295 1599.9727 C-176.02295 1485.0974 -82.89819 1391.9727 31.97705 1391.9727 C146.8523 1391.9727 239.97705 1485.0974 239.97705 1599.9727 C239.97705 1714.8479 146.8523 1807.9727 31.97705 1807.9727 Z "/>
      </g>
      <g style="fill:#FFC4CD;stroke:none;">
        <path d="M447.9756 -1520.0317 C562.8508 -1520.0317 655.97546 -1426.9069 655.97546 -1312.0316 C655.97546 -1197.1565 562.8507 -1104.0317 447.97546 -1104.0317 C333.10022 -1104.0317 239.97546 -1197.1566 239.97546 -1312.0319 C239.97559 -1426.907 333.10034 -1520.0317 447.9756 -1520.0317 Z "/>
      </g>
      <g style="fill:#FF9DAB;stroke:none;">
        <path d="M447.9756 -1104.0317 C562.8508 -1104.0317 655.97546 -1010.90686 655.97546 -896.0317 C655.97546 -781.15643 562.8507 -688.03174 447.97546 -688.03174 C333.10022 -688.0318 239.97546 -781.15656 239.97546 -896.0318 C239.97559 -1010.90704 333.10034 -1104.0317 447.9756 -1104.0317 Z "/>
      </g>
      <g style="fill:#FFC4CD;stroke:none;">
        <path d="M447.9756 -688.0317 C562.8508 -688.0317 655.97546 -594.90686 655.97546 -480.03162 C655.97546 -365.15637 562.8506 -272.03162 447.97534 -272.03174 C333.1001 -272.03174 239.97546 -365.1565 239.97546 -480.03174 C239.97546 -594.907 333.10034 -688.03174 447.9756 -688.0317 Z "/>
      </g>
      <g style="fill:#FF9DAB;stroke:none;">
        <path d="M447.97546 -272.03174 C562.8507 -272.03162 655.97546 -178.90686 655.97546 -64.03162 C655.97546 50.843628 562.8506 143.96838 447.97534 143.96826 C333.1001 143.96826 239.97534 50.843506 239.97546 -64.03174 C239.97546 -178.90698 333.10022 -272.03174 447.97546 -272.03174 Z "/>
      </g>
      <g style="fill:#FFC4CD;stroke:none;">
        <path d="M447.97546 143.96826 C562.8507 143.96838 655.97546 237.09314 655.97546 351.96838 C655.97546 466.84363 562.8506 559.96826 447.97534 559.96826 C333.1001 559.96826 239.97534 466.8435 239.97546 351.96826 C239.97546 237.09302 333.10022 143.96826 447.97546 143.96826 Z "/>
      </g>
      <g style="fill:#FF9DAB;stroke:none;">
        <path d="M447.9756 559.96826 C562.8508 559.96826 655.97546 653.093 655.97546 767.96826 C655.97546 882.8435 562.8507 975.96826 447.97546 975.96826 C333.10022 975.96826 239.97546 882.84326 239.97546 767.968 C239.97559 653.0928 333.10034 559.96826 447.9756 559.96826 Z "/>
      </g>
      <g style="fill:#FFC4CD;stroke:none;">
        <path d="M447.9756 975.96826 C562.8508 975.96826 655.97546 1069.093 655.97546 1183.9683 C655.97546 1298.8435 562.8507 1391.9683 447.97546 1391.9683 C333.10022 1391.9683 239.97546 1298.8433 239.97546 1183.968 C239.97559 1069.0928 333.10034 975.96826 447.9756 975.96826 Z "/>
      </g>
      <g style="fill:#FFDB3D;stroke:none;">
        <path d="M447.9756 1391.9683 C562.8508 1391.9683 655.97546 1485.093 655.97546 1599.9683 C655.97546 1714.8435 562.8506 1807.9683 447.97534 1807.9683 C333.1001 1807.9683 239.97546 1714.8433 239.97546 1599.968 C239.97546 1485.0928 333.10034 1391.9683 447.9756 1391.9683 Z "/>
      </g>
      <g style="fill:#FF3D60;stroke:none;">
        <path d="M863.9745 -1104.0316 C749.09924 -1104.0316 655.9745 -1197.1564 655.9745 -1312.0316 C655.9745 -1426.9067 749.09924 -1520.0316 863.9745 -1520.0316 C978.84973 -1520.0317 1071.9745 -1426.907 1071.9745 -1312.0317 C1071.9745 -1197.1565 978.84973 -1104.0317 863.9745 -1104.0316 Z "/>
      </g>
      <g style="fill:#DD3DFF;stroke:none;">
        <path d="M863.9735 -688.0294 C749.09827 -688.02936 655.97327 -781.1541 655.97327 -896.02936 C655.97327 -1010.9046 749.098 -1104.0293 863.97327 -1104.0294 C978.8485 -1104.0294 1071.9733 -1010.9047 1071.9733 -896.0295 C1071.9733 -781.15424 978.84875 -688.0294 863.9735 -688.0294 Z "/>
      </g>
      <g style="fill:#3DFFDF;stroke:none;">
        <path d="M863.99084 -272.0287 C749.1156 -272.02856 655.99084 -365.15332 655.99084 -480.02856 C655.99084 -594.9038 749.1156 -688.0287 863.99084 -688.0287 C978.8661 -688.0287 1071.9908 -594.90393 1071.9908 -480.0287 C1071.9908 -365.15356 978.8661 -272.0287 863.99084 -272.0287 Z "/>
      </g>
      <g style="fill:#5BFF3D;stroke:none;">
        <path d="M863.9752 143.96643 C749.1 143.96643 655.975 50.841797 655.975 -64.03345 C655.975 -178.90869 749.09973 -272.03357 863.975 -272.03357 C978.8502 -272.03357 1071.975 -178.90881 1071.975 -64.03357 C1071.975 50.841675 978.85046 143.96643 863.9752 143.96643 Z "/>
      </g>
      <g style="fill:#FFE13D;stroke:none;">
        <path d="M863.975 559.9756 C749.09973 559.9756 655.975 466.85107 655.975 351.97583 C655.975 237.10059 749.09973 143.97583 863.975 143.97583 C978.8502 143.97559 1071.975 237.10046 1071.975 351.9757 C1071.975 466.85095 978.8502 559.9756 863.975 559.9756 Z "/>
      </g>
      <g style="fill:#FF3D59;stroke:none;">
        <path d="M863.98865 975.99146 C749.1134 975.99146 655.98865 882.8667 655.9884 767.99146 C655.9884 653.1162 749.11316 559.99146 863.9884 559.99146 C978.86365 559.9912 1071.9884 653.11597 1071.9884 767.9912 C1071.9886 882.86646 978.8639 975.9912 863.98865 975.99146 Z "/>
      </g>
      <g style="fill:#FF9DAB;stroke:none;">
        <path d="M863.9474 1391.9211 C749.07214 1391.9211 655.9474 1298.7964 655.9474 1183.9211 C655.9474 1069.0459 749.07214 975.92114 863.9474 975.92114 C978.82263 975.9209 1071.9474 1069.0457 1071.9474 1183.9209 C1071.9474 1298.7961 978.82263 1391.9209 863.9474 1391.9211 Z "/>
      </g>
      <g style="fill:#FFC4CD;stroke:none;">
        <path d="M863.92834 1807.9172 C749.0531 1807.9172 655.92834 1714.7925 655.9281 1599.9172 C655.9281 1485.042 749.05286 1391.9172 863.9281 1391.9172 C978.80334 1391.917 1071.9281 1485.0417 1071.9281 1599.917 C1071.9283 1714.7922 978.8036 1807.917 863.92834 1807.9172 Z "/>
      </g>
      <g style="fill:#FF9DAB;stroke:none;">
        <path d="M1279.9755 -1520.0317 C1394.8507 -1520.0317 1487.9755 -1426.907 1487.9755 -1312.0317 C1487.9755 -1197.1565 1394.8507 -1104.0317 1279.9755 -1104.0317 C1165.1002 -1104.0317 1071.9755 -1197.1565 1071.9755 -1312.0317 C1071.9755 -1426.907 1165.1002 -1520.0317 1279.9755 -1520.0317 Z "/>
      </g>
      <g style="fill:#FFC4CD;stroke:none;">
        <path d="M1279.9755 -1104.0317 C1394.8507 -1104.0317 1487.9755 -1010.9069 1487.9755 -896.03174 C1487.9755 -781.1565 1394.8507 -688.03174 1279.9755 -688.03174 C1165.1002 -688.03174 1071.9755 -781.1565 1071.9755 -896.03174 C1071.9755 -1010.907 1165.1002 -1104.0317 1279.9755 -1104.0317 Z "/>
      </g>
      <g style="fill:#FF9DAB;stroke:none;">
        <path d="M1279.9755 -688.03174 C1394.8507 -688.03174 1487.9755 -594.907 1487.9755 -480.03174 C1487.9755 -365.1565 1394.8507 -272.03174 1279.9755 -272.03174 C1165.1002 -272.03174 1071.9755 -365.1565 1071.9755 -480.03174 C1071.9755 -594.907 1165.1002 -688.03174 1279.9755 -688.03174 Z "/>
      </g>
      <g style="fill:#FFC4CD;stroke:none;">
        <path d="M1279.9755 -272.03174 C1394.8507 -272.03174 1487.9755 -178.90698 1487.9755 -64.03174 C1487.9755 50.843506 1394.8507 143.96826 1279.9755 143.96826 C1165.1002 143.96826 1071.9755 50.843506 1071.9755 -64.03174 C1071.9755 -178.90698 1165.1002 -272.03174 1279.9755 -272.03174 Z "/>
      </g>
      <g style="fill:#FF9DAB;stroke:none;">
        <path d="M1279.9755 143.96826 C1394.8507 143.96826 1487.9755 237.09302 1487.9755 351.96826 C1487.9755 466.8435 1394.8507 559.96826 1279.9755 559.96826 C1165.1002 559.96826 1071.9755 466.8435 1071.9755 351.96826 C1071.9755 237.09302 1165.1002 143.96826 1279.9755 143.96826 Z "/>
      </g>
      <g style="fill:#FFC4CD;stroke:none;">
        <path d="M1279.9755 559.96826 C1394.8507 559.96826 1487.9755 653.093 1487.9755 767.96826 C1487.9755 882.8435 1394.8507 975.96826 1279.9755 975.96826 C1165.1002 975.96826 1071.9755 882.84326 1071.9755 767.968 C1071.9755 653.0928 1165.1002 559.96826 1279.9755 559.96826 Z "/>
      </g>
      <g style="fill:#FF9DAB;stroke:none;">
        <path d="M1279.9757 975.96826 C1394.851 975.96826 1487.9755 1069.093 1487.9755 1183.9683 C1487.9755 1298.8435 1394.8507 1391.9683 1279.9755 1391.9683 C1165.1002 1391.9683 1071.9755 1298.8433 1071.9755 1183.968 C1071.9755 1069.0928 1165.1005 975.96826 1279.9757 975.96826 Z "/>
      </g>
      <g style="fill:#FFC4CD;stroke:none;">
        <path d="M1279.9755 1391.9683 C1394.8507 1391.9683 1487.9755 1485.093 1487.9755 1599.9683 C1487.9755 1714.8435 1394.8507 1807.9683 1279.9755 1807.9683 C1165.1002 1807.9683 1071.9755 1714.8433 1071.9755 1599.968 C1071.9755 1485.0928 1165.1002 1391.9683 1279.9755 1391.9683 Z "/>
      </g>
      <g style="fill:#FF9DAB;stroke:none;">
        <path d="M1695.9677 -1104.0326 C1581.0924 -1104.0326 1487.9677 -1197.1572 1487.9677 -1312.0325 C1487.9674 -1426.9077 1581.0922 -1520.0326 1695.9674 -1520.0326 C1810.8427 -1520.0327 1903.9674 -1426.908 1903.9677 -1312.0327 C1903.9677 -1197.1575 1810.8429 -1104.0327 1695.9677 -1104.0326 Z "/>
      </g>
      <g style="fill:#FFC4CD;stroke:none;">
        <path d="M1695.9606 -688.0344 C1581.0853 -688.0344 1487.9606 -781.1591 1487.9606 -896.0343 C1487.9603 -1010.90955 1581.0851 -1104.0344 1695.9603 -1104.0344 C1810.8356 -1104.0344 1903.9603 -1010.9098 1903.9606 -896.03455 C1903.9606 -781.15936 1810.8358 -688.03455 1695.9606 -688.0344 Z "/>
      </g>
      <g style="fill:#FF9DAB;stroke:none;">
        <path d="M1695.9691 -272.0304 C1581.0939 -272.03027 1487.9691 -365.15503 1487.9691 -480.03027 C1487.9689 -594.9055 1581.0936 -688.0304 1695.9689 -688.0304 C1810.8441 -688.0305 1903.9689 -594.90576 1903.9691 -480.03052 C1903.9691 -365.15527 1810.8444 -272.03052 1695.9691 -272.0304 Z "/>
      </g>
      <g style="fill:#FFC4CD;stroke:none;">
        <path d="M1695.9298 143.94763 C1581.0546 143.94763 1487.9298 50.822998 1487.9298 -64.052246 C1487.9296 -178.92749 1581.0543 -272.05237 1695.9296 -272.05237 C1810.8048 -272.0525 1903.9296 -178.92773 1903.9298 -64.05249 C1903.9298 50.822754 1810.805 143.94751 1695.9298 143.94763 Z "/>
      </g>
      <g style="fill:#FF9DAB;stroke:none;">
        <path d="M1695.9559 559.959 C1581.0807 559.959 1487.9559 466.83423 1487.9559 351.95898 C1487.9557 237.08374 1581.0804 143.95898 1695.9557 143.95874 C1810.8309 143.95874 1903.9557 237.0835 1903.9559 351.95874 C1903.9559 466.83398 1810.8312 559.95874 1695.9559 559.959 Z "/>
      </g>
      <g style="fill:#FFC4CD;stroke:none;">
        <path d="M1695.942 975.9426 C1581.0668 975.9429 1487.942 882.8181 1487.942 767.9429 C1487.9418 653.0676 1581.0665 559.9429 1695.9418 559.9426 C1810.817 559.9426 1903.9418 653.0674 1903.942 767.9426 C1903.942 882.8179 1810.8173 975.9426 1695.942 975.9426 Z "/>
      </g>
      <g style="fill:#FFDB3D;stroke:none;">
        <path d="M1695.9906 1391.9944 C1581.1154 1391.9946 1487.9906 1298.8699 1487.9906 1183.9946 C1487.9904 1069.1194 1581.1151 975.9946 1695.9904 975.9944 C1810.8656 975.9944 1903.9904 1069.1191 1903.9906 1183.9944 C1903.9906 1298.8696 1810.8658 1391.9944 1695.9906 1391.9944 Z "/>
      </g>
      <g style="fill:#FF3D60;stroke:none;">
        <path d="M1696.0245 1808.0305 C1581.1493 1808.0308 1488.0245 1714.906 1488.0245 1600.0308 C1488.0243 1485.1555 1581.149 1392.0308 1696.0243 1392.0305 C1810.8995 1392.0305 1904.0243 1485.1553 1904.0245 1600.0305 C1904.0245 1714.9058 1810.8998 1808.0305 1696.0245 1808.0305 Z "/>
      </g>
    </g>
  </g>
</svg>
