<?xml version="1.0" encoding="UTF-8"?>
<svg xmlns="http://www.w3.org/2000/svg" height="288px" version="1.1" width="480px">
  <g style="fill:#ECB0A5;stroke:none;">
    <path d="M0.0 0.0 L480.0 0.0 L480.0 288.0 L0.0 288.0 L0.0 0.0 "/>
    <g style="">
      <g style="fill:#EC2600;stroke:none;">
        <path d="M1976.6338 2084.6118 L1812.6338 1756.6117 L2140.6338 1756.6117 L1976.6338 2084.6118 "/>
      </g>
      <g style="fill:#EC3715;stroke:none;">
        <path d="M1976.6338 1592.6117 L1812.6338 1264.6117 L2140.6338 1264.6117 L1976.6338 1592.6117 "/>
      </g>
      <g style="fill:#EC2600;stroke:none;">
        <path d="M1976.6338 1100.6117 L1812.6339 772.6117 L2140.6338 772.6117 L1976.6338 1100.6117 "/>
      </g>
      <g style="fill:#EC3715;stroke:none;">
        <path d="M1976.6339 608.6117 L1812.6339 280.6117 L2140.6338 280.61172 L1976.6339 608.6117 "/>
      </g>
      <g style="fill:#EC2600;stroke:none;">
        <path d="M1976.6339 116.61171 L1812.6339 -211.3883 L2140.6338 -211.38828 L1976.6339 116.61171 "/>
      </g>
      <g style="fill:#EC3715;stroke:none;">
        <path d="M1976.6339 -375.3883 L1812.634 -703.3883 L2140.634 -703.3883 L1976.6339 -375.3883 "/>
      </g>
      <g style="fill:#EC2600;stroke:none;">
        <path d="M1976.634 -867.3883 L1812.634 -1195.3883 L2140.634 -1195.3883 L1976.634 -867.3883 "/>
      </g>
      <g style="fill:#EC3715;stroke:none;">
        <path d="M1976.634 -1359.3883 L1812.634 -1687.3883 L2140.634 -1687.3883 L1976.634 -1359.3883 "/>
      </g>
      <g style="fill:#EC2600;stroke:none;">
        <path d="M1330.0073 1711.3282 L1677.9039 1827.2938 L1445.9728 2059.2246 L1330.0073 1711.3282 "/>
      </g>
      <g style="fill:#EC3715;stroke:none;">
        <path d="M1329.9971 1219.3257 L1677.8936 1335.2911 L1445.9625 1567.2222 L1329.9971 1219.3257 "/>
      </g>
      <g style="fill:#EC2600;stroke:none;">
        <path d="M1330.0181 727.3315 L1677.9146 843.297 L1445.9834 1075.228 L1330.0181 727.3315 "/>
      </g>
      <g style="fill:#EC3715;stroke:none;">
        <path d="M1330.0161 235.3315 L1677.9127 351.29697 L1445.9816 583.22815 L1330.0161 235.3315 "/>
      </g>
      <g style="fill:#00C6EC;stroke:none;">
        <path d="M1330.0122 -256.68036 L1677.9086 -140.715 L1445.9774 91.216156 L1330.0122 -256.68036 "/>
      </g>
      <g style="fill:#EC2500;stroke:none;">
        <path d="M1330.032 -748.652 L1677.9285 -632.6864 L1445.9976 -400.75555 L1330.032 -748.652 "/>
      </g>
      <g style="fill:#00C6EC;stroke:none;">
        <path d="M1330.002 -1240.7023 L1677.8987 -1124.7367 L1445.9675 -892.80554 L1330.002 -1240.7023 "/>
      </g>
      <g style="fill:#EC2500;stroke:none;">
        <path d="M1330.0042 -1732.6764 L1677.9009 -1616.7108 L1445.9697 -1384.7797 L1330.0042 -1732.6764 "/>
      </g>
      <g style="fill:#00C6EC;stroke:none;">
        <path d="M1211.3027 1865.9486 L883.30273 2029.9485 L883.30273 1701.9485 L1211.3027 1865.9486 "/>
      </g>
      <g style="fill:#EC2500;stroke:none;">
        <path d="M1211.3025 1373.9366 L883.3025 1537.9365 L883.3025 1209.9365 L1211.3025 1373.9366 "/>
      </g>
      <g style="fill:#EC2600;stroke:none;">
        <path d="M1211.2979 881.951 L883.2979 1045.9509 L883.298 717.9509 L1211.2979 881.951 "/>
      </g>
      <g style="fill:#EC3715;stroke:none;">
        <path d="M1211.289 389.94073 L883.28894 553.9407 L883.28894 225.9407 L1211.289 389.94073 "/>
      </g>
      <g style="fill:#EC2600;stroke:none;">
        <path d="M1211.2864 -102.05243 L883.2864 61.94754 L883.28644 -266.05243 L1211.2864 -102.05243 "/>
      </g>
      <g style="fill:#EC3715;stroke:none;">
        <path d="M1211.2905 -594.0363 L883.2906 -430.03632 L883.29065 -758.0364 L1211.2905 -594.0363 "/>
      </g>
      <g style="fill:#EC2600;stroke:none;">
        <path d="M1211.3055 -1086.0582 L883.30554 -922.05835 L883.30554 -1250.0583 L1211.3055 -1086.0582 "/>
      </g>
      <g style="fill:#EC3715;stroke:none;">
        <path d="M1211.2683 -1578.0177 L883.2683 -1414.0178 L883.2684 -1742.0178 L1211.2683 -1578.0177 "/>
      </g>
      <g style="fill:#EC2600;stroke:none;">
        <path d="M346.01242 2020.5646 L461.97803 1672.6681 L693.90894 1904.5991 L346.01242 2020.5646 "/>
      </g>
      <g style="fill:#EC3715;stroke:none;">
        <path d="M346.00415 1528.5742 L461.96976 1180.6777 L693.9009 1412.6089 L346.00415 1528.5742 "/>
      </g>
      <g style="fill:#EC2600;stroke:none;">
        <path d="M346.02008 1036.564 L461.9857 688.6675 L693.91656 920.59863 L346.02008 1036.564 "/>
      </g>
      <g style="fill:#EC3715;stroke:none;">
        <path d="M346.0304 544.5692 L461.99597 196.67273 L693.927 428.60388 L346.0304 544.5692 "/>
      </g>
      <g style="fill:#EC2600;stroke:none;">
        <path d="M346.01013 52.57762 L461.97565 -295.31885 L693.9066 -63.387665 L346.01013 52.57762 "/>
      </g>
      <g style="fill:#EC3715;stroke:none;">
        <path d="M346.0108 -439.42578 L461.9764 -787.32227 L693.9074 -555.39136 L346.0108 -439.42578 "/>
      </g>
      <g style="fill:#00C6EC;stroke:none;">
        <path d="M346.0299 -931.44824 L461.9956 -1279.345 L693.92664 -1047.4141 L346.0299 -931.44824 "/>
      </g>
      <g style="fill:#EC2500;stroke:none;">
        <path d="M346.01236 -1423.4265 L461.9781 -1771.3232 L693.90906 -1539.3923 L346.01236 -1423.4265 "/>
      </g>
      <g style="fill:#00C6EC;stroke:none;">
        <path d="M8.71875 1647.3008 L172.71872 1975.3008 L-155.28125 1975.3008 L8.71875 1647.3008 "/>
      </g>
      <g style="fill:#EC2500;stroke:none;">
        <path d="M8.675354 1155.2986 L172.67532 1483.2986 L-155.3247 1483.2986 L8.675354 1155.2986 "/>
      </g>
      <g style="fill:#00C6EC;stroke:none;">
        <path d="M8.700287 663.31274 L172.70026 991.31274 L-155.29974 991.3127 L8.700287 663.31274 "/>
      </g>
      <g style="fill:#EC2500;stroke:none;">
        <path d="M8.713013 171.35715 L172.71298 499.35715 L-155.28699 499.35712 L8.713013 171.35715 "/>
      </g>
      <g style="fill:#EC2600;stroke:none;">
        <path d="M8.635437 -320.7874 L172.6354 7.212616 L-155.36462 7.2125854 L8.635437 -320.7874 "/>
      </g>
      <g style="fill:#EC3715;stroke:none;">
        <path d="M8.599823 -812.76294 L172.5998 -484.76294 L-155.4002 -484.763 L8.599823 -812.76294 "/>
      </g>
      <g style="fill:#EC2600;stroke:none;">
        <path d="M8.719025 -1304.7317 L172.719 -976.7317 L-155.281 -976.7317 L8.719025 -1304.7317 "/>
      </g>
      <g style="fill:#EC3715;stroke:none;">
        <path d="M8.720032 -1796.6116 L172.72 -1468.6116 L-155.27997 -1468.6116 L8.720032 -1796.6116 "/>
      </g>
      <g style="fill:#EC2600;stroke:none;">
        <path d="M-328.75977 2020.589 L-676.65625 1904.6235 L-444.7251 1672.6925 L-328.75977 2020.589 "/>
      </g>
      <g style="fill:#EC3715;stroke:none;">
        <path d="M-328.75244 1528.6027 L-676.6489 1412.6373 L-444.7177 1180.7063 L-328.75244 1528.6027 "/>
      </g>
      <g style="fill:#EC2600;stroke:none;">
        <path d="M-328.73578 1036.6257 L-676.6322 920.66003 L-444.7011 688.7291 L-328.73578 1036.6257 "/>
      </g>
      <g style="fill:#EC3715;stroke:none;">
        <path d="M-328.77234 544.61163 L-676.6688 428.64612 L-444.7379 196.71512 L-328.77234 544.61163 "/>
      </g>
      <g style="fill:#EC2600;stroke:none;">
        <path d="M-328.75696 52.6165 L-676.6532 -63.34897 L-444.72223 -295.2801 L-328.75696 52.6165 "/>
      </g>
      <g style="fill:#EC3715;stroke:none;">
        <path d="M-328.7735 -439.40607 L-676.6699 -555.37146 L-444.73877 -787.3026 L-328.7735 -439.40607 "/>
      </g>
      <g style="fill:#EC2600;stroke:none;">
        <path d="M-328.73242 -931.3959 L-676.6289 -1047.3612 L-444.69775 -1279.2921 L-328.73242 -931.3959 "/>
      </g>
      <g style="fill:#EC3715;stroke:none;">
        <path d="M-328.72754 -1423.4462 L-676.624 -1539.412 L-444.6928 -1771.3428 L-328.72754 -1423.4462 "/>
      </g>
      <g style="fill:#00C6EC;stroke:none;">
        <path d="M-1193.981 1865.9498 L-865.98096 1701.9498 L-865.98096 2029.9498 L-1193.981 1865.9498 "/>
      </g>
      <g style="fill:#EC2500;stroke:none;">
        <path d="M-1193.9883 1373.9474 L-865.9883 1209.9474 L-865.9883 1537.9474 L-1193.9883 1373.9474 "/>
      </g>
      <g style="fill:#00C6EC;stroke:none;">
        <path d="M-1193.8925 881.8657 L-865.89246 717.8657 L-865.8926 1045.8657 L-1193.8925 881.8657 "/>
      </g>
      <g style="fill:#EC2500;stroke:none;">
        <path d="M-1193.8553 389.93845 L-865.85535 225.93848 L-865.85535 553.9385 L-1193.8553 389.93845 "/>
      </g>
      <g style="fill:#00C6EC;stroke:none;">
        <path d="M-1193.9432 -102.09 L-865.94324 -266.08997 L-865.94324 61.910034 L-1193.9432 -102.09 "/>
      </g>
      <g style="fill:#EC2500;stroke:none;">
        <path d="M-1193.9324 -594.0231 L-865.9324 -758.0231 L-865.9324 -430.02307 L-1193.9324 -594.0231 "/>
      </g>
      <g style="fill:#EC2600;stroke:none;">
        <path d="M-1193.9622 -1086.0853 L-865.96216 -1250.0853 L-865.96216 -922.0853 L-1193.9622 -1086.0853 "/>
      </g>
      <g style="fill:#EC3715;stroke:none;">
        <path d="M-1194.011 -1578.0472 L-866.011 -1742.0472 L-866.011 -1414.0472 L-1194.011 -1578.0472 "/>
      </g>
      <g style="fill:#EC2600;stroke:none;">
        <path d="M-1312.7251 1711.3907 L-1428.6904 2059.2876 L-1660.6216 1827.3564 L-1312.7251 1711.3907 "/>
      </g>
      <g style="fill:#EC3715;stroke:none;">
        <path d="M-1312.7004 1219.395 L-1428.6655 1567.2919 L-1660.5964 1335.3608 L-1312.7004 1219.395 "/>
      </g>
      <g style="fill:#EC2600;stroke:none;">
        <path d="M-1312.5975 727.4613 L-1428.5627 1075.3579 L-1660.4939 843.42706 L-1312.5975 727.4613 "/>
      </g>
      <g style="fill:#EC3715;stroke:none;">
        <path d="M-1312.7245 235.43369 L-1428.6898 583.3307 L-1660.6208 351.39972 L-1312.7245 235.43369 "/>
      </g>
      <g style="fill:#EC2600;stroke:none;">
        <path d="M-1312.6615 -256.56927 L-1428.6266 91.32771 L-1660.5579 -140.60345 L-1312.6615 -256.56927 "/>
      </g>
      <g style="fill:#EC3715;stroke:none;">
        <path d="M-1312.6443 -748.3939 L-1428.6097 -400.497 L-1660.5408 -632.42816 L-1312.6443 -748.3939 "/>
      </g>
      <g style="fill:#EC2600;stroke:none;">
        <path d="M-1312.7368 -1240.6405 L-1428.7021 -892.744 L-1660.6333 -1124.6748 L-1312.7368 -1240.6405 "/>
      </g>
      <g style="fill:#EC3715;stroke:none;">
        <path d="M-1312.7021 -1732.5536 L-1428.6675 -1384.6566 L-1660.5986 -1616.5879 L-1312.7021 -1732.5536 "/>
      </g>
    </g>
  </g>
</svg>
