<?xml version="1.0" encoding="UTF-8"?>
<svg xmlns="http://www.w3.org/2000/svg" height="288px" version="1.1" width="480px">
  <g style="fill:#ECC432;stroke:none;">
    <path d="M0.0 0.0 L480.0 0.0 L480.0 288.0 L0.0 288.0 L0.0 0.0 "/>
    <g style="">
      <g style="fill:#EC32E1;stroke:none;">
        <path d="M-1202.5388 -70.96002 C-1171.2969 -102.201965 -1120.6437 -102.201965 -1089.4017 -70.96002 C-1058.1598 -39.71808 -1058.1598 10.93512 -1089.4017 42.177063 C-1120.6437 73.41904 -1171.2969 73.41904 -1202.5388 42.177094 C-1233.7808 10.93515 -1233.7808 -39.71805 -1202.5388 -70.96002 Z "/>
      </g>
      <g style="fill:#32ADEC;stroke:none;">
        <path d="M-981.9215 149.65726 C-950.67957 118.41531 -900.02637 118.41531 -868.7844 149.65723 C-837.5425 180.89914 -837.5424 231.55237 -868.78436 262.7943 C-900.02637 294.0363 -950.67957 294.03625 -981.9215 262.79434 C-1013.1634 231.55243 -1013.16345 180.89923 -981.9215 149.65726 Z "/>
      </g>
      <g style="fill:#79EC32;stroke:none;">
        <path d="M-761.30414 370.2745 C-730.0622 339.03256 -679.40906 339.03256 -648.16705 370.2745 C-616.9251 401.51648 -616.92505 452.16965 -648.167 483.4116 C-679.409 514.65356 -730.06213 514.65356 -761.30414 483.41162 C-792.5461 452.16968 -792.54614 401.51648 -761.30414 370.2745 Z "/>
      </g>
      <g style="fill:#EC3245;stroke:none;">
        <path d="M-540.68677 590.8918 C-509.44482 559.64984 -458.7917 559.64984 -427.5497 590.8918 C-396.3078 622.13367 -396.30774 672.7869 -427.54968 704.0289 C-458.79166 735.2709 -509.44485 735.27075 -540.68677 704.02893 C-571.9287 672.787 -571.9288 622.1338 -540.68677 590.8918 Z "/>
      </g>
      <g style="fill:#EC32E1;stroke:none;">
        <path d="M-320.06943 811.50903 C-288.82748 780.2671 -238.17429 780.2671 -206.93237 811.50903 C-175.69044 842.751 -175.6904 893.4042 -206.93234 924.6461 C-238.17432 955.88806 -288.8275 955.88806 -320.06943 924.6461 C-351.31134 893.4043 -351.3114 842.751 -320.06943 811.50903 Z "/>
      </g>
      <g style="fill:#32ADEC;stroke:none;">
        <path d="M-99.45209 1032.1263 C-68.210144 1000.8844 -17.556946 1000.8844 13.684998 1032.1263 C44.92691 1063.3683 44.92697 1114.0215 13.685028 1145.2634 C-17.556946 1176.5054 -68.210144 1176.5054 -99.45206 1145.2634 C-130.694 1114.0215 -130.69406 1063.3683 -99.45209 1032.1263 Z "/>
      </g>
      <g style="fill:#79EC32;stroke:none;">
        <path d="M121.16528 1252.7435 C152.40723 1221.5016 203.0604 1221.5017 234.30234 1252.7435 C265.54428 1283.9855 265.5443 1334.6387 234.30237 1365.8806 C203.0604 1397.1227 152.40723 1397.1227 121.16528 1365.8807 C89.92334 1334.6388 89.92331 1283.9855 121.16528 1252.7435 Z "/>
      </g>
      <g style="fill:#EC3245;stroke:none;">
        <path d="M341.7826 1473.3608 C373.02454 1442.1189 423.6777 1442.1189 454.9197 1473.3608 C486.16174 1504.6029 486.16168 1555.256 454.91974 1586.4979 C423.67776 1617.7399 373.02466 1617.74 341.78265 1586.4979 C310.54065 1555.256 310.54062 1504.6029 341.7826 1473.3608 Z "/>
      </g>
      <g style="fill:#EC32E1;stroke:none;">
        <path d="M-914.0392 -133.1857 C-945.2811 -101.943756 -995.93445 -101.943726 -1027.1764 -133.18567 C-1058.4183 -164.42761 -1058.4183 -215.08084 -1027.1764 -246.32278 C-995.93445 -277.56473 -945.28125 -277.56473 -914.03925 -246.32278 C-882.79736 -215.08084 -882.7973 -164.42764 -914.0392 -133.1857 Z "/>
      </g>
      <g style="fill:#32ADEC;stroke:none;">
        <path d="M-693.4225 87.431366 C-724.6644 118.67331 -775.3176 118.67328 -806.5596 87.431366 C-837.8015 56.189423 -837.8015 5.536255 -806.55963 -25.705688 C-775.3177 -56.94763 -724.6645 -56.947662 -693.42255 -25.705734 C-662.1806 5.5361786 -662.18054 56.189423 -693.4225 87.431366 Z "/>
      </g>
      <g style="fill:#79EC32;stroke:none;">
        <path d="M-472.80322 308.04962 C-504.04517 339.2915 -554.69836 339.29153 -585.9403 308.0496 C-617.18225 276.80765 -617.18225 226.15442 -585.9403 194.91257 C-554.69836 163.67061 -504.0452 163.67056 -472.80322 194.91252 C-441.56128 226.15446 -441.56128 276.80768 -472.80322 308.04962 Z "/>
      </g>
      <g style="fill:#EC3245;stroke:none;">
        <path d="M-252.18466 528.66724 C-283.4266 559.9092 -334.07983 559.9092 -365.3218 528.66724 C-396.5637 497.42535 -396.56372 446.77213 -365.32178 415.53018 C-334.07983 384.28824 -283.4266 384.28827 -252.1847 415.53015 C-220.94269 446.77216 -220.94275 497.4253 -252.18466 528.66724 Z "/>
      </g>
      <g style="fill:#EC32E1;stroke:none;">
        <path d="M-31.574188 749.2799 C-62.8161 780.52185 -113.469315 780.52185 -144.71124 749.28 C-175.95316 718.0381 -175.95319 667.3848 -144.71127 636.14294 C-113.46933 604.901 -62.8161 604.901 -31.574188 636.14294 C-0.33226013 667.38477 -0.33224487 718.03796 -31.574188 749.2799 Z "/>
      </g>
      <g style="fill:#32ADEC;stroke:none;">
        <path d="M189.04141 969.8976 C157.79947 1001.1395 107.14627 1001.1395 75.90436 969.8976 C44.662445 938.65564 44.662384 888.00244 75.90433 856.7605 C107.146255 825.51855 157.79951 825.51855 189.0414 856.7605 C220.28331 888.00244 220.28334 938.65564 189.04141 969.8976 Z "/>
      </g>
      <g style="fill:#79EC32;stroke:none;">
        <path d="M409.66006 1190.5146 C378.41815 1221.7566 327.76495 1221.7566 296.523 1190.5145 C265.28107 1159.2727 265.28107 1108.6195 296.523 1077.3776 C327.76495 1046.1356 378.41815 1046.1356 409.6601 1077.3774 C440.90204 1108.6194 440.902 1159.2727 409.66006 1190.5146 Z "/>
      </g>
      <g style="fill:#EC3245;stroke:none;">
        <path d="M630.2754 1411.1311 C599.03345 1442.373 548.3804 1442.3732 517.1383 1411.1311 C485.89636 1379.889 485.89642 1329.236 517.1383 1297.994 C548.38025 1266.7521 599.0334 1266.7521 630.2754 1297.994 C661.5174 1329.236 661.51733 1379.8892 630.2754 1411.1311 Z "/>
      </g>
      <g style="fill:#EC32E1;stroke:none;">
        <path d="M-851.81396 -421.68503 C-820.57196 -452.92697 -769.9188 -452.92697 -738.6769 -421.68503 C-707.43494 -390.44308 -707.4349 -339.7899 -738.6769 -308.54794 C-769.9188 -277.306 -820.572 -277.30603 -851.8139 -308.54794 C-883.05585 -339.7899 -883.0559 -390.44308 -851.81396 -421.68503 Z "/>
      </g>
      <g style="fill:#32ADEC;stroke:none;">
        <path d="M-631.1966 -201.06775 C-599.95465 -232.30972 -549.30145 -232.3097 -518.0595 -201.06778 C-486.81754 -169.8258 -486.81754 -119.17267 -518.05945 -87.930695 C-549.30145 -56.68875 -599.95465 -56.68875 -631.1966 -87.930695 C-662.4385 -119.17258 -662.43854 -169.82578 -631.1966 -201.06775 Z "/>
      </g>
      <g style="fill:#79EC32;stroke:none;">
        <path d="M-410.57925 19.5495 C-379.3373 -11.692459 -328.6841 -11.692444 -297.44217 19.5495 C-266.2002 50.791443 -266.2002 101.444626 -297.44214 132.68658 C-328.68408 163.92854 -379.33728 163.92851 -410.57928 132.68655 C-441.82123 101.444595 -441.8212 50.79146 -410.57925 19.5495 Z "/>
      </g>
      <g style="fill:#EC3245;stroke:none;">
        <path d="M-189.96188 240.16678 C-158.71994 208.92482 -108.06677 208.92482 -76.824814 240.16678 C-45.58289 271.4087 -45.582836 322.0619 -76.82479 353.30383 C-108.06674 384.5458 -158.71996 384.54578 -189.96191 353.30383 C-221.20387 322.0619 -221.20384 271.40875 -189.96188 240.16678 Z "/>
      </g>
      <g style="fill:#EC32E1;stroke:none;">
        <path d="M30.655457 460.78406 C61.897415 429.5421 112.55063 429.54214 143.79254 460.78406 C175.03445 492.02594 175.0345 542.6792 143.79254 573.92114 C112.5506 605.1631 61.8974 605.1631 30.655472 573.92114 C-0.5864258 542.6792 -0.58649445 492.02603 30.655457 460.78406 Z "/>
      </g>
      <g style="fill:#32ADEC;stroke:none;">
        <path d="M251.27283 681.40125 C282.5148 650.1593 333.16797 650.1594 364.4099 681.40137 C395.65182 712.64325 395.65186 763.2964 364.4099 794.5383 C333.16797 825.7804 282.51477 825.7804 251.27286 794.53845 C220.03091 763.2965 220.03088 712.64325 251.27283 681.40125 Z "/>
      </g>
      <g style="fill:#79EC32;stroke:none;">
        <path d="M471.8902 902.01855 C503.13214 870.7766 553.78534 870.7766 585.0272 902.01855 C616.26917 933.2605 616.2692 983.9137 585.0272 1015.15564 C553.7853 1046.3976 503.13214 1046.3976 471.8902 1015.15564 C440.64825 983.9138 440.64825 933.2605 471.8902 902.01855 Z "/>
      </g>
      <g style="fill:#EC3245;stroke:none;">
        <path d="M692.50745 1122.6359 C723.74945 1091.3939 774.4026 1091.3939 805.6446 1122.6359 C836.8866 1153.8779 836.88654 1204.531 805.6446 1235.7731 C774.40265 1267.015 723.7495 1267.015 692.5075 1235.773 C661.2655 1204.531 661.2655 1153.8778 692.50745 1122.6359 Z "/>
      </g>
      <g style="fill:#EC32E1;stroke:none;">
        <path d="M-563.31433 -483.91098 C-594.5563 -452.66898 -645.20953 -452.66898 -676.4515 -483.91092 C-707.6934 -515.15283 -707.6934 -565.806 -676.4515 -597.0481 C-645.20953 -628.29004 -594.55634 -628.29004 -563.3144 -597.0481 C-532.07245 -565.80615 -532.0724 -515.15295 -563.31433 -483.91098 Z "/>
      </g>
      <g style="fill:#32ADEC;stroke:none;">
        <path d="M-342.69626 -263.29416 C-373.9382 -232.05219 -424.59143 -232.05225 -455.83337 -263.29416 C-487.07532 -294.5361 -487.07532 -345.18924 -455.83337 -376.43124 C-424.59143 -407.6732 -373.93823 -407.6732 -342.6963 -376.43124 C-311.45435 -345.18936 -311.4543 -294.5361 -342.69626 -263.29416 Z "/>
      </g>
      <g style="fill:#79EC32;stroke:none;">
        <path d="M-122.082794 -42.676285 C-153.32474 -11.434326 -203.97792 -11.434296 -235.21988 -42.676254 C-266.46185 -73.91821 -266.46185 -124.57138 -235.2199 -155.81332 C-203.97794 -187.0553 -153.3248 -187.05533 -122.082825 -155.81335 C-90.840866 -124.57138 -90.84084 -73.91824 -122.082794 -42.676285 Z "/>
      </g>
      <g style="fill:#EC3245;stroke:none;">
        <path d="M98.53964 177.9454 C67.29769 209.18736 16.644478 209.18733 -14.597439 177.94542 C-45.839355 146.70352 -45.83941 96.05029 -14.597458 64.808334 C16.644493 33.566376 67.29771 33.566406 98.53963 64.80832 C129.78154 96.05023 129.78159 146.70345 98.53964 177.9454 Z "/>
      </g>
      <g style="fill:#EC32E1;stroke:none;">
        <path d="M319.13928 398.5543 C287.89734 429.79626 237.24417 429.7962 206.00226 398.5543 C174.76035 367.31238 174.76028 316.65915 206.00224 285.41718 C237.2442 254.17523 287.8974 254.17528 319.1393 285.41718 C350.38123 316.6591 350.38123 367.31232 319.13928 398.5543 Z "/>
      </g>
      <g style="fill:#32ADEC;stroke:none;">
        <path d="M539.79224 619.1802 C508.5503 650.4221 457.8971 650.4221 426.65515 619.1802 C395.41324 587.9383 395.4132 537.28503 426.65515 506.0431 C457.8971 474.80115 508.5503 474.80118 539.79224 506.0431 C571.0342 537.28503 571.0342 587.93823 539.79224 619.1802 Z "/>
      </g>
      <g style="fill:#79EC32;stroke:none;">
        <path d="M760.3982 839.7954 C729.15625 871.03735 678.50305 871.03723 647.26117 839.7954 C616.0192 808.55347 616.0191 757.90027 647.2611 726.6583 C678.50305 695.4164 729.15625 695.4164 760.3982 726.6583 C791.6401 757.90015 791.6402 808.55347 760.3982 839.7954 Z "/>
      </g>
      <g style="fill:#EC3245;stroke:none;">
        <path d="M980.98584 1060.402 C949.7439 1091.6439 899.09076 1091.6439 867.84875 1060.402 C836.60675 1029.16 836.6068 978.50684 867.84875 947.2649 C899.0907 916.02295 949.74384 916.0228 980.98584 947.2648 C1012.2278 978.50684 1012.2278 1029.1599 980.98584 1060.402 Z "/>
      </g>
      <g style="fill:#EC32E1;stroke:none;">
        <path d="M-501.08902 -772.41003 C-469.84714 -803.652 -419.1939 -803.652 -387.95197 -772.41003 C-356.71002 -741.1681 -356.71005 -690.5149 -387.95193 -659.27295 C-419.19385 -628.031 -469.8471 -628.031 -501.08902 -659.27295 C-532.33093 -690.5149 -532.33093 -741.1681 -501.08902 -772.41003 Z "/>
      </g>
      <g style="fill:#32ADEC;stroke:none;">
        <path d="M-280.47168 -551.7927 C-249.2298 -583.03467 -198.57654 -583.0348 -167.33463 -551.79285 C-136.09265 -520.5509 -136.09268 -469.89767 -167.33456 -438.65573 C-198.57649 -407.4138 -249.22974 -407.4138 -280.47168 -438.65573 C-311.71362 -469.89767 -311.71362 -520.5509 -280.47168 -551.7927 Z "/>
      </g>
      <g style="fill:#79EC32;stroke:none;">
        <path d="M-59.85434 -331.1755 C-28.612457 -362.41745 22.040802 -362.41745 53.282776 -331.1755 C84.524734 -299.93353 84.52466 -249.28036 53.282776 -218.03842 C22.040848 -186.79651 -28.612366 -186.79648 -59.854324 -218.03842 C-91.09628 -249.28036 -91.09627 -299.9336 -59.85434 -331.1755 Z "/>
      </g>
      <g style="fill:#EC3245;stroke:none;">
        <path d="M160.76303 -110.55823 C192.00491 -141.80017 242.65817 -141.80017 273.90012 -110.55823 C305.142 -79.316345 305.142 -28.663101 273.90012 2.5788422 C242.6582 33.820755 192.00494 33.82077 160.76303 2.5788574 C129.52106 -28.663086 129.52109 -79.316315 160.76303 -110.55823 Z "/>
      </g>
      <g style="fill:#EC32E1;stroke:none;">
        <path d="M381.38037 110.05905 C412.62225 78.81711 463.2755 78.81711 494.51746 110.05902 C525.75934 141.30092 525.75934 191.9542 494.51746 223.19614 C463.2755 254.43805 412.6223 254.43803 381.38037 223.19614 C350.1385 191.95418 350.13843 141.30096 381.38037 110.05905 Z "/>
      </g>
      <g style="fill:#32ADEC;stroke:none;">
        <path d="M601.9978 330.67624 C633.2397 299.43433 683.8928 299.4344 715.13477 330.6763 C746.3767 361.9182 746.3767 412.57144 715.1348 443.8134 C683.8929 475.0553 633.2396 475.05533 601.9978 443.81335 C570.75586 412.57147 570.75586 361.91815 601.9978 330.67624 Z "/>
      </g>
      <g style="fill:#79EC32;stroke:none;">
        <path d="M822.6151 551.29346 C853.85706 520.0516 904.51025 520.05164 935.75214 551.2936 C966.9941 582.5355 966.994 633.1887 935.7522 664.43066 C904.51025 695.6726 853.85706 695.6726 822.6151 664.43066 C791.37317 633.1887 791.3732 582.5354 822.6151 551.29346 Z "/>
      </g>
      <g style="fill:#EC3245;stroke:none;">
        <path d="M1043.2324 771.9109 C1074.4742 740.66895 1125.1274 740.6688 1156.3695 771.9109 C1187.6115 803.15295 1187.6113 853.80615 1156.3694 885.048 C1125.1273 916.2898 1074.4742 916.2898 1043.2322 885.04785 C1011.99023 853.8058 1011.99036 803.1526 1043.2324 771.9109 Z "/>
      </g>
      <g style="fill:#EC32E1;stroke:none;">
        <path d="M-212.5921 -834.6333 C-243.83401 -803.39136 -294.48724 -803.39136 -325.72925 -834.6333 C-356.9712 -865.87524 -356.97116 -916.52844 -325.72925 -947.7704 C-294.48734 -979.0123 -243.8341 -979.0123 -212.59216 -947.7705 C-181.35022 -916.52844 -181.35025 -865.87537 -212.5921 -834.6333 Z "/>
      </g>
      <g style="fill:#32ADEC;stroke:none;">
        <path d="M8.025909 -614.0172 C-23.216003 -582.7754 -73.8692 -582.77527 -105.111115 -614.0172 C-136.35306 -645.25916 -136.35312 -695.91235 -105.111206 -727.1543 C-73.86929 -758.39624 -23.216064 -758.39624 8.025848 -727.1544 C39.267822 -695.91235 39.267822 -645.25916 8.025909 -614.0172 Z "/>
      </g>
      <g style="fill:#79EC32;stroke:none;">
        <path d="M228.65375 -393.4033 C197.41185 -362.16135 146.75854 -362.16122 115.51659 -393.40317 C84.27463 -424.6451 84.27466 -475.2983 115.51657 -506.54025 C146.75845 -537.7822 197.41168 -537.7822 228.65363 -506.54025 C259.8956 -475.2983 259.89563 -424.64517 228.65375 -393.4033 Z "/>
      </g>
      <g style="fill:#EC3245;stroke:none;">
        <path d="M449.236 -172.78162 C417.99408 -141.53967 367.34088 -141.53958 336.09888 -172.78159 C304.85696 -204.02347 304.85696 -254.67673 336.09888 -285.91867 C367.3408 -317.1606 417.99402 -317.1606 449.23593 -285.9187 C480.47797 -254.6767 480.4779 -204.02353 449.236 -172.78162 Z "/>
      </g>
      <g style="fill:#EC32E1;stroke:none;">
        <path d="M669.86365 47.834473 C638.62177 79.076385 587.9685 79.076385 556.7266 47.834473 C525.4847 16.592575 525.4846 -34.060684 556.72656 -65.30258 C587.9685 -96.544525 638.62177 -96.544525 669.86365 -65.30261 C701.1056 -34.0607 701.1056 16.59256 669.86365 47.834473 Z "/>
      </g>
      <g style="fill:#32ADEC;stroke:none;">
        <path d="M890.4535 268.44476 C859.21155 299.68668 808.55835 299.68668 777.3164 268.44476 C746.07446 237.20285 746.07446 186.54962 777.3164 155.30771 C808.55835 124.065765 859.21155 124.065735 890.4535 155.30765 C921.6954 186.54956 921.69543 237.20282 890.4535 268.44476 Z "/>
      </g>
      <g style="fill:#79EC32;stroke:none;">
        <path d="M1111.0933 489.0665 C1079.8513 520.3085 1029.1981 520.3085 997.9562 489.06653 C966.7142 457.82474 966.71423 407.17142 997.95605 375.9295 C1029.198 344.6876 1079.8513 344.68762 1111.0933 375.9294 C1142.3352 407.17136 1142.3352 457.8246 1111.0933 489.0665 Z "/>
      </g>
      <g style="fill:#EC3245;stroke:none;">
        <path d="M1331.7996 709.69934 C1300.5576 740.9413 1249.9044 740.9413 1218.6625 709.69934 C1187.4204 678.45734 1187.4205 627.8042 1218.6625 596.56226 C1249.9042 565.3202 1300.5574 565.32007 1331.7993 596.562 C1363.0414 627.8041 1363.0413 678.4572 1331.7996 709.69934 Z "/>
      </g>
      <g style="fill:#EC32E1;stroke:none;">
        <path d="M-150.36414 -1123.1351 C-119.12225 -1154.3771 -68.468994 -1154.3771 -37.22705 -1123.1351 C-5.9851074 -1091.8932 -5.9851685 -1041.2399 -37.22705 -1009.9979 C-68.46893 -978.7561 -119.12219 -978.7561 -150.36414 -1009.9979 C-181.60608 -1041.2399 -181.60602 -1091.8932 -150.36414 -1123.1351 Z "/>
      </g>
      <g style="fill:#32ADEC;stroke:none;">
        <path d="M70.253204 -902.5178 C101.49509 -933.75977 152.14838 -933.75977 183.39029 -902.5178 C214.63226 -871.2759 214.6322 -820.6227 183.39032 -789.38074 C152.14844 -758.1388 101.49515 -758.1388 70.253204 -789.38074 C39.01129 -820.6227 39.011322 -871.2759 70.253204 -902.5178 Z "/>
      </g>
      <g style="fill:#79EC32;stroke:none;">
        <path d="M290.87054 -681.9005 C322.11243 -713.14246 372.7657 -713.14246 404.00763 -681.9005 C435.2496 -650.65857 435.24954 -600.0054 404.00766 -568.7634 C372.76578 -537.5216 322.11252 -537.5215 290.87054 -568.7634 C259.6286 -600.0054 259.62866 -650.6587 290.87054 -681.9005 Z "/>
      </g>
      <g style="fill:#EC3245;stroke:none;">
        <path d="M511.4879 -461.28323 C542.7298 -492.52518 593.38306 -492.52518 624.625 -461.28323 C655.867 -430.04123 655.8669 -379.3881 624.625 -348.14615 C593.3831 -316.90427 542.7299 -316.90414 511.4879 -348.14615 C480.24594 -379.3881 480.24603 -430.04135 511.4879 -461.28323 Z "/>
      </g>
      <g style="fill:#EC32E1;stroke:none;">
        <path d="M732.10535 -240.66608 C763.3473 -271.90796 814.0004 -271.90787 845.2423 -240.66595 C876.48425 -209.42404 876.48425 -158.77081 845.2423 -127.52887 C814.0005 -96.28699 763.34717 -96.28696 732.1052 -127.52887 C700.86334 -158.77078 700.8634 -209.42413 732.10535 -240.66608 Z "/>
      </g>
      <g style="fill:#32ADEC;stroke:none;">
        <path d="M952.7226 -20.048676 C983.9645 -51.29062 1034.6178 -51.29059 1065.8597 -20.048676 C1097.1016 11.193237 1097.1016 61.846436 1065.8597 93.08838 C1034.6178 124.33026 983.96454 124.33032 952.72266 93.08841 C921.4807 61.846497 921.4807 11.193207 952.7226 -20.048676 Z "/>
      </g>
      <g style="fill:#79EC32;stroke:none;">
        <path d="M1173.34 200.56857 C1204.5818 169.32663 1255.2351 169.32669 1286.477 200.56857 C1317.719 231.81052 1317.719 282.4637 1286.477 313.70566 C1255.2351 344.94754 1204.5819 344.9476 1173.34 313.70566 C1142.098 282.46378 1142.0981 231.81046 1173.34 200.56857 Z "/>
      </g>
      <g style="fill:#EC3245;stroke:none;">
        <path d="M1393.9573 421.18588 C1425.1992 389.94394 1475.8524 389.94388 1507.0945 421.18588 C1538.3364 452.4279 1538.3363 503.08102 1507.0945 534.323 C1475.8525 565.5648 1425.1993 565.56494 1393.9573 534.323 C1362.7153 503.08096 1362.7153 452.42776 1393.9573 421.18588 Z "/>
      </g>
      <g style="fill:#EC32E1;stroke:none;">
        <path d="M138.13403 -1185.3595 C106.89209 -1154.1176 56.23889 -1154.1176 24.996948 -1185.3595 C-6.245056 -1216.6013 -6.245056 -1267.2545 24.996826 -1298.4965 C56.23871 -1329.7384 106.89191 -1329.7385 138.13391 -1298.4967 C169.37585 -1267.2548 169.37592 -1216.6014 138.13403 -1185.3595 Z "/>
      </g>
      <g style="fill:#32ADEC;stroke:none;">
        <path d="M358.7595 -964.74634 C327.5176 -933.5045 276.86426 -933.5044 245.62234 -964.7462 C214.38043 -995.98816 214.38037 -1046.6415 245.62231 -1077.8834 C276.86417 -1109.1252 327.51736 -1109.1254 358.75928 -1077.8834 C390.00125 -1046.6415 390.00134 -995.9884 358.7595 -964.74634 Z "/>
      </g>
      <g style="fill:#79EC32;stroke:none;">
        <path d="M579.36804 -744.1283 C548.1261 -712.8862 497.4729 -712.8862 466.23096 -744.1282 C434.98892 -775.3701 434.98895 -826.0233 466.23077 -857.26526 C497.47272 -888.5072 548.1259 -888.5072 579.368 -857.2654 C610.61 -826.02344 610.60986 -775.37024 579.36804 -744.1283 Z "/>
      </g>
      <g style="fill:#EC3245;stroke:none;">
        <path d="M800.0004 -523.515 C768.75854 -492.27304 718.1053 -492.27298 686.86334 -523.5149 C655.62146 -554.75684 655.6214 -605.41003 686.8633 -636.652 C718.1051 -667.8939 768.75836 -667.89404 800.0003 -636.6521 C831.2423 -605.41003 831.2423 -554.75696 800.0004 -523.515 Z "/>
      </g>
      <g style="fill:#EC32E1;stroke:none;">
        <path d="M1020.67395 -302.90518 C989.432 -271.66324 938.77875 -271.66318 907.53687 -302.90512 C876.29486 -334.14694 876.2948 -384.80014 907.53674 -416.04208 C938.77856 -447.28415 989.4319 -447.28415 1020.6738 -416.04233 C1051.9158 -384.80038 1051.9158 -334.14713 1020.67395 -302.90518 Z "/>
      </g>
      <g style="fill:#32ADEC;stroke:none;">
        <path d="M1241.2102 -82.2717 C1209.9684 -51.029816 1159.315 -51.029724 1128.0731 -82.27164 C1096.8312 -113.51355 1096.8312 -164.16675 1128.0731 -195.40869 C1159.315 -226.65067 1209.9681 -226.65073 1241.21 -195.40881 C1272.4519 -164.1669 1272.452 -113.51373 1241.2102 -82.2717 Z "/>
      </g>
      <g style="fill:#79EC32;stroke:none;">
        <path d="M1461.8574 138.33774 C1430.6155 169.57968 1379.9623 169.57974 1348.7203 138.33786 C1317.4785 107.09592 1317.4783 56.44272 1348.7202 25.200836 C1379.9622 -6.0412292 1430.6155 -6.0412903 1461.8574 25.200592 C1493.0992 56.442535 1493.0994 107.095795 1461.8574 138.33774 Z "/>
      </g>
      <g style="fill:#EC3245;stroke:none;">
        <path d="M1682.3655 358.9523 C1651.1235 390.19424 1600.4705 390.1946 1569.2285 358.9526 C1537.9866 327.7106 1537.9865 277.05722 1569.2283 245.81528 C1600.4702 214.5734 1651.1234 214.57327 1682.3655 245.81528 C1713.6074 277.05728 1713.6074 327.71036 1682.3655 358.9523 Z "/>
      </g>
    </g>
  </g>
</svg>
