<?xml version="1.0" encoding="UTF-8"?>
<svg xmlns="http://www.w3.org/2000/svg" height="288px" version="1.1" width="480px">
  <g style="fill:#FF6B98;stroke:none;">
    <path d="M0.0 0.0 L480.0 0.0 L480.0 288.0 L0.0 288.0 L0.0 0.0 "/>
    <g style="">
      <g style="fill:#6B85FF;stroke:none;">
        <path d="M209.948 594.7806 L240.35358 504.978 L299.75055 564.375 L209.948 594.7806 "/>
      </g>
      <g style="fill:#6B85FF;stroke:none;">
        <path d="M270.05582 534.68024 L297.6292 562.25366 L299.2754 564.5358 L295.4742 565.8229 L291.67303 567.10986 L287.87186 568.3969 L284.07068 569.68396 L280.2695 570.97095 L276.46835 572.25793 L272.66718 573.5449 L268.86603 574.832 L265.06488 576.11896 L261.2637 577.40594 L257.46255 578.693 L253.6614 579.98 L249.86026 581.26697 L246.05911 582.55396 L242.7331 583.6801 L238.93193 584.96716 L235.13077 586.25415 L231.3296 587.54114 L227.52844 588.8282 L223.72726 590.1152 L219.92612 591.4022 L216.12494 592.6892 L212.32379 593.9762 L209.95938 594.77673 L270.05582 534.68024 Z "/>
      </g>
      <g style="fill:#6B85FF;stroke:none;">
        <path d="M270.05206 534.6765 L300.45764 444.87393 L359.8546 504.27087 L270.05206 534.6765 "/>
      </g>
      <g style="fill:#6B85FF;stroke:none;">
        <path d="M301.16476 445.58102 L357.7333 502.14957 L359.37946 504.43176 L355.5783 505.71878 L351.7771 507.0058 L347.97595 508.29285 L344.17474 509.57983 L340.37357 510.86688 L336.5724 512.1539 L332.7712 513.4409 L328.97003 514.7279 L325.16885 516.01495 L321.36768 517.302 L317.56653 518.589 L313.76535 519.87604 L309.96417 521.1631 L306.163 522.4501 L302.83698 523.57623 L299.0358 524.8633 L295.23462 526.15027 L291.43344 527.4373 L287.63226 528.72437 L283.83112 530.01135 L280.0299 531.2984 L276.22876 532.5854 L272.42758 533.87244 L270.05206 534.6765 L271.33908 530.8753 L272.6261 527.07416 L273.91315 523.27295 L275.20016 519.4718 L276.48718 515.6706 L277.77423 511.86945 L279.06125 508.06827 L280.34827 504.2671 L281.63528 500.4659 L282.9223 496.66473 L284.20935 492.8636 L285.49637 489.0624 L286.7834 485.26123 L288.0704 481.46005 L289.35745 477.65887 L290.64447 473.8577 L291.9315 470.05652 L293.2185 466.25537 L294.50555 462.4542 L295.79257 458.653 L297.0796 454.85184 L298.3666 451.05066 L299.65366 447.24948 L301.16476 445.58102 Z "/>
      </g>
      <g style="fill:#6B85FF;stroke:none;">
        <path d="M330.15613 474.5724 L360.5617 384.76984 L419.95868 444.1668 L330.15613 474.5724 "/>
      </g>
      <g style="fill:#6B85FF;stroke:none;">
        <path d="M361.26883 385.47696 L417.83737 442.04547 L419.48355 444.3277 L415.68237 445.61472 L411.88116 446.90173 L408.08002 448.18875 L404.2788 449.47577 L400.47766 450.7628 L396.67645 452.0498 L392.8753 453.33682 L389.0741 454.62384 L385.27295 455.9109 L381.47174 457.1979 L377.6706 458.48492 L373.86942 459.77194 L370.06824 461.05896 L366.26706 462.346 L362.94104 463.47214 L359.13986 464.7592 L355.33868 466.0462 L351.5375 467.33322 L347.73633 468.62024 L343.93518 469.9073 L340.134 471.1943 L336.33282 472.48132 L332.53165 473.76837 L330.15613 474.5724 L331.44315 470.77124 L332.7302 466.97006 L334.0172 463.16888 L335.30423 459.3677 L336.59125 455.56653 L337.8783 451.76535 L339.1653 447.96417 L340.45233 444.16302 L341.73935 440.36185 L343.0264 436.56067 L344.31342 432.7595 L345.60043 428.9583 L346.88745 425.15714 L348.1745 421.35596 L349.46152 417.5548 L350.74854 413.75363 L352.03558 409.95245 L353.3226 406.15128 L354.60962 402.3501 L355.89664 398.54892 L357.18365 394.74774 L358.4707 390.9466 L359.75772 387.14542 L361.26883 385.47696 Z "/>
      </g>
      <g style="fill:#6B85FF;stroke:none;">
        <path d="M390.2602 414.46832 L420.66577 324.66577 L480.06274 384.06274 L390.2602 414.46832 "/>
      </g>
      <g style="fill:#6B85FF;stroke:none;">
        <path d="M421.3729 325.37286 L477.94144 381.9414 L479.58762 384.2236 L475.78644 385.51062 L471.98526 386.79764 L468.18408 388.08466 L464.3829 389.3717 L460.58173 390.6587 L456.78052 391.94574 L452.97937 393.23276 L449.17816 394.51978 L445.377 395.8068 L441.57584 397.0938 L437.77466 398.38086 L433.97348 399.66788 L430.1723 400.9549 L426.37115 402.2419 L423.0451 403.36807 L419.24393 404.6551 L415.44275 405.9421 L411.6416 407.22916 L407.84042 408.51617 L404.03925 409.8032 L400.23807 411.0902 L396.4369 412.37726 L392.6357 413.66428 L390.2602 414.46832 L391.54724 410.66714 L392.83426 406.86597 L394.12128 403.0648 L395.40833 399.26364 L396.6953 395.46246 L397.98236 391.6613 L399.26938 387.8601 L400.5564 384.05893 L401.84344 380.25775 L403.13046 376.4566 L404.41748 372.65543 L405.7045 368.85425 L406.99152 365.05307 L408.27856 361.2519 L409.56558 357.4507 L410.8526 353.64954 L412.13965 349.8484 L413.42667 346.04718 L414.71368 342.24603 L416.00073 338.44485 L417.28772 334.64368 L418.57477 330.8425 L419.8618 327.04132 L421.3729 325.37286 Z "/>
      </g>
      <g style="fill:#6B85FF;stroke:none;">
        <path d="M450.36426 354.36426 L480.76984 264.5617 L540.1668 323.95865 L450.36426 354.36426 "/>
      </g>
      <g style="fill:#6B85FF;stroke:none;">
        <path d="M481.47696 265.2688 L538.04553 321.83734 L539.69165 324.1195 L535.8905 325.40656 L532.08936 326.69354 L528.28815 327.9806 L524.48694 329.2676 L520.6858 330.55463 L516.88464 331.84164 L513.08344 333.12866 L509.28223 334.41568 L505.48108 335.7027 L501.6799 336.98975 L497.87872 338.27676 L494.07755 339.56378 L490.27637 340.85083 L486.47522 342.13785 L483.14917 343.26398 L479.34802 344.55103 L475.5468 345.83804 L471.74567 347.12506 L467.9445 348.4121 L464.1433 349.69913 L460.34213 350.98615 L456.54095 352.27316 L452.7398 353.5602 L450.36426 354.36426 L451.6513 350.56305 L452.93832 346.7619 L454.22534 342.96072 L455.5124 339.15955 L456.79938 335.35837 L458.08643 331.5572 L459.37347 327.75604 L460.66046 323.95483 L461.9475 320.1537 L463.23453 316.3525 L464.52155 312.55133 L465.8086 308.75015 L467.09558 304.94897 L468.38263 301.14783 L469.66968 297.34665 L470.95667 293.54547 L472.2437 289.7443 L473.53073 285.9431 L474.81775 282.14194 L476.1048 278.34076 L477.39178 274.5396 L478.67883 270.7384 L479.96588 266.93726 L481.47696 265.2688 Z "/>
      </g>
      <g style="fill:#6B85FF;stroke:none;">
        <path d="M510.46832 294.26016 L540.8739 204.45761 L600.2709 263.85455 L510.46832 294.26016 "/>
      </g>
      <g style="fill:#6B85FF;stroke:none;">
        <path d="M541.58105 205.16472 L598.1496 261.73325 L599.7958 264.01544 L595.99457 265.30246 L592.19336 266.58948 L588.3922 267.8765 L584.59106 269.16354 L580.78986 270.45056 L576.98865 271.73758 L573.1875 273.0246 L569.38635 274.3116 L565.58514 275.59863 L561.784 276.88565 L557.9828 278.17267 L554.18164 279.45972 L550.38043 280.74673 L546.5793 282.03375 L543.25323 283.1599 L539.4521 284.44693 L535.6509 285.73395 L531.84973 287.021 L528.0486 288.308 L524.2474 289.59503 L520.4462 290.88208 L516.645 292.1691 L512.8439 293.45612 L510.46832 294.26016 L511.75537 290.45898 L513.04236 286.6578 L514.3294 282.85663 L515.61646 279.05548 L516.90344 275.2543 L518.1905 271.45312 L519.47754 267.65195 L520.7645 263.85077 L522.0516 260.04962 L523.3386 256.2484 L524.6256 252.44725 L525.91266 248.64607 L527.1997 244.84491 L528.4867 241.04373 L529.77374 237.24255 L531.0607 233.44139 L532.3478 229.6402 L533.63477 225.83904 L534.9218 222.03786 L536.20886 218.2367 L537.49585 214.43552 L538.7829 210.63434 L540.06995 206.83318 L541.58105 205.16472 Z "/>
      </g>
      <g style="fill:#6B85FF;stroke:none;">
        <path d="M570.5724 234.15608 L600.978 144.35352 L660.375 203.75049 L570.5724 234.15608 "/>
      </g>
      <g style="fill:#6B85FF;stroke:none;">
        <path d="M601.6851 145.06064 L658.25366 201.62917 L659.89984 203.91135 L656.0988 205.19818 L652.29785 206.48505 L648.4968 207.77188 L644.6958 209.05872 L640.89484 210.34558 L637.0938 211.63242 L633.29285 212.91928 L629.4918 214.20612 L625.6908 215.49297 L621.8898 216.77983 L618.0888 218.06668 L614.2878 219.35353 L610.4868 220.64038 L606.6858 221.92725 L603.35986 223.05324 L599.5589 224.34009 L595.75793 225.62695 L591.9569 226.91379 L588.1559 228.20065 L584.35486 229.4875 L580.5539 230.77435 L576.7529 232.06122 L572.9519 233.34807 L570.5724 234.15608 L571.8594 230.355 L573.14624 226.55399 L574.43304 222.75299 L575.7199 218.952 L577.0067 215.151 L578.2936 211.34999 L579.58044 207.54898 L580.8673 203.748 L582.1542 199.94699 L583.44104 196.146 L584.7279 192.34499 L586.0148 188.54398 L587.3016 184.74298 L588.58844 180.94199 L589.87524 177.14096 L591.1622 173.33998 L592.449 169.53899 L593.73584 165.73798 L595.0227 161.93698 L596.3096 158.13596 L597.59644 154.33496 L598.8833 150.534 L600.1701 146.73297 L601.6851 145.06064 Z "/>
      </g>
      <g style="fill:#6B85FF;stroke:none;">
        <path d="M630.6765 174.052 L661.08203 84.24942 L720.47906 143.6464 L630.6765 174.052 "/>
      </g>
      <g style="fill:#6B85FF;stroke:none;">
        <path d="M661.7892 84.95654 L718.3577 141.52509 L720.0039 143.80725 L716.2029 145.09412 L712.4019 146.38095 L708.6009 147.66779 L704.79987 148.95465 L700.9989 150.24149 L697.1979 151.52835 L693.39685 152.81519 L689.5959 154.10205 L685.79486 155.38889 L681.9939 156.67572 L678.1929 157.96262 L674.39185 159.24945 L670.5908 160.53632 L666.78986 161.82317 L663.464 162.94914 L659.66296 164.23602 L655.86194 165.52286 L652.061 166.80972 L648.26 168.09657 L644.459 169.38344 L640.65796 170.67029 L636.85693 171.95712 L633.05597 173.24399 L630.6765 174.052 L631.9634 170.25099 L633.2502 166.45 L634.53705 162.64902 L635.82385 158.84799 L637.1107 155.047 L638.3976 151.24597 L639.68445 147.445 L640.9713 143.64401 L642.2582 139.84299 L643.54504 136.04199 L644.8319 132.24097 L646.1187 128.44 L647.4056 124.63901 L648.6924 120.83798 L649.97925 117.03699 L651.2661 113.23596 L652.553 109.435 L653.83984 105.63397 L655.1267 101.83298 L656.4136 98.03198 L657.70044 94.23096 L658.98724 90.42999 L660.2741 86.62897 L661.7892 84.95654 Z "/>
      </g>
      <g style="fill:#6B85FF;stroke:none;">
        <path d="M149.84392 534.6765 L180.2495 444.87393 L239.64647 504.2709 L149.84392 534.6765 "/>
      </g>
      <g style="fill:#6B85FF;stroke:none;">
        <path d="M180.9566 445.58105 L237.52515 502.1496 L239.17133 504.43176 L235.37015 505.7188 L231.56897 507.00583 L227.76779 508.29285 L223.96663 509.5799 L220.16547 510.8669 L216.36429 512.15393 L212.56314 513.4409 L208.762 514.7279 L204.96085 516.01495 L201.15968 517.30194 L197.35854 518.5889 L193.55737 519.876 L189.75623 521.16296 L185.95508 522.44995 L182.62906 523.5761 L178.8279 524.8631 L175.02673 526.15015 L171.22557 527.43713 L167.42441 528.7242 L163.62325 530.01117 L159.82208 531.2982 L156.02092 532.5852 L152.21976 533.8722 L149.84392 534.6765 L151.1309 530.8753 L152.41788 527.0741 L153.70485 523.2729 L154.99182 519.4717 L156.27878 515.6705 L157.56577 511.8693 L158.85274 508.06808 L160.13971 504.26688 L161.42668 500.46567 L162.71364 496.6645 L164.0006 492.86328 L165.28757 489.06207 L166.57452 485.26086 L167.86148 481.4597 L169.14844 477.65848 L170.4354 473.8573 L171.72237 470.0561 L173.00932 466.2549 L174.2963 462.45367 L175.58328 458.65247 L176.87027 454.85126 L178.15726 451.05005 L179.44423 447.2488 L180.9566 445.58105 Z "/>
      </g>
      <g style="fill:#6B85FF;stroke:none;">
        <path d="M209.94798 474.57242 L240.35356 384.76984 L299.75055 444.1668 L209.94798 474.57242 "/>
      </g>
      <g style="fill:#6B85FF;stroke:none;">
        <path d="M241.06067 385.47696 L297.6292 442.0455 L299.2754 444.3277 L295.4742 445.61472 L291.67303 446.90173 L287.8719 448.18878 L284.0707 449.4758 L280.26953 450.76282 L276.46835 452.04987 L272.66718 453.33688 L268.866 454.6239 L265.06482 455.91092 L261.26364 457.19797 L257.4625 458.485 L253.66132 459.772 L249.86014 461.05902 L246.05896 462.34607 L242.73294 463.4722 L238.93176 464.75925 L235.13058 466.04626 L231.3294 467.33328 L227.52824 468.6203 L223.72707 469.90735 L219.92589 471.19437 L216.12473 472.48138 L212.32355 473.76843 L209.94798 474.57242 L211.23499 470.7712 L212.52197 466.97 L213.80896 463.1688 L215.09593 459.36758 L216.3829 455.56635 L217.66989 451.76514 L218.95688 447.96393 L220.24387 444.1627 L221.53085 440.36148 L222.81783 436.56027 L224.10481 432.75903 L225.39178 428.95782 L226.67877 425.15662 L227.96576 421.3554 L229.25275 417.5542 L230.53972 413.75296 L231.8267 409.95175 L233.11368 406.15054 L234.40067 402.3493 L235.68765 398.5481 L236.97464 394.7469 L238.26161 390.94568 L239.5486 387.14444 L241.06067 385.47696 Z "/>
      </g>
      <g style="fill:#6B85FF;stroke:none;">
        <path d="M270.05206 414.46832 L300.45764 324.66577 L359.8546 384.06274 L270.05206 414.46832 "/>
      </g>
      <g style="fill:#6B85FF;stroke:none;">
        <path d="M301.16473 325.37286 L357.73328 381.9414 L359.37946 384.2236 L355.57828 385.51065 L351.7771 386.79767 L347.97595 388.0847 L344.17477 389.3717 L340.3736 390.65875 L336.57242 391.94577 L332.77124 393.2328 L328.97006 394.51984 L325.1689 395.80685 L321.36774 397.09387 L317.56656 398.3809 L313.76538 399.66794 L309.9642 400.95496 L306.16302 402.24197 L302.837 403.36813 L299.03583 404.65515 L295.23465 405.94217 L291.43347 407.22922 L287.63232 408.51624 L283.83115 409.80325 L280.02997 411.09027 L276.2288 412.37732 L272.4276 413.66434 L270.05206 414.46832 L271.33905 410.66714 L272.62604 406.86594 L273.91302 403.0647 L275.2 399.2635 L276.487 395.46228 L277.77396 391.66104 L279.06094 387.85983 L280.34793 384.05862 L281.63492 380.25742 L282.9219 376.45618 L284.20886 372.65497 L285.49585 368.85376 L286.78284 365.05255 L288.06982 361.2513 L289.3568 357.4501 L290.6438 353.6489 L291.9308 349.84766 L293.21774 346.04645 L294.50473 342.24524 L295.79172 338.44403 L297.0787 334.64282 L298.3657 330.84158 L299.65265 327.04037 L301.16473 325.37286 Z "/>
      </g>
      <g style="fill:#6B85FF;stroke:none;">
        <path d="M330.15613 354.36426 L360.5617 264.5617 L419.95868 323.95865 L330.15613 354.36426 "/>
      </g>
      <g style="fill:#6B85FF;stroke:none;">
        <path d="M361.2688 265.2688 L417.83734 321.83734 L419.48352 324.11954 L415.68237 325.40656 L411.88116 326.6936 L408.08002 327.98062 L404.27884 329.26764 L400.47766 330.55466 L396.67648 331.84167 L392.8753 333.12872 L389.07416 334.41574 L385.27298 335.70276 L381.4718 336.9898 L377.67062 338.27682 L373.86945 339.56384 L370.06827 340.8509 L366.2671 342.1379 L362.94107 343.26404 L359.1399 344.5511 L355.3387 345.8381 L351.53757 347.12512 L347.7364 348.41217 L343.9352 349.6992 L340.13403 350.9862 L336.33286 352.27322 L332.53168 353.56024 L330.15613 354.36426 L331.4431 350.56305 L332.7301 346.76184 L334.0171 342.96063 L335.30408 339.15942 L336.59106 335.3582 L337.87805 331.55698 L339.165 327.75574 L340.452 323.95453 L341.73898 320.15332 L343.02597 316.3521 L344.31296 312.5509 L345.5999 308.74966 L346.8869 304.94846 L348.1739 301.14725 L349.46088 297.346 L350.74786 293.5448 L352.03485 289.7436 L353.32184 285.94238 L354.60883 282.14114 L355.89578 278.33994 L357.18277 274.53873 L358.46976 270.7375 L359.75674 266.93628 L361.2688 265.2688 Z "/>
      </g>
      <g style="fill:#6B85FF;stroke:none;">
        <path d="M390.2602 294.2602 L420.66577 204.45761 L480.06274 263.85458 L390.2602 294.2602 "/>
      </g>
      <g style="fill:#6B85FF;stroke:none;">
        <path d="M421.37286 205.16472 L477.9414 261.73328 L479.5876 264.01544 L475.78644 265.3025 L471.98526 266.5895 L468.18408 267.87653 L464.3829 269.16357 L460.58173 270.4506 L456.78058 271.7376 L452.97937 273.02466 L449.17822 274.31165 L445.377 275.5987 L441.57587 276.8857 L437.7747 278.17273 L433.9735 279.45978 L430.17236 280.7468 L426.37115 282.0338 L423.04517 283.15997 L419.24396 284.447 L415.4428 285.734 L411.64163 287.02106 L407.84045 288.30807 L404.03928 289.5951 L400.2381 290.88214 L396.43692 292.16913 L392.63574 293.45618 L390.2602 294.2602 L391.54718 290.45898 L392.83417 286.65778 L394.12115 282.85657 L395.40814 279.05533 L396.69513 275.2541 L397.98212 271.45288 L399.2691 267.65167 L400.5561 263.85046 L401.84305 260.04926 L403.13004 256.24805 L404.41702 252.44681 L405.70398 248.6456 L406.99097 244.84438 L408.27795 241.04315 L409.56494 237.24194 L410.85193 233.44073 L412.13892 229.6395 L413.4259 225.83829 L414.7129 222.03708 L415.99985 218.23586 L417.28683 214.43465 L418.57382 210.63342 L419.8608 206.83221 L421.37286 205.16472 Z "/>
      </g>
      <g style="fill:#6B85FF;stroke:none;">
        <path d="M450.36426 234.1561 L480.76984 144.35355 L540.1668 203.7505 L450.36426 234.1561 "/>
      </g>
      <g style="fill:#6B85FF;stroke:none;">
        <path d="M481.47696 145.06064 L538.04553 201.62918 L539.69165 203.91138 L535.8905 205.1984 L532.08936 206.48543 L528.28815 207.77245 L524.48694 209.05948 L520.6858 210.34651 L516.88464 211.63353 L513.0835 212.92056 L509.2823 214.20758 L505.4811 215.4946 L501.67993 216.78163 L497.87875 218.06865 L494.07758 219.3557 L490.27643 220.64272 L486.47522 221.92975 L483.14923 223.0559 L479.34802 224.34291 L475.54688 225.62994 L471.7457 226.91696 L467.94452 228.20398 L464.14337 229.49101 L460.34216 230.77805 L456.54102 232.06508 L452.7398 233.3521 L450.36426 234.1561 L451.65128 230.3549 L452.93823 226.55368 L454.22522 222.75246 L455.5122 218.95125 L456.7992 215.15002 L458.08618 211.34882 L459.37317 207.5476 L460.66016 203.74638 L461.9471 199.94518 L463.23413 196.14394 L464.5211 192.34273 L465.80807 188.5415 L467.09506 184.7403 L468.38202 180.93909 L469.669 177.13786 L470.956 173.33665 L472.24298 169.53542 L473.52997 165.7342 L474.81696 161.93298 L476.10394 158.13177 L477.39093 154.33057 L478.67792 150.52936 L479.96487 146.72812 L481.47696 145.06064 Z "/>
      </g>
      <g style="fill:#6B85FF;stroke:none;">
        <path d="M510.46832 174.05202 L540.8739 84.24945 L600.2709 143.64642 L510.46832 174.05202 "/>
      </g>
      <g style="fill:#6B85FF;stroke:none;">
        <path d="M541.58105 84.95657 L598.14954 141.52509 L599.7958 143.80728 L595.99475 145.09412 L592.1937 146.38098 L588.39276 147.66785 L584.5918 148.95468 L580.7908 150.24155 L576.98975 151.52838 L573.1887 152.81525 L569.38776 154.10211 L565.5868 155.38895 L561.78577 156.67581 L557.98474 157.96268 L554.1838 159.24951 L550.38275 160.53636 L546.5817 161.82323 L543.25586 162.94922 L539.4549 164.23607 L535.6539 165.52293 L531.8529 166.80977 L528.0519 168.09662 L524.25085 169.38348 L520.4499 170.67033 L516.64886 171.9572 L512.8479 173.24405 L510.46832 174.05202 L511.75525 170.2509 L513.04205 166.44986 L514.32886 162.64882 L515.6157 158.84778 L516.90247 155.04672 L518.18933 151.24567 L519.4761 147.44464 L520.76294 143.64362 L522.04974 139.84256 L523.33655 136.0415 L524.62335 132.24045 L525.91016 128.43942 L527.19696 124.63837 L528.48376 120.83734 L529.77057 117.036285 L531.0574 113.23523 L532.34424 109.434204 L533.631 105.63315 L534.91785 101.83212 L536.2046 98.03107 L537.49146 94.23001 L538.77826 90.428986 L540.06506 86.62793 L541.58105 84.95657 Z "/>
      </g>
      <g style="fill:#6B85FF;stroke:none;">
        <path d="M570.5724 113.94794 L600.978 24.145355 L660.375 83.54233 L570.5724 113.94794 "/>
      </g>
      <g style="fill:#6B85FF;stroke:none;">
        <path d="M601.68506 24.852478 L658.25366 81.42099 L659.89984 83.703186 L656.0988 84.99005 L652.29785 86.276886 L648.4968 87.56372 L644.6958 88.85062 L640.89484 90.13745 L637.0938 91.42432 L633.29285 92.71115 L629.4918 93.99805 L625.6908 95.28488 L621.88983 96.57172 L618.0888 97.85858 L614.28784 99.14542 L610.4868 100.43231 L606.6858 101.71915 L603.36 102.84512 L599.55896 104.13199 L595.75793 105.41882 L591.957 106.70572 L588.15594 107.99255 L584.355 109.27942 L580.55396 110.56625 L576.7529 111.85309 L572.95197 113.139984 L570.5724 113.94794 L571.85925 110.14691 L573.146 106.345856 L574.43286 102.54483 L575.71967 98.743774 L577.0065 94.94275 L578.2933 91.14166 L579.5801 87.34064 L580.86694 83.53961 L582.1537 79.738556 L583.44055 75.93753 L584.7273 72.136444 L586.01416 68.33542 L587.30096 64.53439 L588.58777 60.733337 L589.8746 56.932312 L591.1614 53.131226 L592.4482 49.3302 L593.735 45.529144 L595.0218 41.72812 L596.3086 37.927063 L597.59546 34.126007 L598.8822 30.324982 L600.16907 26.523926 L601.68506 24.852478 Z "/>
      </g>
      <g style="fill:#6B85FF;stroke:none;">
        <path d="M89.73984 474.57242 L120.14542 384.76987 L179.54239 444.16684 L89.73984 474.57242 "/>
      </g>
      <g style="fill:#6B85FF;stroke:none;">
        <path d="M120.85251 385.477 L177.42107 442.0455 L179.06723 444.3277 L175.26602 445.6147 L171.4648 446.90167 L167.66359 448.18866 L163.86237 449.47565 L160.06116 450.7626 L156.25995 452.0496 L152.45874 453.33655 L148.65756 454.6235 L144.85635 455.91046 L141.05516 457.19745 L137.25397 458.4844 L133.45277 459.77136 L129.65158 461.05832 L125.85039 462.34528 L122.52432 463.47137 L118.72313 464.75836 L114.92192 466.04532 L111.12071 467.3323 L107.3195 468.61926 L103.518295 469.90625 L99.7171 471.1932 L95.91589 472.48016 L92.114685 473.76715 L89.73984 474.57242 L91.026794 470.7712 L92.31378 466.97003 L93.60074 463.16882 L94.88771 459.3676 L96.17468 455.5664 L97.461655 451.7652 L98.74863 447.964 L100.035614 444.16278 L101.32257 440.36157 L102.60953 436.56036 L103.896484 432.7592 L105.18346 428.95798 L106.47041 425.1568 L107.757385 421.3556 L109.04434 417.55438 L110.3313 413.7532 L111.618256 409.952 L112.90521 406.15082 L114.1922 402.3496 L115.47919 398.54837 L116.766174 394.74716 L118.05316 390.94595 L119.34013 387.1447 L120.85251 385.477 Z "/>
      </g>
      <g style="fill:#6B85FF;stroke:none;">
        <path d="M149.8439 414.46835 L180.24948 324.66577 L239.64645 384.06274 L149.8439 414.46835 "/>
      </g>
      <g style="fill:#6B85FF;stroke:none;">
        <path d="M180.95659 325.3729 L237.52515 381.94144 L239.1713 384.22363 L235.37009 385.5106 L231.56888 386.79758 L227.76765 388.08456 L223.96643 389.37155 L220.16522 390.65854 L216.36401 391.94553 L212.56279 393.2325 L208.76157 394.51947 L204.96036 395.80646 L201.15913 397.09344 L197.35793 398.38043 L193.5567 399.66742 L189.7555 400.9544 L185.95427 402.2414 L182.6282 403.3675 L178.827 404.65448 L175.02577 405.94147 L171.22455 407.22845 L167.42334 408.51544 L163.62213 409.8024 L159.8209 411.0894 L156.01968 412.37637 L152.21848 413.66336 L149.8439 414.46835 L151.13089 410.6671 L152.41788 406.8659 L153.70485 403.0647 L154.99182 399.2635 L156.27881 395.46225 L157.5658 391.66104 L158.85278 387.85983 L160.13977 384.05862 L161.42674 380.2574 L162.71371 376.45618 L164.0007 372.65497 L165.28769 368.85373 L166.57468 365.05252 L167.86165 361.2513 L169.14864 357.4501 L170.43562 353.64886 L171.7226 349.84766 L173.00958 346.04645 L174.29657 342.24524 L175.58354 338.444 L176.87053 334.6428 L178.15752 330.84158 L179.44449 327.04034 L180.95659 325.3729 Z "/>
      </g>
      <g style="fill:#6B85FF;stroke:none;">
        <path d="M209.94797 354.36426 L240.35355 264.5617 L299.75052 323.95868 L209.94797 354.36426 "/>
      </g>
      <g style="fill:#6B85FF;stroke:none;">
        <path d="M241.06065 265.2688 L297.6292 321.83734 L299.2754 324.11954 L295.47415 325.40652 L291.67294 326.6935 L287.87173 327.98047 L284.0705 329.26746 L280.2693 330.55444 L276.46808 331.84143 L272.66687 333.12842 L268.86563 334.4154 L265.06442 335.7024 L261.2632 336.98938 L257.46198 338.27637 L253.66078 339.56332 L249.85956 340.8503 L246.05835 342.1373 L242.73227 343.26343 L238.93106 344.55038 L235.12985 345.83737 L231.32863 347.12436 L227.5274 348.41135 L223.7262 349.69833 L219.92499 350.9853 L216.12376 352.27228 L212.32254 353.55927 L209.94797 354.36426 L211.23495 350.56305 L212.52194 346.76184 L213.80891 342.96063 L215.0959 339.1594 L216.38287 335.3582 L217.66986 331.55695 L218.95685 327.75574 L220.24384 323.95453 L221.53082 320.15332 L222.8178 316.3521 L224.10477 312.55087 L225.39175 308.74966 L226.67874 304.94843 L227.96573 301.14722 L229.25272 297.346 L230.53969 293.5448 L231.82668 289.7436 L233.11365 285.94235 L234.40063 282.14114 L235.68762 278.33994 L236.9746 274.5387 L238.26158 270.7375 L239.54857 266.93628 L241.06065 265.2688 Z "/>
      </g>
      <g style="fill:#6B85FF;stroke:none;">
        <path d="M270.05203 294.2602 L300.4576 204.45763 L359.85458 263.85458 L270.05203 294.2602 "/>
      </g>
      <g style="fill:#6B85FF;stroke:none;">
        <path d="M301.16473 205.16473 L357.73328 261.73328 L359.37946 264.01544 L355.57825 265.30243 L351.777 266.58942 L347.9758 267.8764 L344.1746 269.1634 L340.37335 270.45038 L336.57214 271.73737 L332.77094 273.02435 L328.96973 274.31134 L325.1685 275.5983 L321.36728 276.88528 L317.56607 278.17227 L313.76483 279.45926 L309.96362 280.74625 L306.1624 282.0332 L302.83636 283.15933 L299.03513 284.44632 L295.23392 285.7333 L291.4327 287.02026 L287.63147 288.30725 L283.83026 289.59424 L280.02905 290.88123 L276.22784 292.1682 L272.4266 293.4552 L270.05203 294.2602 L271.33902 290.45898 L272.626 286.65775 L273.913 282.85654 L275.19998 279.0553 L276.48694 275.2541 L277.77393 271.45288 L279.0609 267.65167 L280.3479 263.85046 L281.6349 260.04922 L282.92188 256.24802 L284.20886 252.44681 L285.49582 248.64557 L286.7828 244.84436 L288.0698 241.04315 L289.35678 237.24194 L290.64377 233.4407 L291.93073 229.6395 L293.2177 225.83829 L294.5047 222.03705 L295.7917 218.23584 L297.07867 214.43463 L298.36566 210.63342 L299.65265 206.83218 L301.16473 205.16473 Z "/>
      </g>
      <g style="fill:#6B85FF;stroke:none;">
        <path d="M330.15613 234.1561 L360.56168 144.35355 L419.95868 203.7505 L330.15613 234.1561 "/>
      </g>
      <g style="fill:#6B85FF;stroke:none;">
        <path d="M361.2688 145.06067 L417.83734 201.62918 L419.48352 203.91138 L415.6823 205.19836 L411.8811 206.48534 L408.07986 207.77232 L404.27866 209.05933 L400.47742 210.3463 L396.6762 211.63327 L392.875 212.92026 L389.0738 214.20724 L385.27255 215.49422 L381.47134 216.7812 L377.67014 218.06818 L373.86893 219.35518 L370.0677 220.64215 L366.26648 221.92914 L362.94043 223.05524 L359.13922 224.34222 L355.33798 225.62921 L351.53677 226.9162 L347.73553 228.20319 L343.93433 229.49017 L340.13312 230.77715 L336.3319 232.06412 L332.5307 233.35112 L330.15613 234.1561 L331.44308 230.35489 L332.73007 226.55368 L334.01706 222.75246 L335.30405 218.95123 L336.591 215.15002 L337.878 211.3488 L339.16498 207.54758 L340.45197 203.74637 L341.73895 199.94516 L343.02594 196.14394 L344.31293 192.34271 L345.59988 188.5415 L346.88687 184.74028 L348.17386 180.93907 L349.46085 177.13785 L350.74783 173.33664 L352.03482 169.5354 L353.32178 165.73419 L354.60876 161.93298 L355.89575 158.13177 L357.18274 154.33057 L358.46973 150.52933 L359.7567 146.72812 L361.2688 145.06067 Z "/>
      </g>
      <g style="fill:#6B85FF;stroke:none;">
        <path d="M390.2602 174.05203 L420.66577 84.24945 L480.06274 143.64642 L390.2602 174.05203 "/>
      </g>
      <g style="fill:#6B85FF;stroke:none;">
        <path d="M421.37286 84.95657 L477.9414 141.52512 L479.5876 143.80731 L475.78638 145.09427 L471.98517 146.38126 L468.18393 147.66824 L464.38272 148.95523 L460.58148 150.24222 L456.78027 151.5292 L452.97906 152.8162 L449.17786 154.10315 L445.37665 155.39014 L441.57544 156.67712 L437.7742 157.96411 L433.973 159.2511 L430.17175 160.53809 L426.37054 161.82506 L423.0445 162.95117 L419.2433 164.23816 L415.44205 165.52515 L411.64084 166.81212 L407.83963 168.09909 L404.0384 169.38608 L400.23718 170.67307 L396.43597 171.96005 L392.63477 173.24704 L390.2602 174.05203 L391.54718 170.25081 L392.83417 166.44958 L394.12112 162.64838 L395.4081 158.84717 L396.6951 155.04593 L397.98206 151.24472 L399.26904 147.44351 L400.55603 143.6423 L401.84302 139.84106 L403.13 136.03986 L404.417 132.23865 L405.70398 128.43741 L406.99097 124.6362 L408.27792 120.83499 L409.5649 117.03378 L410.8519 113.232544 L412.1389 109.431335 L413.42584 105.63013 L414.71283 101.82889 L415.99982 98.02768 L417.2868 94.22647 L418.5738 90.42526 L419.86078 86.62402 L421.37286 84.95657 Z "/>
      </g>
      <g style="fill:#6B85FF;stroke:none;">
        <path d="M450.36426 113.94794 L480.76984 24.145386 L540.1668 83.54236 L450.36426 113.94794 "/>
      </g>
      <g style="fill:#6B85FF;stroke:none;">
        <path d="M481.47696 24.852478 L538.04553 81.42102 L539.69165 83.703186 L535.8906 84.98999 L532.0896 86.276825 L528.2885 87.56363 L524.4875 88.85043 L520.68646 90.13727 L516.8854 91.42404 L513.08435 92.71088 L509.28333 93.99768 L505.48227 95.284485 L501.68124 96.57129 L497.8802 97.85812 L494.07916 99.1449 L490.2781 100.43173 L486.47705 101.71854 L483.15115 102.84448 L479.3501 104.13132 L475.54907 105.41812 L471.74802 106.704926 L467.94696 107.99173 L464.14594 109.278564 L460.3449 110.56537 L456.54385 111.85217 L452.7428 113.13898 L450.36426 113.94794 L451.65115 110.14679 L452.93796 106.345764 L454.22476 102.54474 L455.5116 98.74368 L456.79837 94.94263 L458.0852 91.1416 L459.372 87.340546 L460.6588 83.53952 L461.94562 79.738464 L463.23242 75.93741 L464.51923 72.13635 L465.80606 68.33533 L467.09286 64.53427 L468.37967 60.733246 L469.66647 56.93219 L470.9533 53.131165 L472.2401 49.33011 L473.52692 45.529053 L474.81372 41.728027 L476.10052 37.92697 L477.38736 34.125916 L478.67416 30.32489 L479.96094 26.523834 L481.47696 24.852478 Z "/>
      </g>
      <g style="fill:#6B85FF;stroke:none;">
        <path d="M510.46832 53.843872 L540.8739 -35.95871 L600.2709 23.438263 L510.46832 53.843872 "/>
      </g>
      <g style="fill:#6B85FF;stroke:none;">
        <path d="M541.58105 -35.251587 L598.14954 21.316925 L599.7958 23.599121 L595.9947 24.885925 L592.19366 26.17273 L588.39264 27.459534 L584.59155 28.746368 L580.7905 30.033142 L576.9895 31.319977 L573.1885 32.60678 L569.3874 33.893616 L565.5863 35.18042 L561.7853 36.467224 L557.98425 37.75403 L554.1832 39.040833 L550.3822 40.327667 L546.5811 41.61444 L543.25525 42.740417 L539.45416 44.02722 L535.65314 45.314026 L531.8521 46.60086 L528.051 47.887665 L524.25 49.1745 L520.449 50.461273 L516.64795 51.748077 L512.84686 53.034912 L510.46832 53.843872 L511.75513 50.042786 L513.04193 46.24176 L514.32874 42.440735 L515.61554 38.63968 L516.90234 34.838654 L518.1892 31.037598 L519.47595 27.236542 L520.7628 23.435516 L522.0496 19.63446 L523.3364 15.833435 L524.6232 12.032349 L525.91003 8.231323 L527.19684 4.430298 L528.48364 0.62924194 L529.7705 -3.1717834 L531.05725 -6.9728394 L532.3441 -10.773895 L533.6309 -14.574951 L534.9177 -18.375977 L536.2045 -22.177002 L537.49133 -25.978088 L538.77814 -29.779114 L540.06494 -33.58017 L541.58105 -35.251587 Z "/>
      </g>
      <g style="fill:#6B85FF;stroke:none;">
        <path d="M29.635742 414.46835 L60.041336 324.6658 L119.43831 384.06274 L29.635742 414.46835 "/>
      </g>
      <g style="fill:#6B85FF;stroke:none;">
        <path d="M60.748444 325.37292 L117.316986 381.94144 L118.963165 384.22363 L115.16193 385.51062 L111.36072 386.7976 L107.55951 388.0846 L103.7583 389.37155 L99.95708 390.65854 L96.15587 391.9455 L92.354675 393.23248 L88.55347 394.51944 L84.75229 395.8064 L80.95108 397.09335 L77.14989 398.3803 L73.348694 399.6673 L69.5475 400.95425 L65.74631 402.2412 L62.420242 403.3673 L58.61905 404.65427 L54.81784 405.94125 L51.016632 407.2282 L47.215424 408.5152 L43.414215 409.8022 L39.613037 411.08914 L35.8118 412.3761 L32.01062 413.6631 L29.635742 414.46835 L30.92273 410.66714 L32.209717 406.86594 L33.496643 403.06476 L34.78363 399.26355 L36.070618 395.4623 L37.357574 391.66113 L38.64456 387.85992 L39.93152 384.05872 L41.218506 380.2575 L42.505432 376.4563 L43.79242 372.65512 L45.079376 368.8539 L46.366333 365.05273 L47.65332 361.25153 L48.940247 357.45032 L50.227234 353.64914 L51.51416 349.84793 L52.801147 346.04675 L54.088135 342.2455 L55.37509 338.4443 L56.662094 334.6431 L57.949066 330.84186 L59.236053 327.04065 L60.748444 325.37292 Z "/>
      </g>
      <g style="fill:#6B85FF;stroke:none;">
        <path d="M89.73982 354.36426 L120.1454 264.5617 L179.54237 323.95868 L89.73982 354.36426 "/>
      </g>
      <g style="fill:#6B85FF;stroke:none;">
        <path d="M120.85251 265.26883 L177.42105 321.83734 L179.06723 324.11954 L175.266 325.40652 L171.46478 326.6935 L167.66357 327.9805 L163.86237 329.2675 L160.06114 330.55444 L156.25992 331.84143 L152.45871 333.12842 L148.65749 334.4154 L144.85628 335.7024 L141.05505 336.98938 L137.25385 338.27637 L133.45264 339.56335 L129.65141 340.85034 L125.85019 342.13733 L122.524124 343.26343 L118.722916 344.5504 L114.92169 345.8374 L111.12048 347.12436 L107.319275 348.41135 L103.518036 349.69833 L99.71683 350.98532 L95.9156 352.2723 L92.114395 353.55927 L89.73982 354.36426 L91.026794 350.56305 L92.31378 346.76184 L93.60077 342.96063 L94.88776 339.15942 L96.17474 335.3582 L97.461716 331.55698 L98.7487 327.75574 L100.035675 323.95453 L101.32266 320.15332 L102.609634 316.3521 L103.89662 312.5509 L105.18361 308.74966 L106.47058 304.94846 L107.75757 301.14722 L109.044556 297.346 L110.33154 293.5448 L111.618515 289.7436 L112.9055 285.94238 L114.19249 282.14114 L115.47946 278.33994 L116.76645 274.53873 L118.05342 270.7375 L119.34042 266.93628 L120.85251 265.26883 Z "/>
      </g>
      <g style="fill:#6B85FF;stroke:none;">
        <path d="M149.84389 294.2602 L180.24948 204.45764 L239.64645 263.8546 L149.84389 294.2602 "/>
      </g>
      <g style="fill:#6B85FF;stroke:none;">
        <path d="M180.95659 205.16475 L237.52513 261.73328 L239.1713 264.01547 L235.37009 265.30246 L231.56886 266.58942 L227.76764 267.8764 L223.96643 269.1634 L220.16522 270.45038 L216.364 271.73737 L212.56277 273.02435 L208.76157 274.31134 L204.96034 275.59833 L201.15912 276.8853 L197.35791 278.17227 L193.5567 279.45926 L189.75548 280.74625 L185.95425 282.03323 L182.62819 283.15936 L178.82698 284.44632 L175.02576 285.7333 L171.22455 287.02026 L167.42334 288.30728 L163.62212 289.59427 L159.8209 290.88123 L156.01967 292.1682 L152.21846 293.4552 L149.84389 294.2602 L151.13086 290.45898 L152.41786 286.65775 L153.70483 282.85654 L154.99182 279.05533 L156.27881 275.2541 L157.56578 271.45288 L158.85277 267.65167 L160.13974 263.85046 L161.42673 260.04926 L162.7137 256.24802 L164.0007 252.44681 L165.28769 248.64558 L166.57466 244.84438 L167.86165 241.04315 L169.14862 237.24194 L170.43561 233.44073 L171.72258 229.6395 L173.00957 225.83829 L174.29655 222.03706 L175.58353 218.23586 L176.87053 214.43465 L178.1575 210.63342 L179.44449 206.83221 L180.95659 205.16475 Z "/>
      </g>
      <g style="fill:#6B85FF;stroke:none;">
        <path d="M209.94797 234.15611 L240.35355 144.35358 L299.75052 203.75052 L209.94797 234.15611 "/>
      </g>
      <g style="fill:#6B85FF;stroke:none;">
        <path d="M241.06065 145.06067 L297.6292 201.6292 L299.27536 203.91138 L295.47415 205.19836 L291.6729 206.48535 L287.8717 207.77234 L284.0705 209.05933 L280.2693 210.3463 L276.46808 211.63329 L272.66684 212.92027 L268.86563 214.20724 L265.06442 215.49423 L261.26318 216.78122 L257.46198 218.0682 L253.66077 219.35518 L249.85956 220.64218 L246.05833 221.92915 L242.73227 223.05527 L238.93106 224.34224 L235.12982 225.62923 L231.32861 226.9162 L227.5274 228.20319 L223.72618 229.49017 L219.92497 230.77716 L216.12375 232.06415 L212.32254 233.35112 L209.94797 234.15611 L211.23494 230.3549 L212.52193 226.55368 L213.8089 222.75246 L215.09589 218.95125 L216.38287 215.15002 L217.66986 211.34882 L218.95685 207.54759 L220.2438 203.74638 L221.53079 199.94516 L222.81778 196.14395 L224.10477 192.34274 L225.39175 188.5415 L226.67873 184.7403 L227.96571 180.93907 L229.25269 177.13786 L230.53967 173.33664 L231.82666 169.53543 L233.11365 165.73422 L234.40063 161.93298 L235.6876 158.13177 L236.9746 154.33057 L238.26157 150.52936 L239.54855 146.72812 L241.06065 145.06067 Z "/>
      </g>
      <g style="fill:#6B85FF;stroke:none;">
        <path d="M270.05203 174.05203 L300.4576 84.24948 L359.85458 143.64642 L270.05203 174.05203 "/>
      </g>
      <g style="fill:#6B85FF;stroke:none;">
        <path d="M301.16473 84.956604 L357.73328 141.52512 L359.37943 143.80731 L355.57822 145.0943 L351.777 146.38129 L347.97577 147.66824 L344.17456 148.95526 L340.37335 150.24222 L336.57214 151.5292 L332.7709 152.8162 L328.9697 154.10318 L325.1685 155.39014 L321.36725 156.67712 L317.56604 157.96411 L313.76483 159.2511 L309.96362 160.53809 L306.1624 161.82507 L302.83633 162.95117 L299.03513 164.23816 L295.2339 165.52515 L291.43268 166.81212 L287.63147 168.09912 L283.83026 169.38611 L280.02905 170.67307 L276.2278 171.96005 L272.4266 173.24704 L270.05203 174.05203 L271.339 170.25082 L272.626 166.44958 L273.91296 162.64838 L275.19995 158.84717 L276.48694 155.04596 L277.77393 151.24475 L279.0609 147.44351 L280.3479 143.6423 L281.6349 139.8411 L282.92184 136.03986 L284.20883 132.23865 L285.49582 128.43744 L286.78278 124.63623 L288.0698 120.83499 L289.35675 117.03378 L290.64374 113.232574 L291.93073 109.431335 L293.2177 105.63013 L294.5047 101.82892 L295.7917 98.02771 L297.07867 94.2265 L298.36563 90.42526 L299.65265 86.624054 L301.16473 84.956604 Z "/>
      </g>
      <g style="fill:#6B85FF;stroke:none;">
        <path d="M330.1561 113.94794 L360.5617 24.145386 L419.95868 83.54236 L330.1561 113.94794 "/>
      </g>
      <g style="fill:#6B85FF;stroke:none;">
        <path d="M361.2688 24.852509 L417.83734 81.42102 L419.48352 83.70322 L415.68228 84.990204 L411.88107 86.27719 L408.07983 87.56418 L404.27863 88.851166 L400.47742 90.13815 L396.6762 91.42511 L392.875 92.7121 L389.0738 93.999084 L385.27255 95.28607 L381.47134 96.57306 L377.6701 97.86005 L373.8689 99.14703 L370.0677 100.43402 L366.26648 101.72101 L362.9404 102.84711 L359.1392 104.134094 L355.33795 105.42108 L351.53674 106.70804 L347.73553 107.995026 L343.93433 109.28201 L340.13312 110.569 L336.3319 111.85599 L332.53067 113.142944 L330.1561 113.94794 L331.44308 110.14673 L332.73007 106.34552 L334.01703 102.54431 L335.30402 98.7431 L336.591 94.941864 L337.878 91.140656 L339.16498 87.33942 L340.45197 83.53821 L341.73895 79.737 L343.02594 75.93579 L344.31293 72.13458 L345.5999 68.33334 L346.88687 64.532135 L348.17386 60.730896 L349.46082 56.929688 L350.7478 53.12848 L352.0348 49.32727 L353.32178 45.526062 L354.60876 41.724823 L355.89575 37.923615 L357.18274 34.122406 L358.46973 30.321167 L359.7567 26.519958 L361.2688 24.852509 Z "/>
      </g>
      <g style="fill:#6B85FF;stroke:none;">
        <path d="M390.2602 53.843872 L420.66577 -35.95868 L480.06274 23.438293 L390.2602 53.843872 "/>
      </g>
      <g style="fill:#6B85FF;stroke:none;">
        <path d="M421.37286 -35.251587 L477.9414 21.316956 L479.58762 23.599121 L475.78656 24.885925 L471.9855 26.17276 L468.18445 27.459564 L464.38342 28.746338 L460.5824 30.033173 L456.7813 31.319977 L452.9803 32.60681 L449.17923 33.893616 L445.3782 35.18042 L441.57715 36.467224 L437.77612 37.75403 L433.97507 39.040833 L430.174 40.327667 L426.373 41.61447 L423.04706 42.740417 L419.24603 44.02722 L415.44498 45.314056 L411.64392 46.60083 L407.8429 47.887665 L404.04184 49.1745 L400.2408 50.461304 L396.43976 51.748108 L392.63873 53.034912 L390.2602 53.843872 L391.54706 50.042725 L392.83386 46.2417 L394.12067 42.440674 L395.4075 38.639618 L396.6943 34.838562 L397.9811 31.037537 L399.26794 27.23645 L400.55475 23.435425 L401.84155 19.6344 L403.12836 15.8333435 L404.41516 12.032288 L405.70197 8.231262 L406.98877 4.4302063 L408.2756 0.6291504 L409.56238 -3.171875 L410.84924 -6.9729004 L412.13602 -10.773956 L413.42282 -14.575012 L414.70966 -18.376038 L415.99646 -22.177124 L417.28326 -25.97815 L418.57007 -29.779175 L419.85687 -33.58023 L421.37286 -35.251587 Z "/>
      </g>
      <g style="fill:#6B85FF;stroke:none;">
        <path d="M450.36426 -6.260193 L480.76984 -96.062775 L540.1668 -36.665833 L450.36426 -6.260193 "/>
      </g>
      <g style="fill:#6B85FF;stroke:none;">
        <path d="M481.47693 -95.35565 L538.0455 -38.78714 L539.69165 -36.504974 L535.8906 -35.21814 L532.0896 -33.931335 L528.2886 -32.64453 L524.4875 -31.357727 L520.68646 -30.070923 L516.8854 -28.784088 L513.08435 -27.497284 L509.28333 -26.21045 L505.48227 -24.923645 L501.6812 -23.636871 L497.88016 -22.350037 L494.07913 -21.063232 L490.2781 -19.776398 L486.47705 -18.489624 L483.15112 -17.363647 L479.3501 -16.076843 L475.54904 -14.790039 L471.74802 -13.503235 L467.94696 -12.216431 L464.14594 -10.929565 L460.34485 -9.642792 L456.54382 -8.355988 L452.7428 -7.069153 L450.36426 -6.260193 L451.65106 -10.061279 L452.93787 -13.862305 L454.22467 -17.66333 L455.51147 -21.464386 L456.7983 -25.265442 L458.08508 -29.066467 L459.3719 -32.867523 L460.65872 -36.66855 L461.94553 -40.469604 L463.23236 -44.27063 L464.51917 -48.071716 L465.80597 -51.87274 L467.09277 -55.673767 L468.37958 -59.474854 L469.66638 -63.27588 L470.9532 -67.076904 L472.24 -70.87796 L473.52682 -74.679016 L474.81363 -78.48004 L476.10046 -82.28107 L477.38727 -86.08215 L478.67404 -89.88318 L479.96088 -93.684235 L481.47693 -95.35565 Z "/>
      </g>
      <g style="fill:#6B85FF;stroke:none;">
        <path d="M-30.468323 354.3643 L-0.06274414 264.5617 L59.33423 323.95868 L-30.468323 354.3643 "/>
      </g>
      <g style="fill:#6B85FF;stroke:none;">
        <path d="M0.64434814 265.26883 L57.212906 321.83737 L58.85907 324.11957 L55.05786 325.40656 L51.256653 326.69354 L47.455414 327.9805 L43.654205 329.2675 L39.852997 330.55447 L36.05179 331.84143 L32.25058 333.12842 L28.449402 334.41537 L24.648193 335.70233 L20.846985 336.9893 L17.045807 338.27625 L13.244598 339.5632 L9.44342 340.85016 L5.642212 342.13715 L2.316162 343.26324 L-1.4850464 344.5502 L-5.286255 345.8372 L-9.087463 347.12415 L-12.888641 348.41113 L-16.68988 349.6981 L-20.491058 350.98508 L-24.292297 352.27203 L-28.093475 353.55902 L-30.468323 354.3643 L-29.181366 350.56308 L-27.894379 346.76187 L-26.607422 342.9607 L-25.320435 339.15945 L-24.033478 335.35825 L-22.746521 331.55704 L-21.459534 327.75586 L-20.172546 323.95465 L-18.88559 320.15344 L-17.598633 316.35223 L-16.311676 312.55103 L-15.024689 308.74985 L-13.737732 304.94867 L-12.450775 301.14746 L-11.163818 297.34625 L-9.876862 293.54504 L-8.589905 289.74387 L-7.302948 285.94266 L-6.0159607 282.14145 L-4.7289734 278.34024 L-3.441986 274.539 L-2.1550293 270.7378 L-0.868042 266.93658 L0.64434814 265.26883 Z "/>
      </g>
      <g style="fill:#6B85FF;stroke:none;">
        <path d="M29.635742 294.2602 L60.04132 204.45764 L119.43829 263.8546 L29.635742 294.2602 "/>
      </g>
      <g style="fill:#6B85FF;stroke:none;">
        <path d="M60.74843 205.16475 L117.31697 261.73328 L118.963135 264.01547 L115.16193 265.30246 L111.36072 266.58945 L107.559494 267.87643 L103.758286 269.16342 L99.95706 270.45038 L96.15585 271.73737 L92.354614 273.02435 L88.553406 274.31134 L84.7522 275.59833 L80.95097 276.8853 L77.149765 278.1723 L73.34854 279.4593 L69.54733 280.74628 L65.74611 282.03326 L62.420044 283.15936 L58.618835 284.44635 L54.81761 285.73334 L51.016388 287.0203 L47.21518 288.30728 L43.41397 289.59427 L39.612732 290.88126 L35.811523 292.1682 L32.010315 293.4552 L29.635742 294.2602 L30.92273 290.45898 L32.209717 286.65778 L33.496674 282.85657 L34.78366 279.05533 L36.07065 275.25412 L37.357635 271.45288 L38.644623 267.65167 L39.93158 263.85046 L41.218567 260.04926 L42.505554 256.24805 L43.79254 252.44681 L45.07953 248.6456 L46.366516 244.84439 L47.653503 241.04317 L48.94046 237.24196 L50.227448 233.44073 L51.514435 229.63953 L52.801422 225.83829 L54.08841 222.03708 L55.37538 218.23587 L56.66237 214.43465 L57.94934 210.63344 L59.23633 206.83221 L60.74843 205.16475 Z "/>
      </g>
      <g style="fill:#6B85FF;stroke:none;">
        <path d="M89.73981 234.15613 L120.1454 144.35355 L179.54237 203.75053 L89.73981 234.15613 "/>
      </g>
      <g style="fill:#6B85FF;stroke:none;">
        <path d="M120.85251 145.06067 L177.42105 201.62921 L179.0672 203.91139 L175.26599 205.19838 L171.46478 206.48537 L167.66356 207.77234 L163.86235 209.05934 L160.06113 210.34631 L156.25992 211.6333 L152.4587 212.92027 L148.65749 214.20726 L144.85628 215.49425 L141.05504 216.78122 L137.25383 218.0682 L133.4526 219.3552 L129.6514 220.64218 L125.850174 221.92917 L122.52411 223.05527 L118.7229 224.34225 L114.92168 225.62924 L111.12047 226.91621 L107.31926 228.2032 L103.518036 229.49017 L99.71683 230.77718 L95.91559 232.06415 L92.11438 233.35114 L89.73981 234.15613 L91.026794 230.35492 L92.31378 226.55368 L93.60075 222.75247 L94.88774 218.95125 L96.17473 215.15004 L97.4617 211.34882 L98.74869 207.5476 L100.03566 203.7464 L101.32265 199.94518 L102.60962 196.14395 L103.89662 192.34273 L105.18361 188.54152 L106.47058 184.74031 L107.75757 180.93909 L109.04454 177.13788 L110.33153 173.33665 L111.6185 169.53543 L112.90549 165.7342 L114.192474 161.933 L115.47946 158.13177 L116.76645 154.33057 L118.05342 150.52936 L119.34041 146.72812 L120.85251 145.06067 Z "/>
      </g>
      <g style="fill:#6B85FF;stroke:none;">
        <path d="M149.84389 174.05205 L180.24947 84.24948 L239.64644 143.64645 L149.84389 174.05205 "/>
      </g>
      <g style="fill:#6B85FF;stroke:none;">
        <path d="M180.95657 84.956604 L237.52512 141.52515 L239.17128 143.80731 L235.37007 145.0943 L231.56885 146.38129 L227.76764 147.66827 L223.96643 148.95526 L220.16519 150.24222 L216.36398 151.52924 L212.56276 152.8162 L208.76155 154.10318 L204.96034 155.39017 L201.15912 156.67715 L197.35791 157.96414 L193.55667 159.2511 L189.75546 160.5381 L185.95425 161.82509 L182.62817 162.95119 L178.82697 164.23817 L175.02574 165.52516 L171.22453 166.81213 L167.42332 168.09912 L163.6221 169.38611 L159.82089 170.6731 L156.01967 171.96007 L152.21846 173.24706 L149.84389 174.05205 L151.13086 170.25084 L152.41785 166.44962 L153.70482 162.64839 L154.9918 158.84717 L156.2788 155.04596 L157.56577 151.24475 L158.85275 147.44351 L160.13974 143.6423 L161.42673 139.8411 L162.7137 136.03989 L164.00069 132.23865 L165.28767 128.43744 L166.57465 124.63623 L167.86163 120.83502 L169.14862 117.03381 L170.43561 113.232574 L171.72256 109.431366 L173.00955 105.63013 L174.29655 101.82892 L175.58353 98.02771 L176.87051 94.2265 L178.15749 90.42529 L179.44447 86.624054 L180.95657 84.956604 Z "/>
      </g>
      <g style="fill:#6B85FF;stroke:none;">
        <path d="M209.94795 113.94797 L240.35353 24.145386 L299.7505 83.54236 L209.94795 113.94797 "/>
      </g>
      <g style="fill:#6B85FF;stroke:none;">
        <path d="M241.06064 24.852509 L297.62918 81.42105 L299.27533 83.70325 L295.47412 84.990234 L291.6729 86.27722 L287.8717 87.56418 L284.0705 88.8512 L280.2693 90.13815 L276.46808 91.42514 L272.6668 92.7121 L268.8656 93.999084 L265.0644 95.28607 L261.26318 96.57306 L257.46198 97.86005 L253.66075 99.14703 L249.85954 100.43402 L246.05832 101.72101 L242.73225 102.84711 L238.93105 104.134094 L235.12982 105.42108 L231.32861 106.70807 L227.5274 107.995056 L223.72617 109.28201 L219.92496 110.569 L216.12373 111.85599 L212.32253 113.142975 L209.94795 113.94797 L211.23492 110.14676 L212.52191 106.34552 L213.8089 102.54431 L215.09589 98.7431 L216.38287 94.941895 L217.66985 91.140656 L218.95683 87.33945 L220.2438 83.53824 L221.53079 79.737 L222.81776 75.93579 L224.10475 72.13458 L225.39174 68.333374 L226.67871 64.532166 L227.96571 60.730927 L229.25269 56.929718 L230.53967 53.12848 L231.82664 49.32727 L233.11363 45.526062 L234.40062 41.724854 L235.68759 37.923645 L236.97458 34.122406 L238.26155 30.321198 L239.54855 26.519958 L241.06064 24.852509 Z "/>
      </g>
      <g style="fill:#6B85FF;stroke:none;">
        <path d="M270.052 53.843872 L300.4576 -35.95868 L359.85458 23.438293 L270.052 53.843872 "/>
      </g>
      <g style="fill:#6B85FF;stroke:none;">
        <path d="M301.16473 -35.251587 L357.73328 21.316956 L359.37943 23.599152 L355.5782 24.886139 L351.77698 26.173126 L347.97577 27.460083 L344.17456 28.7471 L340.37335 30.034058 L336.57214 31.321045 L332.7709 32.608032 L328.9697 33.89502 L325.1685 35.182007 L321.36725 36.468994 L317.56604 37.75598 L313.76483 39.04297 L309.96362 40.329956 L306.16238 41.616943 L302.8363 42.743042 L299.0351 44.03003 L295.2339 45.317017 L291.43268 46.603973 L287.63147 47.89096 L283.83026 49.177917 L280.02905 50.464935 L276.2278 51.751892 L272.42657 53.03888 L270.052 53.843872 L271.339 50.042664 L272.62598 46.241455 L273.91296 42.440247 L275.19995 38.639008 L276.48694 34.8378 L277.77393 31.03656 L279.0609 27.235352 L280.34787 23.434143 L281.63486 19.632935 L282.92184 15.831726 L284.20883 12.030487 L285.49582 8.229279 L286.78278 4.42807 L288.06976 0.62683105 L289.35675 -3.1743774 L290.64374 -6.975586 L291.93073 -10.776794 L293.2177 -14.578033 L294.5047 -18.379242 L295.7917 -22.18045 L297.07867 -25.98169 L298.36563 -29.782898 L299.65262 -33.584106 L301.16473 -35.251587 Z "/>
      </g>
      <g style="fill:#6B85FF;stroke:none;">
        <path d="M330.1561 -6.260193 L360.5617 -96.062744 L419.95868 -36.66577 L330.1561 -6.260193 "/>
      </g>
      <g style="fill:#6B85FF;stroke:none;">
        <path d="M361.2688 -95.35565 L417.83734 -38.78711 L419.48352 -36.504944 L415.68246 -35.21814 L411.88144 -33.931305 L408.08038 -32.64453 L404.27936 -31.357727 L400.4783 -30.070892 L396.67725 -28.784088 L392.87622 -27.497253 L389.07513 -26.21045 L385.2741 -24.923645 L381.47308 -23.63684 L377.67206 -22.350037 L373.87097 -21.063232 L370.06995 -19.776428 L366.2689 -18.489594 L362.943 -17.363647 L359.14197 -16.076843 L355.34088 -14.790009 L351.53986 -13.503235 L347.73883 -12.2164 L343.93774 -10.929596 L340.13672 -9.642761 L336.3357 -8.355957 L332.53464 -7.069153 L330.1561 -6.260193 L331.443 -10.06134 L332.7298 -13.862366 L334.0166 -17.663391 L335.3034 -21.464478 L336.5902 -25.265503 L337.877 -29.066559 L339.16385 -32.867615 L340.45065 -36.66864 L341.7375 -40.469666 L343.02426 -44.27072 L344.3111 -48.071777 L345.5979 -51.872803 L346.8847 -55.67386 L348.1715 -59.474915 L349.4583 -63.27594 L350.74515 -67.076996 L352.03192 -70.87802 L353.31873 -74.67908 L354.6056 -78.4801 L355.89236 -82.28119 L357.1792 -86.082214 L358.466 -89.88324 L359.7528 -93.684326 L361.2688 -95.35565 Z "/>
      </g>
      <g style="fill:#6B85FF;stroke:none;">
        <path d="M390.2602 -66.36426 L420.66577 -156.16687 L480.06274 -96.7699 L390.2602 -66.36426 "/>
      </g>
      <g style="fill:#6B85FF;stroke:none;">
        <path d="M421.37286 -155.45978 L477.9414 -98.891174 L479.5876 -96.60907 L475.78653 -95.322205 L471.9855 -94.0354 L468.18445 -92.7486 L464.38342 -91.46179 L460.58237 -90.17499 L456.7813 -88.88815 L452.9803 -87.60138 L449.17926 -86.314514 L445.37817 -85.02771 L441.57715 -83.74094 L437.7761 -82.4541 L433.97504 -81.1673 L430.174 -79.88049 L426.37296 -78.59369 L423.04706 -77.46774 L419.246 -76.18091 L415.44495 -74.894104 L411.64392 -73.6073 L407.8429 -72.320496 L404.04184 -71.03366 L400.24078 -69.74686 L396.43976 -68.46008 L392.63873 -67.17322 L390.2602 -66.36426 L391.54697 -70.165344 L392.83377 -73.96637 L394.1206 -77.767395 L395.4074 -81.56848 L396.6942 -85.36951 L397.98102 -89.17056 L399.26782 -92.97159 L400.55463 -96.772644 L401.84143 -100.57367 L403.12827 -104.374695 L404.41507 -108.17578 L405.70187 -111.97681 L406.9887 -115.77783 L408.2755 -119.57892 L409.56232 -123.379944 L410.84912 -127.18097 L412.13593 -130.982 L413.42273 -134.78308 L414.70953 -138.5841 L415.99637 -142.38513 L417.28317 -146.18622 L418.56995 -149.98724 L419.8568 -153.78833 L421.37286 -155.45978 Z "/>
      </g>
      <g style="fill:#6B85FF;stroke:none;">
        <path d="M-90.57239 294.2602 L-60.16681 204.45764 L-0.7698364 263.8546 L-90.57239 294.2602 "/>
      </g>
      <g style="fill:#6B85FF;stroke:none;">
        <path d="M-59.459717 205.16476 L-2.8911743 261.73328 L-1.2449951 264.0155 L-5.046234 265.3025 L-8.847443 266.58945 L-12.648651 267.87643 L-16.44986 269.16342 L-20.251099 270.4504 L-24.052307 271.73737 L-27.853516 273.02435 L-31.654694 274.3113 L-35.45587 275.59827 L-39.25708 276.88522 L-43.058258 278.17218 L-46.859467 279.45914 L-50.660645 280.7461 L-54.461853 282.03308 L-57.787903 283.15918 L-61.58911 284.44614 L-65.39032 285.7331 L-69.19153 287.02008 L-72.99274 288.30707 L-76.793945 289.59402 L-80.59515 290.881 L-84.39636 292.16797 L-88.19757 293.45493 L-90.57239 294.2602 L-89.28543 290.45898 L-87.998474 286.6578 L-86.71149 282.85663 L-85.42453 279.05536 L-84.13754 275.25418 L-82.850586 271.45297 L-81.56363 267.6518 L-80.27664 263.8506 L-78.989655 260.04935 L-77.7027 256.24817 L-76.41577 252.44696 L-75.128784 248.64578 L-73.84183 244.84459 L-72.55487 241.04337 L-71.26788 237.24219 L-69.98096 233.441 L-68.69397 229.6398 L-67.40701 225.83862 L-66.120026 222.03738 L-64.83304 218.23616 L-63.54608 214.43495 L-62.259094 210.63374 L-60.972107 206.83253 L-59.459717 205.16476 Z "/>
      </g>
      <g style="fill:#6B85FF;stroke:none;">
        <path d="M-30.468323 234.15613 L-0.06274414 144.35355 L59.334213 203.75053 L-30.468323 234.15613 "/>
      </g>
      <g style="fill:#6B85FF;stroke:none;">
        <path d="M0.64434814 145.06067 L57.21289 201.62921 L58.859055 203.9114 L55.057846 205.1984 L51.256653 206.48537 L47.455414 207.77237 L43.654205 209.05934 L39.852966 210.34633 L36.051758 211.6333 L32.25055 212.92029 L28.44934 214.20728 L24.648132 215.49425 L20.846893 216.78125 L17.045685 218.0682 L13.244446 219.35521 L9.443237 220.6422 L5.642029 221.92917 L2.3159485 223.05528 L-1.48526 224.34227 L-5.2864685 225.62924 L-9.087677 226.91623 L-12.8888855 228.20322 L-16.690125 229.4902 L-20.491333 230.77719 L-24.292542 232.06418 L-28.09375 233.35114 L-30.468323 234.15613 L-29.181335 230.35492 L-27.894379 226.55371 L-26.607391 222.7525 L-25.320404 218.95126 L-24.033417 215.15004 L-22.74643 211.34883 L-21.459473 207.54762 L-20.172485 203.74641 L-18.885498 199.94516 L-17.59851 196.14395 L-16.311554 192.34274 L-15.024567 188.54153 L-13.737579 184.74033 L-12.450592 180.93909 L-11.163605 177.13788 L-9.876648 173.33667 L-8.589661 169.53546 L-7.3026733 165.73425 L-6.0156555 161.933 L-4.728668 158.1318 L-3.4417114 154.33057 L-2.1547241 150.52936 L-0.8677368 146.72815 L0.64434814 145.06067 Z "/>
      </g>
      <g style="fill:#6B85FF;stroke:none;">
        <path d="M29.635742 174.05205 L60.04132 84.24948 L119.43829 143.64645 L29.635742 174.05205 "/>
      </g>
      <g style="fill:#6B85FF;stroke:none;">
        <path d="M60.748413 84.956604 L117.31697 141.52512 L118.963135 143.80731 L115.16193 145.09433 L111.3607 146.38129 L107.55948 147.66827 L103.75827 148.95526 L99.95705 150.24225 L96.15584 151.5292 L92.354614 152.81622 L88.553406 154.10321 L84.7522 155.39017 L80.95096 156.67715 L77.14975 157.96414 L73.348526 159.25113 L69.54732 160.53812 L65.74609 161.82509 L62.42003 162.9512 L58.61882 164.23819 L54.817596 165.52516 L51.016388 166.81215 L47.21518 168.09912 L43.41394 169.38611 L39.612732 170.67311 L35.811523 171.9601 L32.010315 173.24706 L29.635742 174.05205 L30.92273 170.25084 L32.209686 166.44962 L33.496674 162.6484 L34.78366 158.84717 L36.07065 155.04596 L37.357635 151.24475 L38.644592 147.44354 L39.93158 143.64233 L41.218567 139.8411 L42.505554 136.03989 L43.79251 132.23868 L45.0795 128.43747 L46.366486 124.63626 L47.653473 120.83499 L48.94049 117.03378 L50.227448 113.232574 L51.514435 109.431366 L52.801407 105.63016 L54.088394 101.82892 L55.375397 98.02771 L56.662354 94.2265 L57.94934 90.42529 L59.23633 86.624084 L60.748413 84.956604 Z "/>
      </g>
      <g style="fill:#6B85FF;stroke:none;">
        <path d="M89.73981 113.94797 L120.145386 24.145386 L179.54236 83.54236 L89.73981 113.94797 "/>
      </g>
      <g style="fill:#6B85FF;stroke:none;">
        <path d="M120.85248 24.85254 L177.42104 81.42105 L179.0672 83.70325 L175.26599 84.990234 L171.46478 86.27722 L167.66354 87.56421 L163.86234 88.851166 L160.06113 90.13815 L156.2599 91.42514 L152.45868 92.71213 L148.65747 93.999115 L144.85626 95.28607 L141.05504 96.57309 L137.25381 97.86005 L133.4526 99.14703 L129.6514 100.43402 L125.85016 101.72101 L122.52411 102.84711 L118.7229 104.134094 L114.92166 105.42108 L111.12045 106.70807 L107.319244 107.995056 L103.51802 109.28204 L99.7168 110.56903 L95.91559 111.85602 L92.11438 113.142975 L89.73981 113.94797 L91.026794 110.14676 L92.31375 106.34555 L93.60074 102.54434 L94.887726 98.7431 L96.17471 94.941895 L97.4617 91.140686 L98.74866 87.33945 L100.035645 83.53824 L101.32263 79.737 L102.609634 75.93579 L103.89659 72.13458 L105.18358 68.333374 L106.470566 64.532166 L107.75755 60.730927 L109.044556 56.929718 L110.33151 53.12851 L111.6185 49.3273 L112.90549 45.526093 L114.192474 41.724854 L115.47946 37.923645 L116.76642 34.122437 L118.053406 30.321228 L119.34039 26.519989 L120.85248 24.85254 Z "/>
      </g>
      <g style="fill:#6B85FF;stroke:none;">
        <path d="M149.84387 53.843872 L180.24945 -35.95868 L239.64642 23.438293 L149.84387 53.843872 "/>
      </g>
      <g style="fill:#6B85FF;stroke:none;">
        <path d="M180.95654 -35.251556 L237.5251 21.316956 L239.17126 23.599182 L235.37006 24.88617 L231.56885 26.173126 L227.76762 27.460114 L223.96642 28.7471 L220.16519 30.034088 L216.36398 31.321045 L212.56274 32.608032 L208.76154 33.89502 L204.96033 35.182007 L201.1591 36.468994 L197.3579 37.75598 L193.55667 39.04297 L189.75546 40.329956 L185.95422 41.616943 L182.62817 42.743042 L178.82697 44.03003 L175.02573 45.317017 L171.22452 46.604004 L167.42331 47.89096 L163.6221 49.177948 L159.82086 50.464935 L156.01965 51.751923 L152.21844 53.03888 L149.84387 53.843872 L151.13086 50.042664 L152.41782 46.241455 L153.7048 42.440247 L154.99179 38.639008 L156.27878 34.8378 L157.56578 31.03659 L158.85274 27.235382 L160.13972 23.434174 L161.42671 19.632935 L162.7137 15.831726 L164.00066 12.030518 L165.28764 8.229309 L166.57463 4.4281006 L167.86163 0.62683105 L169.14862 -3.1743774 L170.43558 -6.975586 L171.72256 -10.776794 L173.00955 -14.578003 L174.29654 -18.379242 L175.58353 -22.18045 L176.87048 -25.981659 L178.15747 -29.782867 L179.44447 -33.584076 L180.95654 -35.251556 Z "/>
      </g>
      <g style="fill:#6B85FF;stroke:none;">
        <path d="M209.94794 -6.260193 L240.35353 -96.062744 L299.7505 -36.66577 L209.94794 -6.260193 "/>
      </g>
      <g style="fill:#6B85FF;stroke:none;">
        <path d="M241.06062 -95.35565 L297.62918 -38.78711 L299.27533 -36.504913 L295.47412 -35.217926 L291.6729 -33.93097 L287.8717 -32.643982 L284.0705 -31.356995 L280.26926 -30.070007 L276.46805 -28.78302 L272.6668 -27.496033 L268.8656 -26.209045 L265.0644 -24.922058 L261.26318 -23.63507 L257.46198 -22.348114 L253.66074 -21.061096 L249.85953 -19.774109 L246.0583 -18.487152 L242.73224 -17.361023 L238.93103 -16.074036 L235.1298 -14.787079 L231.3286 -13.500092 L227.52739 -12.213135 L223.72617 -10.926147 L219.92494 -9.63913 L216.12373 -8.352142 L212.32251 -7.0651855 L209.94794 -6.260193 L211.23494 -10.061401 L212.5219 -13.86261 L213.80888 -17.663818 L215.09587 -21.465088 L216.38286 -25.266296 L217.66985 -29.067505 L218.9568 -32.868713 L220.24379 -36.66992 L221.53078 -40.47113 L222.81778 -44.27237 L224.10474 -48.073578 L225.39172 -51.874786 L226.67871 -55.675995 L227.9657 -59.477234 L229.25269 -63.278442 L230.53964 -67.07965 L231.82663 -70.88086 L233.11362 -74.68207 L234.4006 -78.48334 L235.6876 -82.284546 L236.97456 -86.085754 L238.26155 -89.88696 L239.54854 -93.68817 L241.06062 -95.35565 Z "/>
      </g>
      <g style="fill:#6B85FF;stroke:none;">
        <path d="M270.052 -66.36426 L300.4576 -156.16681 L359.85458 -96.76984 L270.052 -66.36426 "/>
      </g>
      <g style="fill:#6B85FF;stroke:none;">
        <path d="M301.1647 -155.45972 L357.73328 -98.891174 L359.37946 -96.60901 L355.57837 -95.322205 L351.77734 -94.0354 L347.9763 -92.7486 L344.17526 -91.46179 L340.3742 -90.17496 L336.57318 -88.88818 L332.77213 -87.60132 L328.97107 -86.314514 L325.17004 -85.02774 L321.36902 -83.740906 L317.56796 -82.4541 L313.7669 -81.1673 L309.96588 -79.88049 L306.1648 -78.59369 L302.8389 -77.46771 L299.03787 -76.18091 L295.23682 -74.894104 L291.4358 -73.6073 L287.63474 -72.320496 L283.83368 -71.03366 L280.03265 -69.746826 L276.2316 -68.46002 L272.43054 -67.17322 L270.052 -66.36426 L271.33893 -70.165405 L272.6257 -73.96643 L273.91254 -77.767456 L275.19934 -81.56854 L276.48615 -85.36957 L277.77295 -89.17062 L279.05975 -92.97168 L280.34656 -96.772705 L281.6334 -100.57379 L282.9202 -104.37482 L284.20697 -108.17584 L285.4938 -111.97687 L286.78064 -115.77789 L288.06744 -119.57898 L289.35425 -123.380066 L290.64105 -127.18109 L291.92786 -130.98212 L293.21466 -134.78314 L294.5015 -138.58417 L295.7883 -142.38525 L297.0751 -146.18628 L298.3619 -149.9873 L299.6487 -153.78839 L301.1647 -155.45972 Z "/>
      </g>
      <g style="fill:#6B85FF;stroke:none;">
        <path d="M330.1561 -126.46832 L360.56168 -216.27094 L419.95865 -156.87396 L330.1561 -126.46832 "/>
      </g>
      <g style="fill:#6B85FF;stroke:none;">
        <path d="M361.26877 -215.56378 L417.83734 -158.9953 L419.48352 -156.71307 L415.68243 -155.42627 L411.8814 -154.13947 L408.08038 -152.85266 L404.27933 -151.56586 L400.47827 -150.27905 L396.67725 -148.99225 L392.8762 -147.70544 L389.07516 -146.41858 L385.2741 -145.13177 L381.47308 -143.84503 L377.672 -142.55817 L373.87097 -141.27136 L370.06995 -139.98456 L366.26886 -138.69775 L362.943 -137.57184 L359.1419 -136.28497 L355.34088 -134.99817 L351.53986 -133.71136 L347.7388 -132.42456 L343.93774 -131.13776 L340.1367 -129.85089 L336.33566 -128.56415 L332.53464 -127.27728 L330.1561 -126.46832 L331.4429 -130.26941 L332.72968 -134.07043 L334.0165 -137.87146 L335.3033 -141.67255 L336.59015 -145.47357 L337.87695 -149.2746 L339.16373 -153.07562 L340.45056 -156.87665 L341.73737 -160.6778 L343.0242 -164.47882 L344.31097 -168.27985 L345.59778 -172.08087 L346.8846 -175.8819 L348.17142 -179.68298 L349.45825 -183.48401 L350.74503 -187.2851 L352.03183 -191.08612 L353.31866 -194.88715 L354.60547 -198.68817 L355.8923 -202.4892 L357.17908 -206.29028 L358.46588 -210.09131 L359.75272 -213.8924 L361.26877 -215.56378 Z "/>
      </g>
      <g style="fill:#6B85FF;stroke:none;">
        <path d="M-150.67651 234.15614 L-120.270935 144.35358 L-60.873962 203.75055 L-150.67651 234.15614 "/>
      </g>
      <g style="fill:#6B85FF;stroke:none;">
        <path d="M-119.56378 145.0607 L-62.99524 201.62924 L-61.34909 203.91142 L-65.1503 205.19841 L-68.95151 206.48538 L-72.752716 207.77237 L-76.553955 209.05936 L-80.35516 210.34634 L-84.15637 211.63332 L-87.95758 212.92026 L-91.75879 214.20721 L-95.55997 215.4942 L-99.361145 216.78116 L-103.16235 218.06813 L-106.96353 219.35507 L-110.76477 220.64203 L-114.56595 221.929 L-117.892 223.0551 L-121.69318 224.34207 L-125.494385 225.62903 L-129.29562 226.91602 L-133.09683 228.20299 L-136.89801 229.48996 L-140.69922 230.77695 L-144.50043 232.06389 L-148.30164 233.35086 L-150.67651 234.15614 L-149.38953 230.35493 L-148.10254 226.55374 L-146.81555 222.75252 L-145.52863 218.95131 L-144.24164 215.15012 L-142.95465 211.3489 L-141.6677 207.54771 L-140.3807 203.74649 L-139.09375 199.94528 L-137.8068 196.1441 L-136.51984 192.3429 L-135.23285 188.54172 L-133.94589 184.7405 L-132.65894 180.9393 L-131.37198 177.13812 L-130.08502 173.33693 L-128.79803 169.53574 L-127.51111 165.73453 L-126.22412 161.93332 L-124.93713 158.13208 L-123.65015 154.33087 L-122.36316 150.52966 L-121.0762 146.72845 L-119.56378 145.0607 Z "/>
      </g>
      <g style="fill:#6B85FF;stroke:none;">
        <path d="M-90.57245 174.05206 L-60.16684 84.24948 L-0.76986694 143.64645 L-90.57245 174.05206 "/>
      </g>
      <g style="fill:#6B85FF;stroke:none;">
        <path d="M-59.459717 84.956604 L-2.8911743 141.52515 L-1.2450256 143.80734 L-5.046234 145.09433 L-8.847443 146.38129 L-12.648651 147.66827 L-16.44989 148.95526 L-20.251099 150.24225 L-24.052307 151.52924 L-27.853516 152.81622 L-31.654755 154.10321 L-35.455963 155.3902 L-39.257202 156.67719 L-43.05841 157.96417 L-46.85962 159.25113 L-50.66086 160.53812 L-54.462067 161.8251 L-57.788116 162.95122 L-61.589325 164.2382 L-65.39053 165.52516 L-69.19177 166.81215 L-72.99298 168.09915 L-76.79419 169.38614 L-80.5954 170.67313 L-84.39661 171.96008 L-88.197876 173.24707 L-90.57245 174.05206 L-89.28546 170.25085 L-87.99844 166.44965 L-86.71146 162.6484 L-85.4245 158.8472 L-84.13751 155.04596 L-82.850525 151.24475 L-81.56354 147.44354 L-80.27655 143.6423 L-78.98959 139.8411 L-77.70261 136.03989 L-76.41562 132.23868 L-75.12863 128.43747 L-73.841644 124.63623 L-72.55469 120.83502 L-71.2677 117.03381 L-69.98071 113.232605 L-68.693726 109.4314 L-67.40674 105.63016 L-66.11975 101.82895 L-64.83276 98.02774 L-63.545776 94.2265 L-62.25879 90.42529 L-60.971832 86.624054 L-59.459717 84.956604 Z "/>
      </g>
      <g style="fill:#6B85FF;stroke:none;">
        <path d="M-30.468353 113.94797 L-0.06277466 24.145416 L59.334198 83.54239 L-30.468353 113.94797 "/>
      </g>
      <g style="fill:#6B85FF;stroke:none;">
        <path d="M0.64434814 24.85254 L57.21289 81.42108 L58.85904 83.70325 L55.05783 84.990265 L51.256622 86.27722 L47.455414 87.56421 L43.654175 88.8512 L39.852966 90.13818 L36.051758 91.42517 L32.25055 92.71213 L28.44931 93.999115 L24.648102 95.2861 L20.846893 96.57309 L17.045685 97.86008 L13.244476 99.14703 L9.443237 100.43402 L5.642029 101.72101 L2.3159485 102.84714 L-1.48526 104.134125 L-5.2864685 105.42108 L-9.0877075 106.70807 L-12.888916 107.995056 L-16.690125 109.28204 L-20.491333 110.56903 L-24.292542 111.85599 L-28.09378 113.142975 L-30.468353 113.94797 L-29.181366 110.14676 L-27.894379 106.34555 L-26.607391 102.54431 L-25.320435 98.7431 L-24.033447 94.941895 L-22.74646 91.140686 L-21.459473 87.33948 L-20.172485 83.53824 L-18.885529 79.73703 L-17.598541 75.93582 L-16.311554 72.13461 L-15.024567 68.333405 L-13.737579 64.532166 L-12.450623 60.730927 L-11.163635 56.929718 L-9.876617 53.12851 L-8.58963 49.3273 L-7.3026733 45.526062 L-6.015686 41.724854 L-4.7286987 37.923645 L-3.4417114 34.122437 L-2.1547241 30.321228 L-0.86776733 26.519989 L0.64434814 24.85254 Z "/>
      </g>
      <g style="fill:#6B85FF;stroke:none;">
        <path d="M29.635712 53.843903 L60.04129 -35.95868 L119.43826 23.438293 L29.635712 53.843903 "/>
      </g>
      <g style="fill:#6B85FF;stroke:none;">
        <path d="M60.748413 -35.251526 L117.316956 21.317017 L118.96312 23.599182 L115.16191 24.88617 L111.36069 26.173126 L107.55948 27.460114 L103.75824 28.7471 L99.95703 30.034088 L96.15582 31.321106 L92.354614 32.608032 L88.553375 33.89502 L84.75217 35.182007 L80.95096 36.469025 L77.14975 37.756012 L73.34854 39.04297 L69.5473 40.329956 L65.74609 41.616943 L62.420013 42.743042 L58.618805 44.03003 L54.817596 45.317017 L51.016357 46.604004 L47.21515 47.89099 L43.41394 49.17798 L39.612732 50.464966 L35.811523 51.751923 L32.010284 53.03891 L29.635712 53.843903 L30.922699 50.042694 L32.209686 46.241486 L33.496674 42.440247 L34.78363 38.639038 L36.070618 34.83783 L37.357605 31.036621 L38.644592 27.235382 L39.93158 23.434143 L41.218536 19.632935 L42.505554 15.831726 L43.79254 12.030518 L45.07953 8.229309 L46.366516 4.42807 L47.653442 0.6268616 L48.94046 -3.174347 L50.227448 -6.9755554 L51.514435 -10.776764 L52.80139 -14.578003 L54.08838 -18.379211 L55.375366 -22.18042 L56.662354 -25.981628 L57.94934 -29.782837 L59.236298 -33.584106 L60.748413 -35.251526 Z "/>
      </g>
      <g style="fill:#6B85FF;stroke:none;">
        <path d="M89.73978 -6.260193 L120.145355 -96.062744 L179.54233 -36.66577 L89.73978 -6.260193 "/>
      </g>
      <g style="fill:#6B85FF;stroke:none;">
        <path d="M120.85248 -95.35562 L177.42102 -38.78708 L179.06718 -36.504883 L175.26598 -35.217896 L171.46477 -33.93097 L167.66356 -32.643982 L163.86232 -31.356964 L160.06111 -30.069977 L156.2599 -28.78299 L152.45868 -27.496033 L148.65744 -26.209045 L144.85623 -24.922058 L141.05502 -23.63507 L137.25381 -22.348083 L133.4526 -21.061096 L129.65137 -19.774109 L125.85016 -18.487122 L122.52409 -17.361023 L118.722885 -16.074036 L114.92166 -14.787079 L111.12042 -13.500092 L107.319214 -12.213104 L103.518005 -10.926117 L99.7168 -9.63913 L95.91559 -8.352173 L92.11435 -7.0651855 L89.73978 -6.260193 L91.026764 -10.061401 L92.31375 -13.86261 L93.60074 -17.663849 L94.887695 -21.465057 L96.17468 -25.266266 L97.461685 -29.067474 L98.74867 -32.868683 L100.03566 -36.66992 L101.32262 -40.47113 L102.609604 -44.27234 L103.89659 -48.073547 L105.18358 -51.874756 L106.470566 -55.676025 L107.75754 -59.477234 L109.044525 -63.278442 L110.33151 -67.07965 L111.6185 -70.88086 L112.90546 -74.6821 L114.192444 -78.48331 L115.47943 -82.284515 L116.76642 -86.085724 L118.053406 -89.88693 L119.34038 -93.68817 L120.85248 -95.35562 Z "/>
      </g>
      <g style="fill:#6B85FF;stroke:none;">
        <path d="M149.84384 -66.36426 L180.24944 -156.16681 L239.64641 -96.76984 L149.84384 -66.36426 "/>
      </g>
      <g style="fill:#6B85FF;stroke:none;">
        <path d="M180.95656 -155.45972 L237.5251 -98.891174 L239.17126 -96.60895 L235.37004 -95.32199 L231.56883 -94.035034 L227.76762 -92.74805 L223.96638 -91.46106 L220.16518 -90.17407 L216.36397 -88.887085 L212.56276 -87.6001 L208.76152 -86.31311 L204.96031 -85.02612 L201.1591 -83.739136 L197.35788 -82.45215 L193.55667 -81.16519 L189.75543 -79.878204 L185.95422 -78.59122 L182.62816 -77.46509 L178.82695 -76.1781 L175.02574 -74.891174 L171.2245 -73.60419 L167.4233 -72.3172 L163.62209 -71.03021 L159.82088 -69.743195 L156.01967 -68.45624 L152.21841 -67.16925 L149.84384 -66.36426 L151.13084 -70.16547 L152.41783 -73.966675 L153.70482 -77.767944 L154.99178 -81.56915 L156.27876 -85.37036 L157.56575 -89.17157 L158.85274 -92.97278 L160.13972 -96.77399 L161.42668 -100.575195 L162.71368 -104.3764 L164.00067 -108.17767 L165.28766 -111.97882 L166.57465 -115.78009 L167.8616 -119.5813 L169.14859 -123.38251 L170.43558 -127.183716 L171.72256 -130.98492 L173.00952 -134.7862 L174.29651 -138.5874 L175.58351 -142.38861 L176.8705 -146.18982 L178.15749 -149.99103 L179.44444 -153.79224 L180.95656 -155.45972 Z "/>
      </g>
      <g style="fill:#6B85FF;stroke:none;">
        <path d="M209.94792 -126.46832 L240.35352 -216.27094 L299.7505 -156.87396 L209.94792 -126.46832 "/>
      </g>
      <g style="fill:#6B85FF;stroke:none;">
        <path d="M241.06064 -215.56378 L297.62918 -158.99524 L299.27536 -156.71307 L295.4743 -155.42627 L291.67328 -154.13947 L287.87222 -152.85266 L284.07117 -151.56586 L280.27014 -150.27899 L276.4691 -148.99225 L272.66806 -147.70538 L268.86697 -146.41864 L265.06595 -145.13177 L261.26492 -143.84497 L257.46387 -142.55817 L253.66284 -141.27136 L249.86177 -139.98456 L246.06073 -138.69775 L242.73482 -137.57178 L238.93379 -136.28497 L235.13275 -134.99817 L231.33168 -133.71136 L227.53064 -132.42456 L223.7296 -131.13776 L219.92857 -129.85089 L216.12753 -128.56415 L212.32646 -127.27728 L209.94792 -126.46832 L211.23482 -130.26947 L212.52164 -134.0705 L213.80846 -137.87158 L215.09525 -141.6726 L216.38205 -145.47363 L217.66887 -149.27472 L218.95569 -153.07574 L220.24251 -156.87677 L221.5293 -160.6778 L222.8161 -164.47888 L224.10292 -168.2799 L225.38974 -172.08093 L226.67656 -175.88202 L227.96335 -179.68304 L229.25015 -183.48407 L230.53699 -187.2851 L231.82379 -191.08612 L233.11057 -194.88727 L234.3974 -198.6883 L235.6842 -202.48932 L236.97104 -206.29034 L238.25784 -210.09137 L239.54462 -213.89246 L241.06064 -215.56378 Z "/>
      </g>
      <g style="fill:#6B85FF;stroke:none;">
        <path d="M270.052 -186.57245 L300.45758 -276.375 L359.85455 -216.97803 L270.052 -186.57245 "/>
      </g>
      <g style="fill:#6B85FF;stroke:none;">
        <path d="M301.1647 -275.6679 L357.73325 -219.0993 L359.37943 -216.8172 L355.57837 -215.53033 L351.77734 -214.24359 L347.97632 -212.95673 L344.17523 -211.66992 L340.3742 -210.38312 L336.57315 -209.09625 L332.77213 -207.80951 L328.97107 -206.52264 L325.17 -205.2359 L321.369 -203.94904 L317.56793 -202.66223 L313.7669 -201.37543 L309.96585 -200.08862 L306.1648 -198.80182 L302.8389 -197.67584 L299.03784 -196.38904 L295.23682 -195.10223 L291.43576 -193.81543 L287.6347 -192.52863 L283.83368 -191.24176 L280.03262 -189.95502 L276.2316 -188.66821 L272.43054 -187.38141 L270.052 -186.57245 L271.3388 -190.37347 L272.6256 -194.1745 L273.91245 -197.97552 L275.19922 -201.77661 L276.48605 -205.57764 L277.77286 -209.37872 L279.05966 -213.17975 L280.3465 -216.98077 L281.63327 -220.7818 L282.9201 -224.58282 L284.2069 -228.38391 L285.4937 -232.18494 L286.78055 -235.98602 L288.06732 -239.78705 L289.35416 -243.58807 L290.64096 -247.3891 L291.92776 -251.19012 L293.21457 -254.99127 L294.50137 -258.7923 L295.7882 -262.59332 L297.075 -266.39435 L298.36182 -270.19537 L299.64862 -273.99646 L301.1647 -275.6679 Z "/>
      </g>
      <g style="fill:#6B85FF;stroke:none;">
        <path d="M-210.78058 174.05208 L-180.375 84.24951 L-120.97803 143.64648 L-210.78058 174.05208 "/>
      </g>
      <g style="fill:#6B85FF;stroke:none;">
        <path d="M-179.66791 84.956635 L-123.099365 141.52515 L-121.453156 143.80737 L-125.254395 145.0943 L-129.0556 146.38132 L-132.85681 147.6683 L-136.65802 148.95529 L-140.45923 150.24228 L-144.26047 151.52924 L-148.06165 152.8162 L-151.86285 154.10315 L-155.66403 155.39014 L-159.46521 156.6771 L-163.26645 157.96405 L-167.06763 159.251 L-170.86884 160.53796 L-174.67001 161.82494 L-177.99606 162.95103 L-181.7973 164.23798 L-185.59848 165.52496 L-189.39969 166.81195 L-193.2009 168.09892 L-197.00208 169.3859 L-200.80331 170.67285 L-204.60455 171.95982 L-208.4057 173.2468 L-210.78058 174.05208 L-209.49359 170.25087 L-208.2066 166.44968 L-206.91968 162.64845 L-205.63269 158.84723 L-204.3457 155.04605 L-203.05872 151.24484 L-201.77179 147.4436 L-200.4848 143.64243 L-199.19781 139.84122 L-197.91086 136.04004 L-196.62393 132.23883 L-195.33694 128.43762 L-194.04999 124.63641 L-192.763 120.835236 L-191.47604 117.03406 L-190.18912 113.23285 L-188.90216 109.43164 L-187.61517 105.63046 L-186.32819 101.829254 L-185.0412 98.028015 L-183.75424 94.22681 L-182.46725 90.4256 L-181.18027 86.62439 L-179.66791 84.956635 Z "/>
      </g>
      <g style="fill:#6B85FF;stroke:none;">
        <path d="M-150.67651 113.948 L-120.270905 24.145416 L-60.87393 83.54239 L-150.67651 113.948 "/>
      </g>
      <g style="fill:#6B85FF;stroke:none;">
        <path d="M-119.56381 24.85254 L-62.99527 81.42105 L-61.34909 83.70328 L-65.15033 84.990234 L-68.95154 86.27722 L-72.75275 87.56421 L-76.553955 88.8512 L-80.35516 90.13818 L-84.1564 91.42514 L-87.95761 92.71216 L-91.75882 93.999146 L-95.56003 95.28613 L-99.36127 96.57312 L-103.162476 97.86008 L-106.963684 99.147064 L-110.76492 100.43405 L-114.56613 101.72104 L-117.89218 102.84714 L-121.69342 104.134094 L-125.49463 105.42108 L-129.29584 106.70807 L-133.09705 107.99509 L-136.89825 109.282074 L-140.69952 110.56903 L-144.50073 111.85602 L-148.30194 113.143005 L-150.67651 113.948 L-149.38953 110.14679 L-148.10254 106.34558 L-146.81555 102.54434 L-145.52856 98.74313 L-144.24158 94.941895 L-142.95459 91.140686 L-141.66763 87.33945 L-140.38065 83.53824 L-139.09366 79.73703 L-137.80667 75.93582 L-136.51971 72.13461 L-135.23273 68.333374 L-133.94574 64.532166 L-132.65875 60.730957 L-131.37177 56.92975 L-130.08481 53.12854 L-128.79782 49.3273 L-127.5108 45.526093 L-126.223816 41.724884 L-124.93683 37.923676 L-123.64987 34.122437 L-122.362885 30.321198 L-121.0759 26.519989 L-119.56381 24.85254 Z "/>
      </g>
      <g style="fill:#6B85FF;stroke:none;">
        <path d="M-90.57242 53.843903 L-60.16684 -35.95865 L-0.76986694 23.438324 L-90.57242 53.843903 "/>
      </g>
      <g style="fill:#6B85FF;stroke:none;">
        <path d="M-59.459747 -35.251526 L-2.8912048 21.316986 L-1.2450256 23.599182 L-5.0462646 24.88617 L-8.847473 26.173157 L-12.648682 27.460144 L-16.44989 28.747131 L-20.251099 30.034119 L-24.052338 31.321075 L-27.853546 32.608063 L-31.654755 33.89505 L-35.455963 35.182037 L-39.25717 36.469025 L-43.05841 37.75598 L-46.85962 39.04297 L-50.660828 40.329956 L-54.462036 41.616943 L-57.788116 42.743073 L-61.589355 44.03003 L-65.390564 45.317017 L-69.19177 46.604004 L-72.99298 47.89099 L-76.79419 49.17798 L-80.59543 50.464935 L-84.39664 51.751923 L-88.197845 53.03891 L-90.57242 53.843903 L-89.28543 50.042694 L-87.998474 46.241486 L-86.71149 42.440247 L-85.4245 38.639038 L-84.13751 34.83783 L-82.850525 31.036621 L-81.56357 27.235382 L-80.27658 23.434174 L-78.98959 19.632965 L-77.70261 15.831757 L-76.41565 12.030548 L-75.12866 8.229309 L-73.841675 4.4281006 L-72.55469 0.6268616 L-71.2677 -3.174347 L-69.98071 -6.9755554 L-68.693726 -10.776794 L-67.40674 -14.578003 L-66.11975 -18.379211 L-64.83276 -22.18042 L-63.545807 -25.981628 L-62.25882 -29.782867 L-60.971832 -33.584076 L-59.459747 -35.251526 Z "/>
      </g>
      <g style="fill:#6B85FF;stroke:none;">
        <path d="M-30.468353 -6.2601624 L-0.06277466 -96.062744 L59.334198 -36.66577 L-30.468353 -6.2601624 "/>
      </g>
      <g style="fill:#6B85FF;stroke:none;">
        <path d="M0.6443176 -95.35559 L57.21286 -38.78711 L58.859055 -36.504883 L55.057816 -35.217926 L51.25659 -33.93094 L47.455383 -32.64395 L43.654175 -31.356964 L39.852966 -30.069977 L36.051727 -28.78302 L32.25052 -27.496033 L28.44931 -26.209045 L24.648102 -24.922058 L20.846893 -23.63504 L17.045654 -22.348083 L13.244446 -21.061096 L9.443237 -19.774109 L5.642029 -18.487122 L2.3159485 -17.361023 L-1.4852905 -16.074036 L-5.286499 -14.787048 L-9.0877075 -13.500061 L-12.888916 -12.213074 L-16.690125 -10.926086 L-20.491364 -9.63913 L-24.292572 -8.352142 L-28.09378 -7.065155 L-30.468353 -6.2601624 L-29.181366 -10.061371 L-27.89441 -13.862579 L-26.607422 -17.663818 L-25.320435 -21.465027 L-24.033447 -25.266235 L-22.74646 -29.067444 L-21.459503 -32.868713 L-20.172516 -36.66992 L-18.885529 -40.47113 L-17.59851 -44.27234 L-16.311584 -48.073547 L-15.024597 -51.874786 L-13.73761 -55.675995 L-12.450623 -59.477203 L-11.163605 -63.27841 L-9.876648 -67.07962 L-8.589661 -70.88086 L-7.3026733 -74.68207 L-6.015686 -78.48328 L-4.7286987 -82.284485 L-3.441742 -86.08569 L-2.1547546 -89.88696 L-0.86776733 -93.68817 L0.6443176 -95.35559 Z "/>
      </g>
      <g style="fill:#6B85FF;stroke:none;">
        <path d="M29.635712 -66.36426 L60.04129 -156.16681 L119.43826 -96.76984 L29.635712 -66.36426 "/>
      </g>
      <g style="fill:#6B85FF;stroke:none;">
        <path d="M60.748383 -155.45966 L117.316925 -98.891174 L118.96312 -96.60895 L115.16188 -95.32202 L111.36067 -94.035034 L107.55946 -92.74805 L103.758255 -91.46103 L99.95705 -90.17404 L96.15581 -88.887085 L92.35458 -87.6001 L88.553375 -86.31311 L84.75217 -85.02612 L80.95096 -83.739136 L77.14972 -82.45218 L73.34851 -81.16516 L69.5473 -79.878174 L65.74609 -78.59119 L62.42003 -77.46509 L58.61879 -76.17813 L54.817566 -74.89114 L51.016357 -73.60416 L47.21515 -72.31717 L43.41394 -71.03018 L39.6127 -69.743225 L35.811493 -68.45624 L32.010284 -67.16925 L29.635712 -66.36426 L30.922699 -70.16547 L32.209656 -73.966675 L33.496643 -77.767914 L34.78363 -81.56912 L36.070618 -85.37033 L37.357605 -89.17154 L38.644592 -92.97278 L39.93158 -96.77399 L41.218567 -100.575195 L42.505554 -104.3764 L43.79248 -108.17761 L45.079468 -111.97888 L46.366455 -115.78009 L47.653473 -119.5813 L48.94046 -123.38251 L50.227417 -127.183716 L51.514404 -130.98492 L52.80139 -134.7862 L54.08838 -138.58734 L55.375366 -142.38861 L56.662323 -146.18976 L57.94931 -149.99103 L59.236313 -153.79224 L60.748383 -155.45966 Z "/>
      </g>
      <g style="fill:#6B85FF;stroke:none;">
        <path d="M89.73978 -126.46832 L120.14537 -216.27087 L179.54234 -156.8739 L89.73978 -126.46832 "/>
      </g>
      <g style="fill:#6B85FF;stroke:none;">
        <path d="M120.85246 -215.56378 L177.421 -158.99524 L179.0672 -156.71307 L175.26595 -155.42609 L171.46474 -154.1391 L167.66353 -152.85211 L163.86232 -151.56512 L160.06111 -150.27814 L156.25987 -148.99115 L152.45866 -147.70416 L148.65746 -146.41718 L144.85625 -145.13019 L141.05504 -143.8432 L137.25378 -142.55627 L133.45258 -141.26923 L129.65137 -139.98224 L125.85016 -138.69525 L122.52409 -137.56915 L118.722855 -136.28223 L114.921646 -134.99524 L111.12044 -133.70825 L107.31923 -132.42126 L103.51802 -131.13428 L99.71678 -129.84729 L95.91557 -128.5603 L92.11435 -127.273315 L89.73978 -126.46832 L91.02678 -130.26953 L92.313736 -134.07074 L93.60072 -137.87201 L94.88771 -141.67322 L96.1747 -145.47443 L97.461685 -149.27563 L98.74864 -153.07684 L100.03563 -156.87805 L101.32262 -160.67926 L102.60962 -164.48053 L103.896576 -168.28168 L105.18356 -172.08295 L106.47055 -175.88416 L107.75754 -179.68536 L109.044525 -183.48657 L110.33148 -187.28778 L111.61847 -191.08905 L112.90546 -194.89026 L114.192444 -198.69147 L115.47945 -202.49268 L116.7664 -206.29388 L118.05339 -210.0951 L119.34038 -213.8963 L120.85246 -215.56378 Z "/>
      </g>
      <g style="fill:#6B85FF;stroke:none;">
        <path d="M149.84386 -186.57239 L180.24945 -276.37494 L239.64642 -216.97797 L149.84386 -186.57239 "/>
      </g>
      <g style="fill:#6B85FF;stroke:none;">
        <path d="M180.95654 -275.66785 L237.52509 -219.0993 L239.1713 -216.81714 L235.37021 -215.53033 L231.56918 -214.24353 L227.76813 -212.95673 L223.9671 -211.66992 L220.16608 -210.38312 L216.36499 -209.09631 L212.56396 -207.80951 L208.76291 -206.52264 L204.96188 -205.2359 L201.16086 -203.94904 L197.35979 -202.66223 L193.55875 -201.37543 L189.7577 -200.08862 L185.95667 -198.80182 L182.63075 -197.67584 L178.8297 -196.38904 L175.02866 -195.10223 L171.22762 -193.81543 L167.42657 -192.52863 L163.62553 -191.24176 L159.82448 -189.95502 L156.02344 -188.66815 L152.2224 -187.38135 L149.84386 -186.57239 L151.13075 -190.37354 L152.41754 -194.17456 L153.70436 -197.97565 L154.99118 -201.77667 L156.27798 -205.5777 L157.5648 -209.37872 L158.8516 -213.17981 L160.13841 -216.98083 L161.42523 -220.78192 L162.71204 -224.58295 L163.99883 -228.38397 L165.28564 -232.18506 L166.57246 -235.98608 L167.85928 -239.78711 L169.14609 -243.5882 L170.43289 -247.38922 L171.7197 -251.19025 L173.0065 -254.99127 L174.29333 -258.7923 L175.58014 -262.59338 L176.86694 -266.3944 L178.15375 -270.1955 L179.44055 -273.99652 L180.95654 -275.66785 Z "/>
      </g>
      <g style="fill:#6B85FF;stroke:none;">
        <path d="M209.94794 -246.67645 L240.35352 -336.47906 L299.7505 -277.0821 L209.94794 -246.67645 "/>
      </g>
      <g style="fill:#6B85FF;stroke:none;">
        <path d="M241.06061 -335.7719 L297.62915 -279.20343 L299.27536 -276.9212 L295.47427 -275.63446 L291.67325 -274.3476 L287.87222 -273.06085 L284.07117 -271.774 L280.27014 -270.48718 L276.46906 -269.20038 L272.66803 -267.91357 L268.867 -266.62677 L265.06595 -265.3399 L261.26492 -264.05316 L257.46384 -262.7663 L253.66281 -261.47955 L249.86179 -260.1927 L246.06073 -258.90588 L242.73483 -257.77997 L238.93375 -256.4931 L235.13272 -255.20636 L231.3317 -253.9195 L227.53064 -252.63269 L223.72961 -251.34589 L219.92853 -250.05908 L216.1275 -248.77228 L212.32648 -247.48541 L209.94794 -246.67645 L211.23474 -250.47754 L212.52151 -254.27856 L213.80835 -258.07965 L215.09515 -261.88068 L216.38199 -265.6817 L217.6688 -269.48273 L218.95557 -273.2838 L220.2424 -277.08484 L221.5292 -280.88593 L222.81604 -284.68695 L224.10281 -288.48798 L225.38962 -292.289 L226.67645 -296.09003 L227.96326 -299.8911 L229.25009 -303.69214 L230.53687 -307.49323 L231.82367 -311.29425 L233.1105 -315.09528 L234.39731 -318.8963 L235.68414 -322.69733 L236.97092 -326.4984 L238.25772 -330.2995 L239.54456 -334.10052 L241.06061 -335.7719 Z "/>
      </g>
    </g>
  </g>
</svg>
