<?xml version="1.0" encoding="UTF-8"?>
<svg xmlns="http://www.w3.org/2000/svg" height="288px" version="1.1" width="480px">
  <g style="fill:#C360FF;stroke:none;">
    <path d="M0.0 0.0 L480.0 0.0 L480.0 288.0 L0.0 288.0 L0.0 0.0 "/>
    <g style="">
      <g style="fill:#EDCEFF;stroke:none;">
        <path d="M-1320.0261 -1489.5244 L-1112.0261 -1489.5244 L-1112.0261 -1281.5244 L-1320.0261 -1281.5244 L-1320.0261 -1489.5244 "/>
      </g>
      <g style="fill:#EDCEFF;stroke:none;">
        <path d="M-1320.0261 -1052.5244 L-1112.0261 -1052.5244 L-1112.0261 -844.5244 L-1320.0261 -844.5244 L-1320.0261 -1052.5244 "/>
      </g>
      <g style="fill:#EDCEFF;stroke:none;">
        <path d="M-1320.0261 -615.5244 L-1112.0261 -615.5244 L-1112.0261 -407.5244 L-1320.0261 -407.5244 L-1320.0261 -615.5244 "/>
      </g>
      <g style="fill:#EDCEFF;stroke:none;">
        <path d="M-1320.0261 -178.52441 L-1112.0261 -178.52441 L-1112.0261 29.475586 L-1320.0261 29.475586 L-1320.0261 -178.52441 "/>
      </g>
      <g style="fill:#E2B3FF;stroke:none;">
        <path d="M-1320.0261 258.4756 L-1112.0261 258.4756 L-1112.0261 466.4756 L-1320.0261 466.4756 L-1320.0261 258.4756 "/>
      </g>
      <g style="fill:#E2B3FF;stroke:none;">
        <path d="M-1320.0261 695.4756 L-1112.0261 695.4756 L-1112.0261 903.4756 L-1320.0261 903.4756 L-1320.0261 695.4756 "/>
      </g>
      <g style="fill:#E2B3FF;stroke:none;">
        <path d="M-1320.0261 1132.4756 L-1112.0261 1132.4756 L-1112.0261 1340.4756 L-1320.0261 1340.4756 L-1320.0261 1132.4756 "/>
      </g>
      <g style="fill:#E2B3FF;stroke:none;">
        <path d="M-1320.0261 1569.4756 L-1112.0261 1569.4756 L-1112.0261 1777.4756 L-1320.0261 1777.4756 L-1320.0261 1569.4756 "/>
      </g>
      <g style="fill:#D897FF;stroke:none;">
        <path d="M-696.0237 -1281.5339 L-904.0237 -1281.5339 L-904.0237 -1489.5339 L-696.0237 -1489.5339 L-696.0237 -1281.5339 "/>
      </g>
      <g style="fill:#D897FF;stroke:none;">
        <path d="M-696.0222 -844.5354 L-904.02216 -844.53546 L-904.02216 -1052.5354 L-696.02216 -1052.5354 L-696.0222 -844.5354 "/>
      </g>
      <g style="fill:#D897FF;stroke:none;">
        <path d="M-696.0238 -407.5337 L-904.02386 -407.5337 L-904.0238 -615.5337 L-696.0238 -615.5337 L-696.0238 -407.5337 "/>
      </g>
      <g style="fill:#D897FF;stroke:none;">
        <path d="M-696.0244 29.46582 L-904.0244 29.46582 L-904.0244 -178.53418 L-696.0244 -178.53418 L-696.0244 29.46582 "/>
      </g>
      <g style="fill:#CE7BFF;stroke:none;">
        <path d="M-696.0238 466.4558 L-904.02374 466.4558 L-904.02374 258.4558 L-696.02374 258.4558 L-696.0238 466.4558 "/>
      </g>
      <g style="fill:#CE7BFF;stroke:none;">
        <path d="M-696.0225 903.4907 L-904.0225 903.4907 L-904.0225 695.4907 L-696.02246 695.4907 L-696.0225 903.4907 "/>
      </g>
      <g style="fill:#CE7BFF;stroke:none;">
        <path d="M-696.0249 1340.4424 L-904.0249 1340.4424 L-904.0249 1132.4424 L-696.0249 1132.4424 L-696.0249 1340.4424 "/>
      </g>
      <g style="fill:#CE7BFF;stroke:none;">
        <path d="M-696.0254 1777.4971 L-904.0254 1777.4971 L-904.0253 1569.4971 L-696.0254 1569.4971 L-696.0254 1777.4971 "/>
      </g>
      <g style="fill:#B944FF;stroke:none;">
        <path d="M-488.02612 -1489.5244 L-280.02612 -1489.5244 L-280.02612 -1281.5244 L-488.02618 -1281.5244 L-488.02612 -1489.5244 "/>
      </g>
      <g style="fill:#B944FF;stroke:none;">
        <path d="M-488.02606 -1052.5244 L-280.02612 -1052.5244 L-280.02612 -844.5244 L-488.02612 -844.5245 L-488.02606 -1052.5244 "/>
      </g>
      <g style="fill:#B944FF;stroke:none;">
        <path d="M-488.02612 -615.5245 L-280.02612 -615.5244 L-280.02612 -407.5244 L-488.02612 -407.5244 L-488.02612 -615.5245 "/>
      </g>
      <g style="fill:#B944FF;stroke:none;">
        <path d="M-488.02612 -178.52441 L-280.02612 -178.52441 L-280.02612 29.475586 L-488.02612 29.475586 L-488.02612 -178.52441 "/>
      </g>
      <g style="fill:#AF29FF;stroke:none;">
        <path d="M-488.02612 258.4756 L-280.02612 258.4756 L-280.02612 466.4756 L-488.02618 466.4756 L-488.02612 258.4756 "/>
      </g>
      <g style="fill:#AF29FF;stroke:none;">
        <path d="M-488.02606 695.4756 L-280.02612 695.4756 L-280.02612 903.4756 L-488.02612 903.4756 L-488.02606 695.4756 "/>
      </g>
      <g style="fill:#AF29FF;stroke:none;">
        <path d="M-488.02612 1132.4756 L-280.02612 1132.4756 L-280.02612 1340.4756 L-488.02612 1340.4756 L-488.02612 1132.4756 "/>
      </g>
      <g style="fill:#AF29FF;stroke:none;">
        <path d="M-488.02612 1569.4756 L-280.02612 1569.4756 L-280.02612 1777.4756 L-488.02612 1777.4756 L-488.02612 1569.4756 "/>
      </g>
      <g style="fill:#A50DFF;stroke:none;">
        <path d="M135.97607 -1281.5339 L-72.023926 -1281.5339 L-72.023926 -1489.5339 L135.97607 -1489.5339 L135.97607 -1281.5339 "/>
      </g>
      <g style="fill:#FFBA0D;stroke:none;">
        <path d="M135.97314 -844.5371 L-72.026855 -844.5371 L-72.026855 -1052.5371 L135.97314 -1052.5371 L135.97314 -844.5371 "/>
      </g>
      <g style="fill:#0DFFCF;stroke:none;">
        <path d="M135.98242 -407.53955 L-72.01758 -407.53955 L-72.01758 -615.53955 L135.98242 -615.53955 L135.98242 -407.53955 "/>
      </g>
      <g style="fill:#E40DFF;stroke:none;">
        <path d="M135.97656 29.4646 L-72.02344 29.4646 L-72.02344 -178.5354 L135.97656 -178.5354 L135.97656 29.4646 "/>
      </g>
      <g style="fill:#EDCEFF;stroke:none;">
        <path d="M135.98145 466.4624 L-72.018555 466.4624 L-72.018555 258.4624 L135.98145 258.4624 L135.98145 466.4624 "/>
      </g>
      <g style="fill:#EDCEFF;stroke:none;">
        <path d="M135.97607 903.48096 L-72.023926 903.48096 L-72.023926 695.48096 L135.97607 695.48096 L135.97607 903.48096 "/>
      </g>
      <g style="fill:#EDCEFF;stroke:none;">
        <path d="M135.97253 1340.4419 L-72.027466 1340.4419 L-72.027466 1132.4419 L135.97253 1132.4419 L135.97253 1340.4419 "/>
      </g>
      <g style="fill:#EDCEFF;stroke:none;">
        <path d="M135.97498 1777.4961 L-72.025024 1777.4961 L-72.025024 1569.4961 L135.97498 1569.4961 L135.97498 1777.4961 "/>
      </g>
      <g style="fill:#E2B3FF;stroke:none;">
        <path d="M343.97388 -1489.5244 L551.9739 -1489.5244 L551.97375 -1281.5244 L343.97375 -1281.5244 L343.97388 -1489.5244 "/>
      </g>
      <g style="fill:#E2B3FF;stroke:none;">
        <path d="M343.974 -1052.5244 L551.974 -1052.5244 L551.9739 -844.52435 L343.97388 -844.5244 L343.974 -1052.5244 "/>
      </g>
      <g style="fill:#E2B3FF;stroke:none;">
        <path d="M343.97388 -615.5244 L551.9739 -615.52435 L551.9739 -407.5244 L343.97388 -407.5244 L343.97388 -615.5244 "/>
      </g>
      <g style="fill:#E2B3FF;stroke:none;">
        <path d="M343.97388 -178.52441 L551.9739 -178.52441 L551.9739 29.475586 L343.97388 29.475586 L343.97388 -178.52441 "/>
      </g>
      <g style="fill:#D897FF;stroke:none;">
        <path d="M343.97388 258.4756 L551.9739 258.4756 L551.97375 466.4756 L343.97375 466.4756 L343.97388 258.4756 "/>
      </g>
      <g style="fill:#D897FF;stroke:none;">
        <path d="M343.974 695.47534 L551.974 695.4756 L551.9739 903.4756 L343.97388 903.47534 L343.974 695.47534 "/>
      </g>
      <g style="fill:#D897FF;stroke:none;">
        <path d="M343.97388 1132.4753 L551.9739 1132.4756 L551.9739 1340.4756 L343.97388 1340.4753 L343.97388 1132.4753 "/>
      </g>
      <g style="fill:#D897FF;stroke:none;">
        <path d="M343.97388 1569.4753 L551.9739 1569.4756 L551.9739 1777.4756 L343.97388 1777.4753 L343.97388 1569.4753 "/>
      </g>
      <g style="fill:#CE7BFF;stroke:none;">
        <path d="M968.0261 -1281.5339 L760.0261 -1281.5339 L760.0261 -1489.5339 L968.0261 -1489.5339 L968.0261 -1281.5339 "/>
      </g>
      <g style="fill:#CE7BFF;stroke:none;">
        <path d="M967.9729 -844.53674 L759.9729 -844.53674 L759.97266 -1052.5367 L967.97266 -1052.5369 L967.9729 -844.53674 "/>
      </g>
      <g style="fill:#CE7BFF;stroke:none;">
        <path d="M967.9707 -407.5464 L759.9707 -407.5464 L759.9707 -615.5464 L967.9707 -615.5464 L967.9707 -407.5464 "/>
      </g>
      <g style="fill:#CE7BFF;stroke:none;">
        <path d="M967.979 29.465454 L759.979 29.465454 L759.97876 -178.53455 L967.97876 -178.53455 L967.979 29.465454 "/>
      </g>
      <g style="fill:#B944FF;stroke:none;">
        <path d="M967.9866 466.464 L759.9866 466.464 L759.9866 258.464 L967.9866 258.464 L967.9866 466.464 "/>
      </g>
      <g style="fill:#B944FF;stroke:none;">
        <path d="M967.97534 903.49365 L759.97534 903.4939 L759.9751 695.4939 L967.9751 695.49365 L967.97534 903.49365 "/>
      </g>
      <g style="fill:#B944FF;stroke:none;">
        <path d="M967.979 1340.4326 L759.979 1340.4329 L759.979 1132.4329 L967.979 1132.4326 L967.979 1340.4326 "/>
      </g>
      <g style="fill:#B944FF;stroke:none;">
        <path d="M967.97705 1777.5146 L759.97705 1777.5149 L759.9768 1569.5149 L967.9768 1569.5146 L967.97705 1777.5146 "/>
      </g>
      <g style="fill:#AF29FF;stroke:none;">
        <path d="M1175.9739 -1489.5244 L1383.9739 -1489.5244 L1383.9739 -1281.5244 L1175.9739 -1281.5244 L1175.9739 -1489.5244 "/>
      </g>
      <g style="fill:#AF29FF;stroke:none;">
        <path d="M1175.9739 -1052.5244 L1383.9739 -1052.5244 L1383.9739 -844.5244 L1175.9739 -844.5244 L1175.9739 -1052.5244 "/>
      </g>
      <g style="fill:#AF29FF;stroke:none;">
        <path d="M1175.9739 -615.5244 L1383.9739 -615.5244 L1383.9739 -407.5244 L1175.9739 -407.5244 L1175.9739 -615.5244 "/>
      </g>
      <g style="fill:#AF29FF;stroke:none;">
        <path d="M1175.9739 -178.52441 L1383.9739 -178.52441 L1383.9739 29.475586 L1175.9739 29.475586 L1175.9739 -178.52441 "/>
      </g>
      <g style="fill:#A50DFF;stroke:none;">
        <path d="M1175.9739 258.4756 L1383.9739 258.4756 L1383.9739 466.4756 L1175.9739 466.4756 L1175.9739 258.4756 "/>
      </g>
      <g style="fill:#FFBA0D;stroke:none;">
        <path d="M1175.9739 695.47534 L1383.9739 695.4756 L1383.9739 903.4756 L1175.9739 903.47534 L1175.9739 695.47534 "/>
      </g>
      <g style="fill:#0DFFCF;stroke:none;">
        <path d="M1175.9739 1132.4753 L1383.9739 1132.4756 L1383.9739 1340.4756 L1175.9739 1340.4753 L1175.9739 1132.4753 "/>
      </g>
      <g style="fill:#E40DFF;stroke:none;">
        <path d="M1175.9739 1569.4753 L1383.9739 1569.4756 L1383.9739 1777.4756 L1175.9739 1777.4753 L1175.9739 1569.4753 "/>
      </g>
      <g style="fill:#EDCEFF;stroke:none;">
        <path d="M1800.0261 -1281.534 L1592.0261 -1281.5339 L1592.0261 -1489.5339 L1800.0261 -1489.534 L1800.0261 -1281.534 "/>
      </g>
      <g style="fill:#EDCEFF;stroke:none;">
        <path d="M1799.9746 -844.5371 L1591.9746 -844.537 L1591.9744 -1052.537 L1799.9744 -1052.5371 L1799.9746 -844.5371 "/>
      </g>
      <g style="fill:#EDCEFF;stroke:none;">
        <path d="M1799.9685 -407.54614 L1591.9685 -407.54602 L1591.9683 -615.546 L1799.9683 -615.54614 L1799.9685 -407.54614 "/>
      </g>
      <g style="fill:#EDCEFF;stroke:none;">
        <path d="M1799.981 29.466309 L1591.981 29.46643 L1591.9807 -178.53357 L1799.9807 -178.53369 L1799.981 29.466309 "/>
      </g>
      <g style="fill:#E2B3FF;stroke:none;">
        <path d="M1799.9666 466.45825 L1591.9666 466.45837 L1591.9663 258.45837 L1799.9663 258.45825 L1799.9666 466.45825 "/>
      </g>
      <g style="fill:#E2B3FF;stroke:none;">
        <path d="M1799.9746 903.4783 L1591.9746 903.4783 L1591.9744 695.4783 L1799.9744 695.4783 L1799.9746 903.4783 "/>
      </g>
      <g style="fill:#E2B3FF;stroke:none;">
        <path d="M1799.992 1340.4851 L1591.992 1340.4851 L1591.9917 1132.4851 L1799.9917 1132.4851 L1799.992 1340.4851 "/>
      </g>
      <g style="fill:#E2B3FF;stroke:none;">
        <path d="M1799.981 1777.447 L1591.981 1777.447 L1591.9807 1569.447 L1799.9807 1569.447 L1799.981 1777.447 "/>
      </g>
    </g>
  </g>
</svg>
