<?xml version="1.0" encoding="UTF-8"?>
<svg xmlns="http://www.w3.org/2000/svg" height="288px" version="1.1" width="480px">
  <g style="fill:#191919;stroke:none;">
    <path d="M0.0 0.0 L480.0 0.0 L480.0 288.0 L0.0 288.0 L0.0 0.0 "/>
    <g style="">
      <g style="fill:#FF2ACA;stroke:none;">
        <path d="M1037.9233 -2988.1777 L1247.0614 -2678.1177 L937.00134 -2468.9795 L727.8632 -2779.0396 L1037.9233 -2988.1777 "/>
      </g>
      <g style="fill:#FA2AFF;stroke:none;">
        <path d="M510.65546 -2632.5308 L719.7936 -2322.4707 L409.73352 -2113.333 L200.5954 -2423.393 L510.65546 -2632.5308 "/>
      </g>
      <g style="fill:#94FFBD;stroke:none;">
        <path d="M-16.612488 -2276.8843 L192.52563 -1966.8243 L-117.53436 -1757.6862 L-326.6725 -2067.746 L-16.612488 -2276.8843 "/>
      </g>
      <g style="fill:#94FFBD;stroke:none;">
        <path d="M-543.8803 -1921.2377 L-334.74225 -1611.1776 L-644.80225 -1402.0394 L-853.94037 -1712.0995 L-543.8803 -1921.2377 "/>
      </g>
      <g style="fill:#94FFBD;stroke:none;">
        <path d="M-1071.1482 -1565.591 L-862.0101 -1255.5309 L-1172.0701 -1046.3928 L-1381.2083 -1356.4528 L-1071.1482 -1565.591 "/>
      </g>
      <g style="fill:#94FFBD;stroke:none;">
        <path d="M-1598.4163 -1209.9443 L-1389.2781 -899.8843 L-1699.3381 -690.7461 L-1908.4763 -1000.80615 L-1598.4163 -1209.9443 "/>
      </g>
      <g style="fill:#71FFA7;stroke:none;">
        <path d="M-2125.684 -854.2976 L-1916.5459 -544.23755 L-2226.606 -335.09937 L-2435.7441 -645.1594 L-2125.684 -854.2976 "/>
      </g>
      <g style="fill:#71FFA7;stroke:none;">
        <path d="M-2652.952 -498.65088 L-2443.8137 -188.59082 L-2753.874 20.547241 L-2963.012 -289.51282 L-2652.952 -498.65088 "/>
      </g>
      <g style="fill:#71FFA7;stroke:none;">
        <path d="M1351.6304 -2523.0874 L1560.7686 -2213.0278 L1250.7085 -2003.8895 L1041.5704 -2313.9492 L1351.6304 -2523.0874 "/>
      </g>
      <g style="fill:#71FFA7;stroke:none;">
        <path d="M824.3627 -2167.441 L1033.5007 -1857.381 L723.44073 -1648.2428 L514.3026 -1958.3029 L824.3627 -2167.441 "/>
      </g>
      <g style="fill:#4DFF91;stroke:none;">
        <path d="M297.09473 -1811.7943 L506.23285 -1501.7343 L196.17285 -1292.5961 L-12.965271 -1602.6561 L297.09473 -1811.7943 "/>
      </g>
      <g style="fill:#4DFF91;stroke:none;">
        <path d="M-230.17313 -1456.1476 L-21.035004 -1146.0876 L-331.09503 -936.9494 L-540.23315 -1247.0094 L-230.17313 -1456.1476 "/>
      </g>
      <g style="fill:#4DFF91;stroke:none;">
        <path d="M-757.441 -1100.5009 L-548.3029 -790.4409 L-858.363 -581.30273 L-1067.501 -891.36273 L-757.441 -1100.5009 "/>
      </g>
      <g style="fill:#4DFF91;stroke:none;">
        <path d="M-1284.709 -744.85425 L-1075.5708 -434.79422 L-1385.6309 -225.65607 L-1594.769 -535.71606 L-1284.709 -744.85425 "/>
      </g>
      <g style="fill:#2AFF7B;stroke:none;">
        <path d="M-1811.9768 -389.20752 L-1602.8386 -79.14752 L-1912.8987 129.99066 L-2122.0369 -180.06934 L-1811.9768 -389.20752 "/>
      </g>
      <g style="fill:#2AFF42;stroke:none;">
        <path d="M-2339.2446 -33.56079 L-2130.1067 276.4992 L-2440.1667 485.63727 L-2649.305 175.57727 L-2339.2446 -33.56079 "/>
      </g>
      <g style="fill:#FF2ACA;stroke:none;">
        <path d="M1665.3376 -2057.9976 L1874.4758 -1747.9376 L1564.4158 -1538.7994 L1355.2776 -1848.8595 L1665.3376 -2057.9976 "/>
      </g>
      <g style="fill:#FA2AFF;stroke:none;">
        <path d="M1138.0698 -1702.351 L1347.208 -1392.2909 L1037.148 -1183.1527 L828.0098 -1493.2128 L1138.0698 -1702.351 "/>
      </g>
      <g style="fill:#94FFBD;stroke:none;">
        <path d="M610.80194 -1346.7042 L819.94006 -1036.6442 L509.88007 -827.50604 L300.74194 -1137.566 L610.80194 -1346.7042 "/>
      </g>
      <g style="fill:#94FFBD;stroke:none;">
        <path d="M83.53409 -991.05756 L292.6722 -680.9975 L-17.387833 -471.85938 L-226.52597 -781.9194 L83.53409 -991.05756 "/>
      </g>
      <g style="fill:#94FFBD;stroke:none;">
        <path d="M-443.73383 -635.4109 L-234.59567 -325.35083 L-544.6557 -116.21268 L-753.7938 -426.2727 L-443.73383 -635.4109 "/>
      </g>
      <g style="fill:#94FFBD;stroke:none;">
        <path d="M-971.00165 -279.7642 L-761.8636 30.295837 L-1071.9236 239.43399 L-1281.0618 -70.62604 L-971.00165 -279.7642 "/>
      </g>
      <g style="fill:#71FFA7;stroke:none;">
        <path d="M-1498.2695 75.88251 L-1289.1316 385.9425 L-1599.1917 595.0807 L-1808.3296 285.0207 L-1498.2695 75.88251 "/>
      </g>
      <g style="fill:#71FFA7;stroke:none;">
        <path d="M-2025.5374 431.52924 L-1816.3994 741.58923 L-2126.4595 950.7273 L-2335.5977 640.6673 L-2025.5374 431.52924 "/>
      </g>
      <g style="fill:#71FFA7;stroke:none;">
        <path d="M1979.0449 -1592.9076 L2188.183 -1282.8475 L1878.123 -1073.7094 L1668.9849 -1383.7694 L1979.0449 -1592.9076 "/>
      </g>
      <g style="fill:#71FFA7;stroke:none;">
        <path d="M1451.7771 -1237.2609 L1660.9153 -927.2008 L1350.8552 -718.0627 L1141.717 -1028.1227 L1451.7771 -1237.2609 "/>
      </g>
      <g style="fill:#4DFF91;stroke:none;">
        <path d="M924.50916 -881.61414 L1133.6472 -571.5541 L823.5873 -362.41595 L614.44916 -672.476 L924.50916 -881.61414 "/>
      </g>
      <g style="fill:#4DFF91;stroke:none;">
        <path d="M397.24127 -525.96747 L606.3794 -215.90744 L296.3194 -6.769287 L87.181244 -316.82935 L397.24127 -525.96747 "/>
      </g>
      <g style="fill:#4DFF91;stroke:none;">
        <path d="M-130.02661 -170.3208 L79.11154 139.73926 L-230.94849 348.8774 L-440.0866 38.817352 L-130.02661 -170.3208 "/>
      </g>
      <g style="fill:#4DFF91;stroke:none;">
        <path d="M-657.2945 185.32587 L-448.15637 495.38593 L-758.2164 704.52405 L-967.35455 394.464 L-657.2945 185.32587 "/>
      </g>
      <g style="fill:#2AFF7B;stroke:none;">
        <path d="M-1184.5625 540.97253 L-975.42426 851.0326 L-1285.4844 1060.1708 L-1494.6226 750.1107 L-1184.5625 540.97253 "/>
      </g>
      <g style="fill:#2AFF42;stroke:none;">
        <path d="M-1711.8303 896.61926 L-1502.6921 1206.6793 L-1812.7522 1415.8174 L-2021.8904 1105.7573 L-1711.8303 896.61926 "/>
      </g>
      <g style="fill:#FF2ACA;stroke:none;">
        <path d="M2292.752 -1127.8175 L2501.8901 -817.75745 L2191.83 -608.61926 L1982.6921 -918.6793 L2292.752 -1127.8175 "/>
      </g>
      <g style="fill:#FA2AFF;stroke:none;">
        <path d="M1765.4844 -772.1708 L1974.6223 -462.11072 L1664.5623 -252.9726 L1455.4243 -563.03265 L1765.4844 -772.1708 "/>
      </g>
      <g style="fill:#94FFBD;stroke:none;">
        <path d="M1238.2163 -416.5241 L1447.3545 -106.46405 L1137.2944 102.6741 L928.1564 -207.38596 L1238.2163 -416.5241 "/>
      </g>
      <g style="fill:#94FFBD;stroke:none;">
        <path d="M710.9485 -60.877426 L920.0866 249.18262 L610.0266 458.3208 L400.88846 148.26071 L710.9485 -60.877426 "/>
      </g>
      <g style="fill:#94FFBD;stroke:none;">
        <path d="M183.68062 294.76926 L392.81876 604.82935 L82.75873 813.96747 L-126.379395 503.9074 L183.68062 294.76926 "/>
      </g>
      <g style="fill:#94FFBD;stroke:none;">
        <path d="M-343.58728 650.4159 L-134.44916 960.47595 L-444.50916 1169.6141 L-653.6473 859.5541 L-343.58728 650.4159 "/>
      </g>
      <g style="fill:#71FFA7;stroke:none;">
        <path d="M-870.85516 1006.0626 L-661.71704 1316.1227 L-971.77704 1525.2609 L-1180.9153 1215.2008 L-870.85516 1006.0626 "/>
      </g>
      <g style="fill:#71FFA7;stroke:none;">
        <path d="M-1398.123 1361.7094 L-1188.9849 1671.7694 L-1499.0452 1880.9075 L-1708.1831 1570.8474 L-1398.123 1361.7094 "/>
      </g>
      <g style="fill:#71FFA7;stroke:none;">
        <path d="M2606.4592 -662.7274 L2815.5974 -352.66736 L2505.5374 -143.52917 L2296.3992 -453.58923 L2606.4592 -662.7274 "/>
      </g>
      <g style="fill:#71FFA7;stroke:none;">
        <path d="M2079.1914 -307.0807 L2288.3296 2.97937 L1978.2695 212.1175 L1769.1313 -97.942566 L2079.1914 -307.0807 "/>
      </g>
      <g style="fill:#4DFF91;stroke:none;">
        <path d="M1551.9236 48.56598 L1761.0618 358.62604 L1451.0017 567.76416 L1241.8635 257.70413 L1551.9236 48.56598 "/>
      </g>
      <g style="fill:#4DFF91;stroke:none;">
        <path d="M1024.6558 404.21265 L1233.794 714.2727 L923.7338 923.4109 L714.5957 613.3508 L1024.6558 404.21265 "/>
      </g>
      <g style="fill:#4DFF91;stroke:none;">
        <path d="M497.38785 759.8594 L706.526 1069.9194 L396.46594 1279.0575 L187.32782 968.99744 L497.38785 759.8594 "/>
      </g>
      <g style="fill:#4DFF91;stroke:none;">
        <path d="M-29.880066 1115.506 L179.25806 1425.566 L-130.80194 1634.7042 L-339.94006 1324.6442 L-29.880066 1115.506 "/>
      </g>
      <g style="fill:#2AFF7B;stroke:none;">
        <path d="M-557.14795 1471.1527 L-348.00983 1781.2128 L-658.0699 1990.351 L-867.20795 1680.2909 L-557.14795 1471.1527 "/>
      </g>
      <g style="fill:#2AFF42;stroke:none;">
        <path d="M-1084.4158 1826.7994 L-875.27765 2136.8594 L-1185.3379 2345.9976 L-1394.4761 2035.9374 L-1084.4158 1826.7994 "/>
      </g>
      <g style="fill:#FF2ACA;stroke:none;">
        <path d="M2920.1665 -197.63733 L3129.3047 112.42273 L2819.2446 321.5609 L2610.1064 11.5008545 L2920.1665 -197.63733 "/>
      </g>
      <g style="fill:#FA2AFF;stroke:none;">
        <path d="M2392.8987 158.0094 L2602.0369 468.06946 L2291.9768 677.2076 L2082.8386 367.14752 L2392.8987 158.0094 "/>
      </g>
      <g style="fill:#94FFBD;stroke:none;">
        <path d="M1865.6309 513.65607 L2074.7688 823.7161 L1764.709 1032.8542 L1555.5708 722.7942 L1865.6309 513.65607 "/>
      </g>
      <g style="fill:#94FFBD;stroke:none;">
        <path d="M1338.363 869.30273 L1547.501 1179.3628 L1237.441 1388.501 L1028.303 1078.4409 L1338.363 869.30273 "/>
      </g>
      <g style="fill:#94FFBD;stroke:none;">
        <path d="M811.09503 1224.9495 L1020.2332 1535.0095 L710.17316 1744.1476 L501.03503 1434.0875 L811.09503 1224.9495 "/>
      </g>
      <g style="fill:#94FFBD;stroke:none;">
        <path d="M283.82715 1580.5961 L492.96527 1890.6561 L182.90527 2099.7944 L-26.23285 1789.7343 L283.82715 1580.5961 "/>
      </g>
      <g style="fill:#71FFA7;stroke:none;">
        <path d="M-243.44073 1936.2428 L-34.302612 2246.3027 L-344.36267 2455.441 L-553.5008 2145.3809 L-243.44073 1936.2428 "/>
      </g>
      <g style="fill:#71FFA7;stroke:none;">
        <path d="M-770.70856 2291.8896 L-561.57043 2601.9497 L-871.63055 2811.088 L-1080.7688 2501.0278 L-770.70856 2291.8896 "/>
      </g>
      <g style="fill:#71FFA7;stroke:none;">
        <path d="M3233.8738 267.45276 L3443.012 577.5127 L3132.952 786.6509 L2923.8137 476.59094 L3233.8738 267.45276 "/>
      </g>
      <g style="fill:#71FFA7;stroke:none;">
        <path d="M2706.6057 623.0995 L2915.744 933.1594 L2605.6838 1142.2975 L2396.5457 832.2376 L2706.6057 623.0995 "/>
      </g>
      <g style="fill:#4DFF91;stroke:none;">
        <path d="M2179.338 978.7462 L2388.476 1288.806 L2078.416 1497.9442 L1869.2778 1187.8843 L2179.338 978.7462 "/>
      </g>
      <g style="fill:#4DFF91;stroke:none;">
        <path d="M1652.0701 1334.3928 L1861.2083 1644.4528 L1551.1482 1853.591 L1342.01 1543.531 L1652.0701 1334.3928 "/>
      </g>
      <g style="fill:#4DFF91;stroke:none;">
        <path d="M1124.8022 1690.0396 L1333.9404 2000.0995 L1023.8804 2209.2378 L814.7422 1899.1776 L1124.8022 1690.0396 "/>
      </g>
      <g style="fill:#4DFF91;stroke:none;">
        <path d="M597.5343 2045.6862 L806.6725 2355.746 L496.6125 2564.8843 L287.4743 2254.8242 L597.5343 2045.6862 "/>
      </g>
      <g style="fill:#2AFF7B;stroke:none;">
        <path d="M70.26642 2401.333 L279.4046 2711.393 L-30.655457 2920.5312 L-239.79364 2610.4712 L70.26642 2401.333 "/>
      </g>
      <g style="fill:#2AFF42;stroke:none;">
        <path d="M-457.0014 2756.9795 L-247.86322 3067.0396 L-557.9234 3276.1777 L-767.0616 2966.1177 L-457.0014 2756.9795 "/>
      </g>
    </g>
  </g>
</svg>
