<?xml version="1.0" encoding="UTF-8"?>
<svg xmlns="http://www.w3.org/2000/svg" height="288px" version="1.1" width="480px">
  <g style="fill:#FF11AC;stroke:none;">
    <path d="M0.0 0.0 L480.0 0.0 L480.0 288.0 L0.0 288.0 L0.0 0.0 "/>
    <g style="">
      <g style="fill:#FF114F;stroke:none;">
        <path d="M-1775.5 -1871.5 L-1503.5 -1871.5 L-1503.5 -1599.5 L-1775.5 -1599.5 L-1775.5 -1871.5 "/>
      </g>
      <g style="fill:#FF2F11;stroke:none;">
        <path d="M-1775.5 -1334.5 L-1503.5 -1334.5 L-1503.5 -1062.5 L-1775.5 -1062.5 L-1775.5 -1334.5 "/>
      </g>
      <g style="fill:#FF114F;stroke:none;">
        <path d="M-1775.5 -797.5 L-1503.5 -797.5 L-1503.5 -525.5 L-1775.5 -525.5 L-1775.5 -797.5 "/>
      </g>
      <g style="fill:#FF2F11;stroke:none;">
        <path d="M-1775.5 -260.5 L-1503.5 -260.5 L-1503.5 11.5 L-1775.5 11.5 L-1775.5 -260.5 "/>
      </g>
      <g style="fill:#FF114F;stroke:none;">
        <path d="M-1775.5 276.5 L-1503.5 276.5 L-1503.5 548.5 L-1775.5 548.5 L-1775.5 276.5 "/>
      </g>
      <g style="fill:#FF2F11;stroke:none;">
        <path d="M-1775.5 813.5 L-1503.5 813.5 L-1503.5 1085.5 L-1775.5 1085.5 L-1775.5 813.5 "/>
      </g>
      <g style="fill:#FF114F;stroke:none;">
        <path d="M-1775.5 1350.5 L-1503.5 1350.5 L-1503.5 1622.5 L-1775.5 1622.5 L-1775.5 1350.5 "/>
      </g>
      <g style="fill:#FF2F11;stroke:none;">
        <path d="M-1775.5 1887.5 L-1503.5 1887.5 L-1503.5 2159.5 L-1775.5 2159.5 L-1775.5 1887.5 "/>
      </g>
      <g style="fill:#FF114F;stroke:none;">
        <path d="M-1238.5 -1871.5 L-966.5 -1871.5 L-966.5 -1599.5 L-1238.5 -1599.5 L-1238.5 -1871.5 "/>
      </g>
      <g style="fill:#FF2F11;stroke:none;">
        <path d="M-1238.5 -1334.5 L-966.5 -1334.5 L-966.5 -1062.5 L-1238.5 -1062.5 L-1238.5 -1334.5 "/>
      </g>
      <g style="fill:#FF114F;stroke:none;">
        <path d="M-1238.5 -797.5 L-966.5 -797.5 L-966.5 -525.5 L-1238.5 -525.5 L-1238.5 -797.5 "/>
      </g>
      <g style="fill:#FF2F11;stroke:none;">
        <path d="M-1238.5 -260.5 L-966.5 -260.5 L-966.5 11.5 L-1238.5 11.5 L-1238.5 -260.5 "/>
      </g>
      <g style="fill:#FF114F;stroke:none;">
        <path d="M-1238.5 276.5 L-966.5 276.5 L-966.5 548.5 L-1238.5 548.5 L-1238.5 276.5 "/>
      </g>
      <g style="fill:#FF2F11;stroke:none;">
        <path d="M-1238.5 813.5 L-966.5 813.5 L-966.5 1085.5 L-1238.5 1085.5 L-1238.5 813.5 "/>
      </g>
      <g style="fill:#FF114F;stroke:none;">
        <path d="M-1238.5 1350.5 L-966.5 1350.5 L-966.5 1622.5 L-1238.5 1622.5 L-1238.5 1350.5 "/>
      </g>
      <g style="fill:#FF2F11;stroke:none;">
        <path d="M-1238.5 1887.5 L-966.5 1887.5 L-966.5 2159.5 L-1238.5 2159.5 L-1238.5 1887.5 "/>
      </g>
      <g style="fill:#FF114F;stroke:none;">
        <path d="M-701.5 -1871.5 L-429.5 -1871.5 L-429.5 -1599.5 L-701.5 -1599.5 L-701.5 -1871.5 "/>
      </g>
      <g style="fill:#FF2F11;stroke:none;">
        <path d="M-701.5 -1334.5 L-429.5 -1334.5 L-429.5 -1062.5 L-701.5 -1062.5 L-701.5 -1334.5 "/>
      </g>
      <g style="fill:#FF114F;stroke:none;">
        <path d="M-701.5 -797.5 L-429.5 -797.5 L-429.5 -525.5 L-701.5 -525.5 L-701.5 -797.5 "/>
      </g>
      <g style="fill:#FF2F11;stroke:none;">
        <path d="M-701.5 -260.5 L-429.5 -260.5 L-429.5 11.5 L-701.5 11.5 L-701.5 -260.5 "/>
      </g>
      <g style="fill:#FF114F;stroke:none;">
        <path d="M-701.5 276.5 L-429.5 276.5 L-429.5 548.5 L-701.5 548.5 L-701.5 276.5 "/>
      </g>
      <g style="fill:#FF2F11;stroke:none;">
        <path d="M-701.5 813.5 L-429.5 813.5 L-429.5 1085.5 L-701.5 1085.5 L-701.5 813.5 "/>
      </g>
      <g style="fill:#FF114F;stroke:none;">
        <path d="M-701.5 1350.5 L-429.5 1350.5 L-429.5 1622.5 L-701.5 1622.5 L-701.5 1350.5 "/>
      </g>
      <g style="fill:#FF2F11;stroke:none;">
        <path d="M-701.5 1887.5 L-429.5 1887.5 L-429.5 2159.5 L-701.5 2159.5 L-701.5 1887.5 "/>
      </g>
      <g style="fill:#FF114F;stroke:none;">
        <path d="M-164.5 -1871.5 L107.5 -1871.5 L107.5 -1599.5 L-164.5 -1599.5 L-164.5 -1871.5 "/>
      </g>
      <g style="fill:#FF2F11;stroke:none;">
        <path d="M-164.5 -1334.5 L107.5 -1334.5 L107.5 -1062.5 L-164.5 -1062.5 L-164.5 -1334.5 "/>
      </g>
      <g style="fill:#FF114F;stroke:none;">
        <path d="M-164.5 -797.5 L107.5 -797.5 L107.5 -525.5 L-164.5 -525.5 L-164.5 -797.5 "/>
      </g>
      <g style="fill:#FF2F11;stroke:none;">
        <path d="M-164.5 -260.5 L107.5 -260.5 L107.5 11.5 L-164.5 11.5 L-164.5 -260.5 "/>
      </g>
      <g style="fill:#FF114F;stroke:none;">
        <path d="M-164.5 276.5 L107.5 276.5 L107.5 548.5 L-164.5 548.5 L-164.5 276.5 "/>
      </g>
      <g style="fill:#FF2F11;stroke:none;">
        <path d="M-164.5 813.5 L107.5 813.5 L107.5 1085.5 L-164.5 1085.5 L-164.5 813.5 "/>
      </g>
      <g style="fill:#FF114F;stroke:none;">
        <path d="M-164.5 1350.5 L107.5 1350.5 L107.5 1622.5 L-164.5 1622.5 L-164.5 1350.5 "/>
      </g>
      <g style="fill:#FF2F11;stroke:none;">
        <path d="M-164.5 1887.5 L107.5 1887.5 L107.5 2159.5 L-164.5 2159.5 L-164.5 1887.5 "/>
      </g>
      <g style="fill:#FF114F;stroke:none;">
        <path d="M372.5 -1871.5 L644.5 -1871.5 L644.5 -1599.5 L372.5 -1599.5 L372.5 -1871.5 "/>
      </g>
      <g style="fill:#FF2F11;stroke:none;">
        <path d="M372.5 -1334.5 L644.5 -1334.5 L644.5 -1062.5 L372.5 -1062.5 L372.5 -1334.5 "/>
      </g>
      <g style="fill:#FF114F;stroke:none;">
        <path d="M372.5 -797.5 L644.5 -797.5 L644.5 -525.5 L372.5 -525.5 L372.5 -797.5 "/>
      </g>
      <g style="fill:#FF2F11;stroke:none;">
        <path d="M372.5 -260.5 L644.5 -260.5 L644.5 11.5 L372.5 11.5 L372.5 -260.5 "/>
      </g>
      <g style="fill:#FF114F;stroke:none;">
        <path d="M372.5 276.5 L644.5 276.5 L644.5 548.5 L372.5 548.5 L372.5 276.5 "/>
      </g>
      <g style="fill:#FF2F11;stroke:none;">
        <path d="M372.5 813.5 L644.5 813.5 L644.5 1085.5 L372.5 1085.5 L372.5 813.5 "/>
      </g>
      <g style="fill:#FF114F;stroke:none;">
        <path d="M372.5 1350.5 L644.5 1350.5 L644.5 1622.5 L372.5 1622.5 L372.5 1350.5 "/>
      </g>
      <g style="fill:#FF2F11;stroke:none;">
        <path d="M372.5 1887.5 L644.5 1887.5 L644.5 2159.5 L372.5 2159.5 L372.5 1887.5 "/>
      </g>
      <g style="fill:#FF114F;stroke:none;">
        <path d="M909.5 -1871.5 L1181.5 -1871.5 L1181.5 -1599.5 L909.5 -1599.5 L909.5 -1871.5 "/>
      </g>
      <g style="fill:#FF2F11;stroke:none;">
        <path d="M909.5 -1334.5 L1181.5 -1334.5 L1181.5 -1062.5 L909.5 -1062.5 L909.5 -1334.5 "/>
      </g>
      <g style="fill:#FF114F;stroke:none;">
        <path d="M909.5 -797.5 L1181.5 -797.5 L1181.5 -525.5 L909.5 -525.5 L909.5 -797.5 "/>
      </g>
      <g style="fill:#FF2F11;stroke:none;">
        <path d="M909.5 -260.5 L1181.5 -260.5 L1181.5 11.5 L909.5 11.5 L909.5 -260.5 "/>
      </g>
      <g style="fill:#FF114F;stroke:none;">
        <path d="M909.5 276.5 L1181.5 276.5 L1181.5 548.5 L909.5 548.5 L909.5 276.5 "/>
      </g>
      <g style="fill:#FF2F11;stroke:none;">
        <path d="M909.5 813.5 L1181.5 813.5 L1181.5 1085.5 L909.5 1085.5 L909.5 813.5 "/>
      </g>
      <g style="fill:#FF114F;stroke:none;">
        <path d="M909.5 1350.5 L1181.5 1350.5 L1181.5 1622.5 L909.5 1622.5 L909.5 1350.5 "/>
      </g>
      <g style="fill:#FF2F11;stroke:none;">
        <path d="M909.5 1887.5 L1181.5 1887.5 L1181.5 2159.5 L909.5 2159.5 L909.5 1887.5 "/>
      </g>
      <g style="fill:#FF114F;stroke:none;">
        <path d="M1446.5 -1871.5 L1718.5 -1871.5 L1718.5 -1599.5 L1446.5 -1599.5 L1446.5 -1871.5 "/>
      </g>
      <g style="fill:#FF2F11;stroke:none;">
        <path d="M1446.5 -1334.5 L1718.5 -1334.5 L1718.5 -1062.5 L1446.5 -1062.5 L1446.5 -1334.5 "/>
      </g>
      <g style="fill:#FF114F;stroke:none;">
        <path d="M1446.5 -797.5 L1718.5 -797.5 L1718.5 -525.5 L1446.5 -525.5 L1446.5 -797.5 "/>
      </g>
      <g style="fill:#FF2F11;stroke:none;">
        <path d="M1446.5 -260.5 L1718.5 -260.5 L1718.5 11.5 L1446.5 11.5 L1446.5 -260.5 "/>
      </g>
      <g style="fill:#FF114F;stroke:none;">
        <path d="M1446.5 276.5 L1718.5 276.5 L1718.5 548.5 L1446.5 548.5 L1446.5 276.5 "/>
      </g>
      <g style="fill:#FF2F11;stroke:none;">
        <path d="M1446.5 813.5 L1718.5 813.5 L1718.5 1085.5 L1446.5 1085.5 L1446.5 813.5 "/>
      </g>
      <g style="fill:#FF114F;stroke:none;">
        <path d="M1446.5 1350.5 L1718.5 1350.5 L1718.5 1622.5 L1446.5 1622.5 L1446.5 1350.5 "/>
      </g>
      <g style="fill:#FF2F11;stroke:none;">
        <path d="M1446.5 1887.5 L1718.5 1887.5 L1718.5 2159.5 L1446.5 2159.5 L1446.5 1887.5 "/>
      </g>
      <g style="fill:#FF114F;stroke:none;">
        <path d="M1983.5 -1871.5 L2255.5 -1871.5 L2255.5 -1599.5 L1983.5 -1599.5 L1983.5 -1871.5 "/>
      </g>
      <g style="fill:#FF2F11;stroke:none;">
        <path d="M1983.5 -1334.5 L2255.5 -1334.5 L2255.5 -1062.5 L1983.5 -1062.5 L1983.5 -1334.5 "/>
      </g>
      <g style="fill:#FF114F;stroke:none;">
        <path d="M1983.5 -797.5 L2255.5 -797.5 L2255.5 -525.5 L1983.5 -525.5 L1983.5 -797.5 "/>
      </g>
      <g style="fill:#FF2F11;stroke:none;">
        <path d="M1983.5 -260.5 L2255.5 -260.5 L2255.5 11.5 L1983.5 11.5 L1983.5 -260.5 "/>
      </g>
      <g style="fill:#FF114F;stroke:none;">
        <path d="M1983.5 276.5 L2255.5 276.5 L2255.5 548.5 L1983.5 548.5 L1983.5 276.5 "/>
      </g>
      <g style="fill:#FF2F11;stroke:none;">
        <path d="M1983.5 813.5 L2255.5 813.5 L2255.5 1085.5 L1983.5 1085.5 L1983.5 813.5 "/>
      </g>
      <g style="fill:#FF114F;stroke:none;">
        <path d="M1983.5 1350.5 L2255.5 1350.5 L2255.5 1622.5 L1983.5 1622.5 L1983.5 1350.5 "/>
      </g>
      <g style="fill:#FF2F11;stroke:none;">
        <path d="M1983.5 1887.5 L2255.5 1887.5 L2255.5 2159.5 L1983.5 2159.5 L1983.5 1887.5 "/>
      </g>
    </g>
  </g>
</svg>
