<?xml version="1.0" encoding="UTF-8"?>
<svg xmlns="http://www.w3.org/2000/svg" height="288px" version="1.1" width="480px">
  <g style="fill:#72BD6B;stroke:none;">
    <path d="M0.0 0.0 L480.0 0.0 L480.0 288.0 L0.0 288.0 L0.0 0.0 "/>
    <g style="">
      <g style="fill:#B66BBD;stroke:none;">
        <path d="M776.4867 680.5 L683.4867 680.5 L683.4867 587.5 L776.4867 587.5 L776.4867 680.5 "/>
      </g>
      <g style="fill:#B66BBD;stroke:none;">
        <path d="M776.4867 540.5 L683.4867 540.5 L683.4867 447.5 L776.4867 447.50003 L776.4867 540.5 "/>
      </g>
      <g style="fill:#B66BBD;stroke:none;">
        <path d="M776.4867 400.50003 L683.4867 400.5 L683.4867 307.50003 L776.4867 307.50003 L776.4867 400.50003 "/>
      </g>
      <g style="fill:#B66BBD;stroke:none;">
        <path d="M776.4867 260.50003 L683.4867 260.50003 L683.4867 167.50002 L776.4867 167.50003 L776.4867 260.50003 "/>
      </g>
      <g style="fill:#B66BBD;stroke:none;">
        <path d="M776.4867 120.50003 L683.4867 120.500015 L683.4867 27.50003 L776.4867 27.50003 L776.4867 120.50003 "/>
      </g>
      <g style="fill:#B66BBD;stroke:none;">
        <path d="M776.4867 -19.49997 L683.4867 -19.49997 L683.4867 -112.49997 L776.4867 -112.49997 L776.4867 -19.49997 "/>
      </g>
      <g style="fill:#B66BBD;stroke:none;">
        <path d="M776.4867 -159.49997 L683.48676 -159.49997 L683.48676 -252.5 L776.48676 -252.5 L776.4867 -159.49997 "/>
      </g>
      <g style="fill:#B66BBD;stroke:none;">
        <path d="M776.48676 -299.5 L683.48676 -299.5 L683.48676 -392.5 L776.48676 -392.5 L776.48676 -299.5 "/>
      </g>
      <g style="fill:#B66BBD;stroke:none;">
        <path d="M543.51337 587.5 L636.51337 587.5 L636.51337 680.5 L543.51337 680.5 L543.51337 587.5 "/>
      </g>
      <g style="fill:#B66BBD;stroke:none;">
        <path d="M543.5134 447.49994 L636.5134 447.49997 L636.5134 540.5 L543.51337 540.49994 L543.5134 447.49994 "/>
      </g>
      <g style="fill:#B66BBD;stroke:none;">
        <path d="M543.5134 307.5 L636.5134 307.50003 L636.51337 400.50006 L543.51337 400.5 L543.5134 307.5 "/>
      </g>
      <g style="fill:#B66BBD;stroke:none;">
        <path d="M543.5134 167.49988 L636.5134 167.4999 L636.51337 260.49988 L543.51337 260.49988 L543.5134 167.49988 "/>
      </g>
      <g style="fill:#B66BBD;stroke:none;">
        <path d="M543.5134 27.5 L636.5134 27.5 L636.51337 120.500015 L543.51337 120.5 L543.5134 27.5 "/>
      </g>
      <g style="fill:#B66BBD;stroke:none;">
        <path d="M543.5134 -112.497314 L636.5134 -112.497314 L636.5134 -19.497314 L543.5134 -19.497314 L543.5134 -112.497314 "/>
      </g>
      <g style="fill:#B66BBD;stroke:none;">
        <path d="M543.5134 -252.49683 L636.5134 -252.49683 L636.5134 -159.49683 L543.5134 -159.49683 L543.5134 -252.49683 "/>
      </g>
      <g style="fill:#B66BBD;stroke:none;">
        <path d="M543.5135 -392.49707 L636.5135 -392.49707 L636.5135 -299.49707 L543.5135 -299.49707 L543.5135 -392.49707 "/>
      </g>
      <g style="fill:#B66BBD;stroke:none;">
        <path d="M496.48666 680.5 L403.48666 680.5 L403.4867 587.5 L496.4867 587.5 L496.48666 680.5 "/>
      </g>
      <g style="fill:#B66BBD;stroke:none;">
        <path d="M496.48666 540.5 L403.48666 540.5 L403.4867 447.5 L496.4867 447.5 L496.48666 540.5 "/>
      </g>
      <g style="fill:#B66BBD;stroke:none;">
        <path d="M496.4867 400.5 L403.4867 400.5 L403.4867 307.5 L496.4867 307.5 L496.4867 400.5 "/>
      </g>
      <g style="fill:#B66BBD;stroke:none;">
        <path d="M496.48666 260.5 L403.48666 260.5 L403.4867 167.5 L496.4867 167.5 L496.48666 260.5 "/>
      </g>
      <g style="fill:#B66BBD;stroke:none;">
        <path d="M496.4867 120.5 L403.4867 120.5 L403.48676 27.5 L496.48676 27.5 L496.4867 120.5 "/>
      </g>
      <g style="fill:#B66BBD;stroke:none;">
        <path d="M496.48672 -19.5 L403.48672 -19.5 L403.48676 -112.5 L496.48676 -112.5 L496.48672 -19.5 "/>
      </g>
      <g style="fill:#B66BBD;stroke:none;">
        <path d="M496.48672 -159.5 L403.48672 -159.5 L403.48676 -252.5 L496.48676 -252.5 L496.48672 -159.5 "/>
      </g>
      <g style="fill:#B66BBD;stroke:none;">
        <path d="M496.48676 -299.50006 L403.48676 -299.50006 L403.48676 -392.50012 L496.48676 -392.5 L496.48676 -299.50006 "/>
      </g>
      <g style="fill:#B66BBD;stroke:none;">
        <path d="M263.5134 587.5 L356.5134 587.5 L356.5134 680.5 L263.5134 680.5 L263.5134 587.5 "/>
      </g>
      <g style="fill:#B66BBD;stroke:none;">
        <path d="M263.51343 447.49994 L356.51343 447.49994 L356.5134 540.49994 L263.51343 540.49994 L263.51343 447.49994 "/>
      </g>
      <g style="fill:#B66BBD;stroke:none;">
        <path d="M263.51343 307.50003 L356.51343 307.50006 L356.51343 400.50006 L263.51343 400.50006 L263.51343 307.50003 "/>
      </g>
      <g style="fill:#B66BBD;stroke:none;">
        <path d="M263.51343 167.49986 L356.51343 167.49988 L356.51343 260.49988 L263.51343 260.49985 L263.51343 167.49986 "/>
      </g>
      <g style="fill:#B66BBD;stroke:none;">
        <path d="M263.51343 27.499847 L356.51346 27.499878 L356.51343 120.49986 L263.51343 120.49986 L263.51343 27.499847 "/>
      </g>
      <g style="fill:#B66BBD;stroke:none;">
        <path d="M263.51346 -112.4993 L356.51346 -112.49927 L356.51346 -19.499268 L263.51346 -19.499298 L263.51346 -112.4993 "/>
      </g>
      <g style="fill:#B66BBD;stroke:none;">
        <path d="M263.5135 -252.49768 L356.5135 -252.49768 L356.51346 -159.49768 L263.5135 -159.49771 L263.5135 -252.49768 "/>
      </g>
      <g style="fill:#B66BBD;stroke:none;">
        <path d="M263.51337 -392.49683 L356.51337 -392.49683 L356.51337 -299.49683 L263.51337 -299.49683 L263.51337 -392.49683 "/>
      </g>
      <g style="fill:#B66BBD;stroke:none;">
        <path d="M216.48666 680.5 L123.486664 680.5 L123.486725 587.5 L216.48672 587.5 L216.48666 680.5 "/>
      </g>
      <g style="fill:#B66BBD;stroke:none;">
        <path d="M216.48666 540.5 L123.486664 540.49994 L123.486694 447.49994 L216.4867 447.5 L216.48666 540.5 "/>
      </g>
      <g style="fill:#B66BBD;stroke:none;">
        <path d="M216.4867 400.5 L123.486694 400.49997 L123.486694 307.49997 L216.4867 307.5 L216.4867 400.5 "/>
      </g>
      <g style="fill:#B66BBD;stroke:none;">
        <path d="M216.48663 260.5 L123.48663 260.49997 L123.486694 167.49997 L216.4867 167.49997 L216.48663 260.5 "/>
      </g>
      <g style="fill:#B66BBD;stroke:none;">
        <path d="M216.4867 120.49997 L123.486694 120.49991 L123.486786 27.499908 L216.48679 27.49997 L216.4867 120.49997 "/>
      </g>
      <g style="fill:#B66BBD;stroke:none;">
        <path d="M216.48672 -19.50003 L123.486725 -19.500092 L123.486786 -112.50009 L216.48679 -112.50003 L216.48672 -19.50003 "/>
      </g>
      <g style="fill:#B66BBD;stroke:none;">
        <path d="M216.48672 -159.50003 L123.486725 -159.50009 L123.486755 -252.50012 L216.48676 -252.5 L216.48672 -159.50003 "/>
      </g>
      <g style="fill:#B66BBD;stroke:none;">
        <path d="M216.48676 -299.49994 L123.486755 -299.50006 L123.486755 -392.50006 L216.48676 -392.5 L216.48676 -299.49994 "/>
      </g>
      <g style="fill:#B66BBD;stroke:none;">
        <path d="M-16.48648 587.5 L76.51352 587.49994 L76.51352 680.49994 L-16.48648 680.5 L-16.48648 587.5 "/>
      </g>
      <g style="fill:#B66BBD;stroke:none;">
        <path d="M-16.486633 447.49985 L76.51337 447.49985 L76.513336 540.4999 L-16.486664 540.4999 L-16.486633 447.49985 "/>
      </g>
      <g style="fill:#B66BBD;stroke:none;">
        <path d="M-16.486633 307.50003 L76.51337 307.5 L76.51343 400.5 L-16.486572 400.5 L-16.486633 307.50003 "/>
      </g>
      <g style="fill:#B66BBD;stroke:none;">
        <path d="M-16.48645 167.50002 L76.51355 167.49997 L76.51355 260.49997 L-16.48645 260.50003 L-16.48645 167.50002 "/>
      </g>
      <g style="fill:#B66BBD;stroke:none;">
        <path d="M-16.486725 27.500275 L76.513275 27.500214 L76.513245 120.50021 L-16.486755 120.50026 L-16.486725 27.500275 "/>
      </g>
      <g style="fill:#B66BBD;stroke:none;">
        <path d="M-16.48648 -112.49899 L76.51352 -112.499054 L76.51358 -19.499054 L-16.48642 -19.498993 L-16.48648 -112.49899 "/>
      </g>
      <g style="fill:#B66BBD;stroke:none;">
        <path d="M-16.48639 -252.49731 L76.51361 -252.49738 L76.51358 -159.49734 L-16.48642 -159.49728 L-16.48639 -252.49731 "/>
      </g>
      <g style="fill:#B66BBD;stroke:none;">
        <path d="M-16.48639 -392.49664 L76.51361 -392.49664 L76.51367 -299.49664 L-16.486328 -299.49664 L-16.48639 -392.49664 "/>
      </g>
      <g style="fill:#B66BBD;stroke:none;">
        <path d="M-63.513367 680.49994 L-156.51337 680.49994 L-156.5133 587.49994 L-63.513306 587.49994 L-63.513367 680.49994 "/>
      </g>
      <g style="fill:#B66BBD;stroke:none;">
        <path d="M-63.513306 540.49994 L-156.5133 540.49994 L-156.5133 447.49994 L-63.513306 447.49994 L-63.513306 540.49994 "/>
      </g>
      <g style="fill:#B66BBD;stroke:none;">
        <path d="M-63.513306 400.49994 L-156.5133 400.49994 L-156.5133 307.49994 L-63.513306 307.49994 L-63.513306 400.49994 "/>
      </g>
      <g style="fill:#B66BBD;stroke:none;">
        <path d="M-63.513306 260.49994 L-156.5133 260.49994 L-156.5133 167.49994 L-63.513306 167.49995 L-63.513306 260.49994 "/>
      </g>
      <g style="fill:#B66BBD;stroke:none;">
        <path d="M-63.513306 120.499954 L-156.5133 120.49994 L-156.51324 27.499939 L-63.513245 27.499939 L-63.513306 120.499954 "/>
      </g>
      <g style="fill:#B66BBD;stroke:none;">
        <path d="M-63.513306 -19.500061 L-156.5133 -19.500061 L-156.51324 -112.50006 L-63.513245 -112.50006 L-63.513306 -19.500061 "/>
      </g>
      <g style="fill:#B66BBD;stroke:none;">
        <path d="M-63.513245 -159.50006 L-156.51324 -159.50006 L-156.51324 -252.50006 L-63.513245 -252.50006 L-63.513245 -159.50006 "/>
      </g>
      <g style="fill:#B66BBD;stroke:none;">
        <path d="M-63.513245 -299.50012 L-156.51324 -299.50012 L-156.51324 -392.50006 L-63.513245 -392.50006 L-63.513245 -299.50012 "/>
      </g>
      <g style="fill:#B66BBD;stroke:none;">
        <path d="M-296.48352 587.49994 L-203.48352 587.4999 L-203.48358 680.4999 L-296.48358 680.49994 L-296.48352 587.49994 "/>
      </g>
      <g style="fill:#B66BBD;stroke:none;">
        <path d="M-296.48547 447.50006 L-203.48535 447.5 L-203.48535 540.5 L-296.48535 540.50006 L-296.48547 447.50006 "/>
      </g>
      <g style="fill:#B66BBD;stroke:none;">
        <path d="M-296.4862 307.50003 L-203.48633 307.5 L-203.4862 400.5 L-296.4862 400.50003 L-296.4862 307.50003 "/>
      </g>
      <g style="fill:#B66BBD;stroke:none;">
        <path d="M-296.4867 167.49982 L-203.4867 167.49982 L-203.4867 260.49982 L-296.4867 260.49988 L-296.4867 167.49982 "/>
      </g>
      <g style="fill:#B66BBD;stroke:none;">
        <path d="M-296.4867 27.500732 L-203.48657 27.500671 L-203.48657 120.50067 L-296.48657 120.50073 L-296.4867 27.500732 "/>
      </g>
      <g style="fill:#B66BBD;stroke:none;">
        <path d="M-296.48663 -112.497314 L-203.48676 -112.497375 L-203.4867 -19.497375 L-296.4867 -19.497314 L-296.48663 -112.497314 "/>
      </g>
      <g style="fill:#B66BBD;stroke:none;">
        <path d="M-296.48663 -252.49658 L-203.48663 -252.49664 L-203.48663 -159.49664 L-296.48663 -159.49658 L-296.48663 -252.49658 "/>
      </g>
      <g style="fill:#B66BBD;stroke:none;">
        <path d="M-296.48492 -392.49567 L-203.4848 -392.4958 L-203.4848 -299.4958 L-296.4848 -299.4958 L-296.48492 -392.49567 "/>
      </g>
    </g>
  </g>
</svg>
