<?xml version="1.0" encoding="UTF-8"?>
<svg xmlns="http://www.w3.org/2000/svg" height="288px" version="1.1" width="480px">
  <g style="fill:#861016;stroke:none;">
    <path d="M0.0 0.0 L480.0 0.0 L480.0 288.0 L0.0 288.0 L0.0 0.0 "/>
    <g style="">
      <g style="fill:#86634B;stroke:none;">
        <path d="M14.91832 -111.655396 L35.91832 -68.655396 L-6.0816803 -68.655396 L14.91832 -111.655396 "/>
      </g>
      <g style="fill:#86634B;stroke:none;">
        <path d="M28.908104 -83.00964 L0.9285202 -83.00964 L1.6551623 -84.49753 L3.202528 -87.66594 L4.9709454 -91.28699 L6.7393627 -94.908035 L8.50778 -98.52909 L10.276197 -102.15015 L12.044615 -105.7712 L13.813032 -109.39226 L14.91832 -111.655396 L16.686737 -108.03434 L18.455154 -104.41329 L20.223572 -100.79224 L21.99199 -97.17118 L23.760406 -93.550125 L25.528824 -89.92908 L27.297253 -86.30803 L28.908104 -83.00964 Z "/>
      </g>
      <g style="fill:#86634B;stroke:none;">
        <path d="M14.91832 -46.655396 L35.91832 -3.6553955 L-6.0816803 -3.6553955 L14.91832 -46.655396 "/>
      </g>
      <g style="fill:#865B3C;stroke:none;">
        <path d="M35.91832 -3.6553955 L-4.0816803 -3.6553955 L-5.4185224 -5.013283 L-3.6501012 -8.6343155 L-1.88168 -12.255348 L-0.11325884 -15.876381 L1.6551623 -19.497414 L3.202528 -22.665817 L4.9709454 -26.28685 L6.7393627 -29.907883 L8.50778 -33.528915 L10.276197 -37.14995 L12.044615 -40.77098 L13.813032 -44.392014 L14.91832 -46.655396 L16.686737 -43.034363 L18.455154 -39.41333 L20.223572 -35.792297 L21.99199 -32.171265 L23.760406 -28.550232 L25.528824 -24.9292 L27.297253 -21.308167 L29.065685 -17.687134 L30.834118 -14.066101 L32.60255 -10.445068 L34.370983 -6.8240356 L35.91832 -3.6553955 Z "/>
      </g>
      <g style="fill:#865B3C;stroke:none;">
        <path d="M14.91832 18.344604 L35.91832 61.344604 L-6.0816803 61.344604 L14.91832 18.344604 "/>
      </g>
      <g style="fill:#865B3C;stroke:none;">
        <path d="M35.91832 61.344604 L-4.0816803 61.344604 L-5.4185224 59.986694 L-3.6501012 56.3656 L-1.88168 52.744507 L-0.11325884 49.123413 L1.6551623 45.50232 L3.202528 42.333862 L4.9709454 38.71277 L6.7393627 35.091675 L8.50778 31.470581 L10.276197 27.849487 L12.044615 24.228394 L13.813032 20.6073 L14.91832 18.344604 L16.686737 21.965698 L18.455154 25.586792 L20.223572 29.207886 L21.99199 32.82898 L23.760406 36.450073 L25.528824 40.071167 L27.297253 43.69226 L29.065685 47.313354 L30.834118 50.93445 L32.60255 54.555542 L34.370983 58.176636 L35.91832 61.344604 Z "/>
      </g>
      <g style="fill:#86522D;stroke:none;">
        <path d="M14.91832 83.344604 L35.91832 126.344604 L-6.0816803 126.344604 L14.91832 83.344604 "/>
      </g>
      <g style="fill:#86522D;stroke:none;">
        <path d="M35.91832 126.344604 L-4.0816803 126.344604 L-5.4185224 124.986694 L-3.6501012 121.3656 L-1.88168 117.74451 L-0.11325884 114.12341 L1.6551623 110.50232 L3.202528 107.33386 L4.9709454 103.71277 L6.7393627 100.091675 L8.50778 96.47058 L10.276197 92.84949 L12.044615 89.22839 L13.813032 85.6073 L14.91832 83.344604 L16.686737 86.9657 L18.455154 90.58679 L20.223572 94.207886 L21.99199 97.82898 L23.760406 101.45007 L25.528824 105.07117 L27.297253 108.69226 L29.065685 112.313354 L30.834118 115.93445 L32.60255 119.55554 L34.370983 123.176636 L35.91832 126.344604 Z "/>
      </g>
      <g style="fill:#86522D;stroke:none;">
        <path d="M14.91832 148.3446 L35.91832 191.3446 L-6.0816803 191.3446 L14.91832 148.3446 "/>
      </g>
      <g style="fill:#864A1F;stroke:none;">
        <path d="M35.91832 191.3446 L-4.0816803 191.3446 L-5.4185224 189.9867 L-3.6501012 186.3656 L-1.88168 182.7445 L-0.11325884 179.12341 L1.6551623 175.50232 L3.202528 172.33386 L4.9709454 168.71277 L6.7393627 165.09167 L8.50778 161.47058 L10.276197 157.84949 L12.044615 154.2284 L13.813032 150.6073 L14.91832 148.3446 L16.686737 151.9657 L18.455154 155.58679 L20.223572 159.20789 L21.99199 162.82898 L23.760406 166.45007 L25.528824 170.07117 L27.297253 173.69226 L29.065685 177.31335 L30.834118 180.93445 L32.60255 184.55554 L34.370983 188.17664 L35.91832 191.3446 Z "/>
      </g>
      <g style="fill:#864A1F;stroke:none;">
        <path d="M14.91832 213.3446 L35.91832 256.3446 L-6.0816803 256.3446 L14.91832 213.3446 "/>
      </g>
      <g style="fill:#864A1F;stroke:none;">
        <path d="M35.91832 256.3446 L-4.0816803 256.3446 L-5.4185224 254.9867 L-3.6501012 251.3656 L-1.88168 247.7445 L-0.11325884 244.12341 L1.6551623 240.50232 L3.202528 237.33386 L4.9709454 233.71277 L6.7393627 230.09167 L8.50778 226.47058 L10.276197 222.84949 L12.044615 219.2284 L13.813032 215.6073 L14.91832 213.3446 L16.686737 216.9657 L18.455154 220.58679 L20.223572 224.20789 L21.99199 227.82898 L23.760406 231.45007 L25.528824 235.07117 L27.297253 238.69226 L29.065685 242.31335 L30.834118 245.93445 L32.60255 249.55554 L34.370983 253.17664 L35.91832 256.3446 Z "/>
      </g>
      <g style="fill:#864110;stroke:none;">
        <path d="M14.91832 278.3446 L35.91832 321.3446 L-6.0816803 321.3446 L14.91832 278.3446 "/>
      </g>
      <g style="fill:#107086;stroke:none;">
        <path d="M35.91832 321.3446 L-4.0816803 321.3446 L-5.4185224 319.9867 L-3.6501012 316.3656 L-1.88168 312.7445 L-0.11325884 309.1234 L1.6551623 305.50232 L3.202528 302.33386 L4.9709454 298.71277 L6.7393627 295.09167 L8.50778 291.47058 L10.276197 287.8495 L12.044615 284.2284 L13.813032 280.6073 L14.91832 278.3446 L16.686737 281.9657 L18.455154 285.5868 L20.223572 289.2079 L21.99199 292.82898 L23.760406 296.45007 L25.528824 300.07117 L27.297253 303.69226 L29.065685 307.31335 L30.834118 310.93445 L32.60255 314.55554 L34.370983 318.17664 L35.91832 321.3446 Z "/>
      </g>
      <g style="fill:#86634B;stroke:none;">
        <path d="M14.91832 343.3446 L35.91832 386.3446 L-6.0816803 386.3446 L14.91832 343.3446 "/>
      </g>
      <g style="fill:#86634B;stroke:none;">
        <path d="M35.91832 386.3446 L-4.0816803 386.3446 L-5.4185224 384.9867 L-3.6501012 381.3656 L-1.88168 377.7445 L-0.11325884 374.1234 L1.6551623 370.50232 L3.202528 367.33386 L4.9709454 363.71277 L6.7393627 360.09167 L8.50778 356.47058 L10.276197 352.8495 L12.044615 349.2284 L13.813032 345.6073 L14.91832 343.3446 L16.686737 346.9657 L18.455154 350.5868 L20.223572 354.2079 L21.99199 357.82898 L23.760406 361.45007 L25.528824 365.07117 L27.297253 368.69226 L29.065685 372.31335 L30.834118 375.93445 L32.60255 379.55554 L34.370983 383.17664 L35.91832 386.3446 Z "/>
      </g>
      <g style="fill:#86634B;stroke:none;">
        <path d="M53.97395 -95.0883 L101.82017 -95.94818 L84.070206 -57.883255 L53.97395 -95.0883 "/>
      </g>
      <g style="fill:#865B3C;stroke:none;">
        <path d="M83.1198 -59.05815 L80.58537 -62.191208 L78.05095 -65.324265 L75.516525 -68.45732 L72.9821 -71.59038 L70.76448 -74.3318 L68.23006 -77.46486 L65.69563 -80.597916 L63.16121 -83.73097 L60.626785 -86.86403 L58.09236 -89.997086 L55.557938 -93.13014 L53.97395 -95.0883 L58.003098 -95.16072 L62.032272 -95.23314 L66.06145 -95.30556 L70.09062 -95.377975 L74.1198 -95.45039 L78.14897 -95.52281 L82.17815 -95.59523 L86.20732 -95.66765 L90.236496 -95.74006 L94.26567 -95.81247 L98.294846 -95.88488 L101.82017 -95.94818 L100.10935 -92.27927 L98.39854 -88.61035 L96.68772 -84.94144 L95.19076 -81.73114 L93.47994 -78.062225 L91.76913 -74.39331 L90.05831 -70.724396 L88.347496 -67.05548 L86.63668 -63.386562 L84.925865 -59.717648 L83.1198 -59.05815 Z "/>
      </g>
      <g style="fill:#865B3C;stroke:none;">
        <path d="M53.973953 -30.088242 L101.82016 -30.94812 L84.070206 7.116806 L53.973953 -30.088242 "/>
      </g>
      <g style="fill:#865B3C;stroke:none;">
        <path d="M83.1198 5.94191 L80.58537 2.8088531 L78.05095 -0.3242035 L75.516525 -3.4572601 L72.9821 -6.590317 L70.76448 -9.331741 L68.23006 -12.464798 L65.69563 -15.597855 L63.16121 -18.730911 L60.626785 -21.863968 L58.09236 -24.997025 L55.557938 -28.130081 L53.973953 -30.088242 L58.003098 -30.16063 L62.032272 -30.233017 L66.06145 -30.305405 L70.09062 -30.377792 L74.1198 -30.45018 L78.14897 -30.522568 L82.17815 -30.594955 L86.20732 -30.667343 L90.236496 -30.73973 L94.26567 -30.812119 L98.294846 -30.884506 L101.82016 -30.94812 L100.109344 -27.279236 L98.39853 -23.610352 L96.68771 -19.941467 L95.19075 -16.731194 L93.479935 -13.062309 L91.76912 -9.393425 L90.058304 -5.7245407 L88.34749 -2.0556564 L86.63667 1.6132278 L84.92586 5.282112 L83.1198 5.94191 Z "/>
      </g>
      <g style="fill:#86522D;stroke:none;">
        <path d="M53.973907 34.9115 L101.820145 34.051605 L84.070175 72.11655 L53.973907 34.9115 "/>
      </g>
      <g style="fill:#86522D;stroke:none;">
        <path d="M83.11977 70.94165 L80.58534 67.80859 L78.05092 64.67554 L75.516495 61.54248 L72.98207 58.409424 L70.76445 55.668 L68.23003 52.534943 L65.6956 49.401886 L63.16118 46.26883 L60.626755 43.135773 L58.09233 40.002716 L55.557907 36.86966 L53.973907 34.9115 L58.00305 34.83911 L62.032227 34.766724 L66.0614 34.694336 L70.090576 34.62195 L74.11975 34.54956 L78.148926 34.477173 L82.1781 34.404785 L86.207275 34.332397 L90.23645 34.26001 L94.265625 34.187622 L98.2948 34.115234 L101.820145 34.051605 L100.129654 37.67685 L98.43916 41.302094 L96.74867 44.927338 L95.05818 48.55258 L93.36769 52.177826 L91.6772 55.80307 L89.98671 59.428314 L88.29622 63.05356 L86.60573 66.6788 L84.91524 70.30405 L83.11977 70.94165 Z "/>
      </g>
      <g style="fill:#86522D;stroke:none;">
        <path d="M53.974075 99.91138 L101.8203 99.05148 L84.07033 137.11642 L53.974075 99.91138 "/>
      </g>
      <g style="fill:#864A1F;stroke:none;">
        <path d="M83.11992 135.94153 L80.585495 132.80847 L78.05107 129.67542 L75.51665 126.54236 L72.98222 123.4093 L70.7646 120.66788 L68.23018 117.53482 L65.695755 114.401764 L63.16133 111.26871 L60.626907 108.13565 L58.092484 105.002594 L55.55806 101.86954 L53.974075 99.91138 L58.00322 99.83899 L62.032394 99.7666 L66.06157 99.694214 L70.090744 99.621826 L74.11992 99.54944 L78.14909 99.47705 L82.17827 99.40466 L86.20744 99.332275 L90.23662 99.25989 L94.26579 99.1875 L98.29497 99.11511 L101.8203 99.05148 L100.12981 102.67673 L98.439316 106.30197 L96.748825 109.927216 L95.058334 113.55246 L93.36784 117.177704 L91.67735 120.80295 L89.98686 124.42819 L88.29637 128.05344 L86.60588 131.67868 L84.91539 135.30392 L83.11992 135.94153 Z "/>
      </g>
      <g style="fill:#864A1F;stroke:none;">
        <path d="M53.974167 164.91125 L101.82039 164.05136 L84.07042 202.1163 L53.974167 164.91125 "/>
      </g>
      <g style="fill:#864A1F;stroke:none;">
        <path d="M83.12001 200.9414 L80.58559 197.80835 L78.05116 194.6753 L75.51674 191.54224 L72.982315 188.40918 L70.764694 185.66776 L68.23027 182.5347 L65.69585 179.40164 L63.161423 176.26859 L60.627 173.13553 L58.092575 170.00247 L55.55815 166.86942 L53.974167 164.91125 L58.00331 164.83875 L62.032486 164.76624 L66.06166 164.69373 L70.090836 164.62122 L74.12001 164.5487 L78.149185 164.4762 L82.17836 164.40369 L86.207535 164.33118 L90.23671 164.25867 L94.265884 164.18616 L98.29506 164.11365 L101.82039 164.05136 L100.1299 167.6766 L98.43941 171.30185 L96.74892 174.9271 L95.058426 178.55234 L93.367935 182.17758 L91.677444 185.80283 L89.98695 189.42807 L88.29646 193.05331 L86.60597 196.67856 L84.91548 200.3038 L83.12001 200.9414 Z "/>
      </g>
      <g style="fill:#864110;stroke:none;">
        <path d="M53.973953 229.9115 L101.820175 229.0516 L84.070206 267.11652 L53.973953 229.9115 "/>
      </g>
      <g style="fill:#107086;stroke:none;">
        <path d="M83.1198 265.94162 L80.58537 262.80856 L78.05095 259.6755 L75.516525 256.54245 L72.9821 253.4094 L70.76448 250.66797 L68.23006 247.53491 L65.69563 244.40186 L63.16121 241.2688 L60.626785 238.13574 L58.09236 235.00269 L55.557938 231.86963 L53.973953 229.9115 L58.003098 229.83899 L62.032272 229.76648 L66.06145 229.69397 L70.09062 229.62146 L74.1198 229.54895 L78.14897 229.47644 L82.17815 229.40393 L86.20732 229.33142 L90.236496 229.25891 L94.26567 229.1864 L98.294846 229.11389 L101.820175 229.0516 L100.10936 232.72055 L98.398544 236.3895 L96.68773 240.05844 L95.190765 243.26877 L93.47995 246.93771 L91.769135 250.60666 L90.05832 254.2756 L88.3475 257.94455 L86.63669 261.6135 L84.92587 265.28244 L83.1198 265.94162 Z "/>
      </g>
      <g style="fill:#86634B;stroke:none;">
        <path d="M53.974686 294.91083 L101.82091 294.05096 L84.07094 332.1159 L53.974686 294.91083 "/>
      </g>
      <g style="fill:#86634B;stroke:none;">
        <path d="M83.12053 330.941 L80.586105 327.80795 L78.05168 324.6749 L75.51726 321.54184 L72.982834 318.40878 L70.76521 315.66736 L68.23079 312.5343 L65.696365 309.40125 L63.16194 306.2682 L60.627518 303.13513 L58.093094 300.00208 L55.55867 296.86902 L53.974686 294.91083 L58.00383 294.83832 L62.033005 294.7658 L66.06218 294.6933 L70.091354 294.6208 L74.12053 294.54828 L78.149704 294.47577 L82.17888 294.40326 L86.20805 294.33075 L90.23723 294.25824 L94.2664 294.18573 L98.29558 294.11322 L101.82091 294.05096 L100.13042 297.6762 L98.439926 301.30145 L96.749435 304.9267 L95.058945 308.55194 L93.368454 312.1772 L91.67796 315.80243 L89.98747 319.42767 L88.29698 323.05292 L86.60649 326.67816 L84.916 330.3034 L83.12053 330.941 Z "/>
      </g>
      <g style="fill:#86634B;stroke:none;">
        <path d="M53.974045 359.91138 L101.82027 359.05148 L84.0703 397.1164 L53.974045 359.91138 "/>
      </g>
      <g style="fill:#865B3C;stroke:none;">
        <path d="M83.11989 395.9415 L80.585464 392.80844 L78.05104 389.67538 L75.51662 386.54233 L72.98219 383.40927 L70.76457 380.66785 L68.23015 377.5348 L65.695724 374.40173 L63.1613 371.26868 L60.626877 368.13562 L58.092453 365.00256 L55.55803 361.8695 L53.974045 359.91138 L58.00319 359.83887 L62.032364 359.76636 L66.06154 359.69385 L70.09071 359.62134 L74.11989 359.54883 L78.14906 359.47632 L82.17824 359.4038 L86.20741 359.3313 L90.23659 359.2588 L94.26576 359.18628 L98.29494 359.11377 L101.82027 359.05148 L100.10945 362.72043 L98.398636 366.38937 L96.68782 370.05832 L95.19086 373.26865 L93.48004 376.9376 L91.769226 380.60654 L90.05841 384.27548 L88.347595 387.94443 L86.63678 391.61337 L84.925964 395.28232 L83.11989 395.9415 Z "/>
      </g>
      <g style="fill:#865B3C;stroke:none;">
        <path d="M123.02437 -64.57308 L142.46573 -108.2999 L169.46281 -76.12602 L123.02437 -64.57308 "/>
      </g>
      <g style="fill:#865B3C;stroke:none;">
        <path d="M123.02437 -64.57308 L124.661575 -68.25533 L126.29878 -71.937584 L127.93599 -75.619835 L129.5732 -79.302086 L131.2104 -82.98434 L132.84761 -86.66659 L134.48482 -90.34884 L136.12202 -94.03109 L137.75923 -97.71335 L139.39644 -101.39561 L141.03365 -105.077866 L142.46573 -108.2999 L145.0369 -105.23572 L147.60806 -102.17154 L150.17923 -99.10736 L152.7504 -96.04318 L155.32156 -92.979004 L157.89273 -89.914825 L160.4639 -86.85065 L163.03506 -83.78647 L165.60623 -80.72229 L168.1774 -77.65811 L167.99632 -75.7612 L164.08568 -74.78833 L160.17503 -73.81546 L156.26439 -72.84259 L152.35374 -71.86972 L148.93193 -71.018456 L145.02129 -70.045586 L141.11064 -69.072716 L137.2 -68.099846 L133.28935 -67.126976 L129.37871 -66.154106 L125.46806 -65.18124 L123.02437 -64.57308 Z "/>
      </g>
      <g style="fill:#86522D;stroke:none;">
        <path d="M123.02405 0.42681885 L142.46541 -43.299988 L169.4625 -11.126129 L123.02405 0.42681885 "/>
      </g>
      <g style="fill:#86522D;stroke:none;">
        <path d="M123.02405 0.42681885 L124.661255 -3.2554321 L126.29846 -6.937683 L127.93567 -10.619934 L129.57288 -14.302185 L131.21008 -17.984436 L132.84729 -21.666687 L134.4845 -25.348938 L136.1217 -29.031189 L137.75891 -32.71344 L139.39612 -36.39569 L141.03333 -40.07794 L142.46541 -43.299988 L145.03658 -40.23584 L147.60774 -37.17169 L150.17891 -34.107544 L152.75008 -31.043396 L155.32124 -27.979248 L157.89241 -24.9151 L160.46358 -21.850952 L163.03474 -18.786804 L165.60591 -15.722656 L168.17708 -12.658508 L167.996 -10.7612915 L164.08536 -9.788391 L160.17471 -8.815491 L156.26407 -7.8425903 L152.35342 -6.86969 L148.93161 -6.018402 L145.02097 -5.0455017 L141.11032 -4.0726013 L137.19968 -3.099701 L133.28903 -2.1268005 L129.37839 -1.1539001 L125.46774 -0.18099976 L123.02405 0.42681885 Z "/>
      </g>
      <g style="fill:#86522D;stroke:none;">
        <path d="M123.024155 65.42645 L142.4655 21.699646 L169.4626 53.87352 L123.024155 65.42645 "/>
      </g>
      <g style="fill:#864A1F;stroke:none;">
        <path d="M123.024155 65.42645 L124.66136 61.7442 L126.29857 58.06195 L127.935776 54.3797 L129.57298 50.69745 L131.21019 47.015198 L132.8474 43.332947 L134.4846 39.650696 L136.12181 35.968445 L137.75902 32.286194 L139.39622 28.603943 L141.03343 24.921692 L142.4655 21.699646 L145.03667 24.763855 L147.60783 27.828064 L150.179 30.892273 L152.75017 33.956482 L155.32133 37.02069 L157.8925 40.0849 L160.46367 43.14911 L163.03484 46.213318 L165.606 49.277527 L168.17717 52.341736 L167.99611 54.238358 L164.08546 55.211258 L160.17482 56.18416 L156.26418 57.15706 L152.35353 58.12996 L148.93172 58.981247 L145.02107 59.954147 L141.11043 60.927048 L137.19978 61.89995 L133.28914 62.87285 L129.3785 63.84575 L125.46785 64.81865 L123.024155 65.42645 Z "/>
      </g>
      <g style="fill:#864A1F;stroke:none;">
        <path d="M123.024124 130.42615 L142.46547 86.69934 L169.46255 118.8732 L123.024124 130.42615 "/>
      </g>
      <g style="fill:#864A1F;stroke:none;">
        <path d="M123.024124 130.42615 L124.66133 126.7439 L126.29854 123.061646 L127.935745 119.379395 L129.57295 115.69714 L131.21016 112.01489 L132.84737 108.33264 L134.48457 104.65039 L136.12178 100.96814 L137.75899 97.28589 L139.3962 93.60364 L141.0334 89.92139 L142.46547 86.69934 L145.03664 89.76355 L147.6078 92.82776 L150.17897 95.89197 L152.75014 98.95618 L155.3213 102.020386 L157.89247 105.084595 L160.46364 108.1488 L163.0348 111.21301 L165.60597 114.27722 L168.17714 117.34143 L167.99606 119.23804 L164.08542 120.21094 L160.17477 121.18384 L156.26413 122.15674 L152.35349 123.12964 L148.93167 123.98093 L145.02103 124.95383 L141.11038 125.92673 L137.19974 126.89963 L133.2891 127.87253 L129.37845 128.84543 L125.467804 129.81833 L123.024124 130.42615 Z "/>
      </g>
      <g style="fill:#864110;stroke:none;">
        <path d="M123.02411 195.42642 L142.46547 151.69962 L169.46257 183.87347 L123.02411 195.42642 "/>
      </g>
      <g style="fill:#107086;stroke:none;">
        <path d="M123.02411 195.42642 L124.661316 191.74405 L126.29852 188.06168 L127.93573 184.3793 L129.57294 180.69693 L131.21014 177.01456 L132.84735 173.33218 L134.48456 169.64981 L136.12177 165.96744 L137.75897 162.28506 L139.39618 158.60269 L141.03339 154.92032 L142.46547 151.69962 L145.03664 154.76382 L147.6078 157.82803 L150.17897 160.89224 L152.75014 163.95645 L155.3213 167.02066 L157.89247 170.08487 L160.46364 173.14908 L163.0348 176.21329 L165.60597 179.2775 L168.17714 182.3417 L167.99608 184.23831 L164.08543 185.21121 L160.17479 186.18411 L156.26414 187.15701 L152.3535 188.12991 L148.93169 188.9812 L145.02104 189.9541 L141.1104 190.927 L137.19975 191.8999 L133.28911 192.8728 L129.37846 193.8457 L125.46782 194.8186 L123.02411 195.42642 Z "/>
      </g>
      <g style="fill:#86634B;stroke:none;">
        <path d="M123.02405 260.42648 L142.46541 216.69965 L169.4625 248.87354 L123.02405 260.42648 "/>
      </g>
      <g style="fill:#86634B;stroke:none;">
        <path d="M123.02405 260.42648 L124.661255 256.7441 L126.29846 253.06174 L127.93567 249.37936 L129.57288 245.69699 L131.21008 242.01462 L132.84729 238.33224 L134.4845 234.64987 L136.1217 230.9675 L137.75891 227.28513 L139.39612 223.60275 L141.03333 219.92038 L142.46541 216.69965 L145.03658 219.76385 L147.60774 222.82806 L150.17891 225.89227 L152.75008 228.95648 L155.32124 232.02069 L157.89241 235.0849 L160.46358 238.14911 L163.03474 241.21332 L165.60591 244.27753 L168.17708 247.34174 L167.996 249.23837 L164.08536 250.21127 L160.17471 251.18417 L156.26407 252.15707 L152.35342 253.12997 L148.93161 253.98126 L145.02097 254.95416 L141.11032 255.92706 L137.19968 256.89996 L133.28903 257.87286 L129.37839 258.84576 L125.46774 259.81866 L123.02405 260.42648 Z "/>
      </g>
      <g style="fill:#86634B;stroke:none;">
        <path d="M123.02469 325.42047 L142.46605 281.69366 L169.46313 313.86755 L123.02469 325.42047 "/>
      </g>
      <g style="fill:#865B3C;stroke:none;">
        <path d="M123.02469 325.42047 L124.661896 321.7381 L126.2991 318.05573 L127.93631 314.37335 L129.57352 310.69098 L131.21072 307.0086 L132.84793 303.32623 L134.48514 299.64386 L136.12234 295.9615 L137.75955 292.2791 L139.39676 288.59674 L141.03397 284.91437 L142.46605 281.69366 L145.03722 284.75787 L147.60838 287.82208 L150.17955 290.8863 L152.75072 293.9505 L155.32188 297.0147 L157.89305 300.07892 L160.46422 303.14313 L163.03539 306.20734 L165.60655 309.27155 L168.17772 312.33575 L167.99664 314.2324 L164.086 315.2053 L160.17535 316.1782 L156.26471 317.1511 L152.35406 318.124 L148.93225 318.97528 L145.0216 319.94818 L141.11096 320.92108 L137.20032 321.89398 L133.28967 322.86688 L129.37903 323.83978 L125.46838 324.81268 L123.02469 325.42047 Z "/>
      </g>
      <g style="fill:#865B3C;stroke:none;">
        <path d="M123.023926 390.4259 L142.4653 346.6991 L169.46237 378.87296 L123.023926 390.4259 "/>
      </g>
      <g style="fill:#865B3C;stroke:none;">
        <path d="M123.023926 390.4259 L124.66113 386.74353 L126.29834 383.06116 L127.93555 379.37878 L129.57275 375.6964 L131.20996 372.01404 L132.84717 368.33167 L134.48438 364.6493 L136.12158 360.96692 L137.75879 357.28455 L139.396 353.60217 L141.0332 349.9198 L142.4653 346.6991 L145.06747 349.80017 L147.66965 352.90125 L150.27182 356.00232 L152.54872 358.71576 L155.1509 361.81683 L157.75307 364.9179 L160.35524 368.01898 L162.95741 371.12006 L165.55959 374.22113 L168.16176 377.3222 L167.99588 379.2378 L164.08524 380.2107 L160.17459 381.1836 L156.26395 382.1565 L152.3533 383.1294 L148.93149 383.98068 L145.02084 384.95358 L141.1102 385.92648 L137.19955 386.89938 L133.28891 387.87228 L129.37827 388.84518 L125.46762 389.81808 L123.023926 390.4259 Z "/>
      </g>
      <g style="fill:#86522D;stroke:none;">
        <path d="M217.3926 -55.3478 L185.97893 -91.44742 L226.54782 -102.31781 L217.3926 -55.3478 "/>
      </g>
      <g style="fill:#86522D;stroke:none;">
        <path d="M217.3926 -55.3478 L214.74721 -58.38778 L212.10182 -61.427757 L209.45644 -64.467735 L206.81105 -67.50771 L204.16566 -70.54769 L201.52028 -73.58767 L198.8749 -76.62765 L196.2295 -79.667625 L193.58412 -82.70759 L190.93874 -85.74755 L188.29335 -88.78751 L185.97893 -91.44742 L189.84258 -92.4827 L193.70622 -93.517975 L197.56987 -94.55325 L201.43352 -95.58853 L205.29716 -96.62381 L209.16081 -97.65909 L213.02446 -98.69437 L216.8881 -99.729645 L220.75175 -100.76492 L224.6154 -101.8002 L226.2587 -100.83455 L225.4877 -96.87918 L224.7167 -92.92381 L223.94571 -88.968445 L223.17471 -85.01308 L222.50009 -81.552124 L221.7291 -77.59675 L220.9581 -73.641365 L220.1871 -69.68598 L219.4161 -65.7306 L218.64511 -61.775215 L217.87411 -57.81983 L217.3926 -55.3478 Z "/>
      </g>
      <g style="fill:#86522D;stroke:none;">
        <path d="M217.39273 9.652405 L185.97908 -26.447205 L226.54796 -37.317596 L217.39273 9.652405 "/>
      </g>
      <g style="fill:#864A1F;stroke:none;">
        <path d="M217.39273 9.652405 L214.74734 6.6124268 L212.10196 3.5724487 L209.45657 0.5324707 L206.81119 -2.5075073 L204.1658 -5.5474854 L201.52042 -8.587463 L198.87503 -11.627441 L196.22964 -14.667419 L193.58426 -17.707397 L190.93887 -20.747375 L188.29349 -23.787354 L185.97908 -26.447205 L189.88936 -27.494934 L193.79964 -28.542664 L197.70992 -29.590393 L201.13141 -30.507156 L205.04169 -31.554886 L208.95197 -32.602615 L212.86224 -33.650345 L216.77252 -34.698074 L220.6828 -35.745804 L224.59308 -36.793533 L226.25883 -35.834328 L225.48784 -31.878944 L224.71684 -27.923561 L223.94585 -23.968178 L223.17485 -20.012794 L222.50023 -16.551834 L221.72923 -12.596451 L220.95824 -8.6410675 L220.18724 -4.685684 L219.41624 -0.7303009 L218.64525 3.2250824 L217.87425 7.1804657 L217.39273 9.652405 Z "/>
      </g>
      <g style="fill:#864A1F;stroke:none;">
        <path d="M217.39177 74.65225 L185.9781 38.552628 L226.54701 27.682236 L217.39177 74.65225 "/>
      </g>
      <g style="fill:#864A1F;stroke:none;">
        <path d="M217.39177 74.65225 L214.74638 71.612335 L212.101 68.57242 L209.45561 65.5325 L206.81023 62.492584 L204.16484 59.452667 L201.51945 56.41275 L198.87407 53.372833 L196.22868 50.332916 L193.5833 47.293 L190.93791 44.253082 L188.29253 41.213165 L185.9781 38.552628 L189.84175 37.51735 L193.7054 36.48207 L197.56905 35.446793 L201.4327 34.411514 L205.29634 33.376236 L209.15999 32.340958 L213.02364 31.30568 L216.88728 30.270401 L220.75093 29.235123 L224.61458 28.199844 L226.25789 29.165482 L225.4869 33.120804 L224.7159 37.076126 L223.9449 41.03145 L223.1739 44.98677 L222.49928 48.447678 L221.72829 52.403 L220.95729 56.358322 L220.1863 60.313644 L219.4153 64.26897 L218.6443 68.22429 L217.8733 72.17961 L217.39177 74.65225 Z "/>
      </g>
      <g style="fill:#864110;stroke:none;">
        <path d="M217.39088 139.65143 L185.97722 103.55182 L226.54611 92.68143 L217.39088 139.65143 "/>
      </g>
      <g style="fill:#107086;stroke:none;">
        <path d="M217.39088 139.65143 L214.7455 136.61151 L212.10011 133.5716 L209.45473 130.53168 L206.80934 127.49176 L204.16396 124.45184 L201.51857 121.41193 L198.87318 118.37201 L196.2278 115.33209 L193.58241 112.292175 L190.93703 109.25226 L188.29164 106.21234 L185.97722 103.55182 L189.84087 102.51654 L193.70451 101.48126 L197.56816 100.445984 L201.43181 99.410706 L205.29546 98.37543 L209.1591 97.34015 L213.02275 96.30487 L216.8864 95.26959 L220.75005 94.234314 L224.6137 93.199036 L226.25699 94.16467 L225.486 98.119995 L224.715 102.07532 L223.944 106.03064 L223.173 109.98596 L222.49838 113.44687 L221.72739 117.40219 L220.95639 121.35751 L220.1854 125.312836 L219.4144 129.26816 L218.6434 133.22348 L217.8724 137.1788 L217.39088 139.65143 Z "/>
      </g>
      <g style="fill:#86634B;stroke:none;">
        <path d="M217.39037 204.65067 L185.9767 168.55106 L226.54558 157.68066 L217.39037 204.65067 "/>
      </g>
      <g style="fill:#86634B;stroke:none;">
        <path d="M217.39037 204.65067 L214.74498 201.61063 L212.0996 198.57059 L209.45421 195.53055 L206.80882 192.49051 L204.16344 189.45047 L201.51805 186.41043 L198.87267 183.37039 L196.22728 180.33035 L193.5819 177.29031 L190.93651 174.25027 L188.29112 171.21024 L185.9767 168.55106 L189.88698 167.5032 L193.79726 166.45535 L197.70753 165.4075 L201.12903 164.49063 L205.0393 163.44278 L208.94958 162.39493 L212.85986 161.34708 L216.77014 160.29922 L220.68042 159.25137 L224.5907 158.20352 L226.25645 159.16391 L225.48546 163.11923 L224.71446 167.07455 L223.94347 171.02988 L223.17247 174.9852 L222.49785 178.4461 L221.72685 182.40143 L220.95586 186.35675 L220.18486 190.31207 L219.41386 194.2674 L218.64287 198.22272 L217.87187 202.17804 L217.39037 204.65067 Z "/>
      </g>
      <g style="fill:#86634B;stroke:none;">
        <path d="M217.39195 269.65167 L185.97829 233.55206 L226.5472 222.68167 L217.39195 269.65167 "/>
      </g>
      <g style="fill:#865B3C;stroke:none;">
        <path d="M217.39195 269.65167 L214.74657 266.61163 L212.10118 263.5716 L209.4558 260.53156 L206.81041 257.49152 L204.16502 254.45148 L201.51964 251.41144 L198.87425 248.3714 L196.22887 245.33136 L193.58348 242.29132 L190.9381 239.25128 L188.29271 236.21124 L185.97829 233.55206 L189.84193 232.5169 L193.70558 231.48175 L197.56923 230.4466 L201.43288 229.41144 L205.29652 228.37628 L209.16017 227.34113 L213.02382 226.30597 L216.88747 225.27081 L220.75111 224.23566 L224.61476 223.2005 L226.25807 224.16492 L225.48708 228.12024 L224.71608 232.07556 L223.94508 236.03088 L223.17409 239.9862 L222.49947 243.44711 L221.72847 247.40244 L220.95747 251.35776 L220.18648 255.31308 L219.41548 259.2684 L218.64449 263.22372 L217.87349 267.17905 L217.39195 269.65167 Z "/>
      </g>
      <g style="fill:#865B3C;stroke:none;">
        <path d="M217.39235 334.65265 L185.97868 298.553 L226.54759 287.68262 L217.39235 334.65265 "/>
      </g>
      <g style="fill:#865B3C;stroke:none;">
        <path d="M217.39235 334.65265 L214.74696 331.6126 L212.10158 328.57257 L209.45619 325.53253 L206.8108 322.4925 L204.16542 319.45245 L201.52003 316.4124 L198.87465 313.37238 L196.22926 310.33234 L193.58388 307.2923 L190.93849 304.25226 L188.2931 301.21222 L185.97868 298.553 L189.84233 297.51785 L193.70598 296.4827 L197.56963 295.44754 L201.43327 294.41238 L205.29692 293.37723 L209.16057 292.34207 L213.02422 291.30692 L216.88786 290.27176 L220.75151 289.2366 L224.61516 288.20145 L226.25847 289.16586 L225.48747 293.1212 L224.71648 297.0765 L223.94548 301.03183 L223.17448 304.98715 L222.49986 308.44806 L221.72887 312.40338 L220.95787 316.3587 L220.18687 320.31403 L219.41588 324.26935 L218.64488 328.22467 L217.87389 332.18 L217.39235 334.65265 Z "/>
      </g>
      <g style="fill:#86522D;stroke:none;">
        <path d="M217.39397 399.6554 L185.98027 363.5558 L226.54918 352.6854 L217.39397 399.6554 "/>
      </g>
      <g style="fill:#86522D;stroke:none;">
        <path d="M217.39397 399.6554 L214.74858 396.61536 L212.1032 393.57532 L209.45781 390.53528 L206.81242 387.49524 L204.16704 384.4552 L201.52165 381.41516 L198.87627 378.37512 L196.23088 375.33508 L193.5855 372.29504 L190.94011 369.255 L188.29472 366.21497 L185.98027 363.5558 L189.84392 362.52063 L193.70757 361.48547 L197.57121 360.45032 L201.43486 359.41516 L205.29851 358.38 L209.16216 357.34485 L213.0258 356.3097 L216.88945 355.27454 L220.7531 354.23938 L224.61674 353.20422 L226.26006 354.16864 L225.48906 358.12396 L224.71806 362.07928 L223.94707 366.0346 L223.17607 369.98993 L222.50145 373.45084 L221.73045 377.40616 L220.95946 381.36148 L220.18846 385.3168 L219.41747 389.27213 L218.64647 393.22745 L217.87547 397.18277 L217.39397 399.6554 Z "/>
      </g>
      <g style="fill:#86522D;stroke:none;">
        <path d="M303.16333 -78.06497 L257.16998 -64.85086 L264.4632 -106.2128 L303.16333 -78.06497 "/>
      </g>
      <g style="fill:#864A1F;stroke:none;">
        <path d="M257.16998 -64.85086 L257.86456 -68.7901 L258.55914 -72.72934 L259.25372 -76.66858 L259.9483 -80.60782 L260.64288 -84.54706 L261.33746 -88.4863 L262.03204 -92.42554 L262.72662 -96.36478 L263.4212 -100.30401 L264.11578 -104.24324 L265.6853 -105.32392 L268.94434 -102.953575 L272.20337 -100.58323 L275.4624 -98.21288 L278.72144 -95.84254 L281.57312 -93.768486 L284.83215 -91.39814 L288.0912 -89.027794 L291.35022 -86.65745 L294.60925 -84.2871 L297.8683 -81.916756 L301.12732 -79.54641 L303.16333 -78.06497 L299.29028 -76.95221 L295.41724 -75.83945 L291.5442 -74.726685 L287.67114 -73.61392 L283.7981 -72.50116 L279.92505 -71.3884 L276.052 -70.275635 L272.17896 -69.16287 L268.3059 -68.05011 L264.43286 -66.93735 L260.5598 -65.824585 L257.16998 -64.85086 Z "/>
      </g>
      <g style="fill:#864A1F;stroke:none;">
        <path d="M303.16364 -13.065063 L257.1703 0.14904785 L264.4635 -41.21289 L303.16364 -13.065063 "/>
      </g>
      <g style="fill:#864A1F;stroke:none;">
        <path d="M257.1703 0.14904785 L257.86487 -3.7901611 L258.55945 -7.72937 L259.25403 -11.668579 L259.9486 -15.607788 L260.6432 -19.546997 L261.33777 -23.486206 L262.03235 -27.425415 L262.72693 -31.364624 L263.4215 -35.303833 L264.1161 -39.243042 L265.6856 -40.324005 L268.94464 -37.953644 L272.20367 -35.583282 L275.4627 -33.21292 L278.72174 -30.84256 L281.57343 -28.768494 L284.83246 -26.398132 L288.0915 -24.027771 L291.35052 -21.65741 L294.60956 -19.287048 L297.8686 -16.916687 L301.12762 -14.546326 L303.16364 -13.065063 L299.2906 -11.9522705 L295.41754 -10.839478 L291.5445 -9.726685 L287.67145 -8.613892 L283.7984 -7.5010986 L279.92535 -6.3883057 L276.0523 -5.2755127 L272.17926 -4.1627197 L268.3062 -3.0499268 L264.43317 -1.9371338 L260.56012 -0.8243408 L257.1703 0.14904785 Z "/>
      </g>
      <g style="fill:#864110;stroke:none;">
        <path d="M303.16333 51.93483 L257.16998 65.14894 L264.4632 23.787003 L303.16333 51.93483 "/>
      </g>
      <g style="fill:#107086;stroke:none;">
        <path d="M257.16998 65.14894 L257.86456 61.209732 L258.55914 57.270523 L259.25372 53.331314 L259.9483 49.392105 L260.64288 45.452896 L261.33746 41.513687 L262.03204 37.57448 L262.72662 33.63527 L263.4212 29.69606 L264.11578 25.756851 L265.6853 24.675888 L268.94434 27.04625 L272.20337 29.41661 L275.4624 31.786972 L278.72144 34.157333 L281.57312 36.2314 L284.83215 38.60176 L288.0912 40.972122 L291.35022 43.342484 L294.60925 45.712845 L297.8683 48.083206 L301.12732 50.453568 L303.16333 51.93483 L299.29028 53.047623 L295.41724 54.160416 L291.5442 55.27321 L287.67114 56.386 L283.7981 57.498795 L279.92505 58.611588 L276.052 59.72438 L272.17896 60.837173 L268.3059 61.949966 L264.43286 63.06276 L260.5598 64.17555 L257.16998 65.14894 Z "/>
      </g>
      <g style="fill:#86634B;stroke:none;">
        <path d="M303.1634 116.93544 L257.17004 130.14955 L264.46326 88.78761 L303.1634 116.93544 "/>
      </g>
      <g style="fill:#86634B;stroke:none;">
        <path d="M257.17004 130.14955 L257.86462 126.21034 L258.5592 122.27113 L259.25378 118.331924 L259.94836 114.392715 L260.64294 110.45351 L261.33752 106.5143 L262.0321 102.57509 L262.72668 98.63588 L263.42126 94.69667 L264.11584 90.75746 L265.68542 89.6765 L268.94446 92.04686 L272.2035 94.41722 L275.46252 96.78758 L278.72156 99.15794 L281.57318 101.23201 L284.8322 103.60237 L288.09125 105.97273 L291.35028 108.343094 L294.6093 110.713455 L297.86835 113.08382 L301.12738 115.45418 L303.1634 116.93544 L299.29034 118.04823 L295.4173 119.161026 L291.54425 120.27382 L287.6712 121.38661 L283.79816 122.499405 L279.9251 123.6122 L276.05206 124.72499 L272.17902 125.83778 L268.30597 126.95058 L264.43292 128.06337 L260.55988 129.17616 L257.17004 130.14955 Z "/>
      </g>
      <g style="fill:#86634B;stroke:none;">
        <path d="M303.16187 181.93445 L257.16852 195.14856 L264.46173 153.78662 L303.16187 181.93445 "/>
      </g>
      <g style="fill:#865B3C;stroke:none;">
        <path d="M257.16852 195.14856 L257.8631 191.20935 L258.55768 187.27014 L259.25226 183.33093 L259.94684 179.39172 L260.64142 175.45251 L261.336 171.5133 L262.03058 167.5741 L262.72516 163.63489 L263.41974 159.69568 L264.11432 155.75647 L265.6839 154.6755 L268.94293 157.04587 L272.20197 159.41623 L275.461 161.78659 L278.72003 164.15695 L281.57166 166.23102 L284.8307 168.60138 L288.08972 170.97174 L291.34875 173.3421 L294.6078 175.71246 L297.86682 178.08282 L301.12585 180.45319 L303.16187 181.93445 L299.28882 183.04724 L295.41577 184.16003 L291.54272 185.27283 L287.66968 186.38562 L283.79663 187.49841 L279.92358 188.6112 L276.05054 189.724 L272.1775 190.83679 L268.30444 191.94958 L264.4314 193.06238 L260.55835 194.17517 L257.16852 195.14856 Z "/>
      </g>
      <g style="fill:#865B3C;stroke:none;">
        <path d="M303.16486 246.93536 L257.1715 260.14948 L264.46472 218.78754 L303.16486 246.93536 "/>
      </g>
      <g style="fill:#865B3C;stroke:none;">
        <path d="M257.1715 260.14948 L257.8661 256.21027 L258.56067 252.27106 L259.25525 248.33185 L259.94983 244.39264 L260.6444 240.45343 L261.339 236.51422 L262.03357 232.57501 L262.72815 228.6358 L263.42273 224.6966 L264.1173 220.75739 L265.6869 219.67642 L268.94592 222.04678 L272.20496 224.41714 L275.464 226.7875 L278.72302 229.15787 L281.57465 231.23193 L284.83368 233.6023 L288.0927 235.97266 L291.35175 238.34302 L294.61078 240.71338 L297.8698 243.08374 L301.12885 245.4541 L303.16486 246.93536 L299.2918 248.04816 L295.41876 249.16095 L291.54572 250.27374 L287.67267 251.38654 L283.79962 252.49933 L279.92657 253.61212 L276.05353 254.72491 L272.18048 255.8377 L268.30743 256.9505 L264.4344 258.0633 L260.56134 259.1761 L257.1715 260.14948 Z "/>
      </g>
      <g style="fill:#86522D;stroke:none;">
        <path d="M303.16272 311.935 L257.16937 325.1491 L264.4626 283.78717 L303.16272 311.935 "/>
      </g>
      <g style="fill:#86522D;stroke:none;">
        <path d="M257.16937 325.1491 L257.86395 321.2099 L258.55853 317.2707 L259.2531 313.33148 L259.9477 309.39227 L260.64227 305.45306 L261.33685 301.51385 L262.03143 297.57465 L262.726 293.63544 L263.4206 289.69623 L264.11517 285.75702 L265.68475 284.67606 L268.9438 287.04642 L272.20282 289.41678 L275.46185 291.78714 L278.7209 294.1575 L281.5725 296.23157 L284.83154 298.60193 L288.09058 300.9723 L291.3496 303.34265 L294.60864 305.713 L297.86768 308.08337 L301.1267 310.45374 L303.16272 311.935 L299.28967 313.0478 L295.41663 314.16058 L291.54358 315.27338 L287.67053 316.38617 L283.7975 317.49896 L279.92444 318.61176 L276.0514 319.72455 L272.17834 320.83734 L268.3053 321.95013 L264.43225 323.06293 L260.5592 324.17572 L257.16937 325.1491 Z "/>
      </g>
      <g style="fill:#86522D;stroke:none;">
        <path d="M303.16205 376.93518 L257.16876 390.1493 L264.46198 348.78735 L303.16205 376.93518 "/>
      </g>
      <g style="fill:#864A1F;stroke:none;">
        <path d="M257.16876 390.1493 L257.86334 386.21008 L258.55792 382.27087 L259.2525 378.33167 L259.94708 374.39246 L260.64166 370.45325 L261.33624 366.51404 L262.03082 362.57483 L262.7254 358.63562 L263.41998 354.6964 L264.11456 350.7572 L265.68408 349.67624 L268.9431 352.0466 L272.20215 354.41696 L275.46118 356.78732 L278.7202 359.15768 L281.5719 361.23175 L284.83093 363.6021 L288.08997 365.97247 L291.349 368.34283 L294.60803 370.7132 L297.86707 373.08356 L301.1261 375.45392 L303.16205 376.93518 L299.289 378.04797 L295.41595 379.16077 L291.5429 380.27356 L287.66986 381.38635 L283.7968 382.49915 L279.92377 383.61194 L276.05072 384.72473 L272.17767 385.83752 L268.30463 386.95032 L264.43158 388.0631 L260.55853 389.1759 L257.16876 390.1493 Z "/>
      </g>
      <g style="fill:#864A1F;stroke:none;">
        <path d="M356.354 -106.49193 L348.8924 -59.22328 L314.48804 -83.31349 L356.354 -106.49193 "/>
      </g>
      <g style="fill:#864A1F;stroke:none;">
        <path d="M348.8924 -59.22328 L345.61578 -61.517593 L342.33917 -63.811905 L339.06256 -66.10622 L335.78595 -68.40053 L332.50934 -70.69484 L329.23273 -72.98915 L325.95612 -75.28346 L322.6795 -77.577774 L319.4029 -79.872086 L316.12628 -82.1664 L315.81012 -84.04544 L319.33575 -85.997314 L322.8614 -87.94919 L326.38702 -89.90106 L329.91266 -91.852936 L332.99762 -93.56083 L336.52325 -95.5127 L340.0489 -97.46457 L343.57452 -99.416435 L347.10016 -101.3683 L350.6258 -103.32017 L354.15143 -105.27203 L356.354 -106.49193 L355.7256 -102.51141 L355.09717 -98.5309 L354.46875 -94.550385 L353.84033 -90.56987 L353.2119 -86.589355 L352.5835 -82.60884 L351.95508 -78.62832 L351.32666 -74.64779 L350.69824 -70.66726 L350.06982 -66.68673 L349.4414 -62.7062 L348.8924 -59.22328 Z "/>
      </g>
      <g style="fill:#864110;stroke:none;">
        <path d="M356.354 -41.491898 L348.8924 5.7767487 L314.48804 -18.313461 L356.354 -41.491898 "/>
      </g>
      <g style="fill:#107086;stroke:none;">
        <path d="M348.8924 5.7767487 L345.61578 3.4824371 L342.33917 1.1881256 L339.06256 -1.1061859 L335.78595 -3.4004974 L332.50934 -5.694809 L329.23273 -7.9891205 L325.95612 -10.283432 L322.6795 -12.577744 L319.4029 -14.872055 L316.12628 -17.166367 L315.81012 -19.045403 L319.33575 -20.997246 L322.8614 -22.94909 L326.38702 -24.900932 L329.91266 -26.852776 L332.99762 -28.560638 L336.52325 -30.512482 L340.0489 -32.464325 L343.57452 -34.41617 L347.10016 -36.36801 L350.6258 -38.319855 L354.15143 -40.271698 L356.354 -41.491898 L355.7256 -37.511368 L355.09717 -33.530838 L354.46875 -29.550308 L353.84033 -25.569778 L353.2119 -21.589249 L352.5835 -17.608719 L351.95508 -13.628189 L351.32666 -9.647659 L350.69824 -5.6671295 L350.06982 -1.6865997 L349.4414 2.29393 L348.8924 5.7767487 Z "/>
      </g>
      <g style="fill:#86634B;stroke:none;">
        <path d="M356.35364 23.508392 L348.89203 70.77704 L314.48767 46.68683 L356.35364 23.508392 "/>
      </g>
      <g style="fill:#86634B;stroke:none;">
        <path d="M348.89203 70.77704 L345.61542 68.48273 L342.3388 66.188416 L339.0622 63.894104 L335.78558 61.599792 L332.50897 59.30548 L329.23236 57.01117 L325.95575 54.716858 L322.67914 52.422546 L319.40253 50.128235 L316.12592 47.833923 L315.80975 45.954865 L319.3354 44.00296 L322.86102 42.051056 L326.38666 40.09915 L329.9123 38.147247 L332.99725 36.43933 L336.5229 34.487427 L340.04852 32.535522 L343.57416 30.583618 L347.0998 28.631714 L350.62543 26.67981 L354.15106 24.727905 L356.35364 23.508392 L355.72522 27.488861 L355.0968 31.46933 L354.46838 35.4498 L353.83997 39.430267 L353.21155 43.410736 L352.58313 47.391205 L351.9547 51.371674 L351.3263 55.352142 L350.69788 59.33261 L350.06946 63.31308 L349.44104 67.29355 L348.89203 70.77704 Z "/>
      </g>
      <g style="fill:#86634B;stroke:none;">
        <path d="M356.35443 88.50775 L348.89282 135.7764 L314.4884 111.68619 L356.35443 88.50775 "/>
      </g>
      <g style="fill:#865B3C;stroke:none;">
        <path d="M348.89282 135.7764 L345.6162 133.48209 L342.3396 131.18777 L339.063 128.89346 L335.78638 126.59915 L332.50977 124.30484 L329.23315 122.01053 L325.95654 119.71622 L322.67993 117.421906 L319.40332 115.127594 L316.1267 112.83328 L315.8105 110.95422 L319.33612 109.00232 L322.86176 107.050415 L326.3874 105.09851 L329.91302 103.14661 L332.998 101.43869 L336.52362 99.486786 L340.04926 97.53488 L343.5749 95.58298 L347.10052 93.63107 L350.62616 91.67917 L354.1518 89.727264 L356.35443 88.50775 L355.726 92.48822 L355.0976 96.46869 L354.46918 100.44916 L353.84076 104.42963 L353.21234 108.410095 L352.58392 112.390564 L351.9555 116.37103 L351.3271 120.3515 L350.69867 124.33197 L350.07025 128.31244 L349.44183 132.29291 L348.89282 135.7764 Z "/>
      </g>
      <g style="fill:#865B3C;stroke:none;">
        <path d="M356.35455 153.50769 L348.89294 200.7763 L314.48853 176.6861 L356.35455 153.50769 "/>
      </g>
      <g style="fill:#865B3C;stroke:none;">
        <path d="M348.89294 200.7763 L345.61633 198.48212 L342.33972 196.18793 L339.0631 193.89374 L335.7865 191.59955 L332.5099 189.30536 L329.23328 187.01117 L325.95667 184.71698 L322.68005 182.42279 L319.40344 180.1286 L316.12683 177.83441 L315.81067 175.95413 L319.3363 174.00223 L322.86194 172.05032 L326.38757 170.09842 L329.9132 168.14651 L332.9981 166.4386 L336.52374 164.4867 L340.04938 162.53479 L343.575 160.58289 L347.10065 158.63098 L350.62628 156.67908 L354.15192 154.72717 L356.35455 153.50769 L355.72614 157.48816 L355.09772 161.46863 L354.4693 165.4491 L353.84088 169.42957 L353.21246 173.41003 L352.58405 177.3905 L351.95563 181.37097 L351.3272 185.35144 L350.6988 189.33191 L350.07037 193.31238 L349.44196 197.29285 L348.89294 200.7763 Z "/>
      </g>
      <g style="fill:#86522D;stroke:none;">
        <path d="M356.35474 218.50781 L348.89313 265.77643 L314.48877 241.68622 L356.35474 218.50781 "/>
      </g>
      <g style="fill:#86522D;stroke:none;">
        <path d="M348.89313 265.77643 L345.57697 263.4544 L342.2608 261.1324 L338.94464 258.81036 L336.04297 256.7786 L332.7268 254.45657 L329.41064 252.13455 L326.09448 249.81253 L322.77832 247.49051 L319.46216 245.16849 L316.146 242.84647 L315.81085 240.95425 L319.3365 239.00235 L322.86212 237.05045 L326.38776 235.09854 L329.9134 233.14664 L332.99835 231.43872 L336.524 229.48682 L340.04962 227.53491 L343.57526 225.58301 L347.1009 223.6311 L350.62653 221.6792 L354.15216 219.7273 L356.35474 218.50781 L355.72632 222.48828 L355.0979 226.46875 L354.46948 230.44922 L353.84106 234.42969 L353.21265 238.41016 L352.58423 242.39062 L351.9558 246.3711 L351.3274 250.35156 L350.69897 254.33203 L350.07056 258.3125 L349.44214 262.29297 L348.89313 265.77643 Z "/>
      </g>
      <g style="fill:#86522D;stroke:none;">
        <path d="M356.3534 283.50827 L348.89178 330.7769 L314.48743 306.68668 L356.3534 283.50827 "/>
      </g>
      <g style="fill:#864A1F;stroke:none;">
        <path d="M348.89178 330.7769 L345.57562 328.45486 L342.25946 326.13284 L338.9433 323.81082 L336.04163 321.77905 L332.72546 319.45703 L329.4093 317.135 L326.09314 314.813 L322.77698 312.49097 L319.46082 310.16895 L316.14465 307.84692 L315.8095 305.9547 L319.33514 304.0028 L322.86078 302.0509 L326.3864 300.099 L329.91205 298.1471 L332.997 296.43918 L336.52264 294.48727 L340.04828 292.53537 L343.5739 290.58347 L347.09955 288.63156 L350.62518 286.67966 L354.15082 284.72775 L356.3534 283.50827 L355.72498 287.48874 L355.09656 291.4692 L354.46814 295.44968 L353.83972 299.43015 L353.2113 303.4106 L352.5829 307.39108 L351.95447 311.37155 L351.32605 315.35202 L350.69763 319.3325 L350.0692 323.31296 L349.4408 327.29343 L348.89178 330.7769 Z "/>
      </g>
      <g style="fill:#864A1F;stroke:none;">
        <path d="M356.35315 348.5083 L348.89154 395.77692 L314.48718 371.6867 L356.35315 348.5083 "/>
      </g>
      <g style="fill:#864A1F;stroke:none;">
        <path d="M348.89154 395.77692 L345.61493 393.48273 L342.33832 391.18854 L339.0617 388.89435 L335.7851 386.60016 L332.50848 384.30597 L329.23187 382.01178 L325.95526 379.7176 L322.67865 377.4234 L319.40204 375.1292 L316.12543 372.83502 L315.80927 370.95474 L319.3349 369.00284 L322.86053 367.05093 L326.38617 365.09903 L329.9118 363.14713 L332.99677 361.4392 L336.5224 359.4873 L340.04803 357.5354 L343.57367 355.5835 L347.0993 353.6316 L350.62494 351.6797 L354.15057 349.72778 L356.35315 348.5083 L355.72473 352.48877 L355.0963 356.46924 L354.4679 360.4497 L353.83948 364.43018 L353.21106 368.41064 L352.58264 372.3911 L351.95422 376.37158 L351.3258 380.35205 L350.6974 384.33252 L350.06897 388.313 L349.44055 392.29346 L348.89154 395.77692 Z "/>
      </g>
      <g style="fill:#864110;stroke:none;">
        <path d="M390.5996 -107.80266 L430.28613 -81.06354 L393.9131 -60.06357 L390.5996 -107.80266 "/>
      </g>
      <g style="fill:#107086;stroke:none;">
        <path d="M395.66577 -61.075752 L393.8084 -61.57112 L393.52936 -65.59126 L393.2503 -69.611404 L392.97125 -73.631546 L392.6922 -77.65169 L392.44806 -81.16931 L392.169 -85.18945 L391.88995 -89.209595 L391.6109 -93.22974 L391.33185 -97.24988 L391.0528 -101.270004 L390.77374 -105.290146 L390.5996 -107.80266 L393.94165 -105.55094 L397.2837 -103.299225 L400.62573 -101.04751 L403.96777 -98.79579 L407.3098 -96.544075 L410.65186 -94.29236 L413.9939 -92.04065 L417.33594 -89.78894 L420.67798 -87.53723 L424.02002 -85.28552 L427.36206 -83.03381 L430.28613 -81.06354 L426.78027 -79.039444 L423.2744 -77.015366 L419.76855 -74.99129 L416.70093 -73.22022 L413.19507 -71.196144 L409.6892 -69.172066 L406.18335 -67.14799 L402.6775 -65.12391 L399.17163 -63.09983 L395.66577 -61.075752 Z "/>
      </g>
      <g style="fill:#86634B;stroke:none;">
        <path d="M390.5996 -42.802597 L430.28613 -16.063469 L393.9131 4.9365005 L390.5996 -42.802597 "/>
      </g>
      <g style="fill:#86634B;stroke:none;">
        <path d="M395.66577 3.9246063 L393.8084 3.4289474 L393.52936 -0.59119415 L393.2503 -4.6113358 L392.97125 -8.631477 L392.6922 -12.651619 L392.44806 -16.169243 L392.169 -20.189384 L391.88995 -24.209526 L391.6109 -28.229668 L391.33185 -32.24981 L391.0528 -36.26995 L390.77374 -40.290092 L390.5996 -42.802597 L393.94165 -40.550888 L397.2837 -38.29918 L400.62573 -36.04747 L403.96777 -33.79576 L407.3098 -31.544052 L410.65186 -29.292343 L413.9939 -27.040634 L417.33594 -24.788925 L420.67798 -22.537216 L424.02002 -20.285507 L427.36206 -18.033798 L430.28613 -16.063469 L426.78027 -14.03936 L423.2744 -12.015251 L419.76855 -9.991142 L416.70093 -8.220047 L413.19507 -6.195938 L409.6892 -4.171829 L406.18335 -2.1477203 L402.6775 -0.12361145 L399.17163 1.9004974 L395.66577 3.9246063 Z "/>
      </g>
      <g style="fill:#86634B;stroke:none;">
        <path d="M390.59973 22.196518 L430.28625 48.93564 L393.9132 69.93561 L390.59973 22.196518 "/>
      </g>
      <g style="fill:#865B3C;stroke:none;">
        <path d="M395.6659 68.92311 L393.8086 68.428055 L393.52954 64.40791 L393.2505 60.38777 L392.97144 56.36763 L392.69238 52.34749 L392.44818 48.829865 L392.16913 44.809723 L391.89008 40.78958 L391.61102 36.76944 L391.33197 32.7493 L391.05292 28.729156 L390.77386 24.709015 L390.59973 22.196518 L393.94177 24.448227 L397.2838 26.699936 L400.62585 28.951645 L403.9679 31.203354 L407.30994 33.455063 L410.65198 35.70677 L413.99402 37.95848 L417.33606 40.21019 L420.6781 42.4619 L424.02014 44.713608 L427.36218 46.965317 L430.28625 48.93564 L426.7804 50.959686 L423.27454 52.983734 L419.76868 55.007782 L416.70105 56.778824 L413.1952 58.80287 L409.68933 60.82692 L406.18347 62.850967 L402.6776 64.875015 L399.17175 66.89906 L395.6659 68.92311 Z "/>
      </g>
      <g style="fill:#865B3C;stroke:none;">
        <path d="M390.59943 87.19705 L430.28595 113.93617 L393.91284 134.93614 L390.59943 87.19705 "/>
      </g>
      <g style="fill:#865B3C;stroke:none;">
        <path d="M395.64484 133.93617 L393.80823 133.42859 L393.52917 129.40845 L393.25012 125.388306 L392.97107 121.368164 L392.69202 117.34802 L392.4478 113.8304 L392.16876 109.81026 L391.8897 105.790115 L391.61066 101.76997 L391.3316 97.74983 L391.05255 93.72969 L390.7735 89.70955 L390.59943 87.19705 L393.94147 89.44876 L397.2835 91.70047 L400.62555 93.95218 L403.9676 96.20389 L407.30963 98.4556 L410.65167 100.707306 L413.9937 102.959015 L417.33575 105.210724 L420.6778 107.46243 L424.01984 109.71414 L427.36188 111.96585 L430.28595 113.93617 L426.82184 115.93617 L423.35773 117.93617 L419.89362 119.93617 L416.4295 121.93617 L412.9654 123.93617 L409.50128 125.93617 L406.03717 127.93617 L402.57306 129.93617 L399.10895 131.93617 L395.64484 133.93617 Z "/>
      </g>
      <g style="fill:#86522D;stroke:none;">
        <path d="M390.5999 152.19617 L430.28644 178.93527 L393.9134 199.93524 L390.5999 152.19617 "/>
      </g>
      <g style="fill:#86522D;stroke:none;">
        <path d="M395.66608 198.92395 L393.80872 198.42773 L393.52966 194.40771 L393.2506 190.3877 L392.97156 186.36768 L392.6925 182.34766 L392.44836 178.83014 L392.1693 174.81012 L391.89026 170.7901 L391.6112 166.77008 L391.33215 162.75006 L391.0531 158.73004 L390.77405 154.71002 L390.5999 152.19617 L393.94196 154.44788 L397.284 156.69958 L400.62604 158.9513 L403.96808 161.203 L407.31012 163.45471 L410.65216 165.70642 L413.9942 167.95813 L417.33624 170.20984 L420.67828 172.46155 L424.02032 174.71326 L427.36237 176.96497 L430.28644 178.93527 L426.78058 180.95944 L423.27472 182.98361 L419.76886 185.00778 L416.70123 186.77893 L413.19537 188.8031 L409.6895 190.82727 L406.18365 192.85144 L402.6778 194.87561 L399.17194 196.89978 L395.66608 198.92395 Z "/>
      </g>
      <g style="fill:#86522D;stroke:none;">
        <path d="M390.599 217.198 L430.28552 243.9371 L393.9124 264.93707 L390.599 217.198 "/>
      </g>
      <g style="fill:#864A1F;stroke:none;">
        <path d="M395.6444 263.9371 L393.8078 263.42957 L393.52875 259.40955 L393.2497 255.38953 L392.97064 251.3695 L392.6916 247.34949 L392.4474 243.83197 L392.16833 239.81195 L391.88928 235.79193 L391.61023 231.77191 L391.33118 227.75189 L391.05212 223.73187 L390.77307 219.71185 L390.599 217.198 L393.94104 219.4497 L397.28308 221.70142 L400.62512 223.95312 L403.96716 226.20483 L407.3092 228.45654 L410.65125 230.70825 L413.9933 232.95996 L417.33533 235.21167 L420.67737 237.46338 L424.0194 239.71509 L427.36145 241.9668 L430.28552 243.9371 L426.8214 245.9371 L423.3573 247.9371 L419.8932 249.9371 L416.42908 251.9371 L412.96497 253.9371 L409.50085 255.9371 L406.03674 257.9371 L402.57263 259.9371 L399.10852 261.9371 L395.6444 263.9371 Z "/>
      </g>
      <g style="fill:#864A1F;stroke:none;">
        <path d="M390.59918 282.1974 L430.2857 308.93652 L393.91266 329.93646 L390.59918 282.1974 "/>
      </g>
      <g style="fill:#864A1F;stroke:none;">
        <path d="M395.66534 328.9252 L393.80804 328.42896 L393.529 324.40894 L393.24994 320.38892 L392.9709 316.3689 L392.69183 312.34888 L392.44763 308.83136 L392.16858 304.81134 L391.88953 300.79132 L391.61047 296.7713 L391.33142 292.75128 L391.05237 288.73126 L390.77332 284.71124 L390.59918 282.1974 L393.94122 284.4491 L397.28326 286.7008 L400.6253 288.9525 L403.96735 291.20422 L407.3094 293.45593 L410.65143 295.70764 L413.99347 297.95935 L417.3355 300.21106 L420.67755 302.46277 L424.0196 304.71448 L427.36163 306.9662 L430.2857 308.93652 L426.77985 310.9607 L423.274 312.98486 L419.76813 315.00903 L416.7005 316.78018 L413.19464 318.80435 L409.68878 320.82852 L406.18292 322.8527 L402.67706 324.87686 L399.1712 326.90103 L395.66534 328.9252 Z "/>
      </g>
      <g style="fill:#864110;stroke:none;">
        <path d="M390.59955 347.1974 L430.28607 373.93652 L393.91296 394.93646 L390.59955 347.1974 "/>
      </g>
      <g style="fill:#107086;stroke:none;">
        <path d="M395.64496 393.93652 L393.8083 393.42896 L393.52924 389.40894 L393.25018 385.38892 L392.97113 381.3689 L392.69208 377.34888 L392.44794 373.83136 L392.16888 369.81134 L391.88983 365.79132 L391.61078 361.7713 L391.33173 357.75128 L391.05267 353.73126 L390.77362 349.71124 L390.59955 347.1974 L393.9416 349.4491 L397.28363 351.7008 L400.62567 353.9525 L403.9677 356.20422 L407.30975 358.45593 L410.6518 360.70764 L413.99384 362.95935 L417.33588 365.21106 L420.67792 367.46277 L424.01996 369.71448 L427.362 371.9662 L430.28607 373.93652 L426.82196 375.93652 L423.35785 377.93652 L419.89374 379.93652 L416.42963 381.93652 L412.9655 383.93652 L409.5014 385.93652 L406.0373 387.93652 L402.57318 389.93652 L399.10907 391.93652 L395.64496 393.93652 Z "/>
      </g>
      <g style="fill:#86634B;stroke:none;">
        <path d="M441.41345 -80.48468 L482.41956 -105.152405 L486.08008 -63.312225 L441.41345 -80.48468 "/>
      </g>
      <g style="fill:#86634B;stroke:none;">
        <path d="M484.6695 -63.854515 L480.90802 -65.30062 L477.14655 -66.74673 L473.38507 -68.19283 L469.6236 -69.63894 L466.33234 -70.90428 L462.57086 -72.35039 L458.8094 -73.79649 L455.0479 -75.2426 L451.28644 -76.688705 L447.52496 -78.13481 L443.7635 -79.58092 L441.41345 -80.48468 L444.86658 -82.561966 L448.3197 -84.63925 L451.77283 -86.71654 L455.22595 -88.79382 L458.67908 -90.87111 L462.1322 -92.948395 L465.58533 -95.02568 L469.03845 -97.10297 L472.49158 -99.18025 L475.9447 -101.25754 L479.39783 -103.33482 L482.41956 -105.152405 L482.77234 -101.11961 L483.12512 -97.08682 L483.4779 -93.05403 L483.78662 -89.525345 L484.1394 -85.49255 L484.4922 -81.45976 L484.84497 -77.42697 L485.19775 -73.394196 L485.55054 -69.36142 L485.90332 -65.32864 L484.6695 -63.854515 Z "/>
      </g>
      <g style="fill:#86634B;stroke:none;">
        <path d="M441.4135 -15.48465 L482.41962 -40.152374 L486.08014 1.6878052 L441.4135 -15.48465 "/>
      </g>
      <g style="fill:#865B3C;stroke:none;">
        <path d="M484.66956 1.1455154 L480.90808 -0.30059052 L477.1466 -1.7466965 L473.38513 -3.1928024 L469.62366 -4.6389084 L466.3324 -5.904251 L462.57092 -7.350357 L458.80945 -8.796463 L455.04797 -10.242569 L451.2865 -11.688675 L447.52502 -13.134781 L443.76355 -14.580887 L441.4135 -15.48465 L444.86664 -17.56192 L448.31976 -19.63919 L451.7729 -21.716461 L455.226 -23.793732 L458.67914 -25.871002 L462.13226 -27.948273 L465.5854 -30.025543 L469.0385 -32.102814 L472.49164 -34.180084 L475.94476 -36.257355 L479.3979 -38.334625 L482.41962 -40.152374 L482.76825 -36.167572 L483.11688 -32.18277 L483.4655 -28.197968 L483.81415 -24.213165 L484.16278 -20.228363 L484.5114 -16.24356 L484.86005 -12.258759 L485.20868 -8.273956 L485.5573 -4.289154 L485.90594 -0.3043518 L484.66956 1.1455154 Z "/>
      </g>
      <g style="fill:#865B3C;stroke:none;">
        <path d="M441.41425 49.516663 L482.42035 24.848938 L486.08087 66.68912 L441.41425 49.516663 "/>
      </g>
      <g style="fill:#865B3C;stroke:none;">
        <path d="M484.6703 66.14685 L480.9088 64.700806 L477.14734 63.25476 L473.38586 61.808716 L469.6244 60.36267 L466.33313 59.09738 L462.57166 57.651337 L458.81018 56.20529 L455.0487 54.759247 L451.28723 53.3132 L447.52576 51.867157 L443.76428 50.421112 L441.41425 49.516663 L444.86737 47.439392 L448.3205 45.36212 L451.77362 43.28485 L455.22675 41.20758 L458.67987 39.13031 L462.133 37.05304 L465.58612 34.97577 L469.03925 32.8985 L472.49237 30.821228 L475.9455 28.743958 L479.39862 26.666687 L482.42035 24.848938 L482.77313 28.881775 L483.12592 32.91461 L483.4787 36.94745 L483.7874 40.47618 L484.1402 44.509018 L484.49298 48.541855 L484.84576 52.57469 L485.19855 56.60753 L485.55133 60.640366 L485.9041 64.6732 L484.6703 66.14685 Z "/>
      </g>
      <g style="fill:#86522D;stroke:none;">
        <path d="M441.4134 114.514404 L482.4195 89.84668 L486.08002 131.68683 L441.4134 114.514404 "/>
      </g>
      <g style="fill:#86522D;stroke:none;">
        <path d="M484.66943 131.14456 L480.90796 129.69852 L477.14648 128.25247 L473.385 126.80643 L469.62354 125.36038 L466.33228 124.09509 L462.5708 122.64905 L458.80933 121.203 L455.04785 119.75696 L451.28638 118.31091 L447.5249 116.86487 L443.76343 115.41882 L441.4134 114.514404 L444.86652 112.43713 L448.31964 110.35986 L451.77277 108.28259 L455.2259 106.20532 L458.67902 104.12805 L462.13214 102.05078 L465.58527 99.97351 L469.0384 97.89624 L472.49152 95.81897 L475.94464 93.7417 L479.39777 91.66443 L482.4195 89.84668 L482.77228 93.87952 L483.12506 97.91235 L483.47784 101.94519 L483.78656 105.47392 L484.13934 109.50676 L484.49213 113.5396 L484.8449 117.57243 L485.1977 121.60527 L485.55048 125.63811 L485.90326 129.67094 L484.66943 131.14456 Z "/>
      </g>
      <g style="fill:#86522D;stroke:none;">
        <path d="M441.4137 179.51407 L482.4198 154.84631 L486.08026 196.6865 L441.4137 179.51407 "/>
      </g>
      <g style="fill:#864A1F;stroke:none;">
        <path d="M484.66974 196.14423 L480.90826 194.69818 L477.1468 193.25214 L473.3853 191.80609 L469.62384 190.36005 L466.33252 189.09476 L462.57104 187.64871 L458.80957 186.20267 L455.0481 184.75662 L451.28662 183.31058 L447.52515 181.86453 L443.76367 180.41849 L441.4137 179.51407 L444.86682 177.43668 L448.31995 175.35928 L451.77307 173.28189 L455.2262 171.2045 L458.67932 169.1271 L462.13245 167.04971 L465.58557 164.97232 L469.0387 162.89493 L472.49182 160.81754 L475.94495 158.74014 L479.39807 156.66275 L482.4198 154.84631 L482.77258 158.87903 L483.12537 162.91174 L483.47815 166.94446 L483.7868 170.47308 L484.1396 174.5058 L484.49237 178.53851 L484.84515 182.57123 L485.19794 186.60394 L485.55072 190.63666 L485.9035 194.66937 L484.66974 196.14423 Z "/>
      </g>
      <g style="fill:#864A1F;stroke:none;">
        <path d="M441.41473 244.51733 L482.42084 219.84961 L486.08136 261.68976 L441.41473 244.51733 "/>
      </g>
      <g style="fill:#864A1F;stroke:none;">
        <path d="M484.67078 261.1475 L480.9093 259.70145 L477.14783 258.2554 L473.38635 256.80936 L469.62488 255.36331 L466.33362 254.09802 L462.57214 252.65198 L458.81067 251.20593 L455.0492 249.75989 L451.28772 248.31384 L447.52625 246.8678 L443.76477 245.42175 L441.41473 244.51733 L444.86786 242.43994 L448.32098 240.36255 L451.7741 238.28516 L455.22723 236.20776 L458.68036 234.13037 L462.13348 232.05298 L465.5866 229.97559 L469.03973 227.8982 L472.49286 225.8208 L475.94598 223.74341 L479.3991 221.66602 L482.42084 219.84961 L482.77362 223.88232 L483.1264 227.91504 L483.4792 231.94775 L483.7879 235.47638 L484.1407 239.5091 L484.49347 243.54181 L484.84625 247.57452 L485.19904 251.60724 L485.55182 255.63995 L485.9046 259.67267 L484.67078 261.1475 Z "/>
      </g>
      <g style="fill:#864110;stroke:none;">
        <path d="M441.414 309.5145 L482.4201 284.84674 L486.08063 326.68695 L441.414 309.5145 "/>
      </g>
      <g style="fill:#107086;stroke:none;">
        <path d="M484.67004 326.14468 L480.90857 324.69864 L477.1471 323.2526 L473.38562 321.80655 L469.62415 320.3605 L466.3329 319.0952 L462.5714 317.64917 L458.80994 316.20312 L455.04846 314.75708 L451.287 313.31104 L447.5255 311.865 L443.76404 310.41895 L441.414 309.5145 L444.86713 307.4371 L448.32025 305.3597 L451.77338 303.28232 L455.2265 301.20493 L458.67963 299.12753 L462.13275 297.05014 L465.58588 294.97275 L469.039 292.89536 L472.49213 290.81796 L475.94525 288.74057 L479.39838 286.66318 L482.4201 284.84674 L482.76874 288.8316 L483.11737 292.81647 L483.466 296.80133 L483.81464 300.7862 L484.16327 304.77106 L484.5119 308.75592 L484.86053 312.74078 L485.20917 316.72565 L485.5578 320.7105 L485.90643 324.69537 L484.67004 326.14468 Z "/>
      </g>
      <g style="fill:#86634B;stroke:none;">
        <path d="M441.41504 374.51105 L482.4212 349.84332 L486.08167 391.6835 L441.41504 374.51105 "/>
      </g>
      <g style="fill:#86634B;stroke:none;">
        <path d="M484.67114 391.14124 L480.90967 389.6952 L477.1482 388.24915 L473.38672 386.8031 L469.62524 385.35706 L466.33392 384.09177 L462.57245 382.64572 L458.81097 381.19968 L455.0495 379.75363 L451.28802 378.3076 L447.52655 376.86154 L443.76508 375.4155 L441.41504 374.51105 L444.86816 372.43365 L448.3213 370.35626 L451.7744 368.27887 L455.22754 366.20148 L458.68066 364.12408 L462.1338 362.0467 L465.5869 359.9693 L469.04004 357.8919 L472.49316 355.8145 L475.9463 353.73712 L479.3994 351.65973 L482.4212 349.84332 L482.774 353.87604 L483.12677 357.90875 L483.47955 361.94147 L483.7882 365.4701 L484.141 369.5028 L484.49377 373.53552 L484.84656 377.56824 L485.19934 381.60095 L485.55212 385.63367 L485.9049 389.66638 L484.67114 391.14124 Z "/>
      </g>
    </g>
  </g>
</svg>
