<?xml version="1.0" encoding="UTF-8"?>
<svg xmlns="http://www.w3.org/2000/svg" height="288px" version="1.1" width="480px">
  <g style="fill:#C4FFA6;stroke:none;">
    <path d="M0.0 0.0 L480.0 0.0 L480.0 288.0 L0.0 288.0 L0.0 0.0 "/>
    <g style="">
      <g style="fill:none;stroke:#B9FF95;stroke-width:3.0;">
        <path d="M-2347.7302 -2482.995 L-1968.7302 -2482.995 L-1968.7302 -2103.995 L-2347.7302 -2103.995 L-2347.7302 -2482.995 "/>
      </g>
      <g style="fill:none;stroke:#95B4FF;stroke-width:3.0;">
        <path d="M-2347.7302 -1808.9951 L-1968.7302 -1808.9951 L-1968.7302 -1429.9951 L-2347.7302 -1429.9951 L-2347.7302 -1808.9951 "/>
      </g>
      <g style="fill:none;stroke:#BFFF9E;stroke-width:3.0;">
        <path d="M-2347.7302 -1134.9951 L-1968.7302 -1134.9951 L-1968.7302 -755.9951 L-2347.7302 -755.9951 L-2347.7302 -1134.9951 "/>
      </g>
      <g style="fill:none;stroke:#D5FFBF;stroke-width:3.0;">
        <path d="M-2347.7302 -460.99512 L-1968.7302 -460.99512 L-1968.7302 -81.99512 L-2347.7302 -81.99512 L-2347.7302 -460.99512 "/>
      </g>
      <g style="fill:none;stroke:#BFFF9E;stroke-width:3.0;">
        <path d="M-2347.7302 213.00488 L-1968.7302 213.00488 L-1968.7302 592.0049 L-2347.7302 592.0049 L-2347.7302 213.00488 "/>
      </g>
      <g style="fill:none;stroke:#D5FFBF;stroke-width:3.0;">
        <path d="M-2347.7302 887.0049 L-1968.7302 887.0049 L-1968.7302 1266.0049 L-2347.7302 1266.0049 L-2347.7302 887.0049 "/>
      </g>
      <g style="fill:none;stroke:#CFFFB7;stroke-width:3.0;">
        <path d="M-2347.7302 1561.0049 L-1968.7302 1561.0049 L-1968.7302 1940.0049 L-2347.7302 1940.0049 L-2347.7302 1561.0049 "/>
      </g>
      <g style="fill:none;stroke:#CFFFB7;stroke-width:3.0;">
        <path d="M-2347.7302 2235.005 L-1968.7302 2235.005 L-1968.7302 2614.005 L-2347.7302 2614.005 L-2347.7302 2235.005 "/>
      </g>
      <g style="fill:none;stroke:#CAFFAF;stroke-width:3.0;">
        <path d="M-1484.2233 -2025.5078 L-1752.2168 -2293.5012 L-1484.2234 -2561.4946 L-1216.2299 -2293.5012 L-1484.2233 -2025.5078 "/>
      </g>
      <g style="fill:none;stroke:#CAFFAF;stroke-width:3.0;">
        <path d="M-1484.2258 -1351.5012 L-1752.2194 -1619.4946 L-1484.226 -1887.4882 L-1216.2324 -1619.4948 L-1484.2258 -1351.5012 "/>
      </g>
      <g style="fill:none;stroke:#B9FF95;stroke-width:3.0;">
        <path d="M-1484.2268 -677.4999 L-1752.2202 -945.4934 L-1484.2268 -1213.4868 L-1216.2333 -945.4934 L-1484.2268 -677.4999 "/>
      </g>
      <g style="fill:none;stroke:#95B4FF;stroke-width:3.0;">
        <path d="M-1484.2229 -3.5019531 L-1752.2164 -271.4956 L-1484.223 -539.489 L-1216.2295 -271.4956 L-1484.2229 -3.5019531 "/>
      </g>
      <g style="fill:none;stroke:#BFFF9E;stroke-width:3.0;">
        <path d="M-1484.2172 670.50415 L-1752.2107 402.51074 L-1484.2174 134.51709 L-1216.2239 402.51074 L-1484.2172 670.50415 "/>
      </g>
      <g style="fill:none;stroke:#D5FFBF;stroke-width:3.0;">
        <path d="M-1484.2024 1344.4788 L-1752.1959 1076.4854 L-1484.2025 808.4917 L-1216.2091 1076.4851 L-1484.2024 1344.4788 "/>
      </g>
      <g style="fill:none;stroke:#BFFF9E;stroke-width:3.0;">
        <path d="M-1484.2451 2018.5322 L-1752.2385 1750.5386 L-1484.2451 1482.5454 L-1216.2517 1750.5391 L-1484.2451 2018.5322 "/>
      </g>
      <g style="fill:none;stroke:#D5FFBF;stroke-width:3.0;">
        <path d="M-1484.2134 2692.4238 L-1752.2068 2424.4302 L-1484.2134 2156.4365 L-1216.22 2424.4302 L-1484.2134 2692.4238 "/>
      </g>
      <g style="fill:none;stroke:#CFFFB7;stroke-width:3.0;">
        <path d="M-620.73096 -2483.0017 L-620.73096 -2104.0017 L-999.73096 -2104.0017 L-999.73096 -2483.0017 L-620.73096 -2483.0017 "/>
      </g>
      <g style="fill:none;stroke:#CFFFB7;stroke-width:3.0;">
        <path d="M-620.7212 -1808.9977 L-620.7212 -1429.9977 L-999.7212 -1429.9977 L-999.7212 -1808.9977 L-620.7212 -1808.9977 "/>
      </g>
      <g style="fill:none;stroke:#CAFFAF;stroke-width:3.0;">
        <path d="M-620.73 -1134.9994 L-620.73 -755.9994 L-999.73 -755.9994 L-999.73 -1134.9994 L-620.73 -1134.9994 "/>
      </g>
      <g style="fill:none;stroke:#CAFFAF;stroke-width:3.0;">
        <path d="M-620.72754 -461.00317 L-620.72754 -82.003174 L-999.72754 -82.00293 L-999.72754 -461.00305 L-620.72754 -461.00317 "/>
      </g>
      <g style="fill:none;stroke:#B9FF95;stroke-width:3.0;">
        <path d="M-620.7261 213.00342 L-620.7261 592.0034 L-999.7261 592.0034 L-999.7261 213.00342 L-620.7261 213.00342 "/>
      </g>
      <g style="fill:none;stroke:#95B4FF;stroke-width:3.0;">
        <path d="M-620.74414 886.9817 L-620.74414 1265.9817 L-999.74414 1265.9817 L-999.74414 886.9817 L-620.74414 886.9817 "/>
      </g>
      <g style="fill:none;stroke:#BFFF9E;stroke-width:3.0;">
        <path d="M-620.70215 1561.0259 L-620.70215 1940.0259 L-999.7024 1940.0259 L-999.7024 1561.0259 L-620.70215 1561.0259 "/>
      </g>
      <g style="fill:none;stroke:#D5FFBF;stroke-width:3.0;">
        <path d="M-620.7683 2234.959 L-620.7683 2613.959 L-999.7683 2613.959 L-999.7683 2234.959 L-620.7683 2234.959 "/>
      </g>
      <g style="fill:none;stroke:#BFFF9E;stroke-width:3.0;">
        <path d="M-404.2229 -2293.4985 L-136.22925 -2561.492 L131.76416 -2293.4985 L-136.22949 -2025.505 L-404.2229 -2293.4985 "/>
      </g>
      <g style="fill:none;stroke:#D5FFBF;stroke-width:3.0;">
        <path d="M-404.2262 -1619.4972 L-136.23267 -1887.4906 L131.76074 -1619.4971 L-136.23267 -1351.5037 L-404.2262 -1619.4972 "/>
      </g>
      <g style="fill:none;stroke:#CFFFB7;stroke-width:3.0;">
        <path d="M-404.22314 -945.4995 L-136.22974 -1213.4929 L131.76392 -945.4994 L-136.22974 -677.506 L-404.22314 -945.4995 "/>
      </g>
      <g style="fill:none;stroke:#CFFFB7;stroke-width:3.0;">
        <path d="M-404.22412 -271.5 L-136.23071 -539.4933 L131.7627 -271.49976 L-136.23096 -3.5063477 L-404.22412 -271.5 "/>
      </g>
      <g style="fill:none;stroke:#CAFFAF;stroke-width:3.0;">
        <path d="M-404.21997 402.50024 L-136.22632 134.50684 L131.76685 402.5005 L-136.22656 670.49365 L-404.21997 402.50024 "/>
      </g>
      <g style="fill:none;stroke:#CAFFAF;stroke-width:3.0;">
        <path d="M-404.20947 1076.4985 L-136.21582 808.5049 L131.77783 1076.4985 L-136.21582 1344.4922 L-404.20947 1076.4985 "/>
      </g>
      <g style="fill:none;stroke:#B9FF95;stroke-width:3.0;">
        <path d="M-404.2378 1750.5034 L-136.24414 1482.5103 L131.74951 1750.5034 L-136.24414 2018.4971 L-404.2378 1750.5034 "/>
      </g>
      <g style="fill:none;stroke:#95B4FF;stroke-width:3.0;">
        <path d="M-404.198 2424.4883 L-136.20435 2156.4946 L131.7893 2424.4883 L-136.20386 2692.4814 L-404.198 2424.4883 "/>
      </g>
      <g style="fill:none;stroke:#BFFF9E;stroke-width:3.0;">
        <path d="M727.25806 -2104.0017 L348.25806 -2104.0017 L348.25806 -2483.0017 L727.25806 -2483.0017 L727.25806 -2104.0017 "/>
      </g>
      <g style="fill:none;stroke:#D5FFBF;stroke-width:3.0;">
        <path d="M727.26465 -1430.0017 L348.26465 -1430.0016 L348.26465 -1809.0016 L727.26465 -1809.0017 L727.26465 -1430.0017 "/>
      </g>
      <g style="fill:none;stroke:#BFFF9E;stroke-width:3.0;">
        <path d="M727.2639 -756.01 L348.26392 -756.0099 L348.26392 -1135.0099 L727.2639 -1135.01 L727.2639 -756.01 "/>
      </g>
      <g style="fill:none;stroke:#D5FFBF;stroke-width:3.0;">
        <path d="M727.26733 -81.988525 L348.26733 -81.98828 L348.2671 -460.98828 L727.2671 -460.98853 L727.26733 -81.988525 "/>
      </g>
      <g style="fill:none;stroke:#CFFFB7;stroke-width:3.0;">
        <path d="M727.2573 591.9978 L348.25732 591.99805 L348.25708 212.99805 L727.2571 212.9978 L727.2573 591.9978 "/>
      </g>
      <g style="fill:none;stroke:#CFFFB7;stroke-width:3.0;">
        <path d="M727.2615 1265.9724 L348.26147 1265.9727 L348.26147 886.97266 L727.2615 886.9724 L727.2615 1265.9724 "/>
      </g>
      <g style="fill:none;stroke:#CAFFAF;stroke-width:3.0;">
        <path d="M727.2539 1940.0361 L348.2539 1940.0361 L348.2539 1561.0361 L727.2539 1561.0361 L727.2539 1940.0361 "/>
      </g>
      <g style="fill:none;stroke:#CAFFAF;stroke-width:3.0;">
        <path d="M727.25586 2613.9268 L348.25586 2613.9268 L348.2556 2234.9268 L727.2556 2234.9268 L727.25586 2613.9268 "/>
      </g>
      <g style="fill:none;stroke:#B9FF95;stroke-width:3.0;">
        <path d="M1211.7605 -2561.474 L1479.7539 -2293.4807 L1211.7603 -2025.4873 L943.76685 -2293.4807 L1211.7605 -2561.474 "/>
      </g>
      <g style="fill:none;stroke:#95B4FF;stroke-width:3.0;">
        <path d="M1211.7566 -1887.4719 L1479.75 -1619.4785 L1211.7563 -1351.4851 L943.76294 -1619.4785 L1211.7566 -1887.4719 "/>
      </g>
      <g style="fill:none;stroke:#BFFF9E;stroke-width:3.0;">
        <path d="M1211.762 -1213.4744 L1479.7551 -945.48096 L1211.7615 -677.4878 L943.7683 -945.48096 L1211.762 -1213.4744 "/>
      </g>
      <g style="fill:none;stroke:#D5FFBF;stroke-width:3.0;">
        <path d="M1211.7651 -539.4717 L1479.7585 -271.47803 L1211.7649 -3.4848633 L943.7717 -271.47803 L1211.7651 -539.4717 "/>
      </g>
      <g style="fill:none;stroke:#BFFF9E;stroke-width:3.0;">
        <path d="M1211.7556 134.52148 L1479.749 402.51514 L1211.7554 670.5083 L943.76196 402.51514 L1211.7556 134.52148 "/>
      </g>
      <g style="fill:none;stroke:#D5FFBF;stroke-width:3.0;">
        <path d="M1211.7576 808.52515 L1479.751 1076.5188 L1211.7576 1344.512 L943.76416 1076.5188 L1211.7576 808.52515 "/>
      </g>
      <g style="fill:none;stroke:#CFFFB7;stroke-width:3.0;">
        <path d="M1211.7593 1482.5293 L1479.7527 1750.523 L1211.759 2018.5161 L943.7656 1750.523 L1211.7593 1482.5293 "/>
      </g>
      <g style="fill:none;stroke:#CFFFB7;stroke-width:3.0;">
        <path d="M1211.7537 2156.5088 L1479.7471 2424.5024 L1211.7534 2692.4956 L943.76 2424.5024 L1211.7537 2156.5088 "/>
      </g>
      <g style="fill:none;stroke:#CAFFAF;stroke-width:3.0;">
        <path d="M1696.272 -2103.998 L1696.272 -2482.998 L2075.2722 -2482.998 L2075.2717 -2103.998 L1696.272 -2103.998 "/>
      </g>
      <g style="fill:none;stroke:#CAFFAF;stroke-width:3.0;">
        <path d="M1696.29 -1430.0 L1696.29 -1809.0 L2075.2903 -1809.0 L2075.2903 -1430.0 L1696.29 -1430.0 "/>
      </g>
      <g style="fill:none;stroke:#B9FF95;stroke-width:3.0;">
        <path d="M1696.2866 -755.9824 L1696.2866 -1134.9824 L2075.2864 -1134.9824 L2075.2864 -755.9824 L1696.2866 -755.9824 "/>
      </g>
      <g style="fill:none;stroke:#95B4FF;stroke-width:3.0;">
        <path d="M1696.2957 -81.97705 L1696.2957 -460.97705 L2075.2957 -460.97705 L2075.2957 -81.97681 L1696.2957 -81.97705 "/>
      </g>
      <g style="fill:none;stroke:#BFFF9E;stroke-width:3.0;">
        <path d="M1696.2971 592.0188 L1696.2971 213.01855 L2075.297 213.01855 L2075.297 592.0188 L1696.2971 592.0188 "/>
      </g>
      <g style="fill:none;stroke:#D5FFBF;stroke-width:3.0;">
        <path d="M1696.2932 1266.011 L1696.2932 887.01074 L2075.2932 887.01074 L2075.2932 1266.011 L1696.2932 1266.011 "/>
      </g>
      <g style="fill:none;stroke:#BFFF9E;stroke-width:3.0;">
        <path d="M1696.2803 1940.0303 L1696.2803 1561.0303 L2075.2805 1561.0308 L2075.28 1940.0303 L1696.2803 1940.0303 "/>
      </g>
      <g style="fill:none;stroke:#D5FFBF;stroke-width:3.0;">
        <path d="M1696.3108 2613.9717 L1696.3113 2234.9722 L2075.3113 2234.9722 L2075.3108 2613.9717 L1696.3108 2613.9717 "/>
      </g>
      <g style="fill:none;stroke:#CFFFB7;stroke-width:3.0;">
        <path d="M2827.7258 -2293.4846 L2559.7327 -2025.4912 L2291.739 -2293.4846 L2559.7322 -2561.478 L2827.7258 -2293.4846 "/>
      </g>
      <g style="fill:none;stroke:#CFFFB7;stroke-width:3.0;">
        <path d="M2827.721 -1619.4971 L2559.7273 -1351.5037 L2291.7336 -1619.4971 L2559.7273 -1887.4905 L2827.721 -1619.4971 "/>
      </g>
      <g style="fill:none;stroke:#CAFFAF;stroke-width:3.0;">
        <path d="M2827.7302 -945.494 L2559.7366 -677.5006 L2291.7434 -945.494 L2559.7366 -1213.4874 L2827.7302 -945.494 "/>
      </g>
      <g style="fill:none;stroke:#CAFFAF;stroke-width:3.0;">
        <path d="M2827.7278 -271.44727 L2559.7346 -3.4536133 L2291.741 -271.44727 L2559.7346 -539.44055 L2827.7278 -271.44727 "/>
      </g>
      <g style="fill:none;stroke:#B9FF95;stroke-width:3.0;">
        <path d="M2827.7258 402.49243 L2559.7327 670.48584 L2291.739 402.49243 L2559.7327 134.49902 L2827.7258 402.49243 "/>
      </g>
      <g style="fill:none;stroke:#95B4FF;stroke-width:3.0;">
        <path d="M2827.7092 1076.5222 L2559.7156 1344.5156 L2291.722 1076.5222 L2559.7156 808.5288 L2827.7092 1076.5222 "/>
      </g>
      <g style="fill:none;stroke:#BFFF9E;stroke-width:3.0;">
        <path d="M2827.6726 1750.5112 L2559.679 2018.5049 L2291.6858 1750.5112 L2559.679 1482.5178 L2827.6726 1750.5112 "/>
      </g>
      <g style="fill:none;stroke:#D5FFBF;stroke-width:3.0;">
        <path d="M2827.674 2424.4443 L2559.681 2692.438 L2291.6877 2424.4443 L2559.681 2156.4512 L2827.674 2424.4443 "/>
      </g>
    </g>
  </g>
</svg>
