<?xml version="1.0" encoding="UTF-8"?>
<svg xmlns="http://www.w3.org/2000/svg" height="288px" version="1.1" width="480px">
  <g style="fill:#F879FF;stroke:none;">
    <path d="M0.0 0.0 L480.0 0.0 L480.0 288.0 L0.0 288.0 L0.0 0.0 "/>
    <g style="">
      <g style="fill:#B2FFAE;stroke:none;">
        <path d="M-110.00696 -395.1704 L-60.006958 -295.1704 L-160.00696 -295.1704 L-110.00696 -395.1704 "/>
      </g>
      <g style="fill:#B2FFAE;stroke:none;">
        <path d="M-110.00696 -260.1704 L-60.006958 -160.17041 L-160.00696 -160.17041 L-110.00696 -260.1704 "/>
      </g>
      <g style="fill:#B2FFAE;stroke:none;">
        <path d="M-110.00696 -125.17041 L-60.006958 -25.17041 L-160.00696 -25.17041 L-110.00696 -125.17041 "/>
      </g>
      <g style="fill:#B2FFAE;stroke:none;">
        <path d="M-110.00696 9.82959 L-60.006958 109.82959 L-160.00696 109.82959 L-110.00696 9.82959 "/>
      </g>
      <g style="fill:#B2FFAE;stroke:none;">
        <path d="M-110.00696 144.82959 L-60.006958 244.82959 L-160.00696 244.82959 L-110.00696 144.82959 "/>
      </g>
      <g style="fill:#ACFFA8;stroke:none;">
        <path d="M-110.00696 279.8296 L-60.006958 379.8296 L-160.00696 379.8296 L-110.00696 279.8296 "/>
      </g>
      <g style="fill:#ACFFA8;stroke:none;">
        <path d="M-110.00696 414.8296 L-60.006958 514.8296 L-160.00696 514.8296 L-110.00696 414.8296 "/>
      </g>
      <g style="fill:#ACFFA8;stroke:none;">
        <path d="M-110.00696 549.8296 L-60.006958 649.8296 L-160.00696 649.8296 L-110.00696 549.8296 "/>
      </g>
      <g style="fill:#ACFFA8;stroke:none;">
        <path d="M-10.007233 -261.83734 L-60.007217 -361.83734 L39.992767 -361.83734 L-10.007233 -261.83734 "/>
      </g>
      <g style="fill:#ACFFA8;stroke:none;">
        <path d="M-10.006882 -126.837036 L-60.00688 -226.83705 L39.993134 -226.83705 L-10.006882 -126.837036 "/>
      </g>
      <g style="fill:#A5FFA1;stroke:none;">
        <path d="M-10.006897 8.163208 L-60.006897 -91.83682 L39.993103 -91.83679 L-10.006897 8.163208 "/>
      </g>
      <g style="fill:#A5FFA1;stroke:none;">
        <path d="M-10.006622 143.16467 L-60.006607 43.164642 L39.993393 43.164673 L-10.006622 143.16467 "/>
      </g>
      <g style="fill:#A5FFA1;stroke:none;">
        <path d="M-10.006729 278.16345 L-60.006714 178.16345 L39.993286 178.16345 L-10.006729 278.16345 "/>
      </g>
      <g style="fill:#A5FFA1;stroke:none;">
        <path d="M-10.007202 413.16077 L-60.007202 313.16077 L39.992798 313.16077 L-10.007202 413.16077 "/>
      </g>
      <g style="fill:#A5FFA1;stroke:none;">
        <path d="M-10.007004 548.1636 L-60.007004 448.16357 L39.992996 448.16357 L-10.007004 548.1636 "/>
      </g>
      <g style="fill:#9FFF9A;stroke:none;">
        <path d="M-10.00798 683.1614 L-60.007965 583.1614 L39.992035 583.1614 L-10.00798 683.1614 "/>
      </g>
      <g style="fill:#9FFF9A;stroke:none;">
        <path d="M89.99306 -395.1704 L139.99304 -295.1704 L39.993042 -295.1704 L89.99306 -395.1704 "/>
      </g>
      <g style="fill:#9FFF9A;stroke:none;">
        <path d="M89.99304 -260.1704 L139.99304 -160.17041 L39.993027 -160.17043 L89.99304 -260.1704 "/>
      </g>
      <g style="fill:#9FFF9A;stroke:none;">
        <path d="M89.99306 -125.17041 L139.99304 -25.17038 L39.993042 -25.17041 L89.99306 -125.17041 "/>
      </g>
      <g style="fill:#9FFF9A;stroke:none;">
        <path d="M89.99304 9.82959 L139.99304 109.82962 L39.993027 109.82959 L89.99304 9.82959 "/>
      </g>
      <g style="fill:#99FF93;stroke:none;">
        <path d="M89.99306 144.82959 L139.99304 244.82959 L39.993042 244.82959 L89.99306 144.82959 "/>
      </g>
      <g style="fill:#99FF93;stroke:none;">
        <path d="M89.99304 279.8296 L139.99304 379.8296 L39.993027 379.8296 L89.99304 279.8296 "/>
      </g>
      <g style="fill:#99FF93;stroke:none;">
        <path d="M89.99306 414.8296 L139.99304 514.8296 L39.993042 514.8296 L89.99306 414.8296 "/>
      </g>
      <g style="fill:#99FF93;stroke:none;">
        <path d="M89.99306 549.8296 L139.99304 649.8296 L39.993042 649.8296 L89.99306 549.8296 "/>
      </g>
      <g style="fill:#99FF93;stroke:none;">
        <path d="M189.99286 -261.83734 L139.99286 -361.83734 L239.99286 -361.83734 L189.99286 -261.83734 "/>
      </g>
      <g style="fill:#92FF8D;stroke:none;">
        <path d="M189.99353 -126.836914 L139.99353 -226.83693 L239.99353 -226.83691 L189.99353 -126.836914 "/>
      </g>
      <g style="fill:#92FF8D;stroke:none;">
        <path d="M189.99371 8.163635 L139.99371 -91.836365 L239.99371 -91.836365 L189.99371 8.163635 "/>
      </g>
      <g style="fill:#92FF8D;stroke:none;">
        <path d="M189.99384 143.16406 L139.99384 43.164062 L239.99384 43.164062 L189.99384 143.16406 "/>
      </g>
      <g style="fill:#92FF8D;stroke:none;">
        <path d="M189.99323 278.1632 L139.99326 178.16321 L239.99326 178.16321 L189.99323 278.1632 "/>
      </g>
      <g style="fill:#92FF8D;stroke:none;">
        <path d="M189.99075 413.15857 L139.99075 313.15857 L239.99075 313.15857 L189.99075 413.15857 "/>
      </g>
      <g style="fill:#8CFF86;stroke:none;">
        <path d="M189.99539 548.167 L139.99539 448.167 L239.99539 448.167 L189.99539 548.167 "/>
      </g>
      <g style="fill:#8CFF86;stroke:none;">
        <path d="M189.99417 683.1704 L139.99417 583.1704 L239.99417 583.1704 L189.99417 683.1704 "/>
      </g>
      <g style="fill:#8CFF86;stroke:none;">
        <path d="M289.99307 -395.1704 L339.99304 -295.1704 L239.99304 -295.17044 L289.99307 -395.1704 "/>
      </g>
      <g style="fill:#8CFF86;stroke:none;">
        <path d="M289.99304 -260.1704 L339.993 -160.1704 L239.99301 -160.17043 L289.99304 -260.1704 "/>
      </g>
      <g style="fill:#8CFF86;stroke:none;">
        <path d="M289.99307 -125.17041 L339.99304 -25.17038 L239.99304 -25.17041 L289.99307 -125.17041 "/>
      </g>
      <g style="fill:#86FF7F;stroke:none;">
        <path d="M289.99304 9.82959 L339.993 109.82962 L239.99301 109.82959 L289.99304 9.82959 "/>
      </g>
      <g style="fill:#86FF7F;stroke:none;">
        <path d="M289.99307 144.82959 L339.99304 244.82959 L239.99304 244.82953 L289.99307 144.82959 "/>
      </g>
      <g style="fill:#86FF7F;stroke:none;">
        <path d="M289.99304 279.8296 L339.993 379.8296 L239.99301 379.82953 L289.99304 279.8296 "/>
      </g>
      <g style="fill:#86FF7F;stroke:none;">
        <path d="M289.99307 414.8296 L339.99304 514.8296 L239.99304 514.8295 L289.99307 414.8296 "/>
      </g>
      <g style="fill:#86FF7F;stroke:none;">
        <path d="M289.99307 549.8296 L339.99304 649.8296 L239.99304 649.8296 L289.99307 549.8296 "/>
      </g>
      <g style="fill:#7FFF79;stroke:none;">
        <path d="M389.99756 -261.83444 L339.99756 -361.8344 L439.99756 -361.83447 L389.99756 -261.83444 "/>
      </g>
      <g style="fill:#7FFF79;stroke:none;">
        <path d="M389.99982 -126.83362 L339.99982 -226.8336 L439.99982 -226.83363 L389.99982 -126.83362 "/>
      </g>
      <g style="fill:#7FFF79;stroke:none;">
        <path d="M389.9975 8.16568 L339.99744 -91.83432 L439.99744 -91.83432 L389.9975 8.16568 "/>
      </g>
      <g style="fill:#B2FFAE;stroke:none;">
        <path d="M389.99622 143.16394 L339.99622 43.16397 L439.99622 43.16397 L389.99622 143.16394 "/>
      </g>
      <g style="fill:#B2FFAE;stroke:none;">
        <path d="M389.99805 278.16644 L339.998 178.16644 L439.998 178.16638 L389.99805 278.16644 "/>
      </g>
      <g style="fill:#B2FFAE;stroke:none;">
        <path d="M389.99652 413.16156 L339.99646 313.16156 L439.99646 313.1615 L389.99652 413.16156 "/>
      </g>
      <g style="fill:#B2FFAE;stroke:none;">
        <path d="M389.9984 548.164 L339.9984 448.164 L439.9984 448.16394 L389.9984 548.164 "/>
      </g>
      <g style="fill:#B2FFAE;stroke:none;">
        <path d="M389.99133 683.1516 L339.99127 583.1515 L439.99127 583.1515 L389.99133 683.1516 "/>
      </g>
      <g style="fill:#ACFFA8;stroke:none;">
        <path d="M489.99304 -395.1704 L539.99304 -295.1704 L439.99304 -295.1704 L489.99304 -395.1704 "/>
      </g>
      <g style="fill:#ACFFA8;stroke:none;">
        <path d="M489.99304 -260.1704 L539.99304 -160.17041 L439.99304 -160.17041 L489.99304 -260.1704 "/>
      </g>
      <g style="fill:#ACFFA8;stroke:none;">
        <path d="M489.99304 -125.17041 L539.99304 -25.17041 L439.99304 -25.17041 L489.99304 -125.17041 "/>
      </g>
      <g style="fill:#ACFFA8;stroke:none;">
        <path d="M489.99304 9.82959 L539.99304 109.82959 L439.99304 109.82959 L489.99304 9.82959 "/>
      </g>
      <g style="fill:#ACFFA8;stroke:none;">
        <path d="M489.99304 144.82959 L539.993 244.82959 L439.99298 244.82953 L489.99304 144.82959 "/>
      </g>
      <g style="fill:#A5FFA1;stroke:none;">
        <path d="M489.99304 279.8296 L539.99304 379.8296 L439.99304 379.82953 L489.99304 279.8296 "/>
      </g>
      <g style="fill:#A5FFA1;stroke:none;">
        <path d="M489.99304 414.8296 L539.99304 514.8296 L439.99304 514.8295 L489.99304 414.8296 "/>
      </g>
      <g style="fill:#A5FFA1;stroke:none;">
        <path d="M489.99304 549.8296 L539.99304 649.8296 L439.99304 649.8296 L489.99304 549.8296 "/>
      </g>
      <g style="fill:#A5FFA1;stroke:none;">
        <path d="M590.00256 -261.83282 L540.0025 -361.83282 L640.0025 -361.8329 L590.00256 -261.83282 "/>
      </g>
      <g style="fill:#A5FFA1;stroke:none;">
        <path d="M590.0035 -126.831604 L540.0034 -226.83157 L640.0034 -226.83162 L590.0035 -126.831604 "/>
      </g>
      <g style="fill:#9FFF9A;stroke:none;">
        <path d="M590.007 8.170532 L540.00696 -91.82944 L640.00696 -91.8295 L590.007 8.170532 "/>
      </g>
      <g style="fill:#9FFF9A;stroke:none;">
        <path d="M590.0012 143.16882 L540.00116 43.168854 L640.00116 43.168793 L590.0012 143.16882 "/>
      </g>
      <g style="fill:#9FFF9A;stroke:none;">
        <path d="M589.99066 278.16034 L539.9906 178.1604 L639.9906 178.16034 L589.99066 278.16034 "/>
      </g>
      <g style="fill:#9FFF9A;stroke:none;">
        <path d="M590.0061 413.1706 L540.00604 313.17065 L640.00604 313.1706 L590.0061 413.1706 "/>
      </g>
      <g style="fill:#9FFF9A;stroke:none;">
        <path d="M589.9967 548.1591 L539.99664 448.15918 L639.99664 448.15912 L589.9967 548.1591 "/>
      </g>
      <g style="fill:#99FF93;stroke:none;">
        <path d="M590.0002 683.1614 L540.0001 583.1614 L640.0001 583.16125 L590.0002 683.1614 "/>
      </g>
    </g>
  </g>
</svg>
