<?xml version="1.0" encoding="UTF-8"?>
<svg xmlns="http://www.w3.org/2000/svg" height="288px" version="1.1" width="480px">
  <g style="fill:#191919;stroke:none;">
    <path d="M0.0 0.0 L480.0 0.0 L480.0 288.0 L0.0 288.0 L0.0 0.0 "/>
    <g style="">
      <g style="fill:none;stroke:#86063C;stroke-width:3.0;">
        <path d="M-2221.447 -2668.2803 L-1983.447 -2192.2803 L-2459.447 -2192.2803 L-2221.447 -2668.2803 "/>
      </g>
      <g style="fill:none;stroke:#860D40;stroke-width:3.0;">
        <path d="M-2221.447 -1954.2803 L-1983.447 -1478.2803 L-2459.447 -1478.2803 L-2221.447 -1954.2803 "/>
      </g>
      <g style="fill:none;stroke:#861444;stroke-width:3.0;">
        <path d="M-2221.447 -1240.2803 L-1983.447 -764.2803 L-2459.447 -764.2803 L-2221.447 -1240.2803 "/>
      </g>
      <g style="fill:none;stroke:#861A48;stroke-width:3.0;">
        <path d="M-2221.447 -526.2803 L-1983.447 -50.280273 L-2459.447 -50.280273 L-2221.447 -526.2803 "/>
      </g>
      <g style="fill:none;stroke:#86214C;stroke-width:3.0;">
        <path d="M-2221.447 187.71973 L-1983.447 663.7197 L-2459.447 663.7197 L-2221.447 187.71973 "/>
      </g>
      <g style="fill:none;stroke:#86284F;stroke-width:3.0;">
        <path d="M-2221.447 901.7197 L-1983.447 1377.7197 L-2459.447 1377.7197 L-2221.447 901.7197 "/>
      </g>
      <g style="fill:none;stroke:#862F53;stroke-width:3.0;">
        <path d="M-2221.447 1615.7197 L-1983.447 2091.7197 L-2459.447 2091.7197 L-2221.447 1615.7197 "/>
      </g>
      <g style="fill:none;stroke:#863557;stroke-width:3.0;">
        <path d="M-2221.447 2329.7197 L-1983.447 2805.7197 L-2459.447 2805.7197 L-2221.447 2329.7197 "/>
      </g>
      <g style="fill:none;stroke:#86063C;stroke-width:3.0;">
        <path d="M-1578.8357 -2041.7463 L-1703.659 -2559.085 L-1239.8589 -2452.0083 L-1578.8357 -2041.7463 "/>
      </g>
      <g style="fill:none;stroke:#860D40;stroke-width:3.0;">
        <path d="M-1578.8627 -1327.7671 L-1703.686 -1845.1057 L-1239.8859 -1738.029 L-1578.8627 -1327.7671 "/>
      </g>
      <g style="fill:none;stroke:#861444;stroke-width:3.0;">
        <path d="M-1578.8406 -613.7588 L-1703.6641 -1131.0974 L-1239.8639 -1024.0208 L-1578.8406 -613.7588 "/>
      </g>
      <g style="fill:none;stroke:#861A48;stroke-width:3.0;">
        <path d="M-1578.7932 100.319824 L-1703.6167 -417.0188 L-1239.8164 -309.94214 L-1578.7932 100.319824 "/>
      </g>
      <g style="fill:none;stroke:#86214C;stroke-width:3.0;">
        <path d="M-1578.7991 814.23535 L-1703.6226 296.89673 L-1239.8224 403.9734 L-1578.7991 814.23535 "/>
      </g>
      <g style="fill:none;stroke:#86284F;stroke-width:3.0;">
        <path d="M-1578.8026 1528.3076 L-1703.626 1010.96875 L-1239.8259 1118.0454 L-1578.8026 1528.3076 "/>
      </g>
      <g style="fill:none;stroke:#862F53;stroke-width:3.0;">
        <path d="M-1578.7905 2242.2285 L-1703.6138 1724.8896 L-1239.8137 1831.9663 L-1578.7905 2242.2285 "/>
      </g>
      <g style="fill:none;stroke:#863557;stroke-width:3.0;">
        <path d="M-1578.7928 2956.2803 L-1703.6162 2438.9414 L-1239.8162 2546.018 L-1578.7928 2956.2803 "/>
      </g>
      <g style="fill:none;stroke:#728600;stroke-width:3.0;">
        <path d="M-654.34753 -2636.1555 L-649.09924 -2103.997 L-1076.9252 -2312.6619 L-654.34753 -2636.1555 "/>
      </g>
      <g style="fill:none;stroke:#860038;stroke-width:3.0;">
        <path d="M-654.35376 -1922.1509 L-649.10547 -1389.9924 L-1076.9314 -1598.6572 L-654.35376 -1922.1509 "/>
      </g>
      <g style="fill:none;stroke:#86063C;stroke-width:3.0;">
        <path d="M-654.3508 -1208.1539 L-649.10254 -675.9957 L-1076.9285 -884.6603 L-654.3508 -1208.1539 "/>
      </g>
      <g style="fill:none;stroke:#860D40;stroke-width:3.0;">
        <path d="M-654.3318 -494.16357 L-649.0835 37.99463 L-1076.9094 -170.67017 L-654.3318 -494.16357 "/>
      </g>
      <g style="fill:none;stroke:#861444;stroke-width:3.0;">
        <path d="M-654.3425 219.83276 L-649.09424 751.99097 L-1076.9202 543.3262 L-654.3425 219.83276 "/>
      </g>
      <g style="fill:none;stroke:#861A48;stroke-width:3.0;">
        <path d="M-654.33545 933.83984 L-649.08716 1465.998 L-1076.9131 1257.3335 L-654.33545 933.83984 "/>
      </g>
      <g style="fill:none;stroke:#86214C;stroke-width:3.0;">
        <path d="M-654.3462 1647.8315 L-649.0978 2179.9897 L-1076.9237 1971.3252 L-654.3462 1647.8315 "/>
      </g>
      <g style="fill:none;stroke:#86284F;stroke-width:3.0;">
        <path d="M-654.2908 2361.8398 L-649.0426 2893.998 L-1076.8685 2685.3335 L-654.2908 2361.8398 "/>
      </g>
      <g style="fill:none;stroke:#862F53;stroke-width:3.0;">
        <path d="M-279.22485 -2104.3977 L-164.62915 -2624.0977 L205.29224 -2324.541 L-279.22485 -2104.3977 "/>
      </g>
      <g style="fill:none;stroke:#863557;stroke-width:3.0;">
        <path d="M-279.1814 -1390.3975 L-164.5857 -1910.0974 L205.3357 -1610.541 L-279.1814 -1390.3975 "/>
      </g>
      <g style="fill:none;stroke:#86063C;stroke-width:3.0;">
        <path d="M-279.1748 -676.3862 L-164.5791 -1196.0859 L205.34253 -896.52954 L-279.1748 -676.3862 "/>
      </g>
      <g style="fill:none;stroke:#860D40;stroke-width:3.0;">
        <path d="M-279.17505 37.683105 L-164.57935 -482.0166 L205.34229 -182.4602 L-279.17505 37.683105 "/>
      </g>
      <g style="fill:none;stroke:#861444;stroke-width:3.0;">
        <path d="M-279.11353 751.65063 L-164.51782 231.95068 L205.40356 531.5073 L-279.11353 751.65063 "/>
      </g>
      <g style="fill:none;stroke:#861A48;stroke-width:3.0;">
        <path d="M-279.18628 1465.7412 L-164.59058 946.041 L205.33081 1245.5977 L-279.18628 1465.7412 "/>
      </g>
      <g style="fill:none;stroke:#86214C;stroke-width:3.0;">
        <path d="M-279.13696 2179.3896 L-164.54126 1659.6904 L205.38013 1959.2466 L-279.13696 2179.3896 "/>
      </g>
      <g style="fill:none;stroke:#86284F;stroke-width:3.0;">
        <path d="M-279.10962 2893.7988 L-164.51392 2374.0986 L205.40747 2673.6553 L-279.10962 2893.7988 "/>
      </g>
      <g style="fill:none;stroke:#862F53;stroke-width:3.0;">
        <path d="M884.5813 -2546.2888 L656.0156 -2065.6875 L362.9607 -2440.7805 L884.5813 -2546.2888 "/>
      </g>
      <g style="fill:none;stroke:#863557;stroke-width:3.0;">
        <path d="M884.5847 -1832.3053 L656.01904 -1351.704 L362.9641 -1726.797 L884.5847 -1832.3053 "/>
      </g>
      <g style="fill:none;stroke:#728600;stroke-width:3.0;">
        <path d="M884.593 -1118.3043 L656.0271 -637.703 L362.9724 -1012.796 L884.593 -1118.3043 "/>
      </g>
      <g style="fill:none;stroke:#860038;stroke-width:3.0;">
        <path d="M884.6001 -404.31055 L656.0344 76.29053 L362.97974 -298.80225 L884.6001 -404.31055 "/>
      </g>
      <g style="fill:none;stroke:#86063C;stroke-width:3.0;">
        <path d="M884.66626 309.64844 L656.1006 790.2495 L363.04565 415.15625 L884.66626 309.64844 "/>
      </g>
      <g style="fill:none;stroke:#860D40;stroke-width:3.0;">
        <path d="M884.6411 1023.7212 L656.07544 1504.3228 L363.02075 1129.23 L884.6411 1023.7212 "/>
      </g>
      <g style="fill:none;stroke:#861444;stroke-width:3.0;">
        <path d="M884.5757 1737.6641 L656.01 2218.2651 L362.95532 1843.1724 L884.5757 1737.6641 "/>
      </g>
      <g style="fill:none;stroke:#861A48;stroke-width:3.0;">
        <path d="M884.82324 2451.6997 L656.2573 2932.3008 L363.2024 2557.2075 L884.82324 2451.6997 "/>
      </g>
      <g style="fill:none;stroke:#86214C;stroke-width:3.0;">
        <path d="M1060.9077 -2216.9011 L1391.7268 -2633.769 L1592.8933 -2202.3667 L1060.9077 -2216.9011 "/>
      </g>
      <g style="fill:none;stroke:#86284F;stroke-width:3.0;">
        <path d="M1060.9258 -1502.9011 L1391.7449 -1919.769 L1592.9114 -1488.3667 L1060.9258 -1502.9011 "/>
      </g>
      <g style="fill:none;stroke:#862F53;stroke-width:3.0;">
        <path d="M1060.887 -788.9258 L1391.706 -1205.7935 L1592.8728 -774.3911 L1060.887 -788.9258 "/>
      </g>
      <g style="fill:none;stroke:#863557;stroke-width:3.0;">
        <path d="M1061.0032 -74.77881 L1391.822 -491.64697 L1592.989 -60.24463 L1061.0032 -74.77881 "/>
      </g>
      <g style="fill:none;stroke:#86063C;stroke-width:3.0;">
        <path d="M1060.9822 639.1006 L1391.801 222.23242 L1592.968 653.63477 L1060.9822 639.1006 "/>
      </g>
      <g style="fill:none;stroke:#860D40;stroke-width:3.0;">
        <path d="M1060.8665 1353.1768 L1391.6855 936.3086 L1592.8523 1367.7109 L1060.8665 1353.1768 "/>
      </g>
      <g style="fill:none;stroke:#861444;stroke-width:3.0;">
        <path d="M1061.0461 2067.1826 L1391.8655 1650.3145 L1593.032 2081.7168 L1061.0461 2067.1826 "/>
      </g>
      <g style="fill:none;stroke:#861A48;stroke-width:3.0;">
        <path d="M1060.8713 2781.5752 L1391.69 2364.707 L1592.8564 2796.1094 L1060.8713 2781.5752 "/>
      </g>
      <g style="fill:none;stroke:#86214C;stroke-width:3.0;">
        <path d="M2372.9426 -2416.9453 L1956.8274 -2085.1802 L1857.8616 -2550.7783 L2372.9426 -2416.9453 "/>
      </g>
      <g style="fill:none;stroke:#86284F;stroke-width:3.0;">
        <path d="M2372.9329 -1702.8999 L1956.8176 -1371.1343 L1857.8518 -1836.7324 L2372.9329 -1702.8999 "/>
      </g>
      <g style="fill:none;stroke:#862F53;stroke-width:3.0;">
        <path d="M2372.9236 -988.93555 L1956.8083 -657.1704 L1857.842 -1122.7686 L2372.9236 -988.93555 "/>
      </g>
      <g style="fill:none;stroke:#863557;stroke-width:3.0;">
        <path d="M2372.846 -274.92993 L1956.7312 56.835205 L1857.7649 -408.76294 L2372.846 -274.92993 "/>
      </g>
      <g style="fill:none;stroke:#728600;stroke-width:3.0;">
        <path d="M2373.0193 439.0327 L1956.904 770.79785 L1857.9377 305.1997 L2373.0193 439.0327 "/>
      </g>
      <g style="fill:none;stroke:#860038;stroke-width:3.0;">
        <path d="M2373.119 1153.1316 L1957.0042 1484.8975 L1858.0378 1019.2991 L2373.119 1153.1316 "/>
      </g>
      <g style="fill:none;stroke:#86063C;stroke-width:3.0;">
        <path d="M2372.803 1867.0356 L1956.6877 2198.8008 L1857.7219 1733.2026 L2372.803 1867.0356 "/>
      </g>
      <g style="fill:none;stroke:#860D40;stroke-width:3.0;">
        <path d="M2373.0886 2581.1787 L1956.9734 2912.9438 L1858.0076 2447.3457 L2373.0886 2581.1787 "/>
      </g>
      <g style="fill:none;stroke:#861444;stroke-width:3.0;">
        <path d="M2459.2493 -2356.5415 L2939.3303 -2586.1987 L2931.0237 -2110.271 L2459.2493 -2356.5415 "/>
      </g>
      <g style="fill:none;stroke:#861A48;stroke-width:3.0;">
        <path d="M2459.176 -1642.5562 L2939.257 -1872.2134 L2930.9504 -1396.2856 L2459.176 -1642.5562 "/>
      </g>
      <g style="fill:none;stroke:#86214C;stroke-width:3.0;">
        <path d="M2459.2937 -928.4419 L2939.3748 -1158.0986 L2931.0676 -682.1709 L2459.2937 -928.4419 "/>
      </g>
      <g style="fill:none;stroke:#86284F;stroke-width:3.0;">
        <path d="M2459.3235 -214.53955 L2939.4045 -444.1963 L2931.098 31.731445 L2459.3235 -214.53955 "/>
      </g>
      <g style="fill:none;stroke:#862F53;stroke-width:3.0;">
        <path d="M2459.3 499.52637 L2939.3816 269.86914 L2931.0745 745.7969 L2459.3 499.52637 "/>
      </g>
      <g style="fill:none;stroke:#863557;stroke-width:3.0;">
        <path d="M2459.1794 1213.5435 L2939.26 983.8862 L2930.9534 1459.814 L2459.1794 1213.5435 "/>
      </g>
      <g style="fill:none;stroke:#86063C;stroke-width:3.0;">
        <path d="M2459.3665 1927.2769 L2939.447 1697.6201 L2931.1404 2173.5479 L2459.3665 1927.2769 "/>
      </g>
      <g style="fill:none;stroke:#860D40;stroke-width:3.0;">
        <path d="M2459.1023 2641.8955 L2939.1833 2412.2383 L2930.8767 2888.166 L2459.1023 2641.8955 "/>
      </g>
    </g>
  </g>
</svg>
