<?xml version="1.0" encoding="UTF-8"?>
<svg xmlns="http://www.w3.org/2000/svg" height="288px" version="1.1" width="480px">
  <g style="fill:#FFFFFF;stroke:none;">
    <path d="M0.0 0.0 L480.0 0.0 L480.0 288.0 L0.0 288.0 L0.0 0.0 "/>
    <g style="">
      <g style="fill:#67A361;stroke:none;">
        <path d="M-580.0 -676.0 L-375.0 -676.0 L-375.0 -471.0 L-580.0 -471.0 L-580.0 -676.0 "/>
      </g>
      <g style="fill:#95A361;stroke:none;">
        <path d="M-580.0 -471.0 L-375.0 -471.0 L-375.0 -266.0 L-580.0 -266.0 L-580.0 -471.0 "/>
      </g>
      <g style="fill:#A38461;stroke:none;">
        <path d="M-580.0 -266.0 L-375.0 -266.0 L-375.0 -61.0 L-580.0 -61.0 L-580.0 -266.0 "/>
      </g>
      <g style="fill:#A3616B;stroke:none;">
        <path d="M-580.0 -61.0 L-375.0 -61.0 L-375.0 144.0 L-580.0 144.0 L-580.0 -61.0 "/>
      </g>
      <g style="fill:#A36199;stroke:none;">
        <path d="M-580.0 144.0 L-375.0 144.0 L-375.0 349.0 L-580.0 349.0 L-580.0 144.0 "/>
      </g>
      <g style="fill:#67A361;stroke:none;">
        <path d="M-580.0 349.0 L-375.0 349.0 L-375.0 554.0 L-580.0 554.0 L-580.0 349.0 "/>
      </g>
      <g style="fill:#95A361;stroke:none;">
        <path d="M-580.0 554.0 L-375.0 554.0 L-375.0 759.0 L-580.0 759.0 L-580.0 554.0 "/>
      </g>
      <g style="fill:#A38461;stroke:none;">
        <path d="M-580.0 759.0 L-375.0 759.0 L-375.0 964.0 L-580.0 964.0 L-580.0 759.0 "/>
      </g>
      <g style="fill:#A3616B;stroke:none;">
        <path d="M-375.0 -676.0 L-170.0 -676.0 L-170.0 -471.0 L-375.0 -471.0 L-375.0 -676.0 "/>
      </g>
      <g style="fill:#A36199;stroke:none;">
        <path d="M-375.0 -471.0 L-170.0 -471.0 L-170.0 -266.0 L-375.0 -266.0 L-375.0 -471.0 "/>
      </g>
      <g style="fill:#67A361;stroke:none;">
        <path d="M-375.0 -266.0 L-170.0 -266.0 L-170.0 -61.0 L-375.0 -61.0 L-375.0 -266.0 "/>
      </g>
      <g style="fill:#95A361;stroke:none;">
        <path d="M-375.0 -61.0 L-170.0 -61.0 L-170.0 144.0 L-375.0 144.0 L-375.0 -61.0 "/>
      </g>
      <g style="fill:#A38461;stroke:none;">
        <path d="M-375.0 144.0 L-170.0 144.0 L-170.0 349.0 L-375.0 349.0 L-375.0 144.0 "/>
      </g>
      <g style="fill:#A3616B;stroke:none;">
        <path d="M-375.0 349.0 L-170.0 349.0 L-170.0 554.0 L-375.0 554.0 L-375.0 349.0 "/>
      </g>
      <g style="fill:#A36199;stroke:none;">
        <path d="M-375.0 554.0 L-170.0 554.0 L-170.0 759.0 L-375.0 759.0 L-375.0 554.0 "/>
      </g>
      <g style="fill:#67A361;stroke:none;">
        <path d="M-375.0 759.0 L-170.0 759.0 L-170.0 964.0 L-375.0 964.0 L-375.0 759.0 "/>
      </g>
      <g style="fill:#95A361;stroke:none;">
        <path d="M-170.0 -676.0 L35.0 -676.0 L35.0 -471.0 L-170.0 -471.0 L-170.0 -676.0 "/>
      </g>
      <g style="fill:#A38461;stroke:none;">
        <path d="M-170.0 -471.0 L35.0 -471.0 L35.0 -266.0 L-170.0 -266.0 L-170.0 -471.0 "/>
      </g>
      <g style="fill:#A3616B;stroke:none;">
        <path d="M-170.0 -266.0 L35.0 -266.0 L35.0 -61.0 L-170.0 -61.0 L-170.0 -266.0 "/>
      </g>
      <g style="fill:#A36199;stroke:none;">
        <path d="M-170.0 -61.0 L35.0 -61.0 L35.0 144.0 L-170.0 144.0 L-170.0 -61.0 "/>
      </g>
      <g style="fill:#67A361;stroke:none;">
        <path d="M-170.0 144.0 L35.0 144.0 L35.0 349.0 L-170.0 349.0 L-170.0 144.0 "/>
      </g>
      <g style="fill:#95A361;stroke:none;">
        <path d="M-170.0 349.0 L35.0 349.0 L35.0 554.0 L-170.0 554.0 L-170.0 349.0 "/>
      </g>
      <g style="fill:#A38461;stroke:none;">
        <path d="M-170.0 554.0 L35.0 554.0 L35.0 759.0 L-170.0 759.0 L-170.0 554.0 "/>
      </g>
      <g style="fill:#A3616B;stroke:none;">
        <path d="M-170.0 759.0 L35.0 759.0 L35.0 964.0 L-170.0 964.0 L-170.0 759.0 "/>
      </g>
      <g style="fill:#A36199;stroke:none;">
        <path d="M35.0 -676.0 L240.0 -676.0 L240.0 -471.0 L35.0 -471.0 L35.0 -676.0 "/>
      </g>
      <g style="fill:#67A361;stroke:none;">
        <path d="M35.0 -471.0 L240.0 -471.0 L240.0 -266.0 L35.0 -266.0 L35.0 -471.0 "/>
      </g>
      <g style="fill:#95A361;stroke:none;">
        <path d="M35.0 -266.0 L240.0 -266.0 L240.0 -61.0 L35.0 -61.0 L35.0 -266.0 "/>
      </g>
      <g style="fill:#A38461;stroke:none;">
        <path d="M35.0 -61.0 L240.0 -61.0 L240.0 144.0 L35.0 144.0 L35.0 -61.0 "/>
      </g>
      <g style="fill:#A3616B;stroke:none;">
        <path d="M35.0 144.0 L240.0 144.0 L240.0 349.0 L35.0 349.0 L35.0 144.0 "/>
      </g>
      <g style="fill:#A36199;stroke:none;">
        <path d="M35.0 349.0 L240.0 349.0 L240.0 554.0 L35.0 554.0 L35.0 349.0 "/>
      </g>
      <g style="fill:#67A361;stroke:none;">
        <path d="M35.0 554.0 L240.0 554.0 L240.0 759.0 L35.0 759.0 L35.0 554.0 "/>
      </g>
      <g style="fill:#95A361;stroke:none;">
        <path d="M35.0 759.0 L240.0 759.0 L240.0 964.0 L35.0 964.0 L35.0 759.0 "/>
      </g>
      <g style="fill:#A38461;stroke:none;">
        <path d="M240.0 -676.0 L445.0 -676.0 L445.0 -471.0 L240.0 -471.0 L240.0 -676.0 "/>
      </g>
      <g style="fill:#A3616B;stroke:none;">
        <path d="M240.0 -471.0 L445.0 -471.0 L445.0 -266.0 L240.0 -266.0 L240.0 -471.0 "/>
      </g>
      <g style="fill:#A36199;stroke:none;">
        <path d="M240.0 -266.0 L445.0 -266.0 L445.0 -61.0 L240.0 -61.0 L240.0 -266.0 "/>
      </g>
      <g style="fill:#67A361;stroke:none;">
        <path d="M240.0 -61.0 L445.0 -61.0 L445.0 144.0 L240.0 144.0 L240.0 -61.0 "/>
      </g>
      <g style="fill:#95A361;stroke:none;">
        <path d="M240.0 144.0 L445.0 144.0 L445.0 349.0 L240.0 349.0 L240.0 144.0 "/>
      </g>
      <g style="fill:#A38461;stroke:none;">
        <path d="M240.0 349.0 L445.0 349.0 L445.0 554.0 L240.0 554.0 L240.0 349.0 "/>
      </g>
      <g style="fill:#A3616B;stroke:none;">
        <path d="M240.0 554.0 L445.0 554.0 L445.0 759.0 L240.0 759.0 L240.0 554.0 "/>
      </g>
      <g style="fill:#A36199;stroke:none;">
        <path d="M240.0 759.0 L445.0 759.0 L445.0 964.0 L240.0 964.0 L240.0 759.0 "/>
      </g>
      <g style="fill:#67A361;stroke:none;">
        <path d="M445.0 -676.0 L650.0 -676.0 L650.0 -471.0 L445.0 -471.0 L445.0 -676.0 "/>
      </g>
      <g style="fill:#95A361;stroke:none;">
        <path d="M445.0 -471.0 L650.0 -471.0 L650.0 -266.0 L445.0 -266.0 L445.0 -471.0 "/>
      </g>
      <g style="fill:#A38461;stroke:none;">
        <path d="M445.0 -266.0 L650.0 -266.0 L650.0 -61.0 L445.0 -61.0 L445.0 -266.0 "/>
      </g>
      <g style="fill:#A3616B;stroke:none;">
        <path d="M445.0 -61.0 L650.0 -61.0 L650.0 144.0 L445.0 144.0 L445.0 -61.0 "/>
      </g>
      <g style="fill:#A36199;stroke:none;">
        <path d="M445.0 144.0 L650.0 144.0 L650.0 349.0 L445.0 349.0 L445.0 144.0 "/>
      </g>
      <g style="fill:#67A361;stroke:none;">
        <path d="M445.0 349.0 L650.0 349.0 L650.0 554.0 L445.0 554.0 L445.0 349.0 "/>
      </g>
      <g style="fill:#95A361;stroke:none;">
        <path d="M445.0 554.0 L650.0 554.0 L650.0 759.0 L445.0 759.0 L445.0 554.0 "/>
      </g>
      <g style="fill:#A38461;stroke:none;">
        <path d="M445.0 759.0 L650.0 759.0 L650.0 964.0 L445.0 964.0 L445.0 759.0 "/>
      </g>
      <g style="fill:#A3616B;stroke:none;">
        <path d="M650.0 -676.0 L855.0 -676.0 L855.0 -471.0 L650.0 -471.0 L650.0 -676.0 "/>
      </g>
      <g style="fill:#A36199;stroke:none;">
        <path d="M650.0 -471.0 L855.0 -471.0 L855.0 -266.0 L650.0 -266.0 L650.0 -471.0 "/>
      </g>
      <g style="fill:#67A361;stroke:none;">
        <path d="M650.0 -266.0 L855.0 -266.0 L855.0 -61.0 L650.0 -61.0 L650.0 -266.0 "/>
      </g>
      <g style="fill:#95A361;stroke:none;">
        <path d="M650.0 -61.0 L855.0 -61.0 L855.0 144.0 L650.0 144.0 L650.0 -61.0 "/>
      </g>
      <g style="fill:#A38461;stroke:none;">
        <path d="M650.0 144.0 L855.0 144.0 L855.0 349.0 L650.0 349.0 L650.0 144.0 "/>
      </g>
      <g style="fill:#A3616B;stroke:none;">
        <path d="M650.0 349.0 L855.0 349.0 L855.0 554.0 L650.0 554.0 L650.0 349.0 "/>
      </g>
      <g style="fill:#A36199;stroke:none;">
        <path d="M650.0 554.0 L855.0 554.0 L855.0 759.0 L650.0 759.0 L650.0 554.0 "/>
      </g>
      <g style="fill:#67A361;stroke:none;">
        <path d="M650.0 759.0 L855.0 759.0 L855.0 964.0 L650.0 964.0 L650.0 759.0 "/>
      </g>
      <g style="fill:#95A361;stroke:none;">
        <path d="M855.0 -676.0 L1060.0 -676.0 L1060.0 -471.0 L855.0 -471.0 L855.0 -676.0 "/>
      </g>
      <g style="fill:#A38461;stroke:none;">
        <path d="M855.0 -471.0 L1060.0 -471.0 L1060.0 -266.0 L855.0 -266.0 L855.0 -471.0 "/>
      </g>
      <g style="fill:#A3616B;stroke:none;">
        <path d="M855.0 -266.0 L1060.0 -266.0 L1060.0 -61.0 L855.0 -61.0 L855.0 -266.0 "/>
      </g>
      <g style="fill:#A36199;stroke:none;">
        <path d="M855.0 -61.0 L1060.0 -61.0 L1060.0 144.0 L855.0 144.0 L855.0 -61.0 "/>
      </g>
      <g style="fill:#67A361;stroke:none;">
        <path d="M855.0 144.0 L1060.0 144.0 L1060.0 349.0 L855.0 349.0 L855.0 144.0 "/>
      </g>
      <g style="fill:#95A361;stroke:none;">
        <path d="M855.0 349.0 L1060.0 349.0 L1060.0 554.0 L855.0 554.0 L855.0 349.0 "/>
      </g>
      <g style="fill:#A38461;stroke:none;">
        <path d="M855.0 554.0 L1060.0 554.0 L1060.0 759.0 L855.0 759.0 L855.0 554.0 "/>
      </g>
      <g style="fill:#A3616B;stroke:none;">
        <path d="M855.0 759.0 L1060.0 759.0 L1060.0 964.0 L855.0 964.0 L855.0 759.0 "/>
      </g>
    </g>
  </g>
</svg>
