<?xml version="1.0" encoding="UTF-8"?>
<svg xmlns="http://www.w3.org/2000/svg" height="288px" version="1.1" width="480px">
  <g style="fill:#3279CA;stroke:none;">
    <path d="M0.0 0.0 L480.0 0.0 L480.0 288.0 L0.0 288.0 L0.0 0.0 "/>
    <g style="">
      <g style="fill:#3266CA;stroke:none;">
        <path d="M-37.5 403.0 C-37.5 392.78275 -29.21727 384.5 -19.0 384.5 C-8.78273 384.5 -0.5 392.78275 -0.5 403.0 C-0.5 413.21725 -8.78273 421.5 -19.0 421.5 C-29.21727 421.5 -37.5 413.21725 -37.5 403.0 Z "/>
      </g>
      <g style="fill:#CA8C32;stroke:none;">
        <path d="M36.5 403.0 C36.5 392.78275 44.78273 384.5 55.0 384.5 C65.21727 384.5 73.5 392.78275 73.5 403.0 C73.5 413.21725 65.21727 421.5 55.0 421.5 C44.78273 421.5 36.5 413.21725 36.5 403.0 Z "/>
      </g>
      <g style="fill:#CA7932;stroke:none;">
        <path d="M110.5 403.0 C110.5 392.78275 118.78273 384.5 129.0 384.5 C139.21727 384.5 147.5 392.78275 147.5 403.0 C147.5 413.21725 139.21727 421.5 129.0 421.5 C118.78273 421.5 110.5 413.21725 110.5 403.0 Z "/>
      </g>
      <g style="fill:#3266CA;stroke:none;">
        <path d="M184.5 403.0 C184.5 392.78275 192.78273 384.5 203.0 384.5 C213.21727 384.5 221.5 392.78275 221.5 403.0 C221.5 413.21725 213.21727 421.5 203.0 421.5 C192.78273 421.5 184.5 413.21725 184.5 403.0 Z "/>
      </g>
      <g style="fill:#CA8C32;stroke:none;">
        <path d="M258.5 403.0 C258.5 392.78275 266.78275 384.5 277.0 384.5 C287.21725 384.5 295.5 392.78275 295.5 403.0 C295.5 413.21725 287.21725 421.5 277.0 421.5 C266.78275 421.5 258.5 413.21725 258.5 403.0 Z "/>
      </g>
      <g style="fill:#CA7932;stroke:none;">
        <path d="M332.5 403.0 C332.5 392.78275 340.78275 384.5 351.0 384.5 C361.21725 384.5 369.5 392.78275 369.5 403.0 C369.5 413.2173 361.21725 421.5 351.0 421.5 C340.78275 421.5 332.5 413.21725 332.5 403.0 Z "/>
      </g>
      <g style="fill:#3266CA;stroke:none;">
        <path d="M406.5 403.0 C406.5 392.78275 414.78275 384.5 425.0 384.5 C435.21725 384.5 443.5 392.78275 443.5 403.0 C443.5 413.2173 435.21725 421.5 425.0 421.5 C414.78275 421.5 406.5 413.2173 406.5 403.0 Z "/>
      </g>
      <g style="fill:#CA8C32;stroke:none;">
        <path d="M480.5 403.0 C480.5 392.78275 488.7827 384.5 499.0 384.5 C509.2173 384.5 517.5 392.78275 517.5 403.0 C517.5 413.2173 509.2173 421.5 499.0 421.5 C488.7827 421.5 480.5 413.2173 480.5 403.0 Z "/>
      </g>
      <g style="fill:#CA7932;stroke:none;">
        <path d="M-37.5 329.0 C-37.5 318.7827 -29.21727 310.5 -19.0 310.5 C-8.78273 310.5 -0.5 318.7827 -0.5 329.0 C-0.5 339.2173 -8.78273 347.5 -19.0 347.5 C-29.21727 347.5 -37.5 339.2173 -37.5 329.0 Z "/>
      </g>
      <g style="fill:#3266CA;stroke:none;">
        <path d="M36.5 329.0 C36.5 318.7827 44.78273 310.5 55.0 310.5 C65.21727 310.5 73.5 318.7827 73.5 329.0 C73.5 339.2173 65.21727 347.5 55.0 347.5 C44.78273 347.5 36.5 339.2173 36.5 329.0 Z "/>
      </g>
      <g style="fill:#CA8C32;stroke:none;">
        <path d="M110.5 329.0 C110.5 318.7827 118.78273 310.5 129.0 310.5 C139.21727 310.5 147.5 318.7827 147.5 329.0 C147.5 339.2173 139.21727 347.5 129.0 347.5 C118.78273 347.5 110.5 339.2173 110.5 329.0 Z "/>
      </g>
      <g style="fill:#CA7932;stroke:none;">
        <path d="M184.5 329.0 C184.5 318.7827 192.78273 310.5 203.0 310.5 C213.21727 310.5 221.5 318.7827 221.5 329.0 C221.5 339.2173 213.21727 347.5 203.0 347.5 C192.78273 347.5 184.5 339.2173 184.5 329.0 Z "/>
      </g>
      <g style="fill:#3266CA;stroke:none;">
        <path d="M258.5 329.0 C258.5 318.7827 266.78275 310.5 277.0 310.5 C287.21725 310.5 295.5 318.7827 295.5 329.0 C295.5 339.2173 287.21725 347.5 277.0 347.5 C266.78275 347.5 258.5 339.2173 258.5 329.0 Z "/>
      </g>
      <g style="fill:#CA8C32;stroke:none;">
        <path d="M332.5 329.0 C332.5 318.7827 340.78275 310.5 351.0 310.5 C361.21725 310.5 369.5 318.7827 369.5 329.0 C369.5 339.2173 361.21725 347.5 351.0 347.5 C340.78275 347.5 332.5 339.2173 332.5 329.0 Z "/>
      </g>
      <g style="fill:#CA7932;stroke:none;">
        <path d="M406.5 329.0 C406.5 318.7827 414.78275 310.5 425.0 310.5 C435.21725 310.5 443.5 318.78275 443.5 329.0 C443.5 339.2173 435.21725 347.5 425.0 347.5 C414.78275 347.5 406.5 339.2173 406.5 329.0 Z "/>
      </g>
      <g style="fill:#3266CA;stroke:none;">
        <path d="M480.5 329.0 C480.5 318.78275 488.7827 310.5 499.0 310.5 C509.2173 310.5 517.5 318.78275 517.5 329.0 C517.5 339.2173 509.2173 347.5 499.0 347.5 C488.7827 347.5 480.5 339.2173 480.5 329.0 Z "/>
      </g>
      <g style="fill:#CA8C32;stroke:none;">
        <path d="M-37.5 255.0 C-37.5 244.78273 -29.21727 236.5 -19.0 236.5 C-8.78273 236.5 -0.5 244.78273 -0.5 255.0 C-0.5 265.2173 -8.78273 273.5 -19.0 273.5 C-29.21727 273.5 -37.5 265.2173 -37.5 255.0 Z "/>
      </g>
      <g style="fill:#CA7932;stroke:none;">
        <path d="M36.5 255.0 C36.5 244.78273 44.78273 236.5 55.0 236.5 C65.21727 236.5 73.5 244.78273 73.5 255.0 C73.5 265.2173 65.21727 273.5 55.0 273.5 C44.78273 273.5 36.5 265.2173 36.5 255.0 Z "/>
      </g>
      <g style="fill:#3266CA;stroke:none;">
        <path d="M110.5 255.0 C110.5 244.78273 118.78273 236.5 129.0 236.5 C139.21727 236.5 147.5 244.78273 147.5 255.0 C147.5 265.2173 139.21727 273.5 129.0 273.5 C118.78273 273.5 110.5 265.2173 110.5 255.0 Z "/>
      </g>
      <g style="fill:#CA8C32;stroke:none;">
        <path d="M184.5 255.0 C184.5 244.78273 192.78273 236.5 203.0 236.5 C213.21727 236.5 221.5 244.78273 221.5 255.0 C221.5 265.2173 213.21727 273.5 203.0 273.5 C192.78273 273.5 184.5 265.2173 184.5 255.0 Z "/>
      </g>
      <g style="fill:#CA7932;stroke:none;">
        <path d="M258.5 255.0 C258.5 244.78273 266.78275 236.5 277.0 236.5 C287.21725 236.5 295.5 244.78273 295.5 255.0 C295.5 265.2173 287.21725 273.5 277.0 273.5 C266.78275 273.5 258.5 265.2173 258.5 255.0 Z "/>
      </g>
      <g style="fill:#3266CA;stroke:none;">
        <path d="M332.5 255.0 C332.5 244.78273 340.78275 236.5 351.0 236.5 C361.21725 236.5 369.5 244.78273 369.5 255.0 C369.5 265.2173 361.21725 273.5 351.0 273.5 C340.78275 273.5 332.5 265.2173 332.5 255.0 Z "/>
      </g>
      <g style="fill:#CA8C32;stroke:none;">
        <path d="M406.5 255.0 C406.5 244.78273 414.78275 236.5 425.0 236.5 C435.21725 236.5 443.5 244.78273 443.5 255.0 C443.5 265.2173 435.21725 273.5 425.0 273.5 C414.78275 273.5 406.5 265.2173 406.5 255.0 Z "/>
      </g>
      <g style="fill:#CA7932;stroke:none;">
        <path d="M480.5 255.0 C480.5 244.78273 488.7827 236.5 499.0 236.5 C509.2173 236.5 517.5 244.78273 517.5 255.0 C517.5 265.2173 509.2173 273.5 499.0 273.5 C488.7827 273.5 480.5 265.2173 480.5 255.0 Z "/>
      </g>
      <g style="fill:#3266CA;stroke:none;">
        <path d="M-37.5 181.0 C-37.5 170.78273 -29.21727 162.5 -19.0 162.5 C-8.78273 162.5 -0.5 170.78273 -0.5 181.0 C-0.5 191.21727 -8.78273 199.5 -19.0 199.5 C-29.21727 199.5 -37.5 191.21727 -37.5 181.0 Z "/>
      </g>
      <g style="fill:#CA8C32;stroke:none;">
        <path d="M36.500004 181.0 C36.500004 170.78273 44.782734 162.5 55.000004 162.5 C65.21727 162.5 73.5 170.78273 73.5 181.0 C73.5 191.21727 65.21727 199.5 55.000004 199.5 C44.782734 199.5 36.500004 191.21727 36.500004 181.0 Z "/>
      </g>
      <g style="fill:#CA7932;stroke:none;">
        <path d="M110.5 181.0 C110.5 170.78273 118.78273 162.5 129.0 162.5 C139.21727 162.5 147.5 170.78273 147.5 181.0 C147.5 191.21727 139.21727 199.5 129.0 199.5 C118.78273 199.5 110.5 191.21727 110.5 181.0 Z "/>
      </g>
      <g style="fill:#3266CA;stroke:none;">
        <path d="M184.5 181.0 C184.5 170.78273 192.78273 162.5 203.0 162.5 C213.21727 162.5 221.5 170.78273 221.5 181.0 C221.5 191.21727 213.21727 199.5 203.0 199.5 C192.78273 199.5 184.5 191.21727 184.5 181.0 Z "/>
      </g>
      <g style="fill:#CA8C32;stroke:none;">
        <path d="M258.5 181.0 C258.5 170.78273 266.78275 162.5 277.0 162.5 C287.21725 162.5 295.5 170.78273 295.5 181.0 C295.5 191.21727 287.21725 199.5 277.0 199.5 C266.78275 199.5 258.5 191.21727 258.5 181.0 Z "/>
      </g>
      <g style="fill:#CA7932;stroke:none;">
        <path d="M332.5 181.0 C332.5 170.78273 340.78275 162.5 351.0 162.5 C361.21725 162.5 369.5 170.78273 369.5 181.0 C369.5 191.21727 361.21725 199.5 351.0 199.5 C340.78275 199.5 332.5 191.21727 332.5 181.0 Z "/>
      </g>
      <g style="fill:#3266CA;stroke:none;">
        <path d="M406.5 181.0 C406.5 170.78273 414.78275 162.5 425.0 162.5 C435.21725 162.5 443.5 170.78273 443.5 181.0 C443.5 191.21727 435.21725 199.5 425.0 199.5 C414.78275 199.5 406.5 191.21727 406.5 181.0 Z "/>
      </g>
      <g style="fill:#CA8C32;stroke:none;">
        <path d="M480.5 181.0 C480.5 170.78273 488.7827 162.5 499.0 162.5 C509.2173 162.5 517.5 170.78273 517.5 181.0 C517.5 191.21727 509.2173 199.5 499.0 199.5 C488.7827 199.5 480.5 191.21727 480.5 181.0 Z "/>
      </g>
      <g style="fill:#CA7932;stroke:none;">
        <path d="M-37.5 107.0 C-37.5 96.782745 -29.21727 88.5 -19.0 88.5 C-8.78273 88.5 -0.5 96.782745 -0.5 107.0 C-0.5 117.217255 -8.78273 125.5 -19.0 125.5 C-29.21727 125.5 -37.5 117.217255 -37.5 107.0 Z "/>
      </g>
      <g style="fill:#3266CA;stroke:none;">
        <path d="M36.500004 107.0 C36.500004 96.782745 44.782734 88.5 55.000004 88.5 C65.21727 88.5 73.5 96.782745 73.5 107.0 C73.5 117.217255 65.21727 125.5 55.000004 125.5 C44.782734 125.5 36.500004 117.217255 36.500004 107.0 Z "/>
      </g>
      <g style="fill:#CA8C32;stroke:none;">
        <path d="M110.5 107.0 C110.5 96.782745 118.78273 88.5 129.0 88.5 C139.21727 88.5 147.5 96.782745 147.5 107.0 C147.5 117.217255 139.21727 125.5 129.0 125.5 C118.78273 125.5 110.5 117.217255 110.5 107.0 Z "/>
      </g>
      <g style="fill:#CA7932;stroke:none;">
        <path d="M184.5 107.0 C184.5 96.782745 192.78273 88.5 203.0 88.5 C213.21727 88.5 221.5 96.782745 221.5 107.0 C221.5 117.217255 213.21727 125.5 203.0 125.5 C192.78273 125.5 184.5 117.217255 184.5 107.0 Z "/>
      </g>
      <g style="fill:#3266CA;stroke:none;">
        <path d="M258.5 107.0 C258.5 96.782745 266.78275 88.5 277.0 88.5 C287.21725 88.5 295.5 96.782745 295.5 107.0 C295.5 117.217255 287.21725 125.5 277.0 125.5 C266.78275 125.5 258.5 117.217255 258.5 107.0 Z "/>
      </g>
      <g style="fill:#CA8C32;stroke:none;">
        <path d="M332.5 107.0 C332.5 96.782745 340.78275 88.5 351.0 88.5 C361.21725 88.5 369.5 96.782745 369.5 107.0 C369.5 117.217255 361.21725 125.5 351.0 125.5 C340.78275 125.5 332.5 117.217255 332.5 107.0 Z "/>
      </g>
      <g style="fill:#CA7932;stroke:none;">
        <path d="M406.5 107.0 C406.5 96.782745 414.78275 88.5 425.0 88.5 C435.21725 88.5 443.5 96.782745 443.5 107.0 C443.5 117.217255 435.21725 125.5 425.0 125.5 C414.78275 125.5 406.5 117.217255 406.5 107.0 Z "/>
      </g>
      <g style="fill:#3266CA;stroke:none;">
        <path d="M480.5 107.0 C480.5 96.782745 488.7827 88.5 499.0 88.5 C509.2173 88.5 517.5 96.782745 517.5 107.0 C517.5 117.217255 509.2173 125.5 499.0 125.5 C488.7827 125.5 480.5 117.217255 480.5 107.0 Z "/>
      </g>
      <g style="fill:#CA8C32;stroke:none;">
        <path d="M-37.5 33.0 C-37.5 22.782745 -29.217262 14.5 -18.999992 14.5 C-8.782722 14.5 -0.49999237 22.782745 -0.49999237 33.0 C-0.49999237 43.217255 -8.782722 51.5 -18.999992 51.5 C-29.217262 51.5 -37.5 43.217255 -37.5 33.0 Z "/>
      </g>
      <g style="fill:#CA7932;stroke:none;">
        <path d="M36.500004 33.0 C36.500004 22.782745 44.782734 14.5 55.000004 14.5 C65.21727 14.5 73.5 22.782745 73.5 33.0 C73.5 43.217255 65.21727 51.5 55.000004 51.5 C44.782734 51.5 36.500004 43.217255 36.500004 33.0 Z "/>
      </g>
      <g style="fill:#3266CA;stroke:none;">
        <path d="M110.5 33.0 C110.50001 22.782745 118.78273 14.5 129.0 14.5 C139.21727 14.5 147.5 22.782745 147.5 33.0 C147.5 43.217255 139.21727 51.5 129.0 51.5 C118.78273 51.5 110.5 43.217255 110.5 33.0 Z "/>
      </g>
      <g style="fill:#CA8C32;stroke:none;">
        <path d="M184.5 33.0 C184.5 22.782745 192.78275 14.5 203.0 14.5 C213.21729 14.5 221.5 22.782745 221.5 33.0 C221.5 43.217255 213.21729 51.5 203.0 51.5 C192.78275 51.5 184.5 43.217255 184.5 33.0 Z "/>
      </g>
      <g style="fill:#CA7932;stroke:none;">
        <path d="M258.5 33.0 C258.5 22.782745 266.78275 14.5 277.0 14.5 C287.21725 14.5 295.5 22.782745 295.5 33.0 C295.5 43.217255 287.21725 51.5 277.0 51.5 C266.78275 51.5 258.5 43.217255 258.5 33.0 Z "/>
      </g>
      <g style="fill:#3266CA;stroke:none;">
        <path d="M332.5 33.0 C332.5 22.782745 340.78275 14.5 351.0 14.5 C361.21725 14.5 369.5 22.782745 369.5 33.0 C369.5 43.217255 361.21725 51.5 351.0 51.5 C340.78275 51.5 332.5 43.217255 332.5 33.0 Z "/>
      </g>
      <g style="fill:#CA8C32;stroke:none;">
        <path d="M406.5 33.0 C406.5 22.782745 414.78275 14.5 425.0 14.5 C435.21725 14.5 443.5 22.782745 443.5 33.0 C443.5 43.217255 435.21725 51.5 425.0 51.5 C414.78275 51.5 406.5 43.217255 406.5 33.0 Z "/>
      </g>
      <g style="fill:#CA7932;stroke:none;">
        <path d="M480.5 33.0 C480.5 22.782745 488.7827 14.5 499.0 14.5 C509.2173 14.5 517.5 22.782745 517.5 33.0 C517.5 43.217255 509.2173 51.5 499.0 51.5 C488.7827 51.5 480.5 43.217255 480.5 33.0 Z "/>
      </g>
      <g style="fill:#3266CA;stroke:none;">
        <path d="M-37.5 -41.0 C-37.5 -51.217255 -29.217262 -59.5 -18.999992 -59.5 C-8.782722 -59.5 -0.49999237 -51.217255 -0.49999237 -41.0 C-0.49999237 -30.782745 -8.782722 -22.5 -18.999992 -22.5 C-29.217262 -22.5 -37.5 -30.782745 -37.5 -41.0 Z "/>
      </g>
      <g style="fill:#CA8C32;stroke:none;">
        <path d="M36.500004 -41.0 C36.500004 -51.217255 44.782734 -59.5 55.000004 -59.5 C65.21728 -59.5 73.50001 -51.217255 73.50001 -41.0 C73.50001 -30.782745 65.21728 -22.5 55.000004 -22.5 C44.782734 -22.5 36.500004 -30.782745 36.500004 -41.0 Z "/>
      </g>
      <g style="fill:#CA7932;stroke:none;">
        <path d="M110.50001 -41.0 C110.50001 -51.217255 118.78274 -59.5 129.0 -59.5 C139.21727 -59.5 147.5 -51.217255 147.5 -41.0 C147.5 -30.782745 139.21727 -22.5 129.0 -22.5 C118.78274 -22.5 110.50001 -30.782745 110.50001 -41.0 Z "/>
      </g>
      <g style="fill:#3266CA;stroke:none;">
        <path d="M184.5 -41.0 C184.5 -51.217255 192.78275 -59.5 203.0 -59.5 C213.21729 -59.5 221.5 -51.217255 221.5 -41.0 C221.5 -30.782745 213.21729 -22.5 203.0 -22.5 C192.78275 -22.5 184.5 -30.782745 184.5 -41.0 Z "/>
      </g>
      <g style="fill:#CA8C32;stroke:none;">
        <path d="M258.5 -41.0 C258.5 -51.217255 266.78275 -59.5 277.0 -59.5 C287.21725 -59.5 295.5 -51.217255 295.5 -41.0 C295.5 -30.782745 287.21725 -22.5 277.0 -22.5 C266.78275 -22.5 258.5 -30.782745 258.5 -41.0 Z "/>
      </g>
      <g style="fill:#CA7932;stroke:none;">
        <path d="M332.5 -41.0 C332.5 -51.217255 340.78275 -59.5 351.0 -59.5 C361.21725 -59.5 369.5 -51.217255 369.5 -41.0 C369.5 -30.782745 361.21725 -22.5 351.0 -22.5 C340.78275 -22.5 332.5 -30.782745 332.5 -41.0 Z "/>
      </g>
      <g style="fill:#3266CA;stroke:none;">
        <path d="M406.5 -41.0 C406.5 -51.217255 414.78275 -59.5 425.0 -59.5 C435.21725 -59.5 443.5 -51.217255 443.5 -41.0 C443.5 -30.782745 435.21725 -22.5 425.0 -22.5 C414.78275 -22.5 406.5 -30.782745 406.5 -41.0 Z "/>
      </g>
      <g style="fill:#CA8C32;stroke:none;">
        <path d="M480.5 -41.0 C480.5 -51.217255 488.7827 -59.5 499.0 -59.5 C509.2173 -59.5 517.5 -51.217255 517.5 -41.0 C517.5 -30.782745 509.2173 -22.5 499.0 -22.5 C488.7827 -22.5 480.5 -30.782745 480.5 -41.0 Z "/>
      </g>
      <g style="fill:#CA7932;stroke:none;">
        <path d="M-37.5 -115.0 C-37.5 -125.217285 -29.217262 -133.5 -18.999992 -133.5 C-8.782722 -133.5 -0.49999237 -125.217285 -0.49999237 -115.0 C-0.49999237 -104.782715 -8.782722 -96.5 -18.999992 -96.5 C-29.217262 -96.5 -37.5 -104.782715 -37.5 -115.0 Z "/>
      </g>
      <g style="fill:#3266CA;stroke:none;">
        <path d="M36.500008 -115.0 C36.500008 -125.217285 44.782738 -133.5 55.000008 -133.5 C65.21728 -133.5 73.50001 -125.217285 73.50001 -115.0 C73.50001 -104.782715 65.21728 -96.5 55.000008 -96.5 C44.782738 -96.5 36.500008 -104.782715 36.500008 -115.0 Z "/>
      </g>
      <g style="fill:#CA8C32;stroke:none;">
        <path d="M110.50001 -115.0 C110.50001 -125.217285 118.78274 -133.5 129.0 -133.5 C139.21729 -133.5 147.5 -125.217285 147.5 -115.0 C147.5 -104.782715 139.21729 -96.5 129.0 -96.5 C118.78274 -96.5 110.50001 -104.782715 110.50001 -115.0 Z "/>
      </g>
      <g style="fill:#CA7932;stroke:none;">
        <path d="M184.5 -115.0 C184.5 -125.217285 192.78275 -133.5 203.0 -133.5 C213.21729 -133.5 221.5 -125.217285 221.5 -115.0 C221.5 -104.782715 213.21729 -96.5 203.0 -96.5 C192.78275 -96.5 184.5 -104.782715 184.5 -115.0 Z "/>
      </g>
      <g style="fill:#3266CA;stroke:none;">
        <path d="M258.5 -115.0 C258.5 -125.217285 266.78275 -133.5 277.0 -133.5 C287.21725 -133.5 295.5 -125.217285 295.5 -115.0 C295.5 -104.782715 287.21725 -96.5 277.0 -96.5 C266.78275 -96.5 258.5 -104.782715 258.5 -115.0 Z "/>
      </g>
      <g style="fill:#CA8C32;stroke:none;">
        <path d="M332.5 -115.0 C332.5 -125.217285 340.78275 -133.5 351.0 -133.5 C361.21725 -133.5 369.5 -125.217285 369.5 -115.0 C369.5 -104.782715 361.21725 -96.5 351.0 -96.5 C340.78275 -96.5 332.5 -104.782715 332.5 -115.0 Z "/>
      </g>
      <g style="fill:#CA7932;stroke:none;">
        <path d="M406.5 -115.0 C406.5 -125.217285 414.78275 -133.5 425.0 -133.5 C435.21725 -133.5 443.5 -125.217285 443.5 -115.0 C443.5 -104.782715 435.21725 -96.5 425.0 -96.5 C414.78275 -96.5 406.5 -104.782715 406.5 -115.0 Z "/>
      </g>
      <g style="fill:#3266CA;stroke:none;">
        <path d="M480.5 -115.0 C480.5 -125.217285 488.7827 -133.5 499.0 -133.5 C509.2173 -133.5 517.5 -125.217285 517.5 -115.0 C517.5 -104.782715 509.2173 -96.5 499.0 -96.5 C488.7827 -96.5 480.5 -104.782715 480.5 -115.0 Z "/>
      </g>
    </g>
  </g>
</svg>
