<?xml version="1.0" encoding="UTF-8"?>
<svg xmlns="http://www.w3.org/2000/svg" height="288px" version="1.1" width="480px">
  <g style="fill:#8888FF;stroke:none;">
    <path d="M0.0 0.0 L480.0 0.0 L480.0 288.0 L0.0 288.0 L0.0 0.0 "/>
    <g style="">
      <g style="fill:#8894FF;stroke:none;">
        <path d="M-145.0 -277.5 C-124.841606 -277.5 -108.5 -261.1584 -108.5 -241.0 C-108.5 -220.84161 -124.841606 -204.5 -145.0 -204.5 C-165.15839 -204.5 -181.5 -220.84161 -181.5 -241.0 C-181.5 -261.1584 -165.15839 -277.5 -145.0 -277.5 Z "/>
      </g>
      <g style="fill:#88A0FF;stroke:none;">
        <path d="M-145.0 -167.5 C-124.841606 -167.5 -108.5 -151.15839 -108.5 -131.0 C-108.5 -110.84161 -124.841606 -94.5 -145.0 -94.5 C-165.15839 -94.5 -181.5 -110.84161 -181.5 -131.0 C-181.5 -151.15839 -165.15839 -167.5 -145.0 -167.5 Z "/>
      </g>
      <g style="fill:#88ACFF;stroke:none;">
        <path d="M-145.0 -57.5 C-124.841606 -57.5 -108.5 -41.158386 -108.5 -21.0 C-108.5 -0.84161377 -124.841606 15.5 -145.0 15.5 C-165.15839 15.5 -181.5 -0.84161377 -181.5 -21.0 C-181.5 -41.158386 -165.15839 -57.5 -145.0 -57.5 Z "/>
      </g>
      <g style="fill:#FFF988;stroke:none;">
        <path d="M-145.0 52.5 C-124.841606 52.5 -108.5 68.84161 -108.5 89.0 C-108.5 109.15839 -124.841606 125.5 -145.0 125.5 C-165.15839 125.5 -181.5 109.15839 -181.5 89.0 C-181.5 68.84161 -165.15839 52.5 -145.0 52.5 Z "/>
      </g>
      <g style="fill:#FFEC88;stroke:none;">
        <path d="M-145.0 162.5 C-124.841606 162.5 -108.5 178.84161 -108.5 199.0 C-108.5 219.15839 -124.841606 235.5 -145.0 235.5 C-165.15839 235.5 -181.5 219.15839 -181.5 199.0 C-181.5 178.84161 -165.15839 162.5 -145.0 162.5 Z "/>
      </g>
      <g style="fill:#FFE088;stroke:none;">
        <path d="M-145.0 272.5 C-124.841606 272.5 -108.5 288.8416 -108.5 309.0 C-108.5 329.1584 -124.841606 345.5 -145.0 345.5 C-165.15839 345.5 -181.5 329.1584 -181.5 309.0 C-181.5 288.8416 -165.15839 272.5 -145.0 272.5 Z "/>
      </g>
      <g style="fill:#FFD388;stroke:none;">
        <path d="M-145.0 382.5 C-124.841606 382.5 -108.5 398.8416 -108.5 419.0 C-108.5 439.1584 -124.841606 455.5 -145.0 455.5 C-165.15839 455.5 -181.5 439.1584 -181.5 419.0 C-181.5 398.8416 -165.15839 382.5 -145.0 382.5 Z "/>
      </g>
      <g style="fill:#8894FF;stroke:none;">
        <path d="M-145.0 492.5 C-124.841606 492.5 -108.5 508.8416 -108.5 529.0 C-108.5 549.1584 -124.841606 565.5 -145.0 565.5 C-165.15839 565.5 -181.5 549.1584 -181.5 529.0 C-181.5 508.8416 -165.15839 492.5 -145.0 492.5 Z "/>
      </g>
      <g style="fill:#88A0FF;stroke:none;">
        <path d="M-35.0 -277.5 C-14.841614 -277.5 1.5 -261.1584 1.5 -241.0 C1.5 -220.84161 -14.841614 -204.5 -35.0 -204.5 C-55.158394 -204.5 -71.5 -220.84161 -71.5 -241.0 C-71.5 -261.1584 -55.158394 -277.5 -35.0 -277.5 Z "/>
      </g>
      <g style="fill:#88ACFF;stroke:none;">
        <path d="M-35.0 -167.5 C-14.841614 -167.5 1.5 -151.15839 1.5 -131.0 C1.5 -110.84161 -14.841614 -94.5 -35.0 -94.5 C-55.158394 -94.5 -71.5 -110.84161 -71.5 -131.0 C-71.5 -151.15839 -55.158394 -167.5 -35.0 -167.5 Z "/>
      </g>
      <g style="fill:#FFF988;stroke:none;">
        <path d="M-35.0 -57.5 C-14.841614 -57.5 1.5 -41.158386 1.5 -21.0 C1.5 -0.84161377 -14.841614 15.5 -35.0 15.5 C-55.158394 15.5 -71.5 -0.84161377 -71.5 -21.0 C-71.5 -41.158386 -55.158394 -57.5 -35.0 -57.5 Z "/>
      </g>
      <g style="fill:#FFEC88;stroke:none;">
        <path d="M-35.0 52.5 C-14.841614 52.5 1.5 68.84161 1.5 89.0 C1.5 109.15839 -14.841614 125.5 -35.0 125.5 C-55.158394 125.5 -71.5 109.15839 -71.5 89.0 C-71.5 68.84161 -55.158394 52.5 -35.0 52.5 Z "/>
      </g>
      <g style="fill:#FFE088;stroke:none;">
        <path d="M-35.0 162.5 C-14.841614 162.5 1.5 178.84161 1.5 199.0 C1.5 219.15839 -14.841614 235.5 -35.0 235.5 C-55.158394 235.5 -71.5 219.15839 -71.5 199.0 C-71.5 178.84161 -55.158394 162.5 -35.0 162.5 Z "/>
      </g>
      <g style="fill:#FFD388;stroke:none;">
        <path d="M-35.0 272.5 C-14.841614 272.5 1.5 288.8416 1.5 309.0 C1.5 329.1584 -14.841614 345.5 -35.0 345.5 C-55.158394 345.5 -71.5 329.1584 -71.5 309.0 C-71.5 288.8416 -55.158394 272.5 -35.0 272.5 Z "/>
      </g>
      <g style="fill:#8894FF;stroke:none;">
        <path d="M-35.0 382.5 C-14.841614 382.5 1.5 398.8416 1.5 419.0 C1.5 439.1584 -14.841614 455.5 -35.0 455.5 C-55.158394 455.5 -71.5 439.1584 -71.5 419.0 C-71.5 398.8416 -55.158394 382.5 -35.0 382.5 Z "/>
      </g>
      <g style="fill:#88A0FF;stroke:none;">
        <path d="M-35.0 492.5 C-14.841614 492.5 1.5 508.8416 1.5 529.0 C1.5 549.1584 -14.841614 565.5 -35.0 565.5 C-55.158394 565.5 -71.5 549.1584 -71.5 529.0 C-71.5 508.8416 -55.158394 492.5 -35.0 492.5 Z "/>
      </g>
      <g style="fill:#88ACFF;stroke:none;">
        <path d="M75.0 -277.5 C95.15839 -277.5 111.5 -261.1584 111.5 -241.0 C111.5 -220.84161 95.15839 -204.5 75.0 -204.5 C54.841614 -204.5 38.5 -220.84161 38.5 -241.0 C38.5 -261.1584 54.841614 -277.5 75.0 -277.5 Z "/>
      </g>
      <g style="fill:#FFF988;stroke:none;">
        <path d="M75.0 -167.5 C95.15839 -167.5 111.5 -151.15839 111.5 -131.0 C111.5 -110.84161 95.15839 -94.5 75.0 -94.5 C54.841614 -94.5 38.5 -110.84161 38.5 -131.0 C38.5 -151.15839 54.841614 -167.5 75.0 -167.5 Z "/>
      </g>
      <g style="fill:#FFEC88;stroke:none;">
        <path d="M75.0 -57.5 C95.15839 -57.5 111.5 -41.158386 111.5 -21.0 C111.5 -0.84161377 95.15839 15.5 75.0 15.5 C54.841614 15.5 38.5 -0.84161377 38.5 -21.0 C38.5 -41.158386 54.841614 -57.5 75.0 -57.5 Z "/>
      </g>
      <g style="fill:#FFE088;stroke:none;">
        <path d="M75.0 52.5 C95.15839 52.5 111.5 68.84161 111.5 89.0 C111.5 109.15839 95.15839 125.5 75.0 125.5 C54.841614 125.5 38.5 109.15839 38.5 89.0 C38.5 68.84161 54.841614 52.5 75.0 52.5 Z "/>
      </g>
      <g style="fill:#FFD388;stroke:none;">
        <path d="M75.0 162.5 C95.15839 162.5 111.5 178.84161 111.5 199.0 C111.5 219.15839 95.15839 235.5 75.0 235.5 C54.841614 235.5 38.5 219.15839 38.5 199.0 C38.5 178.84161 54.841614 162.5 75.0 162.5 Z "/>
      </g>
      <g style="fill:#8894FF;stroke:none;">
        <path d="M75.0 272.5 C95.15839 272.5 111.5 288.8416 111.5 309.0 C111.5 329.1584 95.15839 345.5 75.0 345.5 C54.841614 345.5 38.5 329.1584 38.5 309.0 C38.5 288.8416 54.841614 272.5 75.0 272.5 Z "/>
      </g>
      <g style="fill:#88A0FF;stroke:none;">
        <path d="M75.0 382.5 C95.15839 382.5 111.5 398.8416 111.5 419.0 C111.5 439.1584 95.15839 455.5 75.0 455.5 C54.841614 455.5 38.5 439.1584 38.5 419.0 C38.5 398.8416 54.841614 382.5 75.0 382.5 Z "/>
      </g>
      <g style="fill:#88ACFF;stroke:none;">
        <path d="M75.0 492.5 C95.15839 492.5 111.5 508.8416 111.5 529.0 C111.5 549.1584 95.15839 565.5 75.0 565.5 C54.841614 565.5 38.5 549.1584 38.5 529.0 C38.5 508.8416 54.841614 492.5 75.0 492.5 Z "/>
      </g>
      <g style="fill:#FFF988;stroke:none;">
        <path d="M185.0 -277.5 C205.15839 -277.5 221.5 -261.1584 221.5 -241.0 C221.5 -220.84161 205.15839 -204.5 185.0 -204.5 C164.84161 -204.5 148.5 -220.84161 148.5 -241.0 C148.5 -261.1584 164.84161 -277.5 185.0 -277.5 Z "/>
      </g>
      <g style="fill:#FFEC88;stroke:none;">
        <path d="M185.0 -167.5 C205.15839 -167.5 221.5 -151.15839 221.5 -131.0 C221.5 -110.84161 205.15839 -94.5 185.0 -94.5 C164.84161 -94.5 148.5 -110.84161 148.5 -131.0 C148.5 -151.15839 164.84161 -167.5 185.0 -167.5 Z "/>
      </g>
      <g style="fill:#FFE088;stroke:none;">
        <path d="M185.0 -57.5 C205.15839 -57.5 221.5 -41.158386 221.5 -21.0 C221.5 -0.84161377 205.15839 15.5 185.0 15.5 C164.84161 15.5 148.5 -0.84161377 148.5 -21.0 C148.5 -41.158386 164.84161 -57.5 185.0 -57.5 Z "/>
      </g>
      <g style="fill:#FFD388;stroke:none;">
        <path d="M185.0 52.5 C205.15839 52.5 221.5 68.84161 221.5 89.0 C221.5 109.15839 205.15839 125.5 185.0 125.5 C164.84161 125.5 148.5 109.15839 148.5 89.0 C148.5 68.84161 164.84161 52.5 185.0 52.5 Z "/>
      </g>
      <g style="fill:#8894FF;stroke:none;">
        <path d="M185.0 162.5 C205.15839 162.5 221.5 178.84161 221.5 199.0 C221.5 219.15839 205.15839 235.5 185.0 235.5 C164.84161 235.5 148.5 219.15839 148.5 199.0 C148.5 178.84161 164.84161 162.5 185.0 162.5 Z "/>
      </g>
      <g style="fill:#88A0FF;stroke:none;">
        <path d="M185.0 272.5 C205.15839 272.5 221.5 288.8416 221.5 309.0 C221.5 329.1584 205.15839 345.5 185.0 345.5 C164.84161 345.5 148.5 329.1584 148.5 309.0 C148.5 288.8416 164.84161 272.5 185.0 272.5 Z "/>
      </g>
      <g style="fill:#88ACFF;stroke:none;">
        <path d="M185.0 382.5 C205.15839 382.5 221.5 398.8416 221.5 419.0 C221.5 439.1584 205.15839 455.5 185.0 455.5 C164.84161 455.5 148.5 439.1584 148.5 419.0 C148.5 398.8416 164.84161 382.5 185.0 382.5 Z "/>
      </g>
      <g style="fill:#FFF988;stroke:none;">
        <path d="M185.0 492.5 C205.15839 492.5 221.5 508.8416 221.5 529.0 C221.5 549.1584 205.15839 565.5 185.0 565.5 C164.84161 565.5 148.5 549.1584 148.5 529.0 C148.5 508.8416 164.84161 492.5 185.0 492.5 Z "/>
      </g>
      <g style="fill:#FFEC88;stroke:none;">
        <path d="M295.0 -277.5 C315.1584 -277.5 331.5 -261.1584 331.5 -241.0 C331.5 -220.84161 315.1584 -204.5 295.0 -204.5 C274.8416 -204.5 258.5 -220.84161 258.5 -241.0 C258.5 -261.1584 274.8416 -277.5 295.0 -277.5 Z "/>
      </g>
      <g style="fill:#FFE088;stroke:none;">
        <path d="M295.0 -167.5 C315.1584 -167.5 331.5 -151.15839 331.5 -131.0 C331.5 -110.84161 315.1584 -94.5 295.0 -94.5 C274.8416 -94.5 258.5 -110.84161 258.5 -131.0 C258.5 -151.15839 274.8416 -167.5 295.0 -167.5 Z "/>
      </g>
      <g style="fill:#FFD388;stroke:none;">
        <path d="M295.0 -57.5 C315.1584 -57.5 331.5 -41.158386 331.5 -21.0 C331.5 -0.84161377 315.1584 15.5 295.0 15.5 C274.8416 15.5 258.5 -0.84161377 258.5 -21.0 C258.5 -41.158386 274.8416 -57.5 295.0 -57.5 Z "/>
      </g>
      <g style="fill:#8894FF;stroke:none;">
        <path d="M295.0 52.5 C315.1584 52.5 331.5 68.84161 331.5 89.0 C331.5 109.15839 315.1584 125.5 295.0 125.5 C274.8416 125.5 258.5 109.15839 258.5 89.0 C258.5 68.84161 274.8416 52.5 295.0 52.5 Z "/>
      </g>
      <g style="fill:#88A0FF;stroke:none;">
        <path d="M295.0 162.5 C315.1584 162.5 331.5 178.84161 331.5 199.0 C331.5 219.15839 315.1584 235.5 295.0 235.5 C274.8416 235.5 258.5 219.15839 258.5 199.0 C258.5 178.84161 274.8416 162.5 295.0 162.5 Z "/>
      </g>
      <g style="fill:#88ACFF;stroke:none;">
        <path d="M295.0 272.5 C315.1584 272.5 331.5 288.8416 331.5 309.0 C331.5 329.1584 315.1584 345.5 295.0 345.5 C274.8416 345.5 258.5 329.1584 258.5 309.0 C258.5 288.8416 274.8416 272.5 295.0 272.5 Z "/>
      </g>
      <g style="fill:#FFF988;stroke:none;">
        <path d="M295.0 382.5 C315.1584 382.5 331.5 398.8416 331.5 419.0 C331.5 439.1584 315.1584 455.5 295.0 455.5 C274.8416 455.5 258.5 439.1584 258.5 419.0 C258.5 398.8416 274.8416 382.5 295.0 382.5 Z "/>
      </g>
      <g style="fill:#FFEC88;stroke:none;">
        <path d="M295.0 492.5 C315.1584 492.5 331.5 508.8416 331.5 529.0 C331.5 549.1584 315.1584 565.5 295.0 565.5 C274.8416 565.5 258.5 549.1584 258.5 529.0 C258.5 508.8416 274.8416 492.5 295.0 492.5 Z "/>
      </g>
      <g style="fill:#FFE088;stroke:none;">
        <path d="M405.0 -277.5 C425.1584 -277.5 441.5 -261.1584 441.5 -241.0 C441.5 -220.84161 425.1584 -204.5 405.0 -204.5 C384.8416 -204.5 368.5 -220.84161 368.5 -241.0 C368.5 -261.1584 384.8416 -277.5 405.0 -277.5 Z "/>
      </g>
      <g style="fill:#FFD388;stroke:none;">
        <path d="M405.0 -167.5 C425.1584 -167.5 441.5 -151.15839 441.5 -131.0 C441.5 -110.84161 425.1584 -94.5 405.0 -94.5 C384.8416 -94.5 368.5 -110.84161 368.5 -131.0 C368.5 -151.15839 384.8416 -167.5 405.0 -167.5 Z "/>
      </g>
      <g style="fill:#8894FF;stroke:none;">
        <path d="M405.0 -57.5 C425.1584 -57.5 441.5 -41.158386 441.5 -21.0 C441.5 -0.84161377 425.1584 15.5 405.0 15.5 C384.8416 15.5 368.5 -0.84161377 368.5 -21.0 C368.5 -41.158386 384.8416 -57.5 405.0 -57.5 Z "/>
      </g>
      <g style="fill:#88A0FF;stroke:none;">
        <path d="M405.0 52.5 C425.1584 52.5 441.5 68.84161 441.5 89.0 C441.5 109.15839 425.1584 125.5 405.0 125.5 C384.8416 125.5 368.5 109.15839 368.5 89.0 C368.5 68.84161 384.8416 52.5 405.0 52.5 Z "/>
      </g>
      <g style="fill:#88ACFF;stroke:none;">
        <path d="M405.0 162.5 C425.1584 162.5 441.5 178.84161 441.5 199.0 C441.5 219.15839 425.1584 235.5 405.0 235.5 C384.8416 235.5 368.5 219.15839 368.5 199.0 C368.5 178.84161 384.8416 162.5 405.0 162.5 Z "/>
      </g>
      <g style="fill:#FFF988;stroke:none;">
        <path d="M405.0 272.5 C425.1584 272.5 441.5 288.8416 441.5 309.0 C441.5 329.1584 425.1584 345.5 405.0 345.5 C384.8416 345.5 368.5 329.1584 368.5 309.0 C368.5 288.8416 384.8416 272.5 405.0 272.5 Z "/>
      </g>
      <g style="fill:#FFEC88;stroke:none;">
        <path d="M405.0 382.5 C425.1584 382.5 441.5 398.8416 441.5 419.0 C441.5 439.1584 425.1584 455.5 405.0 455.5 C384.8416 455.5 368.5 439.1584 368.5 419.0 C368.5 398.8416 384.8416 382.5 405.0 382.5 Z "/>
      </g>
      <g style="fill:#FFE088;stroke:none;">
        <path d="M405.0 492.5 C425.1584 492.5 441.5 508.8416 441.5 529.0 C441.5 549.1584 425.1584 565.5 405.0 565.5 C384.8416 565.5 368.5 549.1584 368.5 529.0 C368.5 508.8416 384.8416 492.5 405.0 492.5 Z "/>
      </g>
      <g style="fill:#FFD388;stroke:none;">
        <path d="M515.0 -277.5 C535.1584 -277.5 551.5 -261.1584 551.5 -241.0 C551.5 -220.84161 535.1584 -204.5 515.0 -204.5 C494.8416 -204.5 478.5 -220.84161 478.5 -241.0 C478.5 -261.1584 494.8416 -277.5 515.0 -277.5 Z "/>
      </g>
      <g style="fill:#8894FF;stroke:none;">
        <path d="M515.0 -167.5 C535.1584 -167.5 551.5 -151.15839 551.5 -131.0 C551.5 -110.84161 535.1584 -94.5 515.0 -94.5 C494.8416 -94.5 478.5 -110.84161 478.5 -131.0 C478.5 -151.15839 494.8416 -167.5 515.0 -167.5 Z "/>
      </g>
      <g style="fill:#88A0FF;stroke:none;">
        <path d="M515.0 -57.5 C535.1584 -57.5 551.5 -41.158386 551.5 -21.0 C551.5 -0.84161377 535.1584 15.5 515.0 15.5 C494.8416 15.5 478.5 -0.84161377 478.5 -21.0 C478.5 -41.158386 494.8416 -57.5 515.0 -57.5 Z "/>
      </g>
      <g style="fill:#88ACFF;stroke:none;">
        <path d="M515.0 52.5 C535.1584 52.5 551.5 68.84161 551.5 89.0 C551.5 109.15839 535.1584 125.5 515.0 125.5 C494.8416 125.5 478.5 109.15839 478.5 89.0 C478.5 68.84161 494.8416 52.5 515.0 52.5 Z "/>
      </g>
      <g style="fill:#FFF988;stroke:none;">
        <path d="M515.0 162.5 C535.1584 162.5 551.5 178.84161 551.5 199.0 C551.5 219.15839 535.1584 235.5 515.0 235.5 C494.8416 235.5 478.5 219.15839 478.5 199.0 C478.5 178.84161 494.8416 162.5 515.0 162.5 Z "/>
      </g>
      <g style="fill:#FFEC88;stroke:none;">
        <path d="M515.0 272.5 C535.1584 272.5 551.5 288.8416 551.5 309.0 C551.5 329.1584 535.1584 345.5 515.0 345.5 C494.8416 345.5 478.5 329.1584 478.5 309.0 C478.5 288.8416 494.8416 272.5 515.0 272.5 Z "/>
      </g>
      <g style="fill:#FFE088;stroke:none;">
        <path d="M515.0 382.5 C535.1584 382.5 551.5 398.8416 551.5 419.0 C551.5 439.1584 535.1584 455.5 515.0 455.5 C494.8416 455.5 478.5 439.1584 478.5 419.0 C478.5 398.8416 494.8416 382.5 515.0 382.5 Z "/>
      </g>
      <g style="fill:#FFD388;stroke:none;">
        <path d="M515.0 492.5 C535.1584 492.5 551.5 508.8416 551.5 529.0 C551.5 549.1584 535.1584 565.5 515.0 565.5 C494.8416 565.5 478.5 549.1584 478.5 529.0 C478.5 508.8416 494.8416 492.5 515.0 492.5 Z "/>
      </g>
      <g style="fill:#8894FF;stroke:none;">
        <path d="M625.0 -277.5 C645.1584 -277.5 661.5 -261.1584 661.5 -241.0 C661.5 -220.84161 645.1584 -204.5 625.0 -204.5 C604.8416 -204.5 588.5 -220.84161 588.5 -241.0 C588.5 -261.1584 604.8416 -277.5 625.0 -277.5 Z "/>
      </g>
      <g style="fill:#88A0FF;stroke:none;">
        <path d="M625.0 -167.5 C645.1584 -167.5 661.5 -151.15839 661.5 -131.0 C661.5 -110.84161 645.1584 -94.5 625.0 -94.5 C604.8416 -94.5 588.5 -110.84161 588.5 -131.0 C588.5 -151.15839 604.8416 -167.5 625.0 -167.5 Z "/>
      </g>
      <g style="fill:#88ACFF;stroke:none;">
        <path d="M625.0 -57.5 C645.1584 -57.5 661.5 -41.158386 661.5 -21.0 C661.5 -0.84161377 645.1584 15.5 625.0 15.5 C604.8416 15.5 588.5 -0.84161377 588.5 -21.0 C588.5 -41.158386 604.8416 -57.5 625.0 -57.5 Z "/>
      </g>
      <g style="fill:#FFF988;stroke:none;">
        <path d="M625.0 52.5 C645.1584 52.5 661.5 68.84161 661.5 89.0 C661.5 109.15839 645.1584 125.5 625.0 125.5 C604.8416 125.5 588.5 109.15839 588.5 89.0 C588.5 68.84161 604.8416 52.5 625.0 52.5 Z "/>
      </g>
      <g style="fill:#FFEC88;stroke:none;">
        <path d="M625.0 162.5 C645.1584 162.5 661.5 178.84161 661.5 199.0 C661.5 219.15839 645.1584 235.5 625.0 235.5 C604.8416 235.5 588.5 219.15839 588.5 199.0 C588.5 178.84161 604.8416 162.5 625.0 162.5 Z "/>
      </g>
      <g style="fill:#FFE088;stroke:none;">
        <path d="M625.0 272.5 C645.1584 272.5 661.5 288.8416 661.5 309.0 C661.5 329.1584 645.1584 345.5 625.0 345.5 C604.8416 345.5 588.5 329.1584 588.5 309.0 C588.5 288.8416 604.8416 272.5 625.0 272.5 Z "/>
      </g>
      <g style="fill:#FFD388;stroke:none;">
        <path d="M625.0 382.5 C645.1584 382.5 661.5 398.8416 661.5 419.0 C661.5 439.1584 645.1584 455.5 625.0 455.5 C604.8416 455.5 588.5 439.1584 588.5 419.0 C588.5 398.8416 604.8416 382.5 625.0 382.5 Z "/>
      </g>
      <g style="fill:#8894FF;stroke:none;">
        <path d="M625.0 492.5 C645.1584 492.5 661.5 508.8416 661.5 529.0 C661.5 549.1584 645.1584 565.5 625.0 565.5 C604.8416 565.5 588.5 549.1584 588.5 529.0 C588.5 508.8416 604.8416 492.5 625.0 492.5 Z "/>
      </g>
    </g>
  </g>
</svg>
